ISO-10303-21;
HEADER;
FILE_DESCRIPTION(('FreeCAD Model'),'2;1');
FILE_NAME('Open CASCADE Shape Model','2026-09-06T12:30:34',('FreeCAD'),(
    'FreeCAD'),'Open CASCADE STEP processor 7.8','FreeCAD','Unknown');
FILE_SCHEMA(('AUTOMOTIVE_DESIGN { 1 0 10303 214 1 1 1 1 }'));
ENDSEC;
DATA;
#1 = APPLICATION_PROTOCOL_DEFINITION('international standard',
  'automotive_design',2000,#2);
#2 = APPLICATION_CONTEXT(
  'core data for automotive mechanical design processes');
#3 = SHAPE_DEFINITION_REPRESENTATION(#4,#10);
#4 = PRODUCT_DEFINITION_SHAPE('','',#5);
#5 = PRODUCT_DEFINITION('design','',#6,#9);
#6 = PRODUCT_DEFINITION_FORMATION('','',#7);
#7 = PRODUCT('Open CASCADE STEP translator 7.8 228',
  'Open CASCADE STEP translator 7.8 228','',(#8));
#8 = PRODUCT_CONTEXT('',#2,'mechanical');
#9 = PRODUCT_DEFINITION_CONTEXT('part definition',#2,'design');
#10 = ADVANCED_BREP_SHAPE_REPRESENTATION('',(#11,#15),#1726);
#11 = AXIS2_PLACEMENT_3D('',#12,#13,#14);
#12 = CARTESIAN_POINT('',(0.,0.,0.));
#13 = DIRECTION('',(0.,0.,1.));
#14 = DIRECTION('',(1.,0.,-0.));
#15 = MANIFOLD_SOLID_BREP('',#16);
#16 = CLOSED_SHELL('',(#17,#50,#75,#245,#336,#367,#391,#423,#447,#503,
    #581,#613,#637,#661,#678,#709,#733,#757,#774,#805,#829,#853,#870,
    #895,#918,#936,#953,#970,#1072,#1089,#1106,#1129,#1145,#1177,#1194,
    #1210,#1226,#1257,#1273,#1296,#1336,#1361,#1385,#1402,#1425,#1448,
    #1473,#1497,#1523,#1540,#1565,#1582,#1607,#1618,#1638,#1658,#1683,
    #1708,#1717));
#17 = ADVANCED_FACE('',(#18),#45,.F.);
#18 = FACE_BOUND('',#19,.F.);
#19 = EDGE_LOOP('',(#20,#30,#37,#38));
#20 = ORIENTED_EDGE('',*,*,#21,.F.);
#21 = EDGE_CURVE('',#22,#24,#26,.T.);
#22 = VERTEX_POINT('',#23);
#23 = CARTESIAN_POINT('',(-39.5,-12.2,3.E-15));
#24 = VERTEX_POINT('',#25);
#25 = CARTESIAN_POINT('',(-39.5,5.,-1.E-15));
#26 = LINE('',#27,#28);
#27 = CARTESIAN_POINT('',(-39.5,-15.,3.33E-15));
#28 = VECTOR('',#29,1.);
#29 = DIRECTION('',(0.,1.,-2.2E-16));
#30 = ORIENTED_EDGE('',*,*,#31,.F.);
#31 = EDGE_CURVE('',#22,#22,#32,.T.);
#32 = CIRCLE('',#33,2.5);
#33 = AXIS2_PLACEMENT_3D('',#34,#35,#36);
#34 = CARTESIAN_POINT('',(-42.,-12.2,2.71E-15));
#35 = DIRECTION('',(0.,-1.,2.2E-16));
#36 = DIRECTION('',(1.,0.,0.));
#37 = ORIENTED_EDGE('',*,*,#21,.T.);
#38 = ORIENTED_EDGE('',*,*,#39,.T.);
#39 = EDGE_CURVE('',#24,#24,#40,.T.);
#40 = CIRCLE('',#41,2.5);
#41 = AXIS2_PLACEMENT_3D('',#42,#43,#44);
#42 = CARTESIAN_POINT('',(-42.,5.,-1.11E-15));
#43 = DIRECTION('',(0.,-1.,2.2E-16));
#44 = DIRECTION('',(1.,0.,0.));
#45 = CYLINDRICAL_SURFACE('',#46,2.5);
#46 = AXIS2_PLACEMENT_3D('',#47,#48,#49);
#47 = CARTESIAN_POINT('',(-42.,-15.,3.33E-15));
#48 = DIRECTION('',(0.,-1.,2.2E-16));
#49 = DIRECTION('',(1.,0.,0.));
#50 = ADVANCED_FACE('',(#51),#70,.F.);
#51 = FACE_BOUND('',#52,.T.);
#52 = EDGE_LOOP('',(#53,#61,#68,#69));
#53 = ORIENTED_EDGE('',*,*,#54,.F.);
#54 = EDGE_CURVE('',#55,#22,#57,.T.);
#55 = VERTEX_POINT('',#56);
#56 = CARTESIAN_POINT('',(-37.,-15.,3.E-15));
#57 = LINE('',#58,#59);
#58 = CARTESIAN_POINT('',(-39.5,-12.2,2.71E-15));
#59 = VECTOR('',#60,1.);
#60 = DIRECTION('',(-0.666015769309,0.745937661626,-1.7E-16));
#61 = ORIENTED_EDGE('',*,*,#62,.T.);
#62 = EDGE_CURVE('',#55,#55,#63,.T.);
#63 = CIRCLE('',#64,5.);
#64 = AXIS2_PLACEMENT_3D('',#65,#66,#67);
#65 = CARTESIAN_POINT('',(-42.,-15.,3.33E-15));
#66 = DIRECTION('',(0.,-1.,2.2E-16));
#67 = DIRECTION('',(1.,0.,0.));
#68 = ORIENTED_EDGE('',*,*,#54,.T.);
#69 = ORIENTED_EDGE('',*,*,#31,.F.);
#70 = CONICAL_SURFACE('',#71,2.5,0.728854726453);
#71 = AXIS2_PLACEMENT_3D('',#72,#73,#74);
#72 = CARTESIAN_POINT('',(-42.,-12.2,2.71E-15));
#73 = DIRECTION('',(0.,-1.,2.2E-16));
#74 = DIRECTION('',(1.,0.,0.));
#75 = ADVANCED_FACE('',(#76,#158,#192,#195,#229),#240,.T.);
#76 = FACE_BOUND('',#77,.T.);
#77 = EDGE_LOOP('',(#78,#88,#96,#104,#112,#120,#128,#136,#144,#152));
#78 = ORIENTED_EDGE('',*,*,#79,.T.);
#79 = EDGE_CURVE('',#80,#82,#84,.T.);
#80 = VERTEX_POINT('',#81);
#81 = CARTESIAN_POINT('',(-49.5,5.,-13.99999999997));
#82 = VERTEX_POINT('',#83);
#83 = CARTESIAN_POINT('',(-49.5,5.,15.));
#84 = LINE('',#85,#86);
#85 = CARTESIAN_POINT('',(-49.5,5.,-19.99999999995));
#86 = VECTOR('',#87,1.);
#87 = DIRECTION('',(0.,0.,1.));
#88 = ORIENTED_EDGE('',*,*,#89,.F.);
#89 = EDGE_CURVE('',#90,#82,#92,.T.);
#90 = VERTEX_POINT('',#91);
#91 = CARTESIAN_POINT('',(-44.5,5.,20.));
#92 = LINE('',#93,#94);
#93 = CARTESIAN_POINT('',(-39.62499999999,5.,24.875000000004));
#94 = VECTOR('',#95,1.);
#95 = DIRECTION('',(-0.707106781187,0.,-0.707106781187));
#96 = ORIENTED_EDGE('',*,*,#97,.T.);
#97 = EDGE_CURVE('',#90,#98,#100,.T.);
#98 = VERTEX_POINT('',#99);
#99 = CARTESIAN_POINT('',(44.5,5.,20.));
#100 = LINE('',#101,#102);
#101 = CARTESIAN_POINT('',(34.5,5.,20.));
#102 = VECTOR('',#103,1.);
#103 = DIRECTION('',(1.,0.,0.));
#104 = ORIENTED_EDGE('',*,*,#105,.T.);
#105 = EDGE_CURVE('',#98,#106,#108,.T.);
#106 = VERTEX_POINT('',#107);
#107 = CARTESIAN_POINT('',(49.5,5.,15.));
#108 = LINE('',#109,#110);
#109 = CARTESIAN_POINT('',(39.625000000001,5.,24.874999999999));
#110 = VECTOR('',#111,1.);
#111 = DIRECTION('',(0.707106781187,0.,-0.707106781187));
#112 = ORIENTED_EDGE('',*,*,#113,.T.);
#113 = EDGE_CURVE('',#106,#114,#116,.T.);
#114 = VERTEX_POINT('',#115);
#115 = CARTESIAN_POINT('',(49.5,5.,-14.));
#116 = LINE('',#117,#118);
#117 = CARTESIAN_POINT('',(49.5,5.,20.));
#118 = VECTOR('',#119,1.);
#119 = DIRECTION('',(0.,0.,-1.));
#120 = ORIENTED_EDGE('',*,*,#121,.T.);
#121 = EDGE_CURVE('',#114,#122,#124,.T.);
#122 = VERTEX_POINT('',#123);
#123 = CARTESIAN_POINT('',(48.792893218813,5.,-15.70710678118));
#124 = LINE('',#125,#126);
#125 = CARTESIAN_POINT('',(48.173543456041,5.,-17.20234937832));
#126 = VECTOR('',#127,1.);
#127 = DIRECTION('',(-0.382683432365,0.,-0.923879532511));
#128 = ORIENTED_EDGE('',*,*,#129,.T.);
#129 = EDGE_CURVE('',#122,#130,#132,.T.);
#130 = VERTEX_POINT('',#131);
#131 = CARTESIAN_POINT('',(44.5,5.,-20.));
#132 = LINE('',#133,#134);
#133 = CARTESIAN_POINT('',(39.625000000001,5.,-24.87499999999));
#134 = VECTOR('',#135,1.);
#135 = DIRECTION('',(-0.707106781187,0.,-0.707106781186));
#136 = ORIENTED_EDGE('',*,*,#137,.T.);
#137 = EDGE_CURVE('',#130,#138,#140,.T.);
#138 = VERTEX_POINT('',#139);
#139 = CARTESIAN_POINT('',(-44.5,5.,-19.99999999997));
#140 = LINE('',#141,#142);
#141 = CARTESIAN_POINT('',(49.5,5.,-20.));
#142 = VECTOR('',#143,1.);
#143 = DIRECTION('',(-1.,0.,0.));
#144 = ORIENTED_EDGE('',*,*,#145,.F.);
#145 = EDGE_CURVE('',#146,#138,#148,.T.);
#146 = VERTEX_POINT('',#147);
#147 = CARTESIAN_POINT('',(-48.79289321881,5.,-15.70710678116));
#148 = LINE('',#149,#150);
#149 = CARTESIAN_POINT('',(-39.62499999999,5.,-24.87499999998));
#150 = VECTOR('',#151,1.);
#151 = DIRECTION('',(0.707106781186,0.,-0.707106781187));
#152 = ORIENTED_EDGE('',*,*,#153,.F.);
#153 = EDGE_CURVE('',#80,#146,#154,.T.);
#154 = LINE('',#155,#156);
#155 = CARTESIAN_POINT('',(-48.17354345603,5.,-17.20234937831));
#156 = VECTOR('',#157,1.);
#157 = DIRECTION('',(0.382683432365,0.,-0.923879532511));
#158 = FACE_BOUND('',#159,.T.);
#159 = EDGE_LOOP('',(#160,#170,#178,#186));
#160 = ORIENTED_EDGE('',*,*,#161,.F.);
#161 = EDGE_CURVE('',#162,#164,#166,.T.);
#162 = VERTEX_POINT('',#163);
#163 = CARTESIAN_POINT('',(-22.75,5.,-9.950647431153));
#164 = VERTEX_POINT('',#165);
#165 = CARTESIAN_POINT('',(-22.75,5.,-3.599794470067));
#166 = LINE('',#167,#168);
#167 = CARTESIAN_POINT('',(-22.75,5.,-0.434859416814));
#168 = VECTOR('',#169,1.);
#169 = DIRECTION('',(0.,0.,1.));
#170 = ORIENTED_EDGE('',*,*,#171,.F.);
#171 = EDGE_CURVE('',#172,#162,#174,.T.);
#172 = VERTEX_POINT('',#173);
#173 = CARTESIAN_POINT('',(-17.25,5.,-9.950647431153));
#174 = LINE('',#175,#176);
#175 = CARTESIAN_POINT('',(-11.375,5.,-9.950647431153));
#176 = VECTOR('',#177,1.);
#177 = DIRECTION('',(-1.,0.,0.));
#178 = ORIENTED_EDGE('',*,*,#179,.F.);
#179 = EDGE_CURVE('',#180,#172,#182,.T.);
#180 = VERTEX_POINT('',#181);
#181 = CARTESIAN_POINT('',(-17.25,5.,-3.599794470067));
#182 = LINE('',#183,#184);
#183 = CARTESIAN_POINT('',(-17.25,5.,-2.816429277221));
#184 = VECTOR('',#185,1.);
#185 = DIRECTION('',(0.,0.,-1.));
#186 = ORIENTED_EDGE('',*,*,#187,.F.);
#187 = EDGE_CURVE('',#164,#180,#188,.T.);
#188 = LINE('',#189,#190);
#189 = CARTESIAN_POINT('',(-8.625,5.,-3.599794470067));
#190 = VECTOR('',#191,1.);
#191 = DIRECTION('',(1.,0.,0.));
#192 = FACE_BOUND('',#193,.T.);
#193 = EDGE_LOOP('',(#194));
#194 = ORIENTED_EDGE('',*,*,#39,.T.);
#195 = FACE_BOUND('',#196,.T.);
#196 = EDGE_LOOP('',(#197,#207,#215,#223));
#197 = ORIENTED_EDGE('',*,*,#198,.F.);
#198 = EDGE_CURVE('',#199,#201,#203,.T.);
#199 = VERTEX_POINT('',#200);
#200 = CARTESIAN_POINT('',(17.25,5.,-9.950647431153));
#201 = VERTEX_POINT('',#202);
#202 = CARTESIAN_POINT('',(17.25,5.,-3.599794470067));
#203 = LINE('',#204,#205);
#204 = CARTESIAN_POINT('',(17.25,5.,-0.434859416814));
#205 = VECTOR('',#206,1.);
#206 = DIRECTION('',(0.,0.,1.));
#207 = ORIENTED_EDGE('',*,*,#208,.F.);
#208 = EDGE_CURVE('',#209,#199,#211,.T.);
#209 = VERTEX_POINT('',#210);
#210 = CARTESIAN_POINT('',(22.75,5.,-9.950647431153));
#211 = LINE('',#212,#213);
#212 = CARTESIAN_POINT('',(8.625,5.,-9.950647431153));
#213 = VECTOR('',#214,1.);
#214 = DIRECTION('',(-1.,0.,0.));
#215 = ORIENTED_EDGE('',*,*,#216,.F.);
#216 = EDGE_CURVE('',#217,#209,#219,.T.);
#217 = VERTEX_POINT('',#218);
#218 = CARTESIAN_POINT('',(22.75,5.,-3.599794470067));
#219 = LINE('',#220,#221);
#220 = CARTESIAN_POINT('',(22.75,5.,-2.816429277221));
#221 = VECTOR('',#222,1.);
#222 = DIRECTION('',(0.,0.,-1.));
#223 = ORIENTED_EDGE('',*,*,#224,.F.);
#224 = EDGE_CURVE('',#201,#217,#225,.T.);
#225 = LINE('',#226,#227);
#226 = CARTESIAN_POINT('',(11.375,5.,-3.599794470067));
#227 = VECTOR('',#228,1.);
#228 = DIRECTION('',(1.,0.,0.));
#229 = FACE_BOUND('',#230,.T.);
#230 = EDGE_LOOP('',(#231));
#231 = ORIENTED_EDGE('',*,*,#232,.T.);
#232 = EDGE_CURVE('',#233,#233,#235,.T.);
#233 = VERTEX_POINT('',#234);
#234 = CARTESIAN_POINT('',(44.5,5.,-1.E-15));
#235 = CIRCLE('',#236,2.5);
#236 = AXIS2_PLACEMENT_3D('',#237,#238,#239);
#237 = CARTESIAN_POINT('',(42.,5.,-1.11E-15));
#238 = DIRECTION('',(0.,-1.,2.2E-16));
#239 = DIRECTION('',(1.,0.,0.));
#240 = PLANE('',#241);
#241 = AXIS2_PLACEMENT_3D('',#242,#243,#244);
#242 = CARTESIAN_POINT('',(8.40955E-12,5.,5.94586E-12));
#243 = DIRECTION('',(0.,1.,0.));
#244 = DIRECTION('',(0.,0.,1.));
#245 = ADVANCED_FACE('',(#246,#249),#331,.F.);
#246 = FACE_BOUND('',#247,.F.);
#247 = EDGE_LOOP('',(#248));
#248 = ORIENTED_EDGE('',*,*,#62,.T.);
#249 = FACE_BOUND('',#250,.F.);
#250 = EDGE_LOOP('',(#251,#261,#269,#277,#285,#293,#301,#309,#317,#325)
  );
#251 = ORIENTED_EDGE('',*,*,#252,.T.);
#252 = EDGE_CURVE('',#253,#255,#257,.T.);
#253 = VERTEX_POINT('',#254);
#254 = CARTESIAN_POINT('',(-48.5,-15.,15.));
#255 = VERTEX_POINT('',#256);
#256 = CARTESIAN_POINT('',(-34.7,-15.,15.));
#257 = LINE('',#258,#259);
#258 = CARTESIAN_POINT('',(-49.5,-15.,15.));
#259 = VECTOR('',#260,1.);
#260 = DIRECTION('',(1.,0.,0.));
#261 = ORIENTED_EDGE('',*,*,#262,.T.);
#262 = EDGE_CURVE('',#255,#263,#265,.T.);
#263 = VERTEX_POINT('',#264);
#264 = CARTESIAN_POINT('',(-34.7,-15.,2.679491924311));
#265 = LINE('',#266,#267);
#266 = CARTESIAN_POINT('',(-34.7,-15.,20.));
#267 = VECTOR('',#268,1.);
#268 = DIRECTION('',(0.,-2.1E-16,-1.));
#269 = ORIENTED_EDGE('',*,*,#270,.F.);
#270 = EDGE_CURVE('',#271,#263,#273,.T.);
#271 = VERTEX_POINT('',#272);
#272 = CARTESIAN_POINT('',(-34.5,-15.,2.679491924311));
#273 = LINE('',#274,#275);
#274 = CARTESIAN_POINT('',(-34.5,-15.,2.679491924311));
#275 = VECTOR('',#276,1.);
#276 = DIRECTION('',(-1.,-0.,-0.));
#277 = ORIENTED_EDGE('',*,*,#278,.T.);
#278 = EDGE_CURVE('',#271,#279,#281,.T.);
#279 = VERTEX_POINT('',#280);
#280 = CARTESIAN_POINT('',(-33.5,-15.,2.679491924311));
#281 = LINE('',#282,#283);
#282 = CARTESIAN_POINT('',(9.0167E-12,-15.,2.679491924311));
#283 = VECTOR('',#284,1.);
#284 = DIRECTION('',(1.,0.,0.));
#285 = ORIENTED_EDGE('',*,*,#286,.T.);
#286 = EDGE_CURVE('',#279,#287,#289,.T.);
#287 = VERTEX_POINT('',#288);
#288 = CARTESIAN_POINT('',(-34.5,-15.,0.679491924311));
#289 = LINE('',#290,#291);
#290 = CARTESIAN_POINT('',(-30.78589838485,-15.,8.107695154595));
#291 = VECTOR('',#292,1.);
#292 = DIRECTION('',(-0.4472135955,-2.E-16,-0.894427191));
#293 = ORIENTED_EDGE('',*,*,#294,.T.);
#294 = EDGE_CURVE('',#287,#295,#297,.T.);
#295 = VERTEX_POINT('',#296);
#296 = CARTESIAN_POINT('',(-34.5,-15.,-18.99999999998));
#297 = LINE('',#298,#299);
#298 = CARTESIAN_POINT('',(-34.5,-15.,20.));
#299 = VECTOR('',#300,1.);
#300 = DIRECTION('',(0.,0.,-1.));
#301 = ORIENTED_EDGE('',*,*,#302,.T.);
#302 = EDGE_CURVE('',#295,#303,#305,.T.);
#303 = VERTEX_POINT('',#304);
#304 = CARTESIAN_POINT('',(-44.08578643762,-15.,-18.99999999998));
#305 = LINE('',#306,#307);
#306 = CARTESIAN_POINT('',(-34.5,-15.,-18.99999999998));
#307 = VECTOR('',#308,1.);
#308 = DIRECTION('',(-1.,0.,0.));
#309 = ORIENTED_EDGE('',*,*,#310,.F.);
#310 = EDGE_CURVE('',#311,#303,#313,.T.);
#311 = VERTEX_POINT('',#312);
#312 = CARTESIAN_POINT('',(-48.08578643763,-15.,-14.99999999997));
#313 = LINE('',#314,#315);
#314 = CARTESIAN_POINT('',(-48.79289321881,-15.,-14.29289321879));
#315 = VECTOR('',#316,1.);
#316 = DIRECTION('',(0.707106781186,-1.6E-16,-0.707106781187));
#317 = ORIENTED_EDGE('',*,*,#318,.F.);
#318 = EDGE_CURVE('',#319,#311,#321,.T.);
#319 = VERTEX_POINT('',#320);
#320 = CARTESIAN_POINT('',(-48.5,-15.,-13.99999999997));
#321 = LINE('',#322,#323);
#322 = CARTESIAN_POINT('',(-47.42354345604,-15.,-16.5987959877));
#323 = VECTOR('',#324,1.);
#324 = DIRECTION('',(0.382683432364,-2.1E-16,-0.923879532512));
#325 = ORIENTED_EDGE('',*,*,#326,.T.);
#326 = EDGE_CURVE('',#319,#253,#327,.T.);
#327 = LINE('',#328,#329);
#328 = CARTESIAN_POINT('',(-48.5,-15.,-14.99999999997));
#329 = VECTOR('',#330,1.);
#330 = DIRECTION('',(0.,2.2E-16,1.));
#331 = PLANE('',#332);
#332 = AXIS2_PLACEMENT_3D('',#333,#334,#335);
#333 = CARTESIAN_POINT('',(1.80328E-11,-15.,1.181089E-11));
#334 = DIRECTION('',(0.,1.,-2.2E-16));
#335 = DIRECTION('',(0.,2.2E-16,1.));
#336 = ADVANCED_FACE('',(#337),#362,.T.);
#337 = FACE_BOUND('',#338,.T.);
#338 = EDGE_LOOP('',(#339,#340,#348,#356));
#339 = ORIENTED_EDGE('',*,*,#79,.F.);
#340 = ORIENTED_EDGE('',*,*,#341,.T.);
#341 = EDGE_CURVE('',#80,#342,#344,.T.);
#342 = VERTEX_POINT('',#343);
#343 = CARTESIAN_POINT('',(-49.5,-14.,-13.99999999997));
#344 = LINE('',#345,#346);
#345 = CARTESIAN_POINT('',(-49.5,5.,-13.99999999997));
#346 = VECTOR('',#347,1.);
#347 = DIRECTION('',(0.,-1.,2.2E-16));
#348 = ORIENTED_EDGE('',*,*,#349,.T.);
#349 = EDGE_CURVE('',#342,#350,#352,.T.);
#350 = VERTEX_POINT('',#351);
#351 = CARTESIAN_POINT('',(-49.5,-14.,15.));
#352 = LINE('',#353,#354);
#353 = CARTESIAN_POINT('',(-49.5,-14.,-14.99999999997));
#354 = VECTOR('',#355,1.);
#355 = DIRECTION('',(0.,2.2E-16,1.));
#356 = ORIENTED_EDGE('',*,*,#357,.F.);
#357 = EDGE_CURVE('',#82,#350,#358,.T.);
#358 = LINE('',#359,#360);
#359 = CARTESIAN_POINT('',(-49.5,5.,15.));
#360 = VECTOR('',#361,1.);
#361 = DIRECTION('',(0.,-1.,2.2E-16));
#362 = PLANE('',#363);
#363 = AXIS2_PLACEMENT_3D('',#364,#365,#366);
#364 = CARTESIAN_POINT('',(-49.5,5.,-19.99999999995));
#365 = DIRECTION('',(-1.,0.,0.));
#366 = DIRECTION('',(0.,2.2E-16,1.));
#367 = ADVANCED_FACE('',(#368),#386,.F.);
#368 = FACE_BOUND('',#369,.F.);
#369 = EDGE_LOOP('',(#370,#371,#372,#380));
#370 = ORIENTED_EDGE('',*,*,#153,.F.);
#371 = ORIENTED_EDGE('',*,*,#341,.T.);
#372 = ORIENTED_EDGE('',*,*,#373,.T.);
#373 = EDGE_CURVE('',#342,#374,#376,.T.);
#374 = VERTEX_POINT('',#375);
#375 = CARTESIAN_POINT('',(-48.79289321881,-14.,-15.70710678116));
#376 = LINE('',#377,#378);
#377 = CARTESIAN_POINT('',(-49.25,-14.,-14.60355339056));
#378 = VECTOR('',#379,1.);
#379 = DIRECTION('',(0.382683432365,-7.9226E-13,-0.923879532511));
#380 = ORIENTED_EDGE('',*,*,#381,.F.);
#381 = EDGE_CURVE('',#146,#374,#382,.T.);
#382 = LINE('',#383,#384);
#383 = CARTESIAN_POINT('',(-48.79289321881,5.,-15.70710678116));
#384 = VECTOR('',#385,1.);
#385 = DIRECTION('',(0.,-1.,2.2E-16));
#386 = PLANE('',#387);
#387 = AXIS2_PLACEMENT_3D('',#388,#389,#390);
#388 = CARTESIAN_POINT('',(-49.1464466094,5.,-14.85355339056));
#389 = DIRECTION('',(0.923879532511,-8.28E-14,0.382683432365));
#390 = DIRECTION('',(-7.657517483661E-14,-1.,-3.149800135188E-14));
#391 = ADVANCED_FACE('',(#392),#418,.T.);
#392 = FACE_BOUND('',#393,.F.);
#393 = EDGE_LOOP('',(#394,#395,#396,#404,#412));
#394 = ORIENTED_EDGE('',*,*,#357,.F.);
#395 = ORIENTED_EDGE('',*,*,#89,.F.);
#396 = ORIENTED_EDGE('',*,*,#397,.T.);
#397 = EDGE_CURVE('',#90,#398,#400,.T.);
#398 = VERTEX_POINT('',#399);
#399 = CARTESIAN_POINT('',(-44.5,-10.,20.));
#400 = LINE('',#401,#402);
#401 = CARTESIAN_POINT('',(-44.5,5.,20.));
#402 = VECTOR('',#403,1.);
#403 = DIRECTION('',(0.,-1.,2.2E-16));
#404 = ORIENTED_EDGE('',*,*,#405,.T.);
#405 = EDGE_CURVE('',#398,#406,#408,.T.);
#406 = VERTEX_POINT('',#407);
#407 = CARTESIAN_POINT('',(-49.,-14.5,15.5));
#408 = LINE('',#409,#410);
#409 = CARTESIAN_POINT('',(-44.5,-10.,20.));
#410 = VECTOR('',#411,1.);
#411 = DIRECTION('',(-0.57735026919,-0.57735026919,-0.57735026919));
#412 = ORIENTED_EDGE('',*,*,#413,.F.);
#413 = EDGE_CURVE('',#350,#406,#414,.T.);
#414 = LINE('',#415,#416);
#415 = CARTESIAN_POINT('',(-56.66666666666,-6.833333333337,
    7.833333333337));
#416 = VECTOR('',#417,1.);
#417 = DIRECTION('',(0.57735026919,-0.57735026919,0.57735026919));
#418 = PLANE('',#419);
#419 = AXIS2_PLACEMENT_3D('',#420,#421,#422);
#420 = CARTESIAN_POINT('',(-47.,5.,17.5));
#421 = DIRECTION('',(-0.707106781187,0.,0.707106781187));
#422 = DIRECTION('',(-1.1E-16,1.,-1.1E-16));
#423 = ADVANCED_FACE('',(#424),#442,.T.);
#424 = FACE_BOUND('',#425,.F.);
#425 = EDGE_LOOP('',(#426,#427,#428,#436));
#426 = ORIENTED_EDGE('',*,*,#145,.F.);
#427 = ORIENTED_EDGE('',*,*,#381,.T.);
#428 = ORIENTED_EDGE('',*,*,#429,.T.);
#429 = EDGE_CURVE('',#374,#430,#432,.T.);
#430 = VERTEX_POINT('',#431);
#431 = CARTESIAN_POINT('',(-44.5,-14.,-19.99999999997));
#432 = LINE('',#433,#434);
#433 = CARTESIAN_POINT('',(-49.5,-14.,-14.99999999997));
#434 = VECTOR('',#435,1.);
#435 = DIRECTION('',(0.707106781186,-1.6E-16,-0.707106781187));
#436 = ORIENTED_EDGE('',*,*,#437,.F.);
#437 = EDGE_CURVE('',#138,#430,#438,.T.);
#438 = LINE('',#439,#440);
#439 = CARTESIAN_POINT('',(-44.5,5.,-19.99999999997));
#440 = VECTOR('',#441,1.);
#441 = DIRECTION('',(0.,-1.,2.2E-16));
#442 = PLANE('',#443);
#443 = AXIS2_PLACEMENT_3D('',#444,#445,#446);
#444 = CARTESIAN_POINT('',(-47.,5.,-17.49999999997));
#445 = DIRECTION('',(-0.707106781187,1.5297E-13,-0.707106781186));
#446 = DIRECTION('',(1.082761243181E-13,1.,1.080561243181E-13));
#447 = ADVANCED_FACE('',(#448),#498,.T.);
#448 = FACE_BOUND('',#449,.T.);
#449 = EDGE_LOOP('',(#450,#451,#452,#460,#468,#476,#484,#492));
#450 = ORIENTED_EDGE('',*,*,#97,.F.);
#451 = ORIENTED_EDGE('',*,*,#397,.T.);
#452 = ORIENTED_EDGE('',*,*,#453,.T.);
#453 = EDGE_CURVE('',#398,#454,#456,.T.);
#454 = VERTEX_POINT('',#455);
#455 = CARTESIAN_POINT('',(-34.7,-10.,20.));
#456 = LINE('',#457,#458);
#457 = CARTESIAN_POINT('',(-49.5,-10.,20.));
#458 = VECTOR('',#459,1.);
#459 = DIRECTION('',(1.,0.,0.));
#460 = ORIENTED_EDGE('',*,*,#461,.F.);
#461 = EDGE_CURVE('',#462,#454,#464,.T.);
#462 = VERTEX_POINT('',#463);
#463 = CARTESIAN_POINT('',(-34.7,-5.,20.));
#464 = LINE('',#465,#466);
#465 = CARTESIAN_POINT('',(-34.7,-5.,20.));
#466 = VECTOR('',#467,1.);
#467 = DIRECTION('',(0.,-1.,0.));
#468 = ORIENTED_EDGE('',*,*,#469,.F.);
#469 = EDGE_CURVE('',#470,#462,#472,.T.);
#470 = VERTEX_POINT('',#471);
#471 = CARTESIAN_POINT('',(34.7,-5.,20.));
#472 = LINE('',#473,#474);
#473 = CARTESIAN_POINT('',(-34.5,-5.,20.));
#474 = VECTOR('',#475,1.);
#475 = DIRECTION('',(-1.,-0.,-0.));
#476 = ORIENTED_EDGE('',*,*,#477,.T.);
#477 = EDGE_CURVE('',#470,#478,#480,.T.);
#478 = VERTEX_POINT('',#479);
#479 = CARTESIAN_POINT('',(34.7,-10.,20.));
#480 = LINE('',#481,#482);
#481 = CARTESIAN_POINT('',(34.7,-5.,20.));
#482 = VECTOR('',#483,1.);
#483 = DIRECTION('',(-2.2E-16,-1.,-0.));
#484 = ORIENTED_EDGE('',*,*,#485,.T.);
#485 = EDGE_CURVE('',#478,#486,#488,.T.);
#486 = VERTEX_POINT('',#487);
#487 = CARTESIAN_POINT('',(44.5,-10.,20.));
#488 = LINE('',#489,#490);
#489 = CARTESIAN_POINT('',(34.7,-10.,20.));
#490 = VECTOR('',#491,1.);
#491 = DIRECTION('',(1.,0.,0.));
#492 = ORIENTED_EDGE('',*,*,#493,.F.);
#493 = EDGE_CURVE('',#98,#486,#494,.T.);
#494 = LINE('',#495,#496);
#495 = CARTESIAN_POINT('',(44.5,5.,20.));
#496 = VECTOR('',#497,1.);
#497 = DIRECTION('',(0.,-1.,2.2E-16));
#498 = PLANE('',#499);
#499 = AXIS2_PLACEMENT_3D('',#500,#501,#502);
#500 = CARTESIAN_POINT('',(0.,-2.713178294574,20.));
#501 = DIRECTION('',(0.,0.,1.));
#502 = DIRECTION('',(1.,0.,0.));
#503 = ADVANCED_FACE('',(#504),#576,.T.);
#504 = FACE_BOUND('',#505,.T.);
#505 = EDGE_LOOP('',(#506,#507,#508,#516,#524,#532,#547,#555,#562,#570)
  );
#506 = ORIENTED_EDGE('',*,*,#437,.F.);
#507 = ORIENTED_EDGE('',*,*,#137,.F.);
#508 = ORIENTED_EDGE('',*,*,#509,.T.);
#509 = EDGE_CURVE('',#130,#510,#512,.T.);
#510 = VERTEX_POINT('',#511);
#511 = CARTESIAN_POINT('',(44.5,-14.,-20.));
#512 = LINE('',#513,#514);
#513 = CARTESIAN_POINT('',(44.5,5.,-20.));
#514 = VECTOR('',#515,1.);
#515 = DIRECTION('',(0.,-1.,2.2E-16));
#516 = ORIENTED_EDGE('',*,*,#517,.T.);
#517 = EDGE_CURVE('',#510,#518,#520,.T.);
#518 = VERTEX_POINT('',#519);
#519 = CARTESIAN_POINT('',(33.499999999998,-13.99999999999,-20.));
#520 = LINE('',#521,#522);
#521 = CARTESIAN_POINT('',(44.500000000002,-14.,-20.));
#522 = VECTOR('',#523,1.);
#523 = DIRECTION('',(-1.,0.,0.));
#524 = ORIENTED_EDGE('',*,*,#525,.F.);
#525 = EDGE_CURVE('',#526,#518,#528,.T.);
#526 = VERTEX_POINT('',#527);
#527 = CARTESIAN_POINT('',(33.5,-26.36195996001,-20.));
#528 = LINE('',#529,#530);
#529 = CARTESIAN_POINT('',(33.5,-28.09401076758,-20.));
#530 = VECTOR('',#531,1.);
#531 = DIRECTION('',(0.,1.,0.));
#532 = ORIENTED_EDGE('',*,*,#533,.T.);
#533 = EDGE_CURVE('',#526,#534,#536,.T.);
#534 = VERTEX_POINT('',#535);
#535 = CARTESIAN_POINT('',(33.5,-27.09401076758,-20.));
#536 = B_SPLINE_CURVE_WITH_KNOTS('',3,(#537,#538,#539,#540,#541,#542,
    #543,#544,#545,#546),.UNSPECIFIED.,.F.,.F.,(4,2,2,2,4),(0.,0.25,0.5,
    0.75,1.),.UNSPECIFIED.);
#537 = CARTESIAN_POINT('',(33.5,-26.36195996001,-20.));
#538 = CARTESIAN_POINT('',(33.5,-26.42296419398,-20.));
#539 = CARTESIAN_POINT('',(33.5,-26.48396842794,-20.));
#540 = CARTESIAN_POINT('',(33.5,-26.60597689587,-20.));
#541 = CARTESIAN_POINT('',(33.5,-26.66698112983,-20.));
#542 = CARTESIAN_POINT('',(33.5,-26.78898959776,-20.));
#543 = CARTESIAN_POINT('',(33.5,-26.84999383173,-20.));
#544 = CARTESIAN_POINT('',(33.5,-26.97200229965,-20.));
#545 = CARTESIAN_POINT('',(33.5,-27.03300653362,-20.));
#546 = CARTESIAN_POINT('',(33.5,-27.09401076758,-20.));
#547 = ORIENTED_EDGE('',*,*,#548,.T.);
#548 = EDGE_CURVE('',#534,#549,#551,.T.);
#549 = VERTEX_POINT('',#550);
#550 = CARTESIAN_POINT('',(-33.5,-27.09401076757,-19.99999999999));
#551 = LINE('',#552,#553);
#552 = CARTESIAN_POINT('',(34.5,-27.09401076758,-20.));
#553 = VECTOR('',#554,1.);
#554 = DIRECTION('',(-1.,-0.,-0.));
#555 = ORIENTED_EDGE('',*,*,#556,.F.);
#556 = EDGE_CURVE('',#557,#549,#559,.T.);
#557 = VERTEX_POINT('',#558);
#558 = CARTESIAN_POINT('',(-33.5,-26.36195996,-19.99999999998));
#559 = B_SPLINE_CURVE_WITH_KNOTS('',1,(#560,#561),.UNSPECIFIED.,.F.,.F.,
  (2,2),(0.,1.),.PIECEWISE_BEZIER_KNOTS.);
#560 = CARTESIAN_POINT('',(-33.5,-26.36195996,-19.99999999998));
#561 = CARTESIAN_POINT('',(-33.5,-27.09401076757,-19.99999999999));
#562 = ORIENTED_EDGE('',*,*,#563,.F.);
#563 = EDGE_CURVE('',#564,#557,#566,.T.);
#564 = VERTEX_POINT('',#565);
#565 = CARTESIAN_POINT('',(-33.5,-14.,-19.99999999998));
#566 = LINE('',#567,#568);
#567 = CARTESIAN_POINT('',(-33.5,-15.,-19.99999999998));
#568 = VECTOR('',#569,1.);
#569 = DIRECTION('',(0.,-1.,2.2E-16));
#570 = ORIENTED_EDGE('',*,*,#571,.T.);
#571 = EDGE_CURVE('',#564,#430,#572,.T.);
#572 = LINE('',#573,#574);
#573 = CARTESIAN_POINT('',(-34.5,-14.,-19.99999999998));
#574 = VECTOR('',#575,1.);
#575 = DIRECTION('',(-1.,0.,0.));
#576 = PLANE('',#577);
#577 = AXIS2_PLACEMENT_3D('',#578,#579,#580);
#578 = CARTESIAN_POINT('',(0.,-10.06010858678,-19.99999999999));
#579 = DIRECTION('',(-2.6393E-13,2.1633E-13,-1.));
#580 = DIRECTION('',(-1.,0.,2.6393E-13));
#581 = ADVANCED_FACE('',(#582),#608,.T.);
#582 = FACE_BOUND('',#583,.T.);
#583 = EDGE_LOOP('',(#584,#592,#593,#594,#602));
#584 = ORIENTED_EDGE('',*,*,#585,.F.);
#585 = EDGE_CURVE('',#106,#586,#588,.T.);
#586 = VERTEX_POINT('',#587);
#587 = CARTESIAN_POINT('',(49.5,-14.,15.));
#588 = LINE('',#589,#590);
#589 = CARTESIAN_POINT('',(49.5,5.,15.));
#590 = VECTOR('',#591,1.);
#591 = DIRECTION('',(0.,-1.,2.2E-16));
#592 = ORIENTED_EDGE('',*,*,#105,.F.);
#593 = ORIENTED_EDGE('',*,*,#493,.T.);
#594 = ORIENTED_EDGE('',*,*,#595,.T.);
#595 = EDGE_CURVE('',#486,#596,#598,.T.);
#596 = VERTEX_POINT('',#597);
#597 = CARTESIAN_POINT('',(49.,-14.5,15.5));
#598 = LINE('',#599,#600);
#599 = CARTESIAN_POINT('',(42.033333333333,-7.533333333333,
    22.466666666667));
#600 = VECTOR('',#601,1.);
#601 = DIRECTION('',(0.57735026919,-0.57735026919,-0.57735026919));
#602 = ORIENTED_EDGE('',*,*,#603,.F.);
#603 = EDGE_CURVE('',#586,#596,#604,.T.);
#604 = LINE('',#605,#606);
#605 = CARTESIAN_POINT('',(51.666666666667,-11.83333333333,
    12.833333333333));
#606 = VECTOR('',#607,1.);
#607 = DIRECTION('',(-0.57735026919,-0.57735026919,0.57735026919));
#608 = PLANE('',#609);
#609 = AXIS2_PLACEMENT_3D('',#610,#611,#612);
#610 = CARTESIAN_POINT('',(47.,5.,17.5));
#611 = DIRECTION('',(0.707106781187,0.,0.707106781187));
#612 = DIRECTION('',(-1.1E-16,-1.,1.1E-16));
#613 = ADVANCED_FACE('',(#614),#632,.T.);
#614 = FACE_BOUND('',#615,.T.);
#615 = EDGE_LOOP('',(#616,#617,#625,#631));
#616 = ORIENTED_EDGE('',*,*,#129,.F.);
#617 = ORIENTED_EDGE('',*,*,#618,.T.);
#618 = EDGE_CURVE('',#122,#619,#621,.T.);
#619 = VERTEX_POINT('',#620);
#620 = CARTESIAN_POINT('',(48.792893218815,-14.,-15.70710678118));
#621 = LINE('',#622,#623);
#622 = CARTESIAN_POINT('',(48.792893218813,5.,-15.70710678118));
#623 = VECTOR('',#624,1.);
#624 = DIRECTION('',(0.,-1.,2.2E-16));
#625 = ORIENTED_EDGE('',*,*,#626,.T.);
#626 = EDGE_CURVE('',#619,#510,#627,.T.);
#627 = LINE('',#628,#629);
#628 = CARTESIAN_POINT('',(49.500000000002,-14.,-15.));
#629 = VECTOR('',#630,1.);
#630 = DIRECTION('',(-0.707106781187,-1.6E-16,-0.707106781186));
#631 = ORIENTED_EDGE('',*,*,#509,.F.);
#632 = PLANE('',#633);
#633 = AXIS2_PLACEMENT_3D('',#634,#635,#636);
#634 = CARTESIAN_POINT('',(47.,5.,-17.5));
#635 = DIRECTION('',(0.707106781186,1.527E-13,-0.707106781187));
#636 = DIRECTION('',(1.080902054872E-13,-1.,-1.078602054872E-13));
#637 = ADVANCED_FACE('',(#638),#656,.T.);
#638 = FACE_BOUND('',#639,.T.);
#639 = EDGE_LOOP('',(#640,#641,#642,#650));
#640 = ORIENTED_EDGE('',*,*,#113,.F.);
#641 = ORIENTED_EDGE('',*,*,#585,.T.);
#642 = ORIENTED_EDGE('',*,*,#643,.T.);
#643 = EDGE_CURVE('',#586,#644,#646,.T.);
#644 = VERTEX_POINT('',#645);
#645 = CARTESIAN_POINT('',(49.500000000001,-14.,-14.));
#646 = LINE('',#647,#648);
#647 = CARTESIAN_POINT('',(49.5,-14.,15.));
#648 = VECTOR('',#649,1.);
#649 = DIRECTION('',(0.,-2.2E-16,-1.));
#650 = ORIENTED_EDGE('',*,*,#651,.F.);
#651 = EDGE_CURVE('',#114,#644,#652,.T.);
#652 = LINE('',#653,#654);
#653 = CARTESIAN_POINT('',(49.5,5.,-14.));
#654 = VECTOR('',#655,1.);
#655 = DIRECTION('',(0.,-1.,2.2E-16));
#656 = PLANE('',#657);
#657 = AXIS2_PLACEMENT_3D('',#658,#659,#660);
#658 = CARTESIAN_POINT('',(49.5,5.,20.));
#659 = DIRECTION('',(1.,0.,0.));
#660 = DIRECTION('',(0.,-2.2E-16,-1.));
#661 = ADVANCED_FACE('',(#662),#673,.T.);
#662 = FACE_BOUND('',#663,.T.);
#663 = EDGE_LOOP('',(#664,#665,#666,#672));
#664 = ORIENTED_EDGE('',*,*,#121,.F.);
#665 = ORIENTED_EDGE('',*,*,#651,.T.);
#666 = ORIENTED_EDGE('',*,*,#667,.F.);
#667 = EDGE_CURVE('',#619,#644,#668,.T.);
#668 = LINE('',#669,#670);
#669 = CARTESIAN_POINT('',(49.042893218817,-14.,-15.10355339058));
#670 = VECTOR('',#671,1.);
#671 = DIRECTION('',(0.382683432365,7.8661E-13,0.923879532511));
#672 = ORIENTED_EDGE('',*,*,#618,.F.);
#673 = PLANE('',#674);
#674 = AXIS2_PLACEMENT_3D('',#675,#676,#677);
#675 = CARTESIAN_POINT('',(49.146446609407,5.,-14.85355339059));
#676 = DIRECTION('',(0.923879532511,8.266E-14,-0.382683432365));
#677 = DIRECTION('',(7.644654238018E-14,-1.,-3.14427099426E-14));
#678 = ADVANCED_FACE('',(#679),#704,.F.);
#679 = FACE_BOUND('',#680,.F.);
#680 = EDGE_LOOP('',(#681,#691,#697,#698));
#681 = ORIENTED_EDGE('',*,*,#682,.F.);
#682 = EDGE_CURVE('',#683,#685,#687,.T.);
#683 = VERTEX_POINT('',#684);
#684 = CARTESIAN_POINT('',(-22.75,0.271370289182,-0.869718833628));
#685 = VERTEX_POINT('',#686);
#686 = CARTESIAN_POINT('',(-22.75,-2.478629710818,-5.632858554443));
#687 = LINE('',#688,#689);
#688 = CARTESIAN_POINT('',(-22.75,0.271370289182,-0.869718833628));
#689 = VECTOR('',#690,1.);
#690 = DIRECTION('',(0.,-0.5,-0.866025403784));
#691 = ORIENTED_EDGE('',*,*,#692,.T.);
#692 = EDGE_CURVE('',#683,#164,#693,.T.);
#693 = LINE('',#694,#695);
#694 = CARTESIAN_POINT('',(-22.75,0.271370289182,-0.869718833628));
#695 = VECTOR('',#696,1.);
#696 = DIRECTION('',(0.,0.866025403784,-0.5));
#697 = ORIENTED_EDGE('',*,*,#161,.F.);
#698 = ORIENTED_EDGE('',*,*,#699,.F.);
#699 = EDGE_CURVE('',#685,#162,#700,.T.);
#700 = LINE('',#701,#702);
#701 = CARTESIAN_POINT('',(-22.75,-2.478629710818,-5.632858554443));
#702 = VECTOR('',#703,1.);
#703 = DIRECTION('',(0.,0.866025403784,-0.5));
#704 = PLANE('',#705);
#705 = AXIS2_PLACEMENT_3D('',#706,#707,#708);
#706 = CARTESIAN_POINT('',(-22.75,0.271370289182,-0.869718833628));
#707 = DIRECTION('',(-1.,0.,0.));
#708 = DIRECTION('',(-0.,-0.5,-0.866025403784));
#709 = ADVANCED_FACE('',(#710),#728,.F.);
#710 = FACE_BOUND('',#711,.F.);
#711 = EDGE_LOOP('',(#712,#720,#721,#722));
#712 = ORIENTED_EDGE('',*,*,#713,.F.);
#713 = EDGE_CURVE('',#685,#714,#716,.T.);
#714 = VERTEX_POINT('',#715);
#715 = CARTESIAN_POINT('',(-17.25,-2.478629710818,-5.632858554443));
#716 = LINE('',#717,#718);
#717 = CARTESIAN_POINT('',(-22.75,-2.478629710818,-5.632858554443));
#718 = VECTOR('',#719,1.);
#719 = DIRECTION('',(1.,0.,0.));
#720 = ORIENTED_EDGE('',*,*,#699,.T.);
#721 = ORIENTED_EDGE('',*,*,#171,.F.);
#722 = ORIENTED_EDGE('',*,*,#723,.F.);
#723 = EDGE_CURVE('',#714,#172,#724,.T.);
#724 = LINE('',#725,#726);
#725 = CARTESIAN_POINT('',(-17.25,-2.478629710818,-5.632858554443));
#726 = VECTOR('',#727,1.);
#727 = DIRECTION('',(0.,0.866025403784,-0.5));
#728 = PLANE('',#729);
#729 = AXIS2_PLACEMENT_3D('',#730,#731,#732);
#730 = CARTESIAN_POINT('',(-22.75,-2.478629710818,-5.632858554443));
#731 = DIRECTION('',(0.,-0.5,-0.866025403784));
#732 = DIRECTION('',(1.,0.,0.));
#733 = ADVANCED_FACE('',(#734),#752,.F.);
#734 = FACE_BOUND('',#735,.F.);
#735 = EDGE_LOOP('',(#736,#744,#750,#751));
#736 = ORIENTED_EDGE('',*,*,#737,.F.);
#737 = EDGE_CURVE('',#738,#683,#740,.T.);
#738 = VERTEX_POINT('',#739);
#739 = CARTESIAN_POINT('',(-17.25,0.271370289182,-0.869718833628));
#740 = LINE('',#741,#742);
#741 = CARTESIAN_POINT('',(-17.25,0.271370289182,-0.869718833628));
#742 = VECTOR('',#743,1.);
#743 = DIRECTION('',(-1.,0.,0.));
#744 = ORIENTED_EDGE('',*,*,#745,.T.);
#745 = EDGE_CURVE('',#738,#180,#746,.T.);
#746 = LINE('',#747,#748);
#747 = CARTESIAN_POINT('',(-17.25,0.271370289182,-0.869718833628));
#748 = VECTOR('',#749,1.);
#749 = DIRECTION('',(0.,0.866025403784,-0.5));
#750 = ORIENTED_EDGE('',*,*,#187,.F.);
#751 = ORIENTED_EDGE('',*,*,#692,.F.);
#752 = PLANE('',#753);
#753 = AXIS2_PLACEMENT_3D('',#754,#755,#756);
#754 = CARTESIAN_POINT('',(-17.25,0.271370289182,-0.869718833628));
#755 = DIRECTION('',(0.,0.5,0.866025403784));
#756 = DIRECTION('',(-1.,0.,0.));
#757 = ADVANCED_FACE('',(#758),#769,.F.);
#758 = FACE_BOUND('',#759,.F.);
#759 = EDGE_LOOP('',(#760,#766,#767,#768));
#760 = ORIENTED_EDGE('',*,*,#761,.F.);
#761 = EDGE_CURVE('',#714,#738,#762,.T.);
#762 = LINE('',#763,#764);
#763 = CARTESIAN_POINT('',(-17.25,-2.478629710818,-5.632858554443));
#764 = VECTOR('',#765,1.);
#765 = DIRECTION('',(0.,0.5,0.866025403784));
#766 = ORIENTED_EDGE('',*,*,#723,.T.);
#767 = ORIENTED_EDGE('',*,*,#179,.F.);
#768 = ORIENTED_EDGE('',*,*,#745,.F.);
#769 = PLANE('',#770);
#770 = AXIS2_PLACEMENT_3D('',#771,#772,#773);
#771 = CARTESIAN_POINT('',(-17.25,-2.478629710818,-5.632858554443));
#772 = DIRECTION('',(1.,0.,0.));
#773 = DIRECTION('',(0.,0.5,0.866025403784));
#774 = ADVANCED_FACE('',(#775),#800,.F.);
#775 = FACE_BOUND('',#776,.F.);
#776 = EDGE_LOOP('',(#777,#787,#793,#794));
#777 = ORIENTED_EDGE('',*,*,#778,.F.);
#778 = EDGE_CURVE('',#779,#781,#783,.T.);
#779 = VERTEX_POINT('',#780);
#780 = CARTESIAN_POINT('',(17.25,0.271370289182,-0.869718833628));
#781 = VERTEX_POINT('',#782);
#782 = CARTESIAN_POINT('',(17.25,-2.478629710818,-5.632858554443));
#783 = LINE('',#784,#785);
#784 = CARTESIAN_POINT('',(17.25,0.271370289182,-0.869718833628));
#785 = VECTOR('',#786,1.);
#786 = DIRECTION('',(0.,-0.5,-0.866025403784));
#787 = ORIENTED_EDGE('',*,*,#788,.T.);
#788 = EDGE_CURVE('',#779,#201,#789,.T.);
#789 = LINE('',#790,#791);
#790 = CARTESIAN_POINT('',(17.25,0.271370289182,-0.869718833628));
#791 = VECTOR('',#792,1.);
#792 = DIRECTION('',(0.,0.866025403784,-0.5));
#793 = ORIENTED_EDGE('',*,*,#198,.F.);
#794 = ORIENTED_EDGE('',*,*,#795,.F.);
#795 = EDGE_CURVE('',#781,#199,#796,.T.);
#796 = LINE('',#797,#798);
#797 = CARTESIAN_POINT('',(17.25,-2.478629710818,-5.632858554443));
#798 = VECTOR('',#799,1.);
#799 = DIRECTION('',(0.,0.866025403784,-0.5));
#800 = PLANE('',#801);
#801 = AXIS2_PLACEMENT_3D('',#802,#803,#804);
#802 = CARTESIAN_POINT('',(17.25,0.271370289182,-0.869718833628));
#803 = DIRECTION('',(-1.,0.,0.));
#804 = DIRECTION('',(-0.,-0.5,-0.866025403784));
#805 = ADVANCED_FACE('',(#806),#824,.F.);
#806 = FACE_BOUND('',#807,.F.);
#807 = EDGE_LOOP('',(#808,#816,#817,#818));
#808 = ORIENTED_EDGE('',*,*,#809,.F.);
#809 = EDGE_CURVE('',#781,#810,#812,.T.);
#810 = VERTEX_POINT('',#811);
#811 = CARTESIAN_POINT('',(22.75,-2.478629710818,-5.632858554443));
#812 = LINE('',#813,#814);
#813 = CARTESIAN_POINT('',(17.25,-2.478629710818,-5.632858554443));
#814 = VECTOR('',#815,1.);
#815 = DIRECTION('',(1.,0.,0.));
#816 = ORIENTED_EDGE('',*,*,#795,.T.);
#817 = ORIENTED_EDGE('',*,*,#208,.F.);
#818 = ORIENTED_EDGE('',*,*,#819,.F.);
#819 = EDGE_CURVE('',#810,#209,#820,.T.);
#820 = LINE('',#821,#822);
#821 = CARTESIAN_POINT('',(22.75,-2.478629710818,-5.632858554443));
#822 = VECTOR('',#823,1.);
#823 = DIRECTION('',(0.,0.866025403784,-0.5));
#824 = PLANE('',#825);
#825 = AXIS2_PLACEMENT_3D('',#826,#827,#828);
#826 = CARTESIAN_POINT('',(17.25,-2.478629710818,-5.632858554443));
#827 = DIRECTION('',(0.,-0.5,-0.866025403784));
#828 = DIRECTION('',(1.,0.,0.));
#829 = ADVANCED_FACE('',(#830),#848,.F.);
#830 = FACE_BOUND('',#831,.F.);
#831 = EDGE_LOOP('',(#832,#840,#846,#847));
#832 = ORIENTED_EDGE('',*,*,#833,.F.);
#833 = EDGE_CURVE('',#834,#779,#836,.T.);
#834 = VERTEX_POINT('',#835);
#835 = CARTESIAN_POINT('',(22.75,0.271370289182,-0.869718833628));
#836 = LINE('',#837,#838);
#837 = CARTESIAN_POINT('',(22.75,0.271370289182,-0.869718833628));
#838 = VECTOR('',#839,1.);
#839 = DIRECTION('',(-1.,0.,0.));
#840 = ORIENTED_EDGE('',*,*,#841,.T.);
#841 = EDGE_CURVE('',#834,#217,#842,.T.);
#842 = LINE('',#843,#844);
#843 = CARTESIAN_POINT('',(22.75,0.271370289182,-0.869718833628));
#844 = VECTOR('',#845,1.);
#845 = DIRECTION('',(0.,0.866025403784,-0.5));
#846 = ORIENTED_EDGE('',*,*,#224,.F.);
#847 = ORIENTED_EDGE('',*,*,#788,.F.);
#848 = PLANE('',#849);
#849 = AXIS2_PLACEMENT_3D('',#850,#851,#852);
#850 = CARTESIAN_POINT('',(22.75,0.271370289182,-0.869718833628));
#851 = DIRECTION('',(0.,0.5,0.866025403784));
#852 = DIRECTION('',(-1.,0.,0.));
#853 = ADVANCED_FACE('',(#854),#865,.F.);
#854 = FACE_BOUND('',#855,.F.);
#855 = EDGE_LOOP('',(#856,#862,#863,#864));
#856 = ORIENTED_EDGE('',*,*,#857,.F.);
#857 = EDGE_CURVE('',#810,#834,#858,.T.);
#858 = LINE('',#859,#860);
#859 = CARTESIAN_POINT('',(22.75,-2.478629710818,-5.632858554443));
#860 = VECTOR('',#861,1.);
#861 = DIRECTION('',(0.,0.5,0.866025403784));
#862 = ORIENTED_EDGE('',*,*,#819,.T.);
#863 = ORIENTED_EDGE('',*,*,#216,.F.);
#864 = ORIENTED_EDGE('',*,*,#841,.F.);
#865 = PLANE('',#866);
#866 = AXIS2_PLACEMENT_3D('',#867,#868,#869);
#867 = CARTESIAN_POINT('',(22.75,-2.478629710818,-5.632858554443));
#868 = DIRECTION('',(1.,0.,0.));
#869 = DIRECTION('',(0.,0.5,0.866025403784));
#870 = ADVANCED_FACE('',(#871),#890,.F.);
#871 = FACE_BOUND('',#872,.F.);
#872 = EDGE_LOOP('',(#873,#881,#888,#889));
#873 = ORIENTED_EDGE('',*,*,#874,.F.);
#874 = EDGE_CURVE('',#875,#233,#877,.T.);
#875 = VERTEX_POINT('',#876);
#876 = CARTESIAN_POINT('',(44.5,-12.2,3.E-15));
#877 = LINE('',#878,#879);
#878 = CARTESIAN_POINT('',(44.5,-15.,3.33E-15));
#879 = VECTOR('',#880,1.);
#880 = DIRECTION('',(0.,1.,-2.2E-16));
#881 = ORIENTED_EDGE('',*,*,#882,.F.);
#882 = EDGE_CURVE('',#875,#875,#883,.T.);
#883 = CIRCLE('',#884,2.5);
#884 = AXIS2_PLACEMENT_3D('',#885,#886,#887);
#885 = CARTESIAN_POINT('',(42.,-12.2,2.71E-15));
#886 = DIRECTION('',(0.,-1.,2.2E-16));
#887 = DIRECTION('',(1.,0.,0.));
#888 = ORIENTED_EDGE('',*,*,#874,.T.);
#889 = ORIENTED_EDGE('',*,*,#232,.T.);
#890 = CYLINDRICAL_SURFACE('',#891,2.5);
#891 = AXIS2_PLACEMENT_3D('',#892,#893,#894);
#892 = CARTESIAN_POINT('',(42.,-15.,3.33E-15));
#893 = DIRECTION('',(0.,-1.,2.2E-16));
#894 = DIRECTION('',(1.,0.,0.));
#895 = ADVANCED_FACE('',(#896),#913,.F.);
#896 = FACE_BOUND('',#897,.F.);
#897 = EDGE_LOOP('',(#898,#899,#900,#906,#907));
#898 = ORIENTED_EDGE('',*,*,#405,.F.);
#899 = ORIENTED_EDGE('',*,*,#453,.T.);
#900 = ORIENTED_EDGE('',*,*,#901,.T.);
#901 = EDGE_CURVE('',#454,#255,#902,.T.);
#902 = LINE('',#903,#904);
#903 = CARTESIAN_POINT('',(-34.7,-13.41506350946,16.584936490539));
#904 = VECTOR('',#905,1.);
#905 = DIRECTION('',(0.,-0.707106781187,-0.707106781187));
#906 = ORIENTED_EDGE('',*,*,#252,.F.);
#907 = ORIENTED_EDGE('',*,*,#908,.F.);
#908 = EDGE_CURVE('',#406,#253,#909,.T.);
#909 = LINE('',#910,#911);
#910 = CARTESIAN_POINT('',(-44.66666666667,-18.83333333332,
    11.166666666671));
#911 = VECTOR('',#912,1.);
#912 = DIRECTION('',(0.57735026919,-0.57735026919,-0.57735026919));
#913 = PLANE('',#914);
#914 = AXIS2_PLACEMENT_3D('',#915,#916,#917);
#915 = CARTESIAN_POINT('',(-49.5,-12.5,17.5));
#916 = DIRECTION('',(-7.E-17,0.707106781187,-0.707106781187));
#917 = DIRECTION('',(1.,4.949747468306E-17,-4.949747468306E-17));
#918 = ADVANCED_FACE('',(#919),#931,.F.);
#919 = FACE_BOUND('',#920,.F.);
#920 = EDGE_LOOP('',(#921,#922,#923,#924,#930));
#921 = ORIENTED_EDGE('',*,*,#413,.T.);
#922 = ORIENTED_EDGE('',*,*,#908,.T.);
#923 = ORIENTED_EDGE('',*,*,#326,.F.);
#924 = ORIENTED_EDGE('',*,*,#925,.T.);
#925 = EDGE_CURVE('',#319,#342,#926,.T.);
#926 = LINE('',#927,#928);
#927 = CARTESIAN_POINT('',(-48.75,-14.75,-13.99999999997));
#928 = VECTOR('',#929,1.);
#929 = DIRECTION('',(-0.707106781187,0.707106781187,-1.24497E-12));
#930 = ORIENTED_EDGE('',*,*,#349,.T.);
#931 = PLANE('',#932);
#932 = AXIS2_PLACEMENT_3D('',#933,#934,#935);
#933 = CARTESIAN_POINT('',(-49.,-14.5,-14.99999999997));
#934 = DIRECTION('',(0.707106781187,0.707106781187,-1.1E-16));
#935 = DIRECTION('',(-3.221825406948E-17,1.877817459305E-16,1.));
#936 = ADVANCED_FACE('',(#937),#948,.T.);
#937 = FACE_BOUND('',#938,.T.);
#938 = EDGE_LOOP('',(#939,#940,#946,#947));
#939 = ORIENTED_EDGE('',*,*,#262,.T.);
#940 = ORIENTED_EDGE('',*,*,#941,.F.);
#941 = EDGE_CURVE('',#462,#263,#942,.T.);
#942 = LINE('',#943,#944);
#943 = CARTESIAN_POINT('',(-34.7,-5.,20.));
#944 = VECTOR('',#945,1.);
#945 = DIRECTION('',(0.,-0.5,-0.866025403784));
#946 = ORIENTED_EDGE('',*,*,#461,.T.);
#947 = ORIENTED_EDGE('',*,*,#901,.T.);
#948 = PLANE('',#949);
#949 = AXIS2_PLACEMENT_3D('',#950,#951,#952);
#950 = CARTESIAN_POINT('',(-34.7,-11.83012701892,13.169872981078));
#951 = DIRECTION('',(1.,0.,0.));
#952 = DIRECTION('',(0.,0.,1.));
#953 = ADVANCED_FACE('',(#954),#965,.F.);
#954 = FACE_BOUND('',#955,.F.);
#955 = EDGE_LOOP('',(#956,#957,#958,#964));
#956 = ORIENTED_EDGE('',*,*,#925,.F.);
#957 = ORIENTED_EDGE('',*,*,#318,.T.);
#958 = ORIENTED_EDGE('',*,*,#959,.T.);
#959 = EDGE_CURVE('',#311,#374,#960,.T.);
#960 = LINE('',#961,#962);
#961 = CARTESIAN_POINT('',(-48.18933982822,-14.85355339059,
    -15.10355339057));
#962 = VECTOR('',#963,1.);
#963 = DIRECTION('',(-0.500000000002,0.707106781187,-0.499999999998));
#964 = ORIENTED_EDGE('',*,*,#373,.F.);
#965 = PLANE('',#966);
#966 = AXIS2_PLACEMENT_3D('',#967,#968,#969);
#967 = CARTESIAN_POINT('',(-48.5,-15.,-13.99999999997));
#968 = DIRECTION('',(0.678598344546,0.678598344546,0.281084637714));
#969 = DIRECTION('',(0.382683432364,-3.830269434957E-15,-0.923879532512)
  );
#970 = ADVANCED_FACE('',(#971,#1023,#1034,#1045,#1056),#1067,.T.);
#971 = FACE_BOUND('',#972,.T.);
#972 = EDGE_LOOP('',(#973,#974,#982,#990,#998,#1006,#1014,#1020,#1021,
    #1022));
#973 = ORIENTED_EDGE('',*,*,#278,.T.);
#974 = ORIENTED_EDGE('',*,*,#975,.T.);
#975 = EDGE_CURVE('',#279,#976,#978,.T.);
#976 = VERTEX_POINT('',#977);
#977 = CARTESIAN_POINT('',(-33.5,-27.59401076757,-19.1339745962));
#978 = LINE('',#979,#980);
#979 = CARTESIAN_POINT('',(-33.5,-15.,2.679491924311));
#980 = VECTOR('',#981,1.);
#981 = DIRECTION('',(0.,-0.5,-0.866025403784));
#982 = ORIENTED_EDGE('',*,*,#983,.F.);
#983 = EDGE_CURVE('',#984,#976,#986,.T.);
#984 = VERTEX_POINT('',#985);
#985 = CARTESIAN_POINT('',(33.5,-27.59401076758,-19.13397459621));
#986 = LINE('',#987,#988);
#987 = CARTESIAN_POINT('',(34.5,-27.59401076758,-19.13397459622));
#988 = VECTOR('',#989,1.);
#989 = DIRECTION('',(-1.,-0.,-0.));
#990 = ORIENTED_EDGE('',*,*,#991,.F.);
#991 = EDGE_CURVE('',#992,#984,#994,.T.);
#992 = VERTEX_POINT('',#993);
#993 = CARTESIAN_POINT('',(33.5,-15.,2.679491924311));
#994 = LINE('',#995,#996);
#995 = CARTESIAN_POINT('',(33.5,-15.,2.679491924311));
#996 = VECTOR('',#997,1.);
#997 = DIRECTION('',(0.,-0.5,-0.866025403784));
#998 = ORIENTED_EDGE('',*,*,#999,.F.);
#999 = EDGE_CURVE('',#1000,#992,#1002,.T.);
#1000 = VERTEX_POINT('',#1001);
#1001 = CARTESIAN_POINT('',(34.5,-15.,2.679491924311));
#1002 = LINE('',#1003,#1004);
#1003 = CARTESIAN_POINT('',(9.0167E-12,-15.,2.679491924311));
#1004 = VECTOR('',#1005,1.);
#1005 = DIRECTION('',(-1.,0.,0.));
#1006 = ORIENTED_EDGE('',*,*,#1007,.T.);
#1007 = EDGE_CURVE('',#1000,#1008,#1010,.T.);
#1008 = VERTEX_POINT('',#1009);
#1009 = CARTESIAN_POINT('',(34.7,-15.,2.679491924311));
#1010 = LINE('',#1011,#1012);
#1011 = CARTESIAN_POINT('',(34.5,-15.,2.679491924311));
#1012 = VECTOR('',#1013,1.);
#1013 = DIRECTION('',(1.,-2.2E-16,2.2E-16));
#1014 = ORIENTED_EDGE('',*,*,#1015,.F.);
#1015 = EDGE_CURVE('',#470,#1008,#1016,.T.);
#1016 = LINE('',#1017,#1018);
#1017 = CARTESIAN_POINT('',(34.7,-5.,20.));
#1018 = VECTOR('',#1019,1.);
#1019 = DIRECTION('',(8.E-17,-0.5,-0.866025403784));
#1020 = ORIENTED_EDGE('',*,*,#469,.T.);
#1021 = ORIENTED_EDGE('',*,*,#941,.T.);
#1022 = ORIENTED_EDGE('',*,*,#270,.F.);
#1023 = FACE_BOUND('',#1024,.T.);
#1024 = EDGE_LOOP('',(#1025));
#1025 = ORIENTED_EDGE('',*,*,#1026,.F.);
#1026 = EDGE_CURVE('',#1027,#1027,#1029,.T.);
#1027 = VERTEX_POINT('',#1028);
#1028 = CARTESIAN_POINT('',(-18.5,-14.09401076758,4.248711305964));
#1029 = CIRCLE('',#1030,1.5);
#1030 = AXIS2_PLACEMENT_3D('',#1031,#1032,#1033);
#1031 = CARTESIAN_POINT('',(-20.,-14.09401076758,4.248711305964));
#1032 = DIRECTION('',(0.,-0.866025403784,0.5));
#1033 = DIRECTION('',(1.,0.,0.));
#1034 = FACE_BOUND('',#1035,.T.);
#1035 = EDGE_LOOP('',(#1036));
#1036 = ORIENTED_EDGE('',*,*,#1037,.F.);
#1037 = EDGE_CURVE('',#1038,#1038,#1040,.T.);
#1038 = VERTEX_POINT('',#1039);
#1039 = CARTESIAN_POINT('',(-24.,-22.84401076758,-10.90673326026));
#1040 = CIRCLE('',#1041,3.);
#1041 = AXIS2_PLACEMENT_3D('',#1042,#1043,#1044);
#1042 = CARTESIAN_POINT('',(-27.,-22.84401076758,-10.90673326026));
#1043 = DIRECTION('',(0.,-0.866025403784,0.5));
#1044 = DIRECTION('',(1.,0.,0.));
#1045 = FACE_BOUND('',#1046,.T.);
#1046 = EDGE_LOOP('',(#1047));
#1047 = ORIENTED_EDGE('',*,*,#1048,.F.);
#1048 = EDGE_CURVE('',#1049,#1049,#1051,.T.);
#1049 = VERTEX_POINT('',#1050);
#1050 = CARTESIAN_POINT('',(21.5,-14.09401076758,4.248711305964));
#1051 = CIRCLE('',#1052,1.5);
#1052 = AXIS2_PLACEMENT_3D('',#1053,#1054,#1055);
#1053 = CARTESIAN_POINT('',(20.,-14.09401076758,4.248711305964));
#1054 = DIRECTION('',(0.,-0.866025403784,0.5));
#1055 = DIRECTION('',(1.,0.,0.));
#1056 = FACE_BOUND('',#1057,.T.);
#1057 = EDGE_LOOP('',(#1058));
#1058 = ORIENTED_EDGE('',*,*,#1059,.F.);
#1059 = EDGE_CURVE('',#1060,#1060,#1062,.T.);
#1060 = VERTEX_POINT('',#1061);
#1061 = CARTESIAN_POINT('',(30.,-22.84401076758,-10.90673326026));
#1062 = CIRCLE('',#1063,3.);
#1063 = AXIS2_PLACEMENT_3D('',#1064,#1065,#1066);
#1064 = CARTESIAN_POINT('',(27.,-22.84401076758,-10.90673326026));
#1065 = DIRECTION('',(0.,-0.866025403784,0.5));
#1066 = DIRECTION('',(1.,0.,0.));
#1067 = PLANE('',#1068);
#1068 = AXIS2_PLACEMENT_3D('',#1069,#1070,#1071);
#1069 = CARTESIAN_POINT('',(6.E-16,-16.52434903827,3.924194154913E-02));
#1070 = DIRECTION('',(0.,-0.866025403784,0.5));
#1071 = DIRECTION('',(0.,-0.5,-0.866025403784));
#1072 = ADVANCED_FACE('',(#1073),#1084,.T.);
#1073 = FACE_BOUND('',#1074,.T.);
#1074 = EDGE_LOOP('',(#1075,#1076,#1077,#1083));
#1075 = ORIENTED_EDGE('',*,*,#959,.T.);
#1076 = ORIENTED_EDGE('',*,*,#429,.T.);
#1077 = ORIENTED_EDGE('',*,*,#1078,.T.);
#1078 = EDGE_CURVE('',#430,#303,#1079,.T.);
#1079 = LINE('',#1080,#1081);
#1080 = CARTESIAN_POINT('',(-43.63487607169,-16.08859392084,
    -17.91140607913));
#1081 = VECTOR('',#1082,1.);
#1082 = DIRECTION('',(0.281084637715,-0.678598344546,0.678598344546));
#1083 = ORIENTED_EDGE('',*,*,#310,.F.);
#1084 = PLANE('',#1085);
#1085 = AXIS2_PLACEMENT_3D('',#1086,#1087,#1088);
#1086 = CARTESIAN_POINT('',(-49.1464466094,-14.5,-14.64644660938));
#1087 = DIRECTION('',(-0.5,-0.707106781186,-0.5));
#1088 = DIRECTION('',(0.707106781186,-2.498001805407E-16,-0.707106781187
    ));
#1089 = ADVANCED_FACE('',(#1090),#1101,.F.);
#1090 = FACE_BOUND('',#1091,.F.);
#1091 = EDGE_LOOP('',(#1092,#1098,#1099,#1100));
#1092 = ORIENTED_EDGE('',*,*,#1093,.F.);
#1093 = EDGE_CURVE('',#564,#295,#1094,.T.);
#1094 = LINE('',#1095,#1096);
#1095 = CARTESIAN_POINT('',(-34.16666666666,-14.66666666666,
    -19.33333333331));
#1096 = VECTOR('',#1097,1.);
#1097 = DIRECTION('',(-0.57735026919,-0.57735026919,0.57735026919));
#1098 = ORIENTED_EDGE('',*,*,#571,.T.);
#1099 = ORIENTED_EDGE('',*,*,#1078,.T.);
#1100 = ORIENTED_EDGE('',*,*,#302,.F.);
#1101 = PLANE('',#1102);
#1102 = AXIS2_PLACEMENT_3D('',#1103,#1104,#1105);
#1103 = CARTESIAN_POINT('',(-34.5,-14.5,-19.49999999998));
#1104 = DIRECTION('',(1.8666E-13,0.707106781186,0.707106781187));
#1105 = DIRECTION('',(-1.,1.319885517763E-13,1.319885517763E-13));
#1106 = ADVANCED_FACE('',(#1107),#1124,.T.);
#1107 = FACE_BOUND('',#1108,.F.);
#1108 = EDGE_LOOP('',(#1109,#1110,#1111,#1118));
#1109 = ORIENTED_EDGE('',*,*,#286,.F.);
#1110 = ORIENTED_EDGE('',*,*,#975,.T.);
#1111 = ORIENTED_EDGE('',*,*,#1112,.F.);
#1112 = EDGE_CURVE('',#1113,#976,#1115,.T.);
#1113 = VERTEX_POINT('',#1114);
#1114 = CARTESIAN_POINT('',(-34.5,-26.36195996,-18.99999999998));
#1115 = B_SPLINE_CURVE_WITH_KNOTS('',1,(#1116,#1117),.UNSPECIFIED.,.F.,
  .F.,(2,2),(0.,1.),.PIECEWISE_BEZIER_KNOTS.);
#1116 = CARTESIAN_POINT('',(-34.5,-26.36195996,-18.99999999998));
#1117 = CARTESIAN_POINT('',(-33.5,-27.59401076757,-19.1339745962));
#1118 = ORIENTED_EDGE('',*,*,#1119,.F.);
#1119 = EDGE_CURVE('',#287,#1113,#1120,.T.);
#1120 = LINE('',#1121,#1122);
#1121 = CARTESIAN_POINT('',(-34.5,-14.13397459621,2.179491924311));
#1122 = VECTOR('',#1123,1.);
#1123 = DIRECTION('',(0.,-0.5,-0.866025403784));
#1124 = PLANE('',#1125);
#1125 = AXIS2_PLACEMENT_3D('',#1126,#1127,#1128);
#1126 = CARTESIAN_POINT('',(-34.,-14.5669872981,2.429491924311));
#1127 = DIRECTION('',(-0.707106781187,-0.612372435696,0.353553390593));
#1128 = DIRECTION('',(2.775557561563E-17,0.5,0.866025403784));
#1129 = ADVANCED_FACE('',(#1130),#1140,.T.);
#1130 = FACE_BOUND('',#1131,.T.);
#1131 = EDGE_LOOP('',(#1132,#1133,#1139));
#1132 = ORIENTED_EDGE('',*,*,#294,.T.);
#1133 = ORIENTED_EDGE('',*,*,#1134,.T.);
#1134 = EDGE_CURVE('',#295,#1113,#1135,.T.);
#1135 = LINE('',#1136,#1137);
#1136 = CARTESIAN_POINT('',(-34.5,-15.,-18.99999999998));
#1137 = VECTOR('',#1138,1.);
#1138 = DIRECTION('',(0.,-1.,2.2E-16));
#1139 = ORIENTED_EDGE('',*,*,#1119,.F.);
#1140 = PLANE('',#1141);
#1141 = AXIS2_PLACEMENT_3D('',#1142,#1143,#1144);
#1142 = CARTESIAN_POINT('',(-34.5,-7.320508075689,-3.572655899082));
#1143 = DIRECTION('',(-1.,-0.,-0.));
#1144 = DIRECTION('',(0.,0.,-1.));
#1145 = ADVANCED_FACE('',(#1146),#1172,.F.);
#1146 = FACE_BOUND('',#1147,.F.);
#1147 = EDGE_LOOP('',(#1148,#1158,#1164,#1165,#1166));
#1148 = ORIENTED_EDGE('',*,*,#1149,.F.);
#1149 = EDGE_CURVE('',#1150,#1152,#1154,.T.);
#1150 = VERTEX_POINT('',#1151);
#1151 = CARTESIAN_POINT('',(34.7,-15.,15.));
#1152 = VERTEX_POINT('',#1153);
#1153 = CARTESIAN_POINT('',(48.5,-15.,15.));
#1154 = LINE('',#1155,#1156);
#1155 = CARTESIAN_POINT('',(34.7,-15.,15.));
#1156 = VECTOR('',#1157,1.);
#1157 = DIRECTION('',(1.,0.,0.));
#1158 = ORIENTED_EDGE('',*,*,#1159,.F.);
#1159 = EDGE_CURVE('',#478,#1150,#1160,.T.);
#1160 = LINE('',#1161,#1162);
#1161 = CARTESIAN_POINT('',(34.7,-13.41506350946,16.584936490539));
#1162 = VECTOR('',#1163,1.);
#1163 = DIRECTION('',(-0.,-0.707106781187,-0.707106781187));
#1164 = ORIENTED_EDGE('',*,*,#485,.T.);
#1165 = ORIENTED_EDGE('',*,*,#595,.T.);
#1166 = ORIENTED_EDGE('',*,*,#1167,.T.);
#1167 = EDGE_CURVE('',#596,#1152,#1168,.T.);
#1168 = LINE('',#1169,#1170);
#1169 = CARTESIAN_POINT('',(47.2,-16.3,13.7));
#1170 = VECTOR('',#1171,1.);
#1171 = DIRECTION('',(-0.57735026919,-0.57735026919,-0.57735026919));
#1172 = PLANE('',#1173);
#1173 = AXIS2_PLACEMENT_3D('',#1174,#1175,#1176);
#1174 = CARTESIAN_POINT('',(34.7,-12.5,17.5));
#1175 = DIRECTION('',(-7.E-17,0.707106781187,-0.707106781187));
#1176 = DIRECTION('',(1.,4.949747468306E-17,-4.949747468306E-17));
#1177 = ADVANCED_FACE('',(#1178),#1189,.T.);
#1178 = FACE_BOUND('',#1179,.F.);
#1179 = EDGE_LOOP('',(#1180,#1186,#1187,#1188));
#1180 = ORIENTED_EDGE('',*,*,#1181,.T.);
#1181 = EDGE_CURVE('',#1150,#1008,#1182,.T.);
#1182 = LINE('',#1183,#1184);
#1183 = CARTESIAN_POINT('',(34.7,-15.,20.));
#1184 = VECTOR('',#1185,1.);
#1185 = DIRECTION('',(2.2E-16,-2.1E-16,-1.));
#1186 = ORIENTED_EDGE('',*,*,#1015,.F.);
#1187 = ORIENTED_EDGE('',*,*,#477,.T.);
#1188 = ORIENTED_EDGE('',*,*,#1159,.T.);
#1189 = PLANE('',#1190);
#1190 = AXIS2_PLACEMENT_3D('',#1191,#1192,#1193);
#1191 = CARTESIAN_POINT('',(34.7,-11.83012701892,13.169872981078));
#1192 = DIRECTION('',(-1.,2.2E-16,-2.2E-16));
#1193 = DIRECTION('',(2.2E-16,0.,-1.));
#1194 = ADVANCED_FACE('',(#1195),#1205,.T.);
#1195 = FACE_BOUND('',#1196,.T.);
#1196 = EDGE_LOOP('',(#1197,#1198,#1199,#1204));
#1197 = ORIENTED_EDGE('',*,*,#1093,.F.);
#1198 = ORIENTED_EDGE('',*,*,#563,.T.);
#1199 = ORIENTED_EDGE('',*,*,#1200,.T.);
#1200 = EDGE_CURVE('',#557,#1113,#1201,.T.);
#1201 = B_SPLINE_CURVE_WITH_KNOTS('',1,(#1202,#1203),.UNSPECIFIED.,.F.,
  .F.,(2,2),(0.,1.),.PIECEWISE_BEZIER_KNOTS.);
#1202 = CARTESIAN_POINT('',(-33.5,-26.36195996,-19.99999999998));
#1203 = CARTESIAN_POINT('',(-34.5,-26.36195996,-18.99999999998));
#1204 = ORIENTED_EDGE('',*,*,#1134,.F.);
#1205 = PLANE('',#1206);
#1206 = AXIS2_PLACEMENT_3D('',#1207,#1208,#1209);
#1207 = CARTESIAN_POINT('',(-34.,-15.,-19.49999999998));
#1208 = DIRECTION('',(-0.707106781187,1.5298E-13,-0.707106781186));
#1209 = DIRECTION('',(-1.082831953859E-13,-1.,-1.080631953859E-13));
#1210 = ADVANCED_FACE('',(#1211),#1221,.T.);
#1211 = FACE_BOUND('',#1212,.T.);
#1212 = EDGE_LOOP('',(#1213,#1214,#1215,#1220));
#1213 = ORIENTED_EDGE('',*,*,#1200,.F.);
#1214 = ORIENTED_EDGE('',*,*,#556,.T.);
#1215 = ORIENTED_EDGE('',*,*,#1216,.T.);
#1216 = EDGE_CURVE('',#549,#976,#1217,.T.);
#1217 = B_SPLINE_CURVE_WITH_KNOTS('',1,(#1218,#1219),.UNSPECIFIED.,.F.,
  .F.,(2,2),(0.,1.),.PIECEWISE_BEZIER_KNOTS.);
#1218 = CARTESIAN_POINT('',(-33.5,-27.09401076757,-19.99999999999));
#1219 = CARTESIAN_POINT('',(-33.5,-27.59401076757,-19.1339745962));
#1220 = ORIENTED_EDGE('',*,*,#1112,.F.);
#1221 = B_SPLINE_SURFACE_WITH_KNOTS('',1,1,(
    (#1222,#1223)
    ,(#1224,#1225
    )),.UNSPECIFIED.,.F.,.F.,.F.,(2,2),(2,2),(0.,1.),(0.,1.),
  .PIECEWISE_BEZIER_KNOTS.);
#1222 = CARTESIAN_POINT('',(-33.5,-26.36195996,-19.99999999998));
#1223 = CARTESIAN_POINT('',(-34.5,-26.36195996,-18.99999999998));
#1224 = CARTESIAN_POINT('',(-33.5,-27.09401076757,-19.99999999999));
#1225 = CARTESIAN_POINT('',(-33.5,-27.59401076757,-19.1339745962));
#1226 = ADVANCED_FACE('',(#1227),#1252,.F.);
#1227 = FACE_BOUND('',#1228,.F.);
#1228 = EDGE_LOOP('',(#1229,#1237,#1238,#1246));
#1229 = ORIENTED_EDGE('',*,*,#1230,.F.);
#1230 = EDGE_CURVE('',#510,#1231,#1233,.T.);
#1231 = VERTEX_POINT('',#1232);
#1232 = CARTESIAN_POINT('',(44.085786437627,-15.,-19.));
#1233 = LINE('',#1234,#1235);
#1234 = CARTESIAN_POINT('',(44.029918939492,-15.13487607169,
    -18.8651239283));
#1235 = VECTOR('',#1236,1.);
#1236 = DIRECTION('',(-0.281084637715,-0.678598344546,0.678598344546));
#1237 = ORIENTED_EDGE('',*,*,#517,.T.);
#1238 = ORIENTED_EDGE('',*,*,#1239,.T.);
#1239 = EDGE_CURVE('',#518,#1240,#1242,.T.);
#1240 = VERTEX_POINT('',#1241);
#1241 = CARTESIAN_POINT('',(34.5,-14.99999999999,-19.));
#1242 = LINE('',#1243,#1244);
#1243 = CARTESIAN_POINT('',(38.015668461265,-18.51566846126,
    -15.48433153873));
#1244 = VECTOR('',#1245,1.);
#1245 = DIRECTION('',(0.57735026919,-0.57735026919,0.577350269189));
#1246 = ORIENTED_EDGE('',*,*,#1247,.F.);
#1247 = EDGE_CURVE('',#1231,#1240,#1248,.T.);
#1248 = LINE('',#1249,#1250);
#1249 = CARTESIAN_POINT('',(44.500000000002,-15.,-19.));
#1250 = VECTOR('',#1251,1.);
#1251 = DIRECTION('',(-1.,0.,0.));
#1252 = PLANE('',#1253);
#1253 = AXIS2_PLACEMENT_3D('',#1254,#1255,#1256);
#1254 = CARTESIAN_POINT('',(44.500000000002,-14.5,-19.5));
#1255 = DIRECTION('',(1.8666E-13,0.707106781186,0.707106781187));
#1256 = DIRECTION('',(-1.,1.319885517763E-13,1.319885517763E-13));
#1257 = ADVANCED_FACE('',(#1258),#1268,.T.);
#1258 = FACE_BOUND('',#1259,.F.);
#1259 = EDGE_LOOP('',(#1260,#1265,#1266,#1267));
#1260 = ORIENTED_EDGE('',*,*,#1261,.F.);
#1261 = EDGE_CURVE('',#534,#984,#1262,.T.);
#1262 = B_SPLINE_CURVE_WITH_KNOTS('',1,(#1263,#1264),.UNSPECIFIED.,.F.,
  .F.,(2,2),(0.,1.),.PIECEWISE_BEZIER_KNOTS.);
#1263 = CARTESIAN_POINT('',(33.5,-27.09401076758,-20.));
#1264 = CARTESIAN_POINT('',(33.5,-27.59401076758,-19.13397459621));
#1265 = ORIENTED_EDGE('',*,*,#548,.T.);
#1266 = ORIENTED_EDGE('',*,*,#1216,.T.);
#1267 = ORIENTED_EDGE('',*,*,#983,.F.);
#1268 = PLANE('',#1269);
#1269 = AXIS2_PLACEMENT_3D('',#1270,#1271,#1272);
#1270 = CARTESIAN_POINT('',(34.5,-27.34401076758,-19.56698729811));
#1271 = DIRECTION('',(-2.6397E-13,-0.866025403784,-0.5));
#1272 = DIRECTION('',(1.,-2.286038793142E-13,-1.319864662204E-13));
#1273 = ADVANCED_FACE('',(#1274),#1291,.T.);
#1274 = FACE_BOUND('',#1275,.T.);
#1275 = EDGE_LOOP('',(#1276,#1283,#1284,#1285));
#1276 = ORIENTED_EDGE('',*,*,#1277,.F.);
#1277 = EDGE_CURVE('',#526,#1278,#1280,.T.);
#1278 = VERTEX_POINT('',#1279);
#1279 = CARTESIAN_POINT('',(34.5,-26.36195996001,-19.));
#1280 = B_SPLINE_CURVE_WITH_KNOTS('',1,(#1281,#1282),.UNSPECIFIED.,.F.,
  .F.,(2,2),(0.,1.),.PIECEWISE_BEZIER_KNOTS.);
#1281 = CARTESIAN_POINT('',(33.5,-26.36195996001,-20.));
#1282 = CARTESIAN_POINT('',(34.5,-26.36195996001,-19.));
#1283 = ORIENTED_EDGE('',*,*,#525,.T.);
#1284 = ORIENTED_EDGE('',*,*,#1239,.T.);
#1285 = ORIENTED_EDGE('',*,*,#1286,.F.);
#1286 = EDGE_CURVE('',#1278,#1240,#1287,.T.);
#1287 = LINE('',#1288,#1289);
#1288 = CARTESIAN_POINT('',(34.5,-28.09401076758,-19.));
#1289 = VECTOR('',#1290,1.);
#1290 = DIRECTION('',(0.,1.,0.));
#1291 = PLANE('',#1292);
#1292 = AXIS2_PLACEMENT_3D('',#1293,#1294,#1295);
#1293 = CARTESIAN_POINT('',(34.,-28.09401076758,-19.5));
#1294 = DIRECTION('',(0.707106781186,1.5275E-13,-0.707106781187));
#1295 = DIRECTION('',(-1.080105608262E-13,1.,1.080105608262E-13));
#1296 = ADVANCED_FACE('',(#1297),#1315,.F.);
#1297 = FACE_BOUND('',#1298,.F.);
#1298 = EDGE_LOOP('',(#1299,#1300,#1301,#1302));
#1299 = ORIENTED_EDGE('',*,*,#1277,.F.);
#1300 = ORIENTED_EDGE('',*,*,#533,.T.);
#1301 = ORIENTED_EDGE('',*,*,#1261,.T.);
#1302 = ORIENTED_EDGE('',*,*,#1303,.F.);
#1303 = EDGE_CURVE('',#1278,#984,#1304,.T.);
#1304 = B_SPLINE_CURVE_WITH_KNOTS('',3,(#1305,#1306,#1307,#1308,#1309,
    #1310,#1311,#1312,#1313,#1314),.UNSPECIFIED.,.F.,.F.,(4,2,2,2,4),(0.
    ,0.25,0.5,0.75,1.),.UNSPECIFIED.);
#1305 = CARTESIAN_POINT('',(34.5,-26.36195996001,-19.));
#1306 = CARTESIAN_POINT('',(34.416666666667,-26.46463086064,
    -19.01116454968));
#1307 = CARTESIAN_POINT('',(34.333333333333,-26.56730176128,
    -19.02232909937));
#1308 = CARTESIAN_POINT('',(34.166666666667,-26.77264356254,
    -19.04465819874));
#1309 = CARTESIAN_POINT('',(34.083333333333,-26.87531446317,
    -19.05582274842));
#1310 = CARTESIAN_POINT('',(33.916666666667,-27.08065626443,
    -19.07815184779));
#1311 = CARTESIAN_POINT('',(33.833333333333,-27.18332716506,
    -19.08931639748));
#1312 = CARTESIAN_POINT('',(33.666666666667,-27.38866896632,
    -19.11164549685));
#1313 = CARTESIAN_POINT('',(33.583333333333,-27.49133986695,
    -19.12281004653));
#1314 = CARTESIAN_POINT('',(33.5,-27.59401076758,-19.13397459621));
#1315 = B_SPLINE_SURFACE_WITH_KNOTS('',3,1,(
    (#1316,#1317)
    ,(#1318,#1319)
    ,(#1320,#1321)
    ,(#1322,#1323)
    ,(#1324,#1325)
    ,(#1326,#1327)
    ,(#1328,#1329)
    ,(#1330,#1331)
    ,(#1332,#1333)
    ,(#1334,#1335
    )),.UNSPECIFIED.,.F.,.F.,.F.,(4,2,2,2,4),(2,2),(0.,0.25,0.5,0.75,1.)
  ,(0.,1.),.UNSPECIFIED.);
#1316 = CARTESIAN_POINT('',(33.5,-26.36195996001,-20.));
#1317 = CARTESIAN_POINT('',(34.5,-26.36195996001,-19.));
#1318 = CARTESIAN_POINT('',(33.5,-26.42296419398,-20.));
#1319 = CARTESIAN_POINT('',(34.416666666667,-26.46463086064,
    -19.01116454968));
#1320 = CARTESIAN_POINT('',(33.5,-26.48396842794,-20.));
#1321 = CARTESIAN_POINT('',(34.333333333333,-26.56730176128,
    -19.02232909937));
#1322 = CARTESIAN_POINT('',(33.5,-26.60597689587,-20.));
#1323 = CARTESIAN_POINT('',(34.166666666667,-26.77264356254,
    -19.04465819874));
#1324 = CARTESIAN_POINT('',(33.5,-26.66698112983,-20.));
#1325 = CARTESIAN_POINT('',(34.083333333333,-26.87531446317,
    -19.05582274842));
#1326 = CARTESIAN_POINT('',(33.5,-26.78898959776,-20.));
#1327 = CARTESIAN_POINT('',(33.916666666667,-27.08065626443,
    -19.07815184779));
#1328 = CARTESIAN_POINT('',(33.5,-26.84999383173,-20.));
#1329 = CARTESIAN_POINT('',(33.833333333333,-27.18332716506,
    -19.08931639748));
#1330 = CARTESIAN_POINT('',(33.5,-26.97200229965,-20.));
#1331 = CARTESIAN_POINT('',(33.666666666667,-27.38866896632,
    -19.11164549685));
#1332 = CARTESIAN_POINT('',(33.5,-27.03300653362,-20.));
#1333 = CARTESIAN_POINT('',(33.583333333333,-27.49133986695,
    -19.12281004653));
#1334 = CARTESIAN_POINT('',(33.5,-27.09401076758,-20.));
#1335 = CARTESIAN_POINT('',(33.5,-27.59401076758,-19.13397459621));
#1336 = ADVANCED_FACE('',(#1337),#1356,.F.);
#1337 = FACE_BOUND('',#1338,.F.);
#1338 = EDGE_LOOP('',(#1339,#1340,#1341,#1349,#1355));
#1339 = ORIENTED_EDGE('',*,*,#603,.F.);
#1340 = ORIENTED_EDGE('',*,*,#643,.T.);
#1341 = ORIENTED_EDGE('',*,*,#1342,.F.);
#1342 = EDGE_CURVE('',#1343,#644,#1345,.T.);
#1343 = VERTEX_POINT('',#1344);
#1344 = CARTESIAN_POINT('',(48.5,-15.,-14.));
#1345 = LINE('',#1346,#1347);
#1346 = CARTESIAN_POINT('',(48.646446609432,-14.85355339056,-14.));
#1347 = VECTOR('',#1348,1.);
#1348 = DIRECTION('',(0.707106781187,0.707106781187,2.53635E-12));
#1349 = ORIENTED_EDGE('',*,*,#1350,.F.);
#1350 = EDGE_CURVE('',#1152,#1343,#1351,.T.);
#1351 = LINE('',#1352,#1353);
#1352 = CARTESIAN_POINT('',(48.5,-15.,15.));
#1353 = VECTOR('',#1354,1.);
#1354 = DIRECTION('',(0.,-2.2E-16,-1.));
#1355 = ORIENTED_EDGE('',*,*,#1167,.F.);
#1356 = PLANE('',#1357);
#1357 = AXIS2_PLACEMENT_3D('',#1358,#1359,#1360);
#1358 = CARTESIAN_POINT('',(49.,-14.5,15.));
#1359 = DIRECTION('',(-0.707106781187,0.707106781187,-1.4E-16));
#1360 = DIRECTION('',(-1.100505063388E-17,-2.089949493661E-16,-1.));
#1361 = ADVANCED_FACE('',(#1362),#1380,.F.);
#1362 = FACE_BOUND('',#1363,.F.);
#1363 = EDGE_LOOP('',(#1364,#1372,#1373,#1374));
#1364 = ORIENTED_EDGE('',*,*,#1365,.T.);
#1365 = EDGE_CURVE('',#1366,#619,#1368,.T.);
#1366 = VERTEX_POINT('',#1367);
#1367 = CARTESIAN_POINT('',(48.085786437629,-15.,-15.));
#1368 = LINE('',#1369,#1370);
#1369 = CARTESIAN_POINT('',(48.262563132925,-14.75,-15.17677669529));
#1370 = VECTOR('',#1371,1.);
#1371 = DIRECTION('',(0.499999999999,0.707106781187,-0.500000000001));
#1372 = ORIENTED_EDGE('',*,*,#626,.T.);
#1373 = ORIENTED_EDGE('',*,*,#1230,.T.);
#1374 = ORIENTED_EDGE('',*,*,#1375,.F.);
#1375 = EDGE_CURVE('',#1366,#1231,#1376,.T.);
#1376 = LINE('',#1377,#1378);
#1377 = CARTESIAN_POINT('',(48.792893218815,-15.,-14.29289321881));
#1378 = VECTOR('',#1379,1.);
#1379 = DIRECTION('',(-0.707106781187,-1.6E-16,-0.707106781186));
#1380 = PLANE('',#1381);
#1381 = AXIS2_PLACEMENT_3D('',#1382,#1383,#1384);
#1382 = CARTESIAN_POINT('',(49.146446609408,-14.5,-14.64644660941));
#1383 = DIRECTION('',(-0.5,0.707106781186,0.5));
#1384 = DIRECTION('',(-0.707106781187,-2.22044604925E-16,-0.707106781186
    ));
#1385 = ADVANCED_FACE('',(#1386),#1397,.F.);
#1386 = FACE_BOUND('',#1387,.F.);
#1387 = EDGE_LOOP('',(#1388,#1389,#1395,#1396));
#1388 = ORIENTED_EDGE('',*,*,#1365,.F.);
#1389 = ORIENTED_EDGE('',*,*,#1390,.T.);
#1390 = EDGE_CURVE('',#1366,#1343,#1391,.T.);
#1391 = LINE('',#1392,#1393);
#1392 = CARTESIAN_POINT('',(47.216436674867,-15.,-17.09879598771));
#1393 = VECTOR('',#1394,1.);
#1394 = DIRECTION('',(0.382683432364,2.1E-16,0.923879532512));
#1395 = ORIENTED_EDGE('',*,*,#1342,.T.);
#1396 = ORIENTED_EDGE('',*,*,#667,.F.);
#1397 = PLANE('',#1398);
#1398 = AXIS2_PLACEMENT_3D('',#1399,#1400,#1401);
#1399 = CARTESIAN_POINT('',(48.085786437629,-15.,-15.));
#1400 = DIRECTION('',(-0.678598344546,0.678598344545,0.281084637715));
#1401 = DIRECTION('',(0.382683432364,1.97064586871E-15,0.923879532512));
#1402 = ADVANCED_FACE('',(#1403,#1409),#1420,.T.);
#1403 = FACE_BOUND('',#1404,.T.);
#1404 = EDGE_LOOP('',(#1405,#1406,#1407,#1408));
#1405 = ORIENTED_EDGE('',*,*,#682,.F.);
#1406 = ORIENTED_EDGE('',*,*,#737,.F.);
#1407 = ORIENTED_EDGE('',*,*,#761,.F.);
#1408 = ORIENTED_EDGE('',*,*,#713,.F.);
#1409 = FACE_BOUND('',#1410,.T.);
#1410 = EDGE_LOOP('',(#1411));
#1411 = ORIENTED_EDGE('',*,*,#1412,.T.);
#1412 = EDGE_CURVE('',#1413,#1413,#1415,.T.);
#1413 = VERTEX_POINT('',#1414);
#1414 = CARTESIAN_POINT('',(-18.5,-1.103629710818,-3.251288694036));
#1415 = CIRCLE('',#1416,1.5);
#1416 = AXIS2_PLACEMENT_3D('',#1417,#1418,#1419);
#1417 = CARTESIAN_POINT('',(-20.,-1.103629710818,-3.251288694036));
#1418 = DIRECTION('',(0.,-0.866025403784,0.5));
#1419 = DIRECTION('',(1.,0.,0.));
#1420 = PLANE('',#1421);
#1421 = AXIS2_PLACEMENT_3D('',#1422,#1423,#1424);
#1422 = CARTESIAN_POINT('',(0.,-1.103629710818,-3.251288694036));
#1423 = DIRECTION('',(0.,0.866025403784,-0.5));
#1424 = DIRECTION('',(0.,0.5,0.866025403784));
#1425 = ADVANCED_FACE('',(#1426,#1432),#1443,.T.);
#1426 = FACE_BOUND('',#1427,.T.);
#1427 = EDGE_LOOP('',(#1428,#1429,#1430,#1431));
#1428 = ORIENTED_EDGE('',*,*,#778,.F.);
#1429 = ORIENTED_EDGE('',*,*,#833,.F.);
#1430 = ORIENTED_EDGE('',*,*,#857,.F.);
#1431 = ORIENTED_EDGE('',*,*,#809,.F.);
#1432 = FACE_BOUND('',#1433,.T.);
#1433 = EDGE_LOOP('',(#1434));
#1434 = ORIENTED_EDGE('',*,*,#1435,.T.);
#1435 = EDGE_CURVE('',#1436,#1436,#1438,.T.);
#1436 = VERTEX_POINT('',#1437);
#1437 = CARTESIAN_POINT('',(21.5,-1.103629710818,-3.251288694036));
#1438 = CIRCLE('',#1439,1.5);
#1439 = AXIS2_PLACEMENT_3D('',#1440,#1441,#1442);
#1440 = CARTESIAN_POINT('',(20.,-1.103629710818,-3.251288694036));
#1441 = DIRECTION('',(0.,-0.866025403784,0.5));
#1442 = DIRECTION('',(1.,0.,0.));
#1443 = PLANE('',#1444);
#1444 = AXIS2_PLACEMENT_3D('',#1445,#1446,#1447);
#1445 = CARTESIAN_POINT('',(0.,-1.103629710818,-3.251288694036));
#1446 = DIRECTION('',(0.,0.866025403784,-0.5));
#1447 = DIRECTION('',(0.,0.5,0.866025403784));
#1448 = ADVANCED_FACE('',(#1449),#1468,.F.);
#1449 = FACE_BOUND('',#1450,.T.);
#1450 = EDGE_LOOP('',(#1451,#1459,#1466,#1467));
#1451 = ORIENTED_EDGE('',*,*,#1452,.F.);
#1452 = EDGE_CURVE('',#1453,#875,#1455,.T.);
#1453 = VERTEX_POINT('',#1454);
#1454 = CARTESIAN_POINT('',(47.,-15.,3.E-15));
#1455 = LINE('',#1456,#1457);
#1456 = CARTESIAN_POINT('',(44.5,-12.2,2.71E-15));
#1457 = VECTOR('',#1458,1.);
#1458 = DIRECTION('',(-0.666015769309,0.745937661626,-1.7E-16));
#1459 = ORIENTED_EDGE('',*,*,#1460,.T.);
#1460 = EDGE_CURVE('',#1453,#1453,#1461,.T.);
#1461 = CIRCLE('',#1462,5.);
#1462 = AXIS2_PLACEMENT_3D('',#1463,#1464,#1465);
#1463 = CARTESIAN_POINT('',(42.,-15.,3.33E-15));
#1464 = DIRECTION('',(0.,-1.,2.2E-16));
#1465 = DIRECTION('',(1.,0.,0.));
#1466 = ORIENTED_EDGE('',*,*,#1452,.T.);
#1467 = ORIENTED_EDGE('',*,*,#882,.F.);
#1468 = CONICAL_SURFACE('',#1469,2.5,0.728854726453);
#1469 = AXIS2_PLACEMENT_3D('',#1470,#1471,#1472);
#1470 = CARTESIAN_POINT('',(42.,-12.2,2.71E-15));
#1471 = DIRECTION('',(0.,-1.,2.2E-16));
#1472 = DIRECTION('',(1.,0.,0.));
#1473 = ADVANCED_FACE('',(#1474),#1492,.T.);
#1474 = FACE_BOUND('',#1475,.T.);
#1475 = EDGE_LOOP('',(#1476,#1484,#1485,#1486));
#1476 = ORIENTED_EDGE('',*,*,#1477,.F.);
#1477 = EDGE_CURVE('',#992,#1478,#1480,.T.);
#1478 = VERTEX_POINT('',#1479);
#1479 = CARTESIAN_POINT('',(34.5,-15.,0.679491924311));
#1480 = LINE('',#1481,#1482);
#1481 = CARTESIAN_POINT('',(30.785898384862,-15.,8.107695154588));
#1482 = VECTOR('',#1483,1.);
#1483 = DIRECTION('',(0.4472135955,-2.E-16,-0.894427191));
#1484 = ORIENTED_EDGE('',*,*,#991,.T.);
#1485 = ORIENTED_EDGE('',*,*,#1303,.F.);
#1486 = ORIENTED_EDGE('',*,*,#1487,.F.);
#1487 = EDGE_CURVE('',#1478,#1278,#1488,.T.);
#1488 = LINE('',#1489,#1490);
#1489 = CARTESIAN_POINT('',(34.5,-14.13397459621,2.179491924311));
#1490 = VECTOR('',#1491,1.);
#1491 = DIRECTION('',(0.,-0.5,-0.866025403784));
#1492 = PLANE('',#1493);
#1493 = AXIS2_PLACEMENT_3D('',#1494,#1495,#1496);
#1494 = CARTESIAN_POINT('',(34.,-14.5669872981,2.429491924311));
#1495 = DIRECTION('',(0.707106781187,-0.612372435696,0.353553390593));
#1496 = DIRECTION('',(2.775557561563E-17,-0.5,-0.866025403784));
#1497 = ADVANCED_FACE('',(#1498,#1501),#1518,.F.);
#1498 = FACE_BOUND('',#1499,.F.);
#1499 = EDGE_LOOP('',(#1500));
#1500 = ORIENTED_EDGE('',*,*,#1460,.T.);
#1501 = FACE_BOUND('',#1502,.F.);
#1502 = EDGE_LOOP('',(#1503,#1504,#1505,#1506,#1507,#1508,#1514,#1515,
    #1516,#1517));
#1503 = ORIENTED_EDGE('',*,*,#1149,.T.);
#1504 = ORIENTED_EDGE('',*,*,#1350,.T.);
#1505 = ORIENTED_EDGE('',*,*,#1390,.F.);
#1506 = ORIENTED_EDGE('',*,*,#1375,.T.);
#1507 = ORIENTED_EDGE('',*,*,#1247,.T.);
#1508 = ORIENTED_EDGE('',*,*,#1509,.T.);
#1509 = EDGE_CURVE('',#1240,#1478,#1510,.T.);
#1510 = LINE('',#1511,#1512);
#1511 = CARTESIAN_POINT('',(34.5,-15.,-20.));
#1512 = VECTOR('',#1513,1.);
#1513 = DIRECTION('',(0.,0.,1.));
#1514 = ORIENTED_EDGE('',*,*,#1477,.F.);
#1515 = ORIENTED_EDGE('',*,*,#999,.F.);
#1516 = ORIENTED_EDGE('',*,*,#1007,.T.);
#1517 = ORIENTED_EDGE('',*,*,#1181,.F.);
#1518 = PLANE('',#1519);
#1519 = AXIS2_PLACEMENT_3D('',#1520,#1521,#1522);
#1520 = CARTESIAN_POINT('',(1.80328E-11,-15.,1.181089E-11));
#1521 = DIRECTION('',(0.,1.,-2.2E-16));
#1522 = DIRECTION('',(0.,2.2E-16,1.));
#1523 = ADVANCED_FACE('',(#1524),#1535,.F.);
#1524 = FACE_BOUND('',#1525,.F.);
#1525 = EDGE_LOOP('',(#1526,#1532,#1533,#1534));
#1526 = ORIENTED_EDGE('',*,*,#1527,.F.);
#1527 = EDGE_CURVE('',#1027,#1413,#1528,.T.);
#1528 = LINE('',#1529,#1530);
#1529 = CARTESIAN_POINT('',(-18.5,-14.09401076758,4.248711305964));
#1530 = VECTOR('',#1531,1.);
#1531 = DIRECTION('',(0.,0.866025403784,-0.5));
#1532 = ORIENTED_EDGE('',*,*,#1026,.F.);
#1533 = ORIENTED_EDGE('',*,*,#1527,.T.);
#1534 = ORIENTED_EDGE('',*,*,#1412,.T.);
#1535 = CYLINDRICAL_SURFACE('',#1536,1.5);
#1536 = AXIS2_PLACEMENT_3D('',#1537,#1538,#1539);
#1537 = CARTESIAN_POINT('',(-20.,-14.09401076758,4.248711305964));
#1538 = DIRECTION('',(0.,-0.866025403784,0.5));
#1539 = DIRECTION('',(1.,0.,0.));
#1540 = ADVANCED_FACE('',(#1541),#1560,.T.);
#1541 = FACE_BOUND('',#1542,.F.);
#1542 = EDGE_LOOP('',(#1543,#1551,#1558,#1559));
#1543 = ORIENTED_EDGE('',*,*,#1544,.T.);
#1544 = EDGE_CURVE('',#1038,#1545,#1547,.T.);
#1545 = VERTEX_POINT('',#1546);
#1546 = CARTESIAN_POINT('',(-24.,-27.17413778651,-8.406733260268));
#1547 = LINE('',#1548,#1549);
#1548 = CARTESIAN_POINT('',(-24.,-22.84401076758,-10.90673326026));
#1549 = VECTOR('',#1550,1.);
#1550 = DIRECTION('',(0.,-0.866025403784,0.5));
#1551 = ORIENTED_EDGE('',*,*,#1552,.T.);
#1552 = EDGE_CURVE('',#1545,#1545,#1553,.T.);
#1553 = CIRCLE('',#1554,3.);
#1554 = AXIS2_PLACEMENT_3D('',#1555,#1556,#1557);
#1555 = CARTESIAN_POINT('',(-27.,-27.17413778651,-8.406733260268));
#1556 = DIRECTION('',(0.,-0.866025403784,0.5));
#1557 = DIRECTION('',(1.,0.,0.));
#1558 = ORIENTED_EDGE('',*,*,#1544,.F.);
#1559 = ORIENTED_EDGE('',*,*,#1037,.F.);
#1560 = CYLINDRICAL_SURFACE('',#1561,3.);
#1561 = AXIS2_PLACEMENT_3D('',#1562,#1563,#1564);
#1562 = CARTESIAN_POINT('',(-27.,-22.84401076758,-10.90673326026));
#1563 = DIRECTION('',(0.,0.866025403784,-0.5));
#1564 = DIRECTION('',(1.,0.,0.));
#1565 = ADVANCED_FACE('',(#1566),#1577,.F.);
#1566 = FACE_BOUND('',#1567,.F.);
#1567 = EDGE_LOOP('',(#1568,#1574,#1575,#1576));
#1568 = ORIENTED_EDGE('',*,*,#1569,.F.);
#1569 = EDGE_CURVE('',#1049,#1436,#1570,.T.);
#1570 = LINE('',#1571,#1572);
#1571 = CARTESIAN_POINT('',(21.5,-14.09401076758,4.248711305964));
#1572 = VECTOR('',#1573,1.);
#1573 = DIRECTION('',(0.,0.866025403784,-0.5));
#1574 = ORIENTED_EDGE('',*,*,#1048,.F.);
#1575 = ORIENTED_EDGE('',*,*,#1569,.T.);
#1576 = ORIENTED_EDGE('',*,*,#1435,.T.);
#1577 = CYLINDRICAL_SURFACE('',#1578,1.5);
#1578 = AXIS2_PLACEMENT_3D('',#1579,#1580,#1581);
#1579 = CARTESIAN_POINT('',(20.,-14.09401076758,4.248711305964));
#1580 = DIRECTION('',(0.,-0.866025403784,0.5));
#1581 = DIRECTION('',(1.,0.,0.));
#1582 = ADVANCED_FACE('',(#1583),#1602,.T.);
#1583 = FACE_BOUND('',#1584,.F.);
#1584 = EDGE_LOOP('',(#1585,#1593,#1600,#1601));
#1585 = ORIENTED_EDGE('',*,*,#1586,.T.);
#1586 = EDGE_CURVE('',#1060,#1587,#1589,.T.);
#1587 = VERTEX_POINT('',#1588);
#1588 = CARTESIAN_POINT('',(30.,-27.17413778651,-8.406733260268));
#1589 = LINE('',#1590,#1591);
#1590 = CARTESIAN_POINT('',(30.,-22.84401076758,-10.90673326026));
#1591 = VECTOR('',#1592,1.);
#1592 = DIRECTION('',(0.,-0.866025403784,0.5));
#1593 = ORIENTED_EDGE('',*,*,#1594,.T.);
#1594 = EDGE_CURVE('',#1587,#1587,#1595,.T.);
#1595 = CIRCLE('',#1596,3.);
#1596 = AXIS2_PLACEMENT_3D('',#1597,#1598,#1599);
#1597 = CARTESIAN_POINT('',(27.,-27.17413778651,-8.406733260268));
#1598 = DIRECTION('',(0.,-0.866025403784,0.5));
#1599 = DIRECTION('',(1.,0.,0.));
#1600 = ORIENTED_EDGE('',*,*,#1586,.F.);
#1601 = ORIENTED_EDGE('',*,*,#1059,.F.);
#1602 = CYLINDRICAL_SURFACE('',#1603,3.);
#1603 = AXIS2_PLACEMENT_3D('',#1604,#1605,#1606);
#1604 = CARTESIAN_POINT('',(27.,-22.84401076758,-10.90673326026));
#1605 = DIRECTION('',(0.,0.866025403784,-0.5));
#1606 = DIRECTION('',(1.,0.,0.));
#1607 = ADVANCED_FACE('',(#1608),#1613,.T.);
#1608 = FACE_BOUND('',#1609,.T.);
#1609 = EDGE_LOOP('',(#1610,#1611,#1612));
#1610 = ORIENTED_EDGE('',*,*,#1509,.T.);
#1611 = ORIENTED_EDGE('',*,*,#1487,.T.);
#1612 = ORIENTED_EDGE('',*,*,#1286,.T.);
#1613 = PLANE('',#1614);
#1614 = AXIS2_PLACEMENT_3D('',#1615,#1616,#1617);
#1615 = CARTESIAN_POINT('',(34.5,-7.320508075689,-3.572655899082));
#1616 = DIRECTION('',(1.,0.,0.));
#1617 = DIRECTION('',(0.,0.,1.));
#1618 = ADVANCED_FACE('',(#1619,#1622),#1633,.F.);
#1619 = FACE_BOUND('',#1620,.T.);
#1620 = EDGE_LOOP('',(#1621));
#1621 = ORIENTED_EDGE('',*,*,#1552,.T.);
#1622 = FACE_BOUND('',#1623,.F.);
#1623 = EDGE_LOOP('',(#1624));
#1624 = ORIENTED_EDGE('',*,*,#1625,.T.);
#1625 = EDGE_CURVE('',#1626,#1626,#1628,.T.);
#1626 = VERTEX_POINT('',#1627);
#1627 = CARTESIAN_POINT('',(-25.5,-27.17413778651,-8.406733260268));
#1628 = CIRCLE('',#1629,1.5);
#1629 = AXIS2_PLACEMENT_3D('',#1630,#1631,#1632);
#1630 = CARTESIAN_POINT('',(-27.,-27.17413778651,-8.406733260268));
#1631 = DIRECTION('',(0.,-0.866025403784,0.5));
#1632 = DIRECTION('',(1.,0.,0.));
#1633 = PLANE('',#1634);
#1634 = AXIS2_PLACEMENT_3D('',#1635,#1636,#1637);
#1635 = CARTESIAN_POINT('',(-6.1E-16,-27.17413778651,-8.406733260268));
#1636 = DIRECTION('',(0.,0.866025403784,-0.5));
#1637 = DIRECTION('',(0.,0.5,0.866025403784));
#1638 = ADVANCED_FACE('',(#1639,#1642),#1653,.F.);
#1639 = FACE_BOUND('',#1640,.T.);
#1640 = EDGE_LOOP('',(#1641));
#1641 = ORIENTED_EDGE('',*,*,#1594,.T.);
#1642 = FACE_BOUND('',#1643,.F.);
#1643 = EDGE_LOOP('',(#1644));
#1644 = ORIENTED_EDGE('',*,*,#1645,.T.);
#1645 = EDGE_CURVE('',#1646,#1646,#1648,.T.);
#1646 = VERTEX_POINT('',#1647);
#1647 = CARTESIAN_POINT('',(28.5,-27.17413778651,-8.406733260268));
#1648 = CIRCLE('',#1649,1.5);
#1649 = AXIS2_PLACEMENT_3D('',#1650,#1651,#1652);
#1650 = CARTESIAN_POINT('',(27.,-27.17413778651,-8.406733260268));
#1651 = DIRECTION('',(0.,-0.866025403784,0.5));
#1652 = DIRECTION('',(1.,0.,0.));
#1653 = PLANE('',#1654);
#1654 = AXIS2_PLACEMENT_3D('',#1655,#1656,#1657);
#1655 = CARTESIAN_POINT('',(-6.1E-16,-27.17413778651,-8.406733260268));
#1656 = DIRECTION('',(0.,0.866025403784,-0.5));
#1657 = DIRECTION('',(0.,0.5,0.866025403784));
#1658 = ADVANCED_FACE('',(#1659),#1678,.F.);
#1659 = FACE_BOUND('',#1660,.T.);
#1660 = EDGE_LOOP('',(#1661,#1669,#1670,#1671));
#1661 = ORIENTED_EDGE('',*,*,#1662,.T.);
#1662 = EDGE_CURVE('',#1663,#1626,#1665,.T.);
#1663 = VERTEX_POINT('',#1664);
#1664 = CARTESIAN_POINT('',(-25.5,-22.84401076758,-10.90673326026));
#1665 = LINE('',#1666,#1667);
#1666 = CARTESIAN_POINT('',(-25.5,-22.84401076758,-10.90673326026));
#1667 = VECTOR('',#1668,1.);
#1668 = DIRECTION('',(0.,-0.866025403784,0.5));
#1669 = ORIENTED_EDGE('',*,*,#1625,.T.);
#1670 = ORIENTED_EDGE('',*,*,#1662,.F.);
#1671 = ORIENTED_EDGE('',*,*,#1672,.F.);
#1672 = EDGE_CURVE('',#1663,#1663,#1673,.T.);
#1673 = CIRCLE('',#1674,1.5);
#1674 = AXIS2_PLACEMENT_3D('',#1675,#1676,#1677);
#1675 = CARTESIAN_POINT('',(-27.,-22.84401076758,-10.90673326026));
#1676 = DIRECTION('',(0.,-0.866025403784,0.5));
#1677 = DIRECTION('',(1.,0.,0.));
#1678 = CYLINDRICAL_SURFACE('',#1679,1.5);
#1679 = AXIS2_PLACEMENT_3D('',#1680,#1681,#1682);
#1680 = CARTESIAN_POINT('',(-27.,-22.84401076758,-10.90673326026));
#1681 = DIRECTION('',(0.,0.866025403784,-0.5));
#1682 = DIRECTION('',(1.,0.,0.));
#1683 = ADVANCED_FACE('',(#1684),#1703,.F.);
#1684 = FACE_BOUND('',#1685,.T.);
#1685 = EDGE_LOOP('',(#1686,#1694,#1695,#1696));
#1686 = ORIENTED_EDGE('',*,*,#1687,.T.);
#1687 = EDGE_CURVE('',#1688,#1646,#1690,.T.);
#1688 = VERTEX_POINT('',#1689);
#1689 = CARTESIAN_POINT('',(28.5,-22.84401076758,-10.90673326026));
#1690 = LINE('',#1691,#1692);
#1691 = CARTESIAN_POINT('',(28.5,-22.84401076758,-10.90673326026));
#1692 = VECTOR('',#1693,1.);
#1693 = DIRECTION('',(0.,-0.866025403784,0.5));
#1694 = ORIENTED_EDGE('',*,*,#1645,.T.);
#1695 = ORIENTED_EDGE('',*,*,#1687,.F.);
#1696 = ORIENTED_EDGE('',*,*,#1697,.F.);
#1697 = EDGE_CURVE('',#1688,#1688,#1698,.T.);
#1698 = CIRCLE('',#1699,1.5);
#1699 = AXIS2_PLACEMENT_3D('',#1700,#1701,#1702);
#1700 = CARTESIAN_POINT('',(27.,-22.84401076758,-10.90673326026));
#1701 = DIRECTION('',(0.,-0.866025403784,0.5));
#1702 = DIRECTION('',(1.,0.,0.));
#1703 = CYLINDRICAL_SURFACE('',#1704,1.5);
#1704 = AXIS2_PLACEMENT_3D('',#1705,#1706,#1707);
#1705 = CARTESIAN_POINT('',(27.,-22.84401076758,-10.90673326026));
#1706 = DIRECTION('',(0.,0.866025403784,-0.5));
#1707 = DIRECTION('',(1.,0.,0.));
#1708 = ADVANCED_FACE('',(#1709),#1712,.T.);
#1709 = FACE_BOUND('',#1710,.T.);
#1710 = EDGE_LOOP('',(#1711));
#1711 = ORIENTED_EDGE('',*,*,#1672,.T.);
#1712 = PLANE('',#1713);
#1713 = AXIS2_PLACEMENT_3D('',#1714,#1715,#1716);
#1714 = CARTESIAN_POINT('',(6.E-16,-16.52434903827,3.924194154913E-02));
#1715 = DIRECTION('',(0.,-0.866025403784,0.5));
#1716 = DIRECTION('',(0.,-0.5,-0.866025403784));
#1717 = ADVANCED_FACE('',(#1718),#1721,.T.);
#1718 = FACE_BOUND('',#1719,.T.);
#1719 = EDGE_LOOP('',(#1720));
#1720 = ORIENTED_EDGE('',*,*,#1697,.T.);
#1721 = PLANE('',#1722);
#1722 = AXIS2_PLACEMENT_3D('',#1723,#1724,#1725);
#1723 = CARTESIAN_POINT('',(6.E-16,-16.52434903827,3.924194154913E-02));
#1724 = DIRECTION('',(0.,-0.866025403784,0.5));
#1725 = DIRECTION('',(0.,-0.5,-0.866025403784));
#1726 = ( GEOMETRIC_REPRESENTATION_CONTEXT(3) 
GLOBAL_UNCERTAINTY_ASSIGNED_CONTEXT((#1730)) 
GLOBAL_UNIT_ASSIGNED_CONTEXT((#1727,#1728,#1729)) REPRESENTATION_CONTEXT
('Context #1','3D Context with UNIT and UNCERTAINTY') );
#1727 = ( LENGTH_UNIT() NAMED_UNIT(*) SI_UNIT(.MILLI.,.METRE.) );
#1728 = ( NAMED_UNIT(*) PLANE_ANGLE_UNIT() SI_UNIT($,.RADIAN.) );
#1729 = ( NAMED_UNIT(*) SI_UNIT($,.STERADIAN.) SOLID_ANGLE_UNIT() );
#1730 = UNCERTAINTY_MEASURE_WITH_UNIT(LENGTH_MEASURE(2.E-05),#1727,
  'distance_accuracy_value','confusion accuracy');
#1731 = PRODUCT_RELATED_PRODUCT_CATEGORY('part',$,(#7));
ENDSEC;
END-ISO-10303-21;
