ISO-10303-21;
HEADER;
FILE_DESCRIPTION(('FreeCAD Model'),'2;1');
FILE_NAME('Open CASCADE Shape Model','2026-07-16T12:25:55',(''),(''),
  'Open CASCADE STEP processor 7.8','FreeCAD','Unknown');
FILE_SCHEMA(('AUTOMOTIVE_DESIGN { 1 0 10303 214 1 1 1 1 }'));
ENDSEC;
DATA;
#1 = APPLICATION_PROTOCOL_DEFINITION('international standard',
  'automotive_design',2000,#2);
#2 = APPLICATION_CONTEXT(
  'core data for automotive mechanical design processes');
#3 = SHAPE_DEFINITION_REPRESENTATION(#4,#10);
#4 = PRODUCT_DEFINITION_SHAPE('','',#5);
#5 = PRODUCT_DEFINITION('design','',#6,#9);
#6 = PRODUCT_DEFINITION_FORMATION('','',#7);
#7 = PRODUCT('Body','Body','',(#8));
#8 = PRODUCT_CONTEXT('',#2,'mechanical');
#9 = PRODUCT_DEFINITION_CONTEXT('part definition',#2,'design');
#10 = ADVANCED_BREP_SHAPE_REPRESENTATION('',(#11,#15),#2267);
#11 = AXIS2_PLACEMENT_3D('',#12,#13,#14);
#12 = CARTESIAN_POINT('',(0.,0.,0.));
#13 = DIRECTION('',(0.,0.,1.));
#14 = DIRECTION('',(1.,0.,-0.));
#15 = MANIFOLD_SOLID_BREP('',#16);
#16 = CLOSED_SHELL('',(#17,#167,#198,#222,#246,#270,#294,#318,#342,#359,
    #390,#414,#438,#455,#480,#505,#530,#555,#618,#642,#666,#722,#810,
    #834,#858,#907,#938,#962,#986,#1003,#1027,#1051,#1075,#1099,#1140,
    #1180,#1221,#1245,#1278,#1319,#1351,#1375,#1400,#1424,#1465,#1489,
    #1513,#1545,#1569,#1593,#1618,#1658,#1682,#1715,#1761,#1879,#1910,
    #1934,#1951,#1968,#1980,#2010,#2043,#2055,#2067,#2084,#2101,#2113,
    #2135,#2147,#2159,#2190,#2214,#2238,#2255));
#17 = ADVANCED_FACE('',(#18,#84,#118,#129,#140,#151),#162,.F.);
#18 = FACE_BOUND('',#19,.F.);
#19 = EDGE_LOOP('',(#20,#30,#38,#46,#54,#62,#70,#78));
#20 = ORIENTED_EDGE('',*,*,#21,.F.);
#21 = EDGE_CURVE('',#22,#24,#26,.T.);
#22 = VERTEX_POINT('',#23);
#23 = CARTESIAN_POINT('',(-33.5,-1.,57.585786437627));
#24 = VERTEX_POINT('',#25);
#25 = CARTESIAN_POINT('',(-33.5,-1.,-57.58578643762));
#26 = LINE('',#27,#28);
#27 = CARTESIAN_POINT('',(-33.5,-1.,58.));
#28 = VECTOR('',#29,1.);
#29 = DIRECTION('',(0.,0.,-1.));
#30 = ORIENTED_EDGE('',*,*,#31,.F.);
#31 = EDGE_CURVE('',#32,#22,#34,.T.);
#32 = VERTEX_POINT('',#33);
#33 = CARTESIAN_POINT('',(-29.08578643762,-1.,62.));
#34 = LINE('',#35,#36);
#35 = CARTESIAN_POINT('',(-28.79289321881,-1.,62.292893218813));
#36 = VECTOR('',#37,1.);
#37 = DIRECTION('',(-0.707106781187,0.,-0.707106781187));
#38 = ORIENTED_EDGE('',*,*,#39,.F.);
#39 = EDGE_CURVE('',#40,#32,#42,.T.);
#40 = VERTEX_POINT('',#41);
#41 = CARTESIAN_POINT('',(29.085786437627,-1.,62.));
#42 = LINE('',#43,#44);
#43 = CARTESIAN_POINT('',(29.5,-1.,62.));
#44 = VECTOR('',#45,1.);
#45 = DIRECTION('',(-1.,0.,0.));
#46 = ORIENTED_EDGE('',*,*,#47,.F.);
#47 = EDGE_CURVE('',#48,#40,#50,.T.);
#48 = VERTEX_POINT('',#49);
#49 = CARTESIAN_POINT('',(33.5,-1.,57.585786437627));
#50 = LINE('',#51,#52);
#51 = CARTESIAN_POINT('',(33.792893218813,-1.,57.292893218813));
#52 = VECTOR('',#53,1.);
#53 = DIRECTION('',(-0.707106781187,0.,0.707106781187));
#54 = ORIENTED_EDGE('',*,*,#55,.F.);
#55 = EDGE_CURVE('',#56,#48,#58,.T.);
#56 = VERTEX_POINT('',#57);
#57 = CARTESIAN_POINT('',(33.5,-1.,-57.58578643762));
#58 = LINE('',#59,#60);
#59 = CARTESIAN_POINT('',(33.5,-1.,-58.));
#60 = VECTOR('',#61,1.);
#61 = DIRECTION('',(0.,0.,1.));
#62 = ORIENTED_EDGE('',*,*,#63,.T.);
#63 = EDGE_CURVE('',#56,#64,#66,.T.);
#64 = VERTEX_POINT('',#65);
#65 = CARTESIAN_POINT('',(29.085786437627,-1.,-62.));
#66 = LINE('',#67,#68);
#67 = CARTESIAN_POINT('',(33.792893218813,-1.,-57.29289321881));
#68 = VECTOR('',#69,1.);
#69 = DIRECTION('',(-0.707106781187,0.,-0.707106781187));
#70 = ORIENTED_EDGE('',*,*,#71,.F.);
#71 = EDGE_CURVE('',#72,#64,#74,.T.);
#72 = VERTEX_POINT('',#73);
#73 = CARTESIAN_POINT('',(-29.08578643762,-1.,-62.));
#74 = LINE('',#75,#76);
#75 = CARTESIAN_POINT('',(-29.5,-1.,-62.));
#76 = VECTOR('',#77,1.);
#77 = DIRECTION('',(1.,0.,0.));
#78 = ORIENTED_EDGE('',*,*,#79,.T.);
#79 = EDGE_CURVE('',#72,#24,#80,.T.);
#80 = LINE('',#81,#82);
#81 = CARTESIAN_POINT('',(-28.79289321881,-1.,-62.29289321881));
#82 = VECTOR('',#83,1.);
#83 = DIRECTION('',(-0.707106781187,0.,0.707106781187));
#84 = FACE_BOUND('',#85,.F.);
#85 = EDGE_LOOP('',(#86,#96,#104,#112));
#86 = ORIENTED_EDGE('',*,*,#87,.T.);
#87 = EDGE_CURVE('',#88,#90,#92,.T.);
#88 = VERTEX_POINT('',#89);
#89 = CARTESIAN_POINT('',(-29.,-1.,50.5));
#90 = VERTEX_POINT('',#91);
#91 = CARTESIAN_POINT('',(-29.,-1.,-47.5));
#92 = LINE('',#93,#94);
#93 = CARTESIAN_POINT('',(-29.,-1.,49.));
#94 = VECTOR('',#95,1.);
#95 = DIRECTION('',(0.,-2.2E-16,-1.));
#96 = ORIENTED_EDGE('',*,*,#97,.T.);
#97 = EDGE_CURVE('',#90,#98,#100,.T.);
#98 = VERTEX_POINT('',#99);
#99 = CARTESIAN_POINT('',(29.,-1.,-47.5));
#100 = LINE('',#101,#102);
#101 = CARTESIAN_POINT('',(-27.5,-1.,-47.5));
#102 = VECTOR('',#103,1.);
#103 = DIRECTION('',(1.,0.,0.));
#104 = ORIENTED_EDGE('',*,*,#105,.T.);
#105 = EDGE_CURVE('',#98,#106,#108,.T.);
#106 = VERTEX_POINT('',#107);
#107 = CARTESIAN_POINT('',(29.,-1.,50.5));
#108 = LINE('',#109,#110);
#109 = CARTESIAN_POINT('',(29.,-1.,-46.));
#110 = VECTOR('',#111,1.);
#111 = DIRECTION('',(0.,2.2E-16,1.));
#112 = ORIENTED_EDGE('',*,*,#113,.T.);
#113 = EDGE_CURVE('',#106,#88,#114,.T.);
#114 = LINE('',#115,#116);
#115 = CARTESIAN_POINT('',(27.5,-1.,50.5));
#116 = VECTOR('',#117,1.);
#117 = DIRECTION('',(-1.,0.,0.));
#118 = FACE_BOUND('',#119,.F.);
#119 = EDGE_LOOP('',(#120));
#120 = ORIENTED_EDGE('',*,*,#121,.F.);
#121 = EDGE_CURVE('',#122,#122,#124,.T.);
#122 = VERTEX_POINT('',#123);
#123 = CARTESIAN_POINT('',(-29.95,-1.,54.));
#124 = CIRCLE('',#125,2.95);
#125 = AXIS2_PLACEMENT_3D('',#126,#127,#128);
#126 = CARTESIAN_POINT('',(-27.,-1.,54.));
#127 = DIRECTION('',(0.,1.,-0.));
#128 = DIRECTION('',(-1.,0.,0.));
#129 = FACE_BOUND('',#130,.F.);
#130 = EDGE_LOOP('',(#131));
#131 = ORIENTED_EDGE('',*,*,#132,.F.);
#132 = EDGE_CURVE('',#133,#133,#135,.T.);
#133 = VERTEX_POINT('',#134);
#134 = CARTESIAN_POINT('',(24.05,-1.,54.));
#135 = CIRCLE('',#136,2.95);
#136 = AXIS2_PLACEMENT_3D('',#137,#138,#139);
#137 = CARTESIAN_POINT('',(27.,-1.,54.));
#138 = DIRECTION('',(0.,1.,-0.));
#139 = DIRECTION('',(-1.,0.,0.));
#140 = FACE_BOUND('',#141,.F.);
#141 = EDGE_LOOP('',(#142));
#142 = ORIENTED_EDGE('',*,*,#143,.F.);
#143 = EDGE_CURVE('',#144,#144,#146,.T.);
#144 = VERTEX_POINT('',#145);
#145 = CARTESIAN_POINT('',(-29.95,-1.,-52.));
#146 = CIRCLE('',#147,2.95);
#147 = AXIS2_PLACEMENT_3D('',#148,#149,#150);
#148 = CARTESIAN_POINT('',(-27.,-1.,-52.));
#149 = DIRECTION('',(0.,1.,-0.));
#150 = DIRECTION('',(-1.,0.,0.));
#151 = FACE_BOUND('',#152,.F.);
#152 = EDGE_LOOP('',(#153));
#153 = ORIENTED_EDGE('',*,*,#154,.F.);
#154 = EDGE_CURVE('',#155,#155,#157,.T.);
#155 = VERTEX_POINT('',#156);
#156 = CARTESIAN_POINT('',(24.05,-1.,-52.));
#157 = CIRCLE('',#158,2.95);
#158 = AXIS2_PLACEMENT_3D('',#159,#160,#161);
#159 = CARTESIAN_POINT('',(27.,-1.,-52.));
#160 = DIRECTION('',(0.,1.,-0.));
#161 = DIRECTION('',(-1.,0.,0.));
#162 = PLANE('',#163);
#163 = AXIS2_PLACEMENT_3D('',#164,#165,#166);
#164 = CARTESIAN_POINT('',(0.,-1.,0.));
#165 = DIRECTION('',(0.,1.,0.));
#166 = DIRECTION('',(0.,0.,1.));
#167 = ADVANCED_FACE('',(#168),#193,.F.);
#168 = FACE_BOUND('',#169,.F.);
#169 = EDGE_LOOP('',(#170,#178,#179,#187));
#170 = ORIENTED_EDGE('',*,*,#171,.F.);
#171 = EDGE_CURVE('',#22,#172,#174,.T.);
#172 = VERTEX_POINT('',#173);
#173 = CARTESIAN_POINT('',(-34.5,-1.E-15,58.));
#174 = LINE('',#175,#176);
#175 = CARTESIAN_POINT('',(-33.3651239283,-1.134876071695,
    57.529918939491));
#176 = VECTOR('',#177,1.);
#177 = DIRECTION('',(-0.678598344546,0.678598344546,0.281084637715));
#178 = ORIENTED_EDGE('',*,*,#21,.T.);
#179 = ORIENTED_EDGE('',*,*,#180,.T.);
#180 = EDGE_CURVE('',#24,#181,#183,.T.);
#181 = VERTEX_POINT('',#182);
#182 = CARTESIAN_POINT('',(-34.5,-1.E-15,-58.));
#183 = LINE('',#184,#185);
#184 = CARTESIAN_POINT('',(-22.30199687813,-12.19800312186,
    -52.94742167305));
#185 = VECTOR('',#186,1.);
#186 = DIRECTION('',(-0.678598344546,0.678598344546,-0.281084637715));
#187 = ORIENTED_EDGE('',*,*,#188,.F.);
#188 = EDGE_CURVE('',#172,#181,#189,.T.);
#189 = LINE('',#190,#191);
#190 = CARTESIAN_POINT('',(-34.5,0.,58.));
#191 = VECTOR('',#192,1.);
#192 = DIRECTION('',(0.,0.,-1.));
#193 = PLANE('',#194);
#194 = AXIS2_PLACEMENT_3D('',#195,#196,#197);
#195 = CARTESIAN_POINT('',(-34.,-0.5,58.));
#196 = DIRECTION('',(0.707106781187,0.707106781187,0.));
#197 = DIRECTION('',(0.,0.,-1.));
#198 = ADVANCED_FACE('',(#199),#217,.F.);
#199 = FACE_BOUND('',#200,.F.);
#200 = EDGE_LOOP('',(#201,#209,#210,#211));
#201 = ORIENTED_EDGE('',*,*,#202,.F.);
#202 = EDGE_CURVE('',#32,#203,#205,.T.);
#203 = VERTEX_POINT('',#204);
#204 = CARTESIAN_POINT('',(-29.5,4.E-15,63.));
#205 = LINE('',#206,#207);
#206 = CARTESIAN_POINT('',(-26.97850351017,-6.087431023221,
    56.912568976779));
#207 = VECTOR('',#208,1.);
#208 = DIRECTION('',(-0.281084637715,0.678598344546,0.678598344546));
#209 = ORIENTED_EDGE('',*,*,#31,.T.);
#210 = ORIENTED_EDGE('',*,*,#171,.T.);
#211 = ORIENTED_EDGE('',*,*,#212,.F.);
#212 = EDGE_CURVE('',#203,#172,#213,.T.);
#213 = LINE('',#214,#215);
#214 = CARTESIAN_POINT('',(-29.5,0.,63.));
#215 = VECTOR('',#216,1.);
#216 = DIRECTION('',(-0.707106781187,0.,-0.707106781187));
#217 = PLANE('',#218);
#218 = AXIS2_PLACEMENT_3D('',#219,#220,#221);
#219 = CARTESIAN_POINT('',(-29.1464466094,-0.5,62.646446609407));
#220 = DIRECTION('',(0.5,0.707106781187,-0.5));
#221 = DIRECTION('',(-0.707106781187,-1.110223024625E-16,-0.707106781187
    ));
#222 = ADVANCED_FACE('',(#223),#241,.F.);
#223 = FACE_BOUND('',#224,.T.);
#224 = EDGE_LOOP('',(#225,#233,#234,#235));
#225 = ORIENTED_EDGE('',*,*,#226,.F.);
#226 = EDGE_CURVE('',#72,#227,#229,.T.);
#227 = VERTEX_POINT('',#228);
#228 = CARTESIAN_POINT('',(-29.5,4.E-15,-63.));
#229 = LINE('',#230,#231);
#230 = CARTESIAN_POINT('',(-29.30925643016,-0.46049571322,
    -62.53950428678));
#231 = VECTOR('',#232,1.);
#232 = DIRECTION('',(-0.281084637715,0.678598344546,-0.678598344546));
#233 = ORIENTED_EDGE('',*,*,#79,.T.);
#234 = ORIENTED_EDGE('',*,*,#180,.T.);
#235 = ORIENTED_EDGE('',*,*,#236,.F.);
#236 = EDGE_CURVE('',#227,#181,#237,.T.);
#237 = LINE('',#238,#239);
#238 = CARTESIAN_POINT('',(-29.5,-8.9E-16,-63.));
#239 = VECTOR('',#240,1.);
#240 = DIRECTION('',(-0.707106781187,0.,0.707106781187));
#241 = PLANE('',#242);
#242 = AXIS2_PLACEMENT_3D('',#243,#244,#245);
#243 = CARTESIAN_POINT('',(-29.1464466094,-0.5,-62.6464466094));
#244 = DIRECTION('',(0.5,0.707106781187,0.5));
#245 = DIRECTION('',(0.707106781187,-2.775557561563E-17,-0.707106781187)
  );
#246 = ADVANCED_FACE('',(#247),#265,.F.);
#247 = FACE_BOUND('',#248,.F.);
#248 = EDGE_LOOP('',(#249,#257,#258,#259));
#249 = ORIENTED_EDGE('',*,*,#250,.F.);
#250 = EDGE_CURVE('',#40,#251,#253,.T.);
#251 = VERTEX_POINT('',#252);
#252 = CARTESIAN_POINT('',(29.5,4.E-15,63.));
#253 = LINE('',#254,#255);
#254 = CARTESIAN_POINT('',(29.029918939491,-1.134876071695,
    61.865123928305));
#255 = VECTOR('',#256,1.);
#256 = DIRECTION('',(0.281084637715,0.678598344546,0.678598344546));
#257 = ORIENTED_EDGE('',*,*,#39,.T.);
#258 = ORIENTED_EDGE('',*,*,#202,.T.);
#259 = ORIENTED_EDGE('',*,*,#260,.F.);
#260 = EDGE_CURVE('',#251,#203,#261,.T.);
#261 = LINE('',#262,#263);
#262 = CARTESIAN_POINT('',(29.5,0.,63.));
#263 = VECTOR('',#264,1.);
#264 = DIRECTION('',(-1.,0.,0.));
#265 = PLANE('',#266);
#266 = AXIS2_PLACEMENT_3D('',#267,#268,#269);
#267 = CARTESIAN_POINT('',(29.5,-0.5,62.5));
#268 = DIRECTION('',(0.,0.707106781187,-0.707106781187));
#269 = DIRECTION('',(-1.,0.,0.));
#270 = ADVANCED_FACE('',(#271),#289,.F.);
#271 = FACE_BOUND('',#272,.F.);
#272 = EDGE_LOOP('',(#273,#274,#275,#283));
#273 = ORIENTED_EDGE('',*,*,#226,.F.);
#274 = ORIENTED_EDGE('',*,*,#71,.T.);
#275 = ORIENTED_EDGE('',*,*,#276,.T.);
#276 = EDGE_CURVE('',#64,#277,#279,.T.);
#277 = VERTEX_POINT('',#278);
#278 = CARTESIAN_POINT('',(29.5,4.E-15,-63.));
#279 = LINE('',#280,#281);
#280 = CARTESIAN_POINT('',(26.699166019493,-6.761811381696,
    -56.2381886183));
#281 = VECTOR('',#282,1.);
#282 = DIRECTION('',(0.281084637715,0.678598344546,-0.678598344546));
#283 = ORIENTED_EDGE('',*,*,#284,.F.);
#284 = EDGE_CURVE('',#227,#277,#285,.T.);
#285 = LINE('',#286,#287);
#286 = CARTESIAN_POINT('',(-29.5,0.,-63.));
#287 = VECTOR('',#288,1.);
#288 = DIRECTION('',(1.,0.,0.));
#289 = PLANE('',#290);
#290 = AXIS2_PLACEMENT_3D('',#291,#292,#293);
#291 = CARTESIAN_POINT('',(-29.5,-0.5,-62.5));
#292 = DIRECTION('',(0.,0.707106781187,0.707106781187));
#293 = DIRECTION('',(1.,0.,-0.));
#294 = ADVANCED_FACE('',(#295),#313,.F.);
#295 = FACE_BOUND('',#296,.F.);
#296 = EDGE_LOOP('',(#297,#305,#306,#307));
#297 = ORIENTED_EDGE('',*,*,#298,.F.);
#298 = EDGE_CURVE('',#48,#299,#301,.T.);
#299 = VERTEX_POINT('',#300);
#300 = CARTESIAN_POINT('',(34.5,-1.E-15,58.));
#301 = LINE('',#302,#303);
#302 = CARTESIAN_POINT('',(22.976377236608,-11.52362276339,
    53.226759163732));
#303 = VECTOR('',#304,1.);
#304 = DIRECTION('',(0.678598344546,0.678598344546,0.281084637715));
#305 = ORIENTED_EDGE('',*,*,#47,.T.);
#306 = ORIENTED_EDGE('',*,*,#250,.T.);
#307 = ORIENTED_EDGE('',*,*,#308,.F.);
#308 = EDGE_CURVE('',#299,#251,#309,.T.);
#309 = LINE('',#310,#311);
#310 = CARTESIAN_POINT('',(34.5,0.,58.));
#311 = VECTOR('',#312,1.);
#312 = DIRECTION('',(-0.707106781187,0.,0.707106781187));
#313 = PLANE('',#314);
#314 = AXIS2_PLACEMENT_3D('',#315,#316,#317);
#315 = CARTESIAN_POINT('',(34.146446609407,-0.5,57.646446609407));
#316 = DIRECTION('',(-0.5,0.707106781187,-0.5));
#317 = DIRECTION('',(-0.707106781187,-2.775557561563E-17,0.707106781187)
  );
#318 = ADVANCED_FACE('',(#319),#337,.T.);
#319 = FACE_BOUND('',#320,.T.);
#320 = EDGE_LOOP('',(#321,#329,#330,#331));
#321 = ORIENTED_EDGE('',*,*,#322,.F.);
#322 = EDGE_CURVE('',#56,#323,#325,.T.);
#323 = VERTEX_POINT('',#324);
#324 = CARTESIAN_POINT('',(34.5,0.,-58.));
#325 = LINE('',#326,#327);
#326 = CARTESIAN_POINT('',(34.03950428678,-0.46049571322,-57.80925643016
    ));
#327 = VECTOR('',#328,1.);
#328 = DIRECTION('',(0.678598344546,0.678598344546,-0.281084637715));
#329 = ORIENTED_EDGE('',*,*,#63,.T.);
#330 = ORIENTED_EDGE('',*,*,#276,.T.);
#331 = ORIENTED_EDGE('',*,*,#332,.F.);
#332 = EDGE_CURVE('',#323,#277,#333,.T.);
#333 = LINE('',#334,#335);
#334 = CARTESIAN_POINT('',(34.5,0.,-58.));
#335 = VECTOR('',#336,1.);
#336 = DIRECTION('',(-0.707106781187,0.,-0.707106781187));
#337 = PLANE('',#338);
#338 = AXIS2_PLACEMENT_3D('',#339,#340,#341);
#339 = CARTESIAN_POINT('',(34.146446609407,-0.5,-57.6464466094));
#340 = DIRECTION('',(0.5,-0.707106781187,-0.5));
#341 = DIRECTION('',(-0.707106781187,-2.775557561563E-17,-0.707106781187
    ));
#342 = ADVANCED_FACE('',(#343),#354,.F.);
#343 = FACE_BOUND('',#344,.F.);
#344 = EDGE_LOOP('',(#345,#346,#347,#348));
#345 = ORIENTED_EDGE('',*,*,#322,.F.);
#346 = ORIENTED_EDGE('',*,*,#55,.T.);
#347 = ORIENTED_EDGE('',*,*,#298,.T.);
#348 = ORIENTED_EDGE('',*,*,#349,.F.);
#349 = EDGE_CURVE('',#323,#299,#350,.T.);
#350 = LINE('',#351,#352);
#351 = CARTESIAN_POINT('',(34.5,0.,-58.));
#352 = VECTOR('',#353,1.);
#353 = DIRECTION('',(0.,0.,1.));
#354 = PLANE('',#355);
#355 = AXIS2_PLACEMENT_3D('',#356,#357,#358);
#356 = CARTESIAN_POINT('',(34.,-0.5,-58.));
#357 = DIRECTION('',(-0.707106781187,0.707106781187,0.));
#358 = DIRECTION('',(0.,0.,1.));
#359 = ADVANCED_FACE('',(#360),#385,.T.);
#360 = FACE_BOUND('',#361,.T.);
#361 = EDGE_LOOP('',(#362,#370,#371,#379));
#362 = ORIENTED_EDGE('',*,*,#363,.F.);
#363 = EDGE_CURVE('',#88,#364,#366,.T.);
#364 = VERTEX_POINT('',#365);
#365 = CARTESIAN_POINT('',(-27.5,0.5,49.));
#366 = LINE('',#367,#368);
#367 = CARTESIAN_POINT('',(-18.83333333333,9.166666666667,
    40.333333333333));
#368 = VECTOR('',#369,1.);
#369 = DIRECTION('',(0.57735026919,0.57735026919,-0.57735026919));
#370 = ORIENTED_EDGE('',*,*,#87,.T.);
#371 = ORIENTED_EDGE('',*,*,#372,.T.);
#372 = EDGE_CURVE('',#90,#373,#375,.T.);
#373 = VERTEX_POINT('',#374);
#374 = CARTESIAN_POINT('',(-27.5,0.5,-46.));
#375 = LINE('',#376,#377);
#376 = CARTESIAN_POINT('',(-12.16666666666,15.833333333333,
    -30.66666666666));
#377 = VECTOR('',#378,1.);
#378 = DIRECTION('',(0.57735026919,0.57735026919,0.57735026919));
#379 = ORIENTED_EDGE('',*,*,#380,.F.);
#380 = EDGE_CURVE('',#364,#373,#381,.T.);
#381 = LINE('',#382,#383);
#382 = CARTESIAN_POINT('',(-27.5,0.5,49.));
#383 = VECTOR('',#384,1.);
#384 = DIRECTION('',(0.,-2.2E-16,-1.));
#385 = PLANE('',#386);
#386 = AXIS2_PLACEMENT_3D('',#387,#388,#389);
#387 = CARTESIAN_POINT('',(-28.25,-0.25,49.));
#388 = DIRECTION('',(0.707106781187,-0.707106781187,0.));
#389 = DIRECTION('',(-1.1E-16,-1.1E-16,-1.));
#390 = ADVANCED_FACE('',(#391),#409,.T.);
#391 = FACE_BOUND('',#392,.T.);
#392 = EDGE_LOOP('',(#393,#401,#402,#403));
#393 = ORIENTED_EDGE('',*,*,#394,.F.);
#394 = EDGE_CURVE('',#106,#395,#397,.T.);
#395 = VERTEX_POINT('',#396);
#396 = CARTESIAN_POINT('',(27.5,0.5,49.));
#397 = LINE('',#398,#399);
#398 = CARTESIAN_POINT('',(12.166666666667,15.833333333333,
    33.666666666667));
#399 = VECTOR('',#400,1.);
#400 = DIRECTION('',(-0.57735026919,0.57735026919,-0.57735026919));
#401 = ORIENTED_EDGE('',*,*,#113,.T.);
#402 = ORIENTED_EDGE('',*,*,#363,.T.);
#403 = ORIENTED_EDGE('',*,*,#404,.F.);
#404 = EDGE_CURVE('',#395,#364,#405,.T.);
#405 = LINE('',#406,#407);
#406 = CARTESIAN_POINT('',(27.5,0.5,49.));
#407 = VECTOR('',#408,1.);
#408 = DIRECTION('',(-1.,0.,0.));
#409 = PLANE('',#410);
#410 = AXIS2_PLACEMENT_3D('',#411,#412,#413);
#411 = CARTESIAN_POINT('',(27.5,-0.25,49.75));
#412 = DIRECTION('',(0.,-0.707106781187,-0.707106781187));
#413 = DIRECTION('',(-1.,0.,0.));
#414 = ADVANCED_FACE('',(#415),#433,.T.);
#415 = FACE_BOUND('',#416,.T.);
#416 = EDGE_LOOP('',(#417,#418,#419,#427));
#417 = ORIENTED_EDGE('',*,*,#372,.F.);
#418 = ORIENTED_EDGE('',*,*,#97,.T.);
#419 = ORIENTED_EDGE('',*,*,#420,.T.);
#420 = EDGE_CURVE('',#98,#421,#423,.T.);
#421 = VERTEX_POINT('',#422);
#422 = CARTESIAN_POINT('',(27.5,0.5,-46.));
#423 = LINE('',#424,#425);
#424 = CARTESIAN_POINT('',(18.833333333333,9.166666666667,
    -37.33333333333));
#425 = VECTOR('',#426,1.);
#426 = DIRECTION('',(-0.57735026919,0.57735026919,0.57735026919));
#427 = ORIENTED_EDGE('',*,*,#428,.F.);
#428 = EDGE_CURVE('',#373,#421,#429,.T.);
#429 = LINE('',#430,#431);
#430 = CARTESIAN_POINT('',(-27.5,0.5,-46.));
#431 = VECTOR('',#432,1.);
#432 = DIRECTION('',(1.,0.,0.));
#433 = PLANE('',#434);
#434 = AXIS2_PLACEMENT_3D('',#435,#436,#437);
#435 = CARTESIAN_POINT('',(-27.5,-0.25,-46.75));
#436 = DIRECTION('',(0.,-0.707106781187,0.707106781187));
#437 = DIRECTION('',(1.,0.,0.));
#438 = ADVANCED_FACE('',(#439),#450,.T.);
#439 = FACE_BOUND('',#440,.T.);
#440 = EDGE_LOOP('',(#441,#442,#443,#444));
#441 = ORIENTED_EDGE('',*,*,#420,.F.);
#442 = ORIENTED_EDGE('',*,*,#105,.T.);
#443 = ORIENTED_EDGE('',*,*,#394,.T.);
#444 = ORIENTED_EDGE('',*,*,#445,.F.);
#445 = EDGE_CURVE('',#421,#395,#446,.T.);
#446 = LINE('',#447,#448);
#447 = CARTESIAN_POINT('',(27.5,0.5,-46.));
#448 = VECTOR('',#449,1.);
#449 = DIRECTION('',(0.,2.2E-16,1.));
#450 = PLANE('',#451);
#451 = AXIS2_PLACEMENT_3D('',#452,#453,#454);
#452 = CARTESIAN_POINT('',(28.25,-0.25,-46.));
#453 = DIRECTION('',(-0.707106781187,-0.707106781187,0.));
#454 = DIRECTION('',(-1.1E-16,1.1E-16,1.));
#455 = ADVANCED_FACE('',(#456),#475,.F.);
#456 = FACE_BOUND('',#457,.F.);
#457 = EDGE_LOOP('',(#458,#466,#467,#468));
#458 = ORIENTED_EDGE('',*,*,#459,.F.);
#459 = EDGE_CURVE('',#122,#460,#462,.T.);
#460 = VERTEX_POINT('',#461);
#461 = CARTESIAN_POINT('',(-28.5,0.8,54.));
#462 = LINE('',#463,#464);
#463 = CARTESIAN_POINT('',(-28.5,0.8,54.));
#464 = VECTOR('',#465,1.);
#465 = DIRECTION('',(0.627329537873,0.778753909083,0.));
#466 = ORIENTED_EDGE('',*,*,#121,.T.);
#467 = ORIENTED_EDGE('',*,*,#459,.T.);
#468 = ORIENTED_EDGE('',*,*,#469,.F.);
#469 = EDGE_CURVE('',#460,#460,#470,.T.);
#470 = CIRCLE('',#471,1.5);
#471 = AXIS2_PLACEMENT_3D('',#472,#473,#474);
#472 = CARTESIAN_POINT('',(-27.,0.8,54.));
#473 = DIRECTION('',(0.,1.,-0.));
#474 = DIRECTION('',(-1.,0.,0.));
#475 = CONICAL_SURFACE('',#476,1.5,0.678119307749);
#476 = AXIS2_PLACEMENT_3D('',#477,#478,#479);
#477 = CARTESIAN_POINT('',(-27.,0.8,54.));
#478 = DIRECTION('',(-0.,-1.,-0.));
#479 = DIRECTION('',(-1.,0.,0.));
#480 = ADVANCED_FACE('',(#481),#500,.F.);
#481 = FACE_BOUND('',#482,.F.);
#482 = EDGE_LOOP('',(#483,#491,#492,#493));
#483 = ORIENTED_EDGE('',*,*,#484,.F.);
#484 = EDGE_CURVE('',#133,#485,#487,.T.);
#485 = VERTEX_POINT('',#486);
#486 = CARTESIAN_POINT('',(25.5,0.8,54.));
#487 = LINE('',#488,#489);
#488 = CARTESIAN_POINT('',(25.5,0.8,54.));
#489 = VECTOR('',#490,1.);
#490 = DIRECTION('',(0.627329537873,0.778753909083,0.));
#491 = ORIENTED_EDGE('',*,*,#132,.T.);
#492 = ORIENTED_EDGE('',*,*,#484,.T.);
#493 = ORIENTED_EDGE('',*,*,#494,.F.);
#494 = EDGE_CURVE('',#485,#485,#495,.T.);
#495 = CIRCLE('',#496,1.5);
#496 = AXIS2_PLACEMENT_3D('',#497,#498,#499);
#497 = CARTESIAN_POINT('',(27.,0.8,54.));
#498 = DIRECTION('',(0.,1.,-0.));
#499 = DIRECTION('',(-1.,0.,0.));
#500 = CONICAL_SURFACE('',#501,1.5,0.678119307749);
#501 = AXIS2_PLACEMENT_3D('',#502,#503,#504);
#502 = CARTESIAN_POINT('',(27.,0.8,54.));
#503 = DIRECTION('',(-0.,-1.,-0.));
#504 = DIRECTION('',(-1.,0.,0.));
#505 = ADVANCED_FACE('',(#506),#525,.F.);
#506 = FACE_BOUND('',#507,.F.);
#507 = EDGE_LOOP('',(#508,#516,#517,#518));
#508 = ORIENTED_EDGE('',*,*,#509,.F.);
#509 = EDGE_CURVE('',#144,#510,#512,.T.);
#510 = VERTEX_POINT('',#511);
#511 = CARTESIAN_POINT('',(-28.5,0.8,-52.));
#512 = LINE('',#513,#514);
#513 = CARTESIAN_POINT('',(-28.5,0.8,-52.));
#514 = VECTOR('',#515,1.);
#515 = DIRECTION('',(0.627329537873,0.778753909083,0.));
#516 = ORIENTED_EDGE('',*,*,#143,.T.);
#517 = ORIENTED_EDGE('',*,*,#509,.T.);
#518 = ORIENTED_EDGE('',*,*,#519,.F.);
#519 = EDGE_CURVE('',#510,#510,#520,.T.);
#520 = CIRCLE('',#521,1.5);
#521 = AXIS2_PLACEMENT_3D('',#522,#523,#524);
#522 = CARTESIAN_POINT('',(-27.,0.8,-52.));
#523 = DIRECTION('',(0.,1.,-0.));
#524 = DIRECTION('',(-1.,0.,0.));
#525 = CONICAL_SURFACE('',#526,1.5,0.678119307749);
#526 = AXIS2_PLACEMENT_3D('',#527,#528,#529);
#527 = CARTESIAN_POINT('',(-27.,0.8,-52.));
#528 = DIRECTION('',(-0.,-1.,-0.));
#529 = DIRECTION('',(-1.,0.,0.));
#530 = ADVANCED_FACE('',(#531),#550,.F.);
#531 = FACE_BOUND('',#532,.F.);
#532 = EDGE_LOOP('',(#533,#541,#542,#543));
#533 = ORIENTED_EDGE('',*,*,#534,.F.);
#534 = EDGE_CURVE('',#155,#535,#537,.T.);
#535 = VERTEX_POINT('',#536);
#536 = CARTESIAN_POINT('',(25.5,0.8,-52.));
#537 = LINE('',#538,#539);
#538 = CARTESIAN_POINT('',(25.5,0.8,-52.));
#539 = VECTOR('',#540,1.);
#540 = DIRECTION('',(0.627329537873,0.778753909083,0.));
#541 = ORIENTED_EDGE('',*,*,#154,.T.);
#542 = ORIENTED_EDGE('',*,*,#534,.T.);
#543 = ORIENTED_EDGE('',*,*,#544,.F.);
#544 = EDGE_CURVE('',#535,#535,#545,.T.);
#545 = CIRCLE('',#546,1.5);
#546 = AXIS2_PLACEMENT_3D('',#547,#548,#549);
#547 = CARTESIAN_POINT('',(27.,0.8,-52.));
#548 = DIRECTION('',(0.,1.,-0.));
#549 = DIRECTION('',(-1.,0.,0.));
#550 = CONICAL_SURFACE('',#551,1.5,0.678119307749);
#551 = AXIS2_PLACEMENT_3D('',#552,#553,#554);
#552 = CARTESIAN_POINT('',(27.,0.8,-52.));
#553 = DIRECTION('',(-0.,-1.,-0.));
#554 = DIRECTION('',(-1.,0.,0.));
#555 = ADVANCED_FACE('',(#556),#613,.T.);
#556 = FACE_BOUND('',#557,.T.);
#557 = EDGE_LOOP('',(#558,#566,#574,#582,#590,#598,#606,#612));
#558 = ORIENTED_EDGE('',*,*,#559,.T.);
#559 = EDGE_CURVE('',#172,#560,#562,.T.);
#560 = VERTEX_POINT('',#561);
#561 = CARTESIAN_POINT('',(-34.5,8.5,58.));
#562 = LINE('',#563,#564);
#563 = CARTESIAN_POINT('',(-34.5,-1.,58.));
#564 = VECTOR('',#565,1.);
#565 = DIRECTION('',(0.,1.,-2.2E-16));
#566 = ORIENTED_EDGE('',*,*,#567,.T.);
#567 = EDGE_CURVE('',#560,#568,#570,.T.);
#568 = VERTEX_POINT('',#569);
#569 = CARTESIAN_POINT('',(-34.5,8.5,35.9));
#570 = LINE('',#571,#572);
#571 = CARTESIAN_POINT('',(-34.5,8.5,63.));
#572 = VECTOR('',#573,1.);
#573 = DIRECTION('',(0.,0.,-1.));
#574 = ORIENTED_EDGE('',*,*,#575,.T.);
#575 = EDGE_CURVE('',#568,#576,#578,.T.);
#576 = VERTEX_POINT('',#577);
#577 = CARTESIAN_POINT('',(-34.5,17.5,35.9));
#578 = LINE('',#579,#580);
#579 = CARTESIAN_POINT('',(-34.5,8.5,35.9));
#580 = VECTOR('',#581,1.);
#581 = DIRECTION('',(0.,1.,-2.2E-16));
#582 = ORIENTED_EDGE('',*,*,#583,.T.);
#583 = EDGE_CURVE('',#576,#584,#586,.T.);
#584 = VERTEX_POINT('',#585);
#585 = CARTESIAN_POINT('',(-34.5,17.5,21.1));
#586 = LINE('',#587,#588);
#587 = CARTESIAN_POINT('',(-34.5,17.5,35.9));
#588 = VECTOR('',#589,1.);
#589 = DIRECTION('',(0.,-2.2E-16,-1.));
#590 = ORIENTED_EDGE('',*,*,#591,.F.);
#591 = EDGE_CURVE('',#592,#584,#594,.T.);
#592 = VERTEX_POINT('',#593);
#593 = CARTESIAN_POINT('',(-34.5,8.5,21.1));
#594 = LINE('',#595,#596);
#595 = CARTESIAN_POINT('',(-34.5,8.5,21.1));
#596 = VECTOR('',#597,1.);
#597 = DIRECTION('',(0.,1.,-2.2E-16));
#598 = ORIENTED_EDGE('',*,*,#599,.T.);
#599 = EDGE_CURVE('',#592,#600,#602,.T.);
#600 = VERTEX_POINT('',#601);
#601 = CARTESIAN_POINT('',(-34.5,8.5,-58.));
#602 = LINE('',#603,#604);
#603 = CARTESIAN_POINT('',(-34.5,8.5,63.));
#604 = VECTOR('',#605,1.);
#605 = DIRECTION('',(0.,0.,-1.));
#606 = ORIENTED_EDGE('',*,*,#607,.T.);
#607 = EDGE_CURVE('',#600,#181,#608,.T.);
#608 = LINE('',#609,#610);
#609 = CARTESIAN_POINT('',(-34.5,8.5,-58.));
#610 = VECTOR('',#611,1.);
#611 = DIRECTION('',(0.,-1.,2.2E-16));
#612 = ORIENTED_EDGE('',*,*,#188,.F.);
#613 = PLANE('',#614);
#614 = AXIS2_PLACEMENT_3D('',#615,#616,#617);
#615 = CARTESIAN_POINT('',(-34.5,4.928694158076,1.958762886598));
#616 = DIRECTION('',(-1.,-0.,-0.));
#617 = DIRECTION('',(0.,0.,-1.));
#618 = ADVANCED_FACE('',(#619),#637,.T.);
#619 = FACE_BOUND('',#620,.T.);
#620 = EDGE_LOOP('',(#621,#629,#635,#636));
#621 = ORIENTED_EDGE('',*,*,#622,.T.);
#622 = EDGE_CURVE('',#203,#623,#625,.T.);
#623 = VERTEX_POINT('',#624);
#624 = CARTESIAN_POINT('',(-29.5,8.5,63.));
#625 = LINE('',#626,#627);
#626 = CARTESIAN_POINT('',(-29.5,-1.,63.));
#627 = VECTOR('',#628,1.);
#628 = DIRECTION('',(0.,1.,-2.2E-16));
#629 = ORIENTED_EDGE('',*,*,#630,.T.);
#630 = EDGE_CURVE('',#623,#560,#631,.T.);
#631 = LINE('',#632,#633);
#632 = CARTESIAN_POINT('',(-39.125,8.5,53.375));
#633 = VECTOR('',#634,1.);
#634 = DIRECTION('',(-0.707106781187,-1.6E-16,-0.707106781187));
#635 = ORIENTED_EDGE('',*,*,#559,.F.);
#636 = ORIENTED_EDGE('',*,*,#212,.F.);
#637 = PLANE('',#638);
#638 = AXIS2_PLACEMENT_3D('',#639,#640,#641);
#639 = CARTESIAN_POINT('',(-32.,-1.,60.5));
#640 = DIRECTION('',(-0.707106781187,0.,0.707106781187));
#641 = DIRECTION('',(-1.1E-16,1.,-1.1E-16));
#642 = ADVANCED_FACE('',(#643),#661,.T.);
#643 = FACE_BOUND('',#644,.T.);
#644 = EDGE_LOOP('',(#645,#653,#654,#655));
#645 = ORIENTED_EDGE('',*,*,#646,.T.);
#646 = EDGE_CURVE('',#647,#227,#649,.T.);
#647 = VERTEX_POINT('',#648);
#648 = CARTESIAN_POINT('',(-29.5,8.5,-63.));
#649 = LINE('',#650,#651);
#650 = CARTESIAN_POINT('',(-29.5,8.5,-63.));
#651 = VECTOR('',#652,1.);
#652 = DIRECTION('',(0.,-1.,2.2E-16));
#653 = ORIENTED_EDGE('',*,*,#236,.T.);
#654 = ORIENTED_EDGE('',*,*,#607,.F.);
#655 = ORIENTED_EDGE('',*,*,#656,.F.);
#656 = EDGE_CURVE('',#647,#600,#657,.T.);
#657 = LINE('',#658,#659);
#658 = CARTESIAN_POINT('',(-39.125,8.5,-53.375));
#659 = VECTOR('',#660,1.);
#660 = DIRECTION('',(-0.707106781187,1.6E-16,0.707106781187));
#661 = PLANE('',#662);
#662 = AXIS2_PLACEMENT_3D('',#663,#664,#665);
#663 = CARTESIAN_POINT('',(-32.,8.5,-60.5));
#664 = DIRECTION('',(-0.707106781187,0.,-0.707106781187));
#665 = DIRECTION('',(-1.1E-16,-1.,1.1E-16));
#666 = ADVANCED_FACE('',(#667),#717,.T.);
#667 = FACE_BOUND('',#668,.T.);
#668 = EDGE_LOOP('',(#669,#677,#685,#693,#701,#709,#715,#716));
#669 = ORIENTED_EDGE('',*,*,#670,.T.);
#670 = EDGE_CURVE('',#251,#671,#673,.T.);
#671 = VERTEX_POINT('',#672);
#672 = CARTESIAN_POINT('',(29.5,8.5,63.));
#673 = LINE('',#674,#675);
#674 = CARTESIAN_POINT('',(29.5,-1.,63.));
#675 = VECTOR('',#676,1.);
#676 = DIRECTION('',(0.,1.,-2.2E-16));
#677 = ORIENTED_EDGE('',*,*,#678,.T.);
#678 = EDGE_CURVE('',#671,#679,#681,.T.);
#679 = VERTEX_POINT('',#680);
#680 = CARTESIAN_POINT('',(7.400000000432,8.5,63.));
#681 = LINE('',#682,#683);
#682 = CARTESIAN_POINT('',(34.5,8.5,63.));
#683 = VECTOR('',#684,1.);
#684 = DIRECTION('',(-1.,0.,0.));
#685 = ORIENTED_EDGE('',*,*,#686,.T.);
#686 = EDGE_CURVE('',#679,#687,#689,.T.);
#687 = VERTEX_POINT('',#688);
#688 = CARTESIAN_POINT('',(7.400000000432,17.5,63.));
#689 = LINE('',#690,#691);
#690 = CARTESIAN_POINT('',(7.400000000432,8.5,63.));
#691 = VECTOR('',#692,1.);
#692 = DIRECTION('',(0.,1.,-2.2E-16));
#693 = ORIENTED_EDGE('',*,*,#694,.T.);
#694 = EDGE_CURVE('',#687,#695,#697,.T.);
#695 = VERTEX_POINT('',#696);
#696 = CARTESIAN_POINT('',(-7.400000000432,17.5,63.));
#697 = LINE('',#698,#699);
#698 = CARTESIAN_POINT('',(7.400000000432,17.5,63.));
#699 = VECTOR('',#700,1.);
#700 = DIRECTION('',(-1.,0.,0.));
#701 = ORIENTED_EDGE('',*,*,#702,.F.);
#702 = EDGE_CURVE('',#703,#695,#705,.T.);
#703 = VERTEX_POINT('',#704);
#704 = CARTESIAN_POINT('',(-7.400000000432,8.5,63.));
#705 = LINE('',#706,#707);
#706 = CARTESIAN_POINT('',(-7.400000000432,8.5,63.));
#707 = VECTOR('',#708,1.);
#708 = DIRECTION('',(0.,1.,-2.2E-16));
#709 = ORIENTED_EDGE('',*,*,#710,.T.);
#710 = EDGE_CURVE('',#703,#623,#711,.T.);
#711 = LINE('',#712,#713);
#712 = CARTESIAN_POINT('',(34.5,8.5,63.));
#713 = VECTOR('',#714,1.);
#714 = DIRECTION('',(-1.,0.,0.));
#715 = ORIENTED_EDGE('',*,*,#622,.F.);
#716 = ORIENTED_EDGE('',*,*,#260,.F.);
#717 = PLANE('',#718);
#718 = AXIS2_PLACEMENT_3D('',#719,#720,#721);
#719 = CARTESIAN_POINT('',(2.57E-15,5.687853107393,63.));
#720 = DIRECTION('',(0.,0.,1.));
#721 = DIRECTION('',(1.,0.,0.));
#722 = ADVANCED_FACE('',(#723),#805,.T.);
#723 = FACE_BOUND('',#724,.T.);
#724 = EDGE_LOOP('',(#725,#726,#734,#742,#750,#758,#766,#774,#782,#790,
    #798,#804));
#725 = ORIENTED_EDGE('',*,*,#646,.F.);
#726 = ORIENTED_EDGE('',*,*,#727,.T.);
#727 = EDGE_CURVE('',#647,#728,#730,.T.);
#728 = VERTEX_POINT('',#729);
#729 = CARTESIAN_POINT('',(-24.4,8.5,-63.));
#730 = LINE('',#731,#732);
#731 = CARTESIAN_POINT('',(24.4,8.5,-63.));
#732 = VECTOR('',#733,1.);
#733 = DIRECTION('',(1.,0.,0.));
#734 = ORIENTED_EDGE('',*,*,#735,.T.);
#735 = EDGE_CURVE('',#728,#736,#738,.T.);
#736 = VERTEX_POINT('',#737);
#737 = CARTESIAN_POINT('',(-24.4,28.5,-63.));
#738 = LINE('',#739,#740);
#739 = CARTESIAN_POINT('',(-24.4,1.,-63.));
#740 = VECTOR('',#741,1.);
#741 = DIRECTION('',(0.,1.,-2.2E-16));
#742 = ORIENTED_EDGE('',*,*,#743,.F.);
#743 = EDGE_CURVE('',#744,#736,#746,.T.);
#744 = VERTEX_POINT('',#745);
#745 = CARTESIAN_POINT('',(-7.4,28.5,-63.));
#746 = LINE('',#747,#748);
#747 = CARTESIAN_POINT('',(24.4,28.5,-63.));
#748 = VECTOR('',#749,1.);
#749 = DIRECTION('',(-1.,0.,0.));
#750 = ORIENTED_EDGE('',*,*,#751,.T.);
#751 = EDGE_CURVE('',#744,#752,#754,.T.);
#752 = VERTEX_POINT('',#753);
#753 = CARTESIAN_POINT('',(-7.4,32.5,-63.));
#754 = LINE('',#755,#756);
#755 = CARTESIAN_POINT('',(-7.4,28.5,-63.));
#756 = VECTOR('',#757,1.);
#757 = DIRECTION('',(0.,1.,-2.2E-16));
#758 = ORIENTED_EDGE('',*,*,#759,.T.);
#759 = EDGE_CURVE('',#752,#760,#762,.T.);
#760 = VERTEX_POINT('',#761);
#761 = CARTESIAN_POINT('',(7.4,32.5,-63.));
#762 = LINE('',#763,#764);
#763 = CARTESIAN_POINT('',(-7.4,32.5,-63.));
#764 = VECTOR('',#765,1.);
#765 = DIRECTION('',(1.,0.,0.));
#766 = ORIENTED_EDGE('',*,*,#767,.F.);
#767 = EDGE_CURVE('',#768,#760,#770,.T.);
#768 = VERTEX_POINT('',#769);
#769 = CARTESIAN_POINT('',(7.4,28.5,-63.));
#770 = LINE('',#771,#772);
#771 = CARTESIAN_POINT('',(7.4,28.5,-63.));
#772 = VECTOR('',#773,1.);
#773 = DIRECTION('',(0.,1.,-2.2E-16));
#774 = ORIENTED_EDGE('',*,*,#775,.F.);
#775 = EDGE_CURVE('',#776,#768,#778,.T.);
#776 = VERTEX_POINT('',#777);
#777 = CARTESIAN_POINT('',(24.4,28.5,-63.));
#778 = LINE('',#779,#780);
#779 = CARTESIAN_POINT('',(24.4,28.5,-63.));
#780 = VECTOR('',#781,1.);
#781 = DIRECTION('',(-1.,0.,0.));
#782 = ORIENTED_EDGE('',*,*,#783,.F.);
#783 = EDGE_CURVE('',#784,#776,#786,.T.);
#784 = VERTEX_POINT('',#785);
#785 = CARTESIAN_POINT('',(24.4,8.5,-63.));
#786 = LINE('',#787,#788);
#787 = CARTESIAN_POINT('',(24.4,1.,-63.));
#788 = VECTOR('',#789,1.);
#789 = DIRECTION('',(0.,1.,-2.2E-16));
#790 = ORIENTED_EDGE('',*,*,#791,.T.);
#791 = EDGE_CURVE('',#784,#792,#794,.T.);
#792 = VERTEX_POINT('',#793);
#793 = CARTESIAN_POINT('',(29.5,8.5,-63.));
#794 = LINE('',#795,#796);
#795 = CARTESIAN_POINT('',(24.4,8.5,-63.));
#796 = VECTOR('',#797,1.);
#797 = DIRECTION('',(1.,0.,0.));
#798 = ORIENTED_EDGE('',*,*,#799,.F.);
#799 = EDGE_CURVE('',#277,#792,#800,.T.);
#800 = LINE('',#801,#802);
#801 = CARTESIAN_POINT('',(29.5,-1.,-63.));
#802 = VECTOR('',#803,1.);
#803 = DIRECTION('',(0.,1.,-2.2E-16));
#804 = ORIENTED_EDGE('',*,*,#284,.F.);
#805 = PLANE('',#806);
#806 = AXIS2_PLACEMENT_3D('',#807,#808,#809);
#807 = CARTESIAN_POINT('',(-2.2E-15,12.989130434783,-63.));
#808 = DIRECTION('',(-0.,-3.7E-16,-1.));
#809 = DIRECTION('',(0.,-1.,3.7E-16));
#810 = ADVANCED_FACE('',(#811),#829,.T.);
#811 = FACE_BOUND('',#812,.T.);
#812 = EDGE_LOOP('',(#813,#821,#827,#828));
#813 = ORIENTED_EDGE('',*,*,#814,.T.);
#814 = EDGE_CURVE('',#299,#815,#817,.T.);
#815 = VERTEX_POINT('',#816);
#816 = CARTESIAN_POINT('',(34.5,8.5,58.));
#817 = LINE('',#818,#819);
#818 = CARTESIAN_POINT('',(34.5,-1.,58.));
#819 = VECTOR('',#820,1.);
#820 = DIRECTION('',(0.,1.,-2.2E-16));
#821 = ORIENTED_EDGE('',*,*,#822,.T.);
#822 = EDGE_CURVE('',#815,#671,#823,.T.);
#823 = LINE('',#824,#825);
#824 = CARTESIAN_POINT('',(39.125,8.5,53.375));
#825 = VECTOR('',#826,1.);
#826 = DIRECTION('',(-0.707106781187,1.6E-16,0.707106781187));
#827 = ORIENTED_EDGE('',*,*,#670,.F.);
#828 = ORIENTED_EDGE('',*,*,#308,.F.);
#829 = PLANE('',#830);
#830 = AXIS2_PLACEMENT_3D('',#831,#832,#833);
#831 = CARTESIAN_POINT('',(32.,-1.,60.5));
#832 = DIRECTION('',(0.707106781187,-5.4E-16,0.707106781187));
#833 = DIRECTION('',(4.968376618407E-16,1.,2.668376618407E-16));
#834 = ADVANCED_FACE('',(#835),#853,.T.);
#835 = FACE_BOUND('',#836,.F.);
#836 = EDGE_LOOP('',(#837,#845,#851,#852));
#837 = ORIENTED_EDGE('',*,*,#838,.T.);
#838 = EDGE_CURVE('',#323,#839,#841,.T.);
#839 = VERTEX_POINT('',#840);
#840 = CARTESIAN_POINT('',(34.5,8.5,-58.));
#841 = LINE('',#842,#843);
#842 = CARTESIAN_POINT('',(34.5,-1.,-58.));
#843 = VECTOR('',#844,1.);
#844 = DIRECTION('',(0.,1.,-2.2E-16));
#845 = ORIENTED_EDGE('',*,*,#846,.T.);
#846 = EDGE_CURVE('',#839,#792,#847,.T.);
#847 = LINE('',#848,#849);
#848 = CARTESIAN_POINT('',(39.125,8.5,-53.375));
#849 = VECTOR('',#850,1.);
#850 = DIRECTION('',(-0.707106781187,-1.6E-16,-0.707106781187));
#851 = ORIENTED_EDGE('',*,*,#799,.F.);
#852 = ORIENTED_EDGE('',*,*,#332,.F.);
#853 = PLANE('',#854);
#854 = AXIS2_PLACEMENT_3D('',#855,#856,#857);
#855 = CARTESIAN_POINT('',(32.,-1.,-60.5));
#856 = DIRECTION('',(0.707106781187,-1.02E-15,-0.707106781187));
#857 = DIRECTION('',(-6.112489168103E-16,-1.,8.312489168103E-16));
#858 = ADVANCED_FACE('',(#859),#902,.T.);
#859 = FACE_BOUND('',#860,.T.);
#860 = EDGE_LOOP('',(#861,#862,#870,#878,#886,#894,#900,#901));
#861 = ORIENTED_EDGE('',*,*,#838,.T.);
#862 = ORIENTED_EDGE('',*,*,#863,.T.);
#863 = EDGE_CURVE('',#839,#864,#866,.T.);
#864 = VERTEX_POINT('',#865);
#865 = CARTESIAN_POINT('',(34.5,8.5,21.1));
#866 = LINE('',#867,#868);
#867 = CARTESIAN_POINT('',(34.5,8.5,-63.));
#868 = VECTOR('',#869,1.);
#869 = DIRECTION('',(0.,0.,1.));
#870 = ORIENTED_EDGE('',*,*,#871,.T.);
#871 = EDGE_CURVE('',#864,#872,#874,.T.);
#872 = VERTEX_POINT('',#873);
#873 = CARTESIAN_POINT('',(34.5,17.5,21.1));
#874 = LINE('',#875,#876);
#875 = CARTESIAN_POINT('',(34.5,8.5,21.1));
#876 = VECTOR('',#877,1.);
#877 = DIRECTION('',(0.,1.,-2.2E-16));
#878 = ORIENTED_EDGE('',*,*,#879,.F.);
#879 = EDGE_CURVE('',#880,#872,#882,.T.);
#880 = VERTEX_POINT('',#881);
#881 = CARTESIAN_POINT('',(34.5,17.5,35.9));
#882 = LINE('',#883,#884);
#883 = CARTESIAN_POINT('',(34.5,17.5,35.9));
#884 = VECTOR('',#885,1.);
#885 = DIRECTION('',(0.,-2.2E-16,-1.));
#886 = ORIENTED_EDGE('',*,*,#887,.F.);
#887 = EDGE_CURVE('',#888,#880,#890,.T.);
#888 = VERTEX_POINT('',#889);
#889 = CARTESIAN_POINT('',(34.5,8.5,35.9));
#890 = LINE('',#891,#892);
#891 = CARTESIAN_POINT('',(34.5,8.5,35.9));
#892 = VECTOR('',#893,1.);
#893 = DIRECTION('',(0.,1.,-2.2E-16));
#894 = ORIENTED_EDGE('',*,*,#895,.T.);
#895 = EDGE_CURVE('',#888,#815,#896,.T.);
#896 = LINE('',#897,#898);
#897 = CARTESIAN_POINT('',(34.5,8.5,-63.));
#898 = VECTOR('',#899,1.);
#899 = DIRECTION('',(0.,0.,1.));
#900 = ORIENTED_EDGE('',*,*,#814,.F.);
#901 = ORIENTED_EDGE('',*,*,#349,.F.);
#902 = PLANE('',#903);
#903 = AXIS2_PLACEMENT_3D('',#904,#905,#906);
#904 = CARTESIAN_POINT('',(34.5,4.928694158076,1.958762886598));
#905 = DIRECTION('',(1.,-5.E-16,0.));
#906 = DIRECTION('',(5.E-16,1.,0.));
#907 = ADVANCED_FACE('',(#908),#933,.F.);
#908 = FACE_BOUND('',#909,.F.);
#909 = EDGE_LOOP('',(#910,#918,#919,#927));
#910 = ORIENTED_EDGE('',*,*,#911,.F.);
#911 = EDGE_CURVE('',#373,#912,#914,.T.);
#912 = VERTEX_POINT('',#913);
#913 = CARTESIAN_POINT('',(-27.5,1.,-46.));
#914 = LINE('',#915,#916);
#915 = CARTESIAN_POINT('',(-27.5,-1.,-46.));
#916 = VECTOR('',#917,1.);
#917 = DIRECTION('',(0.,1.,-2.2E-16));
#918 = ORIENTED_EDGE('',*,*,#380,.F.);
#919 = ORIENTED_EDGE('',*,*,#920,.T.);
#920 = EDGE_CURVE('',#364,#921,#923,.T.);
#921 = VERTEX_POINT('',#922);
#922 = CARTESIAN_POINT('',(-27.5,1.,49.));
#923 = LINE('',#924,#925);
#924 = CARTESIAN_POINT('',(-27.5,-1.,49.));
#925 = VECTOR('',#926,1.);
#926 = DIRECTION('',(0.,1.,-2.2E-16));
#927 = ORIENTED_EDGE('',*,*,#928,.F.);
#928 = EDGE_CURVE('',#912,#921,#929,.T.);
#929 = LINE('',#930,#931);
#930 = CARTESIAN_POINT('',(-27.5,1.,24.5));
#931 = VECTOR('',#932,1.);
#932 = DIRECTION('',(0.,0.,1.));
#933 = PLANE('',#934);
#934 = AXIS2_PLACEMENT_3D('',#935,#936,#937);
#935 = CARTESIAN_POINT('',(-27.5,-1.,49.));
#936 = DIRECTION('',(-1.,0.,0.));
#937 = DIRECTION('',(-0.,-2.2E-16,-1.));
#938 = ADVANCED_FACE('',(#939),#957,.F.);
#939 = FACE_BOUND('',#940,.F.);
#940 = EDGE_LOOP('',(#941,#942,#943,#951));
#941 = ORIENTED_EDGE('',*,*,#920,.F.);
#942 = ORIENTED_EDGE('',*,*,#404,.F.);
#943 = ORIENTED_EDGE('',*,*,#944,.T.);
#944 = EDGE_CURVE('',#395,#945,#947,.T.);
#945 = VERTEX_POINT('',#946);
#946 = CARTESIAN_POINT('',(27.5,1.,49.));
#947 = LINE('',#948,#949);
#948 = CARTESIAN_POINT('',(27.5,-1.,49.));
#949 = VECTOR('',#950,1.);
#950 = DIRECTION('',(0.,1.,-2.2E-16));
#951 = ORIENTED_EDGE('',*,*,#952,.F.);
#952 = EDGE_CURVE('',#921,#945,#953,.T.);
#953 = LINE('',#954,#955);
#954 = CARTESIAN_POINT('',(13.75,1.,49.));
#955 = VECTOR('',#956,1.);
#956 = DIRECTION('',(1.,0.,0.));
#957 = PLANE('',#958);
#958 = AXIS2_PLACEMENT_3D('',#959,#960,#961);
#959 = CARTESIAN_POINT('',(27.5,-1.,49.));
#960 = DIRECTION('',(0.,2.2E-16,1.));
#961 = DIRECTION('',(-1.,0.,0.));
#962 = ADVANCED_FACE('',(#963),#981,.F.);
#963 = FACE_BOUND('',#964,.F.);
#964 = EDGE_LOOP('',(#965,#973,#974,#975));
#965 = ORIENTED_EDGE('',*,*,#966,.F.);
#966 = EDGE_CURVE('',#421,#967,#969,.T.);
#967 = VERTEX_POINT('',#968);
#968 = CARTESIAN_POINT('',(27.5,1.,-46.));
#969 = LINE('',#970,#971);
#970 = CARTESIAN_POINT('',(27.5,-1.,-46.));
#971 = VECTOR('',#972,1.);
#972 = DIRECTION('',(0.,1.,-2.2E-16));
#973 = ORIENTED_EDGE('',*,*,#428,.F.);
#974 = ORIENTED_EDGE('',*,*,#911,.T.);
#975 = ORIENTED_EDGE('',*,*,#976,.F.);
#976 = EDGE_CURVE('',#967,#912,#977,.T.);
#977 = LINE('',#978,#979);
#978 = CARTESIAN_POINT('',(-13.75,1.,-46.));
#979 = VECTOR('',#980,1.);
#980 = DIRECTION('',(-1.,0.,0.));
#981 = PLANE('',#982);
#982 = AXIS2_PLACEMENT_3D('',#983,#984,#985);
#983 = CARTESIAN_POINT('',(-27.5,-1.,-46.));
#984 = DIRECTION('',(0.,-2.2E-16,-1.));
#985 = DIRECTION('',(1.,0.,0.));
#986 = ADVANCED_FACE('',(#987),#998,.F.);
#987 = FACE_BOUND('',#988,.F.);
#988 = EDGE_LOOP('',(#989,#990,#991,#992));
#989 = ORIENTED_EDGE('',*,*,#944,.F.);
#990 = ORIENTED_EDGE('',*,*,#445,.F.);
#991 = ORIENTED_EDGE('',*,*,#966,.T.);
#992 = ORIENTED_EDGE('',*,*,#993,.F.);
#993 = EDGE_CURVE('',#945,#967,#994,.T.);
#994 = LINE('',#995,#996);
#995 = CARTESIAN_POINT('',(27.5,1.,-23.));
#996 = VECTOR('',#997,1.);
#997 = DIRECTION('',(0.,0.,-1.));
#998 = PLANE('',#999);
#999 = AXIS2_PLACEMENT_3D('',#1000,#1001,#1002);
#1000 = CARTESIAN_POINT('',(27.5,-1.,-46.));
#1001 = DIRECTION('',(1.,0.,0.));
#1002 = DIRECTION('',(0.,2.2E-16,1.));
#1003 = ADVANCED_FACE('',(#1004),#1022,.F.);
#1004 = FACE_BOUND('',#1005,.F.);
#1005 = EDGE_LOOP('',(#1006,#1013,#1020,#1021));
#1006 = ORIENTED_EDGE('',*,*,#1007,.T.);
#1007 = EDGE_CURVE('',#460,#1008,#1010,.T.);
#1008 = VERTEX_POINT('',#1009);
#1009 = CARTESIAN_POINT('',(-28.5,6.5,54.));
#1010 = B_SPLINE_CURVE_WITH_KNOTS('',1,(#1011,#1012),.UNSPECIFIED.,.F.,
  .F.,(2,2),(-2.,5.5),.PIECEWISE_BEZIER_KNOTS.);
#1011 = CARTESIAN_POINT('',(-28.5,-1.,54.));
#1012 = CARTESIAN_POINT('',(-28.5,6.5,54.));
#1013 = ORIENTED_EDGE('',*,*,#1014,.F.);
#1014 = EDGE_CURVE('',#1008,#1008,#1015,.T.);
#1015 = CIRCLE('',#1016,1.5);
#1016 = AXIS2_PLACEMENT_3D('',#1017,#1018,#1019);
#1017 = CARTESIAN_POINT('',(-27.,6.5,54.));
#1018 = DIRECTION('',(0.,1.,-2.2E-16));
#1019 = DIRECTION('',(-1.,0.,0.));
#1020 = ORIENTED_EDGE('',*,*,#1007,.F.);
#1021 = ORIENTED_EDGE('',*,*,#469,.T.);
#1022 = CYLINDRICAL_SURFACE('',#1023,1.5);
#1023 = AXIS2_PLACEMENT_3D('',#1024,#1025,#1026);
#1024 = CARTESIAN_POINT('',(-27.,1.,54.));
#1025 = DIRECTION('',(0.,1.,-2.2E-16));
#1026 = DIRECTION('',(-1.,0.,0.));
#1027 = ADVANCED_FACE('',(#1028),#1046,.F.);
#1028 = FACE_BOUND('',#1029,.F.);
#1029 = EDGE_LOOP('',(#1030,#1037,#1044,#1045));
#1030 = ORIENTED_EDGE('',*,*,#1031,.T.);
#1031 = EDGE_CURVE('',#485,#1032,#1034,.T.);
#1032 = VERTEX_POINT('',#1033);
#1033 = CARTESIAN_POINT('',(25.5,6.5,54.));
#1034 = B_SPLINE_CURVE_WITH_KNOTS('',1,(#1035,#1036),.UNSPECIFIED.,.F.,
  .F.,(2,2),(-2.,5.5),.PIECEWISE_BEZIER_KNOTS.);
#1035 = CARTESIAN_POINT('',(25.5,-1.,54.));
#1036 = CARTESIAN_POINT('',(25.5,6.5,54.));
#1037 = ORIENTED_EDGE('',*,*,#1038,.F.);
#1038 = EDGE_CURVE('',#1032,#1032,#1039,.T.);
#1039 = CIRCLE('',#1040,1.5);
#1040 = AXIS2_PLACEMENT_3D('',#1041,#1042,#1043);
#1041 = CARTESIAN_POINT('',(27.,6.5,54.));
#1042 = DIRECTION('',(0.,1.,-2.2E-16));
#1043 = DIRECTION('',(-1.,0.,0.));
#1044 = ORIENTED_EDGE('',*,*,#1031,.F.);
#1045 = ORIENTED_EDGE('',*,*,#494,.T.);
#1046 = CYLINDRICAL_SURFACE('',#1047,1.5);
#1047 = AXIS2_PLACEMENT_3D('',#1048,#1049,#1050);
#1048 = CARTESIAN_POINT('',(27.,1.,54.));
#1049 = DIRECTION('',(0.,1.,-2.2E-16));
#1050 = DIRECTION('',(-1.,0.,0.));
#1051 = ADVANCED_FACE('',(#1052),#1070,.F.);
#1052 = FACE_BOUND('',#1053,.F.);
#1053 = EDGE_LOOP('',(#1054,#1061,#1068,#1069));
#1054 = ORIENTED_EDGE('',*,*,#1055,.T.);
#1055 = EDGE_CURVE('',#510,#1056,#1058,.T.);
#1056 = VERTEX_POINT('',#1057);
#1057 = CARTESIAN_POINT('',(-28.5,6.5,-52.));
#1058 = B_SPLINE_CURVE_WITH_KNOTS('',1,(#1059,#1060),.UNSPECIFIED.,.F.,
  .F.,(2,2),(-2.,5.5),.PIECEWISE_BEZIER_KNOTS.);
#1059 = CARTESIAN_POINT('',(-28.5,-1.,-52.));
#1060 = CARTESIAN_POINT('',(-28.5,6.5,-52.));
#1061 = ORIENTED_EDGE('',*,*,#1062,.F.);
#1062 = EDGE_CURVE('',#1056,#1056,#1063,.T.);
#1063 = CIRCLE('',#1064,1.5);
#1064 = AXIS2_PLACEMENT_3D('',#1065,#1066,#1067);
#1065 = CARTESIAN_POINT('',(-27.,6.5,-52.));
#1066 = DIRECTION('',(0.,1.,-2.2E-16));
#1067 = DIRECTION('',(-1.,0.,0.));
#1068 = ORIENTED_EDGE('',*,*,#1055,.F.);
#1069 = ORIENTED_EDGE('',*,*,#519,.T.);
#1070 = CYLINDRICAL_SURFACE('',#1071,1.5);
#1071 = AXIS2_PLACEMENT_3D('',#1072,#1073,#1074);
#1072 = CARTESIAN_POINT('',(-27.,1.,-52.));
#1073 = DIRECTION('',(0.,1.,-2.2E-16));
#1074 = DIRECTION('',(-1.,0.,0.));
#1075 = ADVANCED_FACE('',(#1076),#1094,.F.);
#1076 = FACE_BOUND('',#1077,.F.);
#1077 = EDGE_LOOP('',(#1078,#1085,#1092,#1093));
#1078 = ORIENTED_EDGE('',*,*,#1079,.T.);
#1079 = EDGE_CURVE('',#535,#1080,#1082,.T.);
#1080 = VERTEX_POINT('',#1081);
#1081 = CARTESIAN_POINT('',(25.5,6.5,-52.));
#1082 = B_SPLINE_CURVE_WITH_KNOTS('',1,(#1083,#1084),.UNSPECIFIED.,.F.,
  .F.,(2,2),(-2.,5.5),.PIECEWISE_BEZIER_KNOTS.);
#1083 = CARTESIAN_POINT('',(25.5,-1.,-52.));
#1084 = CARTESIAN_POINT('',(25.5,6.5,-52.));
#1085 = ORIENTED_EDGE('',*,*,#1086,.F.);
#1086 = EDGE_CURVE('',#1080,#1080,#1087,.T.);
#1087 = CIRCLE('',#1088,1.5);
#1088 = AXIS2_PLACEMENT_3D('',#1089,#1090,#1091);
#1089 = CARTESIAN_POINT('',(27.,6.5,-52.));
#1090 = DIRECTION('',(0.,1.,-2.2E-16));
#1091 = DIRECTION('',(-1.,0.,0.));
#1092 = ORIENTED_EDGE('',*,*,#1079,.F.);
#1093 = ORIENTED_EDGE('',*,*,#544,.T.);
#1094 = CYLINDRICAL_SURFACE('',#1095,1.5);
#1095 = AXIS2_PLACEMENT_3D('',#1096,#1097,#1098);
#1096 = CARTESIAN_POINT('',(27.,1.,-52.));
#1097 = DIRECTION('',(0.,1.,-2.2E-16));
#1098 = DIRECTION('',(-1.,0.,0.));
#1099 = ADVANCED_FACE('',(#1100),#1135,.T.);
#1100 = FACE_BOUND('',#1101,.T.);
#1101 = EDGE_LOOP('',(#1102,#1103,#1111,#1119,#1127,#1133,#1134));
#1102 = ORIENTED_EDGE('',*,*,#710,.F.);
#1103 = ORIENTED_EDGE('',*,*,#1104,.T.);
#1104 = EDGE_CURVE('',#703,#1105,#1107,.T.);
#1105 = VERTEX_POINT('',#1106);
#1106 = CARTESIAN_POINT('',(-12.4,8.5,58.));
#1107 = LINE('',#1108,#1109);
#1108 = CARTESIAN_POINT('',(-7.400000000432,8.5,63.));
#1109 = VECTOR('',#1110,1.);
#1110 = DIRECTION('',(-0.707106781156,0.,-0.707106781217));
#1111 = ORIENTED_EDGE('',*,*,#1112,.F.);
#1112 = EDGE_CURVE('',#1113,#1105,#1115,.T.);
#1113 = VERTEX_POINT('',#1114);
#1114 = CARTESIAN_POINT('',(-29.7,8.5,58.));
#1115 = LINE('',#1116,#1117);
#1116 = CARTESIAN_POINT('',(-29.7,8.5,58.));
#1117 = VECTOR('',#1118,1.);
#1118 = DIRECTION('',(1.,0.,0.));
#1119 = ORIENTED_EDGE('',*,*,#1120,.F.);
#1120 = EDGE_CURVE('',#1121,#1113,#1123,.T.);
#1121 = VERTEX_POINT('',#1122);
#1122 = CARTESIAN_POINT('',(-29.7,8.5,40.7));
#1123 = LINE('',#1124,#1125);
#1124 = CARTESIAN_POINT('',(-29.7,8.5,-58.));
#1125 = VECTOR('',#1126,1.);
#1126 = DIRECTION('',(0.,0.,1.));
#1127 = ORIENTED_EDGE('',*,*,#1128,.T.);
#1128 = EDGE_CURVE('',#1121,#568,#1129,.T.);
#1129 = LINE('',#1130,#1131);
#1130 = CARTESIAN_POINT('',(-29.5,8.5,40.9));
#1131 = VECTOR('',#1132,1.);
#1132 = DIRECTION('',(-0.707106781187,0.,-0.707106781187));
#1133 = ORIENTED_EDGE('',*,*,#567,.F.);
#1134 = ORIENTED_EDGE('',*,*,#630,.F.);
#1135 = PLANE('',#1136);
#1136 = AXIS2_PLACEMENT_3D('',#1137,#1138,#1139);
#1137 = CARTESIAN_POINT('',(6.14E-15,8.5,-2.46E-15));
#1138 = DIRECTION('',(0.,1.,-2.2E-16));
#1139 = DIRECTION('',(0.,2.2E-16,1.));
#1140 = ADVANCED_FACE('',(#1141),#1175,.T.);
#1141 = FACE_BOUND('',#1142,.T.);
#1142 = EDGE_LOOP('',(#1143,#1144,#1145,#1153,#1161,#1169));
#1143 = ORIENTED_EDGE('',*,*,#575,.F.);
#1144 = ORIENTED_EDGE('',*,*,#1128,.F.);
#1145 = ORIENTED_EDGE('',*,*,#1146,.F.);
#1146 = EDGE_CURVE('',#1147,#1121,#1149,.T.);
#1147 = VERTEX_POINT('',#1148);
#1148 = CARTESIAN_POINT('',(-29.5,8.5,40.9));
#1149 = LINE('',#1150,#1151);
#1150 = CARTESIAN_POINT('',(-29.5,8.5,40.9));
#1151 = VECTOR('',#1152,1.);
#1152 = DIRECTION('',(-0.707106781187,0.,-0.707106781187));
#1153 = ORIENTED_EDGE('',*,*,#1154,.T.);
#1154 = EDGE_CURVE('',#1147,#1155,#1157,.T.);
#1155 = VERTEX_POINT('',#1156);
#1156 = CARTESIAN_POINT('',(-29.5,18.5,40.9));
#1157 = LINE('',#1158,#1159);
#1158 = CARTESIAN_POINT('',(-29.5,8.5,40.9));
#1159 = VECTOR('',#1160,1.);
#1160 = DIRECTION('',(0.,1.,-2.2E-16));
#1161 = ORIENTED_EDGE('',*,*,#1162,.T.);
#1162 = EDGE_CURVE('',#1155,#1163,#1165,.T.);
#1163 = VERTEX_POINT('',#1164);
#1164 = CARTESIAN_POINT('',(-33.5,18.5,36.9));
#1165 = LINE('',#1166,#1167);
#1166 = CARTESIAN_POINT('',(-29.5,18.5,40.9));
#1167 = VECTOR('',#1168,1.);
#1168 = DIRECTION('',(-0.707106781187,0.,-0.707106781187));
#1169 = ORIENTED_EDGE('',*,*,#1170,.F.);
#1170 = EDGE_CURVE('',#576,#1163,#1171,.T.);
#1171 = LINE('',#1172,#1173);
#1172 = CARTESIAN_POINT('',(-34.16666666666,17.833333333333,
    36.233333333333));
#1173 = VECTOR('',#1174,1.);
#1174 = DIRECTION('',(0.57735026919,0.57735026919,0.57735026919));
#1175 = PLANE('',#1176);
#1176 = AXIS2_PLACEMENT_3D('',#1177,#1178,#1179);
#1177 = CARTESIAN_POINT('',(-29.5,8.5,40.9));
#1178 = DIRECTION('',(-0.707106781187,1.6E-16,0.707106781187));
#1179 = DIRECTION('',(-0.707106781187,-1.6E-16,-0.707106781187));
#1180 = ADVANCED_FACE('',(#1181),#1216,.T.);
#1181 = FACE_BOUND('',#1182,.T.);
#1182 = EDGE_LOOP('',(#1183,#1184,#1185,#1186,#1194,#1202,#1210));
#1183 = ORIENTED_EDGE('',*,*,#727,.F.);
#1184 = ORIENTED_EDGE('',*,*,#656,.T.);
#1185 = ORIENTED_EDGE('',*,*,#599,.F.);
#1186 = ORIENTED_EDGE('',*,*,#1187,.T.);
#1187 = EDGE_CURVE('',#592,#1188,#1190,.T.);
#1188 = VERTEX_POINT('',#1189);
#1189 = CARTESIAN_POINT('',(-29.7,8.5,16.3));
#1190 = LINE('',#1191,#1192);
#1191 = CARTESIAN_POINT('',(-34.5,8.5,21.1));
#1192 = VECTOR('',#1193,1.);
#1193 = DIRECTION('',(0.707106781187,0.,-0.707106781187));
#1194 = ORIENTED_EDGE('',*,*,#1195,.F.);
#1195 = EDGE_CURVE('',#1196,#1188,#1198,.T.);
#1196 = VERTEX_POINT('',#1197);
#1197 = CARTESIAN_POINT('',(-29.7,8.5,-58.));
#1198 = LINE('',#1199,#1200);
#1199 = CARTESIAN_POINT('',(-29.7,8.5,-58.));
#1200 = VECTOR('',#1201,1.);
#1201 = DIRECTION('',(0.,0.,1.));
#1202 = ORIENTED_EDGE('',*,*,#1203,.F.);
#1203 = EDGE_CURVE('',#1204,#1196,#1206,.T.);
#1204 = VERTEX_POINT('',#1205);
#1205 = CARTESIAN_POINT('',(-24.4,8.5,-58.));
#1206 = LINE('',#1207,#1208);
#1207 = CARTESIAN_POINT('',(29.7,8.5,-58.));
#1208 = VECTOR('',#1209,1.);
#1209 = DIRECTION('',(-1.,0.,0.));
#1210 = ORIENTED_EDGE('',*,*,#1211,.F.);
#1211 = EDGE_CURVE('',#728,#1204,#1212,.T.);
#1212 = LINE('',#1213,#1214);
#1213 = CARTESIAN_POINT('',(-24.4,8.5,-31.5));
#1214 = VECTOR('',#1215,1.);
#1215 = DIRECTION('',(0.,2.2E-16,1.));
#1216 = PLANE('',#1217);
#1217 = AXIS2_PLACEMENT_3D('',#1218,#1219,#1220);
#1218 = CARTESIAN_POINT('',(6.14E-15,8.5,-2.46E-15));
#1219 = DIRECTION('',(0.,1.,-2.2E-16));
#1220 = DIRECTION('',(0.,2.2E-16,1.));
#1221 = ADVANCED_FACE('',(#1222),#1240,.T.);
#1222 = FACE_BOUND('',#1223,.F.);
#1223 = EDGE_LOOP('',(#1224,#1225,#1226,#1234));
#1224 = ORIENTED_EDGE('',*,*,#1170,.F.);
#1225 = ORIENTED_EDGE('',*,*,#583,.T.);
#1226 = ORIENTED_EDGE('',*,*,#1227,.T.);
#1227 = EDGE_CURVE('',#584,#1228,#1230,.T.);
#1228 = VERTEX_POINT('',#1229);
#1229 = CARTESIAN_POINT('',(-33.5,18.5,20.1));
#1230 = LINE('',#1231,#1232);
#1231 = CARTESIAN_POINT('',(-38.3,13.7,24.9));
#1232 = VECTOR('',#1233,1.);
#1233 = DIRECTION('',(0.57735026919,0.57735026919,-0.57735026919));
#1234 = ORIENTED_EDGE('',*,*,#1235,.F.);
#1235 = EDGE_CURVE('',#1163,#1228,#1236,.T.);
#1236 = LINE('',#1237,#1238);
#1237 = CARTESIAN_POINT('',(-33.5,18.5,35.9));
#1238 = VECTOR('',#1239,1.);
#1239 = DIRECTION('',(0.,-2.2E-16,-1.));
#1240 = PLANE('',#1241);
#1241 = AXIS2_PLACEMENT_3D('',#1242,#1243,#1244);
#1242 = CARTESIAN_POINT('',(-34.,18.,35.9));
#1243 = DIRECTION('',(-0.707106781187,0.707106781187,0.));
#1244 = DIRECTION('',(1.1E-16,1.1E-16,1.));
#1245 = ADVANCED_FACE('',(#1246),#1273,.T.);
#1246 = FACE_BOUND('',#1247,.T.);
#1247 = EDGE_LOOP('',(#1248,#1249,#1250,#1258,#1266,#1272));
#1248 = ORIENTED_EDGE('',*,*,#591,.T.);
#1249 = ORIENTED_EDGE('',*,*,#1227,.T.);
#1250 = ORIENTED_EDGE('',*,*,#1251,.T.);
#1251 = EDGE_CURVE('',#1228,#1252,#1254,.T.);
#1252 = VERTEX_POINT('',#1253);
#1253 = CARTESIAN_POINT('',(-29.5,18.5,16.1));
#1254 = LINE('',#1255,#1256);
#1255 = CARTESIAN_POINT('',(-34.5,18.5,21.1));
#1256 = VECTOR('',#1257,1.);
#1257 = DIRECTION('',(0.707106781187,0.,-0.707106781187));
#1258 = ORIENTED_EDGE('',*,*,#1259,.F.);
#1259 = EDGE_CURVE('',#1260,#1252,#1262,.T.);
#1260 = VERTEX_POINT('',#1261);
#1261 = CARTESIAN_POINT('',(-29.5,8.5,16.1));
#1262 = LINE('',#1263,#1264);
#1263 = CARTESIAN_POINT('',(-29.5,8.5,16.1));
#1264 = VECTOR('',#1265,1.);
#1265 = DIRECTION('',(0.,1.,-2.2E-16));
#1266 = ORIENTED_EDGE('',*,*,#1267,.F.);
#1267 = EDGE_CURVE('',#1188,#1260,#1268,.T.);
#1268 = LINE('',#1269,#1270);
#1269 = CARTESIAN_POINT('',(-34.5,8.5,21.1));
#1270 = VECTOR('',#1271,1.);
#1271 = DIRECTION('',(0.707106781187,0.,-0.707106781187));
#1272 = ORIENTED_EDGE('',*,*,#1187,.F.);
#1273 = PLANE('',#1274);
#1274 = AXIS2_PLACEMENT_3D('',#1275,#1276,#1277);
#1275 = CARTESIAN_POINT('',(-34.5,8.5,21.1));
#1276 = DIRECTION('',(-0.707106781187,-1.6E-16,-0.707106781187));
#1277 = DIRECTION('',(0.707106781187,-1.6E-16,-0.707106781187));
#1278 = ADVANCED_FACE('',(#1279),#1314,.T.);
#1279 = FACE_BOUND('',#1280,.T.);
#1280 = EDGE_LOOP('',(#1281,#1282,#1290,#1298,#1306,#1312,#1313));
#1281 = ORIENTED_EDGE('',*,*,#895,.F.);
#1282 = ORIENTED_EDGE('',*,*,#1283,.F.);
#1283 = EDGE_CURVE('',#1284,#888,#1286,.T.);
#1284 = VERTEX_POINT('',#1285);
#1285 = CARTESIAN_POINT('',(29.7,8.5,40.7));
#1286 = LINE('',#1287,#1288);
#1287 = CARTESIAN_POINT('',(29.5,8.5,40.9));
#1288 = VECTOR('',#1289,1.);
#1289 = DIRECTION('',(0.707106781187,0.,-0.707106781187));
#1290 = ORIENTED_EDGE('',*,*,#1291,.F.);
#1291 = EDGE_CURVE('',#1292,#1284,#1294,.T.);
#1292 = VERTEX_POINT('',#1293);
#1293 = CARTESIAN_POINT('',(29.7,8.5,58.));
#1294 = LINE('',#1295,#1296);
#1295 = CARTESIAN_POINT('',(29.7,8.5,58.));
#1296 = VECTOR('',#1297,1.);
#1297 = DIRECTION('',(0.,0.,-1.));
#1298 = ORIENTED_EDGE('',*,*,#1299,.F.);
#1299 = EDGE_CURVE('',#1300,#1292,#1302,.T.);
#1300 = VERTEX_POINT('',#1301);
#1301 = CARTESIAN_POINT('',(12.4,8.5,58.));
#1302 = LINE('',#1303,#1304);
#1303 = CARTESIAN_POINT('',(-29.7,8.5,58.));
#1304 = VECTOR('',#1305,1.);
#1305 = DIRECTION('',(1.,0.,0.));
#1306 = ORIENTED_EDGE('',*,*,#1307,.T.);
#1307 = EDGE_CURVE('',#1300,#679,#1308,.T.);
#1308 = LINE('',#1309,#1310);
#1309 = CARTESIAN_POINT('',(12.4,8.5,58.));
#1310 = VECTOR('',#1311,1.);
#1311 = DIRECTION('',(-0.707106781156,0.,0.707106781217));
#1312 = ORIENTED_EDGE('',*,*,#678,.F.);
#1313 = ORIENTED_EDGE('',*,*,#822,.F.);
#1314 = PLANE('',#1315);
#1315 = AXIS2_PLACEMENT_3D('',#1316,#1317,#1318);
#1316 = CARTESIAN_POINT('',(6.14E-15,8.5,-2.46E-15));
#1317 = DIRECTION('',(0.,1.,-2.2E-16));
#1318 = DIRECTION('',(0.,2.2E-16,1.));
#1319 = ADVANCED_FACE('',(#1320),#1346,.T.);
#1320 = FACE_BOUND('',#1321,.T.);
#1321 = EDGE_LOOP('',(#1322,#1323,#1324,#1332,#1340));
#1322 = ORIENTED_EDGE('',*,*,#686,.F.);
#1323 = ORIENTED_EDGE('',*,*,#1307,.F.);
#1324 = ORIENTED_EDGE('',*,*,#1325,.T.);
#1325 = EDGE_CURVE('',#1300,#1326,#1328,.T.);
#1326 = VERTEX_POINT('',#1327);
#1327 = CARTESIAN_POINT('',(12.4,18.5,58.));
#1328 = LINE('',#1329,#1330);
#1329 = CARTESIAN_POINT('',(12.4,8.5,58.));
#1330 = VECTOR('',#1331,1.);
#1331 = DIRECTION('',(0.,1.,-2.2E-16));
#1332 = ORIENTED_EDGE('',*,*,#1333,.T.);
#1333 = EDGE_CURVE('',#1326,#1334,#1336,.T.);
#1334 = VERTEX_POINT('',#1335);
#1335 = CARTESIAN_POINT('',(8.400000000346,18.5,62.));
#1336 = LINE('',#1337,#1338);
#1337 = CARTESIAN_POINT('',(12.4,18.5,58.));
#1338 = VECTOR('',#1339,1.);
#1339 = DIRECTION('',(-0.707106781156,0.,0.707106781217));
#1340 = ORIENTED_EDGE('',*,*,#1341,.F.);
#1341 = EDGE_CURVE('',#687,#1334,#1342,.T.);
#1342 = LINE('',#1343,#1344);
#1343 = CARTESIAN_POINT('',(7.733333333612,17.833333333209,
    62.666666666791));
#1344 = VECTOR('',#1345,1.);
#1345 = DIRECTION('',(0.577350269156,0.577350269206,-0.577350269206));
#1346 = PLANE('',#1347);
#1347 = AXIS2_PLACEMENT_3D('',#1348,#1349,#1350);
#1348 = CARTESIAN_POINT('',(12.4,8.5,58.));
#1349 = DIRECTION('',(0.707106781217,1.6E-16,0.707106781156));
#1350 = DIRECTION('',(-0.707106781156,1.6E-16,0.707106781217));
#1351 = ADVANCED_FACE('',(#1352),#1370,.T.);
#1352 = FACE_BOUND('',#1353,.F.);
#1353 = EDGE_LOOP('',(#1354,#1355,#1356,#1364));
#1354 = ORIENTED_EDGE('',*,*,#1341,.F.);
#1355 = ORIENTED_EDGE('',*,*,#694,.T.);
#1356 = ORIENTED_EDGE('',*,*,#1357,.T.);
#1357 = EDGE_CURVE('',#695,#1358,#1360,.T.);
#1358 = VERTEX_POINT('',#1359);
#1359 = CARTESIAN_POINT('',(-8.400000000346,18.5,62.));
#1360 = LINE('',#1361,#1362);
#1361 = CARTESIAN_POINT('',(-3.60000000061,13.69999999985,66.80000000015
    ));
#1362 = VECTOR('',#1363,1.);
#1363 = DIRECTION('',(-0.577350269156,0.577350269206,-0.577350269206));
#1364 = ORIENTED_EDGE('',*,*,#1365,.F.);
#1365 = EDGE_CURVE('',#1334,#1358,#1366,.T.);
#1366 = LINE('',#1367,#1368);
#1367 = CARTESIAN_POINT('',(7.400000000432,18.5,62.));
#1368 = VECTOR('',#1369,1.);
#1369 = DIRECTION('',(-1.,0.,0.));
#1370 = PLANE('',#1371);
#1371 = AXIS2_PLACEMENT_3D('',#1372,#1373,#1374);
#1372 = CARTESIAN_POINT('',(7.400000000432,18.,62.5));
#1373 = DIRECTION('',(0.,0.707106781187,0.707106781187));
#1374 = DIRECTION('',(1.,-0.,-0.));
#1375 = ADVANCED_FACE('',(#1376),#1395,.T.);
#1376 = FACE_BOUND('',#1377,.T.);
#1377 = EDGE_LOOP('',(#1378,#1379,#1380,#1388,#1394));
#1378 = ORIENTED_EDGE('',*,*,#702,.T.);
#1379 = ORIENTED_EDGE('',*,*,#1357,.T.);
#1380 = ORIENTED_EDGE('',*,*,#1381,.T.);
#1381 = EDGE_CURVE('',#1358,#1382,#1384,.T.);
#1382 = VERTEX_POINT('',#1383);
#1383 = CARTESIAN_POINT('',(-12.4,18.5,58.));
#1384 = LINE('',#1385,#1386);
#1385 = CARTESIAN_POINT('',(-7.400000000432,18.5,63.));
#1386 = VECTOR('',#1387,1.);
#1387 = DIRECTION('',(-0.707106781156,0.,-0.707106781217));
#1388 = ORIENTED_EDGE('',*,*,#1389,.F.);
#1389 = EDGE_CURVE('',#1105,#1382,#1390,.T.);
#1390 = LINE('',#1391,#1392);
#1391 = CARTESIAN_POINT('',(-12.4,8.5,58.));
#1392 = VECTOR('',#1393,1.);
#1393 = DIRECTION('',(0.,1.,-2.2E-16));
#1394 = ORIENTED_EDGE('',*,*,#1104,.F.);
#1395 = PLANE('',#1396);
#1396 = AXIS2_PLACEMENT_3D('',#1397,#1398,#1399);
#1397 = CARTESIAN_POINT('',(-7.400000000432,8.5,63.));
#1398 = DIRECTION('',(-0.707106781217,1.6E-16,0.707106781156));
#1399 = DIRECTION('',(-0.707106781156,-1.6E-16,-0.707106781217));
#1400 = ADVANCED_FACE('',(#1401),#1419,.F.);
#1401 = FACE_BOUND('',#1402,.F.);
#1402 = EDGE_LOOP('',(#1403,#1404,#1405,#1413));
#1403 = ORIENTED_EDGE('',*,*,#1211,.F.);
#1404 = ORIENTED_EDGE('',*,*,#735,.T.);
#1405 = ORIENTED_EDGE('',*,*,#1406,.T.);
#1406 = EDGE_CURVE('',#736,#1407,#1409,.T.);
#1407 = VERTEX_POINT('',#1408);
#1408 = CARTESIAN_POINT('',(-24.4,28.5,-58.));
#1409 = LINE('',#1410,#1411);
#1410 = CARTESIAN_POINT('',(-24.4,28.5,-63.));
#1411 = VECTOR('',#1412,1.);
#1412 = DIRECTION('',(0.,0.,1.));
#1413 = ORIENTED_EDGE('',*,*,#1414,.F.);
#1414 = EDGE_CURVE('',#1204,#1407,#1415,.T.);
#1415 = LINE('',#1416,#1417);
#1416 = CARTESIAN_POINT('',(-24.4,1.,-58.));
#1417 = VECTOR('',#1418,1.);
#1418 = DIRECTION('',(0.,1.,-2.2E-16));
#1419 = PLANE('',#1420);
#1420 = AXIS2_PLACEMENT_3D('',#1421,#1422,#1423);
#1421 = CARTESIAN_POINT('',(-24.4,1.,-63.));
#1422 = DIRECTION('',(1.,0.,0.));
#1423 = DIRECTION('',(0.,2.2E-16,1.));
#1424 = ADVANCED_FACE('',(#1425),#1460,.T.);
#1425 = FACE_BOUND('',#1426,.T.);
#1426 = EDGE_LOOP('',(#1427,#1428,#1436,#1444,#1452,#1458,#1459));
#1427 = ORIENTED_EDGE('',*,*,#791,.F.);
#1428 = ORIENTED_EDGE('',*,*,#1429,.F.);
#1429 = EDGE_CURVE('',#1430,#784,#1432,.T.);
#1430 = VERTEX_POINT('',#1431);
#1431 = CARTESIAN_POINT('',(24.4,8.5,-58.));
#1432 = LINE('',#1433,#1434);
#1433 = CARTESIAN_POINT('',(24.4,8.5,-29.));
#1434 = VECTOR('',#1435,1.);
#1435 = DIRECTION('',(-0.,-2.2E-16,-1.));
#1436 = ORIENTED_EDGE('',*,*,#1437,.F.);
#1437 = EDGE_CURVE('',#1438,#1430,#1440,.T.);
#1438 = VERTEX_POINT('',#1439);
#1439 = CARTESIAN_POINT('',(29.7,8.5,-58.));
#1440 = LINE('',#1441,#1442);
#1441 = CARTESIAN_POINT('',(29.7,8.5,-58.));
#1442 = VECTOR('',#1443,1.);
#1443 = DIRECTION('',(-1.,0.,0.));
#1444 = ORIENTED_EDGE('',*,*,#1445,.F.);
#1445 = EDGE_CURVE('',#1446,#1438,#1448,.T.);
#1446 = VERTEX_POINT('',#1447);
#1447 = CARTESIAN_POINT('',(29.7,8.5,16.3));
#1448 = LINE('',#1449,#1450);
#1449 = CARTESIAN_POINT('',(29.7,8.5,58.));
#1450 = VECTOR('',#1451,1.);
#1451 = DIRECTION('',(0.,0.,-1.));
#1452 = ORIENTED_EDGE('',*,*,#1453,.F.);
#1453 = EDGE_CURVE('',#864,#1446,#1454,.T.);
#1454 = LINE('',#1455,#1456);
#1455 = CARTESIAN_POINT('',(34.5,8.5,21.1));
#1456 = VECTOR('',#1457,1.);
#1457 = DIRECTION('',(-0.707106781187,0.,-0.707106781187));
#1458 = ORIENTED_EDGE('',*,*,#863,.F.);
#1459 = ORIENTED_EDGE('',*,*,#846,.T.);
#1460 = PLANE('',#1461);
#1461 = AXIS2_PLACEMENT_3D('',#1462,#1463,#1464);
#1462 = CARTESIAN_POINT('',(6.14E-15,8.5,-2.46E-15));
#1463 = DIRECTION('',(0.,1.,-2.2E-16));
#1464 = DIRECTION('',(0.,2.2E-16,1.));
#1465 = ADVANCED_FACE('',(#1466),#1484,.T.);
#1466 = FACE_BOUND('',#1467,.T.);
#1467 = EDGE_LOOP('',(#1468,#1469,#1477,#1483));
#1468 = ORIENTED_EDGE('',*,*,#1406,.T.);
#1469 = ORIENTED_EDGE('',*,*,#1470,.T.);
#1470 = EDGE_CURVE('',#1407,#1471,#1473,.T.);
#1471 = VERTEX_POINT('',#1472);
#1472 = CARTESIAN_POINT('',(-12.4,28.5,-58.));
#1473 = LINE('',#1474,#1475);
#1474 = CARTESIAN_POINT('',(-24.4,28.5,-58.));
#1475 = VECTOR('',#1476,1.);
#1476 = DIRECTION('',(1.,0.,0.));
#1477 = ORIENTED_EDGE('',*,*,#1478,.T.);
#1478 = EDGE_CURVE('',#1471,#744,#1479,.T.);
#1479 = LINE('',#1480,#1481);
#1480 = CARTESIAN_POINT('',(-12.4,28.5,-58.));
#1481 = VECTOR('',#1482,1.);
#1482 = DIRECTION('',(0.707106781187,0.,-0.707106781187));
#1483 = ORIENTED_EDGE('',*,*,#743,.T.);
#1484 = PLANE('',#1485);
#1485 = AXIS2_PLACEMENT_3D('',#1486,#1487,#1488);
#1486 = CARTESIAN_POINT('',(0.,28.5,-60.5));
#1487 = DIRECTION('',(0.,1.,-2.2E-16));
#1488 = DIRECTION('',(0.,2.2E-16,1.));
#1489 = ADVANCED_FACE('',(#1490),#1508,.F.);
#1490 = FACE_BOUND('',#1491,.F.);
#1491 = EDGE_LOOP('',(#1492,#1493,#1501,#1507));
#1492 = ORIENTED_EDGE('',*,*,#1429,.F.);
#1493 = ORIENTED_EDGE('',*,*,#1494,.T.);
#1494 = EDGE_CURVE('',#1430,#1495,#1497,.T.);
#1495 = VERTEX_POINT('',#1496);
#1496 = CARTESIAN_POINT('',(24.4,28.5,-58.));
#1497 = LINE('',#1498,#1499);
#1498 = CARTESIAN_POINT('',(24.4,1.,-58.));
#1499 = VECTOR('',#1500,1.);
#1500 = DIRECTION('',(0.,1.,-2.2E-16));
#1501 = ORIENTED_EDGE('',*,*,#1502,.T.);
#1502 = EDGE_CURVE('',#1495,#776,#1503,.T.);
#1503 = LINE('',#1504,#1505);
#1504 = CARTESIAN_POINT('',(24.4,28.5,-58.));
#1505 = VECTOR('',#1506,1.);
#1506 = DIRECTION('',(0.,0.,-1.));
#1507 = ORIENTED_EDGE('',*,*,#783,.F.);
#1508 = PLANE('',#1509);
#1509 = AXIS2_PLACEMENT_3D('',#1510,#1511,#1512);
#1510 = CARTESIAN_POINT('',(24.4,1.,-58.));
#1511 = DIRECTION('',(-1.,0.,0.));
#1512 = DIRECTION('',(-0.,-2.2E-16,-1.));
#1513 = ADVANCED_FACE('',(#1514),#1540,.T.);
#1514 = FACE_BOUND('',#1515,.T.);
#1515 = EDGE_LOOP('',(#1516,#1517,#1518,#1526,#1534));
#1516 = ORIENTED_EDGE('',*,*,#751,.F.);
#1517 = ORIENTED_EDGE('',*,*,#1478,.F.);
#1518 = ORIENTED_EDGE('',*,*,#1519,.T.);
#1519 = EDGE_CURVE('',#1471,#1520,#1522,.T.);
#1520 = VERTEX_POINT('',#1521);
#1521 = CARTESIAN_POINT('',(-12.4,33.5,-58.));
#1522 = LINE('',#1523,#1524);
#1523 = CARTESIAN_POINT('',(-12.4,28.5,-58.));
#1524 = VECTOR('',#1525,1.);
#1525 = DIRECTION('',(0.,1.,-2.2E-16));
#1526 = ORIENTED_EDGE('',*,*,#1527,.T.);
#1527 = EDGE_CURVE('',#1520,#1528,#1530,.T.);
#1528 = VERTEX_POINT('',#1529);
#1529 = CARTESIAN_POINT('',(-8.4,33.5,-62.));
#1530 = LINE('',#1531,#1532);
#1531 = CARTESIAN_POINT('',(-12.4,33.5,-58.));
#1532 = VECTOR('',#1533,1.);
#1533 = DIRECTION('',(0.707106781187,0.,-0.707106781187));
#1534 = ORIENTED_EDGE('',*,*,#1535,.F.);
#1535 = EDGE_CURVE('',#752,#1528,#1536,.T.);
#1536 = LINE('',#1537,#1538);
#1537 = CARTESIAN_POINT('',(-8.566666666667,33.666666666667,
    -61.83333333333));
#1538 = VECTOR('',#1539,1.);
#1539 = DIRECTION('',(-0.57735026919,0.57735026919,0.57735026919));
#1540 = PLANE('',#1541);
#1541 = AXIS2_PLACEMENT_3D('',#1542,#1543,#1544);
#1542 = CARTESIAN_POINT('',(-12.4,28.5,-58.));
#1543 = DIRECTION('',(-0.707106781187,-1.6E-16,-0.707106781187));
#1544 = DIRECTION('',(0.707106781187,-1.6E-16,-0.707106781187));
#1545 = ADVANCED_FACE('',(#1546),#1564,.T.);
#1546 = FACE_BOUND('',#1547,.T.);
#1547 = EDGE_LOOP('',(#1548,#1556,#1562,#1563));
#1548 = ORIENTED_EDGE('',*,*,#1549,.T.);
#1549 = EDGE_CURVE('',#768,#1550,#1552,.T.);
#1550 = VERTEX_POINT('',#1551);
#1551 = CARTESIAN_POINT('',(12.4,28.5,-58.));
#1552 = LINE('',#1553,#1554);
#1553 = CARTESIAN_POINT('',(7.4,28.5,-63.));
#1554 = VECTOR('',#1555,1.);
#1555 = DIRECTION('',(0.707106781187,0.,0.707106781187));
#1556 = ORIENTED_EDGE('',*,*,#1557,.T.);
#1557 = EDGE_CURVE('',#1550,#1495,#1558,.T.);
#1558 = LINE('',#1559,#1560);
#1559 = CARTESIAN_POINT('',(-24.4,28.5,-58.));
#1560 = VECTOR('',#1561,1.);
#1561 = DIRECTION('',(1.,0.,0.));
#1562 = ORIENTED_EDGE('',*,*,#1502,.T.);
#1563 = ORIENTED_EDGE('',*,*,#775,.T.);
#1564 = PLANE('',#1565);
#1565 = AXIS2_PLACEMENT_3D('',#1566,#1567,#1568);
#1566 = CARTESIAN_POINT('',(0.,28.5,-60.5));
#1567 = DIRECTION('',(0.,1.,-2.2E-16));
#1568 = DIRECTION('',(0.,2.2E-16,1.));
#1569 = ADVANCED_FACE('',(#1570),#1588,.T.);
#1570 = FACE_BOUND('',#1571,.F.);
#1571 = EDGE_LOOP('',(#1572,#1573,#1574,#1582));
#1572 = ORIENTED_EDGE('',*,*,#1535,.F.);
#1573 = ORIENTED_EDGE('',*,*,#759,.T.);
#1574 = ORIENTED_EDGE('',*,*,#1575,.T.);
#1575 = EDGE_CURVE('',#760,#1576,#1578,.T.);
#1576 = VERTEX_POINT('',#1577);
#1577 = CARTESIAN_POINT('',(8.4,33.5,-62.));
#1578 = LINE('',#1579,#1580);
#1579 = CARTESIAN_POINT('',(4.433333333333,29.533333333333,
    -65.96666666666));
#1580 = VECTOR('',#1581,1.);
#1581 = DIRECTION('',(0.57735026919,0.57735026919,0.57735026919));
#1582 = ORIENTED_EDGE('',*,*,#1583,.F.);
#1583 = EDGE_CURVE('',#1528,#1576,#1584,.T.);
#1584 = LINE('',#1585,#1586);
#1585 = CARTESIAN_POINT('',(-7.4,33.5,-62.));
#1586 = VECTOR('',#1587,1.);
#1587 = DIRECTION('',(1.,0.,0.));
#1588 = PLANE('',#1589);
#1589 = AXIS2_PLACEMENT_3D('',#1590,#1591,#1592);
#1590 = CARTESIAN_POINT('',(-7.4,33.,-62.5));
#1591 = DIRECTION('',(0.,0.707106781187,-0.707106781187));
#1592 = DIRECTION('',(-1.,-0.,-0.));
#1593 = ADVANCED_FACE('',(#1594),#1613,.T.);
#1594 = FACE_BOUND('',#1595,.T.);
#1595 = EDGE_LOOP('',(#1596,#1597,#1598,#1606,#1612));
#1596 = ORIENTED_EDGE('',*,*,#767,.T.);
#1597 = ORIENTED_EDGE('',*,*,#1575,.T.);
#1598 = ORIENTED_EDGE('',*,*,#1599,.T.);
#1599 = EDGE_CURVE('',#1576,#1600,#1602,.T.);
#1600 = VERTEX_POINT('',#1601);
#1601 = CARTESIAN_POINT('',(12.4,33.5,-58.));
#1602 = LINE('',#1603,#1604);
#1603 = CARTESIAN_POINT('',(7.4,33.5,-63.));
#1604 = VECTOR('',#1605,1.);
#1605 = DIRECTION('',(0.707106781187,0.,0.707106781187));
#1606 = ORIENTED_EDGE('',*,*,#1607,.F.);
#1607 = EDGE_CURVE('',#1550,#1600,#1608,.T.);
#1608 = LINE('',#1609,#1610);
#1609 = CARTESIAN_POINT('',(12.4,28.5,-58.));
#1610 = VECTOR('',#1611,1.);
#1611 = DIRECTION('',(0.,1.,-2.2E-16));
#1612 = ORIENTED_EDGE('',*,*,#1549,.F.);
#1613 = PLANE('',#1614);
#1614 = AXIS2_PLACEMENT_3D('',#1615,#1616,#1617);
#1615 = CARTESIAN_POINT('',(7.4,28.5,-63.));
#1616 = DIRECTION('',(0.707106781187,-1.6E-16,-0.707106781187));
#1617 = DIRECTION('',(0.707106781187,1.6E-16,0.707106781187));
#1618 = ADVANCED_FACE('',(#1619),#1653,.F.);
#1619 = FACE_BOUND('',#1620,.F.);
#1620 = EDGE_LOOP('',(#1621,#1622,#1630,#1638,#1646,#1652));
#1621 = ORIENTED_EDGE('',*,*,#871,.T.);
#1622 = ORIENTED_EDGE('',*,*,#1623,.T.);
#1623 = EDGE_CURVE('',#872,#1624,#1626,.T.);
#1624 = VERTEX_POINT('',#1625);
#1625 = CARTESIAN_POINT('',(33.5,18.5,20.1));
#1626 = LINE('',#1627,#1628);
#1627 = CARTESIAN_POINT('',(38.3,13.7,24.9));
#1628 = VECTOR('',#1629,1.);
#1629 = DIRECTION('',(-0.57735026919,0.57735026919,-0.57735026919));
#1630 = ORIENTED_EDGE('',*,*,#1631,.T.);
#1631 = EDGE_CURVE('',#1624,#1632,#1634,.T.);
#1632 = VERTEX_POINT('',#1633);
#1633 = CARTESIAN_POINT('',(29.5,18.5,16.1));
#1634 = LINE('',#1635,#1636);
#1635 = CARTESIAN_POINT('',(34.5,18.5,21.1));
#1636 = VECTOR('',#1637,1.);
#1637 = DIRECTION('',(-0.707106781187,0.,-0.707106781187));
#1638 = ORIENTED_EDGE('',*,*,#1639,.F.);
#1639 = EDGE_CURVE('',#1640,#1632,#1642,.T.);
#1640 = VERTEX_POINT('',#1641);
#1641 = CARTESIAN_POINT('',(29.5,8.5,16.1));
#1642 = LINE('',#1643,#1644);
#1643 = CARTESIAN_POINT('',(29.5,8.5,16.1));
#1644 = VECTOR('',#1645,1.);
#1645 = DIRECTION('',(0.,1.,-2.2E-16));
#1646 = ORIENTED_EDGE('',*,*,#1647,.F.);
#1647 = EDGE_CURVE('',#1446,#1640,#1648,.T.);
#1648 = LINE('',#1649,#1650);
#1649 = CARTESIAN_POINT('',(34.5,8.5,21.1));
#1650 = VECTOR('',#1651,1.);
#1651 = DIRECTION('',(-0.707106781187,0.,-0.707106781187));
#1652 = ORIENTED_EDGE('',*,*,#1453,.F.);
#1653 = PLANE('',#1654);
#1654 = AXIS2_PLACEMENT_3D('',#1655,#1656,#1657);
#1655 = CARTESIAN_POINT('',(34.5,8.5,21.1));
#1656 = DIRECTION('',(-0.707106781187,1.6E-16,0.707106781187));
#1657 = DIRECTION('',(-0.707106781187,-1.6E-16,-0.707106781187));
#1658 = ADVANCED_FACE('',(#1659),#1677,.T.);
#1659 = FACE_BOUND('',#1660,.T.);
#1660 = EDGE_LOOP('',(#1661,#1669,#1670,#1671));
#1661 = ORIENTED_EDGE('',*,*,#1662,.F.);
#1662 = EDGE_CURVE('',#880,#1663,#1665,.T.);
#1663 = VERTEX_POINT('',#1664);
#1664 = CARTESIAN_POINT('',(33.5,18.5,36.9));
#1665 = LINE('',#1666,#1667);
#1666 = CARTESIAN_POINT('',(34.166666666667,17.833333333333,
    36.233333333333));
#1667 = VECTOR('',#1668,1.);
#1668 = DIRECTION('',(-0.57735026919,0.57735026919,0.57735026919));
#1669 = ORIENTED_EDGE('',*,*,#879,.T.);
#1670 = ORIENTED_EDGE('',*,*,#1623,.T.);
#1671 = ORIENTED_EDGE('',*,*,#1672,.F.);
#1672 = EDGE_CURVE('',#1663,#1624,#1673,.T.);
#1673 = LINE('',#1674,#1675);
#1674 = CARTESIAN_POINT('',(33.5,18.5,35.9));
#1675 = VECTOR('',#1676,1.);
#1676 = DIRECTION('',(0.,-2.2E-16,-1.));
#1677 = PLANE('',#1678);
#1678 = AXIS2_PLACEMENT_3D('',#1679,#1680,#1681);
#1679 = CARTESIAN_POINT('',(34.,18.,35.9));
#1680 = DIRECTION('',(0.707106781187,0.707106781187,0.));
#1681 = DIRECTION('',(1.1E-16,-1.1E-16,-1.));
#1682 = ADVANCED_FACE('',(#1683),#1710,.F.);
#1683 = FACE_BOUND('',#1684,.F.);
#1684 = EDGE_LOOP('',(#1685,#1686,#1687,#1695,#1703,#1709));
#1685 = ORIENTED_EDGE('',*,*,#887,.F.);
#1686 = ORIENTED_EDGE('',*,*,#1283,.F.);
#1687 = ORIENTED_EDGE('',*,*,#1688,.F.);
#1688 = EDGE_CURVE('',#1689,#1284,#1691,.T.);
#1689 = VERTEX_POINT('',#1690);
#1690 = CARTESIAN_POINT('',(29.5,8.5,40.9));
#1691 = LINE('',#1692,#1693);
#1692 = CARTESIAN_POINT('',(29.5,8.5,40.9));
#1693 = VECTOR('',#1694,1.);
#1694 = DIRECTION('',(0.707106781187,0.,-0.707106781187));
#1695 = ORIENTED_EDGE('',*,*,#1696,.T.);
#1696 = EDGE_CURVE('',#1689,#1697,#1699,.T.);
#1697 = VERTEX_POINT('',#1698);
#1698 = CARTESIAN_POINT('',(29.5,18.5,40.9));
#1699 = LINE('',#1700,#1701);
#1700 = CARTESIAN_POINT('',(29.5,8.5,40.9));
#1701 = VECTOR('',#1702,1.);
#1702 = DIRECTION('',(0.,1.,-2.2E-16));
#1703 = ORIENTED_EDGE('',*,*,#1704,.T.);
#1704 = EDGE_CURVE('',#1697,#1663,#1705,.T.);
#1705 = LINE('',#1706,#1707);
#1706 = CARTESIAN_POINT('',(29.5,18.5,40.9));
#1707 = VECTOR('',#1708,1.);
#1708 = DIRECTION('',(0.707106781187,0.,-0.707106781187));
#1709 = ORIENTED_EDGE('',*,*,#1662,.F.);
#1710 = PLANE('',#1711);
#1711 = AXIS2_PLACEMENT_3D('',#1712,#1713,#1714);
#1712 = CARTESIAN_POINT('',(29.5,8.5,40.9));
#1713 = DIRECTION('',(-0.707106781187,-1.6E-16,-0.707106781187));
#1714 = DIRECTION('',(0.707106781187,-1.6E-16,-0.707106781187));
#1715 = ADVANCED_FACE('',(#1716,#1750),#1756,.T.);
#1716 = FACE_BOUND('',#1717,.T.);
#1717 = EDGE_LOOP('',(#1718,#1728,#1736,#1744));
#1718 = ORIENTED_EDGE('',*,*,#1719,.F.);
#1719 = EDGE_CURVE('',#1720,#1722,#1724,.T.);
#1720 = VERTEX_POINT('',#1721);
#1721 = CARTESIAN_POINT('',(-29.5,1.,50.2));
#1722 = VERTEX_POINT('',#1723);
#1723 = CARTESIAN_POINT('',(-29.5,1.,-47.2));
#1724 = LINE('',#1725,#1726);
#1725 = CARTESIAN_POINT('',(-29.5,1.,50.2));
#1726 = VECTOR('',#1727,1.);
#1727 = DIRECTION('',(0.,0.,-1.));
#1728 = ORIENTED_EDGE('',*,*,#1729,.T.);
#1729 = EDGE_CURVE('',#1720,#1730,#1732,.T.);
#1730 = VERTEX_POINT('',#1731);
#1731 = CARTESIAN_POINT('',(29.7,1.,50.2));
#1732 = LINE('',#1733,#1734);
#1733 = CARTESIAN_POINT('',(-34.5,1.,50.2));
#1734 = VECTOR('',#1735,1.);
#1735 = DIRECTION('',(1.,0.,0.));
#1736 = ORIENTED_EDGE('',*,*,#1737,.F.);
#1737 = EDGE_CURVE('',#1738,#1730,#1740,.T.);
#1738 = VERTEX_POINT('',#1739);
#1739 = CARTESIAN_POINT('',(29.7,1.,-47.2));
#1740 = LINE('',#1741,#1742);
#1741 = CARTESIAN_POINT('',(29.7,1.,-47.2));
#1742 = VECTOR('',#1743,1.);
#1743 = DIRECTION('',(0.,0.,1.));
#1744 = ORIENTED_EDGE('',*,*,#1745,.T.);
#1745 = EDGE_CURVE('',#1738,#1722,#1746,.T.);
#1746 = LINE('',#1747,#1748);
#1747 = CARTESIAN_POINT('',(34.5,1.,-47.2));
#1748 = VECTOR('',#1749,1.);
#1749 = DIRECTION('',(-1.,0.,0.));
#1750 = FACE_BOUND('',#1751,.T.);
#1751 = EDGE_LOOP('',(#1752,#1753,#1754,#1755));
#1752 = ORIENTED_EDGE('',*,*,#993,.F.);
#1753 = ORIENTED_EDGE('',*,*,#952,.F.);
#1754 = ORIENTED_EDGE('',*,*,#928,.F.);
#1755 = ORIENTED_EDGE('',*,*,#976,.F.);
#1756 = PLANE('',#1757);
#1757 = AXIS2_PLACEMENT_3D('',#1758,#1759,#1760);
#1758 = CARTESIAN_POINT('',(0.,1.,0.));
#1759 = DIRECTION('',(0.,1.,0.));
#1760 = DIRECTION('',(0.,0.,1.));
#1761 = ADVANCED_FACE('',(#1762,#1828,#1831,#1834,#1868,#1871),#1874,.T.
  );
#1762 = FACE_BOUND('',#1763,.T.);
#1763 = EDGE_LOOP('',(#1764,#1774,#1782,#1790,#1798,#1806,#1814,#1822));
#1764 = ORIENTED_EDGE('',*,*,#1765,.T.);
#1765 = EDGE_CURVE('',#1766,#1768,#1770,.T.);
#1766 = VERTEX_POINT('',#1767);
#1767 = CARTESIAN_POINT('',(29.7,6.5,-58.));
#1768 = VERTEX_POINT('',#1769);
#1769 = CARTESIAN_POINT('',(-29.7,6.5,-58.));
#1770 = LINE('',#1771,#1772);
#1771 = CARTESIAN_POINT('',(29.7,6.5,-58.));
#1772 = VECTOR('',#1773,1.);
#1773 = DIRECTION('',(-1.,0.,0.));
#1774 = ORIENTED_EDGE('',*,*,#1775,.T.);
#1775 = EDGE_CURVE('',#1768,#1776,#1778,.T.);
#1776 = VERTEX_POINT('',#1777);
#1777 = CARTESIAN_POINT('',(-29.7,6.5,58.));
#1778 = LINE('',#1779,#1780);
#1779 = CARTESIAN_POINT('',(-29.7,6.5,-58.));
#1780 = VECTOR('',#1781,1.);
#1781 = DIRECTION('',(0.,0.,1.));
#1782 = ORIENTED_EDGE('',*,*,#1783,.T.);
#1783 = EDGE_CURVE('',#1776,#1784,#1786,.T.);
#1784 = VERTEX_POINT('',#1785);
#1785 = CARTESIAN_POINT('',(29.7,6.5,58.));
#1786 = LINE('',#1787,#1788);
#1787 = CARTESIAN_POINT('',(-29.7,6.5,58.));
#1788 = VECTOR('',#1789,1.);
#1789 = DIRECTION('',(1.,0.,0.));
#1790 = ORIENTED_EDGE('',*,*,#1791,.T.);
#1791 = EDGE_CURVE('',#1784,#1792,#1794,.T.);
#1792 = VERTEX_POINT('',#1793);
#1793 = CARTESIAN_POINT('',(29.7,6.5,50.2));
#1794 = LINE('',#1795,#1796);
#1795 = CARTESIAN_POINT('',(29.7,6.5,58.));
#1796 = VECTOR('',#1797,1.);
#1797 = DIRECTION('',(0.,0.,-1.));
#1798 = ORIENTED_EDGE('',*,*,#1799,.F.);
#1799 = EDGE_CURVE('',#1800,#1792,#1802,.T.);
#1800 = VERTEX_POINT('',#1801);
#1801 = CARTESIAN_POINT('',(-29.5,6.5,50.2));
#1802 = LINE('',#1803,#1804);
#1803 = CARTESIAN_POINT('',(-34.5,6.5,50.2));
#1804 = VECTOR('',#1805,1.);
#1805 = DIRECTION('',(1.,0.,0.));
#1806 = ORIENTED_EDGE('',*,*,#1807,.T.);
#1807 = EDGE_CURVE('',#1800,#1808,#1810,.T.);
#1808 = VERTEX_POINT('',#1809);
#1809 = CARTESIAN_POINT('',(-29.5,6.5,-47.2));
#1810 = LINE('',#1811,#1812);
#1811 = CARTESIAN_POINT('',(-29.5,6.5,50.2));
#1812 = VECTOR('',#1813,1.);
#1813 = DIRECTION('',(0.,0.,-1.));
#1814 = ORIENTED_EDGE('',*,*,#1815,.F.);
#1815 = EDGE_CURVE('',#1816,#1808,#1818,.T.);
#1816 = VERTEX_POINT('',#1817);
#1817 = CARTESIAN_POINT('',(29.7,6.5,-47.2));
#1818 = LINE('',#1819,#1820);
#1819 = CARTESIAN_POINT('',(34.5,6.5,-47.2));
#1820 = VECTOR('',#1821,1.);
#1821 = DIRECTION('',(-1.,0.,0.));
#1822 = ORIENTED_EDGE('',*,*,#1823,.T.);
#1823 = EDGE_CURVE('',#1816,#1766,#1824,.T.);
#1824 = LINE('',#1825,#1826);
#1825 = CARTESIAN_POINT('',(29.7,6.5,58.));
#1826 = VECTOR('',#1827,1.);
#1827 = DIRECTION('',(0.,0.,-1.));
#1828 = FACE_BOUND('',#1829,.T.);
#1829 = EDGE_LOOP('',(#1830));
#1830 = ORIENTED_EDGE('',*,*,#1062,.F.);
#1831 = FACE_BOUND('',#1832,.T.);
#1832 = EDGE_LOOP('',(#1833));
#1833 = ORIENTED_EDGE('',*,*,#1014,.F.);
#1834 = FACE_BOUND('',#1835,.T.);
#1835 = EDGE_LOOP('',(#1836,#1846,#1854,#1862));
#1836 = ORIENTED_EDGE('',*,*,#1837,.F.);
#1837 = EDGE_CURVE('',#1838,#1840,#1842,.T.);
#1838 = VERTEX_POINT('',#1839);
#1839 = CARTESIAN_POINT('',(-22.,6.5,-54.75));
#1840 = VERTEX_POINT('',#1841);
#1841 = CARTESIAN_POINT('',(-22.,6.5,-48.75));
#1842 = LINE('',#1843,#1844);
#1843 = CARTESIAN_POINT('',(-22.,6.5,-54.75));
#1844 = VECTOR('',#1845,1.);
#1845 = DIRECTION('',(0.,0.,1.));
#1846 = ORIENTED_EDGE('',*,*,#1847,.F.);
#1847 = EDGE_CURVE('',#1848,#1838,#1850,.T.);
#1848 = VERTEX_POINT('',#1849);
#1849 = CARTESIAN_POINT('',(22.,6.5,-54.75));
#1850 = LINE('',#1851,#1852);
#1851 = CARTESIAN_POINT('',(22.,6.5,-54.75));
#1852 = VECTOR('',#1853,1.);
#1853 = DIRECTION('',(-1.,0.,0.));
#1854 = ORIENTED_EDGE('',*,*,#1855,.F.);
#1855 = EDGE_CURVE('',#1856,#1848,#1858,.T.);
#1856 = VERTEX_POINT('',#1857);
#1857 = CARTESIAN_POINT('',(22.,6.5,-48.75));
#1858 = LINE('',#1859,#1860);
#1859 = CARTESIAN_POINT('',(22.,6.5,-48.75));
#1860 = VECTOR('',#1861,1.);
#1861 = DIRECTION('',(0.,0.,-1.));
#1862 = ORIENTED_EDGE('',*,*,#1863,.F.);
#1863 = EDGE_CURVE('',#1840,#1856,#1864,.T.);
#1864 = LINE('',#1865,#1866);
#1865 = CARTESIAN_POINT('',(-22.,6.5,-48.75));
#1866 = VECTOR('',#1867,1.);
#1867 = DIRECTION('',(1.,0.,0.));
#1868 = FACE_BOUND('',#1869,.T.);
#1869 = EDGE_LOOP('',(#1870));
#1870 = ORIENTED_EDGE('',*,*,#1086,.F.);
#1871 = FACE_BOUND('',#1872,.T.);
#1872 = EDGE_LOOP('',(#1873));
#1873 = ORIENTED_EDGE('',*,*,#1038,.F.);
#1874 = PLANE('',#1875);
#1875 = AXIS2_PLACEMENT_3D('',#1876,#1877,#1878);
#1876 = CARTESIAN_POINT('',(9.87619958202E-03,6.5,0.723621535257));
#1877 = DIRECTION('',(0.,1.,0.));
#1878 = DIRECTION('',(0.,0.,1.));
#1879 = ADVANCED_FACE('',(#1880),#1905,.T.);
#1880 = FACE_BOUND('',#1881,.T.);
#1881 = EDGE_LOOP('',(#1882,#1888,#1889,#1890,#1896,#1897,#1898,#1904));
#1882 = ORIENTED_EDGE('',*,*,#1883,.T.);
#1883 = EDGE_CURVE('',#1776,#1113,#1884,.T.);
#1884 = LINE('',#1885,#1886);
#1885 = CARTESIAN_POINT('',(-29.7,6.5,58.));
#1886 = VECTOR('',#1887,1.);
#1887 = DIRECTION('',(0.,1.,-2.2E-16));
#1888 = ORIENTED_EDGE('',*,*,#1112,.T.);
#1889 = ORIENTED_EDGE('',*,*,#1389,.T.);
#1890 = ORIENTED_EDGE('',*,*,#1891,.T.);
#1891 = EDGE_CURVE('',#1382,#1326,#1892,.T.);
#1892 = LINE('',#1893,#1894);
#1893 = CARTESIAN_POINT('',(-12.4,18.5,58.));
#1894 = VECTOR('',#1895,1.);
#1895 = DIRECTION('',(1.,0.,0.));
#1896 = ORIENTED_EDGE('',*,*,#1325,.F.);
#1897 = ORIENTED_EDGE('',*,*,#1299,.T.);
#1898 = ORIENTED_EDGE('',*,*,#1899,.F.);
#1899 = EDGE_CURVE('',#1784,#1292,#1900,.T.);
#1900 = LINE('',#1901,#1902);
#1901 = CARTESIAN_POINT('',(29.7,6.5,58.));
#1902 = VECTOR('',#1903,1.);
#1903 = DIRECTION('',(0.,1.,-2.2E-16));
#1904 = ORIENTED_EDGE('',*,*,#1783,.F.);
#1905 = PLANE('',#1906);
#1906 = AXIS2_PLACEMENT_3D('',#1907,#1908,#1909);
#1907 = CARTESIAN_POINT('',(6.37E-15,10.077030812325,58.));
#1908 = DIRECTION('',(-0.,-0.,-1.));
#1909 = DIRECTION('',(-1.,0.,0.));
#1910 = ADVANCED_FACE('',(#1911),#1929,.T.);
#1911 = FACE_BOUND('',#1912,.T.);
#1912 = EDGE_LOOP('',(#1913,#1919,#1920,#1926,#1927,#1928));
#1913 = ORIENTED_EDGE('',*,*,#1914,.T.);
#1914 = EDGE_CURVE('',#1768,#1196,#1915,.T.);
#1915 = LINE('',#1916,#1917);
#1916 = CARTESIAN_POINT('',(-29.7,6.5,-58.));
#1917 = VECTOR('',#1918,1.);
#1918 = DIRECTION('',(0.,1.,-2.2E-16));
#1919 = ORIENTED_EDGE('',*,*,#1195,.T.);
#1920 = ORIENTED_EDGE('',*,*,#1921,.T.);
#1921 = EDGE_CURVE('',#1188,#1121,#1922,.T.);
#1922 = LINE('',#1923,#1924);
#1923 = CARTESIAN_POINT('',(-29.7,8.5,-58.));
#1924 = VECTOR('',#1925,1.);
#1925 = DIRECTION('',(0.,0.,1.));
#1926 = ORIENTED_EDGE('',*,*,#1120,.T.);
#1927 = ORIENTED_EDGE('',*,*,#1883,.F.);
#1928 = ORIENTED_EDGE('',*,*,#1775,.F.);
#1929 = PLANE('',#1930);
#1930 = AXIS2_PLACEMENT_3D('',#1931,#1932,#1933);
#1931 = CARTESIAN_POINT('',(-29.7,6.5,-58.));
#1932 = DIRECTION('',(1.,0.,0.));
#1933 = DIRECTION('',(0.,2.2E-16,1.));
#1934 = ADVANCED_FACE('',(#1935),#1946,.T.);
#1935 = FACE_BOUND('',#1936,.T.);
#1936 = EDGE_LOOP('',(#1937,#1938,#1939,#1940));
#1937 = ORIENTED_EDGE('',*,*,#1251,.F.);
#1938 = ORIENTED_EDGE('',*,*,#1235,.F.);
#1939 = ORIENTED_EDGE('',*,*,#1162,.F.);
#1940 = ORIENTED_EDGE('',*,*,#1941,.F.);
#1941 = EDGE_CURVE('',#1252,#1155,#1942,.T.);
#1942 = LINE('',#1943,#1944);
#1943 = CARTESIAN_POINT('',(-29.5,18.5,16.1));
#1944 = VECTOR('',#1945,1.);
#1945 = DIRECTION('',(0.,0.,1.));
#1946 = PLANE('',#1947);
#1947 = AXIS2_PLACEMENT_3D('',#1948,#1949,#1950);
#1948 = CARTESIAN_POINT('',(-9.E-17,18.5,39.011605219367));
#1949 = DIRECTION('',(0.,1.,0.));
#1950 = DIRECTION('',(0.,0.,1.));
#1951 = ADVANCED_FACE('',(#1952),#1963,.F.);
#1952 = FACE_BOUND('',#1953,.F.);
#1953 = EDGE_LOOP('',(#1954,#1955,#1956,#1962));
#1954 = ORIENTED_EDGE('',*,*,#1921,.T.);
#1955 = ORIENTED_EDGE('',*,*,#1146,.F.);
#1956 = ORIENTED_EDGE('',*,*,#1957,.F.);
#1957 = EDGE_CURVE('',#1260,#1147,#1958,.T.);
#1958 = LINE('',#1959,#1960);
#1959 = CARTESIAN_POINT('',(-29.5,8.5,16.1));
#1960 = VECTOR('',#1961,1.);
#1961 = DIRECTION('',(0.,0.,1.));
#1962 = ORIENTED_EDGE('',*,*,#1267,.F.);
#1963 = PLANE('',#1964);
#1964 = AXIS2_PLACEMENT_3D('',#1965,#1966,#1967);
#1965 = CARTESIAN_POINT('',(-9.E-17,8.5,39.011605219367));
#1966 = DIRECTION('',(0.,1.,0.));
#1967 = DIRECTION('',(0.,0.,1.));
#1968 = ADVANCED_FACE('',(#1969),#1975,.T.);
#1969 = FACE_BOUND('',#1970,.T.);
#1970 = EDGE_LOOP('',(#1971,#1972,#1973,#1974));
#1971 = ORIENTED_EDGE('',*,*,#1259,.T.);
#1972 = ORIENTED_EDGE('',*,*,#1941,.T.);
#1973 = ORIENTED_EDGE('',*,*,#1154,.F.);
#1974 = ORIENTED_EDGE('',*,*,#1957,.F.);
#1975 = PLANE('',#1976);
#1976 = AXIS2_PLACEMENT_3D('',#1977,#1978,#1979);
#1977 = CARTESIAN_POINT('',(-29.5,8.5,16.1));
#1978 = DIRECTION('',(1.,0.,0.));
#1979 = DIRECTION('',(0.,2.2E-16,1.));
#1980 = ADVANCED_FACE('',(#1981),#2005,.T.);
#1981 = FACE_BOUND('',#1982,.T.);
#1982 = EDGE_LOOP('',(#1983,#1984,#1990,#1991,#1992,#1993,#1994,#2000,
    #2001,#2002,#2003,#2004));
#1983 = ORIENTED_EDGE('',*,*,#1765,.F.);
#1984 = ORIENTED_EDGE('',*,*,#1985,.T.);
#1985 = EDGE_CURVE('',#1766,#1438,#1986,.T.);
#1986 = LINE('',#1987,#1988);
#1987 = CARTESIAN_POINT('',(29.7,6.5,-58.));
#1988 = VECTOR('',#1989,1.);
#1989 = DIRECTION('',(0.,1.,-2.2E-16));
#1990 = ORIENTED_EDGE('',*,*,#1437,.T.);
#1991 = ORIENTED_EDGE('',*,*,#1494,.T.);
#1992 = ORIENTED_EDGE('',*,*,#1557,.F.);
#1993 = ORIENTED_EDGE('',*,*,#1607,.T.);
#1994 = ORIENTED_EDGE('',*,*,#1995,.T.);
#1995 = EDGE_CURVE('',#1600,#1520,#1996,.T.);
#1996 = LINE('',#1997,#1998);
#1997 = CARTESIAN_POINT('',(12.4,33.5,-58.));
#1998 = VECTOR('',#1999,1.);
#1999 = DIRECTION('',(-1.,0.,0.));
#2000 = ORIENTED_EDGE('',*,*,#1519,.F.);
#2001 = ORIENTED_EDGE('',*,*,#1470,.F.);
#2002 = ORIENTED_EDGE('',*,*,#1414,.F.);
#2003 = ORIENTED_EDGE('',*,*,#1203,.T.);
#2004 = ORIENTED_EDGE('',*,*,#1914,.F.);
#2005 = PLANE('',#2006);
#2006 = AXIS2_PLACEMENT_3D('',#2007,#2008,#2009);
#2007 = CARTESIAN_POINT('',(5.1E-15,17.771990740741,-58.));
#2008 = DIRECTION('',(0.,2.8E-16,1.));
#2009 = DIRECTION('',(0.,1.,-2.8E-16));
#2010 = ADVANCED_FACE('',(#2011),#2038,.T.);
#2011 = FACE_BOUND('',#2012,.T.);
#2012 = EDGE_LOOP('',(#2013,#2014,#2015,#2021,#2022,#2023,#2024,#2030,
    #2031,#2037));
#2013 = ORIENTED_EDGE('',*,*,#1899,.T.);
#2014 = ORIENTED_EDGE('',*,*,#1291,.T.);
#2015 = ORIENTED_EDGE('',*,*,#2016,.T.);
#2016 = EDGE_CURVE('',#1284,#1446,#2017,.T.);
#2017 = LINE('',#2018,#2019);
#2018 = CARTESIAN_POINT('',(29.7,8.5,58.));
#2019 = VECTOR('',#2020,1.);
#2020 = DIRECTION('',(0.,0.,-1.));
#2021 = ORIENTED_EDGE('',*,*,#1445,.T.);
#2022 = ORIENTED_EDGE('',*,*,#1985,.F.);
#2023 = ORIENTED_EDGE('',*,*,#1823,.F.);
#2024 = ORIENTED_EDGE('',*,*,#2025,.F.);
#2025 = EDGE_CURVE('',#1738,#1816,#2026,.T.);
#2026 = LINE('',#2027,#2028);
#2027 = CARTESIAN_POINT('',(29.7,1.,-47.2));
#2028 = VECTOR('',#2029,1.);
#2029 = DIRECTION('',(0.,1.,-2.2E-16));
#2030 = ORIENTED_EDGE('',*,*,#1737,.T.);
#2031 = ORIENTED_EDGE('',*,*,#2032,.T.);
#2032 = EDGE_CURVE('',#1730,#1792,#2033,.T.);
#2033 = LINE('',#2034,#2035);
#2034 = CARTESIAN_POINT('',(29.7,1.,50.2));
#2035 = VECTOR('',#2036,1.);
#2036 = DIRECTION('',(0.,1.,-2.2E-16));
#2037 = ORIENTED_EDGE('',*,*,#1791,.F.);
#2038 = PLANE('',#2039);
#2039 = AXIS2_PLACEMENT_3D('',#2040,#2041,#2042);
#2040 = CARTESIAN_POINT('',(29.7,5.164170040486,6.680161943319E-02));
#2041 = DIRECTION('',(-1.,-0.,-0.));
#2042 = DIRECTION('',(0.,0.,-1.));
#2043 = ADVANCED_FACE('',(#2044),#2050,.T.);
#2044 = FACE_BOUND('',#2045,.T.);
#2045 = EDGE_LOOP('',(#2046,#2047,#2048,#2049));
#2046 = ORIENTED_EDGE('',*,*,#1381,.F.);
#2047 = ORIENTED_EDGE('',*,*,#1365,.F.);
#2048 = ORIENTED_EDGE('',*,*,#1333,.F.);
#2049 = ORIENTED_EDGE('',*,*,#1891,.F.);
#2050 = PLANE('',#2051);
#2051 = AXIS2_PLACEMENT_3D('',#2052,#2053,#2054);
#2052 = CARTESIAN_POINT('',(-9.E-17,18.5,39.011605219367));
#2053 = DIRECTION('',(0.,1.,0.));
#2054 = DIRECTION('',(0.,0.,1.));
#2055 = ADVANCED_FACE('',(#2056),#2062,.T.);
#2056 = FACE_BOUND('',#2057,.T.);
#2057 = EDGE_LOOP('',(#2058,#2059,#2060,#2061));
#2058 = ORIENTED_EDGE('',*,*,#1599,.F.);
#2059 = ORIENTED_EDGE('',*,*,#1583,.F.);
#2060 = ORIENTED_EDGE('',*,*,#1527,.F.);
#2061 = ORIENTED_EDGE('',*,*,#1995,.F.);
#2062 = PLANE('',#2063);
#2063 = AXIS2_PLACEMENT_3D('',#2064,#2065,#2066);
#2064 = CARTESIAN_POINT('',(0.,33.5,-60.03481565795));
#2065 = DIRECTION('',(0.,1.,0.));
#2066 = DIRECTION('',(0.,0.,1.));
#2067 = ADVANCED_FACE('',(#2068),#2079,.T.);
#2068 = FACE_BOUND('',#2069,.T.);
#2069 = EDGE_LOOP('',(#2070,#2071,#2077,#2078));
#2070 = ORIENTED_EDGE('',*,*,#1631,.T.);
#2071 = ORIENTED_EDGE('',*,*,#2072,.T.);
#2072 = EDGE_CURVE('',#1632,#1697,#2073,.T.);
#2073 = LINE('',#2074,#2075);
#2074 = CARTESIAN_POINT('',(29.5,18.5,16.1));
#2075 = VECTOR('',#2076,1.);
#2076 = DIRECTION('',(0.,0.,1.));
#2077 = ORIENTED_EDGE('',*,*,#1704,.T.);
#2078 = ORIENTED_EDGE('',*,*,#1672,.T.);
#2079 = PLANE('',#2080);
#2080 = AXIS2_PLACEMENT_3D('',#2081,#2082,#2083);
#2081 = CARTESIAN_POINT('',(-9.E-17,18.5,39.011605219367));
#2082 = DIRECTION('',(0.,1.,0.));
#2083 = DIRECTION('',(0.,0.,1.));
#2084 = ADVANCED_FACE('',(#2085),#2096,.F.);
#2085 = FACE_BOUND('',#2086,.F.);
#2086 = EDGE_LOOP('',(#2087,#2088,#2089,#2095));
#2087 = ORIENTED_EDGE('',*,*,#2016,.T.);
#2088 = ORIENTED_EDGE('',*,*,#1647,.T.);
#2089 = ORIENTED_EDGE('',*,*,#2090,.T.);
#2090 = EDGE_CURVE('',#1640,#1689,#2091,.T.);
#2091 = LINE('',#2092,#2093);
#2092 = CARTESIAN_POINT('',(29.5,8.5,16.1));
#2093 = VECTOR('',#2094,1.);
#2094 = DIRECTION('',(0.,0.,1.));
#2095 = ORIENTED_EDGE('',*,*,#1688,.T.);
#2096 = PLANE('',#2097);
#2097 = AXIS2_PLACEMENT_3D('',#2098,#2099,#2100);
#2098 = CARTESIAN_POINT('',(-9.E-17,8.5,39.011605219367));
#2099 = DIRECTION('',(0.,1.,0.));
#2100 = DIRECTION('',(0.,0.,1.));
#2101 = ADVANCED_FACE('',(#2102),#2108,.F.);
#2102 = FACE_BOUND('',#2103,.F.);
#2103 = EDGE_LOOP('',(#2104,#2105,#2106,#2107));
#2104 = ORIENTED_EDGE('',*,*,#1639,.T.);
#2105 = ORIENTED_EDGE('',*,*,#2072,.T.);
#2106 = ORIENTED_EDGE('',*,*,#1696,.F.);
#2107 = ORIENTED_EDGE('',*,*,#2090,.F.);
#2108 = PLANE('',#2109);
#2109 = AXIS2_PLACEMENT_3D('',#2110,#2111,#2112);
#2110 = CARTESIAN_POINT('',(29.5,8.5,16.1));
#2111 = DIRECTION('',(1.,0.,0.));
#2112 = DIRECTION('',(0.,2.2E-16,1.));
#2113 = ADVANCED_FACE('',(#2114),#2130,.F.);
#2114 = FACE_BOUND('',#2115,.F.);
#2115 = EDGE_LOOP('',(#2116,#2122,#2123,#2129));
#2116 = ORIENTED_EDGE('',*,*,#2117,.T.);
#2117 = EDGE_CURVE('',#1720,#1800,#2118,.T.);
#2118 = LINE('',#2119,#2120);
#2119 = CARTESIAN_POINT('',(-29.5,1.,50.2));
#2120 = VECTOR('',#2121,1.);
#2121 = DIRECTION('',(0.,1.,-2.2E-16));
#2122 = ORIENTED_EDGE('',*,*,#1807,.T.);
#2123 = ORIENTED_EDGE('',*,*,#2124,.F.);
#2124 = EDGE_CURVE('',#1722,#1808,#2125,.T.);
#2125 = LINE('',#2126,#2127);
#2126 = CARTESIAN_POINT('',(-29.5,1.,-47.2));
#2127 = VECTOR('',#2128,1.);
#2128 = DIRECTION('',(0.,1.,-2.2E-16));
#2129 = ORIENTED_EDGE('',*,*,#1719,.F.);
#2130 = PLANE('',#2131);
#2131 = AXIS2_PLACEMENT_3D('',#2132,#2133,#2134);
#2132 = CARTESIAN_POINT('',(-29.5,1.,50.2));
#2133 = DIRECTION('',(-1.,0.,0.));
#2134 = DIRECTION('',(-0.,-2.2E-16,-1.));
#2135 = ADVANCED_FACE('',(#2136),#2142,.T.);
#2136 = FACE_BOUND('',#2137,.T.);
#2137 = EDGE_LOOP('',(#2138,#2139,#2140,#2141));
#2138 = ORIENTED_EDGE('',*,*,#2025,.T.);
#2139 = ORIENTED_EDGE('',*,*,#1815,.T.);
#2140 = ORIENTED_EDGE('',*,*,#2124,.F.);
#2141 = ORIENTED_EDGE('',*,*,#1745,.F.);
#2142 = PLANE('',#2143);
#2143 = AXIS2_PLACEMENT_3D('',#2144,#2145,#2146);
#2144 = CARTESIAN_POINT('',(29.7,1.,-47.2));
#2145 = DIRECTION('',(0.,2.2E-16,1.));
#2146 = DIRECTION('',(-1.,0.,0.));
#2147 = ADVANCED_FACE('',(#2148),#2154,.T.);
#2148 = FACE_BOUND('',#2149,.T.);
#2149 = EDGE_LOOP('',(#2150,#2151,#2152,#2153));
#2150 = ORIENTED_EDGE('',*,*,#2117,.T.);
#2151 = ORIENTED_EDGE('',*,*,#1799,.T.);
#2152 = ORIENTED_EDGE('',*,*,#2032,.F.);
#2153 = ORIENTED_EDGE('',*,*,#1729,.F.);
#2154 = PLANE('',#2155);
#2155 = AXIS2_PLACEMENT_3D('',#2156,#2157,#2158);
#2156 = CARTESIAN_POINT('',(-29.5,1.,50.2));
#2157 = DIRECTION('',(0.,-2.2E-16,-1.));
#2158 = DIRECTION('',(1.,0.,0.));
#2159 = ADVANCED_FACE('',(#2160),#2185,.F.);
#2160 = FACE_BOUND('',#2161,.F.);
#2161 = EDGE_LOOP('',(#2162,#2170,#2178,#2184));
#2162 = ORIENTED_EDGE('',*,*,#2163,.T.);
#2163 = EDGE_CURVE('',#1838,#2164,#2166,.T.);
#2164 = VERTEX_POINT('',#2165);
#2165 = CARTESIAN_POINT('',(-22.,5.,-54.75));
#2166 = LINE('',#2167,#2168);
#2167 = CARTESIAN_POINT('',(-22.,6.5,-54.75));
#2168 = VECTOR('',#2169,1.);
#2169 = DIRECTION('',(0.,-1.,2.2E-16));
#2170 = ORIENTED_EDGE('',*,*,#2171,.T.);
#2171 = EDGE_CURVE('',#2164,#2172,#2174,.T.);
#2172 = VERTEX_POINT('',#2173);
#2173 = CARTESIAN_POINT('',(-22.,5.,-48.75));
#2174 = LINE('',#2175,#2176);
#2175 = CARTESIAN_POINT('',(-22.,5.,-54.75));
#2176 = VECTOR('',#2177,1.);
#2177 = DIRECTION('',(0.,0.,1.));
#2178 = ORIENTED_EDGE('',*,*,#2179,.F.);
#2179 = EDGE_CURVE('',#1840,#2172,#2180,.T.);
#2180 = LINE('',#2181,#2182);
#2181 = CARTESIAN_POINT('',(-22.,6.5,-48.75));
#2182 = VECTOR('',#2183,1.);
#2183 = DIRECTION('',(0.,-1.,2.2E-16));
#2184 = ORIENTED_EDGE('',*,*,#1837,.F.);
#2185 = PLANE('',#2186);
#2186 = AXIS2_PLACEMENT_3D('',#2187,#2188,#2189);
#2187 = CARTESIAN_POINT('',(-22.,6.5,-54.75));
#2188 = DIRECTION('',(-1.,0.,0.));
#2189 = DIRECTION('',(0.,2.2E-16,1.));
#2190 = ADVANCED_FACE('',(#2191),#2209,.F.);
#2191 = FACE_BOUND('',#2192,.F.);
#2192 = EDGE_LOOP('',(#2193,#2201,#2207,#2208));
#2193 = ORIENTED_EDGE('',*,*,#2194,.T.);
#2194 = EDGE_CURVE('',#1848,#2195,#2197,.T.);
#2195 = VERTEX_POINT('',#2196);
#2196 = CARTESIAN_POINT('',(22.,5.,-54.75));
#2197 = LINE('',#2198,#2199);
#2198 = CARTESIAN_POINT('',(22.,6.5,-54.75));
#2199 = VECTOR('',#2200,1.);
#2200 = DIRECTION('',(0.,-1.,2.2E-16));
#2201 = ORIENTED_EDGE('',*,*,#2202,.T.);
#2202 = EDGE_CURVE('',#2195,#2164,#2203,.T.);
#2203 = LINE('',#2204,#2205);
#2204 = CARTESIAN_POINT('',(22.,5.,-54.75));
#2205 = VECTOR('',#2206,1.);
#2206 = DIRECTION('',(-1.,0.,0.));
#2207 = ORIENTED_EDGE('',*,*,#2163,.F.);
#2208 = ORIENTED_EDGE('',*,*,#1847,.F.);
#2209 = PLANE('',#2210);
#2210 = AXIS2_PLACEMENT_3D('',#2211,#2212,#2213);
#2211 = CARTESIAN_POINT('',(22.,6.5,-54.75));
#2212 = DIRECTION('',(-0.,-2.2E-16,-1.));
#2213 = DIRECTION('',(-1.,0.,0.));
#2214 = ADVANCED_FACE('',(#2215),#2233,.F.);
#2215 = FACE_BOUND('',#2216,.F.);
#2216 = EDGE_LOOP('',(#2217,#2218,#2226,#2232));
#2217 = ORIENTED_EDGE('',*,*,#2179,.T.);
#2218 = ORIENTED_EDGE('',*,*,#2219,.T.);
#2219 = EDGE_CURVE('',#2172,#2220,#2222,.T.);
#2220 = VERTEX_POINT('',#2221);
#2221 = CARTESIAN_POINT('',(22.,5.,-48.75));
#2222 = LINE('',#2223,#2224);
#2223 = CARTESIAN_POINT('',(-22.,5.,-48.75));
#2224 = VECTOR('',#2225,1.);
#2225 = DIRECTION('',(1.,0.,0.));
#2226 = ORIENTED_EDGE('',*,*,#2227,.F.);
#2227 = EDGE_CURVE('',#1856,#2220,#2228,.T.);
#2228 = LINE('',#2229,#2230);
#2229 = CARTESIAN_POINT('',(22.,6.5,-48.75));
#2230 = VECTOR('',#2231,1.);
#2231 = DIRECTION('',(0.,-1.,2.2E-16));
#2232 = ORIENTED_EDGE('',*,*,#1863,.F.);
#2233 = PLANE('',#2234);
#2234 = AXIS2_PLACEMENT_3D('',#2235,#2236,#2237);
#2235 = CARTESIAN_POINT('',(-22.,6.5,-48.75));
#2236 = DIRECTION('',(0.,2.2E-16,1.));
#2237 = DIRECTION('',(1.,0.,0.));
#2238 = ADVANCED_FACE('',(#2239),#2250,.F.);
#2239 = FACE_BOUND('',#2240,.F.);
#2240 = EDGE_LOOP('',(#2241,#2242,#2248,#2249));
#2241 = ORIENTED_EDGE('',*,*,#2227,.T.);
#2242 = ORIENTED_EDGE('',*,*,#2243,.T.);
#2243 = EDGE_CURVE('',#2220,#2195,#2244,.T.);
#2244 = LINE('',#2245,#2246);
#2245 = CARTESIAN_POINT('',(22.,5.,-48.75));
#2246 = VECTOR('',#2247,1.);
#2247 = DIRECTION('',(0.,0.,-1.));
#2248 = ORIENTED_EDGE('',*,*,#2194,.F.);
#2249 = ORIENTED_EDGE('',*,*,#1855,.F.);
#2250 = PLANE('',#2251);
#2251 = AXIS2_PLACEMENT_3D('',#2252,#2253,#2254);
#2252 = CARTESIAN_POINT('',(22.,6.5,-48.75));
#2253 = DIRECTION('',(1.,0.,0.));
#2254 = DIRECTION('',(0.,-2.2E-16,-1.));
#2255 = ADVANCED_FACE('',(#2256),#2262,.T.);
#2256 = FACE_BOUND('',#2257,.T.);
#2257 = EDGE_LOOP('',(#2258,#2259,#2260,#2261));
#2258 = ORIENTED_EDGE('',*,*,#2171,.T.);
#2259 = ORIENTED_EDGE('',*,*,#2219,.T.);
#2260 = ORIENTED_EDGE('',*,*,#2243,.T.);
#2261 = ORIENTED_EDGE('',*,*,#2202,.T.);
#2262 = PLANE('',#2263);
#2263 = AXIS2_PLACEMENT_3D('',#2264,#2265,#2266);
#2264 = CARTESIAN_POINT('',(2.84E-15,5.,-51.75));
#2265 = DIRECTION('',(0.,1.,-3.E-16));
#2266 = DIRECTION('',(0.,3.E-16,1.));
#2267 = ( GEOMETRIC_REPRESENTATION_CONTEXT(3) 
GLOBAL_UNCERTAINTY_ASSIGNED_CONTEXT((#2271)) 
GLOBAL_UNIT_ASSIGNED_CONTEXT((#2268,#2269,#2270)) REPRESENTATION_CONTEXT
('Context #1','3D Context with UNIT and UNCERTAINTY') );
#2268 = ( LENGTH_UNIT() NAMED_UNIT(*) SI_UNIT(.MILLI.,.METRE.) );
#2269 = ( NAMED_UNIT(*) PLANE_ANGLE_UNIT() SI_UNIT($,.RADIAN.) );
#2270 = ( NAMED_UNIT(*) SI_UNIT($,.STERADIAN.) SOLID_ANGLE_UNIT() );
#2271 = UNCERTAINTY_MEASURE_WITH_UNIT(LENGTH_MEASURE(5.E-05),#2268,
  'distance_accuracy_value','confusion accuracy');
#2272 = PRODUCT_RELATED_PRODUCT_CATEGORY('part',$,(#7));
#2273 = MECHANICAL_DESIGN_GEOMETRIC_PRESENTATION_REPRESENTATION('',(
    #2274),#2267);
#2274 = STYLED_ITEM('color',(#2275),#15);
#2275 = PRESENTATION_STYLE_ASSIGNMENT((#2276,#2282));
#2276 = SURFACE_STYLE_USAGE(.BOTH.,#2277);
#2277 = SURFACE_SIDE_STYLE('',(#2278));
#2278 = SURFACE_STYLE_FILL_AREA(#2279);
#2279 = FILL_AREA_STYLE('',(#2280));
#2280 = FILL_AREA_STYLE_COLOUR('',#2281);
#2281 = COLOUR_RGB('',0.447058818107,0.474509808674,0.501960817233);
#2282 = CURVE_STYLE('',#2283,POSITIVE_LENGTH_MEASURE(0.1),#2284);
#2283 = DRAUGHTING_PRE_DEFINED_CURVE_FONT('continuous');
#2284 = COLOUR_RGB('',9.803921802644E-02,9.803921802644E-02,
  9.803921802644E-02);
ENDSEC;
END-ISO-10303-21;
