ISO-10303-21;
HEADER;
FILE_DESCRIPTION(('FreeCAD Model'),'2;1');
FILE_NAME('Open CASCADE Shape Model','2026-09-06T12:30:43',('FreeCAD'),(
    'FreeCAD'),'Open CASCADE STEP processor 7.8','FreeCAD','Unknown');
FILE_SCHEMA(('AUTOMOTIVE_DESIGN { 1 0 10303 214 1 1 1 1 }'));
ENDSEC;
DATA;
#1 = APPLICATION_PROTOCOL_DEFINITION('international standard',
  'automotive_design',2000,#2);
#2 = APPLICATION_CONTEXT(
  'core data for automotive mechanical design processes');
#3 = SHAPE_DEFINITION_REPRESENTATION(#4,#10);
#4 = PRODUCT_DEFINITION_SHAPE('','',#5);
#5 = PRODUCT_DEFINITION('design','',#6,#9);
#6 = PRODUCT_DEFINITION_FORMATION('','',#7);
#7 = PRODUCT('Open CASCADE STEP translator 7.8 251',
  'Open CASCADE STEP translator 7.8 251','',(#8));
#8 = PRODUCT_CONTEXT('',#2,'mechanical');
#9 = PRODUCT_DEFINITION_CONTEXT('part definition',#2,'design');
#10 = ADVANCED_BREP_SHAPE_REPRESENTATION('',(#11,#15),#981);
#11 = AXIS2_PLACEMENT_3D('',#12,#13,#14);
#12 = CARTESIAN_POINT('',(0.,0.,0.));
#13 = DIRECTION('',(0.,0.,1.));
#14 = DIRECTION('',(1.,0.,-0.));
#15 = MANIFOLD_SOLID_BREP('',#16);
#16 = CLOSED_SHELL('',(#17,#101,#126,#151,#182,#213,#244,#275,#300,#325,
    #350,#375,#391,#407,#455,#486,#502,#533,#549,#597,#622,#647,#730,
    #813,#825,#837,#855,#867,#879,#897,#915,#933,#951,#969));
#17 = ADVANCED_FACE('',(#18,#29,#40,#74,#85),#96,.T.);
#18 = FACE_BOUND('',#19,.T.);
#19 = EDGE_LOOP('',(#20));
#20 = ORIENTED_EDGE('',*,*,#21,.T.);
#21 = EDGE_CURVE('',#22,#22,#24,.T.);
#22 = VERTEX_POINT('',#23);
#23 = CARTESIAN_POINT('',(-11.95,12.5,24.));
#24 = CIRCLE('',#25,3.05);
#25 = AXIS2_PLACEMENT_3D('',#26,#27,#28);
#26 = CARTESIAN_POINT('',(-15.,12.5,24.));
#27 = DIRECTION('',(0.,-1.,0.));
#28 = DIRECTION('',(1.,0.,-2.22E-15));
#29 = FACE_BOUND('',#30,.T.);
#30 = EDGE_LOOP('',(#31));
#31 = ORIENTED_EDGE('',*,*,#32,.T.);
#32 = EDGE_CURVE('',#33,#33,#35,.T.);
#33 = VERTEX_POINT('',#34);
#34 = CARTESIAN_POINT('',(18.05,12.5,24.));
#35 = CIRCLE('',#36,3.05);
#36 = AXIS2_PLACEMENT_3D('',#37,#38,#39);
#37 = CARTESIAN_POINT('',(15.,12.5,24.));
#38 = DIRECTION('',(0.,-1.,0.));
#39 = DIRECTION('',(1.,0.,-2.22E-15));
#40 = FACE_BOUND('',#41,.T.);
#41 = EDGE_LOOP('',(#42,#52,#60,#68));
#42 = ORIENTED_EDGE('',*,*,#43,.F.);
#43 = EDGE_CURVE('',#44,#46,#48,.T.);
#44 = VERTEX_POINT('',#45);
#45 = CARTESIAN_POINT('',(-20.5,12.5,-44.));
#46 = VERTEX_POINT('',#47);
#47 = CARTESIAN_POINT('',(20.5,12.5,-44.));
#48 = LINE('',#49,#50);
#49 = CARTESIAN_POINT('',(-21.5,12.5,-44.));
#50 = VECTOR('',#51,1.);
#51 = DIRECTION('',(1.,0.,0.));
#52 = ORIENTED_EDGE('',*,*,#53,.T.);
#53 = EDGE_CURVE('',#44,#54,#56,.T.);
#54 = VERTEX_POINT('',#55);
#55 = CARTESIAN_POINT('',(-20.5,12.5,44.));
#56 = LINE('',#57,#58);
#57 = CARTESIAN_POINT('',(-20.5,12.5,-45.));
#58 = VECTOR('',#59,1.);
#59 = DIRECTION('',(0.,0.,1.));
#60 = ORIENTED_EDGE('',*,*,#61,.T.);
#61 = EDGE_CURVE('',#54,#62,#64,.T.);
#62 = VERTEX_POINT('',#63);
#63 = CARTESIAN_POINT('',(20.5,12.5,44.));
#64 = LINE('',#65,#66);
#65 = CARTESIAN_POINT('',(-21.5,12.5,44.));
#66 = VECTOR('',#67,1.);
#67 = DIRECTION('',(1.,0.,0.));
#68 = ORIENTED_EDGE('',*,*,#69,.F.);
#69 = EDGE_CURVE('',#46,#62,#70,.T.);
#70 = LINE('',#71,#72);
#71 = CARTESIAN_POINT('',(20.5,12.5,-45.));
#72 = VECTOR('',#73,1.);
#73 = DIRECTION('',(0.,0.,1.));
#74 = FACE_BOUND('',#75,.T.);
#75 = EDGE_LOOP('',(#76));
#76 = ORIENTED_EDGE('',*,*,#77,.T.);
#77 = EDGE_CURVE('',#78,#78,#80,.T.);
#78 = VERTEX_POINT('',#79);
#79 = CARTESIAN_POINT('',(18.05,12.5,-24.));
#80 = CIRCLE('',#81,3.05);
#81 = AXIS2_PLACEMENT_3D('',#82,#83,#84);
#82 = CARTESIAN_POINT('',(15.,12.5,-24.));
#83 = DIRECTION('',(0.,-1.,0.));
#84 = DIRECTION('',(1.,0.,-2.22E-15));
#85 = FACE_BOUND('',#86,.T.);
#86 = EDGE_LOOP('',(#87));
#87 = ORIENTED_EDGE('',*,*,#88,.T.);
#88 = EDGE_CURVE('',#89,#89,#91,.T.);
#89 = VERTEX_POINT('',#90);
#90 = CARTESIAN_POINT('',(-11.95,12.5,-24.));
#91 = CIRCLE('',#92,3.05);
#92 = AXIS2_PLACEMENT_3D('',#93,#94,#95);
#93 = CARTESIAN_POINT('',(-15.,12.5,-24.));
#94 = DIRECTION('',(0.,-1.,0.));
#95 = DIRECTION('',(1.,0.,-2.22E-15));
#96 = PLANE('',#97);
#97 = AXIS2_PLACEMENT_3D('',#98,#99,#100);
#98 = CARTESIAN_POINT('',(-21.5,12.5,-45.));
#99 = DIRECTION('',(0.,1.,0.));
#100 = DIRECTION('',(1.,0.,0.));
#101 = ADVANCED_FACE('',(#102),#121,.F.);
#102 = FACE_BOUND('',#103,.F.);
#103 = EDGE_LOOP('',(#104,#112,#113,#114));
#104 = ORIENTED_EDGE('',*,*,#105,.F.);
#105 = EDGE_CURVE('',#22,#106,#108,.T.);
#106 = VERTEX_POINT('',#107);
#107 = CARTESIAN_POINT('',(-13.4,10.7,24.));
#108 = LINE('',#109,#110);
#109 = CARTESIAN_POINT('',(-13.4,10.7,24.));
#110 = VECTOR('',#111,1.);
#111 = DIRECTION('',(-0.627329537873,-0.778753909083,1.39E-15));
#112 = ORIENTED_EDGE('',*,*,#21,.T.);
#113 = ORIENTED_EDGE('',*,*,#105,.T.);
#114 = ORIENTED_EDGE('',*,*,#115,.F.);
#115 = EDGE_CURVE('',#106,#106,#116,.T.);
#116 = CIRCLE('',#117,1.6);
#117 = AXIS2_PLACEMENT_3D('',#118,#119,#120);
#118 = CARTESIAN_POINT('',(-15.,10.7,24.));
#119 = DIRECTION('',(0.,-1.,0.));
#120 = DIRECTION('',(1.,0.,-2.22E-15));
#121 = CONICAL_SURFACE('',#122,1.6,0.678119307749);
#122 = AXIS2_PLACEMENT_3D('',#123,#124,#125);
#123 = CARTESIAN_POINT('',(-15.,10.7,24.));
#124 = DIRECTION('',(0.,1.,0.));
#125 = DIRECTION('',(1.,0.,-2.22E-15));
#126 = ADVANCED_FACE('',(#127),#146,.F.);
#127 = FACE_BOUND('',#128,.F.);
#128 = EDGE_LOOP('',(#129,#137,#138,#139));
#129 = ORIENTED_EDGE('',*,*,#130,.F.);
#130 = EDGE_CURVE('',#33,#131,#133,.T.);
#131 = VERTEX_POINT('',#132);
#132 = CARTESIAN_POINT('',(16.6,10.7,24.));
#133 = LINE('',#134,#135);
#134 = CARTESIAN_POINT('',(16.6,10.7,24.));
#135 = VECTOR('',#136,1.);
#136 = DIRECTION('',(-0.627329537873,-0.778753909083,1.39E-15));
#137 = ORIENTED_EDGE('',*,*,#32,.T.);
#138 = ORIENTED_EDGE('',*,*,#130,.T.);
#139 = ORIENTED_EDGE('',*,*,#140,.F.);
#140 = EDGE_CURVE('',#131,#131,#141,.T.);
#141 = CIRCLE('',#142,1.6);
#142 = AXIS2_PLACEMENT_3D('',#143,#144,#145);
#143 = CARTESIAN_POINT('',(15.,10.7,24.));
#144 = DIRECTION('',(0.,-1.,0.));
#145 = DIRECTION('',(1.,0.,-2.22E-15));
#146 = CONICAL_SURFACE('',#147,1.6,0.678119307749);
#147 = AXIS2_PLACEMENT_3D('',#148,#149,#150);
#148 = CARTESIAN_POINT('',(15.,10.7,24.));
#149 = DIRECTION('',(0.,1.,0.));
#150 = DIRECTION('',(1.,0.,-2.22E-15));
#151 = ADVANCED_FACE('',(#152),#177,.T.);
#152 = FACE_BOUND('',#153,.T.);
#153 = EDGE_LOOP('',(#154,#155,#163,#171));
#154 = ORIENTED_EDGE('',*,*,#43,.T.);
#155 = ORIENTED_EDGE('',*,*,#156,.T.);
#156 = EDGE_CURVE('',#46,#157,#159,.T.);
#157 = VERTEX_POINT('',#158);
#158 = CARTESIAN_POINT('',(20.5,11.5,-45.));
#159 = LINE('',#160,#161);
#160 = CARTESIAN_POINT('',(20.5,12.,-44.5));
#161 = VECTOR('',#162,1.);
#162 = DIRECTION('',(0.,-0.707106781187,-0.707106781187));
#163 = ORIENTED_EDGE('',*,*,#164,.F.);
#164 = EDGE_CURVE('',#165,#157,#167,.T.);
#165 = VERTEX_POINT('',#166);
#166 = CARTESIAN_POINT('',(-20.5,11.5,-45.));
#167 = LINE('',#168,#169);
#168 = CARTESIAN_POINT('',(-21.5,11.5,-45.));
#169 = VECTOR('',#170,1.);
#170 = DIRECTION('',(1.,0.,0.));
#171 = ORIENTED_EDGE('',*,*,#172,.F.);
#172 = EDGE_CURVE('',#44,#165,#173,.T.);
#173 = LINE('',#174,#175);
#174 = CARTESIAN_POINT('',(-20.5,12.,-44.5));
#175 = VECTOR('',#176,1.);
#176 = DIRECTION('',(0.,-0.707106781187,-0.707106781187));
#177 = PLANE('',#178);
#178 = AXIS2_PLACEMENT_3D('',#179,#180,#181);
#179 = CARTESIAN_POINT('',(-21.5,12.,-44.5));
#180 = DIRECTION('',(0.,0.707106781187,-0.707106781187));
#181 = DIRECTION('',(1.,0.,0.));
#182 = ADVANCED_FACE('',(#183),#208,.T.);
#183 = FACE_BOUND('',#184,.T.);
#184 = EDGE_LOOP('',(#185,#193,#201,#207));
#185 = ORIENTED_EDGE('',*,*,#186,.F.);
#186 = EDGE_CURVE('',#187,#44,#189,.T.);
#187 = VERTEX_POINT('',#188);
#188 = CARTESIAN_POINT('',(-21.5,11.5,-44.));
#189 = LINE('',#190,#191);
#190 = CARTESIAN_POINT('',(-21.25,11.75,-44.));
#191 = VECTOR('',#192,1.);
#192 = DIRECTION('',(0.707106781187,0.707106781187,1.25E-15));
#193 = ORIENTED_EDGE('',*,*,#194,.T.);
#194 = EDGE_CURVE('',#187,#195,#197,.T.);
#195 = VERTEX_POINT('',#196);
#196 = CARTESIAN_POINT('',(-21.5,11.5,44.));
#197 = LINE('',#198,#199);
#198 = CARTESIAN_POINT('',(-21.5,11.5,-45.));
#199 = VECTOR('',#200,1.);
#200 = DIRECTION('',(0.,0.,1.));
#201 = ORIENTED_EDGE('',*,*,#202,.F.);
#202 = EDGE_CURVE('',#54,#195,#203,.T.);
#203 = LINE('',#204,#205);
#204 = CARTESIAN_POINT('',(-21.,12.,44.));
#205 = VECTOR('',#206,1.);
#206 = DIRECTION('',(-0.707106781187,-0.707106781187,1.25E-15));
#207 = ORIENTED_EDGE('',*,*,#53,.F.);
#208 = PLANE('',#209);
#209 = AXIS2_PLACEMENT_3D('',#210,#211,#212);
#210 = CARTESIAN_POINT('',(-21.,12.,-45.));
#211 = DIRECTION('',(-0.707106781187,0.707106781187,0.));
#212 = DIRECTION('',(0.,0.,1.));
#213 = ADVANCED_FACE('',(#214),#239,.T.);
#214 = FACE_BOUND('',#215,.T.);
#215 = EDGE_LOOP('',(#216,#224,#225,#233));
#216 = ORIENTED_EDGE('',*,*,#217,.T.);
#217 = EDGE_CURVE('',#218,#46,#220,.T.);
#218 = VERTEX_POINT('',#219);
#219 = CARTESIAN_POINT('',(21.5,11.5,-44.));
#220 = LINE('',#221,#222);
#221 = CARTESIAN_POINT('',(21.25,11.75,-44.));
#222 = VECTOR('',#223,1.);
#223 = DIRECTION('',(-0.707106781187,0.707106781187,1.25E-15));
#224 = ORIENTED_EDGE('',*,*,#69,.T.);
#225 = ORIENTED_EDGE('',*,*,#226,.T.);
#226 = EDGE_CURVE('',#62,#227,#229,.T.);
#227 = VERTEX_POINT('',#228);
#228 = CARTESIAN_POINT('',(21.5,11.5,44.));
#229 = LINE('',#230,#231);
#230 = CARTESIAN_POINT('',(21.,12.,44.));
#231 = VECTOR('',#232,1.);
#232 = DIRECTION('',(0.707106781187,-0.707106781187,1.25E-15));
#233 = ORIENTED_EDGE('',*,*,#234,.F.);
#234 = EDGE_CURVE('',#218,#227,#235,.T.);
#235 = LINE('',#236,#237);
#236 = CARTESIAN_POINT('',(21.5,11.5,-45.));
#237 = VECTOR('',#238,1.);
#238 = DIRECTION('',(0.,0.,1.));
#239 = PLANE('',#240);
#240 = AXIS2_PLACEMENT_3D('',#241,#242,#243);
#241 = CARTESIAN_POINT('',(21.,12.,-45.));
#242 = DIRECTION('',(0.707106781187,0.707106781187,0.));
#243 = DIRECTION('',(0.,0.,1.));
#244 = ADVANCED_FACE('',(#245),#270,.T.);
#245 = FACE_BOUND('',#246,.F.);
#246 = EDGE_LOOP('',(#247,#255,#256,#264));
#247 = ORIENTED_EDGE('',*,*,#248,.T.);
#248 = EDGE_CURVE('',#249,#54,#251,.T.);
#249 = VERTEX_POINT('',#250);
#250 = CARTESIAN_POINT('',(-20.5,11.5,45.));
#251 = LINE('',#252,#253);
#252 = CARTESIAN_POINT('',(-20.5,11.75,44.75));
#253 = VECTOR('',#254,1.);
#254 = DIRECTION('',(2.5E-15,0.707106781187,-0.707106781187));
#255 = ORIENTED_EDGE('',*,*,#61,.T.);
#256 = ORIENTED_EDGE('',*,*,#257,.F.);
#257 = EDGE_CURVE('',#258,#62,#260,.T.);
#258 = VERTEX_POINT('',#259);
#259 = CARTESIAN_POINT('',(20.5,11.5,45.));
#260 = LINE('',#261,#262);
#261 = CARTESIAN_POINT('',(20.5,11.75,44.75));
#262 = VECTOR('',#263,1.);
#263 = DIRECTION('',(-2.5E-15,0.707106781187,-0.707106781187));
#264 = ORIENTED_EDGE('',*,*,#265,.F.);
#265 = EDGE_CURVE('',#249,#258,#266,.T.);
#266 = LINE('',#267,#268);
#267 = CARTESIAN_POINT('',(-21.5,11.5,45.));
#268 = VECTOR('',#269,1.);
#269 = DIRECTION('',(1.,0.,0.));
#270 = PLANE('',#271);
#271 = AXIS2_PLACEMENT_3D('',#272,#273,#274);
#272 = CARTESIAN_POINT('',(-21.5,12.,44.5));
#273 = DIRECTION('',(0.,0.707106781187,0.707106781187));
#274 = DIRECTION('',(-1.,0.,0.));
#275 = ADVANCED_FACE('',(#276),#295,.F.);
#276 = FACE_BOUND('',#277,.F.);
#277 = EDGE_LOOP('',(#278,#286,#287,#288));
#278 = ORIENTED_EDGE('',*,*,#279,.F.);
#279 = EDGE_CURVE('',#78,#280,#282,.T.);
#280 = VERTEX_POINT('',#281);
#281 = CARTESIAN_POINT('',(16.6,10.7,-24.));
#282 = LINE('',#283,#284);
#283 = CARTESIAN_POINT('',(16.6,10.7,-24.));
#284 = VECTOR('',#285,1.);
#285 = DIRECTION('',(-0.627329537873,-0.778753909083,1.39E-15));
#286 = ORIENTED_EDGE('',*,*,#77,.T.);
#287 = ORIENTED_EDGE('',*,*,#279,.T.);
#288 = ORIENTED_EDGE('',*,*,#289,.F.);
#289 = EDGE_CURVE('',#280,#280,#290,.T.);
#290 = CIRCLE('',#291,1.6);
#291 = AXIS2_PLACEMENT_3D('',#292,#293,#294);
#292 = CARTESIAN_POINT('',(15.,10.7,-24.));
#293 = DIRECTION('',(0.,-1.,0.));
#294 = DIRECTION('',(1.,0.,-2.22E-15));
#295 = CONICAL_SURFACE('',#296,1.6,0.678119307749);
#296 = AXIS2_PLACEMENT_3D('',#297,#298,#299);
#297 = CARTESIAN_POINT('',(15.,10.7,-24.));
#298 = DIRECTION('',(0.,1.,0.));
#299 = DIRECTION('',(1.,0.,-2.22E-15));
#300 = ADVANCED_FACE('',(#301),#320,.F.);
#301 = FACE_BOUND('',#302,.F.);
#302 = EDGE_LOOP('',(#303,#311,#312,#313));
#303 = ORIENTED_EDGE('',*,*,#304,.F.);
#304 = EDGE_CURVE('',#89,#305,#307,.T.);
#305 = VERTEX_POINT('',#306);
#306 = CARTESIAN_POINT('',(-13.4,10.7,-24.));
#307 = LINE('',#308,#309);
#308 = CARTESIAN_POINT('',(-13.4,10.7,-24.));
#309 = VECTOR('',#310,1.);
#310 = DIRECTION('',(-0.627329537873,-0.778753909083,1.39E-15));
#311 = ORIENTED_EDGE('',*,*,#88,.T.);
#312 = ORIENTED_EDGE('',*,*,#304,.T.);
#313 = ORIENTED_EDGE('',*,*,#314,.F.);
#314 = EDGE_CURVE('',#305,#305,#315,.T.);
#315 = CIRCLE('',#316,1.6);
#316 = AXIS2_PLACEMENT_3D('',#317,#318,#319);
#317 = CARTESIAN_POINT('',(-15.,10.7,-24.));
#318 = DIRECTION('',(0.,-1.,0.));
#319 = DIRECTION('',(1.,0.,-2.22E-15));
#320 = CONICAL_SURFACE('',#321,1.6,0.678119307749);
#321 = AXIS2_PLACEMENT_3D('',#322,#323,#324);
#322 = CARTESIAN_POINT('',(-15.,10.7,-24.));
#323 = DIRECTION('',(0.,1.,0.));
#324 = DIRECTION('',(1.,0.,-2.22E-15));
#325 = ADVANCED_FACE('',(#326),#345,.F.);
#326 = FACE_BOUND('',#327,.F.);
#327 = EDGE_LOOP('',(#328,#336,#343,#344));
#328 = ORIENTED_EDGE('',*,*,#329,.F.);
#329 = EDGE_CURVE('',#330,#106,#332,.T.);
#330 = VERTEX_POINT('',#331);
#331 = CARTESIAN_POINT('',(-13.4,5.E-15,24.));
#332 = LINE('',#333,#334);
#333 = CARTESIAN_POINT('',(-13.4,5.33E-15,24.));
#334 = VECTOR('',#335,1.);
#335 = DIRECTION('',(0.,1.,-2.2E-16));
#336 = ORIENTED_EDGE('',*,*,#337,.F.);
#337 = EDGE_CURVE('',#330,#330,#338,.T.);
#338 = CIRCLE('',#339,1.6);
#339 = AXIS2_PLACEMENT_3D('',#340,#341,#342);
#340 = CARTESIAN_POINT('',(-15.,0.,24.));
#341 = DIRECTION('',(0.,-1.,0.));
#342 = DIRECTION('',(1.,0.,0.));
#343 = ORIENTED_EDGE('',*,*,#329,.T.);
#344 = ORIENTED_EDGE('',*,*,#115,.T.);
#345 = CYLINDRICAL_SURFACE('',#346,1.6);
#346 = AXIS2_PLACEMENT_3D('',#347,#348,#349);
#347 = CARTESIAN_POINT('',(-15.,5.33E-15,24.));
#348 = DIRECTION('',(0.,-1.,2.2E-16));
#349 = DIRECTION('',(1.,0.,0.));
#350 = ADVANCED_FACE('',(#351),#370,.F.);
#351 = FACE_BOUND('',#352,.F.);
#352 = EDGE_LOOP('',(#353,#361,#368,#369));
#353 = ORIENTED_EDGE('',*,*,#354,.F.);
#354 = EDGE_CURVE('',#355,#131,#357,.T.);
#355 = VERTEX_POINT('',#356);
#356 = CARTESIAN_POINT('',(16.6,5.E-15,24.));
#357 = LINE('',#358,#359);
#358 = CARTESIAN_POINT('',(16.6,5.33E-15,24.));
#359 = VECTOR('',#360,1.);
#360 = DIRECTION('',(0.,1.,-2.2E-16));
#361 = ORIENTED_EDGE('',*,*,#362,.F.);
#362 = EDGE_CURVE('',#355,#355,#363,.T.);
#363 = CIRCLE('',#364,1.6);
#364 = AXIS2_PLACEMENT_3D('',#365,#366,#367);
#365 = CARTESIAN_POINT('',(15.,0.,24.));
#366 = DIRECTION('',(0.,-1.,0.));
#367 = DIRECTION('',(1.,0.,0.));
#368 = ORIENTED_EDGE('',*,*,#354,.T.);
#369 = ORIENTED_EDGE('',*,*,#140,.T.);
#370 = CYLINDRICAL_SURFACE('',#371,1.6);
#371 = AXIS2_PLACEMENT_3D('',#372,#373,#374);
#372 = CARTESIAN_POINT('',(15.,5.33E-15,24.));
#373 = DIRECTION('',(0.,-1.,2.2E-16));
#374 = DIRECTION('',(1.,0.,0.));
#375 = ADVANCED_FACE('',(#376),#386,.F.);
#376 = FACE_BOUND('',#377,.F.);
#377 = EDGE_LOOP('',(#378,#379,#385));
#378 = ORIENTED_EDGE('',*,*,#186,.F.);
#379 = ORIENTED_EDGE('',*,*,#380,.T.);
#380 = EDGE_CURVE('',#187,#165,#381,.T.);
#381 = LINE('',#382,#383);
#382 = CARTESIAN_POINT('',(-21.25,11.5,-44.25));
#383 = VECTOR('',#384,1.);
#384 = DIRECTION('',(0.707106781187,-1.25E-15,-0.707106781187));
#385 = ORIENTED_EDGE('',*,*,#172,.F.);
#386 = PLANE('',#387);
#387 = AXIS2_PLACEMENT_3D('',#388,#389,#390);
#388 = CARTESIAN_POINT('',(-21.5,11.5,-44.));
#389 = DIRECTION('',(0.57735026919,-0.57735026919,0.57735026919));
#390 = DIRECTION('',(0.,-0.707106781187,-0.707106781187));
#391 = ADVANCED_FACE('',(#392),#402,.T.);
#392 = FACE_BOUND('',#393,.T.);
#393 = EDGE_LOOP('',(#394,#395,#401));
#394 = ORIENTED_EDGE('',*,*,#217,.F.);
#395 = ORIENTED_EDGE('',*,*,#396,.T.);
#396 = EDGE_CURVE('',#218,#157,#397,.T.);
#397 = LINE('',#398,#399);
#398 = CARTESIAN_POINT('',(21.25,11.5,-44.25));
#399 = VECTOR('',#400,1.);
#400 = DIRECTION('',(-0.707106781187,-1.25E-15,-0.707106781187));
#401 = ORIENTED_EDGE('',*,*,#156,.F.);
#402 = PLANE('',#403);
#403 = AXIS2_PLACEMENT_3D('',#404,#405,#406);
#404 = CARTESIAN_POINT('',(21.5,11.5,-44.));
#405 = DIRECTION('',(0.57735026919,0.57735026919,-0.57735026919));
#406 = DIRECTION('',(0.,-0.707106781187,-0.707106781187));
#407 = ADVANCED_FACE('',(#408),#450,.T.);
#408 = FACE_BOUND('',#409,.T.);
#409 = EDGE_LOOP('',(#410,#420,#426,#427,#435,#443));
#410 = ORIENTED_EDGE('',*,*,#411,.T.);
#411 = EDGE_CURVE('',#412,#414,#416,.T.);
#412 = VERTEX_POINT('',#413);
#413 = CARTESIAN_POINT('',(-5.5,1.E-15,-45.));
#414 = VERTEX_POINT('',#415);
#415 = CARTESIAN_POINT('',(-20.5,0.,-45.));
#416 = LINE('',#417,#418);
#417 = CARTESIAN_POINT('',(-7.55,0.,-45.));
#418 = VECTOR('',#419,1.);
#419 = DIRECTION('',(-1.,0.,0.));
#420 = ORIENTED_EDGE('',*,*,#421,.T.);
#421 = EDGE_CURVE('',#414,#165,#422,.T.);
#422 = LINE('',#423,#424);
#423 = CARTESIAN_POINT('',(-20.5,0.,-45.));
#424 = VECTOR('',#425,1.);
#425 = DIRECTION('',(0.,1.,0.));
#426 = ORIENTED_EDGE('',*,*,#164,.T.);
#427 = ORIENTED_EDGE('',*,*,#428,.T.);
#428 = EDGE_CURVE('',#157,#429,#431,.T.);
#429 = VERTEX_POINT('',#430);
#430 = CARTESIAN_POINT('',(20.5,0.,-45.));
#431 = LINE('',#432,#433);
#432 = CARTESIAN_POINT('',(20.5,12.5,-45.));
#433 = VECTOR('',#434,1.);
#434 = DIRECTION('',(0.,-1.,0.));
#435 = ORIENTED_EDGE('',*,*,#436,.T.);
#436 = EDGE_CURVE('',#429,#437,#439,.T.);
#437 = VERTEX_POINT('',#438);
#438 = CARTESIAN_POINT('',(5.5,0.,-45.));
#439 = LINE('',#440,#441);
#440 = CARTESIAN_POINT('',(-7.55,0.,-45.));
#441 = VECTOR('',#442,1.);
#442 = DIRECTION('',(-1.,0.,0.));
#443 = ORIENTED_EDGE('',*,*,#444,.T.);
#444 = EDGE_CURVE('',#437,#412,#445,.T.);
#445 = CIRCLE('',#446,5.5);
#446 = AXIS2_PLACEMENT_3D('',#447,#448,#449);
#447 = CARTESIAN_POINT('',(0.,0.,-45.));
#448 = DIRECTION('',(0.,0.,1.));
#449 = DIRECTION('',(1.,0.,0.));
#450 = PLANE('',#451);
#451 = AXIS2_PLACEMENT_3D('',#452,#453,#454);
#452 = CARTESIAN_POINT('',(2.6E-16,6.25,-45.));
#453 = DIRECTION('',(-0.,-0.,-1.));
#454 = DIRECTION('',(-1.,0.,0.));
#455 = ADVANCED_FACE('',(#456),#481,.T.);
#456 = FACE_BOUND('',#457,.T.);
#457 = EDGE_LOOP('',(#458,#468,#474,#475));
#458 = ORIENTED_EDGE('',*,*,#459,.T.);
#459 = EDGE_CURVE('',#460,#462,#464,.T.);
#460 = VERTEX_POINT('',#461);
#461 = CARTESIAN_POINT('',(-21.5,0.,-44.));
#462 = VERTEX_POINT('',#463);
#463 = CARTESIAN_POINT('',(-21.5,0.,44.));
#464 = LINE('',#465,#466);
#465 = CARTESIAN_POINT('',(-21.5,0.,-45.));
#466 = VECTOR('',#467,1.);
#467 = DIRECTION('',(0.,0.,1.));
#468 = ORIENTED_EDGE('',*,*,#469,.T.);
#469 = EDGE_CURVE('',#462,#195,#470,.T.);
#470 = LINE('',#471,#472);
#471 = CARTESIAN_POINT('',(-21.5,0.,44.));
#472 = VECTOR('',#473,1.);
#473 = DIRECTION('',(0.,1.,0.));
#474 = ORIENTED_EDGE('',*,*,#194,.F.);
#475 = ORIENTED_EDGE('',*,*,#476,.F.);
#476 = EDGE_CURVE('',#460,#187,#477,.T.);
#477 = LINE('',#478,#479);
#478 = CARTESIAN_POINT('',(-21.5,0.,-44.));
#479 = VECTOR('',#480,1.);
#480 = DIRECTION('',(0.,1.,0.));
#481 = PLANE('',#482);
#482 = AXIS2_PLACEMENT_3D('',#483,#484,#485);
#483 = CARTESIAN_POINT('',(-21.5,0.,-45.));
#484 = DIRECTION('',(-1.,0.,0.));
#485 = DIRECTION('',(0.,1.,0.));
#486 = ADVANCED_FACE('',(#487),#497,.F.);
#487 = FACE_BOUND('',#488,.F.);
#488 = EDGE_LOOP('',(#489,#490,#496));
#489 = ORIENTED_EDGE('',*,*,#248,.F.);
#490 = ORIENTED_EDGE('',*,*,#491,.T.);
#491 = EDGE_CURVE('',#249,#195,#492,.T.);
#492 = LINE('',#493,#494);
#493 = CARTESIAN_POINT('',(-20.75,11.5,44.75));
#494 = VECTOR('',#495,1.);
#495 = DIRECTION('',(-0.707106781187,-1.25E-15,-0.707106781187));
#496 = ORIENTED_EDGE('',*,*,#202,.F.);
#497 = PLANE('',#498);
#498 = AXIS2_PLACEMENT_3D('',#499,#500,#501);
#499 = CARTESIAN_POINT('',(-20.5,11.5,45.));
#500 = DIRECTION('',(0.57735026919,-0.57735026919,-0.57735026919));
#501 = DIRECTION('',(-0.707106781187,-0.707106781187,-2.775557561563E-17
    ));
#502 = ADVANCED_FACE('',(#503),#528,.T.);
#503 = FACE_BOUND('',#504,.T.);
#504 = EDGE_LOOP('',(#505,#515,#521,#522));
#505 = ORIENTED_EDGE('',*,*,#506,.F.);
#506 = EDGE_CURVE('',#507,#509,#511,.T.);
#507 = VERTEX_POINT('',#508);
#508 = CARTESIAN_POINT('',(21.5,0.,-44.));
#509 = VERTEX_POINT('',#510);
#510 = CARTESIAN_POINT('',(21.5,0.,44.));
#511 = LINE('',#512,#513);
#512 = CARTESIAN_POINT('',(21.5,0.,-45.));
#513 = VECTOR('',#514,1.);
#514 = DIRECTION('',(0.,0.,1.));
#515 = ORIENTED_EDGE('',*,*,#516,.F.);
#516 = EDGE_CURVE('',#218,#507,#517,.T.);
#517 = LINE('',#518,#519);
#518 = CARTESIAN_POINT('',(21.5,12.5,-44.));
#519 = VECTOR('',#520,1.);
#520 = DIRECTION('',(0.,-1.,0.));
#521 = ORIENTED_EDGE('',*,*,#234,.T.);
#522 = ORIENTED_EDGE('',*,*,#523,.T.);
#523 = EDGE_CURVE('',#227,#509,#524,.T.);
#524 = LINE('',#525,#526);
#525 = CARTESIAN_POINT('',(21.5,12.5,44.));
#526 = VECTOR('',#527,1.);
#527 = DIRECTION('',(0.,-1.,0.));
#528 = PLANE('',#529);
#529 = AXIS2_PLACEMENT_3D('',#530,#531,#532);
#530 = CARTESIAN_POINT('',(21.5,12.5,-45.));
#531 = DIRECTION('',(1.,0.,0.));
#532 = DIRECTION('',(0.,-1.,0.));
#533 = ADVANCED_FACE('',(#534),#544,.T.);
#534 = FACE_BOUND('',#535,.T.);
#535 = EDGE_LOOP('',(#536,#537,#543));
#536 = ORIENTED_EDGE('',*,*,#257,.F.);
#537 = ORIENTED_EDGE('',*,*,#538,.T.);
#538 = EDGE_CURVE('',#258,#227,#539,.T.);
#539 = LINE('',#540,#541);
#540 = CARTESIAN_POINT('',(20.75,11.5,44.75));
#541 = VECTOR('',#542,1.);
#542 = DIRECTION('',(0.707106781187,-1.25E-15,-0.707106781187));
#543 = ORIENTED_EDGE('',*,*,#226,.F.);
#544 = PLANE('',#545);
#545 = AXIS2_PLACEMENT_3D('',#546,#547,#548);
#546 = CARTESIAN_POINT('',(20.5,11.5,45.));
#547 = DIRECTION('',(0.57735026919,0.57735026919,0.57735026919));
#548 = DIRECTION('',(0.707106781187,-0.707106781187,-2.775557561563E-17)
  );
#549 = ADVANCED_FACE('',(#550),#592,.T.);
#550 = FACE_BOUND('',#551,.T.);
#551 = EDGE_LOOP('',(#552,#562,#568,#569,#577,#585));
#552 = ORIENTED_EDGE('',*,*,#553,.F.);
#553 = EDGE_CURVE('',#554,#556,#558,.T.);
#554 = VERTEX_POINT('',#555);
#555 = CARTESIAN_POINT('',(20.5,0.,45.));
#556 = VERTEX_POINT('',#557);
#557 = CARTESIAN_POINT('',(5.5,0.,45.));
#558 = LINE('',#559,#560);
#559 = CARTESIAN_POINT('',(21.5,0.,45.));
#560 = VECTOR('',#561,1.);
#561 = DIRECTION('',(-1.,0.,0.));
#562 = ORIENTED_EDGE('',*,*,#563,.F.);
#563 = EDGE_CURVE('',#258,#554,#564,.T.);
#564 = LINE('',#565,#566);
#565 = CARTESIAN_POINT('',(20.5,12.5,45.));
#566 = VECTOR('',#567,1.);
#567 = DIRECTION('',(0.,-1.,0.));
#568 = ORIENTED_EDGE('',*,*,#265,.F.);
#569 = ORIENTED_EDGE('',*,*,#570,.F.);
#570 = EDGE_CURVE('',#571,#249,#573,.T.);
#571 = VERTEX_POINT('',#572);
#572 = CARTESIAN_POINT('',(-20.5,0.,45.));
#573 = LINE('',#574,#575);
#574 = CARTESIAN_POINT('',(-20.5,0.,45.));
#575 = VECTOR('',#576,1.);
#576 = DIRECTION('',(0.,1.,0.));
#577 = ORIENTED_EDGE('',*,*,#578,.F.);
#578 = EDGE_CURVE('',#579,#571,#581,.T.);
#579 = VERTEX_POINT('',#580);
#580 = CARTESIAN_POINT('',(-5.5,1.E-15,45.));
#581 = LINE('',#582,#583);
#582 = CARTESIAN_POINT('',(21.5,0.,45.));
#583 = VECTOR('',#584,1.);
#584 = DIRECTION('',(-1.,0.,0.));
#585 = ORIENTED_EDGE('',*,*,#586,.F.);
#586 = EDGE_CURVE('',#556,#579,#587,.T.);
#587 = CIRCLE('',#588,5.5);
#588 = AXIS2_PLACEMENT_3D('',#589,#590,#591);
#589 = CARTESIAN_POINT('',(0.,0.,45.));
#590 = DIRECTION('',(0.,0.,1.));
#591 = DIRECTION('',(1.,0.,0.));
#592 = PLANE('',#593);
#593 = AXIS2_PLACEMENT_3D('',#594,#595,#596);
#594 = CARTESIAN_POINT('',(0.,6.25,45.));
#595 = DIRECTION('',(0.,0.,1.));
#596 = DIRECTION('',(1.,0.,0.));
#597 = ADVANCED_FACE('',(#598),#617,.F.);
#598 = FACE_BOUND('',#599,.F.);
#599 = EDGE_LOOP('',(#600,#608,#615,#616));
#600 = ORIENTED_EDGE('',*,*,#601,.F.);
#601 = EDGE_CURVE('',#602,#280,#604,.T.);
#602 = VERTEX_POINT('',#603);
#603 = CARTESIAN_POINT('',(16.6,-5.E-15,-24.));
#604 = LINE('',#605,#606);
#605 = CARTESIAN_POINT('',(16.6,-5.33E-15,-24.));
#606 = VECTOR('',#607,1.);
#607 = DIRECTION('',(0.,1.,-2.2E-16));
#608 = ORIENTED_EDGE('',*,*,#609,.F.);
#609 = EDGE_CURVE('',#602,#602,#610,.T.);
#610 = CIRCLE('',#611,1.6);
#611 = AXIS2_PLACEMENT_3D('',#612,#613,#614);
#612 = CARTESIAN_POINT('',(15.,0.,-24.));
#613 = DIRECTION('',(0.,-1.,0.));
#614 = DIRECTION('',(1.,0.,0.));
#615 = ORIENTED_EDGE('',*,*,#601,.T.);
#616 = ORIENTED_EDGE('',*,*,#289,.T.);
#617 = CYLINDRICAL_SURFACE('',#618,1.6);
#618 = AXIS2_PLACEMENT_3D('',#619,#620,#621);
#619 = CARTESIAN_POINT('',(15.,-5.33E-15,-24.));
#620 = DIRECTION('',(0.,-1.,2.2E-16));
#621 = DIRECTION('',(1.,0.,0.));
#622 = ADVANCED_FACE('',(#623),#642,.F.);
#623 = FACE_BOUND('',#624,.F.);
#624 = EDGE_LOOP('',(#625,#633,#640,#641));
#625 = ORIENTED_EDGE('',*,*,#626,.F.);
#626 = EDGE_CURVE('',#627,#305,#629,.T.);
#627 = VERTEX_POINT('',#628);
#628 = CARTESIAN_POINT('',(-13.4,-5.E-15,-24.));
#629 = LINE('',#630,#631);
#630 = CARTESIAN_POINT('',(-13.4,-5.33E-15,-24.));
#631 = VECTOR('',#632,1.);
#632 = DIRECTION('',(0.,1.,-2.2E-16));
#633 = ORIENTED_EDGE('',*,*,#634,.F.);
#634 = EDGE_CURVE('',#627,#627,#635,.T.);
#635 = CIRCLE('',#636,1.6);
#636 = AXIS2_PLACEMENT_3D('',#637,#638,#639);
#637 = CARTESIAN_POINT('',(-15.,0.,-24.));
#638 = DIRECTION('',(0.,-1.,0.));
#639 = DIRECTION('',(1.,0.,0.));
#640 = ORIENTED_EDGE('',*,*,#626,.T.);
#641 = ORIENTED_EDGE('',*,*,#314,.T.);
#642 = CYLINDRICAL_SURFACE('',#643,1.6);
#643 = AXIS2_PLACEMENT_3D('',#644,#645,#646);
#644 = CARTESIAN_POINT('',(-15.,-5.33E-15,-24.));
#645 = DIRECTION('',(0.,-1.,2.2E-16));
#646 = DIRECTION('',(1.,0.,0.));
#647 = ADVANCED_FACE('',(#648,#719,#722),#725,.T.);
#648 = FACE_BOUND('',#649,.T.);
#649 = EDGE_LOOP('',(#650,#651,#659,#667,#675,#683,#691,#699,#705,#706,
    #712,#713));
#650 = ORIENTED_EDGE('',*,*,#411,.F.);
#651 = ORIENTED_EDGE('',*,*,#652,.T.);
#652 = EDGE_CURVE('',#412,#653,#655,.T.);
#653 = VERTEX_POINT('',#654);
#654 = CARTESIAN_POINT('',(-4.5,1.E-15,-44.));
#655 = LINE('',#656,#657);
#656 = CARTESIAN_POINT('',(0.,0.,-39.5));
#657 = VECTOR('',#658,1.);
#658 = DIRECTION('',(0.707106781187,0.,0.707106781187));
#659 = ORIENTED_EDGE('',*,*,#660,.T.);
#660 = EDGE_CURVE('',#653,#661,#663,.T.);
#661 = VERTEX_POINT('',#662);
#662 = CARTESIAN_POINT('',(-4.5,-5.E-15,-22.55));
#663 = LINE('',#664,#665);
#664 = CARTESIAN_POINT('',(-4.5,0.,45.));
#665 = VECTOR('',#666,1.);
#666 = DIRECTION('',(0.,0.,1.));
#667 = ORIENTED_EDGE('',*,*,#668,.T.);
#668 = EDGE_CURVE('',#661,#669,#671,.T.);
#669 = VERTEX_POINT('',#670);
#670 = CARTESIAN_POINT('',(-7.55,-2.E-15,-22.55));
#671 = LINE('',#672,#673);
#672 = CARTESIAN_POINT('',(8.,0.,-22.55));
#673 = VECTOR('',#674,1.);
#674 = DIRECTION('',(-1.,0.,0.));
#675 = ORIENTED_EDGE('',*,*,#676,.T.);
#676 = EDGE_CURVE('',#669,#677,#679,.T.);
#677 = VERTEX_POINT('',#678);
#678 = CARTESIAN_POINT('',(-7.55,3.E-15,22.55));
#679 = LINE('',#680,#681);
#680 = CARTESIAN_POINT('',(-7.55,4.6E-16,-45.));
#681 = VECTOR('',#682,1.);
#682 = DIRECTION('',(0.,0.,1.));
#683 = ORIENTED_EDGE('',*,*,#684,.F.);
#684 = EDGE_CURVE('',#685,#677,#687,.T.);
#685 = VERTEX_POINT('',#686);
#686 = CARTESIAN_POINT('',(-4.5,5.E-15,22.55));
#687 = LINE('',#688,#689);
#688 = CARTESIAN_POINT('',(8.,0.,22.55));
#689 = VECTOR('',#690,1.);
#690 = DIRECTION('',(-1.,0.,0.));
#691 = ORIENTED_EDGE('',*,*,#692,.T.);
#692 = EDGE_CURVE('',#685,#693,#695,.T.);
#693 = VERTEX_POINT('',#694);
#694 = CARTESIAN_POINT('',(-4.5,1.E-15,44.));
#695 = LINE('',#696,#697);
#696 = CARTESIAN_POINT('',(-4.5,0.,45.));
#697 = VECTOR('',#698,1.);
#698 = DIRECTION('',(0.,0.,1.));
#699 = ORIENTED_EDGE('',*,*,#700,.F.);
#700 = EDGE_CURVE('',#579,#693,#701,.T.);
#701 = LINE('',#702,#703);
#702 = CARTESIAN_POINT('',(0.,0.,39.5));
#703 = VECTOR('',#704,1.);
#704 = DIRECTION('',(0.707106781187,0.,-0.707106781187));
#705 = ORIENTED_EDGE('',*,*,#578,.T.);
#706 = ORIENTED_EDGE('',*,*,#707,.F.);
#707 = EDGE_CURVE('',#462,#571,#708,.T.);
#708 = LINE('',#709,#710);
#709 = CARTESIAN_POINT('',(-26.875,0.,38.625));
#710 = VECTOR('',#711,1.);
#711 = DIRECTION('',(0.707106781187,0.,0.707106781187));
#712 = ORIENTED_EDGE('',*,*,#459,.F.);
#713 = ORIENTED_EDGE('',*,*,#714,.T.);
#714 = EDGE_CURVE('',#460,#414,#715,.T.);
#715 = LINE('',#716,#717);
#716 = CARTESIAN_POINT('',(-26.875,0.,-38.625));
#717 = VECTOR('',#718,1.);
#718 = DIRECTION('',(0.707106781187,0.,-0.707106781187));
#719 = FACE_BOUND('',#720,.T.);
#720 = EDGE_LOOP('',(#721));
#721 = ORIENTED_EDGE('',*,*,#337,.F.);
#722 = FACE_BOUND('',#723,.T.);
#723 = EDGE_LOOP('',(#724));
#724 = ORIENTED_EDGE('',*,*,#634,.F.);
#725 = PLANE('',#726);
#726 = AXIS2_PLACEMENT_3D('',#727,#728,#729);
#727 = CARTESIAN_POINT('',(0.,0.,0.));
#728 = DIRECTION('',(-0.,-1.,-0.));
#729 = DIRECTION('',(0.,0.,-1.));
#730 = ADVANCED_FACE('',(#731,#802,#805),#808,.T.);
#731 = FACE_BOUND('',#732,.T.);
#732 = EDGE_LOOP('',(#733,#734,#740,#741,#747,#748,#756,#764,#772,#780,
    #788,#796));
#733 = ORIENTED_EDGE('',*,*,#436,.F.);
#734 = ORIENTED_EDGE('',*,*,#735,.T.);
#735 = EDGE_CURVE('',#429,#507,#736,.T.);
#736 = LINE('',#737,#738);
#737 = CARTESIAN_POINT('',(26.875,1.78E-15,-38.625));
#738 = VECTOR('',#739,1.);
#739 = DIRECTION('',(0.707106781187,0.,0.707106781187));
#740 = ORIENTED_EDGE('',*,*,#506,.T.);
#741 = ORIENTED_EDGE('',*,*,#742,.F.);
#742 = EDGE_CURVE('',#554,#509,#743,.T.);
#743 = LINE('',#744,#745);
#744 = CARTESIAN_POINT('',(26.875,1.78E-15,38.625));
#745 = VECTOR('',#746,1.);
#746 = DIRECTION('',(0.707106781187,0.,-0.707106781187));
#747 = ORIENTED_EDGE('',*,*,#553,.T.);
#748 = ORIENTED_EDGE('',*,*,#749,.T.);
#749 = EDGE_CURVE('',#556,#750,#752,.T.);
#750 = VERTEX_POINT('',#751);
#751 = CARTESIAN_POINT('',(4.5,0.,44.));
#752 = LINE('',#753,#754);
#753 = CARTESIAN_POINT('',(0.,0.,39.5));
#754 = VECTOR('',#755,1.);
#755 = DIRECTION('',(-0.707106781187,0.,-0.707106781187));
#756 = ORIENTED_EDGE('',*,*,#757,.T.);
#757 = EDGE_CURVE('',#750,#758,#760,.T.);
#758 = VERTEX_POINT('',#759);
#759 = CARTESIAN_POINT('',(4.5,3.E-15,22.55));
#760 = LINE('',#761,#762);
#761 = CARTESIAN_POINT('',(4.5,0.,45.));
#762 = VECTOR('',#763,1.);
#763 = DIRECTION('',(-0.,-0.,-1.));
#764 = ORIENTED_EDGE('',*,*,#765,.F.);
#765 = EDGE_CURVE('',#766,#758,#768,.T.);
#766 = VERTEX_POINT('',#767);
#767 = CARTESIAN_POINT('',(7.55,3.E-15,22.55));
#768 = LINE('',#769,#770);
#769 = CARTESIAN_POINT('',(8.,0.,22.55));
#770 = VECTOR('',#771,1.);
#771 = DIRECTION('',(-1.,0.,0.));
#772 = ORIENTED_EDGE('',*,*,#773,.F.);
#773 = EDGE_CURVE('',#774,#766,#776,.T.);
#774 = VERTEX_POINT('',#775);
#775 = CARTESIAN_POINT('',(7.55,-3.E-15,-22.55));
#776 = LINE('',#777,#778);
#777 = CARTESIAN_POINT('',(7.55,0.,-45.));
#778 = VECTOR('',#779,1.);
#779 = DIRECTION('',(0.,0.,1.));
#780 = ORIENTED_EDGE('',*,*,#781,.T.);
#781 = EDGE_CURVE('',#774,#782,#784,.T.);
#782 = VERTEX_POINT('',#783);
#783 = CARTESIAN_POINT('',(4.5,-3.E-15,-22.55));
#784 = LINE('',#785,#786);
#785 = CARTESIAN_POINT('',(8.,0.,-22.55));
#786 = VECTOR('',#787,1.);
#787 = DIRECTION('',(-1.,0.,0.));
#788 = ORIENTED_EDGE('',*,*,#789,.T.);
#789 = EDGE_CURVE('',#782,#790,#792,.T.);
#790 = VERTEX_POINT('',#791);
#791 = CARTESIAN_POINT('',(4.5,0.,-44.));
#792 = LINE('',#793,#794);
#793 = CARTESIAN_POINT('',(4.5,0.,45.));
#794 = VECTOR('',#795,1.);
#795 = DIRECTION('',(-0.,-0.,-1.));
#796 = ORIENTED_EDGE('',*,*,#797,.F.);
#797 = EDGE_CURVE('',#437,#790,#798,.T.);
#798 = LINE('',#799,#800);
#799 = CARTESIAN_POINT('',(0.,0.,-39.5));
#800 = VECTOR('',#801,1.);
#801 = DIRECTION('',(-0.707106781187,0.,0.707106781187));
#802 = FACE_BOUND('',#803,.T.);
#803 = EDGE_LOOP('',(#804));
#804 = ORIENTED_EDGE('',*,*,#362,.F.);
#805 = FACE_BOUND('',#806,.T.);
#806 = EDGE_LOOP('',(#807));
#807 = ORIENTED_EDGE('',*,*,#609,.F.);
#808 = PLANE('',#809);
#809 = AXIS2_PLACEMENT_3D('',#810,#811,#812);
#810 = CARTESIAN_POINT('',(0.,0.,0.));
#811 = DIRECTION('',(-0.,-1.,-0.));
#812 = DIRECTION('',(0.,0.,-1.));
#813 = ADVANCED_FACE('',(#814),#820,.T.);
#814 = FACE_BOUND('',#815,.T.);
#815 = EDGE_LOOP('',(#816,#817,#818,#819));
#816 = ORIENTED_EDGE('',*,*,#714,.F.);
#817 = ORIENTED_EDGE('',*,*,#476,.T.);
#818 = ORIENTED_EDGE('',*,*,#380,.T.);
#819 = ORIENTED_EDGE('',*,*,#421,.F.);
#820 = PLANE('',#821);
#821 = AXIS2_PLACEMENT_3D('',#822,#823,#824);
#822 = CARTESIAN_POINT('',(-21.,0.,-44.5));
#823 = DIRECTION('',(-0.707106781187,0.,-0.707106781187));
#824 = DIRECTION('',(0.,1.,0.));
#825 = ADVANCED_FACE('',(#826),#832,.T.);
#826 = FACE_BOUND('',#827,.F.);
#827 = EDGE_LOOP('',(#828,#829,#830,#831));
#828 = ORIENTED_EDGE('',*,*,#396,.T.);
#829 = ORIENTED_EDGE('',*,*,#428,.T.);
#830 = ORIENTED_EDGE('',*,*,#735,.T.);
#831 = ORIENTED_EDGE('',*,*,#516,.F.);
#832 = PLANE('',#833);
#833 = AXIS2_PLACEMENT_3D('',#834,#835,#836);
#834 = CARTESIAN_POINT('',(21.,12.5,-44.5));
#835 = DIRECTION('',(0.707106781187,0.,-0.707106781187));
#836 = DIRECTION('',(0.,1.,0.));
#837 = ADVANCED_FACE('',(#838),#850,.F.);
#838 = FACE_BOUND('',#839,.F.);
#839 = EDGE_LOOP('',(#840,#841,#842,#843));
#840 = ORIENTED_EDGE('',*,*,#797,.F.);
#841 = ORIENTED_EDGE('',*,*,#444,.T.);
#842 = ORIENTED_EDGE('',*,*,#652,.T.);
#843 = ORIENTED_EDGE('',*,*,#844,.F.);
#844 = EDGE_CURVE('',#790,#653,#845,.T.);
#845 = CIRCLE('',#846,4.5);
#846 = AXIS2_PLACEMENT_3D('',#847,#848,#849);
#847 = CARTESIAN_POINT('',(0.,0.,-44.));
#848 = DIRECTION('',(0.,0.,1.));
#849 = DIRECTION('',(1.,0.,0.));
#850 = CONICAL_SURFACE('',#851,4.5,0.785398163397);
#851 = AXIS2_PLACEMENT_3D('',#852,#853,#854);
#852 = CARTESIAN_POINT('',(0.,0.,-44.));
#853 = DIRECTION('',(-0.,-0.,-1.));
#854 = DIRECTION('',(1.,0.,0.));
#855 = ADVANCED_FACE('',(#856),#862,.T.);
#856 = FACE_BOUND('',#857,.F.);
#857 = EDGE_LOOP('',(#858,#859,#860,#861));
#858 = ORIENTED_EDGE('',*,*,#707,.F.);
#859 = ORIENTED_EDGE('',*,*,#469,.T.);
#860 = ORIENTED_EDGE('',*,*,#491,.F.);
#861 = ORIENTED_EDGE('',*,*,#570,.F.);
#862 = PLANE('',#863);
#863 = AXIS2_PLACEMENT_3D('',#864,#865,#866);
#864 = CARTESIAN_POINT('',(-21.,0.,44.5));
#865 = DIRECTION('',(-0.707106781187,0.,0.707106781187));
#866 = DIRECTION('',(-0.,-1.,-0.));
#867 = ADVANCED_FACE('',(#868),#874,.T.);
#868 = FACE_BOUND('',#869,.T.);
#869 = EDGE_LOOP('',(#870,#871,#872,#873));
#870 = ORIENTED_EDGE('',*,*,#538,.F.);
#871 = ORIENTED_EDGE('',*,*,#563,.T.);
#872 = ORIENTED_EDGE('',*,*,#742,.T.);
#873 = ORIENTED_EDGE('',*,*,#523,.F.);
#874 = PLANE('',#875);
#875 = AXIS2_PLACEMENT_3D('',#876,#877,#878);
#876 = CARTESIAN_POINT('',(21.,12.5,44.5));
#877 = DIRECTION('',(0.707106781187,0.,0.707106781187));
#878 = DIRECTION('',(0.,-1.,0.));
#879 = ADVANCED_FACE('',(#880),#892,.F.);
#880 = FACE_BOUND('',#881,.T.);
#881 = EDGE_LOOP('',(#882,#883,#884,#885));
#882 = ORIENTED_EDGE('',*,*,#749,.F.);
#883 = ORIENTED_EDGE('',*,*,#586,.T.);
#884 = ORIENTED_EDGE('',*,*,#700,.T.);
#885 = ORIENTED_EDGE('',*,*,#886,.F.);
#886 = EDGE_CURVE('',#750,#693,#887,.T.);
#887 = CIRCLE('',#888,4.5);
#888 = AXIS2_PLACEMENT_3D('',#889,#890,#891);
#889 = CARTESIAN_POINT('',(0.,0.,44.));
#890 = DIRECTION('',(0.,0.,1.));
#891 = DIRECTION('',(1.,0.,0.));
#892 = CONICAL_SURFACE('',#893,4.5,0.785398163397);
#893 = AXIS2_PLACEMENT_3D('',#894,#895,#896);
#894 = CARTESIAN_POINT('',(0.,0.,44.));
#895 = DIRECTION('',(0.,0.,1.));
#896 = DIRECTION('',(1.,0.,0.));
#897 = ADVANCED_FACE('',(#898),#910,.F.);
#898 = FACE_BOUND('',#899,.F.);
#899 = EDGE_LOOP('',(#900,#901,#908,#909));
#900 = ORIENTED_EDGE('',*,*,#660,.T.);
#901 = ORIENTED_EDGE('',*,*,#902,.F.);
#902 = EDGE_CURVE('',#782,#661,#903,.T.);
#903 = CIRCLE('',#904,4.5);
#904 = AXIS2_PLACEMENT_3D('',#905,#906,#907);
#905 = CARTESIAN_POINT('',(0.,0.,-22.55));
#906 = DIRECTION('',(0.,0.,1.));
#907 = DIRECTION('',(1.,0.,0.));
#908 = ORIENTED_EDGE('',*,*,#789,.T.);
#909 = ORIENTED_EDGE('',*,*,#844,.T.);
#910 = CYLINDRICAL_SURFACE('',#911,4.5);
#911 = AXIS2_PLACEMENT_3D('',#912,#913,#914);
#912 = CARTESIAN_POINT('',(0.,0.,45.));
#913 = DIRECTION('',(0.,0.,1.));
#914 = DIRECTION('',(1.,0.,0.));
#915 = ADVANCED_FACE('',(#916),#928,.T.);
#916 = FACE_BOUND('',#917,.T.);
#917 = EDGE_LOOP('',(#918,#919,#926,#927));
#918 = ORIENTED_EDGE('',*,*,#781,.F.);
#919 = ORIENTED_EDGE('',*,*,#920,.F.);
#920 = EDGE_CURVE('',#669,#774,#921,.T.);
#921 = CIRCLE('',#922,7.55);
#922 = AXIS2_PLACEMENT_3D('',#923,#924,#925);
#923 = CARTESIAN_POINT('',(0.,0.,-22.55));
#924 = DIRECTION('',(0.,0.,-1.));
#925 = DIRECTION('',(1.,0.,0.));
#926 = ORIENTED_EDGE('',*,*,#668,.F.);
#927 = ORIENTED_EDGE('',*,*,#902,.F.);
#928 = PLANE('',#929);
#929 = AXIS2_PLACEMENT_3D('',#930,#931,#932);
#930 = CARTESIAN_POINT('',(8.,-5.01E-15,-22.55));
#931 = DIRECTION('',(0.,2.2E-16,1.));
#932 = DIRECTION('',(-1.,0.,0.));
#933 = ADVANCED_FACE('',(#934),#946,.F.);
#934 = FACE_BOUND('',#935,.T.);
#935 = EDGE_LOOP('',(#936,#937,#938,#945));
#936 = ORIENTED_EDGE('',*,*,#920,.T.);
#937 = ORIENTED_EDGE('',*,*,#773,.T.);
#938 = ORIENTED_EDGE('',*,*,#939,.F.);
#939 = EDGE_CURVE('',#677,#766,#940,.T.);
#940 = CIRCLE('',#941,7.55);
#941 = AXIS2_PLACEMENT_3D('',#942,#943,#944);
#942 = CARTESIAN_POINT('',(0.,0.,22.55));
#943 = DIRECTION('',(0.,0.,-1.));
#944 = DIRECTION('',(1.,0.,0.));
#945 = ORIENTED_EDGE('',*,*,#676,.F.);
#946 = CYLINDRICAL_SURFACE('',#947,7.55);
#947 = AXIS2_PLACEMENT_3D('',#948,#949,#950);
#948 = CARTESIAN_POINT('',(0.,0.,-45.));
#949 = DIRECTION('',(-0.,-0.,-1.));
#950 = DIRECTION('',(1.,0.,0.));
#951 = ADVANCED_FACE('',(#952),#964,.F.);
#952 = FACE_BOUND('',#953,.F.);
#953 = EDGE_LOOP('',(#954,#955,#956,#957));
#954 = ORIENTED_EDGE('',*,*,#765,.F.);
#955 = ORIENTED_EDGE('',*,*,#939,.F.);
#956 = ORIENTED_EDGE('',*,*,#684,.F.);
#957 = ORIENTED_EDGE('',*,*,#958,.F.);
#958 = EDGE_CURVE('',#758,#685,#959,.T.);
#959 = CIRCLE('',#960,4.5);
#960 = AXIS2_PLACEMENT_3D('',#961,#962,#963);
#961 = CARTESIAN_POINT('',(0.,0.,22.55));
#962 = DIRECTION('',(0.,0.,1.));
#963 = DIRECTION('',(1.,0.,0.));
#964 = PLANE('',#965);
#965 = AXIS2_PLACEMENT_3D('',#966,#967,#968);
#966 = CARTESIAN_POINT('',(8.,5.01E-15,22.55));
#967 = DIRECTION('',(0.,2.2E-16,1.));
#968 = DIRECTION('',(-1.,0.,0.));
#969 = ADVANCED_FACE('',(#970),#976,.F.);
#970 = FACE_BOUND('',#971,.F.);
#971 = EDGE_LOOP('',(#972,#973,#974,#975));
#972 = ORIENTED_EDGE('',*,*,#692,.T.);
#973 = ORIENTED_EDGE('',*,*,#886,.F.);
#974 = ORIENTED_EDGE('',*,*,#757,.T.);
#975 = ORIENTED_EDGE('',*,*,#958,.T.);
#976 = CYLINDRICAL_SURFACE('',#977,4.5);
#977 = AXIS2_PLACEMENT_3D('',#978,#979,#980);
#978 = CARTESIAN_POINT('',(0.,0.,45.));
#979 = DIRECTION('',(0.,0.,1.));
#980 = DIRECTION('',(1.,0.,0.));
#981 = ( GEOMETRIC_REPRESENTATION_CONTEXT(3) 
GLOBAL_UNCERTAINTY_ASSIGNED_CONTEXT((#985)) GLOBAL_UNIT_ASSIGNED_CONTEXT
((#982,#983,#984)) REPRESENTATION_CONTEXT('Context #1',
  '3D Context with UNIT and UNCERTAINTY') );
#982 = ( LENGTH_UNIT() NAMED_UNIT(*) SI_UNIT(.MILLI.,.METRE.) );
#983 = ( NAMED_UNIT(*) PLANE_ANGLE_UNIT() SI_UNIT($,.RADIAN.) );
#984 = ( NAMED_UNIT(*) SI_UNIT($,.STERADIAN.) SOLID_ANGLE_UNIT() );
#985 = UNCERTAINTY_MEASURE_WITH_UNIT(LENGTH_MEASURE(1.E-07),#982,
  'distance_accuracy_value','confusion accuracy');
#986 = PRODUCT_RELATED_PRODUCT_CATEGORY('part',$,(#7));
ENDSEC;
END-ISO-10303-21;
