ISO-10303-21;
HEADER;
FILE_DESCRIPTION(('FreeCAD Model'),'2;1');
FILE_NAME('Open CASCADE Shape Model','2026-09-06T12:30:35',('FreeCAD'),(
    'FreeCAD'),'Open CASCADE STEP processor 7.8','FreeCAD','Unknown');
FILE_SCHEMA(('AUTOMOTIVE_DESIGN { 1 0 10303 214 1 1 1 1 }'));
ENDSEC;
DATA;
#1 = APPLICATION_PROTOCOL_DEFINITION('international standard',
  'automotive_design',2000,#2);
#2 = APPLICATION_CONTEXT(
  'core data for automotive mechanical design processes');
#3 = SHAPE_DEFINITION_REPRESENTATION(#4,#10);
#4 = PRODUCT_DEFINITION_SHAPE('','',#5);
#5 = PRODUCT_DEFINITION('design','',#6,#9);
#6 = PRODUCT_DEFINITION_FORMATION('','',#7);
#7 = PRODUCT('Open CASCADE STEP translator 7.8 234',
  'Open CASCADE STEP translator 7.8 234','',(#8));
#8 = PRODUCT_CONTEXT('',#2,'mechanical');
#9 = PRODUCT_DEFINITION_CONTEXT('part definition',#2,'design');
#10 = ADVANCED_BREP_SHAPE_REPRESENTATION('',(#11,#15),#1387);
#11 = AXIS2_PLACEMENT_3D('',#12,#13,#14);
#12 = CARTESIAN_POINT('',(0.,0.,0.));
#13 = DIRECTION('',(0.,0.,1.));
#14 = DIRECTION('',(1.,0.,-0.));
#15 = MANIFOLD_SOLID_BREP('',#16);
#16 = CLOSED_SHELL('',(#17,#57,#235,#259,#283,#314,#354,#370,#395,#435,
    #467,#483,#509,#534,#565,#589,#613,#637,#661,#685,#709,#726,#751,
    #776,#792,#808,#914,#931,#956,#981,#998,#1015,#1046,#1070,#1094,
    #1118,#1142,#1166,#1190,#1207,#1229,#1246,#1263,#1280,#1297,#1314,
    #1331,#1343,#1365,#1376));
#17 = ADVANCED_FACE('',(#18),#52,.F.);
#18 = FACE_BOUND('',#19,.F.);
#19 = EDGE_LOOP('',(#20,#30,#38,#46));
#20 = ORIENTED_EDGE('',*,*,#21,.F.);
#21 = EDGE_CURVE('',#22,#24,#26,.T.);
#22 = VERTEX_POINT('',#23);
#23 = CARTESIAN_POINT('',(-18.,3.E-15,-12.5));
#24 = VERTEX_POINT('',#25);
#25 = CARTESIAN_POINT('',(18.,3.E-15,-12.5));
#26 = LINE('',#27,#28);
#27 = CARTESIAN_POINT('',(-19.,2.78E-15,-12.5));
#28 = VECTOR('',#29,1.);
#29 = DIRECTION('',(1.,0.,0.));
#30 = ORIENTED_EDGE('',*,*,#31,.T.);
#31 = EDGE_CURVE('',#22,#32,#34,.T.);
#32 = VERTEX_POINT('',#33);
#33 = CARTESIAN_POINT('',(-18.,-4.,-12.5));
#34 = LINE('',#35,#36);
#35 = CARTESIAN_POINT('',(-18.,-5.44E-15,-12.5));
#36 = VECTOR('',#37,1.);
#37 = DIRECTION('',(0.,-1.,4.4E-16));
#38 = ORIENTED_EDGE('',*,*,#39,.T.);
#39 = EDGE_CURVE('',#32,#40,#42,.T.);
#40 = VERTEX_POINT('',#41);
#41 = CARTESIAN_POINT('',(18.,-4.,-12.5));
#42 = LINE('',#43,#44);
#43 = CARTESIAN_POINT('',(-19.,-4.,-12.5));
#44 = VECTOR('',#45,1.);
#45 = DIRECTION('',(1.,0.,0.));
#46 = ORIENTED_EDGE('',*,*,#47,.F.);
#47 = EDGE_CURVE('',#24,#40,#48,.T.);
#48 = LINE('',#49,#50);
#49 = CARTESIAN_POINT('',(18.,-5.44E-15,-12.5));
#50 = VECTOR('',#51,1.);
#51 = DIRECTION('',(0.,-1.,4.4E-16));
#52 = PLANE('',#53);
#53 = AXIS2_PLACEMENT_3D('',#54,#55,#56);
#54 = CARTESIAN_POINT('',(-19.,-2.77E-15,-12.5));
#55 = DIRECTION('',(0.,2.2E-16,1.));
#56 = DIRECTION('',(1.,0.,0.));
#57 = ADVANCED_FACE('',(#58,#131,#142,#208,#219),#230,.T.);
#58 = FACE_BOUND('',#59,.T.);
#59 = EDGE_LOOP('',(#60,#70,#76,#77,#85,#93,#101,#109,#117,#125));
#60 = ORIENTED_EDGE('',*,*,#61,.F.);
#61 = EDGE_CURVE('',#62,#64,#66,.T.);
#62 = VERTEX_POINT('',#63);
#63 = CARTESIAN_POINT('',(19.,3.E-15,-11.5));
#64 = VERTEX_POINT('',#65);
#65 = CARTESIAN_POINT('',(19.,4.E-15,12.5));
#66 = LINE('',#67,#68);
#67 = CARTESIAN_POINT('',(19.,0.,-12.5));
#68 = VECTOR('',#69,1.);
#69 = DIRECTION('',(0.,0.,1.));
#70 = ORIENTED_EDGE('',*,*,#71,.F.);
#71 = EDGE_CURVE('',#24,#62,#72,.T.);
#72 = LINE('',#73,#74);
#73 = CARTESIAN_POINT('',(19.,-4.E-16,-11.5));
#74 = VECTOR('',#75,1.);
#75 = DIRECTION('',(0.707106781187,1.E-16,0.707106781187));
#76 = ORIENTED_EDGE('',*,*,#21,.F.);
#77 = ORIENTED_EDGE('',*,*,#78,.T.);
#78 = EDGE_CURVE('',#22,#79,#81,.T.);
#79 = VERTEX_POINT('',#80);
#80 = CARTESIAN_POINT('',(-19.,2.E-15,-11.5));
#81 = LINE('',#82,#83);
#82 = CARTESIAN_POINT('',(-19.,-4.E-16,-11.5));
#83 = VECTOR('',#84,1.);
#84 = DIRECTION('',(-0.707106781187,1.E-16,0.707106781187));
#85 = ORIENTED_EDGE('',*,*,#86,.F.);
#86 = EDGE_CURVE('',#87,#79,#89,.T.);
#87 = VERTEX_POINT('',#88);
#88 = CARTESIAN_POINT('',(-19.,3.E-15,12.5));
#89 = LINE('',#90,#91);
#90 = CARTESIAN_POINT('',(-19.,0.,12.5));
#91 = VECTOR('',#92,1.);
#92 = DIRECTION('',(0.,0.,-1.));
#93 = ORIENTED_EDGE('',*,*,#94,.F.);
#94 = EDGE_CURVE('',#95,#87,#97,.T.);
#95 = VERTEX_POINT('',#96);
#96 = CARTESIAN_POINT('',(-18.,4.E-15,12.5));
#97 = LINE('',#98,#99);
#98 = CARTESIAN_POINT('',(-18.,3.552713678801E-15,12.5));
#99 = VECTOR('',#100,1.);
#100 = DIRECTION('',(-1.,-5.1E-16,0.));
#101 = ORIENTED_EDGE('',*,*,#102,.F.);
#102 = EDGE_CURVE('',#103,#95,#105,.T.);
#103 = VERTEX_POINT('',#104);
#104 = CARTESIAN_POINT('',(-18.,0.,28.5));
#105 = LINE('',#106,#107);
#106 = CARTESIAN_POINT('',(-18.,6.66E-15,29.5));
#107 = VECTOR('',#108,1.);
#108 = DIRECTION('',(0.,0.,-1.));
#109 = ORIENTED_EDGE('',*,*,#110,.T.);
#110 = EDGE_CURVE('',#103,#111,#113,.T.);
#111 = VERTEX_POINT('',#112);
#112 = CARTESIAN_POINT('',(18.,0.,28.5));
#113 = LINE('',#114,#115);
#114 = CARTESIAN_POINT('',(-19.,5.17E-15,28.5));
#115 = VECTOR('',#116,1.);
#116 = DIRECTION('',(1.,0.,0.));
#117 = ORIENTED_EDGE('',*,*,#118,.T.);
#118 = EDGE_CURVE('',#111,#119,#121,.T.);
#119 = VERTEX_POINT('',#120);
#120 = CARTESIAN_POINT('',(18.,4.E-15,12.5));
#121 = LINE('',#122,#123);
#122 = CARTESIAN_POINT('',(18.,6.65E-15,29.5));
#123 = VECTOR('',#124,1.);
#124 = DIRECTION('',(0.,0.,-1.));
#125 = ORIENTED_EDGE('',*,*,#126,.F.);
#126 = EDGE_CURVE('',#64,#119,#127,.T.);
#127 = LINE('',#128,#129);
#128 = CARTESIAN_POINT('',(19.,3.552713678801E-15,12.5));
#129 = VECTOR('',#130,1.);
#130 = DIRECTION('',(-1.,-1.E-17,0.));
#131 = FACE_BOUND('',#132,.T.);
#132 = EDGE_LOOP('',(#133));
#133 = ORIENTED_EDGE('',*,*,#134,.T.);
#134 = EDGE_CURVE('',#135,#135,#137,.T.);
#135 = VERTEX_POINT('',#136);
#136 = CARTESIAN_POINT('',(11.85,1.E-15,6.25));
#137 = CIRCLE('',#138,1.1);
#138 = AXIS2_PLACEMENT_3D('',#139,#140,#141);
#139 = CARTESIAN_POINT('',(10.75,3.9E-16,6.25));
#140 = DIRECTION('',(0.,-1.,2.2E-16));
#141 = DIRECTION('',(1.,0.,0.));
#142 = FACE_BOUND('',#143,.T.);
#143 = EDGE_LOOP('',(#144,#154,#162,#170,#178,#186,#194,#202));
#144 = ORIENTED_EDGE('',*,*,#145,.T.);
#145 = EDGE_CURVE('',#146,#148,#150,.T.);
#146 = VERTEX_POINT('',#147);
#147 = CARTESIAN_POINT('',(-15.,0.,23.5));
#148 = VERTEX_POINT('',#149);
#149 = CARTESIAN_POINT('',(-15.,0.,13.5));
#150 = LINE('',#151,#152);
#151 = CARTESIAN_POINT('',(-15.,4.62E-15,24.5));
#152 = VECTOR('',#153,1.);
#153 = DIRECTION('',(0.,-2.2E-16,-1.));
#154 = ORIENTED_EDGE('',*,*,#155,.T.);
#155 = EDGE_CURVE('',#148,#156,#158,.T.);
#156 = VERTEX_POINT('',#157);
#157 = CARTESIAN_POINT('',(-13.,0.,11.5));
#158 = LINE('',#159,#160);
#159 = CARTESIAN_POINT('',(-10.,2.55E-15,8.5));
#160 = VECTOR('',#161,1.);
#161 = DIRECTION('',(0.707106781187,-1.E-16,-0.707106781187));
#162 = ORIENTED_EDGE('',*,*,#163,.F.);
#163 = EDGE_CURVE('',#164,#156,#166,.T.);
#164 = VERTEX_POINT('',#165);
#165 = CARTESIAN_POINT('',(13.,0.,11.5));
#166 = LINE('',#167,#168);
#167 = CARTESIAN_POINT('',(14.,2.99E-15,11.5));
#168 = VECTOR('',#169,1.);
#169 = DIRECTION('',(-1.,0.,0.));
#170 = ORIENTED_EDGE('',*,*,#171,.T.);
#171 = EDGE_CURVE('',#164,#172,#174,.T.);
#172 = VERTEX_POINT('',#173);
#173 = CARTESIAN_POINT('',(15.,0.,13.5));
#174 = LINE('',#175,#176);
#175 = CARTESIAN_POINT('',(9.,2.4E-15,7.5));
#176 = VECTOR('',#177,1.);
#177 = DIRECTION('',(0.707106781187,1.E-16,0.707106781187));
#178 = ORIENTED_EDGE('',*,*,#179,.T.);
#179 = EDGE_CURVE('',#172,#180,#182,.T.);
#180 = VERTEX_POINT('',#181);
#181 = CARTESIAN_POINT('',(15.,0.,23.5));
#182 = LINE('',#183,#184);
#183 = CARTESIAN_POINT('',(15.,2.84E-15,12.5));
#184 = VECTOR('',#185,1.);
#185 = DIRECTION('',(0.,2.2E-16,1.));
#186 = ORIENTED_EDGE('',*,*,#187,.T.);
#187 = EDGE_CURVE('',#180,#188,#190,.T.);
#188 = VERTEX_POINT('',#189);
#189 = CARTESIAN_POINT('',(13.,-1.E-15,25.5));
#190 = LINE('',#191,#192);
#191 = CARTESIAN_POINT('',(15.,4.75E-15,23.5));
#192 = VECTOR('',#193,1.);
#193 = DIRECTION('',(-0.707106781187,1.E-16,0.707106781187));
#194 = ORIENTED_EDGE('',*,*,#195,.T.);
#195 = EDGE_CURVE('',#188,#196,#198,.T.);
#196 = VERTEX_POINT('',#197);
#197 = CARTESIAN_POINT('',(-13.,-1.E-15,25.5));
#198 = LINE('',#199,#200);
#199 = CARTESIAN_POINT('',(14.,4.76E-15,25.5));
#200 = VECTOR('',#201,1.);
#201 = DIRECTION('',(-1.,0.,0.));
#202 = ORIENTED_EDGE('',*,*,#203,.F.);
#203 = EDGE_CURVE('',#146,#196,#204,.T.);
#204 = LINE('',#205,#206);
#205 = CARTESIAN_POINT('',(-15.,4.75E-15,23.5));
#206 = VECTOR('',#207,1.);
#207 = DIRECTION('',(0.707106781187,1.E-16,0.707106781187));
#208 = FACE_BOUND('',#209,.T.);
#209 = EDGE_LOOP('',(#210));
#210 = ORIENTED_EDGE('',*,*,#211,.T.);
#211 = EDGE_CURVE('',#212,#212,#214,.T.);
#212 = VERTEX_POINT('',#213);
#213 = CARTESIAN_POINT('',(1.1,0.,-7.));
#214 = CIRCLE('',#215,1.1);
#215 = AXIS2_PLACEMENT_3D('',#216,#217,#218);
#216 = CARTESIAN_POINT('',(0.,-2.3E-16,-7.));
#217 = DIRECTION('',(0.,-1.,2.2E-16));
#218 = DIRECTION('',(1.,0.,0.));
#219 = FACE_BOUND('',#220,.T.);
#220 = EDGE_LOOP('',(#221));
#221 = ORIENTED_EDGE('',*,*,#222,.T.);
#222 = EDGE_CURVE('',#223,#223,#225,.T.);
#223 = VERTEX_POINT('',#224);
#224 = CARTESIAN_POINT('',(-9.65,1.E-15,6.25));
#225 = CIRCLE('',#226,1.1);
#226 = AXIS2_PLACEMENT_3D('',#227,#228,#229);
#227 = CARTESIAN_POINT('',(-10.75,3.9E-16,6.25));
#228 = DIRECTION('',(0.,-1.,2.2E-16));
#229 = DIRECTION('',(1.,0.,0.));
#230 = PLANE('',#231);
#231 = AXIS2_PLACEMENT_3D('',#232,#233,#234);
#232 = CARTESIAN_POINT('',(7.1E-16,2.55E-15,8.5));
#233 = DIRECTION('',(0.,1.,-1.5E-16));
#234 = DIRECTION('',(0.,-1.5E-16,-1.));
#235 = ADVANCED_FACE('',(#236),#254,.F.);
#236 = FACE_BOUND('',#237,.T.);
#237 = EDGE_LOOP('',(#238,#239,#240,#248));
#238 = ORIENTED_EDGE('',*,*,#78,.F.);
#239 = ORIENTED_EDGE('',*,*,#31,.T.);
#240 = ORIENTED_EDGE('',*,*,#241,.T.);
#241 = EDGE_CURVE('',#32,#242,#244,.T.);
#242 = VERTEX_POINT('',#243);
#243 = CARTESIAN_POINT('',(-19.,-4.,-11.5));
#244 = LINE('',#245,#246);
#245 = CARTESIAN_POINT('',(-18.25,-4.,-12.25));
#246 = VECTOR('',#247,1.);
#247 = DIRECTION('',(-0.707106781187,-8.3E-16,0.707106781187));
#248 = ORIENTED_EDGE('',*,*,#249,.F.);
#249 = EDGE_CURVE('',#79,#242,#250,.T.);
#250 = LINE('',#251,#252);
#251 = CARTESIAN_POINT('',(-19.,-5.E-15,-11.5));
#252 = VECTOR('',#253,1.);
#253 = DIRECTION('',(0.,-1.,4.4E-16));
#254 = PLANE('',#255);
#255 = AXIS2_PLACEMENT_3D('',#256,#257,#258);
#256 = CARTESIAN_POINT('',(-18.5,-5.22E-15,-12.));
#257 = DIRECTION('',(0.707106781187,2.2E-16,0.707106781187));
#258 = DIRECTION('',(6.443650813896E-17,1.,-3.75563491861E-16));
#259 = ADVANCED_FACE('',(#260),#278,.F.);
#260 = FACE_BOUND('',#261,.F.);
#261 = EDGE_LOOP('',(#262,#263,#264,#272));
#262 = ORIENTED_EDGE('',*,*,#71,.F.);
#263 = ORIENTED_EDGE('',*,*,#47,.T.);
#264 = ORIENTED_EDGE('',*,*,#265,.T.);
#265 = EDGE_CURVE('',#40,#266,#268,.T.);
#266 = VERTEX_POINT('',#267);
#267 = CARTESIAN_POINT('',(19.,-4.,-11.5));
#268 = LINE('',#269,#270);
#269 = CARTESIAN_POINT('',(18.25,-4.,-12.25));
#270 = VECTOR('',#271,1.);
#271 = DIRECTION('',(0.707106781187,-1.41E-15,0.707106781187));
#272 = ORIENTED_EDGE('',*,*,#273,.F.);
#273 = EDGE_CURVE('',#62,#266,#274,.T.);
#274 = LINE('',#275,#276);
#275 = CARTESIAN_POINT('',(19.,-5.E-15,-11.5));
#276 = VECTOR('',#277,1.);
#277 = DIRECTION('',(0.,-1.,4.4E-16));
#278 = PLANE('',#279);
#279 = AXIS2_PLACEMENT_3D('',#280,#281,#282);
#280 = CARTESIAN_POINT('',(18.5,-5.22E-15,-12.));
#281 = DIRECTION('',(-0.707106781187,3.3E-16,0.707106781187));
#282 = DIRECTION('',(-1.334523779156E-17,-1.,4.533452377916E-16));
#283 = ADVANCED_FACE('',(#284),#309,.F.);
#284 = FACE_BOUND('',#285,.T.);
#285 = EDGE_LOOP('',(#286,#294,#295,#303));
#286 = ORIENTED_EDGE('',*,*,#287,.F.);
#287 = EDGE_CURVE('',#32,#288,#290,.T.);
#288 = VERTEX_POINT('',#289);
#289 = CARTESIAN_POINT('',(-18.,-5.,-11.5));
#290 = LINE('',#291,#292);
#291 = CARTESIAN_POINT('',(-18.,-4.25,-12.25));
#292 = VECTOR('',#293,1.);
#293 = DIRECTION('',(-1.92E-15,-0.707106781187,0.707106781187));
#294 = ORIENTED_EDGE('',*,*,#39,.T.);
#295 = ORIENTED_EDGE('',*,*,#296,.T.);
#296 = EDGE_CURVE('',#40,#297,#299,.T.);
#297 = VERTEX_POINT('',#298);
#298 = CARTESIAN_POINT('',(18.,-5.,-11.5));
#299 = LINE('',#300,#301);
#300 = CARTESIAN_POINT('',(18.,-4.25,-12.25));
#301 = VECTOR('',#302,1.);
#302 = DIRECTION('',(0.,-0.707106781187,0.707106781187));
#303 = ORIENTED_EDGE('',*,*,#304,.F.);
#304 = EDGE_CURVE('',#288,#297,#305,.T.);
#305 = LINE('',#306,#307);
#306 = CARTESIAN_POINT('',(-19.,-5.,-11.5));
#307 = VECTOR('',#308,1.);
#308 = DIRECTION('',(1.,0.,0.));
#309 = PLANE('',#310);
#310 = AXIS2_PLACEMENT_3D('',#311,#312,#313);
#311 = CARTESIAN_POINT('',(-19.,-4.5,-12.));
#312 = DIRECTION('',(0.,0.707106781187,0.707106781187));
#313 = DIRECTION('',(-1.,0.,0.));
#314 = ADVANCED_FACE('',(#315),#349,.T.);
#315 = FACE_BOUND('',#316,.T.);
#316 = EDGE_LOOP('',(#317,#318,#319,#327,#335,#343));
#317 = ORIENTED_EDGE('',*,*,#273,.F.);
#318 = ORIENTED_EDGE('',*,*,#61,.T.);
#319 = ORIENTED_EDGE('',*,*,#320,.F.);
#320 = EDGE_CURVE('',#321,#64,#323,.T.);
#321 = VERTEX_POINT('',#322);
#322 = CARTESIAN_POINT('',(19.,-1.,12.5));
#323 = LINE('',#324,#325);
#324 = CARTESIAN_POINT('',(19.,-1.,12.5));
#325 = VECTOR('',#326,1.);
#326 = DIRECTION('',(0.,1.,2.2E-16));
#327 = ORIENTED_EDGE('',*,*,#328,.F.);
#328 = EDGE_CURVE('',#329,#321,#331,.T.);
#329 = VERTEX_POINT('',#330);
#330 = CARTESIAN_POINT('',(19.,-1.,28.5));
#331 = LINE('',#332,#333);
#332 = CARTESIAN_POINT('',(19.,-1.,29.5));
#333 = VECTOR('',#334,1.);
#334 = DIRECTION('',(0.,0.,-1.));
#335 = ORIENTED_EDGE('',*,*,#336,.F.);
#336 = EDGE_CURVE('',#337,#329,#339,.T.);
#337 = VERTEX_POINT('',#338);
#338 = CARTESIAN_POINT('',(19.,-4.,28.5));
#339 = LINE('',#340,#341);
#340 = CARTESIAN_POINT('',(19.,-5.,28.5));
#341 = VECTOR('',#342,1.);
#342 = DIRECTION('',(0.,1.,-2.2E-16));
#343 = ORIENTED_EDGE('',*,*,#344,.T.);
#344 = EDGE_CURVE('',#337,#266,#345,.T.);
#345 = LINE('',#346,#347);
#346 = CARTESIAN_POINT('',(19.,-4.,29.5));
#347 = VECTOR('',#348,1.);
#348 = DIRECTION('',(0.,-2.2E-16,-1.));
#349 = PLANE('',#350);
#350 = AXIS2_PLACEMENT_3D('',#351,#352,#353);
#351 = CARTESIAN_POINT('',(19.,-2.5,8.5));
#352 = DIRECTION('',(1.,0.,0.));
#353 = DIRECTION('',(0.,-1.,-2.2E-16));
#354 = ADVANCED_FACE('',(#355),#365,.T.);
#355 = FACE_BOUND('',#356,.T.);
#356 = EDGE_LOOP('',(#357,#358,#359));
#357 = ORIENTED_EDGE('',*,*,#320,.T.);
#358 = ORIENTED_EDGE('',*,*,#126,.T.);
#359 = ORIENTED_EDGE('',*,*,#360,.T.);
#360 = EDGE_CURVE('',#119,#321,#361,.T.);
#361 = LINE('',#362,#363);
#362 = CARTESIAN_POINT('',(18.,3.552713678801E-15,12.5));
#363 = VECTOR('',#364,1.);
#364 = DIRECTION('',(0.707106781187,-0.707106781187,-1.6E-16));
#365 = PLANE('',#366);
#366 = AXIS2_PLACEMENT_3D('',#367,#368,#369);
#367 = CARTESIAN_POINT('',(5.72E-15,-0.353553390593,12.5));
#368 = DIRECTION('',(0.,-2.2E-16,1.));
#369 = DIRECTION('',(1.,0.,0.));
#370 = ADVANCED_FACE('',(#371),#390,.F.);
#371 = FACE_BOUND('',#372,.F.);
#372 = EDGE_LOOP('',(#373,#381,#382,#383,#384));
#373 = ORIENTED_EDGE('',*,*,#374,.F.);
#374 = EDGE_CURVE('',#111,#375,#377,.T.);
#375 = VERTEX_POINT('',#376);
#376 = CARTESIAN_POINT('',(18.5,-0.5,29.));
#377 = LINE('',#378,#379);
#378 = CARTESIAN_POINT('',(12.166666666667,5.833333333333,
    22.666666666667));
#379 = VECTOR('',#380,1.);
#380 = DIRECTION('',(0.57735026919,-0.57735026919,0.57735026919));
#381 = ORIENTED_EDGE('',*,*,#118,.T.);
#382 = ORIENTED_EDGE('',*,*,#360,.T.);
#383 = ORIENTED_EDGE('',*,*,#328,.F.);
#384 = ORIENTED_EDGE('',*,*,#385,.F.);
#385 = EDGE_CURVE('',#375,#329,#386,.T.);
#386 = LINE('',#387,#388);
#387 = CARTESIAN_POINT('',(19.,-1.,28.5));
#388 = VECTOR('',#389,1.);
#389 = DIRECTION('',(0.57735026919,-0.57735026919,-0.57735026919));
#390 = PLANE('',#391);
#391 = AXIS2_PLACEMENT_3D('',#392,#393,#394);
#392 = CARTESIAN_POINT('',(18.,6.65E-15,29.5));
#393 = DIRECTION('',(-0.707106781187,-0.707106781187,0.));
#394 = DIRECTION('',(0.707106781187,-0.707106781187,0.));
#395 = ADVANCED_FACE('',(#396),#430,.F.);
#396 = FACE_BOUND('',#397,.T.);
#397 = EDGE_LOOP('',(#398,#408,#416,#422,#423,#424));
#398 = ORIENTED_EDGE('',*,*,#399,.F.);
#399 = EDGE_CURVE('',#400,#402,#404,.T.);
#400 = VERTEX_POINT('',#401);
#401 = CARTESIAN_POINT('',(-18.,-1.,29.5));
#402 = VERTEX_POINT('',#403);
#403 = CARTESIAN_POINT('',(-18.5,-0.5,29.));
#404 = LINE('',#405,#406);
#405 = CARTESIAN_POINT('',(-17.83333333333,-1.166666666667,
    29.666666666667));
#406 = VECTOR('',#407,1.);
#407 = DIRECTION('',(-0.57735026919,0.57735026919,-0.57735026919));
#408 = ORIENTED_EDGE('',*,*,#409,.T.);
#409 = EDGE_CURVE('',#400,#410,#412,.T.);
#410 = VERTEX_POINT('',#411);
#411 = CARTESIAN_POINT('',(18.,-1.,29.5));
#412 = LINE('',#413,#414);
#413 = CARTESIAN_POINT('',(-19.,-1.,29.5));
#414 = VECTOR('',#415,1.);
#415 = DIRECTION('',(1.,0.,0.));
#416 = ORIENTED_EDGE('',*,*,#417,.F.);
#417 = EDGE_CURVE('',#375,#410,#418,.T.);
#418 = LINE('',#419,#420);
#419 = CARTESIAN_POINT('',(11.5,-7.5,36.));
#420 = VECTOR('',#421,1.);
#421 = DIRECTION('',(-0.57735026919,-0.57735026919,0.57735026919));
#422 = ORIENTED_EDGE('',*,*,#374,.F.);
#423 = ORIENTED_EDGE('',*,*,#110,.F.);
#424 = ORIENTED_EDGE('',*,*,#425,.F.);
#425 = EDGE_CURVE('',#402,#103,#426,.T.);
#426 = LINE('',#427,#428);
#427 = CARTESIAN_POINT('',(-18.83333333333,-0.833333333333,
    29.333333333333));
#428 = VECTOR('',#429,1.);
#429 = DIRECTION('',(0.57735026919,0.57735026919,-0.57735026919));
#430 = PLANE('',#431);
#431 = AXIS2_PLACEMENT_3D('',#432,#433,#434);
#432 = CARTESIAN_POINT('',(-19.,-0.5,29.));
#433 = DIRECTION('',(-1.E-17,-0.707106781187,-0.707106781187));
#434 = DIRECTION('',(-1.,7.071067811865E-18,7.071067811865E-18));
#435 = ADVANCED_FACE('',(#436),#462,.F.);
#436 = FACE_BOUND('',#437,.F.);
#437 = EDGE_LOOP('',(#438,#446,#454,#460,#461));
#438 = ORIENTED_EDGE('',*,*,#439,.F.);
#439 = EDGE_CURVE('',#440,#402,#442,.T.);
#440 = VERTEX_POINT('',#441);
#441 = CARTESIAN_POINT('',(-19.,-1.,28.5));
#442 = LINE('',#443,#444);
#443 = CARTESIAN_POINT('',(-19.33333333333,-1.333333333333,
    28.166666666667));
#444 = VECTOR('',#445,1.);
#445 = DIRECTION('',(0.57735026919,0.57735026919,0.57735026919));
#446 = ORIENTED_EDGE('',*,*,#447,.T.);
#447 = EDGE_CURVE('',#440,#448,#450,.T.);
#448 = VERTEX_POINT('',#449);
#449 = CARTESIAN_POINT('',(-19.,-1.,12.5));
#450 = LINE('',#451,#452);
#451 = CARTESIAN_POINT('',(-19.,-1.,29.5));
#452 = VECTOR('',#453,1.);
#453 = DIRECTION('',(0.,0.,-1.));
#454 = ORIENTED_EDGE('',*,*,#455,.T.);
#455 = EDGE_CURVE('',#448,#95,#456,.T.);
#456 = LINE('',#457,#458);
#457 = CARTESIAN_POINT('',(-19.,-1.,12.5));
#458 = VECTOR('',#459,1.);
#459 = DIRECTION('',(0.707106781187,0.707106781187,1.6E-16));
#460 = ORIENTED_EDGE('',*,*,#102,.F.);
#461 = ORIENTED_EDGE('',*,*,#425,.F.);
#462 = PLANE('',#463);
#463 = AXIS2_PLACEMENT_3D('',#464,#465,#466);
#464 = CARTESIAN_POINT('',(-19.,-1.,29.5));
#465 = DIRECTION('',(0.707106781187,-0.707106781187,0.));
#466 = DIRECTION('',(0.707106781187,0.707106781187,0.));
#467 = ADVANCED_FACE('',(#468),#478,.T.);
#468 = FACE_BOUND('',#469,.T.);
#469 = EDGE_LOOP('',(#470,#471,#472));
#470 = ORIENTED_EDGE('',*,*,#455,.T.);
#471 = ORIENTED_EDGE('',*,*,#94,.T.);
#472 = ORIENTED_EDGE('',*,*,#473,.T.);
#473 = EDGE_CURVE('',#87,#448,#474,.T.);
#474 = LINE('',#475,#476);
#475 = CARTESIAN_POINT('',(-19.,3.552713678801E-15,12.5));
#476 = VECTOR('',#477,1.);
#477 = DIRECTION('',(-0.,-1.,-2.2E-16));
#478 = PLANE('',#479);
#479 = AXIS2_PLACEMENT_3D('',#480,#481,#482);
#480 = CARTESIAN_POINT('',(5.72E-15,-0.353553390593,12.5));
#481 = DIRECTION('',(0.,-2.2E-16,1.));
#482 = DIRECTION('',(1.,0.,0.));
#483 = ADVANCED_FACE('',(#484),#504,.T.);
#484 = FACE_BOUND('',#485,.T.);
#485 = EDGE_LOOP('',(#486,#487,#488,#489,#497,#503));
#486 = ORIENTED_EDGE('',*,*,#473,.F.);
#487 = ORIENTED_EDGE('',*,*,#86,.T.);
#488 = ORIENTED_EDGE('',*,*,#249,.T.);
#489 = ORIENTED_EDGE('',*,*,#490,.T.);
#490 = EDGE_CURVE('',#242,#491,#493,.T.);
#491 = VERTEX_POINT('',#492);
#492 = CARTESIAN_POINT('',(-19.,-4.,28.5));
#493 = LINE('',#494,#495);
#494 = CARTESIAN_POINT('',(-19.,-4.,-12.5));
#495 = VECTOR('',#496,1.);
#496 = DIRECTION('',(0.,2.2E-16,1.));
#497 = ORIENTED_EDGE('',*,*,#498,.T.);
#498 = EDGE_CURVE('',#491,#440,#499,.T.);
#499 = LINE('',#500,#501);
#500 = CARTESIAN_POINT('',(-19.,-5.,28.5));
#501 = VECTOR('',#502,1.);
#502 = DIRECTION('',(0.,1.,-2.2E-16));
#503 = ORIENTED_EDGE('',*,*,#447,.T.);
#504 = PLANE('',#505);
#505 = AXIS2_PLACEMENT_3D('',#506,#507,#508);
#506 = CARTESIAN_POINT('',(-19.,-2.5,8.5));
#507 = DIRECTION('',(-1.,0.,0.));
#508 = DIRECTION('',(0.,1.,2.2E-16));
#509 = ADVANCED_FACE('',(#510),#529,.F.);
#510 = FACE_BOUND('',#511,.F.);
#511 = EDGE_LOOP('',(#512,#521,#527,#528));
#512 = ORIENTED_EDGE('',*,*,#513,.F.);
#513 = EDGE_CURVE('',#514,#514,#516,.T.);
#514 = VERTEX_POINT('',#515);
#515 = CARTESIAN_POINT('',(11.85,-5.,6.25));
#516 = CIRCLE('',#517,1.1);
#517 = AXIS2_PLACEMENT_3D('',#518,#519,#520);
#518 = CARTESIAN_POINT('',(10.75,-5.,6.25));
#519 = DIRECTION('',(0.,-1.,-2.2E-16));
#520 = DIRECTION('',(1.,0.,0.));
#521 = ORIENTED_EDGE('',*,*,#522,.T.);
#522 = EDGE_CURVE('',#514,#135,#523,.T.);
#523 = LINE('',#524,#525);
#524 = CARTESIAN_POINT('',(11.85,-5.,6.25));
#525 = VECTOR('',#526,1.);
#526 = DIRECTION('',(0.,1.,-2.2E-16));
#527 = ORIENTED_EDGE('',*,*,#134,.T.);
#528 = ORIENTED_EDGE('',*,*,#522,.F.);
#529 = CYLINDRICAL_SURFACE('',#530,1.1);
#530 = AXIS2_PLACEMENT_3D('',#531,#532,#533);
#531 = CARTESIAN_POINT('',(10.75,-5.,6.25));
#532 = DIRECTION('',(0.,-1.,2.2E-16));
#533 = DIRECTION('',(1.,0.,0.));
#534 = ADVANCED_FACE('',(#535),#560,.F.);
#535 = FACE_BOUND('',#536,.F.);
#536 = EDGE_LOOP('',(#537,#545,#546,#554));
#537 = ORIENTED_EDGE('',*,*,#538,.F.);
#538 = EDGE_CURVE('',#146,#539,#541,.T.);
#539 = VERTEX_POINT('',#540);
#540 = CARTESIAN_POINT('',(-14.,-1.,23.5));
#541 = LINE('',#542,#543);
#542 = CARTESIAN_POINT('',(-14.75,-0.25,23.5));
#543 = VECTOR('',#544,1.);
#544 = DIRECTION('',(0.707106781187,-0.707106781187,1.3E-16));
#545 = ORIENTED_EDGE('',*,*,#145,.T.);
#546 = ORIENTED_EDGE('',*,*,#547,.T.);
#547 = EDGE_CURVE('',#148,#548,#550,.T.);
#548 = VERTEX_POINT('',#549);
#549 = CARTESIAN_POINT('',(-14.,-1.,13.5));
#550 = LINE('',#551,#552);
#551 = CARTESIAN_POINT('',(-14.75,-0.25,13.5));
#552 = VECTOR('',#553,1.);
#553 = DIRECTION('',(0.707106781187,-0.707106781187,-4.5E-16));
#554 = ORIENTED_EDGE('',*,*,#555,.F.);
#555 = EDGE_CURVE('',#539,#548,#556,.T.);
#556 = LINE('',#557,#558);
#557 = CARTESIAN_POINT('',(-14.,-1.,24.5));
#558 = VECTOR('',#559,1.);
#559 = DIRECTION('',(0.,-2.2E-16,-1.));
#560 = PLANE('',#561);
#561 = AXIS2_PLACEMENT_3D('',#562,#563,#564);
#562 = CARTESIAN_POINT('',(-14.5,-0.5,24.5));
#563 = DIRECTION('',(-0.707106781187,-0.707106781187,1.E-16));
#564 = DIRECTION('',(3.928932188135E-17,-1.807106781187E-16,-1.));
#565 = ADVANCED_FACE('',(#566),#584,.T.);
#566 = FACE_BOUND('',#567,.T.);
#567 = EDGE_LOOP('',(#568,#569,#570,#578));
#568 = ORIENTED_EDGE('',*,*,#538,.F.);
#569 = ORIENTED_EDGE('',*,*,#203,.T.);
#570 = ORIENTED_EDGE('',*,*,#571,.T.);
#571 = EDGE_CURVE('',#196,#572,#574,.T.);
#572 = VERTEX_POINT('',#573);
#573 = CARTESIAN_POINT('',(-13.,-1.,24.5));
#574 = LINE('',#575,#576);
#575 = CARTESIAN_POINT('',(-13.,-0.75,24.75));
#576 = VECTOR('',#577,1.);
#577 = DIRECTION('',(-1.44E-15,-0.707106781187,-0.707106781187));
#578 = ORIENTED_EDGE('',*,*,#579,.F.);
#579 = EDGE_CURVE('',#539,#572,#580,.T.);
#580 = LINE('',#581,#582);
#581 = CARTESIAN_POINT('',(-14.,-1.,23.5));
#582 = VECTOR('',#583,1.);
#583 = DIRECTION('',(0.707106781187,1.29E-15,0.707106781187));
#584 = PLANE('',#585);
#585 = AXIS2_PLACEMENT_3D('',#586,#587,#588);
#586 = CARTESIAN_POINT('',(-15.,4.75E-15,23.5));
#587 = DIRECTION('',(0.57735026919,0.57735026919,-0.57735026919));
#588 = DIRECTION('',(0.707106781187,8.326672684689E-17,0.707106781187));
#589 = ADVANCED_FACE('',(#590),#608,.F.);
#590 = FACE_BOUND('',#591,.F.);
#591 = EDGE_LOOP('',(#592,#593,#594,#602));
#592 = ORIENTED_EDGE('',*,*,#547,.F.);
#593 = ORIENTED_EDGE('',*,*,#155,.T.);
#594 = ORIENTED_EDGE('',*,*,#595,.T.);
#595 = EDGE_CURVE('',#156,#596,#598,.T.);
#596 = VERTEX_POINT('',#597);
#597 = CARTESIAN_POINT('',(-13.,-1.,12.5));
#598 = LINE('',#599,#600);
#599 = CARTESIAN_POINT('',(-13.,-0.75,12.25));
#600 = VECTOR('',#601,1.);
#601 = DIRECTION('',(-3.8E-16,-0.707106781187,0.707106781187));
#602 = ORIENTED_EDGE('',*,*,#603,.F.);
#603 = EDGE_CURVE('',#548,#596,#604,.T.);
#604 = LINE('',#605,#606);
#605 = CARTESIAN_POINT('',(-14.,-1.,13.5));
#606 = VECTOR('',#607,1.);
#607 = DIRECTION('',(0.707106781187,6.E-17,-0.707106781187));
#608 = PLANE('',#609);
#609 = AXIS2_PLACEMENT_3D('',#610,#611,#612);
#610 = CARTESIAN_POINT('',(-15.,3.28E-15,13.5));
#611 = DIRECTION('',(-0.57735026919,-0.57735026919,-0.57735026919));
#612 = DIRECTION('',(0.707106781187,1.249000902703E-15,-0.707106781187)
  );
#613 = ADVANCED_FACE('',(#614),#632,.F.);
#614 = FACE_BOUND('',#615,.F.);
#615 = EDGE_LOOP('',(#616,#624,#625,#626));
#616 = ORIENTED_EDGE('',*,*,#617,.F.);
#617 = EDGE_CURVE('',#188,#618,#620,.T.);
#618 = VERTEX_POINT('',#619);
#619 = CARTESIAN_POINT('',(13.,-1.,24.5));
#620 = LINE('',#621,#622);
#621 = CARTESIAN_POINT('',(13.,-0.75,24.75));
#622 = VECTOR('',#623,1.);
#623 = DIRECTION('',(-3.37E-15,-0.707106781187,-0.707106781187));
#624 = ORIENTED_EDGE('',*,*,#195,.T.);
#625 = ORIENTED_EDGE('',*,*,#571,.T.);
#626 = ORIENTED_EDGE('',*,*,#627,.F.);
#627 = EDGE_CURVE('',#618,#572,#628,.T.);
#628 = LINE('',#629,#630);
#629 = CARTESIAN_POINT('',(14.,-1.,24.5));
#630 = VECTOR('',#631,1.);
#631 = DIRECTION('',(-1.,0.,0.));
#632 = PLANE('',#633);
#633 = AXIS2_PLACEMENT_3D('',#634,#635,#636);
#634 = CARTESIAN_POINT('',(14.,-0.5,25.));
#635 = DIRECTION('',(1.E-17,-0.707106781187,0.707106781187));
#636 = DIRECTION('',(-1.,-7.071067811865E-18,7.071067811865E-18));
#637 = ADVANCED_FACE('',(#638),#656,.F.);
#638 = FACE_BOUND('',#639,.T.);
#639 = EDGE_LOOP('',(#640,#648,#649,#650));
#640 = ORIENTED_EDGE('',*,*,#641,.F.);
#641 = EDGE_CURVE('',#164,#642,#644,.T.);
#642 = VERTEX_POINT('',#643);
#643 = CARTESIAN_POINT('',(13.,-1.,12.5));
#644 = LINE('',#645,#646);
#645 = CARTESIAN_POINT('',(13.,-0.25,11.75));
#646 = VECTOR('',#647,1.);
#647 = DIRECTION('',(2.9E-16,-0.707106781187,0.707106781187));
#648 = ORIENTED_EDGE('',*,*,#163,.T.);
#649 = ORIENTED_EDGE('',*,*,#595,.T.);
#650 = ORIENTED_EDGE('',*,*,#651,.F.);
#651 = EDGE_CURVE('',#642,#596,#652,.T.);
#652 = LINE('',#653,#654);
#653 = CARTESIAN_POINT('',(14.,-1.,12.5));
#654 = VECTOR('',#655,1.);
#655 = DIRECTION('',(-1.,0.,0.));
#656 = PLANE('',#657);
#657 = AXIS2_PLACEMENT_3D('',#658,#659,#660);
#658 = CARTESIAN_POINT('',(14.,-0.5,12.));
#659 = DIRECTION('',(-1.E-17,-0.707106781187,-0.707106781187));
#660 = DIRECTION('',(1.,-7.071067811865E-18,-7.071067811865E-18));
#661 = ADVANCED_FACE('',(#662),#680,.F.);
#662 = FACE_BOUND('',#663,.F.);
#663 = EDGE_LOOP('',(#664,#672,#673,#674));
#664 = ORIENTED_EDGE('',*,*,#665,.F.);
#665 = EDGE_CURVE('',#180,#666,#668,.T.);
#666 = VERTEX_POINT('',#667);
#667 = CARTESIAN_POINT('',(14.,-1.,23.5));
#668 = LINE('',#669,#670);
#669 = CARTESIAN_POINT('',(14.75,-0.25,23.5));
#670 = VECTOR('',#671,1.);
#671 = DIRECTION('',(-0.707106781187,-0.707106781187,-7.3E-16));
#672 = ORIENTED_EDGE('',*,*,#187,.T.);
#673 = ORIENTED_EDGE('',*,*,#617,.T.);
#674 = ORIENTED_EDGE('',*,*,#675,.F.);
#675 = EDGE_CURVE('',#666,#618,#676,.T.);
#676 = LINE('',#677,#678);
#677 = CARTESIAN_POINT('',(14.,-1.,23.5));
#678 = VECTOR('',#679,1.);
#679 = DIRECTION('',(-0.707106781187,-2.56E-15,0.707106781187));
#680 = PLANE('',#681);
#681 = AXIS2_PLACEMENT_3D('',#682,#683,#684);
#682 = CARTESIAN_POINT('',(15.,4.75E-15,23.5));
#683 = DIRECTION('',(0.57735026919,-0.57735026919,0.57735026919));
#684 = DIRECTION('',(-0.707106781187,-1.665334536938E-16,0.707106781187)
  );
#685 = ADVANCED_FACE('',(#686),#704,.F.);
#686 = FACE_BOUND('',#687,.F.);
#687 = EDGE_LOOP('',(#688,#689,#690,#698));
#688 = ORIENTED_EDGE('',*,*,#641,.F.);
#689 = ORIENTED_EDGE('',*,*,#171,.T.);
#690 = ORIENTED_EDGE('',*,*,#691,.T.);
#691 = EDGE_CURVE('',#172,#692,#694,.T.);
#692 = VERTEX_POINT('',#693);
#693 = CARTESIAN_POINT('',(14.,-1.,13.5));
#694 = LINE('',#695,#696);
#695 = CARTESIAN_POINT('',(14.25,-0.75,13.5));
#696 = VECTOR('',#697,1.);
#697 = DIRECTION('',(-0.707106781187,-0.707106781187,-6.4E-16));
#698 = ORIENTED_EDGE('',*,*,#699,.F.);
#699 = EDGE_CURVE('',#642,#692,#700,.T.);
#700 = LINE('',#701,#702);
#701 = CARTESIAN_POINT('',(13.,-1.,12.5));
#702 = VECTOR('',#703,1.);
#703 = DIRECTION('',(0.707106781187,3.2E-16,0.707106781187));
#704 = PLANE('',#705);
#705 = AXIS2_PLACEMENT_3D('',#706,#707,#708);
#706 = CARTESIAN_POINT('',(13.,2.99E-15,11.5));
#707 = DIRECTION('',(0.57735026919,-0.57735026919,-0.57735026919));
#708 = DIRECTION('',(0.707106781187,-8.326672684689E-16,0.707106781187)
  );
#709 = ADVANCED_FACE('',(#710),#721,.F.);
#710 = FACE_BOUND('',#711,.F.);
#711 = EDGE_LOOP('',(#712,#713,#714,#715));
#712 = ORIENTED_EDGE('',*,*,#691,.F.);
#713 = ORIENTED_EDGE('',*,*,#179,.T.);
#714 = ORIENTED_EDGE('',*,*,#665,.T.);
#715 = ORIENTED_EDGE('',*,*,#716,.F.);
#716 = EDGE_CURVE('',#692,#666,#717,.T.);
#717 = LINE('',#718,#719);
#718 = CARTESIAN_POINT('',(14.,-1.,12.5));
#719 = VECTOR('',#720,1.);
#720 = DIRECTION('',(0.,2.2E-16,1.));
#721 = PLANE('',#722);
#722 = AXIS2_PLACEMENT_3D('',#723,#724,#725);
#723 = CARTESIAN_POINT('',(14.5,-0.5,12.5));
#724 = DIRECTION('',(0.707106781187,-0.707106781187,1.1E-16));
#725 = DIRECTION('',(3.221825406948E-17,1.877817459305E-16,1.));
#726 = ADVANCED_FACE('',(#727),#746,.F.);
#727 = FACE_BOUND('',#728,.F.);
#728 = EDGE_LOOP('',(#729,#738,#744,#745));
#729 = ORIENTED_EDGE('',*,*,#730,.F.);
#730 = EDGE_CURVE('',#731,#731,#733,.T.);
#731 = VERTEX_POINT('',#732);
#732 = CARTESIAN_POINT('',(1.1,-5.,-7.));
#733 = CIRCLE('',#734,1.1);
#734 = AXIS2_PLACEMENT_3D('',#735,#736,#737);
#735 = CARTESIAN_POINT('',(0.,-5.,-7.));
#736 = DIRECTION('',(0.,-1.,-2.2E-16));
#737 = DIRECTION('',(1.,0.,0.));
#738 = ORIENTED_EDGE('',*,*,#739,.T.);
#739 = EDGE_CURVE('',#731,#212,#740,.T.);
#740 = LINE('',#741,#742);
#741 = CARTESIAN_POINT('',(1.1,-5.,-7.));
#742 = VECTOR('',#743,1.);
#743 = DIRECTION('',(0.,1.,-2.2E-16));
#744 = ORIENTED_EDGE('',*,*,#211,.T.);
#745 = ORIENTED_EDGE('',*,*,#739,.F.);
#746 = CYLINDRICAL_SURFACE('',#747,1.1);
#747 = AXIS2_PLACEMENT_3D('',#748,#749,#750);
#748 = CARTESIAN_POINT('',(0.,-5.,-7.));
#749 = DIRECTION('',(0.,-1.,2.2E-16));
#750 = DIRECTION('',(1.,0.,0.));
#751 = ADVANCED_FACE('',(#752),#771,.F.);
#752 = FACE_BOUND('',#753,.F.);
#753 = EDGE_LOOP('',(#754,#763,#769,#770));
#754 = ORIENTED_EDGE('',*,*,#755,.F.);
#755 = EDGE_CURVE('',#756,#756,#758,.T.);
#756 = VERTEX_POINT('',#757);
#757 = CARTESIAN_POINT('',(-9.65,-5.,6.25));
#758 = CIRCLE('',#759,1.1);
#759 = AXIS2_PLACEMENT_3D('',#760,#761,#762);
#760 = CARTESIAN_POINT('',(-10.75,-5.,6.25));
#761 = DIRECTION('',(0.,-1.,-2.2E-16));
#762 = DIRECTION('',(1.,0.,0.));
#763 = ORIENTED_EDGE('',*,*,#764,.T.);
#764 = EDGE_CURVE('',#756,#223,#765,.T.);
#765 = LINE('',#766,#767);
#766 = CARTESIAN_POINT('',(-9.65,-5.,6.25));
#767 = VECTOR('',#768,1.);
#768 = DIRECTION('',(0.,1.,-2.2E-16));
#769 = ORIENTED_EDGE('',*,*,#222,.T.);
#770 = ORIENTED_EDGE('',*,*,#764,.F.);
#771 = CYLINDRICAL_SURFACE('',#772,1.1);
#772 = AXIS2_PLACEMENT_3D('',#773,#774,#775);
#773 = CARTESIAN_POINT('',(-10.75,-5.,6.25));
#774 = DIRECTION('',(0.,-1.,2.2E-16));
#775 = DIRECTION('',(1.,0.,0.));
#776 = ADVANCED_FACE('',(#777),#787,.F.);
#777 = FACE_BOUND('',#778,.F.);
#778 = EDGE_LOOP('',(#779,#780,#781));
#779 = ORIENTED_EDGE('',*,*,#287,.F.);
#780 = ORIENTED_EDGE('',*,*,#241,.T.);
#781 = ORIENTED_EDGE('',*,*,#782,.F.);
#782 = EDGE_CURVE('',#288,#242,#783,.T.);
#783 = LINE('',#784,#785);
#784 = CARTESIAN_POINT('',(-18.5,-4.5,-11.5));
#785 = VECTOR('',#786,1.);
#786 = DIRECTION('',(-0.707106781187,0.707106781187,1.41E-15));
#787 = PLANE('',#788);
#788 = AXIS2_PLACEMENT_3D('',#789,#790,#791);
#789 = CARTESIAN_POINT('',(-18.,-4.,-12.5));
#790 = DIRECTION('',(0.57735026919,0.57735026919,0.57735026919));
#791 = DIRECTION('',(-0.707106781187,0.707106781187,1.387778780781E-15)
  );
#792 = ADVANCED_FACE('',(#793),#803,.T.);
#793 = FACE_BOUND('',#794,.T.);
#794 = EDGE_LOOP('',(#795,#796,#797));
#795 = ORIENTED_EDGE('',*,*,#296,.F.);
#796 = ORIENTED_EDGE('',*,*,#265,.T.);
#797 = ORIENTED_EDGE('',*,*,#798,.F.);
#798 = EDGE_CURVE('',#297,#266,#799,.T.);
#799 = LINE('',#800,#801);
#800 = CARTESIAN_POINT('',(18.5,-4.5,-11.5));
#801 = VECTOR('',#802,1.);
#802 = DIRECTION('',(0.707106781187,0.707106781187,-1.09E-15));
#803 = PLANE('',#804);
#804 = AXIS2_PLACEMENT_3D('',#805,#806,#807);
#805 = CARTESIAN_POINT('',(18.,-4.,-12.5));
#806 = DIRECTION('',(0.57735026919,-0.57735026919,-0.57735026919));
#807 = DIRECTION('',(0.707106781187,0.707106781187,1.942890293094E-16));
#808 = ADVANCED_FACE('',(#809,#875,#878,#881,#884),#909,.T.);
#809 = FACE_BOUND('',#810,.T.);
#810 = EDGE_LOOP('',(#811,#821,#829,#837,#845,#853,#861,#869));
#811 = ORIENTED_EDGE('',*,*,#812,.F.);
#812 = EDGE_CURVE('',#813,#815,#817,.T.);
#813 = VERTEX_POINT('',#814);
#814 = CARTESIAN_POINT('',(-15.,-5.,23.5));
#815 = VERTEX_POINT('',#816);
#816 = CARTESIAN_POINT('',(-15.,-5.,13.5));
#817 = LINE('',#818,#819);
#818 = CARTESIAN_POINT('',(-15.,-5.,24.5));
#819 = VECTOR('',#820,1.);
#820 = DIRECTION('',(0.,-2.2E-16,-1.));
#821 = ORIENTED_EDGE('',*,*,#822,.T.);
#822 = EDGE_CURVE('',#813,#823,#825,.T.);
#823 = VERTEX_POINT('',#824);
#824 = CARTESIAN_POINT('',(-13.,-5.,25.5));
#825 = LINE('',#826,#827);
#826 = CARTESIAN_POINT('',(-15.,-5.,23.5));
#827 = VECTOR('',#828,1.);
#828 = DIRECTION('',(0.707106781187,1.1E-16,0.707106781187));
#829 = ORIENTED_EDGE('',*,*,#830,.F.);
#830 = EDGE_CURVE('',#831,#823,#833,.T.);
#831 = VERTEX_POINT('',#832);
#832 = CARTESIAN_POINT('',(13.,-5.,25.5));
#833 = LINE('',#834,#835);
#834 = CARTESIAN_POINT('',(14.,-5.,25.5));
#835 = VECTOR('',#836,1.);
#836 = DIRECTION('',(-1.,0.,0.));
#837 = ORIENTED_EDGE('',*,*,#838,.T.);
#838 = EDGE_CURVE('',#831,#839,#841,.T.);
#839 = VERTEX_POINT('',#840);
#840 = CARTESIAN_POINT('',(15.,-5.,23.5));
#841 = LINE('',#842,#843);
#842 = CARTESIAN_POINT('',(14.,-5.,24.5));
#843 = VECTOR('',#844,1.);
#844 = DIRECTION('',(0.707106781187,-1.1E-16,-0.707106781187));
#845 = ORIENTED_EDGE('',*,*,#846,.F.);
#846 = EDGE_CURVE('',#847,#839,#849,.T.);
#847 = VERTEX_POINT('',#848);
#848 = CARTESIAN_POINT('',(15.,-5.,13.5));
#849 = LINE('',#850,#851);
#850 = CARTESIAN_POINT('',(15.,-5.,12.5));
#851 = VECTOR('',#852,1.);
#852 = DIRECTION('',(0.,2.2E-16,1.));
#853 = ORIENTED_EDGE('',*,*,#854,.T.);
#854 = EDGE_CURVE('',#847,#855,#857,.T.);
#855 = VERTEX_POINT('',#856);
#856 = CARTESIAN_POINT('',(13.,-5.,11.5));
#857 = LINE('',#858,#859);
#858 = CARTESIAN_POINT('',(10.,-5.,8.5));
#859 = VECTOR('',#860,1.);
#860 = DIRECTION('',(-0.707106781187,-1.1E-16,-0.707106781187));
#861 = ORIENTED_EDGE('',*,*,#862,.T.);
#862 = EDGE_CURVE('',#855,#863,#865,.T.);
#863 = VERTEX_POINT('',#864);
#864 = CARTESIAN_POINT('',(-13.,-5.,11.5));
#865 = LINE('',#866,#867);
#866 = CARTESIAN_POINT('',(14.,-5.,11.5));
#867 = VECTOR('',#868,1.);
#868 = DIRECTION('',(-1.,0.,0.));
#869 = ORIENTED_EDGE('',*,*,#870,.F.);
#870 = EDGE_CURVE('',#815,#863,#871,.T.);
#871 = LINE('',#872,#873);
#872 = CARTESIAN_POINT('',(-10.,-5.,8.5));
#873 = VECTOR('',#874,1.);
#874 = DIRECTION('',(0.707106781187,-1.1E-16,-0.707106781187));
#875 = FACE_BOUND('',#876,.T.);
#876 = EDGE_LOOP('',(#877));
#877 = ORIENTED_EDGE('',*,*,#755,.F.);
#878 = FACE_BOUND('',#879,.T.);
#879 = EDGE_LOOP('',(#880));
#880 = ORIENTED_EDGE('',*,*,#513,.F.);
#881 = FACE_BOUND('',#882,.T.);
#882 = EDGE_LOOP('',(#883));
#883 = ORIENTED_EDGE('',*,*,#730,.F.);
#884 = FACE_BOUND('',#885,.T.);
#885 = EDGE_LOOP('',(#886,#894,#902,#908));
#886 = ORIENTED_EDGE('',*,*,#887,.F.);
#887 = EDGE_CURVE('',#888,#297,#890,.T.);
#888 = VERTEX_POINT('',#889);
#889 = CARTESIAN_POINT('',(18.,-5.,28.5));
#890 = LINE('',#891,#892);
#891 = CARTESIAN_POINT('',(18.,-5.,29.5));
#892 = VECTOR('',#893,1.);
#893 = DIRECTION('',(0.,-2.2E-16,-1.));
#894 = ORIENTED_EDGE('',*,*,#895,.F.);
#895 = EDGE_CURVE('',#896,#888,#898,.T.);
#896 = VERTEX_POINT('',#897);
#897 = CARTESIAN_POINT('',(-18.,-5.,28.5));
#898 = LINE('',#899,#900);
#899 = CARTESIAN_POINT('',(-19.,-5.,28.5));
#900 = VECTOR('',#901,1.);
#901 = DIRECTION('',(1.,0.,0.));
#902 = ORIENTED_EDGE('',*,*,#903,.F.);
#903 = EDGE_CURVE('',#288,#896,#904,.T.);
#904 = LINE('',#905,#906);
#905 = CARTESIAN_POINT('',(-18.,-5.,-12.5));
#906 = VECTOR('',#907,1.);
#907 = DIRECTION('',(0.,2.2E-16,1.));
#908 = ORIENTED_EDGE('',*,*,#304,.T.);
#909 = PLANE('',#910);
#910 = AXIS2_PLACEMENT_3D('',#911,#912,#913);
#911 = CARTESIAN_POINT('',(0.,-5.,8.5));
#912 = DIRECTION('',(0.,-1.,1.5E-16));
#913 = DIRECTION('',(0.,1.5E-16,1.));
#914 = ADVANCED_FACE('',(#915),#926,.T.);
#915 = FACE_BOUND('',#916,.F.);
#916 = EDGE_LOOP('',(#917,#918,#919,#920));
#917 = ORIENTED_EDGE('',*,*,#344,.T.);
#918 = ORIENTED_EDGE('',*,*,#798,.F.);
#919 = ORIENTED_EDGE('',*,*,#887,.F.);
#920 = ORIENTED_EDGE('',*,*,#921,.T.);
#921 = EDGE_CURVE('',#888,#337,#922,.T.);
#922 = LINE('',#923,#924);
#923 = CARTESIAN_POINT('',(18.5,-4.5,28.5));
#924 = VECTOR('',#925,1.);
#925 = DIRECTION('',(0.707106781187,0.707106781187,-1.38E-15));
#926 = PLANE('',#927);
#927 = AXIS2_PLACEMENT_3D('',#928,#929,#930);
#928 = CARTESIAN_POINT('',(18.5,-4.5,29.5));
#929 = DIRECTION('',(0.707106781187,-0.707106781187,8.E-17));
#930 = DIRECTION('',(5.343145750508E-17,1.665685424949E-16,1.));
#931 = ADVANCED_FACE('',(#932),#951,.F.);
#932 = FACE_BOUND('',#933,.T.);
#933 = EDGE_LOOP('',(#934,#942,#948,#949,#950));
#934 = ORIENTED_EDGE('',*,*,#935,.F.);
#935 = EDGE_CURVE('',#936,#410,#938,.T.);
#936 = VERTEX_POINT('',#937);
#937 = CARTESIAN_POINT('',(18.,-4.,29.5));
#938 = LINE('',#939,#940);
#939 = CARTESIAN_POINT('',(18.,-5.,29.5));
#940 = VECTOR('',#941,1.);
#941 = DIRECTION('',(0.,1.,-2.2E-16));
#942 = ORIENTED_EDGE('',*,*,#943,.T.);
#943 = EDGE_CURVE('',#936,#337,#944,.T.);
#944 = LINE('',#945,#946);
#945 = CARTESIAN_POINT('',(18.25,-4.,29.25));
#946 = VECTOR('',#947,1.);
#947 = DIRECTION('',(0.707106781187,-1.48E-15,-0.707106781187));
#948 = ORIENTED_EDGE('',*,*,#336,.T.);
#949 = ORIENTED_EDGE('',*,*,#385,.F.);
#950 = ORIENTED_EDGE('',*,*,#417,.T.);
#951 = PLANE('',#952);
#952 = AXIS2_PLACEMENT_3D('',#953,#954,#955);
#953 = CARTESIAN_POINT('',(18.5,-5.,29.));
#954 = DIRECTION('',(-0.707106781187,-1.1E-16,-0.707106781187));
#955 = DIRECTION('',(-3.221825406948E-17,-1.,1.877817459305E-16));
#956 = ADVANCED_FACE('',(#957),#976,.F.);
#957 = FACE_BOUND('',#958,.T.);
#958 = EDGE_LOOP('',(#959,#960,#968,#974,#975));
#959 = ORIENTED_EDGE('',*,*,#498,.F.);
#960 = ORIENTED_EDGE('',*,*,#961,.T.);
#961 = EDGE_CURVE('',#491,#962,#964,.T.);
#962 = VERTEX_POINT('',#963);
#963 = CARTESIAN_POINT('',(-18.,-4.,29.5));
#964 = LINE('',#965,#966);
#965 = CARTESIAN_POINT('',(-18.75,-4.,28.75));
#966 = VECTOR('',#967,1.);
#967 = DIRECTION('',(0.707106781187,-1.6E-16,0.707106781187));
#968 = ORIENTED_EDGE('',*,*,#969,.T.);
#969 = EDGE_CURVE('',#962,#400,#970,.T.);
#970 = LINE('',#971,#972);
#971 = CARTESIAN_POINT('',(-18.,-5.,29.5));
#972 = VECTOR('',#973,1.);
#973 = DIRECTION('',(0.,1.,-2.2E-16));
#974 = ORIENTED_EDGE('',*,*,#399,.T.);
#975 = ORIENTED_EDGE('',*,*,#439,.F.);
#976 = PLANE('',#977);
#977 = AXIS2_PLACEMENT_3D('',#978,#979,#980);
#978 = CARTESIAN_POINT('',(-18.5,-5.,29.));
#979 = DIRECTION('',(0.707106781187,-8.E-17,-0.707106781187));
#980 = DIRECTION('',(5.343145750508E-17,-1.,1.665685424949E-16));
#981 = ADVANCED_FACE('',(#982),#993,.F.);
#982 = FACE_BOUND('',#983,.F.);
#983 = EDGE_LOOP('',(#984,#990,#991,#992));
#984 = ORIENTED_EDGE('',*,*,#985,.F.);
#985 = EDGE_CURVE('',#962,#936,#986,.T.);
#986 = LINE('',#987,#988);
#987 = CARTESIAN_POINT('',(-19.,-4.,29.5));
#988 = VECTOR('',#989,1.);
#989 = DIRECTION('',(1.,0.,0.));
#990 = ORIENTED_EDGE('',*,*,#969,.T.);
#991 = ORIENTED_EDGE('',*,*,#409,.T.);
#992 = ORIENTED_EDGE('',*,*,#935,.F.);
#993 = PLANE('',#994);
#994 = AXIS2_PLACEMENT_3D('',#995,#996,#997);
#995 = CARTESIAN_POINT('',(-19.,-5.,29.5));
#996 = DIRECTION('',(0.,-2.2E-16,-1.));
#997 = DIRECTION('',(1.,0.,0.));
#998 = ADVANCED_FACE('',(#999),#1010,.T.);
#999 = FACE_BOUND('',#1000,.T.);
#1000 = EDGE_LOOP('',(#1001,#1002,#1008,#1009));
#1001 = ORIENTED_EDGE('',*,*,#903,.T.);
#1002 = ORIENTED_EDGE('',*,*,#1003,.F.);
#1003 = EDGE_CURVE('',#491,#896,#1004,.T.);
#1004 = LINE('',#1005,#1006);
#1005 = CARTESIAN_POINT('',(-18.75,-4.25,28.5));
#1006 = VECTOR('',#1007,1.);
#1007 = DIRECTION('',(0.707106781187,-0.707106781187,2.44E-15));
#1008 = ORIENTED_EDGE('',*,*,#490,.F.);
#1009 = ORIENTED_EDGE('',*,*,#782,.F.);
#1010 = PLANE('',#1011);
#1011 = AXIS2_PLACEMENT_3D('',#1012,#1013,#1014);
#1012 = CARTESIAN_POINT('',(-18.5,-4.5,-12.5));
#1013 = DIRECTION('',(-0.707106781187,-0.707106781187,1.1E-16));
#1014 = DIRECTION('',(-3.221825406948E-17,1.877817459305E-16,1.));
#1015 = ADVANCED_FACE('',(#1016),#1041,.F.);
#1016 = FACE_BOUND('',#1017,.F.);
#1017 = EDGE_LOOP('',(#1018,#1028,#1034,#1035));
#1018 = ORIENTED_EDGE('',*,*,#1019,.F.);
#1019 = EDGE_CURVE('',#1020,#1022,#1024,.T.);
#1020 = VERTEX_POINT('',#1021);
#1021 = CARTESIAN_POINT('',(-14.,-4.,23.5));
#1022 = VERTEX_POINT('',#1023);
#1023 = CARTESIAN_POINT('',(-14.,-4.,13.5));
#1024 = LINE('',#1025,#1026);
#1025 = CARTESIAN_POINT('',(-14.,-4.,24.5));
#1026 = VECTOR('',#1027,1.);
#1027 = DIRECTION('',(0.,-2.2E-16,-1.));
#1028 = ORIENTED_EDGE('',*,*,#1029,.T.);
#1029 = EDGE_CURVE('',#1020,#539,#1030,.T.);
#1030 = LINE('',#1031,#1032);
#1031 = CARTESIAN_POINT('',(-14.,-5.,23.5));
#1032 = VECTOR('',#1033,1.);
#1033 = DIRECTION('',(0.,1.,-2.2E-16));
#1034 = ORIENTED_EDGE('',*,*,#555,.T.);
#1035 = ORIENTED_EDGE('',*,*,#1036,.F.);
#1036 = EDGE_CURVE('',#1022,#548,#1037,.T.);
#1037 = LINE('',#1038,#1039);
#1038 = CARTESIAN_POINT('',(-14.,-5.,13.5));
#1039 = VECTOR('',#1040,1.);
#1040 = DIRECTION('',(0.,1.,-2.2E-16));
#1041 = PLANE('',#1042);
#1042 = AXIS2_PLACEMENT_3D('',#1043,#1044,#1045);
#1043 = CARTESIAN_POINT('',(-14.,-5.,24.5));
#1044 = DIRECTION('',(-1.,0.,0.));
#1045 = DIRECTION('',(0.,-2.2E-16,-1.));
#1046 = ADVANCED_FACE('',(#1047),#1065,.F.);
#1047 = FACE_BOUND('',#1048,.F.);
#1048 = EDGE_LOOP('',(#1049,#1057,#1058,#1059));
#1049 = ORIENTED_EDGE('',*,*,#1050,.T.);
#1050 = EDGE_CURVE('',#1051,#572,#1053,.T.);
#1051 = VERTEX_POINT('',#1052);
#1052 = CARTESIAN_POINT('',(-13.,-4.,24.5));
#1053 = LINE('',#1054,#1055);
#1054 = CARTESIAN_POINT('',(-13.,-5.,24.5));
#1055 = VECTOR('',#1056,1.);
#1056 = DIRECTION('',(0.,1.,-2.2E-16));
#1057 = ORIENTED_EDGE('',*,*,#579,.F.);
#1058 = ORIENTED_EDGE('',*,*,#1029,.F.);
#1059 = ORIENTED_EDGE('',*,*,#1060,.T.);
#1060 = EDGE_CURVE('',#1020,#1051,#1061,.T.);
#1061 = LINE('',#1062,#1063);
#1062 = CARTESIAN_POINT('',(-14.,-4.,23.5));
#1063 = VECTOR('',#1064,1.);
#1064 = DIRECTION('',(0.707106781187,-1.12E-15,0.707106781187));
#1065 = PLANE('',#1066);
#1066 = AXIS2_PLACEMENT_3D('',#1067,#1068,#1069);
#1067 = CARTESIAN_POINT('',(-13.5,-5.,24.));
#1068 = DIRECTION('',(-0.707106781187,1.1E-16,0.707106781187));
#1069 = DIRECTION('',(-3.221825406948E-17,1.,-1.877817459305E-16));
#1070 = ADVANCED_FACE('',(#1071),#1089,.F.);
#1071 = FACE_BOUND('',#1072,.T.);
#1072 = EDGE_LOOP('',(#1073,#1081,#1082,#1083));
#1073 = ORIENTED_EDGE('',*,*,#1074,.T.);
#1074 = EDGE_CURVE('',#1075,#596,#1077,.T.);
#1075 = VERTEX_POINT('',#1076);
#1076 = CARTESIAN_POINT('',(-13.,-4.,12.5));
#1077 = LINE('',#1078,#1079);
#1078 = CARTESIAN_POINT('',(-13.,-5.,12.5));
#1079 = VECTOR('',#1080,1.);
#1080 = DIRECTION('',(0.,1.,-2.2E-16));
#1081 = ORIENTED_EDGE('',*,*,#603,.F.);
#1082 = ORIENTED_EDGE('',*,*,#1036,.F.);
#1083 = ORIENTED_EDGE('',*,*,#1084,.T.);
#1084 = EDGE_CURVE('',#1022,#1075,#1085,.T.);
#1085 = LINE('',#1086,#1087);
#1086 = CARTESIAN_POINT('',(-14.,-4.,13.5));
#1087 = VECTOR('',#1088,1.);
#1088 = DIRECTION('',(0.707106781187,1.6E-16,-0.707106781187));
#1089 = PLANE('',#1090);
#1090 = AXIS2_PLACEMENT_3D('',#1091,#1092,#1093);
#1091 = CARTESIAN_POINT('',(-13.5,-5.,13.));
#1092 = DIRECTION('',(-0.707106781187,-3.5E-16,-0.707106781187));
#1093 = DIRECTION('',(1.324873734153E-16,-1.,3.624873734153E-16));
#1094 = ADVANCED_FACE('',(#1095),#1113,.F.);
#1095 = FACE_BOUND('',#1096,.F.);
#1096 = EDGE_LOOP('',(#1097,#1105,#1111,#1112));
#1097 = ORIENTED_EDGE('',*,*,#1098,.F.);
#1098 = EDGE_CURVE('',#1099,#1051,#1101,.T.);
#1099 = VERTEX_POINT('',#1100);
#1100 = CARTESIAN_POINT('',(13.,-4.,24.5));
#1101 = LINE('',#1102,#1103);
#1102 = CARTESIAN_POINT('',(14.,-4.,24.5));
#1103 = VECTOR('',#1104,1.);
#1104 = DIRECTION('',(-1.,0.,0.));
#1105 = ORIENTED_EDGE('',*,*,#1106,.T.);
#1106 = EDGE_CURVE('',#1099,#618,#1107,.T.);
#1107 = LINE('',#1108,#1109);
#1108 = CARTESIAN_POINT('',(13.,-5.,24.5));
#1109 = VECTOR('',#1110,1.);
#1110 = DIRECTION('',(0.,1.,-2.2E-16));
#1111 = ORIENTED_EDGE('',*,*,#627,.T.);
#1112 = ORIENTED_EDGE('',*,*,#1050,.F.);
#1113 = PLANE('',#1114);
#1114 = AXIS2_PLACEMENT_3D('',#1115,#1116,#1117);
#1115 = CARTESIAN_POINT('',(14.,-5.,24.5));
#1116 = DIRECTION('',(0.,2.2E-16,1.));
#1117 = DIRECTION('',(-1.,0.,0.));
#1118 = ADVANCED_FACE('',(#1119),#1137,.F.);
#1119 = FACE_BOUND('',#1120,.F.);
#1120 = EDGE_LOOP('',(#1121,#1122,#1130,#1136));
#1121 = ORIENTED_EDGE('',*,*,#651,.F.);
#1122 = ORIENTED_EDGE('',*,*,#1123,.F.);
#1123 = EDGE_CURVE('',#1124,#642,#1126,.T.);
#1124 = VERTEX_POINT('',#1125);
#1125 = CARTESIAN_POINT('',(13.,-4.,12.5));
#1126 = LINE('',#1127,#1128);
#1127 = CARTESIAN_POINT('',(13.,-5.,12.5));
#1128 = VECTOR('',#1129,1.);
#1129 = DIRECTION('',(0.,1.,-2.2E-16));
#1130 = ORIENTED_EDGE('',*,*,#1131,.T.);
#1131 = EDGE_CURVE('',#1124,#1075,#1132,.T.);
#1132 = LINE('',#1133,#1134);
#1133 = CARTESIAN_POINT('',(14.,-4.,12.5));
#1134 = VECTOR('',#1135,1.);
#1135 = DIRECTION('',(-1.,0.,0.));
#1136 = ORIENTED_EDGE('',*,*,#1074,.T.);
#1137 = PLANE('',#1138);
#1138 = AXIS2_PLACEMENT_3D('',#1139,#1140,#1141);
#1139 = CARTESIAN_POINT('',(19.,2.77E-15,12.5));
#1140 = DIRECTION('',(0.,-2.2E-16,-1.));
#1141 = DIRECTION('',(-1.,0.,0.));
#1142 = ADVANCED_FACE('',(#1143),#1161,.F.);
#1143 = FACE_BOUND('',#1144,.F.);
#1144 = EDGE_LOOP('',(#1145,#1153,#1154,#1155));
#1145 = ORIENTED_EDGE('',*,*,#1146,.T.);
#1146 = EDGE_CURVE('',#1147,#666,#1149,.T.);
#1147 = VERTEX_POINT('',#1148);
#1148 = CARTESIAN_POINT('',(14.,-4.,23.5));
#1149 = LINE('',#1150,#1151);
#1150 = CARTESIAN_POINT('',(14.,-5.,23.5));
#1151 = VECTOR('',#1152,1.);
#1152 = DIRECTION('',(0.,1.,-2.2E-16));
#1153 = ORIENTED_EDGE('',*,*,#675,.T.);
#1154 = ORIENTED_EDGE('',*,*,#1106,.F.);
#1155 = ORIENTED_EDGE('',*,*,#1156,.T.);
#1156 = EDGE_CURVE('',#1099,#1147,#1157,.T.);
#1157 = LINE('',#1158,#1159);
#1158 = CARTESIAN_POINT('',(13.,-4.,24.5));
#1159 = VECTOR('',#1160,1.);
#1160 = DIRECTION('',(0.707106781187,-2.05E-15,-0.707106781187));
#1161 = PLANE('',#1162);
#1162 = AXIS2_PLACEMENT_3D('',#1163,#1164,#1165);
#1163 = CARTESIAN_POINT('',(13.5,-5.,24.));
#1164 = DIRECTION('',(0.707106781187,8.E-17,0.707106781187));
#1165 = DIRECTION('',(5.343145750508E-17,1.,-1.665685424949E-16));
#1166 = ADVANCED_FACE('',(#1167),#1185,.F.);
#1167 = FACE_BOUND('',#1168,.F.);
#1168 = EDGE_LOOP('',(#1169,#1170,#1171,#1179));
#1169 = ORIENTED_EDGE('',*,*,#1123,.T.);
#1170 = ORIENTED_EDGE('',*,*,#699,.T.);
#1171 = ORIENTED_EDGE('',*,*,#1172,.F.);
#1172 = EDGE_CURVE('',#1173,#692,#1175,.T.);
#1173 = VERTEX_POINT('',#1174);
#1174 = CARTESIAN_POINT('',(14.,-4.,13.5));
#1175 = LINE('',#1176,#1177);
#1176 = CARTESIAN_POINT('',(14.,-5.,13.5));
#1177 = VECTOR('',#1178,1.);
#1178 = DIRECTION('',(0.,1.,-2.2E-16));
#1179 = ORIENTED_EDGE('',*,*,#1180,.T.);
#1180 = EDGE_CURVE('',#1173,#1124,#1181,.T.);
#1181 = LINE('',#1182,#1183);
#1182 = CARTESIAN_POINT('',(14.,-4.,13.5));
#1183 = VECTOR('',#1184,1.);
#1184 = DIRECTION('',(-0.707106781187,8.3E-16,-0.707106781187));
#1185 = PLANE('',#1186);
#1186 = AXIS2_PLACEMENT_3D('',#1187,#1188,#1189);
#1187 = CARTESIAN_POINT('',(13.5,-5.,13.));
#1188 = DIRECTION('',(0.707106781187,-3.5E-16,-0.707106781187));
#1189 = DIRECTION('',(1.324873734153E-16,1.,-3.624873734153E-16));
#1190 = ADVANCED_FACE('',(#1191),#1202,.F.);
#1191 = FACE_BOUND('',#1192,.F.);
#1192 = EDGE_LOOP('',(#1193,#1199,#1200,#1201));
#1193 = ORIENTED_EDGE('',*,*,#1194,.F.);
#1194 = EDGE_CURVE('',#1173,#1147,#1195,.T.);
#1195 = LINE('',#1196,#1197);
#1196 = CARTESIAN_POINT('',(14.,-4.,12.5));
#1197 = VECTOR('',#1198,1.);
#1198 = DIRECTION('',(0.,2.2E-16,1.));
#1199 = ORIENTED_EDGE('',*,*,#1172,.T.);
#1200 = ORIENTED_EDGE('',*,*,#716,.T.);
#1201 = ORIENTED_EDGE('',*,*,#1146,.F.);
#1202 = PLANE('',#1203);
#1203 = AXIS2_PLACEMENT_3D('',#1204,#1205,#1206);
#1204 = CARTESIAN_POINT('',(14.,-5.,12.5));
#1205 = DIRECTION('',(1.,0.,0.));
#1206 = DIRECTION('',(0.,2.2E-16,1.));
#1207 = ADVANCED_FACE('',(#1208),#1224,.F.);
#1208 = FACE_BOUND('',#1209,.F.);
#1209 = EDGE_LOOP('',(#1210,#1216,#1217,#1223));
#1210 = ORIENTED_EDGE('',*,*,#1211,.T.);
#1211 = EDGE_CURVE('',#813,#1020,#1212,.T.);
#1212 = LINE('',#1213,#1214);
#1213 = CARTESIAN_POINT('',(-14.75,-4.75,23.5));
#1214 = VECTOR('',#1215,1.);
#1215 = DIRECTION('',(0.707106781187,0.707106781187,2.27E-15));
#1216 = ORIENTED_EDGE('',*,*,#1019,.T.);
#1217 = ORIENTED_EDGE('',*,*,#1218,.F.);
#1218 = EDGE_CURVE('',#815,#1022,#1219,.T.);
#1219 = LINE('',#1220,#1221);
#1220 = CARTESIAN_POINT('',(-14.75,-4.75,13.5));
#1221 = VECTOR('',#1222,1.);
#1222 = DIRECTION('',(0.707106781187,0.707106781187,2.27E-15));
#1223 = ORIENTED_EDGE('',*,*,#812,.F.);
#1224 = PLANE('',#1225);
#1225 = AXIS2_PLACEMENT_3D('',#1226,#1227,#1228);
#1226 = CARTESIAN_POINT('',(-14.5,-4.5,24.5));
#1227 = DIRECTION('',(-0.707106781187,0.707106781187,-1.7E-16));
#1228 = DIRECTION('',(1.020815280171E-17,-2.302081528017E-16,-1.));
#1229 = ADVANCED_FACE('',(#1230),#1241,.F.);
#1230 = FACE_BOUND('',#1231,.F.);
#1231 = EDGE_LOOP('',(#1232,#1233,#1234,#1240));
#1232 = ORIENTED_EDGE('',*,*,#1211,.F.);
#1233 = ORIENTED_EDGE('',*,*,#822,.T.);
#1234 = ORIENTED_EDGE('',*,*,#1235,.T.);
#1235 = EDGE_CURVE('',#823,#1051,#1236,.T.);
#1236 = LINE('',#1237,#1238);
#1237 = CARTESIAN_POINT('',(-13.,-4.25,24.75));
#1238 = VECTOR('',#1239,1.);
#1239 = DIRECTION('',(-3.08E-15,0.707106781187,-0.707106781187));
#1240 = ORIENTED_EDGE('',*,*,#1060,.F.);
#1241 = PLANE('',#1242);
#1242 = AXIS2_PLACEMENT_3D('',#1243,#1244,#1245);
#1243 = CARTESIAN_POINT('',(-15.,-5.,23.5));
#1244 = DIRECTION('',(-0.57735026919,0.57735026919,0.57735026919));
#1245 = DIRECTION('',(0.707106781187,8.326672684689E-17,0.707106781187)
  );
#1246 = ADVANCED_FACE('',(#1247),#1258,.T.);
#1247 = FACE_BOUND('',#1248,.T.);
#1248 = EDGE_LOOP('',(#1249,#1250,#1251,#1257));
#1249 = ORIENTED_EDGE('',*,*,#1218,.F.);
#1250 = ORIENTED_EDGE('',*,*,#870,.T.);
#1251 = ORIENTED_EDGE('',*,*,#1252,.T.);
#1252 = EDGE_CURVE('',#863,#1075,#1253,.T.);
#1253 = LINE('',#1254,#1255);
#1254 = CARTESIAN_POINT('',(-13.,-4.25,12.25));
#1255 = VECTOR('',#1256,1.);
#1256 = DIRECTION('',(2.12E-15,0.707106781187,0.707106781187));
#1257 = ORIENTED_EDGE('',*,*,#1084,.F.);
#1258 = PLANE('',#1259);
#1259 = AXIS2_PLACEMENT_3D('',#1260,#1261,#1262);
#1260 = CARTESIAN_POINT('',(-15.,-5.,13.5));
#1261 = DIRECTION('',(0.57735026919,-0.57735026919,0.57735026919));
#1262 = DIRECTION('',(0.707106781187,1.665334536938E-16,-0.707106781187)
  );
#1263 = ADVANCED_FACE('',(#1264),#1275,.F.);
#1264 = FACE_BOUND('',#1265,.F.);
#1265 = EDGE_LOOP('',(#1266,#1272,#1273,#1274));
#1266 = ORIENTED_EDGE('',*,*,#1267,.T.);
#1267 = EDGE_CURVE('',#831,#1099,#1268,.T.);
#1268 = LINE('',#1269,#1270);
#1269 = CARTESIAN_POINT('',(13.,-4.75,25.25));
#1270 = VECTOR('',#1271,1.);
#1271 = DIRECTION('',(3.08E-15,0.707106781187,-0.707106781187));
#1272 = ORIENTED_EDGE('',*,*,#1098,.T.);
#1273 = ORIENTED_EDGE('',*,*,#1235,.F.);
#1274 = ORIENTED_EDGE('',*,*,#830,.F.);
#1275 = PLANE('',#1276);
#1276 = AXIS2_PLACEMENT_3D('',#1277,#1278,#1279);
#1277 = CARTESIAN_POINT('',(14.,-4.5,25.));
#1278 = DIRECTION('',(0.,0.707106781187,0.707106781187));
#1279 = DIRECTION('',(-1.,0.,0.));
#1280 = ADVANCED_FACE('',(#1281),#1292,.F.);
#1281 = FACE_BOUND('',#1282,.T.);
#1282 = EDGE_LOOP('',(#1283,#1289,#1290,#1291));
#1283 = ORIENTED_EDGE('',*,*,#1284,.T.);
#1284 = EDGE_CURVE('',#855,#1124,#1285,.T.);
#1285 = LINE('',#1286,#1287);
#1286 = CARTESIAN_POINT('',(13.,-4.25,12.25));
#1287 = VECTOR('',#1288,1.);
#1288 = DIRECTION('',(-6.7E-16,0.707106781187,0.707106781187));
#1289 = ORIENTED_EDGE('',*,*,#1131,.T.);
#1290 = ORIENTED_EDGE('',*,*,#1252,.F.);
#1291 = ORIENTED_EDGE('',*,*,#862,.F.);
#1292 = PLANE('',#1293);
#1293 = AXIS2_PLACEMENT_3D('',#1294,#1295,#1296);
#1294 = CARTESIAN_POINT('',(14.,-4.5,12.));
#1295 = DIRECTION('',(0.,0.707106781187,-0.707106781187));
#1296 = DIRECTION('',(1.,0.,0.));
#1297 = ADVANCED_FACE('',(#1298),#1309,.F.);
#1298 = FACE_BOUND('',#1299,.F.);
#1299 = EDGE_LOOP('',(#1300,#1301,#1302,#1308));
#1300 = ORIENTED_EDGE('',*,*,#1267,.F.);
#1301 = ORIENTED_EDGE('',*,*,#838,.T.);
#1302 = ORIENTED_EDGE('',*,*,#1303,.T.);
#1303 = EDGE_CURVE('',#839,#1147,#1304,.T.);
#1304 = LINE('',#1305,#1306);
#1305 = CARTESIAN_POINT('',(14.25,-4.25,23.5));
#1306 = VECTOR('',#1307,1.);
#1307 = DIRECTION('',(-0.707106781187,0.707106781187,5.45E-15));
#1308 = ORIENTED_EDGE('',*,*,#1156,.F.);
#1309 = PLANE('',#1310);
#1310 = AXIS2_PLACEMENT_3D('',#1311,#1312,#1313);
#1311 = CARTESIAN_POINT('',(13.,-5.,25.5));
#1312 = DIRECTION('',(0.57735026919,0.57735026919,0.57735026919));
#1313 = DIRECTION('',(0.707106781187,-8.049116928532E-16,-0.707106781187
    ));
#1314 = ADVANCED_FACE('',(#1315),#1326,.F.);
#1315 = FACE_BOUND('',#1316,.F.);
#1316 = EDGE_LOOP('',(#1317,#1323,#1324,#1325));
#1317 = ORIENTED_EDGE('',*,*,#1318,.F.);
#1318 = EDGE_CURVE('',#847,#1173,#1319,.T.);
#1319 = LINE('',#1320,#1321);
#1320 = CARTESIAN_POINT('',(14.75,-4.75,13.5));
#1321 = VECTOR('',#1322,1.);
#1322 = DIRECTION('',(-0.707106781187,0.707106781187,1.6E-16));
#1323 = ORIENTED_EDGE('',*,*,#854,.T.);
#1324 = ORIENTED_EDGE('',*,*,#1284,.T.);
#1325 = ORIENTED_EDGE('',*,*,#1180,.F.);
#1326 = PLANE('',#1327);
#1327 = AXIS2_PLACEMENT_3D('',#1328,#1329,#1330);
#1328 = CARTESIAN_POINT('',(15.,-5.,13.5));
#1329 = DIRECTION('',(0.57735026919,0.57735026919,-0.57735026919));
#1330 = DIRECTION('',(-0.707106781187,8.604228440845E-16,-0.707106781187
    ));
#1331 = ADVANCED_FACE('',(#1332),#1338,.F.);
#1332 = FACE_BOUND('',#1333,.F.);
#1333 = EDGE_LOOP('',(#1334,#1335,#1336,#1337));
#1334 = ORIENTED_EDGE('',*,*,#1318,.T.);
#1335 = ORIENTED_EDGE('',*,*,#1194,.T.);
#1336 = ORIENTED_EDGE('',*,*,#1303,.F.);
#1337 = ORIENTED_EDGE('',*,*,#846,.F.);
#1338 = PLANE('',#1339);
#1339 = AXIS2_PLACEMENT_3D('',#1340,#1341,#1342);
#1340 = CARTESIAN_POINT('',(14.5,-4.5,12.5));
#1341 = DIRECTION('',(0.707106781187,0.707106781187,-8.E-17));
#1342 = DIRECTION('',(-5.343145750508E-17,1.665685424949E-16,1.));
#1343 = ADVANCED_FACE('',(#1344),#1360,.F.);
#1344 = FACE_BOUND('',#1345,.F.);
#1345 = EDGE_LOOP('',(#1346,#1347,#1353,#1354));
#1346 = ORIENTED_EDGE('',*,*,#985,.T.);
#1347 = ORIENTED_EDGE('',*,*,#1348,.T.);
#1348 = EDGE_CURVE('',#936,#888,#1349,.T.);
#1349 = LINE('',#1350,#1351);
#1350 = CARTESIAN_POINT('',(18.,-4.25,29.25));
#1351 = VECTOR('',#1352,1.);
#1352 = DIRECTION('',(3.17E-15,-0.707106781187,-0.707106781187));
#1353 = ORIENTED_EDGE('',*,*,#895,.F.);
#1354 = ORIENTED_EDGE('',*,*,#1355,.T.);
#1355 = EDGE_CURVE('',#896,#962,#1356,.T.);
#1356 = LINE('',#1357,#1358);
#1357 = CARTESIAN_POINT('',(-18.,-4.5,29.));
#1358 = VECTOR('',#1359,1.);
#1359 = DIRECTION('',(2.6E-15,0.707106781187,0.707106781187));
#1360 = PLANE('',#1361);
#1361 = AXIS2_PLACEMENT_3D('',#1362,#1363,#1364);
#1362 = CARTESIAN_POINT('',(-19.,-4.5,29.));
#1363 = DIRECTION('',(0.,0.707106781187,-0.707106781187));
#1364 = DIRECTION('',(1.,0.,0.));
#1365 = ADVANCED_FACE('',(#1366),#1371,.F.);
#1366 = FACE_BOUND('',#1367,.F.);
#1367 = EDGE_LOOP('',(#1368,#1369,#1370));
#1368 = ORIENTED_EDGE('',*,*,#1348,.F.);
#1369 = ORIENTED_EDGE('',*,*,#943,.T.);
#1370 = ORIENTED_EDGE('',*,*,#921,.F.);
#1371 = PLANE('',#1372);
#1372 = AXIS2_PLACEMENT_3D('',#1373,#1374,#1375);
#1373 = CARTESIAN_POINT('',(18.,-4.,29.5));
#1374 = DIRECTION('',(-0.57735026919,0.57735026919,-0.57735026919));
#1375 = DIRECTION('',(0.707106781187,0.707106781187,-2.303712776097E-15)
  );
#1376 = ADVANCED_FACE('',(#1377),#1382,.F.);
#1377 = FACE_BOUND('',#1378,.F.);
#1378 = EDGE_LOOP('',(#1379,#1380,#1381));
#1379 = ORIENTED_EDGE('',*,*,#1003,.F.);
#1380 = ORIENTED_EDGE('',*,*,#961,.T.);
#1381 = ORIENTED_EDGE('',*,*,#1355,.F.);
#1382 = PLANE('',#1383);
#1383 = AXIS2_PLACEMENT_3D('',#1384,#1385,#1386);
#1384 = CARTESIAN_POINT('',(-19.,-4.,28.5));
#1385 = DIRECTION('',(0.57735026919,0.57735026919,-0.57735026919));
#1386 = DIRECTION('',(-2.775557561563E-17,0.707106781187,0.707106781187)
  );
#1387 = ( GEOMETRIC_REPRESENTATION_CONTEXT(3) 
GLOBAL_UNCERTAINTY_ASSIGNED_CONTEXT((#1391)) 
GLOBAL_UNIT_ASSIGNED_CONTEXT((#1388,#1389,#1390)) REPRESENTATION_CONTEXT
('Context #1','3D Context with UNIT and UNCERTAINTY') );
#1388 = ( LENGTH_UNIT() NAMED_UNIT(*) SI_UNIT(.MILLI.,.METRE.) );
#1389 = ( NAMED_UNIT(*) PLANE_ANGLE_UNIT() SI_UNIT($,.RADIAN.) );
#1390 = ( NAMED_UNIT(*) SI_UNIT($,.STERADIAN.) SOLID_ANGLE_UNIT() );
#1391 = UNCERTAINTY_MEASURE_WITH_UNIT(LENGTH_MEASURE(2.E-06),#1388,
  'distance_accuracy_value','confusion accuracy');
#1392 = PRODUCT_RELATED_PRODUCT_CATEGORY('part',$,(#7));
ENDSEC;
END-ISO-10303-21;
