ISO-10303-21;
HEADER;
FILE_DESCRIPTION(('FreeCAD Model'),'2;1');
FILE_NAME('Open CASCADE Shape Model','2026-09-06T12:30:35',('FreeCAD'),(
    'FreeCAD'),'Open CASCADE STEP processor 7.8','FreeCAD','Unknown');
FILE_SCHEMA(('AUTOMOTIVE_DESIGN { 1 0 10303 214 1 1 1 1 }'));
ENDSEC;
DATA;
#1 = APPLICATION_PROTOCOL_DEFINITION('international standard',
  'automotive_design',2000,#2);
#2 = APPLICATION_CONTEXT(
  'core data for automotive mechanical design processes');
#3 = SHAPE_DEFINITION_REPRESENTATION(#4,#10);
#4 = PRODUCT_DEFINITION_SHAPE('','',#5);
#5 = PRODUCT_DEFINITION('design','',#6,#9);
#6 = PRODUCT_DEFINITION_FORMATION('','',#7);
#7 = PRODUCT('Open CASCADE STEP translator 7.8 233',
  'Open CASCADE STEP translator 7.8 233','',(#8));
#8 = PRODUCT_CONTEXT('',#2,'mechanical');
#9 = PRODUCT_DEFINITION_CONTEXT('part definition',#2,'design');
#10 = ADVANCED_BREP_SHAPE_REPRESENTATION('',(#11,#15),#2031);
#11 = AXIS2_PLACEMENT_3D('',#12,#13,#14);
#12 = CARTESIAN_POINT('',(0.,0.,0.));
#13 = DIRECTION('',(0.,0.,1.));
#14 = DIRECTION('',(1.,0.,-0.));
#15 = MANIFOLD_SOLID_BREP('',#16);
#16 = CLOSED_SHELL('',(#17,#57,#88,#119,#353,#378,#402,#426,#670,#700,
    #724,#748,#772,#796,#820,#844,#868,#892,#916,#948,#972,#996,#1013,
    #1053,#1077,#1109,#1126,#1151,#1176,#1201,#1226,#1251,#1276,#1293,
    #1310,#1327,#1344,#1361,#1378,#1395,#1412,#1429,#1446,#1458,#1480,
    #1497,#1519,#1536,#1548,#1573,#1590,#1607,#1632,#1657,#1682,#1707,
    #1732,#1757,#1769,#1781,#1801,#1821,#1841,#1861,#1886,#1903,#1920,
    #1937,#1954,#1979,#2004,#2013,#2022));
#17 = ADVANCED_FACE('',(#18),#52,.F.);
#18 = FACE_BOUND('',#19,.F.);
#19 = EDGE_LOOP('',(#20,#30,#38,#46));
#20 = ORIENTED_EDGE('',*,*,#21,.T.);
#21 = EDGE_CURVE('',#22,#24,#26,.T.);
#22 = VERTEX_POINT('',#23);
#23 = CARTESIAN_POINT('',(90.,-50.05,7.5));
#24 = VERTEX_POINT('',#25);
#25 = CARTESIAN_POINT('',(90.,-50.05,-6.5));
#26 = LINE('',#27,#28);
#27 = CARTESIAN_POINT('',(90.,-50.05,7.5));
#28 = VECTOR('',#29,1.);
#29 = DIRECTION('',(-0.,-0.,-1.));
#30 = ORIENTED_EDGE('',*,*,#31,.F.);
#31 = EDGE_CURVE('',#32,#24,#34,.T.);
#32 = VERTEX_POINT('',#33);
#33 = CARTESIAN_POINT('',(90.,-57.,-6.5));
#34 = LINE('',#35,#36);
#35 = CARTESIAN_POINT('',(90.,-57.,-6.5));
#36 = VECTOR('',#37,1.);
#37 = DIRECTION('',(0.,1.,0.));
#38 = ORIENTED_EDGE('',*,*,#39,.T.);
#39 = EDGE_CURVE('',#32,#40,#42,.T.);
#40 = VERTEX_POINT('',#41);
#41 = CARTESIAN_POINT('',(90.,-57.,7.5));
#42 = LINE('',#43,#44);
#43 = CARTESIAN_POINT('',(90.,-57.,-7.5));
#44 = VECTOR('',#45,1.);
#45 = DIRECTION('',(0.,0.,1.));
#46 = ORIENTED_EDGE('',*,*,#47,.T.);
#47 = EDGE_CURVE('',#40,#22,#48,.T.);
#48 = LINE('',#49,#50);
#49 = CARTESIAN_POINT('',(90.,-57.,7.5));
#50 = VECTOR('',#51,1.);
#51 = DIRECTION('',(0.,1.,0.));
#52 = PLANE('',#53);
#53 = AXIS2_PLACEMENT_3D('',#54,#55,#56);
#54 = CARTESIAN_POINT('',(90.,-57.,-7.5));
#55 = DIRECTION('',(-1.,0.,0.));
#56 = DIRECTION('',(0.,1.,0.));
#57 = ADVANCED_FACE('',(#58),#83,.T.);
#58 = FACE_BOUND('',#59,.T.);
#59 = EDGE_LOOP('',(#60,#70,#76,#77));
#60 = ORIENTED_EDGE('',*,*,#61,.F.);
#61 = EDGE_CURVE('',#62,#64,#66,.T.);
#62 = VERTEX_POINT('',#63);
#63 = CARTESIAN_POINT('',(69.9,-50.05,7.5));
#64 = VERTEX_POINT('',#65);
#65 = CARTESIAN_POINT('',(69.9,-50.05,-6.5));
#66 = LINE('',#67,#68);
#67 = CARTESIAN_POINT('',(69.9,-50.05,7.5));
#68 = VECTOR('',#69,1.);
#69 = DIRECTION('',(-0.,-0.,-1.));
#70 = ORIENTED_EDGE('',*,*,#71,.F.);
#71 = EDGE_CURVE('',#22,#62,#72,.T.);
#72 = LINE('',#73,#74);
#73 = CARTESIAN_POINT('',(90.,-50.05,7.5));
#74 = VECTOR('',#75,1.);
#75 = DIRECTION('',(-1.,0.,0.));
#76 = ORIENTED_EDGE('',*,*,#21,.T.);
#77 = ORIENTED_EDGE('',*,*,#78,.T.);
#78 = EDGE_CURVE('',#24,#64,#79,.T.);
#79 = LINE('',#80,#81);
#80 = CARTESIAN_POINT('',(90.,-50.05,-6.5));
#81 = VECTOR('',#82,1.);
#82 = DIRECTION('',(-1.,0.,0.));
#83 = PLANE('',#84);
#84 = AXIS2_PLACEMENT_3D('',#85,#86,#87);
#85 = CARTESIAN_POINT('',(90.,-50.05,7.5));
#86 = DIRECTION('',(0.,1.,0.));
#87 = DIRECTION('',(-1.,0.,0.));
#88 = ADVANCED_FACE('',(#89),#114,.T.);
#89 = FACE_BOUND('',#90,.F.);
#90 = EDGE_LOOP('',(#91,#99,#100,#108));
#91 = ORIENTED_EDGE('',*,*,#92,.F.);
#92 = EDGE_CURVE('',#32,#93,#95,.T.);
#93 = VERTEX_POINT('',#94);
#94 = CARTESIAN_POINT('',(89.,-57.,-7.5));
#95 = LINE('',#96,#97);
#96 = CARTESIAN_POINT('',(44.5,-57.,-52.));
#97 = VECTOR('',#98,1.);
#98 = DIRECTION('',(-0.707106781187,0.,-0.707106781187));
#99 = ORIENTED_EDGE('',*,*,#31,.T.);
#100 = ORIENTED_EDGE('',*,*,#101,.F.);
#101 = EDGE_CURVE('',#102,#24,#104,.T.);
#102 = VERTEX_POINT('',#103);
#103 = CARTESIAN_POINT('',(89.,-51.05,-7.5));
#104 = LINE('',#105,#106);
#105 = CARTESIAN_POINT('',(88.508333333333,-51.54166666666,
    -7.991666666667));
#106 = VECTOR('',#107,1.);
#107 = DIRECTION('',(0.57735026919,0.57735026919,0.57735026919));
#108 = ORIENTED_EDGE('',*,*,#109,.F.);
#109 = EDGE_CURVE('',#93,#102,#110,.T.);
#110 = LINE('',#111,#112);
#111 = CARTESIAN_POINT('',(89.,-57.,-7.5));
#112 = VECTOR('',#113,1.);
#113 = DIRECTION('',(0.,1.,0.));
#114 = PLANE('',#115);
#115 = AXIS2_PLACEMENT_3D('',#116,#117,#118);
#116 = CARTESIAN_POINT('',(89.5,-57.,-7.));
#117 = DIRECTION('',(0.707106781187,0.,-0.707106781187));
#118 = DIRECTION('',(-0.,-1.,-0.));
#119 = ADVANCED_FACE('',(#120,#282,#293,#304,#315,#326,#337),#348,.T.);
#120 = FACE_BOUND('',#121,.T.);
#121 = EDGE_LOOP('',(#122,#132,#140,#148,#156,#164,#172,#180,#188,#194,
    #195,#196,#204,#212,#220,#228,#236,#244,#252,#260,#268,#276));
#122 = ORIENTED_EDGE('',*,*,#123,.T.);
#123 = EDGE_CURVE('',#124,#126,#128,.T.);
#124 = VERTEX_POINT('',#125);
#125 = CARTESIAN_POINT('',(-90.,-57.,7.5));
#126 = VERTEX_POINT('',#127);
#127 = CARTESIAN_POINT('',(-64.,-57.,7.5));
#128 = LINE('',#129,#130);
#129 = CARTESIAN_POINT('',(-90.,-57.,7.5));
#130 = VECTOR('',#131,1.);
#131 = DIRECTION('',(1.,0.,0.));
#132 = ORIENTED_EDGE('',*,*,#133,.T.);
#133 = EDGE_CURVE('',#126,#134,#136,.T.);
#134 = VERTEX_POINT('',#135);
#135 = CARTESIAN_POINT('',(-63.00000000001,-56.,7.5));
#136 = LINE('',#137,#138);
#137 = CARTESIAN_POINT('',(-33.5,-26.49999999999,7.5));
#138 = VECTOR('',#139,1.);
#139 = DIRECTION('',(0.707106781187,0.707106781187,0.));
#140 = ORIENTED_EDGE('',*,*,#141,.F.);
#141 = EDGE_CURVE('',#142,#134,#144,.T.);
#142 = VERTEX_POINT('',#143);
#143 = CARTESIAN_POINT('',(-63.,-36.,7.5));
#144 = LINE('',#145,#146);
#145 = CARTESIAN_POINT('',(-63.,-35.,7.5));
#146 = VECTOR('',#147,1.);
#147 = DIRECTION('',(0.,-1.,0.));
#148 = ORIENTED_EDGE('',*,*,#149,.T.);
#149 = EDGE_CURVE('',#142,#150,#152,.T.);
#150 = VERTEX_POINT('',#151);
#151 = CARTESIAN_POINT('',(-62.,-35.,7.5));
#152 = LINE('',#153,#154);
#153 = CARTESIAN_POINT('',(-38.,-10.99999999999,7.5));
#154 = VECTOR('',#155,1.);
#155 = DIRECTION('',(0.707106781187,0.707106781187,0.));
#156 = ORIENTED_EDGE('',*,*,#157,.F.);
#157 = EDGE_CURVE('',#158,#150,#160,.T.);
#158 = VERTEX_POINT('',#159);
#159 = CARTESIAN_POINT('',(62.,-35.,7.5));
#160 = LINE('',#161,#162);
#161 = CARTESIAN_POINT('',(63.,-35.,7.5));
#162 = VECTOR('',#163,1.);
#163 = DIRECTION('',(-1.,0.,0.));
#164 = ORIENTED_EDGE('',*,*,#165,.T.);
#165 = EDGE_CURVE('',#158,#166,#168,.T.);
#166 = VERTEX_POINT('',#167);
#167 = CARTESIAN_POINT('',(63.,-36.,7.5));
#168 = LINE('',#169,#170);
#169 = CARTESIAN_POINT('',(38.,-11.,7.5));
#170 = VECTOR('',#171,1.);
#171 = DIRECTION('',(0.707106781187,-0.707106781187,0.));
#172 = ORIENTED_EDGE('',*,*,#173,.F.);
#173 = EDGE_CURVE('',#174,#166,#176,.T.);
#174 = VERTEX_POINT('',#175);
#175 = CARTESIAN_POINT('',(63.,-56.,7.5));
#176 = LINE('',#177,#178);
#177 = CARTESIAN_POINT('',(63.,-57.,7.5));
#178 = VECTOR('',#179,1.);
#179 = DIRECTION('',(0.,1.,0.));
#180 = ORIENTED_EDGE('',*,*,#181,.F.);
#181 = EDGE_CURVE('',#182,#174,#184,.T.);
#182 = VERTEX_POINT('',#183);
#183 = CARTESIAN_POINT('',(64.,-57.,7.5));
#184 = LINE('',#185,#186);
#185 = CARTESIAN_POINT('',(33.5,-26.5,7.5));
#186 = VECTOR('',#187,1.);
#187 = DIRECTION('',(-0.707106781187,0.707106781187,0.));
#188 = ORIENTED_EDGE('',*,*,#189,.T.);
#189 = EDGE_CURVE('',#182,#40,#190,.T.);
#190 = LINE('',#191,#192);
#191 = CARTESIAN_POINT('',(-90.,-57.,7.5));
#192 = VECTOR('',#193,1.);
#193 = DIRECTION('',(1.,0.,0.));
#194 = ORIENTED_EDGE('',*,*,#47,.T.);
#195 = ORIENTED_EDGE('',*,*,#71,.T.);
#196 = ORIENTED_EDGE('',*,*,#197,.T.);
#197 = EDGE_CURVE('',#62,#198,#200,.T.);
#198 = VERTEX_POINT('',#199);
#199 = CARTESIAN_POINT('',(69.9,-29.95,7.5));
#200 = LINE('',#201,#202);
#201 = CARTESIAN_POINT('',(69.9,-50.05,7.5));
#202 = VECTOR('',#203,1.);
#203 = DIRECTION('',(0.,1.,0.));
#204 = ORIENTED_EDGE('',*,*,#205,.T.);
#205 = EDGE_CURVE('',#198,#206,#208,.T.);
#206 = VERTEX_POINT('',#207);
#207 = CARTESIAN_POINT('',(90.,-29.95,7.5));
#208 = LINE('',#209,#210);
#209 = CARTESIAN_POINT('',(69.9,-29.95,7.5));
#210 = VECTOR('',#211,1.);
#211 = DIRECTION('',(1.,0.,0.));
#212 = ORIENTED_EDGE('',*,*,#213,.T.);
#213 = EDGE_CURVE('',#206,#214,#216,.T.);
#214 = VERTEX_POINT('',#215);
#215 = CARTESIAN_POINT('',(90.,-24.78739681659,7.5));
#216 = LINE('',#217,#218);
#217 = CARTESIAN_POINT('',(90.,-57.,7.5));
#218 = VECTOR('',#219,1.);
#219 = DIRECTION('',(0.,1.,0.));
#220 = ORIENTED_EDGE('',*,*,#221,.F.);
#221 = EDGE_CURVE('',#222,#214,#224,.T.);
#222 = VERTEX_POINT('',#223);
#223 = CARTESIAN_POINT('',(34.793507148799,57.,7.5));
#224 = LINE('',#225,#226);
#225 = CARTESIAN_POINT('',(35.171151325924,56.440527144999,7.5));
#226 = VECTOR('',#227,1.);
#227 = DIRECTION('',(0.559472855001,-0.828848674076,0.));
#228 = ORIENTED_EDGE('',*,*,#229,.T.);
#229 = EDGE_CURVE('',#222,#230,#232,.T.);
#230 = VERTEX_POINT('',#231);
#231 = CARTESIAN_POINT('',(-34.79350714879,57.,7.5));
#232 = LINE('',#233,#234);
#233 = CARTESIAN_POINT('',(90.,57.,7.5));
#234 = VECTOR('',#235,1.);
#235 = DIRECTION('',(-1.,0.,0.));
#236 = ORIENTED_EDGE('',*,*,#237,.F.);
#237 = EDGE_CURVE('',#238,#230,#240,.T.);
#238 = VERTEX_POINT('',#239);
#239 = CARTESIAN_POINT('',(-90.,-24.78739681659,7.5));
#240 = LINE('',#241,#242);
#241 = CARTESIAN_POINT('',(-89.17115132592,-23.559472855,7.5));
#242 = VECTOR('',#243,1.);
#243 = DIRECTION('',(0.559472855001,0.828848674076,0.));
#244 = ORIENTED_EDGE('',*,*,#245,.T.);
#245 = EDGE_CURVE('',#238,#246,#248,.T.);
#246 = VERTEX_POINT('',#247);
#247 = CARTESIAN_POINT('',(-90.,-29.95,7.5));
#248 = LINE('',#249,#250);
#249 = CARTESIAN_POINT('',(-90.,57.,7.5));
#250 = VECTOR('',#251,1.);
#251 = DIRECTION('',(0.,-1.,0.));
#252 = ORIENTED_EDGE('',*,*,#253,.F.);
#253 = EDGE_CURVE('',#254,#246,#256,.T.);
#254 = VERTEX_POINT('',#255);
#255 = CARTESIAN_POINT('',(-69.9,-29.95,7.5));
#256 = LINE('',#257,#258);
#257 = CARTESIAN_POINT('',(-69.9,-29.95,7.5));
#258 = VECTOR('',#259,1.);
#259 = DIRECTION('',(-1.,0.,0.));
#260 = ORIENTED_EDGE('',*,*,#261,.F.);
#261 = EDGE_CURVE('',#262,#254,#264,.T.);
#262 = VERTEX_POINT('',#263);
#263 = CARTESIAN_POINT('',(-69.9,-50.05,7.5));
#264 = LINE('',#265,#266);
#265 = CARTESIAN_POINT('',(-69.9,-50.05,7.5));
#266 = VECTOR('',#267,1.);
#267 = DIRECTION('',(0.,1.,0.));
#268 = ORIENTED_EDGE('',*,*,#269,.F.);
#269 = EDGE_CURVE('',#270,#262,#272,.T.);
#270 = VERTEX_POINT('',#271);
#271 = CARTESIAN_POINT('',(-90.,-50.05,7.5));
#272 = LINE('',#273,#274);
#273 = CARTESIAN_POINT('',(-90.,-50.05,7.5));
#274 = VECTOR('',#275,1.);
#275 = DIRECTION('',(1.,0.,0.));
#276 = ORIENTED_EDGE('',*,*,#277,.T.);
#277 = EDGE_CURVE('',#270,#124,#278,.T.);
#278 = LINE('',#279,#280);
#279 = CARTESIAN_POINT('',(-90.,57.,7.5));
#280 = VECTOR('',#281,1.);
#281 = DIRECTION('',(0.,-1.,0.));
#282 = FACE_BOUND('',#283,.T.);
#283 = EDGE_LOOP('',(#284));
#284 = ORIENTED_EDGE('',*,*,#285,.T.);
#285 = EDGE_CURVE('',#286,#286,#288,.T.);
#286 = VERTEX_POINT('',#287);
#287 = CARTESIAN_POINT('',(-29.,-15.5,7.5));
#288 = CIRCLE('',#289,1.);
#289 = AXIS2_PLACEMENT_3D('',#290,#291,#292);
#290 = CARTESIAN_POINT('',(-30.,-15.5,7.5));
#291 = DIRECTION('',(0.,0.,-1.));
#292 = DIRECTION('',(1.,0.,0.));
#293 = FACE_BOUND('',#294,.T.);
#294 = EDGE_LOOP('',(#295));
#295 = ORIENTED_EDGE('',*,*,#296,.T.);
#296 = EDGE_CURVE('',#297,#297,#299,.T.);
#297 = VERTEX_POINT('',#298);
#298 = CARTESIAN_POINT('',(31.,-15.5,7.5));
#299 = CIRCLE('',#300,1.);
#300 = AXIS2_PLACEMENT_3D('',#301,#302,#303);
#301 = CARTESIAN_POINT('',(30.,-15.5,7.5));
#302 = DIRECTION('',(0.,0.,-1.));
#303 = DIRECTION('',(1.,0.,0.));
#304 = FACE_BOUND('',#305,.T.);
#305 = EDGE_LOOP('',(#306));
#306 = ORIENTED_EDGE('',*,*,#307,.T.);
#307 = EDGE_CURVE('',#308,#308,#310,.T.);
#308 = VERTEX_POINT('',#309);
#309 = CARTESIAN_POINT('',(-29.,31.5,7.5));
#310 = CIRCLE('',#311,1.);
#311 = AXIS2_PLACEMENT_3D('',#312,#313,#314);
#312 = CARTESIAN_POINT('',(-30.,31.5,7.5));
#313 = DIRECTION('',(0.,0.,-1.));
#314 = DIRECTION('',(1.,0.,0.));
#315 = FACE_BOUND('',#316,.T.);
#316 = EDGE_LOOP('',(#317));
#317 = ORIENTED_EDGE('',*,*,#318,.T.);
#318 = EDGE_CURVE('',#319,#319,#321,.T.);
#319 = VERTEX_POINT('',#320);
#320 = CARTESIAN_POINT('',(-8.5,45.5,7.5));
#321 = CIRCLE('',#322,4.);
#322 = AXIS2_PLACEMENT_3D('',#323,#324,#325);
#323 = CARTESIAN_POINT('',(-12.5,45.5,7.5));
#324 = DIRECTION('',(0.,0.,-1.));
#325 = DIRECTION('',(1.,0.,0.));
#326 = FACE_BOUND('',#327,.T.);
#327 = EDGE_LOOP('',(#328));
#328 = ORIENTED_EDGE('',*,*,#329,.T.);
#329 = EDGE_CURVE('',#330,#330,#332,.T.);
#330 = VERTEX_POINT('',#331);
#331 = CARTESIAN_POINT('',(31.,31.5,7.5));
#332 = CIRCLE('',#333,1.);
#333 = AXIS2_PLACEMENT_3D('',#334,#335,#336);
#334 = CARTESIAN_POINT('',(30.,31.5,7.5));
#335 = DIRECTION('',(0.,0.,-1.));
#336 = DIRECTION('',(1.,0.,0.));
#337 = FACE_BOUND('',#338,.T.);
#338 = EDGE_LOOP('',(#339));
#339 = ORIENTED_EDGE('',*,*,#340,.T.);
#340 = EDGE_CURVE('',#341,#341,#343,.T.);
#341 = VERTEX_POINT('',#342);
#342 = CARTESIAN_POINT('',(16.5,45.5,7.5));
#343 = CIRCLE('',#344,4.);
#344 = AXIS2_PLACEMENT_3D('',#345,#346,#347);
#345 = CARTESIAN_POINT('',(12.5,45.5,7.5));
#346 = DIRECTION('',(0.,0.,-1.));
#347 = DIRECTION('',(1.,0.,0.));
#348 = PLANE('',#349);
#349 = AXIS2_PLACEMENT_3D('',#350,#351,#352);
#350 = CARTESIAN_POINT('',(0.,0.,7.5));
#351 = DIRECTION('',(0.,0.,1.));
#352 = DIRECTION('',(1.,0.,0.));
#353 = ADVANCED_FACE('',(#354),#373,.F.);
#354 = FACE_BOUND('',#355,.F.);
#355 = EDGE_LOOP('',(#356,#364,#370,#371,#372));
#356 = ORIENTED_EDGE('',*,*,#357,.F.);
#357 = EDGE_CURVE('',#358,#93,#360,.T.);
#358 = VERTEX_POINT('',#359);
#359 = CARTESIAN_POINT('',(64.,-57.,-7.5));
#360 = LINE('',#361,#362);
#361 = CARTESIAN_POINT('',(-90.,-57.,-7.5));
#362 = VECTOR('',#363,1.);
#363 = DIRECTION('',(1.,0.,0.));
#364 = ORIENTED_EDGE('',*,*,#365,.F.);
#365 = EDGE_CURVE('',#182,#358,#366,.T.);
#366 = LINE('',#367,#368);
#367 = CARTESIAN_POINT('',(64.,-57.,7.5));
#368 = VECTOR('',#369,1.);
#369 = DIRECTION('',(-0.,-0.,-1.));
#370 = ORIENTED_EDGE('',*,*,#189,.T.);
#371 = ORIENTED_EDGE('',*,*,#39,.F.);
#372 = ORIENTED_EDGE('',*,*,#92,.T.);
#373 = PLANE('',#374);
#374 = AXIS2_PLACEMENT_3D('',#375,#376,#377);
#375 = CARTESIAN_POINT('',(-90.,-57.,-7.5));
#376 = DIRECTION('',(0.,1.,0.));
#377 = DIRECTION('',(1.,0.,0.));
#378 = ADVANCED_FACE('',(#379),#397,.T.);
#379 = FACE_BOUND('',#380,.T.);
#380 = EDGE_LOOP('',(#381,#389,#390,#391));
#381 = ORIENTED_EDGE('',*,*,#382,.F.);
#382 = EDGE_CURVE('',#198,#383,#385,.T.);
#383 = VERTEX_POINT('',#384);
#384 = CARTESIAN_POINT('',(69.9,-29.95,-6.5));
#385 = LINE('',#386,#387);
#386 = CARTESIAN_POINT('',(69.9,-29.95,7.5));
#387 = VECTOR('',#388,1.);
#388 = DIRECTION('',(-0.,-0.,-1.));
#389 = ORIENTED_EDGE('',*,*,#197,.F.);
#390 = ORIENTED_EDGE('',*,*,#61,.T.);
#391 = ORIENTED_EDGE('',*,*,#392,.T.);
#392 = EDGE_CURVE('',#64,#383,#393,.T.);
#393 = LINE('',#394,#395);
#394 = CARTESIAN_POINT('',(69.9,-50.05,-6.5));
#395 = VECTOR('',#396,1.);
#396 = DIRECTION('',(0.,1.,0.));
#397 = PLANE('',#398);
#398 = AXIS2_PLACEMENT_3D('',#399,#400,#401);
#399 = CARTESIAN_POINT('',(69.9,-50.05,7.5));
#400 = DIRECTION('',(1.,0.,0.));
#401 = DIRECTION('',(0.,1.,0.));
#402 = ADVANCED_FACE('',(#403),#421,.F.);
#403 = FACE_BOUND('',#404,.T.);
#404 = EDGE_LOOP('',(#405,#406,#414,#420));
#405 = ORIENTED_EDGE('',*,*,#101,.F.);
#406 = ORIENTED_EDGE('',*,*,#407,.T.);
#407 = EDGE_CURVE('',#102,#408,#410,.T.);
#408 = VERTEX_POINT('',#409);
#409 = CARTESIAN_POINT('',(68.9,-51.05,-7.5));
#410 = LINE('',#411,#412);
#411 = CARTESIAN_POINT('',(90.,-51.05,-7.5));
#412 = VECTOR('',#413,1.);
#413 = DIRECTION('',(-1.,0.,0.));
#414 = ORIENTED_EDGE('',*,*,#415,.T.);
#415 = EDGE_CURVE('',#408,#64,#416,.T.);
#416 = LINE('',#417,#418);
#417 = CARTESIAN_POINT('',(72.916666666667,-47.03333333333,
    -3.483333333333));
#418 = VECTOR('',#419,1.);
#419 = DIRECTION('',(0.57735026919,0.57735026919,0.57735026919));
#420 = ORIENTED_EDGE('',*,*,#78,.F.);
#421 = PLANE('',#422);
#422 = AXIS2_PLACEMENT_3D('',#423,#424,#425);
#423 = CARTESIAN_POINT('',(90.,-50.55,-7.));
#424 = DIRECTION('',(0.,-0.707106781187,0.707106781187));
#425 = DIRECTION('',(1.,0.,0.));
#426 = ADVANCED_FACE('',(#427,#566,#577,#588,#599,#610,#621,#632,#643,
    #654),#665,.F.);
#427 = FACE_BOUND('',#428,.F.);
#428 = EDGE_LOOP('',(#429,#439,#447,#455,#463,#471,#477,#478,#479,#480,
    #488,#496,#504,#512,#520,#528,#536,#544,#552,#560));
#429 = ORIENTED_EDGE('',*,*,#430,.T.);
#430 = EDGE_CURVE('',#431,#433,#435,.T.);
#431 = VERTEX_POINT('',#432);
#432 = CARTESIAN_POINT('',(-89.,-57.,-7.5));
#433 = VERTEX_POINT('',#434);
#434 = CARTESIAN_POINT('',(-64.,-57.,-7.5));
#435 = LINE('',#436,#437);
#436 = CARTESIAN_POINT('',(-90.,-57.,-7.5));
#437 = VECTOR('',#438,1.);
#438 = DIRECTION('',(1.,0.,0.));
#439 = ORIENTED_EDGE('',*,*,#440,.F.);
#440 = EDGE_CURVE('',#441,#433,#443,.T.);
#441 = VERTEX_POINT('',#442);
#442 = CARTESIAN_POINT('',(-64.,-36.,-7.5));
#443 = LINE('',#444,#445);
#444 = CARTESIAN_POINT('',(-64.,-35.,-7.5));
#445 = VECTOR('',#446,1.);
#446 = DIRECTION('',(0.,-1.,0.));
#447 = ORIENTED_EDGE('',*,*,#448,.F.);
#448 = EDGE_CURVE('',#449,#441,#451,.T.);
#449 = VERTEX_POINT('',#450);
#450 = CARTESIAN_POINT('',(-62.,-34.,-7.5));
#451 = LINE('',#452,#453);
#452 = CARTESIAN_POINT('',(-38.,-9.999999999998,-7.5));
#453 = VECTOR('',#454,1.);
#454 = DIRECTION('',(-0.707106781187,-0.707106781187,0.));
#455 = ORIENTED_EDGE('',*,*,#456,.F.);
#456 = EDGE_CURVE('',#457,#449,#459,.T.);
#457 = VERTEX_POINT('',#458);
#458 = CARTESIAN_POINT('',(62.,-34.,-7.5));
#459 = LINE('',#460,#461);
#460 = CARTESIAN_POINT('',(63.,-34.,-7.5));
#461 = VECTOR('',#462,1.);
#462 = DIRECTION('',(-1.,0.,0.));
#463 = ORIENTED_EDGE('',*,*,#464,.T.);
#464 = EDGE_CURVE('',#457,#465,#467,.T.);
#465 = VERTEX_POINT('',#466);
#466 = CARTESIAN_POINT('',(64.,-36.,-7.5));
#467 = LINE('',#468,#469);
#468 = CARTESIAN_POINT('',(38.,-10.,-7.5));
#469 = VECTOR('',#470,1.);
#470 = DIRECTION('',(0.707106781187,-0.707106781187,0.));
#471 = ORIENTED_EDGE('',*,*,#472,.F.);
#472 = EDGE_CURVE('',#358,#465,#473,.T.);
#473 = LINE('',#474,#475);
#474 = CARTESIAN_POINT('',(64.,-57.,-7.5));
#475 = VECTOR('',#476,1.);
#476 = DIRECTION('',(0.,1.,0.));
#477 = ORIENTED_EDGE('',*,*,#357,.T.);
#478 = ORIENTED_EDGE('',*,*,#109,.T.);
#479 = ORIENTED_EDGE('',*,*,#407,.T.);
#480 = ORIENTED_EDGE('',*,*,#481,.T.);
#481 = EDGE_CURVE('',#408,#482,#484,.T.);
#482 = VERTEX_POINT('',#483);
#483 = CARTESIAN_POINT('',(68.9,-28.95,-7.5));
#484 = LINE('',#485,#486);
#485 = CARTESIAN_POINT('',(68.9,-50.05,-7.5));
#486 = VECTOR('',#487,1.);
#487 = DIRECTION('',(0.,1.,0.));
#488 = ORIENTED_EDGE('',*,*,#489,.T.);
#489 = EDGE_CURVE('',#482,#490,#492,.T.);
#490 = VERTEX_POINT('',#491);
#491 = CARTESIAN_POINT('',(89.,-28.95,-7.5));
#492 = LINE('',#493,#494);
#493 = CARTESIAN_POINT('',(69.9,-28.95,-7.5));
#494 = VECTOR('',#495,1.);
#495 = DIRECTION('',(1.,0.,0.));
#496 = ORIENTED_EDGE('',*,*,#497,.T.);
#497 = EDGE_CURVE('',#490,#498,#500,.T.);
#498 = VERTEX_POINT('',#499);
#499 = CARTESIAN_POINT('',(89.,-23.30591533511,-7.5));
#500 = LINE('',#501,#502);
#501 = CARTESIAN_POINT('',(89.,-29.95,-7.5));
#502 = VECTOR('',#503,1.);
#503 = DIRECTION('',(0.,1.,0.));
#504 = ORIENTED_EDGE('',*,*,#505,.F.);
#505 = EDGE_CURVE('',#506,#498,#508,.T.);
#506 = VERTEX_POINT('',#507);
#507 = CARTESIAN_POINT('',(35.468507148799,56.,-7.5));
#508 = LINE('',#509,#510);
#509 = CARTESIAN_POINT('',(35.171151325924,56.440527144999,-7.5));
#510 = VECTOR('',#511,1.);
#511 = DIRECTION('',(0.559472855001,-0.828848674076,0.));
#512 = ORIENTED_EDGE('',*,*,#513,.T.);
#513 = EDGE_CURVE('',#506,#514,#516,.T.);
#514 = VERTEX_POINT('',#515);
#515 = CARTESIAN_POINT('',(-35.46850714879,56.,-7.5));
#516 = LINE('',#517,#518);
#517 = CARTESIAN_POINT('',(36.,56.,-7.5));
#518 = VECTOR('',#519,1.);
#519 = DIRECTION('',(-1.,0.,0.));
#520 = ORIENTED_EDGE('',*,*,#521,.F.);
#521 = EDGE_CURVE('',#522,#514,#524,.T.);
#522 = VERTEX_POINT('',#523);
#523 = CARTESIAN_POINT('',(-89.,-23.30591533511,-7.5));
#524 = LINE('',#525,#526);
#525 = CARTESIAN_POINT('',(-89.17115132592,-23.559472855,-7.5));
#526 = VECTOR('',#527,1.);
#527 = DIRECTION('',(0.559472855001,0.828848674076,0.));
#528 = ORIENTED_EDGE('',*,*,#529,.T.);
#529 = EDGE_CURVE('',#522,#530,#532,.T.);
#530 = VERTEX_POINT('',#531);
#531 = CARTESIAN_POINT('',(-89.,-28.95,-7.5));
#532 = LINE('',#533,#534);
#533 = CARTESIAN_POINT('',(-89.,-23.,-7.5));
#534 = VECTOR('',#535,1.);
#535 = DIRECTION('',(0.,-1.,0.));
#536 = ORIENTED_EDGE('',*,*,#537,.F.);
#537 = EDGE_CURVE('',#538,#530,#540,.T.);
#538 = VERTEX_POINT('',#539);
#539 = CARTESIAN_POINT('',(-68.9,-28.95,-7.5));
#540 = LINE('',#541,#542);
#541 = CARTESIAN_POINT('',(-69.9,-28.95,-7.5));
#542 = VECTOR('',#543,1.);
#543 = DIRECTION('',(-1.,0.,0.));
#544 = ORIENTED_EDGE('',*,*,#545,.F.);
#545 = EDGE_CURVE('',#546,#538,#548,.T.);
#546 = VERTEX_POINT('',#547);
#547 = CARTESIAN_POINT('',(-68.9,-51.05,-7.5));
#548 = LINE('',#549,#550);
#549 = CARTESIAN_POINT('',(-68.9,-50.05,-7.5));
#550 = VECTOR('',#551,1.);
#551 = DIRECTION('',(0.,1.,0.));
#552 = ORIENTED_EDGE('',*,*,#553,.F.);
#553 = EDGE_CURVE('',#554,#546,#556,.T.);
#554 = VERTEX_POINT('',#555);
#555 = CARTESIAN_POINT('',(-89.,-51.05,-7.5));
#556 = LINE('',#557,#558);
#557 = CARTESIAN_POINT('',(-90.,-51.05,-7.5));
#558 = VECTOR('',#559,1.);
#559 = DIRECTION('',(1.,0.,0.));
#560 = ORIENTED_EDGE('',*,*,#561,.T.);
#561 = EDGE_CURVE('',#554,#431,#562,.T.);
#562 = LINE('',#563,#564);
#563 = CARTESIAN_POINT('',(-89.,-50.05,-7.5));
#564 = VECTOR('',#565,1.);
#565 = DIRECTION('',(0.,-1.,0.));
#566 = FACE_BOUND('',#567,.F.);
#567 = EDGE_LOOP('',(#568));
#568 = ORIENTED_EDGE('',*,*,#569,.T.);
#569 = EDGE_CURVE('',#570,#570,#572,.T.);
#570 = VERTEX_POINT('',#571);
#571 = CARTESIAN_POINT('',(5.05,46.5,-7.5));
#572 = CIRCLE('',#573,5.05);
#573 = AXIS2_PLACEMENT_3D('',#574,#575,#576);
#574 = CARTESIAN_POINT('',(0.,46.5,-7.5));
#575 = DIRECTION('',(0.,0.,-1.));
#576 = DIRECTION('',(1.,0.,0.));
#577 = FACE_BOUND('',#578,.F.);
#578 = EDGE_LOOP('',(#579));
#579 = ORIENTED_EDGE('',*,*,#580,.T.);
#580 = EDGE_CURVE('',#581,#581,#583,.T.);
#581 = VERTEX_POINT('',#582);
#582 = CARTESIAN_POINT('',(17.5,45.5,-7.5));
#583 = CIRCLE('',#584,5.);
#584 = AXIS2_PLACEMENT_3D('',#585,#586,#587);
#585 = CARTESIAN_POINT('',(12.5,45.5,-7.5));
#586 = DIRECTION('',(0.,0.,-1.));
#587 = DIRECTION('',(1.,0.,0.));
#588 = FACE_BOUND('',#589,.F.);
#589 = EDGE_LOOP('',(#590));
#590 = ORIENTED_EDGE('',*,*,#591,.T.);
#591 = EDGE_CURVE('',#592,#592,#594,.T.);
#592 = VERTEX_POINT('',#593);
#593 = CARTESIAN_POINT('',(-7.5,45.5,-7.5));
#594 = CIRCLE('',#595,5.);
#595 = AXIS2_PLACEMENT_3D('',#596,#597,#598);
#596 = CARTESIAN_POINT('',(-12.5,45.5,-7.5));
#597 = DIRECTION('',(0.,0.,-1.));
#598 = DIRECTION('',(1.,0.,0.));
#599 = FACE_BOUND('',#600,.F.);
#600 = EDGE_LOOP('',(#601));
#601 = ORIENTED_EDGE('',*,*,#602,.T.);
#602 = EDGE_CURVE('',#603,#603,#605,.T.);
#603 = VERTEX_POINT('',#604);
#604 = CARTESIAN_POINT('',(33.5,31.5,-7.5));
#605 = CIRCLE('',#606,3.5);
#606 = AXIS2_PLACEMENT_3D('',#607,#608,#609);
#607 = CARTESIAN_POINT('',(30.,31.5,-7.5));
#608 = DIRECTION('',(0.,0.,-1.));
#609 = DIRECTION('',(1.,0.,0.));
#610 = FACE_BOUND('',#611,.F.);
#611 = EDGE_LOOP('',(#612));
#612 = ORIENTED_EDGE('',*,*,#613,.T.);
#613 = EDGE_CURVE('',#614,#614,#616,.T.);
#614 = VERTEX_POINT('',#615);
#615 = CARTESIAN_POINT('',(-26.5,31.5,-7.5));
#616 = CIRCLE('',#617,3.5);
#617 = AXIS2_PLACEMENT_3D('',#618,#619,#620);
#618 = CARTESIAN_POINT('',(-30.,31.5,-7.5));
#619 = DIRECTION('',(0.,0.,-1.));
#620 = DIRECTION('',(1.,0.,0.));
#621 = FACE_BOUND('',#622,.F.);
#622 = EDGE_LOOP('',(#623));
#623 = ORIENTED_EDGE('',*,*,#624,.T.);
#624 = EDGE_CURVE('',#625,#625,#627,.T.);
#625 = VERTEX_POINT('',#626);
#626 = CARTESIAN_POINT('',(33.5,-15.5,-7.5));
#627 = CIRCLE('',#628,3.5);
#628 = AXIS2_PLACEMENT_3D('',#629,#630,#631);
#629 = CARTESIAN_POINT('',(30.,-15.5,-7.5));
#630 = DIRECTION('',(0.,0.,-1.));
#631 = DIRECTION('',(1.,0.,0.));
#632 = FACE_BOUND('',#633,.F.);
#633 = EDGE_LOOP('',(#634));
#634 = ORIENTED_EDGE('',*,*,#635,.T.);
#635 = EDGE_CURVE('',#636,#636,#638,.T.);
#636 = VERTEX_POINT('',#637);
#637 = CARTESIAN_POINT('',(-26.5,-15.5,-7.5));
#638 = CIRCLE('',#639,3.5);
#639 = AXIS2_PLACEMENT_3D('',#640,#641,#642);
#640 = CARTESIAN_POINT('',(-30.,-15.5,-7.5));
#641 = DIRECTION('',(0.,0.,-1.));
#642 = DIRECTION('',(1.,0.,0.));
#643 = FACE_BOUND('',#644,.F.);
#644 = EDGE_LOOP('',(#645));
#645 = ORIENTED_EDGE('',*,*,#646,.T.);
#646 = EDGE_CURVE('',#647,#647,#649,.T.);
#647 = VERTEX_POINT('',#648);
#648 = CARTESIAN_POINT('',(5.05,-16.5,-7.5));
#649 = CIRCLE('',#650,5.05);
#650 = AXIS2_PLACEMENT_3D('',#651,#652,#653);
#651 = CARTESIAN_POINT('',(0.,-16.5,-7.5));
#652 = DIRECTION('',(0.,0.,-1.));
#653 = DIRECTION('',(1.,0.,0.));
#654 = FACE_BOUND('',#655,.F.);
#655 = EDGE_LOOP('',(#656));
#656 = ORIENTED_EDGE('',*,*,#657,.T.);
#657 = EDGE_CURVE('',#658,#658,#660,.T.);
#658 = VERTEX_POINT('',#659);
#659 = CARTESIAN_POINT('',(5.5,15.,-7.5));
#660 = CIRCLE('',#661,5.5);
#661 = AXIS2_PLACEMENT_3D('',#662,#663,#664);
#662 = CARTESIAN_POINT('',(0.,15.,-7.5));
#663 = DIRECTION('',(0.,0.,-1.));
#664 = DIRECTION('',(1.,0.,0.));
#665 = PLANE('',#666);
#666 = AXIS2_PLACEMENT_3D('',#667,#668,#669);
#667 = CARTESIAN_POINT('',(0.,0.,-7.5));
#668 = DIRECTION('',(0.,0.,1.));
#669 = DIRECTION('',(1.,0.,0.));
#670 = ADVANCED_FACE('',(#671),#695,.F.);
#671 = FACE_BOUND('',#672,.F.);
#672 = EDGE_LOOP('',(#673,#674,#682,#688,#689));
#673 = ORIENTED_EDGE('',*,*,#430,.F.);
#674 = ORIENTED_EDGE('',*,*,#675,.T.);
#675 = EDGE_CURVE('',#431,#676,#678,.T.);
#676 = VERTEX_POINT('',#677);
#677 = CARTESIAN_POINT('',(-90.,-57.,-6.5));
#678 = LINE('',#679,#680);
#679 = CARTESIAN_POINT('',(-89.5,-57.,-7.));
#680 = VECTOR('',#681,1.);
#681 = DIRECTION('',(-0.707106781187,0.,0.707106781187));
#682 = ORIENTED_EDGE('',*,*,#683,.T.);
#683 = EDGE_CURVE('',#676,#124,#684,.T.);
#684 = LINE('',#685,#686);
#685 = CARTESIAN_POINT('',(-90.,-57.,-7.5));
#686 = VECTOR('',#687,1.);
#687 = DIRECTION('',(0.,0.,1.));
#688 = ORIENTED_EDGE('',*,*,#123,.T.);
#689 = ORIENTED_EDGE('',*,*,#690,.T.);
#690 = EDGE_CURVE('',#126,#433,#691,.T.);
#691 = LINE('',#692,#693);
#692 = CARTESIAN_POINT('',(-64.,-57.,7.5));
#693 = VECTOR('',#694,1.);
#694 = DIRECTION('',(-0.,-0.,-1.));
#695 = PLANE('',#696);
#696 = AXIS2_PLACEMENT_3D('',#697,#698,#699);
#697 = CARTESIAN_POINT('',(-90.,-57.,-7.5));
#698 = DIRECTION('',(0.,1.,0.));
#699 = DIRECTION('',(1.,0.,0.));
#700 = ADVANCED_FACE('',(#701),#719,.T.);
#701 = FACE_BOUND('',#702,.T.);
#702 = EDGE_LOOP('',(#703,#704,#705,#713));
#703 = ORIENTED_EDGE('',*,*,#133,.F.);
#704 = ORIENTED_EDGE('',*,*,#690,.T.);
#705 = ORIENTED_EDGE('',*,*,#706,.T.);
#706 = EDGE_CURVE('',#433,#707,#709,.T.);
#707 = VERTEX_POINT('',#708);
#708 = CARTESIAN_POINT('',(-63.,-56.,-6.5));
#709 = LINE('',#710,#711);
#710 = CARTESIAN_POINT('',(-57.50000000001,-50.5,-1.));
#711 = VECTOR('',#712,1.);
#712 = DIRECTION('',(0.57735026919,0.57735026919,0.57735026919));
#713 = ORIENTED_EDGE('',*,*,#714,.F.);
#714 = EDGE_CURVE('',#134,#707,#715,.T.);
#715 = LINE('',#716,#717);
#716 = CARTESIAN_POINT('',(-63.,-56.,7.5));
#717 = VECTOR('',#718,1.);
#718 = DIRECTION('',(-0.,-0.,-1.));
#719 = PLANE('',#720);
#720 = AXIS2_PLACEMENT_3D('',#721,#722,#723);
#721 = CARTESIAN_POINT('',(-63.5,-56.5,7.5));
#722 = DIRECTION('',(0.707106781187,-0.707106781187,0.));
#723 = DIRECTION('',(0.,0.,-1.));
#724 = ADVANCED_FACE('',(#725),#743,.F.);
#725 = FACE_BOUND('',#726,.F.);
#726 = EDGE_LOOP('',(#727,#728,#736,#742));
#727 = ORIENTED_EDGE('',*,*,#683,.F.);
#728 = ORIENTED_EDGE('',*,*,#729,.F.);
#729 = EDGE_CURVE('',#730,#676,#732,.T.);
#730 = VERTEX_POINT('',#731);
#731 = CARTESIAN_POINT('',(-90.,-50.05,-6.5));
#732 = LINE('',#733,#734);
#733 = CARTESIAN_POINT('',(-90.,-50.05,-6.5));
#734 = VECTOR('',#735,1.);
#735 = DIRECTION('',(0.,-1.,0.));
#736 = ORIENTED_EDGE('',*,*,#737,.F.);
#737 = EDGE_CURVE('',#270,#730,#738,.T.);
#738 = LINE('',#739,#740);
#739 = CARTESIAN_POINT('',(-90.,-50.05,7.5));
#740 = VECTOR('',#741,1.);
#741 = DIRECTION('',(-0.,-0.,-1.));
#742 = ORIENTED_EDGE('',*,*,#277,.T.);
#743 = PLANE('',#744);
#744 = AXIS2_PLACEMENT_3D('',#745,#746,#747);
#745 = CARTESIAN_POINT('',(-90.,57.,-7.5));
#746 = DIRECTION('',(1.,0.,0.));
#747 = DIRECTION('',(0.,-1.,0.));
#748 = ADVANCED_FACE('',(#749),#767,.F.);
#749 = FACE_BOUND('',#750,.F.);
#750 = EDGE_LOOP('',(#751,#752,#760,#766));
#751 = ORIENTED_EDGE('',*,*,#141,.F.);
#752 = ORIENTED_EDGE('',*,*,#753,.T.);
#753 = EDGE_CURVE('',#142,#754,#756,.T.);
#754 = VERTEX_POINT('',#755);
#755 = CARTESIAN_POINT('',(-63.,-36.,-6.5));
#756 = LINE('',#757,#758);
#757 = CARTESIAN_POINT('',(-63.,-36.,7.5));
#758 = VECTOR('',#759,1.);
#759 = DIRECTION('',(-0.,-0.,-1.));
#760 = ORIENTED_EDGE('',*,*,#761,.T.);
#761 = EDGE_CURVE('',#754,#707,#762,.T.);
#762 = LINE('',#763,#764);
#763 = CARTESIAN_POINT('',(-63.,-35.,-6.5));
#764 = VECTOR('',#765,1.);
#765 = DIRECTION('',(0.,-1.,0.));
#766 = ORIENTED_EDGE('',*,*,#714,.F.);
#767 = PLANE('',#768);
#768 = AXIS2_PLACEMENT_3D('',#769,#770,#771);
#769 = CARTESIAN_POINT('',(-63.,-35.,7.5));
#770 = DIRECTION('',(-1.,0.,0.));
#771 = DIRECTION('',(0.,-1.,0.));
#772 = ADVANCED_FACE('',(#773),#791,.F.);
#773 = FACE_BOUND('',#774,.F.);
#774 = EDGE_LOOP('',(#775,#783,#784,#785));
#775 = ORIENTED_EDGE('',*,*,#776,.F.);
#776 = EDGE_CURVE('',#262,#777,#779,.T.);
#777 = VERTEX_POINT('',#778);
#778 = CARTESIAN_POINT('',(-69.9,-50.05,-6.5));
#779 = LINE('',#780,#781);
#780 = CARTESIAN_POINT('',(-69.9,-50.05,7.5));
#781 = VECTOR('',#782,1.);
#782 = DIRECTION('',(-0.,-0.,-1.));
#783 = ORIENTED_EDGE('',*,*,#269,.F.);
#784 = ORIENTED_EDGE('',*,*,#737,.T.);
#785 = ORIENTED_EDGE('',*,*,#786,.T.);
#786 = EDGE_CURVE('',#730,#777,#787,.T.);
#787 = LINE('',#788,#789);
#788 = CARTESIAN_POINT('',(-90.,-50.05,-6.5));
#789 = VECTOR('',#790,1.);
#790 = DIRECTION('',(1.,0.,0.));
#791 = PLANE('',#792);
#792 = AXIS2_PLACEMENT_3D('',#793,#794,#795);
#793 = CARTESIAN_POINT('',(-90.,-50.05,7.5));
#794 = DIRECTION('',(0.,-1.,0.));
#795 = DIRECTION('',(1.,0.,0.));
#796 = ADVANCED_FACE('',(#797),#815,.F.);
#797 = FACE_BOUND('',#798,.T.);
#798 = EDGE_LOOP('',(#799,#800,#801,#809));
#799 = ORIENTED_EDGE('',*,*,#149,.F.);
#800 = ORIENTED_EDGE('',*,*,#753,.T.);
#801 = ORIENTED_EDGE('',*,*,#802,.F.);
#802 = EDGE_CURVE('',#803,#754,#805,.T.);
#803 = VERTEX_POINT('',#804);
#804 = CARTESIAN_POINT('',(-62.,-35.,-6.5));
#805 = LINE('',#806,#807);
#806 = CARTESIAN_POINT('',(-62.00000000001,-35.,-6.5));
#807 = VECTOR('',#808,1.);
#808 = DIRECTION('',(-0.707106781187,-0.707106781187,2.5E-15));
#809 = ORIENTED_EDGE('',*,*,#810,.F.);
#810 = EDGE_CURVE('',#150,#803,#811,.T.);
#811 = LINE('',#812,#813);
#812 = CARTESIAN_POINT('',(-62.,-35.,7.5));
#813 = VECTOR('',#814,1.);
#814 = DIRECTION('',(-0.,-0.,-1.));
#815 = PLANE('',#816);
#816 = AXIS2_PLACEMENT_3D('',#817,#818,#819);
#817 = CARTESIAN_POINT('',(-62.5,-35.5,7.5));
#818 = DIRECTION('',(-0.707106781187,0.707106781187,0.));
#819 = DIRECTION('',(0.,0.,1.));
#820 = ADVANCED_FACE('',(#821),#839,.F.);
#821 = FACE_BOUND('',#822,.F.);
#822 = EDGE_LOOP('',(#823,#831,#832,#833));
#823 = ORIENTED_EDGE('',*,*,#824,.F.);
#824 = EDGE_CURVE('',#254,#825,#827,.T.);
#825 = VERTEX_POINT('',#826);
#826 = CARTESIAN_POINT('',(-69.9,-29.95,-6.5));
#827 = LINE('',#828,#829);
#828 = CARTESIAN_POINT('',(-69.9,-29.95,7.5));
#829 = VECTOR('',#830,1.);
#830 = DIRECTION('',(-0.,-0.,-1.));
#831 = ORIENTED_EDGE('',*,*,#261,.F.);
#832 = ORIENTED_EDGE('',*,*,#776,.T.);
#833 = ORIENTED_EDGE('',*,*,#834,.T.);
#834 = EDGE_CURVE('',#777,#825,#835,.T.);
#835 = LINE('',#836,#837);
#836 = CARTESIAN_POINT('',(-69.9,-50.05,-6.5));
#837 = VECTOR('',#838,1.);
#838 = DIRECTION('',(0.,1.,0.));
#839 = PLANE('',#840);
#840 = AXIS2_PLACEMENT_3D('',#841,#842,#843);
#841 = CARTESIAN_POINT('',(-69.9,-50.05,7.5));
#842 = DIRECTION('',(1.,0.,0.));
#843 = DIRECTION('',(0.,1.,0.));
#844 = ADVANCED_FACE('',(#845),#863,.F.);
#845 = FACE_BOUND('',#846,.F.);
#846 = EDGE_LOOP('',(#847,#848,#856,#862));
#847 = ORIENTED_EDGE('',*,*,#157,.F.);
#848 = ORIENTED_EDGE('',*,*,#849,.T.);
#849 = EDGE_CURVE('',#158,#850,#852,.T.);
#850 = VERTEX_POINT('',#851);
#851 = CARTESIAN_POINT('',(62.,-35.,-6.5));
#852 = LINE('',#853,#854);
#853 = CARTESIAN_POINT('',(62.,-35.,7.5));
#854 = VECTOR('',#855,1.);
#855 = DIRECTION('',(-0.,-0.,-1.));
#856 = ORIENTED_EDGE('',*,*,#857,.T.);
#857 = EDGE_CURVE('',#850,#803,#858,.T.);
#858 = LINE('',#859,#860);
#859 = CARTESIAN_POINT('',(63.,-35.,-6.5));
#860 = VECTOR('',#861,1.);
#861 = DIRECTION('',(-1.,0.,0.));
#862 = ORIENTED_EDGE('',*,*,#810,.F.);
#863 = PLANE('',#864);
#864 = AXIS2_PLACEMENT_3D('',#865,#866,#867);
#865 = CARTESIAN_POINT('',(63.,-35.,7.5));
#866 = DIRECTION('',(0.,1.,0.));
#867 = DIRECTION('',(-1.,0.,0.));
#868 = ADVANCED_FACE('',(#869),#887,.F.);
#869 = FACE_BOUND('',#870,.F.);
#870 = EDGE_LOOP('',(#871,#879,#880,#881));
#871 = ORIENTED_EDGE('',*,*,#872,.F.);
#872 = EDGE_CURVE('',#246,#873,#875,.T.);
#873 = VERTEX_POINT('',#874);
#874 = CARTESIAN_POINT('',(-90.,-29.95,-6.5));
#875 = LINE('',#876,#877);
#876 = CARTESIAN_POINT('',(-90.,-29.95,7.5));
#877 = VECTOR('',#878,1.);
#878 = DIRECTION('',(-0.,-0.,-1.));
#879 = ORIENTED_EDGE('',*,*,#253,.F.);
#880 = ORIENTED_EDGE('',*,*,#824,.T.);
#881 = ORIENTED_EDGE('',*,*,#882,.T.);
#882 = EDGE_CURVE('',#825,#873,#883,.T.);
#883 = LINE('',#884,#885);
#884 = CARTESIAN_POINT('',(-69.9,-29.95,-6.5));
#885 = VECTOR('',#886,1.);
#886 = DIRECTION('',(-1.,0.,0.));
#887 = PLANE('',#888);
#888 = AXIS2_PLACEMENT_3D('',#889,#890,#891);
#889 = CARTESIAN_POINT('',(-69.9,-29.95,7.5));
#890 = DIRECTION('',(0.,1.,0.));
#891 = DIRECTION('',(-1.,0.,0.));
#892 = ADVANCED_FACE('',(#893),#911,.F.);
#893 = FACE_BOUND('',#894,.T.);
#894 = EDGE_LOOP('',(#895,#896,#897,#905));
#895 = ORIENTED_EDGE('',*,*,#165,.F.);
#896 = ORIENTED_EDGE('',*,*,#849,.T.);
#897 = ORIENTED_EDGE('',*,*,#898,.T.);
#898 = EDGE_CURVE('',#850,#899,#901,.T.);
#899 = VERTEX_POINT('',#900);
#900 = CARTESIAN_POINT('',(63.,-36.,-6.5));
#901 = LINE('',#902,#903);
#902 = CARTESIAN_POINT('',(62.,-35.,-6.5));
#903 = VECTOR('',#904,1.);
#904 = DIRECTION('',(0.707106781187,-0.707106781187,6.35E-15));
#905 = ORIENTED_EDGE('',*,*,#906,.F.);
#906 = EDGE_CURVE('',#166,#899,#907,.T.);
#907 = LINE('',#908,#909);
#908 = CARTESIAN_POINT('',(63.,-36.,7.5));
#909 = VECTOR('',#910,1.);
#910 = DIRECTION('',(-0.,-0.,-1.));
#911 = PLANE('',#912);
#912 = AXIS2_PLACEMENT_3D('',#913,#914,#915);
#913 = CARTESIAN_POINT('',(62.5,-35.5,7.5));
#914 = DIRECTION('',(0.707106781187,0.707106781187,0.));
#915 = DIRECTION('',(0.,0.,1.));
#916 = ADVANCED_FACE('',(#917),#943,.F.);
#917 = FACE_BOUND('',#918,.F.);
#918 = EDGE_LOOP('',(#919,#920,#928,#936,#942));
#919 = ORIENTED_EDGE('',*,*,#872,.T.);
#920 = ORIENTED_EDGE('',*,*,#921,.F.);
#921 = EDGE_CURVE('',#922,#873,#924,.T.);
#922 = VERTEX_POINT('',#923);
#923 = CARTESIAN_POINT('',(-90.,-23.,-6.5));
#924 = LINE('',#925,#926);
#925 = CARTESIAN_POINT('',(-90.,-23.,-6.5));
#926 = VECTOR('',#927,1.);
#927 = DIRECTION('',(0.,-1.,0.));
#928 = ORIENTED_EDGE('',*,*,#929,.F.);
#929 = EDGE_CURVE('',#930,#922,#932,.T.);
#930 = VERTEX_POINT('',#931);
#931 = CARTESIAN_POINT('',(-90.,-23.,6.5));
#932 = LINE('',#933,#934);
#933 = CARTESIAN_POINT('',(-90.,-23.,7.5));
#934 = VECTOR('',#935,1.);
#935 = DIRECTION('',(-0.,-0.,-1.));
#936 = ORIENTED_EDGE('',*,*,#937,.F.);
#937 = EDGE_CURVE('',#238,#930,#938,.T.);
#938 = LINE('',#939,#940);
#939 = CARTESIAN_POINT('',(-90.,10.234002555734,-12.09352229296));
#940 = VECTOR('',#941,1.);
#941 = DIRECTION('',(0.,0.872702065256,-0.488253116014));
#942 = ORIENTED_EDGE('',*,*,#245,.T.);
#943 = PLANE('',#944);
#944 = AXIS2_PLACEMENT_3D('',#945,#946,#947);
#945 = CARTESIAN_POINT('',(-90.,57.,-7.5));
#946 = DIRECTION('',(1.,0.,0.));
#947 = DIRECTION('',(0.,-1.,0.));
#948 = ADVANCED_FACE('',(#949),#967,.F.);
#949 = FACE_BOUND('',#950,.F.);
#950 = EDGE_LOOP('',(#951,#952,#960,#966));
#951 = ORIENTED_EDGE('',*,*,#173,.F.);
#952 = ORIENTED_EDGE('',*,*,#953,.T.);
#953 = EDGE_CURVE('',#174,#954,#956,.T.);
#954 = VERTEX_POINT('',#955);
#955 = CARTESIAN_POINT('',(63.,-56.,-6.5));
#956 = LINE('',#957,#958);
#957 = CARTESIAN_POINT('',(63.,-56.,7.5));
#958 = VECTOR('',#959,1.);
#959 = DIRECTION('',(-0.,-0.,-1.));
#960 = ORIENTED_EDGE('',*,*,#961,.T.);
#961 = EDGE_CURVE('',#954,#899,#962,.T.);
#962 = LINE('',#963,#964);
#963 = CARTESIAN_POINT('',(63.,-57.,-6.5));
#964 = VECTOR('',#965,1.);
#965 = DIRECTION('',(0.,1.,0.));
#966 = ORIENTED_EDGE('',*,*,#906,.F.);
#967 = PLANE('',#968);
#968 = AXIS2_PLACEMENT_3D('',#969,#970,#971);
#969 = CARTESIAN_POINT('',(63.,-57.,7.5));
#970 = DIRECTION('',(1.,0.,0.));
#971 = DIRECTION('',(0.,1.,0.));
#972 = ADVANCED_FACE('',(#973),#991,.F.);
#973 = FACE_BOUND('',#974,.T.);
#974 = EDGE_LOOP('',(#975,#976,#977,#985));
#975 = ORIENTED_EDGE('',*,*,#937,.F.);
#976 = ORIENTED_EDGE('',*,*,#237,.T.);
#977 = ORIENTED_EDGE('',*,*,#978,.T.);
#978 = EDGE_CURVE('',#230,#979,#981,.T.);
#979 = VERTEX_POINT('',#980);
#980 = CARTESIAN_POINT('',(-36.,57.,6.5));
#981 = LINE('',#982,#983);
#982 = CARTESIAN_POINT('',(-17.85378611669,57.,21.540465316671));
#983 = VECTOR('',#984,1.);
#984 = DIRECTION('',(-0.769916682267,-0.,-0.638144421246));
#985 = ORIENTED_EDGE('',*,*,#986,.F.);
#986 = EDGE_CURVE('',#930,#979,#987,.T.);
#987 = LINE('',#988,#989);
#988 = CARTESIAN_POINT('',(-90.,-23.,6.5));
#989 = VECTOR('',#990,1.);
#990 = DIRECTION('',(0.559472855001,0.828848674076,0.));
#991 = PLANE('',#992);
#992 = AXIS2_PLACEMENT_3D('',#993,#994,#995);
#993 = CARTESIAN_POINT('',(-89.58557566296,-23.2797364275,7.));
#994 = DIRECTION('',(0.586084518016,-0.395607049661,-0.707106781187));
#995 = DIRECTION('',(-0.559472855001,-0.828848674076,-3.608224830032E-16
    ));
#996 = ADVANCED_FACE('',(#997),#1008,.T.);
#997 = FACE_BOUND('',#998,.F.);
#998 = EDGE_LOOP('',(#999,#1000,#1001,#1007));
#999 = ORIENTED_EDGE('',*,*,#181,.F.);
#1000 = ORIENTED_EDGE('',*,*,#365,.T.);
#1001 = ORIENTED_EDGE('',*,*,#1002,.T.);
#1002 = EDGE_CURVE('',#358,#954,#1003,.T.);
#1003 = LINE('',#1004,#1005);
#1004 = CARTESIAN_POINT('',(61.166666666667,-54.16666666666,
    -4.666666666667));
#1005 = VECTOR('',#1006,1.);
#1006 = DIRECTION('',(-0.57735026919,0.57735026919,0.57735026919));
#1007 = ORIENTED_EDGE('',*,*,#953,.F.);
#1008 = PLANE('',#1009);
#1009 = AXIS2_PLACEMENT_3D('',#1010,#1011,#1012);
#1010 = CARTESIAN_POINT('',(63.5,-56.5,7.5));
#1011 = DIRECTION('',(-0.707106781187,-0.707106781187,0.));
#1012 = DIRECTION('',(0.,0.,1.));
#1013 = ADVANCED_FACE('',(#1014),#1048,.F.);
#1014 = FACE_BOUND('',#1015,.F.);
#1015 = EDGE_LOOP('',(#1016,#1024,#1032,#1040,#1046,#1047));
#1016 = ORIENTED_EDGE('',*,*,#1017,.T.);
#1017 = EDGE_CURVE('',#979,#1018,#1020,.T.);
#1018 = VERTEX_POINT('',#1019);
#1019 = CARTESIAN_POINT('',(-36.,57.,-6.5));
#1020 = LINE('',#1021,#1022);
#1021 = CARTESIAN_POINT('',(-36.,57.,7.5));
#1022 = VECTOR('',#1023,1.);
#1023 = DIRECTION('',(-0.,-0.,-1.));
#1024 = ORIENTED_EDGE('',*,*,#1025,.F.);
#1025 = EDGE_CURVE('',#1026,#1018,#1028,.T.);
#1026 = VERTEX_POINT('',#1027);
#1027 = CARTESIAN_POINT('',(36.,57.,-6.5));
#1028 = LINE('',#1029,#1030);
#1029 = CARTESIAN_POINT('',(36.,57.,-6.5));
#1030 = VECTOR('',#1031,1.);
#1031 = DIRECTION('',(-1.,0.,0.));
#1032 = ORIENTED_EDGE('',*,*,#1033,.F.);
#1033 = EDGE_CURVE('',#1034,#1026,#1036,.T.);
#1034 = VERTEX_POINT('',#1035);
#1035 = CARTESIAN_POINT('',(36.,57.,6.5));
#1036 = LINE('',#1037,#1038);
#1037 = CARTESIAN_POINT('',(36.,57.,7.5));
#1038 = VECTOR('',#1039,1.);
#1039 = DIRECTION('',(-0.,-0.,-1.));
#1040 = ORIENTED_EDGE('',*,*,#1041,.F.);
#1041 = EDGE_CURVE('',#222,#1034,#1042,.T.);
#1042 = LINE('',#1043,#1044);
#1043 = CARTESIAN_POINT('',(55.198403067573,57.,-9.412570926928));
#1044 = VECTOR('',#1045,1.);
#1045 = DIRECTION('',(0.769916682267,0.,-0.638144421246));
#1046 = ORIENTED_EDGE('',*,*,#229,.T.);
#1047 = ORIENTED_EDGE('',*,*,#978,.T.);
#1048 = PLANE('',#1049);
#1049 = AXIS2_PLACEMENT_3D('',#1050,#1051,#1052);
#1050 = CARTESIAN_POINT('',(90.,57.,-7.5));
#1051 = DIRECTION('',(0.,-1.,0.));
#1052 = DIRECTION('',(-1.,0.,0.));
#1053 = ADVANCED_FACE('',(#1054),#1072,.F.);
#1054 = FACE_BOUND('',#1055,.T.);
#1055 = EDGE_LOOP('',(#1056,#1057,#1058,#1066));
#1056 = ORIENTED_EDGE('',*,*,#1041,.F.);
#1057 = ORIENTED_EDGE('',*,*,#221,.T.);
#1058 = ORIENTED_EDGE('',*,*,#1059,.T.);
#1059 = EDGE_CURVE('',#214,#1060,#1062,.T.);
#1060 = VERTEX_POINT('',#1061);
#1061 = CARTESIAN_POINT('',(90.,-23.,6.5));
#1062 = LINE('',#1063,#1064);
#1063 = CARTESIAN_POINT('',(90.,-2.713348654207,-4.849830746842));
#1064 = VECTOR('',#1065,1.);
#1065 = DIRECTION('',(0.,0.872702065256,-0.488253116014));
#1066 = ORIENTED_EDGE('',*,*,#1067,.F.);
#1067 = EDGE_CURVE('',#1034,#1060,#1068,.T.);
#1068 = LINE('',#1069,#1070);
#1069 = CARTESIAN_POINT('',(36.,57.,6.5));
#1070 = VECTOR('',#1071,1.);
#1071 = DIRECTION('',(0.559472855001,-0.828848674076,0.));
#1072 = PLANE('',#1073);
#1073 = AXIS2_PLACEMENT_3D('',#1074,#1075,#1076);
#1074 = CARTESIAN_POINT('',(35.585575662962,56.720263572499,7.));
#1075 = DIRECTION('',(-0.586084518016,-0.395607049661,-0.707106781187));
#1076 = DIRECTION('',(-0.559472855001,0.828848674076,-2.775557561563E-16
    ));
#1077 = ADVANCED_FACE('',(#1078),#1104,.F.);
#1078 = FACE_BOUND('',#1079,.F.);
#1079 = EDGE_LOOP('',(#1080,#1088,#1096,#1102,#1103));
#1080 = ORIENTED_EDGE('',*,*,#1081,.T.);
#1081 = EDGE_CURVE('',#1060,#1082,#1084,.T.);
#1082 = VERTEX_POINT('',#1083);
#1083 = CARTESIAN_POINT('',(90.,-23.,-6.5));
#1084 = LINE('',#1085,#1086);
#1085 = CARTESIAN_POINT('',(90.,-23.,7.5));
#1086 = VECTOR('',#1087,1.);
#1087 = DIRECTION('',(-0.,-0.,-1.));
#1088 = ORIENTED_EDGE('',*,*,#1089,.F.);
#1089 = EDGE_CURVE('',#1090,#1082,#1092,.T.);
#1090 = VERTEX_POINT('',#1091);
#1091 = CARTESIAN_POINT('',(90.,-29.95,-6.5));
#1092 = LINE('',#1093,#1094);
#1093 = CARTESIAN_POINT('',(90.,-29.95,-6.5));
#1094 = VECTOR('',#1095,1.);
#1095 = DIRECTION('',(0.,1.,0.));
#1096 = ORIENTED_EDGE('',*,*,#1097,.F.);
#1097 = EDGE_CURVE('',#206,#1090,#1098,.T.);
#1098 = LINE('',#1099,#1100);
#1099 = CARTESIAN_POINT('',(90.,-29.95,7.5));
#1100 = VECTOR('',#1101,1.);
#1101 = DIRECTION('',(-0.,-0.,-1.));
#1102 = ORIENTED_EDGE('',*,*,#213,.T.);
#1103 = ORIENTED_EDGE('',*,*,#1059,.T.);
#1104 = PLANE('',#1105);
#1105 = AXIS2_PLACEMENT_3D('',#1106,#1107,#1108);
#1106 = CARTESIAN_POINT('',(90.,-57.,-7.5));
#1107 = DIRECTION('',(-1.,0.,0.));
#1108 = DIRECTION('',(0.,1.,0.));
#1109 = ADVANCED_FACE('',(#1110),#1121,.T.);
#1110 = FACE_BOUND('',#1111,.T.);
#1111 = EDGE_LOOP('',(#1112,#1113,#1114,#1115));
#1112 = ORIENTED_EDGE('',*,*,#1097,.F.);
#1113 = ORIENTED_EDGE('',*,*,#205,.F.);
#1114 = ORIENTED_EDGE('',*,*,#382,.T.);
#1115 = ORIENTED_EDGE('',*,*,#1116,.T.);
#1116 = EDGE_CURVE('',#383,#1090,#1117,.T.);
#1117 = LINE('',#1118,#1119);
#1118 = CARTESIAN_POINT('',(69.9,-29.95,-6.5));
#1119 = VECTOR('',#1120,1.);
#1120 = DIRECTION('',(1.,0.,0.));
#1121 = PLANE('',#1122);
#1122 = AXIS2_PLACEMENT_3D('',#1123,#1124,#1125);
#1123 = CARTESIAN_POINT('',(69.9,-29.95,7.5));
#1124 = DIRECTION('',(0.,-1.,0.));
#1125 = DIRECTION('',(1.,0.,0.));
#1126 = ADVANCED_FACE('',(#1127),#1146,.F.);
#1127 = FACE_BOUND('',#1128,.F.);
#1128 = EDGE_LOOP('',(#1129,#1138,#1144,#1145));
#1129 = ORIENTED_EDGE('',*,*,#1130,.F.);
#1130 = EDGE_CURVE('',#1131,#1131,#1133,.T.);
#1131 = VERTEX_POINT('',#1132);
#1132 = CARTESIAN_POINT('',(-29.,-15.5,-2.5));
#1133 = CIRCLE('',#1134,1.);
#1134 = AXIS2_PLACEMENT_3D('',#1135,#1136,#1137);
#1135 = CARTESIAN_POINT('',(-30.,-15.5,-2.5));
#1136 = DIRECTION('',(0.,0.,-1.));
#1137 = DIRECTION('',(1.,0.,0.));
#1138 = ORIENTED_EDGE('',*,*,#1139,.T.);
#1139 = EDGE_CURVE('',#1131,#286,#1140,.T.);
#1140 = LINE('',#1141,#1142);
#1141 = CARTESIAN_POINT('',(-29.,-15.5,-7.5));
#1142 = VECTOR('',#1143,1.);
#1143 = DIRECTION('',(0.,0.,1.));
#1144 = ORIENTED_EDGE('',*,*,#285,.T.);
#1145 = ORIENTED_EDGE('',*,*,#1139,.F.);
#1146 = CYLINDRICAL_SURFACE('',#1147,1.);
#1147 = AXIS2_PLACEMENT_3D('',#1148,#1149,#1150);
#1148 = CARTESIAN_POINT('',(-30.,-15.5,-7.5));
#1149 = DIRECTION('',(0.,0.,-1.));
#1150 = DIRECTION('',(1.,0.,0.));
#1151 = ADVANCED_FACE('',(#1152),#1171,.F.);
#1152 = FACE_BOUND('',#1153,.F.);
#1153 = EDGE_LOOP('',(#1154,#1163,#1169,#1170));
#1154 = ORIENTED_EDGE('',*,*,#1155,.F.);
#1155 = EDGE_CURVE('',#1156,#1156,#1158,.T.);
#1156 = VERTEX_POINT('',#1157);
#1157 = CARTESIAN_POINT('',(31.,-15.5,-2.5));
#1158 = CIRCLE('',#1159,1.);
#1159 = AXIS2_PLACEMENT_3D('',#1160,#1161,#1162);
#1160 = CARTESIAN_POINT('',(30.,-15.5,-2.5));
#1161 = DIRECTION('',(0.,0.,-1.));
#1162 = DIRECTION('',(1.,0.,0.));
#1163 = ORIENTED_EDGE('',*,*,#1164,.T.);
#1164 = EDGE_CURVE('',#1156,#297,#1165,.T.);
#1165 = LINE('',#1166,#1167);
#1166 = CARTESIAN_POINT('',(31.,-15.5,-7.5));
#1167 = VECTOR('',#1168,1.);
#1168 = DIRECTION('',(0.,0.,1.));
#1169 = ORIENTED_EDGE('',*,*,#296,.T.);
#1170 = ORIENTED_EDGE('',*,*,#1164,.F.);
#1171 = CYLINDRICAL_SURFACE('',#1172,1.);
#1172 = AXIS2_PLACEMENT_3D('',#1173,#1174,#1175);
#1173 = CARTESIAN_POINT('',(30.,-15.5,-7.5));
#1174 = DIRECTION('',(0.,0.,-1.));
#1175 = DIRECTION('',(1.,0.,0.));
#1176 = ADVANCED_FACE('',(#1177),#1196,.F.);
#1177 = FACE_BOUND('',#1178,.F.);
#1178 = EDGE_LOOP('',(#1179,#1188,#1194,#1195));
#1179 = ORIENTED_EDGE('',*,*,#1180,.F.);
#1180 = EDGE_CURVE('',#1181,#1181,#1183,.T.);
#1181 = VERTEX_POINT('',#1182);
#1182 = CARTESIAN_POINT('',(-29.,31.5,-2.5));
#1183 = CIRCLE('',#1184,1.);
#1184 = AXIS2_PLACEMENT_3D('',#1185,#1186,#1187);
#1185 = CARTESIAN_POINT('',(-30.,31.5,-2.5));
#1186 = DIRECTION('',(0.,0.,-1.));
#1187 = DIRECTION('',(1.,0.,0.));
#1188 = ORIENTED_EDGE('',*,*,#1189,.T.);
#1189 = EDGE_CURVE('',#1181,#308,#1190,.T.);
#1190 = LINE('',#1191,#1192);
#1191 = CARTESIAN_POINT('',(-29.,31.5,-7.5));
#1192 = VECTOR('',#1193,1.);
#1193 = DIRECTION('',(0.,0.,1.));
#1194 = ORIENTED_EDGE('',*,*,#307,.T.);
#1195 = ORIENTED_EDGE('',*,*,#1189,.F.);
#1196 = CYLINDRICAL_SURFACE('',#1197,1.);
#1197 = AXIS2_PLACEMENT_3D('',#1198,#1199,#1200);
#1198 = CARTESIAN_POINT('',(-30.,31.5,-7.5));
#1199 = DIRECTION('',(0.,0.,-1.));
#1200 = DIRECTION('',(1.,0.,0.));
#1201 = ADVANCED_FACE('',(#1202),#1221,.F.);
#1202 = FACE_BOUND('',#1203,.F.);
#1203 = EDGE_LOOP('',(#1204,#1212,#1219,#1220));
#1204 = ORIENTED_EDGE('',*,*,#1205,.F.);
#1205 = EDGE_CURVE('',#1206,#319,#1208,.T.);
#1206 = VERTEX_POINT('',#1207);
#1207 = CARTESIAN_POINT('',(-8.5,45.5,-6.5));
#1208 = LINE('',#1209,#1210);
#1209 = CARTESIAN_POINT('',(-8.5,45.5,-7.5));
#1210 = VECTOR('',#1211,1.);
#1211 = DIRECTION('',(0.,0.,1.));
#1212 = ORIENTED_EDGE('',*,*,#1213,.F.);
#1213 = EDGE_CURVE('',#1206,#1206,#1214,.T.);
#1214 = CIRCLE('',#1215,4.);
#1215 = AXIS2_PLACEMENT_3D('',#1216,#1217,#1218);
#1216 = CARTESIAN_POINT('',(-12.5,45.5,-6.5));
#1217 = DIRECTION('',(0.,0.,-1.));
#1218 = DIRECTION('',(1.,0.,0.));
#1219 = ORIENTED_EDGE('',*,*,#1205,.T.);
#1220 = ORIENTED_EDGE('',*,*,#318,.T.);
#1221 = CYLINDRICAL_SURFACE('',#1222,4.);
#1222 = AXIS2_PLACEMENT_3D('',#1223,#1224,#1225);
#1223 = CARTESIAN_POINT('',(-12.5,45.5,-7.5));
#1224 = DIRECTION('',(0.,0.,-1.));
#1225 = DIRECTION('',(1.,0.,0.));
#1226 = ADVANCED_FACE('',(#1227),#1246,.F.);
#1227 = FACE_BOUND('',#1228,.F.);
#1228 = EDGE_LOOP('',(#1229,#1238,#1244,#1245));
#1229 = ORIENTED_EDGE('',*,*,#1230,.F.);
#1230 = EDGE_CURVE('',#1231,#1231,#1233,.T.);
#1231 = VERTEX_POINT('',#1232);
#1232 = CARTESIAN_POINT('',(31.,31.5,-2.5));
#1233 = CIRCLE('',#1234,1.);
#1234 = AXIS2_PLACEMENT_3D('',#1235,#1236,#1237);
#1235 = CARTESIAN_POINT('',(30.,31.5,-2.5));
#1236 = DIRECTION('',(0.,0.,-1.));
#1237 = DIRECTION('',(1.,0.,0.));
#1238 = ORIENTED_EDGE('',*,*,#1239,.T.);
#1239 = EDGE_CURVE('',#1231,#330,#1240,.T.);
#1240 = LINE('',#1241,#1242);
#1241 = CARTESIAN_POINT('',(31.,31.5,-7.5));
#1242 = VECTOR('',#1243,1.);
#1243 = DIRECTION('',(0.,0.,1.));
#1244 = ORIENTED_EDGE('',*,*,#329,.T.);
#1245 = ORIENTED_EDGE('',*,*,#1239,.F.);
#1246 = CYLINDRICAL_SURFACE('',#1247,1.);
#1247 = AXIS2_PLACEMENT_3D('',#1248,#1249,#1250);
#1248 = CARTESIAN_POINT('',(30.,31.5,-7.5));
#1249 = DIRECTION('',(0.,0.,-1.));
#1250 = DIRECTION('',(1.,0.,0.));
#1251 = ADVANCED_FACE('',(#1252),#1271,.F.);
#1252 = FACE_BOUND('',#1253,.F.);
#1253 = EDGE_LOOP('',(#1254,#1262,#1269,#1270));
#1254 = ORIENTED_EDGE('',*,*,#1255,.F.);
#1255 = EDGE_CURVE('',#1256,#341,#1258,.T.);
#1256 = VERTEX_POINT('',#1257);
#1257 = CARTESIAN_POINT('',(16.5,45.5,-6.5));
#1258 = LINE('',#1259,#1260);
#1259 = CARTESIAN_POINT('',(16.5,45.5,-7.5));
#1260 = VECTOR('',#1261,1.);
#1261 = DIRECTION('',(0.,0.,1.));
#1262 = ORIENTED_EDGE('',*,*,#1263,.F.);
#1263 = EDGE_CURVE('',#1256,#1256,#1264,.T.);
#1264 = CIRCLE('',#1265,4.);
#1265 = AXIS2_PLACEMENT_3D('',#1266,#1267,#1268);
#1266 = CARTESIAN_POINT('',(12.5,45.5,-6.5));
#1267 = DIRECTION('',(0.,0.,-1.));
#1268 = DIRECTION('',(1.,0.,0.));
#1269 = ORIENTED_EDGE('',*,*,#1255,.T.);
#1270 = ORIENTED_EDGE('',*,*,#340,.T.);
#1271 = CYLINDRICAL_SURFACE('',#1272,4.);
#1272 = AXIS2_PLACEMENT_3D('',#1273,#1274,#1275);
#1273 = CARTESIAN_POINT('',(12.5,45.5,-7.5));
#1274 = DIRECTION('',(0.,0.,-1.));
#1275 = DIRECTION('',(1.,0.,0.));
#1276 = ADVANCED_FACE('',(#1277),#1288,.F.);
#1277 = FACE_BOUND('',#1278,.T.);
#1278 = EDGE_LOOP('',(#1279,#1280,#1281,#1287));
#1279 = ORIENTED_EDGE('',*,*,#415,.F.);
#1280 = ORIENTED_EDGE('',*,*,#481,.T.);
#1281 = ORIENTED_EDGE('',*,*,#1282,.T.);
#1282 = EDGE_CURVE('',#482,#383,#1283,.T.);
#1283 = LINE('',#1284,#1285);
#1284 = CARTESIAN_POINT('',(72.916666666667,-32.96666666666,
    -3.483333333333));
#1285 = VECTOR('',#1286,1.);
#1286 = DIRECTION('',(0.57735026919,-0.57735026919,0.57735026919));
#1287 = ORIENTED_EDGE('',*,*,#392,.F.);
#1288 = PLANE('',#1289);
#1289 = AXIS2_PLACEMENT_3D('',#1290,#1291,#1292);
#1290 = CARTESIAN_POINT('',(69.4,-50.05,-7.));
#1291 = DIRECTION('',(-0.707106781187,0.,0.707106781187));
#1292 = DIRECTION('',(-0.,-1.,-0.));
#1293 = ADVANCED_FACE('',(#1294),#1305,.T.);
#1294 = FACE_BOUND('',#1295,.T.);
#1295 = EDGE_LOOP('',(#1296,#1302,#1303,#1304));
#1296 = ORIENTED_EDGE('',*,*,#1297,.F.);
#1297 = EDGE_CURVE('',#554,#730,#1298,.T.);
#1298 = LINE('',#1299,#1300);
#1299 = CARTESIAN_POINT('',(-89.66666666666,-50.38333333333,
    -6.833333333333));
#1300 = VECTOR('',#1301,1.);
#1301 = DIRECTION('',(-0.57735026919,0.57735026919,0.57735026919));
#1302 = ORIENTED_EDGE('',*,*,#561,.T.);
#1303 = ORIENTED_EDGE('',*,*,#675,.T.);
#1304 = ORIENTED_EDGE('',*,*,#729,.F.);
#1305 = PLANE('',#1306);
#1306 = AXIS2_PLACEMENT_3D('',#1307,#1308,#1309);
#1307 = CARTESIAN_POINT('',(-89.5,-50.05,-7.));
#1308 = DIRECTION('',(-0.707106781187,0.,-0.707106781187));
#1309 = DIRECTION('',(0.,-1.,0.));
#1310 = ADVANCED_FACE('',(#1311),#1322,.T.);
#1311 = FACE_BOUND('',#1312,.F.);
#1312 = EDGE_LOOP('',(#1313,#1319,#1320,#1321));
#1313 = ORIENTED_EDGE('',*,*,#1314,.F.);
#1314 = EDGE_CURVE('',#441,#754,#1315,.T.);
#1315 = LINE('',#1316,#1317);
#1316 = CARTESIAN_POINT('',(-63.25000000001,-36.,-6.75));
#1317 = VECTOR('',#1318,1.);
#1318 = DIRECTION('',(0.707106781187,-1.26E-14,0.707106781187));
#1319 = ORIENTED_EDGE('',*,*,#440,.T.);
#1320 = ORIENTED_EDGE('',*,*,#706,.T.);
#1321 = ORIENTED_EDGE('',*,*,#761,.F.);
#1322 = PLANE('',#1323);
#1323 = AXIS2_PLACEMENT_3D('',#1324,#1325,#1326);
#1324 = CARTESIAN_POINT('',(-63.5,-35.,-7.));
#1325 = DIRECTION('',(0.707106781187,0.,-0.707106781187));
#1326 = DIRECTION('',(0.,1.,0.));
#1327 = ADVANCED_FACE('',(#1328),#1339,.T.);
#1328 = FACE_BOUND('',#1329,.F.);
#1329 = EDGE_LOOP('',(#1330,#1331,#1332,#1338));
#1330 = ORIENTED_EDGE('',*,*,#1297,.F.);
#1331 = ORIENTED_EDGE('',*,*,#553,.T.);
#1332 = ORIENTED_EDGE('',*,*,#1333,.T.);
#1333 = EDGE_CURVE('',#546,#777,#1334,.T.);
#1334 = LINE('',#1335,#1336);
#1335 = CARTESIAN_POINT('',(-72.91666666666,-47.03333333333,
    -3.483333333333));
#1336 = VECTOR('',#1337,1.);
#1337 = DIRECTION('',(-0.57735026919,0.57735026919,0.57735026919));
#1338 = ORIENTED_EDGE('',*,*,#786,.F.);
#1339 = PLANE('',#1340);
#1340 = AXIS2_PLACEMENT_3D('',#1341,#1342,#1343);
#1341 = CARTESIAN_POINT('',(-90.,-50.55,-7.));
#1342 = DIRECTION('',(0.,0.707106781187,-0.707106781187));
#1343 = DIRECTION('',(-1.,-0.,-0.));
#1344 = ADVANCED_FACE('',(#1345),#1356,.F.);
#1345 = FACE_BOUND('',#1346,.F.);
#1346 = EDGE_LOOP('',(#1347,#1353,#1354,#1355));
#1347 = ORIENTED_EDGE('',*,*,#1348,.F.);
#1348 = EDGE_CURVE('',#449,#803,#1349,.T.);
#1349 = LINE('',#1350,#1351);
#1350 = CARTESIAN_POINT('',(-62.,-34.25,-7.25));
#1351 = VECTOR('',#1352,1.);
#1352 = DIRECTION('',(5.1E-15,-0.707106781187,0.707106781187));
#1353 = ORIENTED_EDGE('',*,*,#448,.T.);
#1354 = ORIENTED_EDGE('',*,*,#1314,.T.);
#1355 = ORIENTED_EDGE('',*,*,#802,.F.);
#1356 = PLANE('',#1357);
#1357 = AXIS2_PLACEMENT_3D('',#1358,#1359,#1360);
#1358 = CARTESIAN_POINT('',(-62.,-34.,-7.5));
#1359 = DIRECTION('',(-0.57735026919,0.57735026919,0.57735026919));
#1360 = DIRECTION('',(-0.707106781187,-0.707106781187,
    -2.470246229791E-15));
#1361 = ADVANCED_FACE('',(#1362),#1373,.T.);
#1362 = FACE_BOUND('',#1363,.F.);
#1363 = EDGE_LOOP('',(#1364,#1365,#1366,#1372));
#1364 = ORIENTED_EDGE('',*,*,#1333,.F.);
#1365 = ORIENTED_EDGE('',*,*,#545,.T.);
#1366 = ORIENTED_EDGE('',*,*,#1367,.T.);
#1367 = EDGE_CURVE('',#538,#825,#1368,.T.);
#1368 = LINE('',#1369,#1370);
#1369 = CARTESIAN_POINT('',(-72.91666666666,-32.96666666666,
    -3.483333333333));
#1370 = VECTOR('',#1371,1.);
#1371 = DIRECTION('',(-0.57735026919,-0.57735026919,0.57735026919));
#1372 = ORIENTED_EDGE('',*,*,#834,.F.);
#1373 = PLANE('',#1374);
#1374 = AXIS2_PLACEMENT_3D('',#1375,#1376,#1377);
#1375 = CARTESIAN_POINT('',(-69.4,-50.05,-7.));
#1376 = DIRECTION('',(-0.707106781187,0.,-0.707106781187));
#1377 = DIRECTION('',(-0.,-1.,-0.));
#1378 = ADVANCED_FACE('',(#1379),#1390,.T.);
#1379 = FACE_BOUND('',#1380,.F.);
#1380 = EDGE_LOOP('',(#1381,#1387,#1388,#1389));
#1381 = ORIENTED_EDGE('',*,*,#1382,.F.);
#1382 = EDGE_CURVE('',#457,#850,#1383,.T.);
#1383 = LINE('',#1384,#1385);
#1384 = CARTESIAN_POINT('',(62.,-34.25,-7.25));
#1385 = VECTOR('',#1386,1.);
#1386 = DIRECTION('',(0.,-0.707106781187,0.707106781187));
#1387 = ORIENTED_EDGE('',*,*,#456,.T.);
#1388 = ORIENTED_EDGE('',*,*,#1348,.T.);
#1389 = ORIENTED_EDGE('',*,*,#857,.F.);
#1390 = PLANE('',#1391);
#1391 = AXIS2_PLACEMENT_3D('',#1392,#1393,#1394);
#1392 = CARTESIAN_POINT('',(63.,-34.5,-7.));
#1393 = DIRECTION('',(0.,-0.707106781187,-0.707106781187));
#1394 = DIRECTION('',(1.,0.,0.));
#1395 = ADVANCED_FACE('',(#1396),#1407,.T.);
#1396 = FACE_BOUND('',#1397,.F.);
#1397 = EDGE_LOOP('',(#1398,#1399,#1400,#1406));
#1398 = ORIENTED_EDGE('',*,*,#1367,.F.);
#1399 = ORIENTED_EDGE('',*,*,#537,.T.);
#1400 = ORIENTED_EDGE('',*,*,#1401,.T.);
#1401 = EDGE_CURVE('',#530,#873,#1402,.T.);
#1402 = LINE('',#1403,#1404);
#1403 = CARTESIAN_POINT('',(-85.15833333333,-25.10833333333,
    -11.34166666666));
#1404 = VECTOR('',#1405,1.);
#1405 = DIRECTION('',(-0.57735026919,-0.57735026919,0.57735026919));
#1406 = ORIENTED_EDGE('',*,*,#882,.F.);
#1407 = PLANE('',#1408);
#1408 = AXIS2_PLACEMENT_3D('',#1409,#1410,#1411);
#1409 = CARTESIAN_POINT('',(-69.9,-29.45,-7.));
#1410 = DIRECTION('',(0.,-0.707106781187,-0.707106781187));
#1411 = DIRECTION('',(1.,0.,0.));
#1412 = ADVANCED_FACE('',(#1413),#1424,.T.);
#1413 = FACE_BOUND('',#1414,.T.);
#1414 = EDGE_LOOP('',(#1415,#1416,#1417,#1423));
#1415 = ORIENTED_EDGE('',*,*,#1382,.F.);
#1416 = ORIENTED_EDGE('',*,*,#464,.T.);
#1417 = ORIENTED_EDGE('',*,*,#1418,.T.);
#1418 = EDGE_CURVE('',#465,#899,#1419,.T.);
#1419 = LINE('',#1420,#1421);
#1420 = CARTESIAN_POINT('',(63.25,-36.,-6.75));
#1421 = VECTOR('',#1422,1.);
#1422 = DIRECTION('',(-0.707106781187,-1.25E-15,0.707106781187));
#1423 = ORIENTED_EDGE('',*,*,#898,.F.);
#1424 = PLANE('',#1425);
#1425 = AXIS2_PLACEMENT_3D('',#1426,#1427,#1428);
#1426 = CARTESIAN_POINT('',(62.,-34.,-7.5));
#1427 = DIRECTION('',(-0.57735026919,-0.57735026919,-0.57735026919));
#1428 = DIRECTION('',(0.707106781187,-0.707106781187,1.249000902703E-15)
  );
#1429 = ADVANCED_FACE('',(#1430),#1441,.T.);
#1430 = FACE_BOUND('',#1431,.T.);
#1431 = EDGE_LOOP('',(#1432,#1438,#1439,#1440));
#1432 = ORIENTED_EDGE('',*,*,#1433,.F.);
#1433 = EDGE_CURVE('',#522,#922,#1434,.T.);
#1434 = LINE('',#1435,#1436);
#1435 = CARTESIAN_POINT('',(-89.52235023377,-23.1461203883,
    -6.977649766223));
#1436 = VECTOR('',#1437,1.);
#1437 = DIRECTION('',(-0.691122106594,0.211424850843,0.691122106594));
#1438 = ORIENTED_EDGE('',*,*,#529,.T.);
#1439 = ORIENTED_EDGE('',*,*,#1401,.T.);
#1440 = ORIENTED_EDGE('',*,*,#921,.F.);
#1441 = PLANE('',#1442);
#1442 = AXIS2_PLACEMENT_3D('',#1443,#1444,#1445);
#1443 = CARTESIAN_POINT('',(-89.5,-23.,-7.));
#1444 = DIRECTION('',(-0.707106781187,0.,-0.707106781187));
#1445 = DIRECTION('',(0.,-1.,0.));
#1446 = ADVANCED_FACE('',(#1447),#1453,.T.);
#1447 = FACE_BOUND('',#1448,.F.);
#1448 = EDGE_LOOP('',(#1449,#1450,#1451,#1452));
#1449 = ORIENTED_EDGE('',*,*,#1002,.F.);
#1450 = ORIENTED_EDGE('',*,*,#472,.T.);
#1451 = ORIENTED_EDGE('',*,*,#1418,.T.);
#1452 = ORIENTED_EDGE('',*,*,#961,.F.);
#1453 = PLANE('',#1454);
#1454 = AXIS2_PLACEMENT_3D('',#1455,#1456,#1457);
#1455 = CARTESIAN_POINT('',(63.5,-57.,-7.));
#1456 = DIRECTION('',(-0.707106781187,-1.E-17,-0.707106781187));
#1457 = DIRECTION('',(7.071067811865E-18,-1.,7.071067811865E-18));
#1458 = ADVANCED_FACE('',(#1459),#1475,.T.);
#1459 = FACE_BOUND('',#1460,.F.);
#1460 = EDGE_LOOP('',(#1461,#1462,#1463,#1469));
#1461 = ORIENTED_EDGE('',*,*,#1433,.F.);
#1462 = ORIENTED_EDGE('',*,*,#521,.T.);
#1463 = ORIENTED_EDGE('',*,*,#1464,.T.);
#1464 = EDGE_CURVE('',#514,#1018,#1465,.T.);
#1465 = LINE('',#1466,#1467);
#1466 = CARTESIAN_POINT('',(-25.33900004637,36.941404800598,
    -26.5585951994));
#1467 = VECTOR('',#1468,1.);
#1468 = DIRECTION('',(-0.351798104075,0.661905617883,0.661905617883));
#1469 = ORIENTED_EDGE('',*,*,#1470,.F.);
#1470 = EDGE_CURVE('',#922,#1018,#1471,.T.);
#1471 = LINE('',#1472,#1473);
#1472 = CARTESIAN_POINT('',(-90.,-23.,-6.5));
#1473 = VECTOR('',#1474,1.);
#1474 = DIRECTION('',(0.559472855001,0.828848674076,0.));
#1475 = PLANE('',#1476);
#1476 = AXIS2_PLACEMENT_3D('',#1477,#1478,#1479);
#1477 = CARTESIAN_POINT('',(-89.58557566296,-23.2797364275,-7.));
#1478 = DIRECTION('',(-0.586084518016,0.395607049661,-0.707106781187));
#1479 = DIRECTION('',(-0.559472855001,-0.828848674076,3.608224830032E-16
    ));
#1480 = ADVANCED_FACE('',(#1481),#1492,.T.);
#1481 = FACE_BOUND('',#1482,.T.);
#1482 = EDGE_LOOP('',(#1483,#1489,#1490,#1491));
#1483 = ORIENTED_EDGE('',*,*,#1484,.F.);
#1484 = EDGE_CURVE('',#506,#1026,#1485,.T.);
#1485 = LINE('',#1486,#1487);
#1486 = CARTESIAN_POINT('',(35.767142858552,56.561880953015,
    -6.938119046985));
#1487 = VECTOR('',#1488,1.);
#1488 = DIRECTION('',(0.351798104075,0.661905617883,0.661905617883));
#1489 = ORIENTED_EDGE('',*,*,#513,.T.);
#1490 = ORIENTED_EDGE('',*,*,#1464,.T.);
#1491 = ORIENTED_EDGE('',*,*,#1025,.F.);
#1492 = PLANE('',#1493);
#1493 = AXIS2_PLACEMENT_3D('',#1494,#1495,#1496);
#1494 = CARTESIAN_POINT('',(36.,56.5,-7.));
#1495 = DIRECTION('',(0.,0.707106781187,-0.707106781187));
#1496 = DIRECTION('',(-1.,0.,0.));
#1497 = ADVANCED_FACE('',(#1498),#1514,.T.);
#1498 = FACE_BOUND('',#1499,.F.);
#1499 = EDGE_LOOP('',(#1500,#1501,#1502,#1508));
#1500 = ORIENTED_EDGE('',*,*,#1484,.F.);
#1501 = ORIENTED_EDGE('',*,*,#505,.T.);
#1502 = ORIENTED_EDGE('',*,*,#1503,.T.);
#1503 = EDGE_CURVE('',#498,#1082,#1504,.T.);
#1504 = LINE('',#1505,#1506);
#1505 = CARTESIAN_POINT('',(81.962853728443,-25.45868629501,
    -14.53714627155));
#1506 = VECTOR('',#1507,1.);
#1507 = DIRECTION('',(0.691122106594,0.211424850843,0.691122106594));
#1508 = ORIENTED_EDGE('',*,*,#1509,.F.);
#1509 = EDGE_CURVE('',#1026,#1082,#1510,.T.);
#1510 = LINE('',#1511,#1512);
#1511 = CARTESIAN_POINT('',(36.,57.,-6.5));
#1512 = VECTOR('',#1513,1.);
#1513 = DIRECTION('',(0.559472855001,-0.828848674076,0.));
#1514 = PLANE('',#1515);
#1515 = AXIS2_PLACEMENT_3D('',#1516,#1517,#1518);
#1516 = CARTESIAN_POINT('',(35.585575662962,56.720263572499,-7.));
#1517 = DIRECTION('',(0.586084518016,0.395607049661,-0.707106781187));
#1518 = DIRECTION('',(-0.559472855001,0.828848674076,-1.665334536938E-16
    ));
#1519 = ADVANCED_FACE('',(#1520),#1531,.T.);
#1520 = FACE_BOUND('',#1521,.T.);
#1521 = EDGE_LOOP('',(#1522,#1528,#1529,#1530));
#1522 = ORIENTED_EDGE('',*,*,#1523,.F.);
#1523 = EDGE_CURVE('',#490,#1090,#1524,.T.);
#1524 = LINE('',#1525,#1526);
#1525 = CARTESIAN_POINT('',(86.316666666667,-26.26666666666,
    -10.18333333333));
#1526 = VECTOR('',#1527,1.);
#1527 = DIRECTION('',(0.57735026919,-0.57735026919,0.57735026919));
#1528 = ORIENTED_EDGE('',*,*,#497,.T.);
#1529 = ORIENTED_EDGE('',*,*,#1503,.T.);
#1530 = ORIENTED_EDGE('',*,*,#1089,.F.);
#1531 = PLANE('',#1532);
#1532 = AXIS2_PLACEMENT_3D('',#1533,#1534,#1535);
#1533 = CARTESIAN_POINT('',(89.5,-29.95,-7.));
#1534 = DIRECTION('',(0.707106781187,0.,-0.707106781187));
#1535 = DIRECTION('',(0.,1.,0.));
#1536 = ADVANCED_FACE('',(#1537),#1543,.F.);
#1537 = FACE_BOUND('',#1538,.T.);
#1538 = EDGE_LOOP('',(#1539,#1540,#1541,#1542));
#1539 = ORIENTED_EDGE('',*,*,#1282,.F.);
#1540 = ORIENTED_EDGE('',*,*,#489,.T.);
#1541 = ORIENTED_EDGE('',*,*,#1523,.T.);
#1542 = ORIENTED_EDGE('',*,*,#1116,.F.);
#1543 = PLANE('',#1544);
#1544 = AXIS2_PLACEMENT_3D('',#1545,#1546,#1547);
#1545 = CARTESIAN_POINT('',(69.9,-29.45,-7.));
#1546 = DIRECTION('',(0.,0.707106781187,0.707106781187));
#1547 = DIRECTION('',(-1.,0.,0.));
#1548 = ADVANCED_FACE('',(#1549),#1568,.F.);
#1549 = FACE_BOUND('',#1550,.T.);
#1550 = EDGE_LOOP('',(#1551,#1559,#1560,#1561));
#1551 = ORIENTED_EDGE('',*,*,#1552,.F.);
#1552 = EDGE_CURVE('',#570,#1553,#1555,.T.);
#1553 = VERTEX_POINT('',#1554);
#1554 = CARTESIAN_POINT('',(4.05,46.5,-6.5));
#1555 = LINE('',#1556,#1557);
#1556 = CARTESIAN_POINT('',(4.05,46.5,-6.5));
#1557 = VECTOR('',#1558,1.);
#1558 = DIRECTION('',(-0.707106781187,0.,0.707106781187));
#1559 = ORIENTED_EDGE('',*,*,#569,.T.);
#1560 = ORIENTED_EDGE('',*,*,#1552,.T.);
#1561 = ORIENTED_EDGE('',*,*,#1562,.F.);
#1562 = EDGE_CURVE('',#1553,#1553,#1563,.T.);
#1563 = CIRCLE('',#1564,4.05);
#1564 = AXIS2_PLACEMENT_3D('',#1565,#1566,#1567);
#1565 = CARTESIAN_POINT('',(0.,46.5,-6.5));
#1566 = DIRECTION('',(0.,0.,-1.));
#1567 = DIRECTION('',(1.,0.,0.));
#1568 = CONICAL_SURFACE('',#1569,4.05,0.785398163397);
#1569 = AXIS2_PLACEMENT_3D('',#1570,#1571,#1572);
#1570 = CARTESIAN_POINT('',(0.,46.5,-6.5));
#1571 = DIRECTION('',(-0.,-0.,-1.));
#1572 = DIRECTION('',(1.,0.,0.));
#1573 = ADVANCED_FACE('',(#1574),#1585,.F.);
#1574 = FACE_BOUND('',#1575,.T.);
#1575 = EDGE_LOOP('',(#1576,#1582,#1583,#1584));
#1576 = ORIENTED_EDGE('',*,*,#1577,.F.);
#1577 = EDGE_CURVE('',#581,#1256,#1578,.T.);
#1578 = LINE('',#1579,#1580);
#1579 = CARTESIAN_POINT('',(16.5,45.5,-6.5));
#1580 = VECTOR('',#1581,1.);
#1581 = DIRECTION('',(-0.707106781187,0.,0.707106781187));
#1582 = ORIENTED_EDGE('',*,*,#580,.T.);
#1583 = ORIENTED_EDGE('',*,*,#1577,.T.);
#1584 = ORIENTED_EDGE('',*,*,#1263,.F.);
#1585 = CONICAL_SURFACE('',#1586,4.,0.785398163397);
#1586 = AXIS2_PLACEMENT_3D('',#1587,#1588,#1589);
#1587 = CARTESIAN_POINT('',(12.5,45.5,-6.5));
#1588 = DIRECTION('',(-0.,-0.,-1.));
#1589 = DIRECTION('',(1.,0.,0.));
#1590 = ADVANCED_FACE('',(#1591),#1602,.F.);
#1591 = FACE_BOUND('',#1592,.T.);
#1592 = EDGE_LOOP('',(#1593,#1599,#1600,#1601));
#1593 = ORIENTED_EDGE('',*,*,#1594,.F.);
#1594 = EDGE_CURVE('',#592,#1206,#1595,.T.);
#1595 = LINE('',#1596,#1597);
#1596 = CARTESIAN_POINT('',(-8.5,45.5,-6.5));
#1597 = VECTOR('',#1598,1.);
#1598 = DIRECTION('',(-0.707106781187,0.,0.707106781187));
#1599 = ORIENTED_EDGE('',*,*,#591,.T.);
#1600 = ORIENTED_EDGE('',*,*,#1594,.T.);
#1601 = ORIENTED_EDGE('',*,*,#1213,.F.);
#1602 = CONICAL_SURFACE('',#1603,4.,0.785398163397);
#1603 = AXIS2_PLACEMENT_3D('',#1604,#1605,#1606);
#1604 = CARTESIAN_POINT('',(-12.5,45.5,-6.5));
#1605 = DIRECTION('',(-0.,-0.,-1.));
#1606 = DIRECTION('',(1.,0.,0.));
#1607 = ADVANCED_FACE('',(#1608),#1627,.F.);
#1608 = FACE_BOUND('',#1609,.T.);
#1609 = EDGE_LOOP('',(#1610,#1618,#1619,#1620));
#1610 = ORIENTED_EDGE('',*,*,#1611,.F.);
#1611 = EDGE_CURVE('',#603,#1612,#1614,.T.);
#1612 = VERTEX_POINT('',#1613);
#1613 = CARTESIAN_POINT('',(32.5,31.5,-6.5));
#1614 = LINE('',#1615,#1616);
#1615 = CARTESIAN_POINT('',(32.5,31.5,-6.5));
#1616 = VECTOR('',#1617,1.);
#1617 = DIRECTION('',(-0.707106781187,0.,0.707106781187));
#1618 = ORIENTED_EDGE('',*,*,#602,.T.);
#1619 = ORIENTED_EDGE('',*,*,#1611,.T.);
#1620 = ORIENTED_EDGE('',*,*,#1621,.F.);
#1621 = EDGE_CURVE('',#1612,#1612,#1622,.T.);
#1622 = CIRCLE('',#1623,2.5);
#1623 = AXIS2_PLACEMENT_3D('',#1624,#1625,#1626);
#1624 = CARTESIAN_POINT('',(30.,31.5,-6.5));
#1625 = DIRECTION('',(0.,0.,-1.));
#1626 = DIRECTION('',(1.,0.,0.));
#1627 = CONICAL_SURFACE('',#1628,2.5,0.785398163397);
#1628 = AXIS2_PLACEMENT_3D('',#1629,#1630,#1631);
#1629 = CARTESIAN_POINT('',(30.,31.5,-6.5));
#1630 = DIRECTION('',(-0.,-0.,-1.));
#1631 = DIRECTION('',(1.,0.,0.));
#1632 = ADVANCED_FACE('',(#1633),#1652,.F.);
#1633 = FACE_BOUND('',#1634,.T.);
#1634 = EDGE_LOOP('',(#1635,#1643,#1644,#1645));
#1635 = ORIENTED_EDGE('',*,*,#1636,.F.);
#1636 = EDGE_CURVE('',#614,#1637,#1639,.T.);
#1637 = VERTEX_POINT('',#1638);
#1638 = CARTESIAN_POINT('',(-27.5,31.5,-6.5));
#1639 = LINE('',#1640,#1641);
#1640 = CARTESIAN_POINT('',(-27.5,31.5,-6.5));
#1641 = VECTOR('',#1642,1.);
#1642 = DIRECTION('',(-0.707106781187,0.,0.707106781187));
#1643 = ORIENTED_EDGE('',*,*,#613,.T.);
#1644 = ORIENTED_EDGE('',*,*,#1636,.T.);
#1645 = ORIENTED_EDGE('',*,*,#1646,.F.);
#1646 = EDGE_CURVE('',#1637,#1637,#1647,.T.);
#1647 = CIRCLE('',#1648,2.5);
#1648 = AXIS2_PLACEMENT_3D('',#1649,#1650,#1651);
#1649 = CARTESIAN_POINT('',(-30.,31.5,-6.5));
#1650 = DIRECTION('',(0.,0.,-1.));
#1651 = DIRECTION('',(1.,0.,0.));
#1652 = CONICAL_SURFACE('',#1653,2.5,0.785398163397);
#1653 = AXIS2_PLACEMENT_3D('',#1654,#1655,#1656);
#1654 = CARTESIAN_POINT('',(-30.,31.5,-6.5));
#1655 = DIRECTION('',(-0.,-0.,-1.));
#1656 = DIRECTION('',(1.,0.,0.));
#1657 = ADVANCED_FACE('',(#1658),#1677,.F.);
#1658 = FACE_BOUND('',#1659,.T.);
#1659 = EDGE_LOOP('',(#1660,#1668,#1669,#1670));
#1660 = ORIENTED_EDGE('',*,*,#1661,.F.);
#1661 = EDGE_CURVE('',#625,#1662,#1664,.T.);
#1662 = VERTEX_POINT('',#1663);
#1663 = CARTESIAN_POINT('',(32.5,-15.5,-6.5));
#1664 = LINE('',#1665,#1666);
#1665 = CARTESIAN_POINT('',(32.5,-15.5,-6.5));
#1666 = VECTOR('',#1667,1.);
#1667 = DIRECTION('',(-0.707106781187,0.,0.707106781187));
#1668 = ORIENTED_EDGE('',*,*,#624,.T.);
#1669 = ORIENTED_EDGE('',*,*,#1661,.T.);
#1670 = ORIENTED_EDGE('',*,*,#1671,.F.);
#1671 = EDGE_CURVE('',#1662,#1662,#1672,.T.);
#1672 = CIRCLE('',#1673,2.5);
#1673 = AXIS2_PLACEMENT_3D('',#1674,#1675,#1676);
#1674 = CARTESIAN_POINT('',(30.,-15.5,-6.5));
#1675 = DIRECTION('',(0.,0.,-1.));
#1676 = DIRECTION('',(1.,0.,0.));
#1677 = CONICAL_SURFACE('',#1678,2.5,0.785398163397);
#1678 = AXIS2_PLACEMENT_3D('',#1679,#1680,#1681);
#1679 = CARTESIAN_POINT('',(30.,-15.5,-6.5));
#1680 = DIRECTION('',(-0.,-0.,-1.));
#1681 = DIRECTION('',(1.,0.,0.));
#1682 = ADVANCED_FACE('',(#1683),#1702,.F.);
#1683 = FACE_BOUND('',#1684,.T.);
#1684 = EDGE_LOOP('',(#1685,#1693,#1694,#1695));
#1685 = ORIENTED_EDGE('',*,*,#1686,.F.);
#1686 = EDGE_CURVE('',#636,#1687,#1689,.T.);
#1687 = VERTEX_POINT('',#1688);
#1688 = CARTESIAN_POINT('',(-27.5,-15.5,-6.5));
#1689 = LINE('',#1690,#1691);
#1690 = CARTESIAN_POINT('',(-27.5,-15.5,-6.5));
#1691 = VECTOR('',#1692,1.);
#1692 = DIRECTION('',(-0.707106781187,0.,0.707106781187));
#1693 = ORIENTED_EDGE('',*,*,#635,.T.);
#1694 = ORIENTED_EDGE('',*,*,#1686,.T.);
#1695 = ORIENTED_EDGE('',*,*,#1696,.F.);
#1696 = EDGE_CURVE('',#1687,#1687,#1697,.T.);
#1697 = CIRCLE('',#1698,2.5);
#1698 = AXIS2_PLACEMENT_3D('',#1699,#1700,#1701);
#1699 = CARTESIAN_POINT('',(-30.,-15.5,-6.5));
#1700 = DIRECTION('',(0.,0.,-1.));
#1701 = DIRECTION('',(1.,0.,0.));
#1702 = CONICAL_SURFACE('',#1703,2.5,0.785398163397);
#1703 = AXIS2_PLACEMENT_3D('',#1704,#1705,#1706);
#1704 = CARTESIAN_POINT('',(-30.,-15.5,-6.5));
#1705 = DIRECTION('',(-0.,-0.,-1.));
#1706 = DIRECTION('',(1.,0.,0.));
#1707 = ADVANCED_FACE('',(#1708),#1727,.F.);
#1708 = FACE_BOUND('',#1709,.T.);
#1709 = EDGE_LOOP('',(#1710,#1718,#1719,#1720));
#1710 = ORIENTED_EDGE('',*,*,#1711,.F.);
#1711 = EDGE_CURVE('',#647,#1712,#1714,.T.);
#1712 = VERTEX_POINT('',#1713);
#1713 = CARTESIAN_POINT('',(4.05,-16.5,-6.5));
#1714 = LINE('',#1715,#1716);
#1715 = CARTESIAN_POINT('',(4.05,-16.5,-6.5));
#1716 = VECTOR('',#1717,1.);
#1717 = DIRECTION('',(-0.707106781187,0.,0.707106781187));
#1718 = ORIENTED_EDGE('',*,*,#646,.T.);
#1719 = ORIENTED_EDGE('',*,*,#1711,.T.);
#1720 = ORIENTED_EDGE('',*,*,#1721,.F.);
#1721 = EDGE_CURVE('',#1712,#1712,#1722,.T.);
#1722 = CIRCLE('',#1723,4.05);
#1723 = AXIS2_PLACEMENT_3D('',#1724,#1725,#1726);
#1724 = CARTESIAN_POINT('',(0.,-16.5,-6.5));
#1725 = DIRECTION('',(0.,0.,-1.));
#1726 = DIRECTION('',(1.,0.,0.));
#1727 = CONICAL_SURFACE('',#1728,4.05,0.785398163397);
#1728 = AXIS2_PLACEMENT_3D('',#1729,#1730,#1731);
#1729 = CARTESIAN_POINT('',(0.,-16.5,-6.5));
#1730 = DIRECTION('',(-0.,-0.,-1.));
#1731 = DIRECTION('',(1.,0.,0.));
#1732 = ADVANCED_FACE('',(#1733),#1752,.F.);
#1733 = FACE_BOUND('',#1734,.T.);
#1734 = EDGE_LOOP('',(#1735,#1743,#1744,#1745));
#1735 = ORIENTED_EDGE('',*,*,#1736,.F.);
#1736 = EDGE_CURVE('',#658,#1737,#1739,.T.);
#1737 = VERTEX_POINT('',#1738);
#1738 = CARTESIAN_POINT('',(4.5,15.,-6.5));
#1739 = LINE('',#1740,#1741);
#1740 = CARTESIAN_POINT('',(4.5,15.,-6.5));
#1741 = VECTOR('',#1742,1.);
#1742 = DIRECTION('',(-0.707106781187,0.,0.707106781187));
#1743 = ORIENTED_EDGE('',*,*,#657,.T.);
#1744 = ORIENTED_EDGE('',*,*,#1736,.T.);
#1745 = ORIENTED_EDGE('',*,*,#1746,.F.);
#1746 = EDGE_CURVE('',#1737,#1737,#1747,.T.);
#1747 = CIRCLE('',#1748,4.5);
#1748 = AXIS2_PLACEMENT_3D('',#1749,#1750,#1751);
#1749 = CARTESIAN_POINT('',(0.,15.,-6.5));
#1750 = DIRECTION('',(0.,0.,-1.));
#1751 = DIRECTION('',(1.,0.,0.));
#1752 = CONICAL_SURFACE('',#1753,4.5,0.785398163397);
#1753 = AXIS2_PLACEMENT_3D('',#1754,#1755,#1756);
#1754 = CARTESIAN_POINT('',(0.,15.,-6.5));
#1755 = DIRECTION('',(-0.,-0.,-1.));
#1756 = DIRECTION('',(1.,0.,0.));
#1757 = ADVANCED_FACE('',(#1758),#1764,.F.);
#1758 = FACE_BOUND('',#1759,.F.);
#1759 = EDGE_LOOP('',(#1760,#1761,#1762,#1763));
#1760 = ORIENTED_EDGE('',*,*,#1017,.F.);
#1761 = ORIENTED_EDGE('',*,*,#986,.F.);
#1762 = ORIENTED_EDGE('',*,*,#929,.T.);
#1763 = ORIENTED_EDGE('',*,*,#1470,.T.);
#1764 = PLANE('',#1765);
#1765 = AXIS2_PLACEMENT_3D('',#1766,#1767,#1768);
#1766 = CARTESIAN_POINT('',(-90.,-23.,7.5));
#1767 = DIRECTION('',(0.828848674076,-0.559472855001,0.));
#1768 = DIRECTION('',(0.559472855001,0.828848674076,0.));
#1769 = ADVANCED_FACE('',(#1770),#1776,.F.);
#1770 = FACE_BOUND('',#1771,.F.);
#1771 = EDGE_LOOP('',(#1772,#1773,#1774,#1775));
#1772 = ORIENTED_EDGE('',*,*,#1081,.F.);
#1773 = ORIENTED_EDGE('',*,*,#1067,.F.);
#1774 = ORIENTED_EDGE('',*,*,#1033,.T.);
#1775 = ORIENTED_EDGE('',*,*,#1509,.T.);
#1776 = PLANE('',#1777);
#1777 = AXIS2_PLACEMENT_3D('',#1778,#1779,#1780);
#1778 = CARTESIAN_POINT('',(36.,57.,7.5));
#1779 = DIRECTION('',(-0.828848674076,-0.559472855001,0.));
#1780 = DIRECTION('',(0.559472855001,-0.828848674076,0.));
#1781 = ADVANCED_FACE('',(#1782,#1793),#1796,.F.);
#1782 = FACE_BOUND('',#1783,.F.);
#1783 = EDGE_LOOP('',(#1784));
#1784 = ORIENTED_EDGE('',*,*,#1785,.F.);
#1785 = EDGE_CURVE('',#1786,#1786,#1788,.T.);
#1786 = VERTEX_POINT('',#1787);
#1787 = CARTESIAN_POINT('',(-27.5,-15.5,-2.5));
#1788 = CIRCLE('',#1789,2.5);
#1789 = AXIS2_PLACEMENT_3D('',#1790,#1791,#1792);
#1790 = CARTESIAN_POINT('',(-30.,-15.5,-2.5));
#1791 = DIRECTION('',(0.,0.,-1.));
#1792 = DIRECTION('',(1.,0.,0.));
#1793 = FACE_BOUND('',#1794,.F.);
#1794 = EDGE_LOOP('',(#1795));
#1795 = ORIENTED_EDGE('',*,*,#1130,.T.);
#1796 = PLANE('',#1797);
#1797 = AXIS2_PLACEMENT_3D('',#1798,#1799,#1800);
#1798 = CARTESIAN_POINT('',(5.5E-16,8.,-2.5));
#1799 = DIRECTION('',(0.,0.,1.));
#1800 = DIRECTION('',(1.,0.,0.));
#1801 = ADVANCED_FACE('',(#1802,#1813),#1816,.F.);
#1802 = FACE_BOUND('',#1803,.F.);
#1803 = EDGE_LOOP('',(#1804));
#1804 = ORIENTED_EDGE('',*,*,#1805,.F.);
#1805 = EDGE_CURVE('',#1806,#1806,#1808,.T.);
#1806 = VERTEX_POINT('',#1807);
#1807 = CARTESIAN_POINT('',(32.5,-15.5,-2.5));
#1808 = CIRCLE('',#1809,2.5);
#1809 = AXIS2_PLACEMENT_3D('',#1810,#1811,#1812);
#1810 = CARTESIAN_POINT('',(30.,-15.5,-2.5));
#1811 = DIRECTION('',(0.,0.,-1.));
#1812 = DIRECTION('',(1.,0.,0.));
#1813 = FACE_BOUND('',#1814,.F.);
#1814 = EDGE_LOOP('',(#1815));
#1815 = ORIENTED_EDGE('',*,*,#1155,.T.);
#1816 = PLANE('',#1817);
#1817 = AXIS2_PLACEMENT_3D('',#1818,#1819,#1820);
#1818 = CARTESIAN_POINT('',(5.5E-16,8.,-2.5));
#1819 = DIRECTION('',(0.,0.,1.));
#1820 = DIRECTION('',(1.,0.,0.));
#1821 = ADVANCED_FACE('',(#1822,#1833),#1836,.F.);
#1822 = FACE_BOUND('',#1823,.F.);
#1823 = EDGE_LOOP('',(#1824));
#1824 = ORIENTED_EDGE('',*,*,#1825,.F.);
#1825 = EDGE_CURVE('',#1826,#1826,#1828,.T.);
#1826 = VERTEX_POINT('',#1827);
#1827 = CARTESIAN_POINT('',(-27.5,31.5,-2.5));
#1828 = CIRCLE('',#1829,2.5);
#1829 = AXIS2_PLACEMENT_3D('',#1830,#1831,#1832);
#1830 = CARTESIAN_POINT('',(-30.,31.5,-2.5));
#1831 = DIRECTION('',(0.,0.,-1.));
#1832 = DIRECTION('',(1.,0.,0.));
#1833 = FACE_BOUND('',#1834,.F.);
#1834 = EDGE_LOOP('',(#1835));
#1835 = ORIENTED_EDGE('',*,*,#1180,.T.);
#1836 = PLANE('',#1837);
#1837 = AXIS2_PLACEMENT_3D('',#1838,#1839,#1840);
#1838 = CARTESIAN_POINT('',(5.5E-16,8.,-2.5));
#1839 = DIRECTION('',(0.,0.,1.));
#1840 = DIRECTION('',(1.,0.,0.));
#1841 = ADVANCED_FACE('',(#1842,#1853),#1856,.F.);
#1842 = FACE_BOUND('',#1843,.F.);
#1843 = EDGE_LOOP('',(#1844));
#1844 = ORIENTED_EDGE('',*,*,#1845,.F.);
#1845 = EDGE_CURVE('',#1846,#1846,#1848,.T.);
#1846 = VERTEX_POINT('',#1847);
#1847 = CARTESIAN_POINT('',(32.5,31.5,-2.5));
#1848 = CIRCLE('',#1849,2.5);
#1849 = AXIS2_PLACEMENT_3D('',#1850,#1851,#1852);
#1850 = CARTESIAN_POINT('',(30.,31.5,-2.5));
#1851 = DIRECTION('',(0.,0.,-1.));
#1852 = DIRECTION('',(1.,0.,0.));
#1853 = FACE_BOUND('',#1854,.F.);
#1854 = EDGE_LOOP('',(#1855));
#1855 = ORIENTED_EDGE('',*,*,#1230,.T.);
#1856 = PLANE('',#1857);
#1857 = AXIS2_PLACEMENT_3D('',#1858,#1859,#1860);
#1858 = CARTESIAN_POINT('',(5.5E-16,8.,-2.5));
#1859 = DIRECTION('',(0.,0.,1.));
#1860 = DIRECTION('',(1.,0.,0.));
#1861 = ADVANCED_FACE('',(#1862),#1881,.F.);
#1862 = FACE_BOUND('',#1863,.F.);
#1863 = EDGE_LOOP('',(#1864,#1872,#1879,#1880));
#1864 = ORIENTED_EDGE('',*,*,#1865,.T.);
#1865 = EDGE_CURVE('',#1553,#1866,#1868,.T.);
#1866 = VERTEX_POINT('',#1867);
#1867 = CARTESIAN_POINT('',(4.05,46.5,2.5));
#1868 = LINE('',#1869,#1870);
#1869 = CARTESIAN_POINT('',(4.05,46.5,-7.5));
#1870 = VECTOR('',#1871,1.);
#1871 = DIRECTION('',(0.,0.,1.));
#1872 = ORIENTED_EDGE('',*,*,#1873,.T.);
#1873 = EDGE_CURVE('',#1866,#1866,#1874,.T.);
#1874 = CIRCLE('',#1875,4.05);
#1875 = AXIS2_PLACEMENT_3D('',#1876,#1877,#1878);
#1876 = CARTESIAN_POINT('',(0.,46.5,2.5));
#1877 = DIRECTION('',(0.,0.,-1.));
#1878 = DIRECTION('',(1.,0.,0.));
#1879 = ORIENTED_EDGE('',*,*,#1865,.F.);
#1880 = ORIENTED_EDGE('',*,*,#1562,.F.);
#1881 = CYLINDRICAL_SURFACE('',#1882,4.05);
#1882 = AXIS2_PLACEMENT_3D('',#1883,#1884,#1885);
#1883 = CARTESIAN_POINT('',(0.,46.5,-7.5));
#1884 = DIRECTION('',(0.,0.,-1.));
#1885 = DIRECTION('',(1.,0.,0.));
#1886 = ADVANCED_FACE('',(#1887),#1898,.F.);
#1887 = FACE_BOUND('',#1888,.F.);
#1888 = EDGE_LOOP('',(#1889,#1895,#1896,#1897));
#1889 = ORIENTED_EDGE('',*,*,#1890,.T.);
#1890 = EDGE_CURVE('',#1612,#1846,#1891,.T.);
#1891 = LINE('',#1892,#1893);
#1892 = CARTESIAN_POINT('',(32.5,31.5,-7.5));
#1893 = VECTOR('',#1894,1.);
#1894 = DIRECTION('',(0.,0.,1.));
#1895 = ORIENTED_EDGE('',*,*,#1845,.T.);
#1896 = ORIENTED_EDGE('',*,*,#1890,.F.);
#1897 = ORIENTED_EDGE('',*,*,#1621,.F.);
#1898 = CYLINDRICAL_SURFACE('',#1899,2.5);
#1899 = AXIS2_PLACEMENT_3D('',#1900,#1901,#1902);
#1900 = CARTESIAN_POINT('',(30.,31.5,-7.5));
#1901 = DIRECTION('',(0.,0.,-1.));
#1902 = DIRECTION('',(1.,0.,0.));
#1903 = ADVANCED_FACE('',(#1904),#1915,.F.);
#1904 = FACE_BOUND('',#1905,.F.);
#1905 = EDGE_LOOP('',(#1906,#1912,#1913,#1914));
#1906 = ORIENTED_EDGE('',*,*,#1907,.T.);
#1907 = EDGE_CURVE('',#1637,#1826,#1908,.T.);
#1908 = LINE('',#1909,#1910);
#1909 = CARTESIAN_POINT('',(-27.5,31.5,-7.5));
#1910 = VECTOR('',#1911,1.);
#1911 = DIRECTION('',(0.,0.,1.));
#1912 = ORIENTED_EDGE('',*,*,#1825,.T.);
#1913 = ORIENTED_EDGE('',*,*,#1907,.F.);
#1914 = ORIENTED_EDGE('',*,*,#1646,.F.);
#1915 = CYLINDRICAL_SURFACE('',#1916,2.5);
#1916 = AXIS2_PLACEMENT_3D('',#1917,#1918,#1919);
#1917 = CARTESIAN_POINT('',(-30.,31.5,-7.5));
#1918 = DIRECTION('',(0.,0.,-1.));
#1919 = DIRECTION('',(1.,0.,0.));
#1920 = ADVANCED_FACE('',(#1921),#1932,.F.);
#1921 = FACE_BOUND('',#1922,.F.);
#1922 = EDGE_LOOP('',(#1923,#1929,#1930,#1931));
#1923 = ORIENTED_EDGE('',*,*,#1924,.T.);
#1924 = EDGE_CURVE('',#1662,#1806,#1925,.T.);
#1925 = LINE('',#1926,#1927);
#1926 = CARTESIAN_POINT('',(32.5,-15.5,-7.5));
#1927 = VECTOR('',#1928,1.);
#1928 = DIRECTION('',(0.,0.,1.));
#1929 = ORIENTED_EDGE('',*,*,#1805,.T.);
#1930 = ORIENTED_EDGE('',*,*,#1924,.F.);
#1931 = ORIENTED_EDGE('',*,*,#1671,.F.);
#1932 = CYLINDRICAL_SURFACE('',#1933,2.5);
#1933 = AXIS2_PLACEMENT_3D('',#1934,#1935,#1936);
#1934 = CARTESIAN_POINT('',(30.,-15.5,-7.5));
#1935 = DIRECTION('',(0.,0.,-1.));
#1936 = DIRECTION('',(1.,0.,0.));
#1937 = ADVANCED_FACE('',(#1938),#1949,.F.);
#1938 = FACE_BOUND('',#1939,.F.);
#1939 = EDGE_LOOP('',(#1940,#1946,#1947,#1948));
#1940 = ORIENTED_EDGE('',*,*,#1941,.T.);
#1941 = EDGE_CURVE('',#1687,#1786,#1942,.T.);
#1942 = LINE('',#1943,#1944);
#1943 = CARTESIAN_POINT('',(-27.5,-15.5,-7.5));
#1944 = VECTOR('',#1945,1.);
#1945 = DIRECTION('',(0.,0.,1.));
#1946 = ORIENTED_EDGE('',*,*,#1785,.T.);
#1947 = ORIENTED_EDGE('',*,*,#1941,.F.);
#1948 = ORIENTED_EDGE('',*,*,#1696,.F.);
#1949 = CYLINDRICAL_SURFACE('',#1950,2.5);
#1950 = AXIS2_PLACEMENT_3D('',#1951,#1952,#1953);
#1951 = CARTESIAN_POINT('',(-30.,-15.5,-7.5));
#1952 = DIRECTION('',(0.,0.,-1.));
#1953 = DIRECTION('',(1.,0.,0.));
#1954 = ADVANCED_FACE('',(#1955),#1974,.F.);
#1955 = FACE_BOUND('',#1956,.F.);
#1956 = EDGE_LOOP('',(#1957,#1965,#1972,#1973));
#1957 = ORIENTED_EDGE('',*,*,#1958,.T.);
#1958 = EDGE_CURVE('',#1712,#1959,#1961,.T.);
#1959 = VERTEX_POINT('',#1960);
#1960 = CARTESIAN_POINT('',(4.05,-16.5,2.5));
#1961 = LINE('',#1962,#1963);
#1962 = CARTESIAN_POINT('',(4.05,-16.5,-7.5));
#1963 = VECTOR('',#1964,1.);
#1964 = DIRECTION('',(0.,0.,1.));
#1965 = ORIENTED_EDGE('',*,*,#1966,.T.);
#1966 = EDGE_CURVE('',#1959,#1959,#1967,.T.);
#1967 = CIRCLE('',#1968,4.05);
#1968 = AXIS2_PLACEMENT_3D('',#1969,#1970,#1971);
#1969 = CARTESIAN_POINT('',(0.,-16.5,2.5));
#1970 = DIRECTION('',(0.,0.,-1.));
#1971 = DIRECTION('',(1.,0.,0.));
#1972 = ORIENTED_EDGE('',*,*,#1958,.F.);
#1973 = ORIENTED_EDGE('',*,*,#1721,.F.);
#1974 = CYLINDRICAL_SURFACE('',#1975,4.05);
#1975 = AXIS2_PLACEMENT_3D('',#1976,#1977,#1978);
#1976 = CARTESIAN_POINT('',(0.,-16.5,-7.5));
#1977 = DIRECTION('',(0.,0.,-1.));
#1978 = DIRECTION('',(1.,0.,0.));
#1979 = ADVANCED_FACE('',(#1980),#1999,.F.);
#1980 = FACE_BOUND('',#1981,.F.);
#1981 = EDGE_LOOP('',(#1982,#1990,#1997,#1998));
#1982 = ORIENTED_EDGE('',*,*,#1983,.T.);
#1983 = EDGE_CURVE('',#1737,#1984,#1986,.T.);
#1984 = VERTEX_POINT('',#1985);
#1985 = CARTESIAN_POINT('',(4.5,15.,2.5));
#1986 = LINE('',#1987,#1988);
#1987 = CARTESIAN_POINT('',(4.5,15.,-7.5));
#1988 = VECTOR('',#1989,1.);
#1989 = DIRECTION('',(0.,0.,1.));
#1990 = ORIENTED_EDGE('',*,*,#1991,.T.);
#1991 = EDGE_CURVE('',#1984,#1984,#1992,.T.);
#1992 = CIRCLE('',#1993,4.5);
#1993 = AXIS2_PLACEMENT_3D('',#1994,#1995,#1996);
#1994 = CARTESIAN_POINT('',(0.,15.,2.5));
#1995 = DIRECTION('',(0.,0.,-1.));
#1996 = DIRECTION('',(1.,0.,0.));
#1997 = ORIENTED_EDGE('',*,*,#1983,.F.);
#1998 = ORIENTED_EDGE('',*,*,#1746,.F.);
#1999 = CYLINDRICAL_SURFACE('',#2000,4.5);
#2000 = AXIS2_PLACEMENT_3D('',#2001,#2002,#2003);
#2001 = CARTESIAN_POINT('',(0.,15.,-7.5));
#2002 = DIRECTION('',(0.,0.,-1.));
#2003 = DIRECTION('',(1.,0.,0.));
#2004 = ADVANCED_FACE('',(#2005),#2008,.F.);
#2005 = FACE_BOUND('',#2006,.T.);
#2006 = EDGE_LOOP('',(#2007));
#2007 = ORIENTED_EDGE('',*,*,#1873,.T.);
#2008 = PLANE('',#2009);
#2009 = AXIS2_PLACEMENT_3D('',#2010,#2011,#2012);
#2010 = CARTESIAN_POINT('',(-2.2E-16,15.,2.5));
#2011 = DIRECTION('',(0.,0.,1.));
#2012 = DIRECTION('',(1.,0.,0.));
#2013 = ADVANCED_FACE('',(#2014),#2017,.F.);
#2014 = FACE_BOUND('',#2015,.T.);
#2015 = EDGE_LOOP('',(#2016));
#2016 = ORIENTED_EDGE('',*,*,#1966,.T.);
#2017 = PLANE('',#2018);
#2018 = AXIS2_PLACEMENT_3D('',#2019,#2020,#2021);
#2019 = CARTESIAN_POINT('',(-2.2E-16,15.,2.5));
#2020 = DIRECTION('',(0.,0.,1.));
#2021 = DIRECTION('',(1.,0.,0.));
#2022 = ADVANCED_FACE('',(#2023),#2026,.F.);
#2023 = FACE_BOUND('',#2024,.T.);
#2024 = EDGE_LOOP('',(#2025));
#2025 = ORIENTED_EDGE('',*,*,#1991,.T.);
#2026 = PLANE('',#2027);
#2027 = AXIS2_PLACEMENT_3D('',#2028,#2029,#2030);
#2028 = CARTESIAN_POINT('',(-2.2E-16,15.,2.5));
#2029 = DIRECTION('',(0.,0.,1.));
#2030 = DIRECTION('',(1.,0.,0.));
#2031 = ( GEOMETRIC_REPRESENTATION_CONTEXT(3) 
GLOBAL_UNCERTAINTY_ASSIGNED_CONTEXT((#2035)) 
GLOBAL_UNIT_ASSIGNED_CONTEXT((#2032,#2033,#2034)) REPRESENTATION_CONTEXT
('Context #1','3D Context with UNIT and UNCERTAINTY') );
#2032 = ( LENGTH_UNIT() NAMED_UNIT(*) SI_UNIT(.MILLI.,.METRE.) );
#2033 = ( NAMED_UNIT(*) PLANE_ANGLE_UNIT() SI_UNIT($,.RADIAN.) );
#2034 = ( NAMED_UNIT(*) SI_UNIT($,.STERADIAN.) SOLID_ANGLE_UNIT() );
#2035 = UNCERTAINTY_MEASURE_WITH_UNIT(LENGTH_MEASURE(1.E-07),#2032,
  'distance_accuracy_value','confusion accuracy');
#2036 = PRODUCT_RELATED_PRODUCT_CATEGORY('part',$,(#7));
ENDSEC;
END-ISO-10303-21;
