ISO-10303-21;
HEADER;
FILE_DESCRIPTION(('FreeCAD Model'),'2;1');
FILE_NAME('Open CASCADE Shape Model','2026-09-06T12:30:38',('FreeCAD'),(
    'FreeCAD'),'Open CASCADE STEP processor 7.8','FreeCAD','Unknown');
FILE_SCHEMA(('AUTOMOTIVE_DESIGN { 1 0 10303 214 1 1 1 1 }'));
ENDSEC;
DATA;
#1 = APPLICATION_PROTOCOL_DEFINITION('international standard',
  'automotive_design',2000,#2);
#2 = APPLICATION_CONTEXT(
  'core data for automotive mechanical design processes');
#3 = SHAPE_DEFINITION_REPRESENTATION(#4,#10);
#4 = PRODUCT_DEFINITION_SHAPE('','',#5);
#5 = PRODUCT_DEFINITION('design','',#6,#9);
#6 = PRODUCT_DEFINITION_FORMATION('','',#7);
#7 = PRODUCT('Open CASCADE STEP translator 7.8 240',
  'Open CASCADE STEP translator 7.8 240','',(#8));
#8 = PRODUCT_CONTEXT('',#2,'mechanical');
#9 = PRODUCT_DEFINITION_CONTEXT('part definition',#2,'design');
#10 = ADVANCED_BREP_SHAPE_REPRESENTATION('',(#11,#15),#742);
#11 = AXIS2_PLACEMENT_3D('',#12,#13,#14);
#12 = CARTESIAN_POINT('',(0.,0.,0.));
#13 = DIRECTION('',(0.,0.,1.));
#14 = DIRECTION('',(1.,0.,-0.));
#15 = MANIFOLD_SOLID_BREP('',#16);
#16 = CLOSED_SHELL('',(#17,#102,#127,#158,#182,#207,#231,#255,#279,#304,
    #321,#346,#377,#401,#450,#474,#498,#522,#580,#597,#617,#642,#705,
    #723,#732));
#17 = ADVANCED_FACE('',(#18,#29),#97,.T.);
#18 = FACE_BOUND('',#19,.T.);
#19 = EDGE_LOOP('',(#20));
#20 = ORIENTED_EDGE('',*,*,#21,.F.);
#21 = EDGE_CURVE('',#22,#22,#24,.T.);
#22 = VERTEX_POINT('',#23);
#23 = CARTESIAN_POINT('',(2.95,-5.,3.500000000049));
#24 = CIRCLE('',#25,2.95);
#25 = AXIS2_PLACEMENT_3D('',#26,#27,#28);
#26 = CARTESIAN_POINT('',(0.,-5.,3.500000000049));
#27 = DIRECTION('',(0.,-1.,0.));
#28 = DIRECTION('',(1.,0.,0.));
#29 = FACE_BOUND('',#30,.T.);
#30 = EDGE_LOOP('',(#31,#41,#49,#57,#65,#73,#82,#90));
#31 = ORIENTED_EDGE('',*,*,#32,.F.);
#32 = EDGE_CURVE('',#33,#35,#37,.T.);
#33 = VERTEX_POINT('',#34);
#34 = CARTESIAN_POINT('',(14.085786437676,-5.,3.));
#35 = VERTEX_POINT('',#36);
#36 = CARTESIAN_POINT('',(23.499999965,-5.,3.));
#37 = LINE('',#38,#39);
#38 = CARTESIAN_POINT('',(14.500000000049,-5.,3.));
#39 = VECTOR('',#40,1.);
#40 = DIRECTION('',(1.,0.,0.));
#41 = ORIENTED_EDGE('',*,*,#42,.T.);
#42 = EDGE_CURVE('',#33,#43,#45,.T.);
#43 = VERTEX_POINT('',#44);
#44 = CARTESIAN_POINT('',(7.085786437627,-5.,10.000000000049));
#45 = LINE('',#46,#47);
#46 = CARTESIAN_POINT('',(13.792893218863,-5.,3.292893218813));
#47 = VECTOR('',#48,1.);
#48 = DIRECTION('',(-0.707106781187,1.6E-16,0.707106781187));
#49 = ORIENTED_EDGE('',*,*,#50,.T.);
#50 = EDGE_CURVE('',#43,#51,#53,.T.);
#51 = VERTEX_POINT('',#52);
#52 = CARTESIAN_POINT('',(-7.085786437627,-5.,10.000000000049));
#53 = LINE('',#54,#55);
#54 = CARTESIAN_POINT('',(7.5,-5.,10.000000000049));
#55 = VECTOR('',#56,1.);
#56 = DIRECTION('',(-1.,0.,0.));
#57 = ORIENTED_EDGE('',*,*,#58,.T.);
#58 = EDGE_CURVE('',#51,#59,#61,.T.);
#59 = VERTEX_POINT('',#60);
#60 = CARTESIAN_POINT('',(-14.08578643767,-5.,3.));
#61 = LINE('',#62,#63);
#62 = CARTESIAN_POINT('',(-6.792893218813,-5.,10.292893218863));
#63 = VECTOR('',#64,1.);
#64 = DIRECTION('',(-0.707106781187,-1.6E-16,-0.707106781187));
#65 = ORIENTED_EDGE('',*,*,#66,.F.);
#66 = EDGE_CURVE('',#67,#59,#69,.T.);
#67 = VERTEX_POINT('',#68);
#68 = CARTESIAN_POINT('',(-23.5,-5.,3.));
#69 = LINE('',#70,#71);
#70 = CARTESIAN_POINT('',(-23.5,-5.,3.));
#71 = VECTOR('',#72,1.);
#72 = DIRECTION('',(1.,0.,0.));
#73 = ORIENTED_EDGE('',*,*,#74,.F.);
#74 = EDGE_CURVE('',#75,#67,#77,.T.);
#75 = VERTEX_POINT('',#76);
#76 = CARTESIAN_POINT('',(-23.49998015669,-5.,-2.999999999951));
#77 = CIRCLE('',#78,3.);
#78 = AXIS2_PLACEMENT_3D('',#79,#80,#81);
#79 = CARTESIAN_POINT('',(-23.5,-5.,0.));
#80 = DIRECTION('',(0.,1.,0.));
#81 = DIRECTION('',(4.96082527235E-06,0.,-0.999999999988));
#82 = ORIENTED_EDGE('',*,*,#83,.F.);
#83 = EDGE_CURVE('',#84,#75,#86,.T.);
#84 = VERTEX_POINT('',#85);
#85 = CARTESIAN_POINT('',(23.500014411014,-5.,-2.999999999965));
#86 = LINE('',#87,#88);
#87 = CARTESIAN_POINT('',(23.500019214686,-5.,-2.999999999951));
#88 = VECTOR('',#89,1.);
#89 = DIRECTION('',(-1.,-0.,-0.));
#90 = ORIENTED_EDGE('',*,*,#91,.F.);
#91 = EDGE_CURVE('',#35,#84,#92,.T.);
#92 = CIRCLE('',#93,3.);
#93 = AXIS2_PLACEMENT_3D('',#94,#95,#96);
#94 = CARTESIAN_POINT('',(23.5,-5.,0.));
#95 = DIRECTION('',(0.,1.,-0.));
#96 = DIRECTION('',(-8.74999095E-09,0.,1.));
#97 = PLANE('',#98);
#98 = AXIS2_PLACEMENT_3D('',#99,#100,#101);
#99 = CARTESIAN_POINT('',(1.202557633E-06,-5.,1.595266849233));
#100 = DIRECTION('',(-0.,-1.,-0.));
#101 = DIRECTION('',(0.,0.,-1.));
#102 = ADVANCED_FACE('',(#103),#122,.F.);
#103 = FACE_BOUND('',#104,.T.);
#104 = EDGE_LOOP('',(#105,#113,#114,#115));
#105 = ORIENTED_EDGE('',*,*,#106,.F.);
#106 = EDGE_CURVE('',#22,#107,#109,.T.);
#107 = VERTEX_POINT('',#108);
#108 = CARTESIAN_POINT('',(1.5,-3.2,3.500000000049));
#109 = LINE('',#110,#111);
#110 = CARTESIAN_POINT('',(1.5,-3.2,3.500000000049));
#111 = VECTOR('',#112,1.);
#112 = DIRECTION('',(-0.627329537873,0.778753909083,1.9E-16));
#113 = ORIENTED_EDGE('',*,*,#21,.T.);
#114 = ORIENTED_EDGE('',*,*,#106,.T.);
#115 = ORIENTED_EDGE('',*,*,#116,.F.);
#116 = EDGE_CURVE('',#107,#107,#117,.T.);
#117 = CIRCLE('',#118,1.5);
#118 = AXIS2_PLACEMENT_3D('',#119,#120,#121);
#119 = CARTESIAN_POINT('',(0.,-3.2,3.500000000049));
#120 = DIRECTION('',(0.,-1.,0.));
#121 = DIRECTION('',(1.,0.,0.));
#122 = CONICAL_SURFACE('',#123,1.5,0.678119307749);
#123 = AXIS2_PLACEMENT_3D('',#124,#125,#126);
#124 = CARTESIAN_POINT('',(0.,-3.2,3.500000000049));
#125 = DIRECTION('',(-0.,-1.,-0.));
#126 = DIRECTION('',(1.,0.,0.));
#127 = ADVANCED_FACE('',(#128),#153,.T.);
#128 = FACE_BOUND('',#129,.T.);
#129 = EDGE_LOOP('',(#130,#138,#139,#147));
#130 = ORIENTED_EDGE('',*,*,#131,.F.);
#131 = EDGE_CURVE('',#33,#132,#134,.T.);
#132 = VERTEX_POINT('',#133);
#133 = CARTESIAN_POINT('',(14.500000000049,-4.,4.));
#134 = LINE('',#135,#136);
#135 = CARTESIAN_POINT('',(14.309256430219,-4.46049571322,3.53950428678)
  );
#136 = VECTOR('',#137,1.);
#137 = DIRECTION('',(0.281084637715,0.678598344546,0.678598344546));
#138 = ORIENTED_EDGE('',*,*,#32,.T.);
#139 = ORIENTED_EDGE('',*,*,#140,.T.);
#140 = EDGE_CURVE('',#35,#141,#143,.T.);
#141 = VERTEX_POINT('',#142);
#142 = CARTESIAN_POINT('',(23.499999965,-4.,4.));
#143 = LINE('',#144,#145);
#144 = CARTESIAN_POINT('',(23.499999965,-4.5,3.5));
#145 = VECTOR('',#146,1.);
#146 = DIRECTION('',(0.,0.707106781187,0.707106781187));
#147 = ORIENTED_EDGE('',*,*,#148,.F.);
#148 = EDGE_CURVE('',#132,#141,#149,.T.);
#149 = LINE('',#150,#151);
#150 = CARTESIAN_POINT('',(14.500000000049,-4.,4.));
#151 = VECTOR('',#152,1.);
#152 = DIRECTION('',(1.,0.,0.));
#153 = PLANE('',#154);
#154 = AXIS2_PLACEMENT_3D('',#155,#156,#157);
#155 = CARTESIAN_POINT('',(14.500000000049,-4.5,3.5));
#156 = DIRECTION('',(0.,-0.707106781187,0.707106781187));
#157 = DIRECTION('',(1.,0.,0.));
#158 = ADVANCED_FACE('',(#159),#177,.T.);
#159 = FACE_BOUND('',#160,.F.);
#160 = EDGE_LOOP('',(#161,#162,#163,#171));
#161 = ORIENTED_EDGE('',*,*,#131,.F.);
#162 = ORIENTED_EDGE('',*,*,#42,.T.);
#163 = ORIENTED_EDGE('',*,*,#164,.T.);
#164 = EDGE_CURVE('',#43,#165,#167,.T.);
#165 = VERTEX_POINT('',#166);
#166 = CARTESIAN_POINT('',(7.5,-4.,11.000000000049));
#167 = LINE('',#168,#169);
#168 = CARTESIAN_POINT('',(6.918183943217,-5.404628215091,9.595371784958
    ));
#169 = VECTOR('',#170,1.);
#170 = DIRECTION('',(0.281084637715,0.678598344546,0.678598344546));
#171 = ORIENTED_EDGE('',*,*,#172,.F.);
#172 = EDGE_CURVE('',#132,#165,#173,.T.);
#173 = LINE('',#174,#175);
#174 = CARTESIAN_POINT('',(14.500000000049,-4.,4.));
#175 = VECTOR('',#176,1.);
#176 = DIRECTION('',(-0.707106781187,1.6E-16,0.707106781187));
#177 = PLANE('',#178);
#178 = AXIS2_PLACEMENT_3D('',#179,#180,#181);
#179 = CARTESIAN_POINT('',(14.146446609456,-4.5,3.646446609407));
#180 = DIRECTION('',(0.5,-0.707106781187,0.5));
#181 = DIRECTION('',(0.707106781187,-5.551115123126E-17,-0.707106781187)
  );
#182 = ADVANCED_FACE('',(#183),#202,.T.);
#183 = FACE_BOUND('',#184,.T.);
#184 = EDGE_LOOP('',(#185,#186,#187,#195));
#185 = ORIENTED_EDGE('',*,*,#140,.F.);
#186 = ORIENTED_EDGE('',*,*,#91,.T.);
#187 = ORIENTED_EDGE('',*,*,#188,.T.);
#188 = EDGE_CURVE('',#84,#189,#191,.T.);
#189 = VERTEX_POINT('',#190);
#190 = CARTESIAN_POINT('',(23.500019214686,-4.,-3.999999999954));
#191 = LINE('',#192,#193);
#192 = CARTESIAN_POINT('',(23.500019214686,-4.,-3.999999999954));
#193 = VECTOR('',#194,1.);
#194 = DIRECTION('',(3.39670869084E-06,0.707106781187,-0.707106781178));
#195 = ORIENTED_EDGE('',*,*,#196,.F.);
#196 = EDGE_CURVE('',#141,#189,#197,.T.);
#197 = CIRCLE('',#198,4.);
#198 = AXIS2_PLACEMENT_3D('',#199,#200,#201);
#199 = CARTESIAN_POINT('',(23.5,-4.,0.));
#200 = DIRECTION('',(0.,1.,-0.));
#201 = DIRECTION('',(-8.74999095E-09,0.,1.));
#202 = CONICAL_SURFACE('',#203,4.,0.785398163397);
#203 = AXIS2_PLACEMENT_3D('',#204,#205,#206);
#204 = CARTESIAN_POINT('',(23.5,-4.,0.));
#205 = DIRECTION('',(0.,1.,0.));
#206 = DIRECTION('',(-8.74999095E-09,0.,1.));
#207 = ADVANCED_FACE('',(#208),#226,.T.);
#208 = FACE_BOUND('',#209,.F.);
#209 = EDGE_LOOP('',(#210,#211,#212,#220));
#210 = ORIENTED_EDGE('',*,*,#164,.F.);
#211 = ORIENTED_EDGE('',*,*,#50,.T.);
#212 = ORIENTED_EDGE('',*,*,#213,.T.);
#213 = EDGE_CURVE('',#51,#214,#216,.T.);
#214 = VERTEX_POINT('',#215);
#215 = CARTESIAN_POINT('',(-7.5,-4.,11.000000000049));
#216 = LINE('',#217,#218);
#217 = CARTESIAN_POINT('',(-6.716692128475,-5.891072486949,9.1089275131)
  );
#218 = VECTOR('',#219,1.);
#219 = DIRECTION('',(-0.281084637715,0.678598344546,0.678598344546));
#220 = ORIENTED_EDGE('',*,*,#221,.F.);
#221 = EDGE_CURVE('',#165,#214,#222,.T.);
#222 = LINE('',#223,#224);
#223 = CARTESIAN_POINT('',(7.5,-4.,11.000000000049));
#224 = VECTOR('',#225,1.);
#225 = DIRECTION('',(-1.,0.,0.));
#226 = PLANE('',#227);
#227 = AXIS2_PLACEMENT_3D('',#228,#229,#230);
#228 = CARTESIAN_POINT('',(7.5,-4.5,10.500000000049));
#229 = DIRECTION('',(0.,-0.707106781187,0.707106781187));
#230 = DIRECTION('',(1.,0.,0.));
#231 = ADVANCED_FACE('',(#232),#250,.T.);
#232 = FACE_BOUND('',#233,.T.);
#233 = EDGE_LOOP('',(#234,#235,#236,#244));
#234 = ORIENTED_EDGE('',*,*,#188,.F.);
#235 = ORIENTED_EDGE('',*,*,#83,.T.);
#236 = ORIENTED_EDGE('',*,*,#237,.T.);
#237 = EDGE_CURVE('',#75,#238,#240,.T.);
#238 = VERTEX_POINT('',#239);
#239 = CARTESIAN_POINT('',(-23.49998015669,-4.,-3.999999999951));
#240 = LINE('',#241,#242);
#241 = CARTESIAN_POINT('',(-23.49998015669,-4.5,-3.499999999951));
#242 = VECTOR('',#243,1.);
#243 = DIRECTION('',(0.,0.707106781187,-0.707106781187));
#244 = ORIENTED_EDGE('',*,*,#245,.F.);
#245 = EDGE_CURVE('',#189,#238,#246,.T.);
#246 = LINE('',#247,#248);
#247 = CARTESIAN_POINT('',(23.500019214686,-4.,-3.999999999951));
#248 = VECTOR('',#249,1.);
#249 = DIRECTION('',(-1.,-0.,-0.));
#250 = PLANE('',#251);
#251 = AXIS2_PLACEMENT_3D('',#252,#253,#254);
#252 = CARTESIAN_POINT('',(23.500019214686,-4.5,-3.499999999951));
#253 = DIRECTION('',(-4.77E-15,-0.707106781187,-0.707106781187));
#254 = DIRECTION('',(-1.,3.37289934626E-15,3.37289934626E-15));
#255 = ADVANCED_FACE('',(#256),#274,.T.);
#256 = FACE_BOUND('',#257,.F.);
#257 = EDGE_LOOP('',(#258,#259,#260,#268));
#258 = ORIENTED_EDGE('',*,*,#213,.F.);
#259 = ORIENTED_EDGE('',*,*,#58,.T.);
#260 = ORIENTED_EDGE('',*,*,#261,.T.);
#261 = EDGE_CURVE('',#59,#262,#264,.T.);
#262 = VERTEX_POINT('',#263);
#263 = CARTESIAN_POINT('',(-14.50000000004,-4.,4.));
#264 = LINE('',#265,#266);
#265 = CARTESIAN_POINT('',(-15.05586749818,-2.658017147117,
    5.341982852883));
#266 = VECTOR('',#267,1.);
#267 = DIRECTION('',(-0.281084637715,0.678598344546,0.678598344546));
#268 = ORIENTED_EDGE('',*,*,#269,.F.);
#269 = EDGE_CURVE('',#214,#262,#270,.T.);
#270 = LINE('',#271,#272);
#271 = CARTESIAN_POINT('',(-7.5,-4.,11.000000000049));
#272 = VECTOR('',#273,1.);
#273 = DIRECTION('',(-0.707106781187,-1.6E-16,-0.707106781187));
#274 = PLANE('',#275);
#275 = AXIS2_PLACEMENT_3D('',#276,#277,#278);
#276 = CARTESIAN_POINT('',(-7.146446609407,-4.5,10.646446609456));
#277 = DIRECTION('',(-0.5,-0.707106781187,0.5));
#278 = DIRECTION('',(0.707106781187,0.,0.707106781187));
#279 = ADVANCED_FACE('',(#280),#299,.T.);
#280 = FACE_BOUND('',#281,.T.);
#281 = EDGE_LOOP('',(#282,#283,#284,#292));
#282 = ORIENTED_EDGE('',*,*,#237,.F.);
#283 = ORIENTED_EDGE('',*,*,#74,.T.);
#284 = ORIENTED_EDGE('',*,*,#285,.T.);
#285 = EDGE_CURVE('',#67,#286,#288,.T.);
#286 = VERTEX_POINT('',#287);
#287 = CARTESIAN_POINT('',(-23.5,-4.,4.));
#288 = LINE('',#289,#290);
#289 = CARTESIAN_POINT('',(-23.5,-4.,4.));
#290 = VECTOR('',#291,1.);
#291 = DIRECTION('',(-7.3E-16,0.707106781187,0.707106781187));
#292 = ORIENTED_EDGE('',*,*,#293,.F.);
#293 = EDGE_CURVE('',#238,#286,#294,.T.);
#294 = CIRCLE('',#295,4.);
#295 = AXIS2_PLACEMENT_3D('',#296,#297,#298);
#296 = CARTESIAN_POINT('',(-23.5,-4.,0.));
#297 = DIRECTION('',(0.,1.,0.));
#298 = DIRECTION('',(4.96082527235E-06,0.,-0.999999999988));
#299 = CONICAL_SURFACE('',#300,4.,0.785398163397);
#300 = AXIS2_PLACEMENT_3D('',#301,#302,#303);
#301 = CARTESIAN_POINT('',(-23.5,-4.,0.));
#302 = DIRECTION('',(0.,1.,0.));
#303 = DIRECTION('',(4.96082527235E-06,0.,-0.999999999988));
#304 = ADVANCED_FACE('',(#305),#316,.T.);
#305 = FACE_BOUND('',#306,.T.);
#306 = EDGE_LOOP('',(#307,#308,#309,#310));
#307 = ORIENTED_EDGE('',*,*,#285,.F.);
#308 = ORIENTED_EDGE('',*,*,#66,.T.);
#309 = ORIENTED_EDGE('',*,*,#261,.T.);
#310 = ORIENTED_EDGE('',*,*,#311,.F.);
#311 = EDGE_CURVE('',#286,#262,#312,.T.);
#312 = LINE('',#313,#314);
#313 = CARTESIAN_POINT('',(-23.5,-4.,4.));
#314 = VECTOR('',#315,1.);
#315 = DIRECTION('',(1.,0.,0.));
#316 = PLANE('',#317);
#317 = AXIS2_PLACEMENT_3D('',#318,#319,#320);
#318 = CARTESIAN_POINT('',(-23.5,-4.5,3.5));
#319 = DIRECTION('',(0.,-0.707106781187,0.707106781187));
#320 = DIRECTION('',(1.,0.,0.));
#321 = ADVANCED_FACE('',(#322),#341,.F.);
#322 = FACE_BOUND('',#323,.F.);
#323 = EDGE_LOOP('',(#324,#332,#333,#334));
#324 = ORIENTED_EDGE('',*,*,#325,.F.);
#325 = EDGE_CURVE('',#107,#326,#328,.T.);
#326 = VERTEX_POINT('',#327);
#327 = CARTESIAN_POINT('',(1.5,1.E-15,3.500000000049));
#328 = LINE('',#329,#330);
#329 = CARTESIAN_POINT('',(1.5,-5.,3.500000000049));
#330 = VECTOR('',#331,1.);
#331 = DIRECTION('',(0.,1.,-2.2E-16));
#332 = ORIENTED_EDGE('',*,*,#116,.F.);
#333 = ORIENTED_EDGE('',*,*,#325,.T.);
#334 = ORIENTED_EDGE('',*,*,#335,.T.);
#335 = EDGE_CURVE('',#326,#326,#336,.T.);
#336 = CIRCLE('',#337,1.5);
#337 = AXIS2_PLACEMENT_3D('',#338,#339,#340);
#338 = CARTESIAN_POINT('',(0.,8.9E-16,3.500000000049));
#339 = DIRECTION('',(0.,-1.,2.2E-16));
#340 = DIRECTION('',(1.,0.,0.));
#341 = CYLINDRICAL_SURFACE('',#342,1.5);
#342 = AXIS2_PLACEMENT_3D('',#343,#344,#345);
#343 = CARTESIAN_POINT('',(0.,-5.,3.500000000049));
#344 = DIRECTION('',(0.,-1.,2.2E-16));
#345 = DIRECTION('',(1.,0.,0.));
#346 = ADVANCED_FACE('',(#347),#372,.T.);
#347 = FACE_BOUND('',#348,.T.);
#348 = EDGE_LOOP('',(#349,#357,#365,#371));
#349 = ORIENTED_EDGE('',*,*,#350,.F.);
#350 = EDGE_CURVE('',#351,#141,#353,.T.);
#351 = VERTEX_POINT('',#352);
#352 = CARTESIAN_POINT('',(23.499999965,0.,4.));
#353 = LINE('',#354,#355);
#354 = CARTESIAN_POINT('',(23.499999965,8.9E-16,4.));
#355 = VECTOR('',#356,1.);
#356 = DIRECTION('',(0.,-1.,2.2E-16));
#357 = ORIENTED_EDGE('',*,*,#358,.F.);
#358 = EDGE_CURVE('',#359,#351,#361,.T.);
#359 = VERTEX_POINT('',#360);
#360 = CARTESIAN_POINT('',(14.500000000049,2.E-15,4.));
#361 = LINE('',#362,#363);
#362 = CARTESIAN_POINT('',(-23.5,0.,4.));
#363 = VECTOR('',#364,1.);
#364 = DIRECTION('',(1.,0.,0.));
#365 = ORIENTED_EDGE('',*,*,#366,.F.);
#366 = EDGE_CURVE('',#132,#359,#367,.T.);
#367 = LINE('',#368,#369);
#368 = CARTESIAN_POINT('',(14.500000000049,-5.,4.));
#369 = VECTOR('',#370,1.);
#370 = DIRECTION('',(0.,1.,-2.2E-16));
#371 = ORIENTED_EDGE('',*,*,#148,.T.);
#372 = PLANE('',#373);
#373 = AXIS2_PLACEMENT_3D('',#374,#375,#376);
#374 = CARTESIAN_POINT('',(-23.5,8.9E-16,4.));
#375 = DIRECTION('',(0.,2.2E-16,1.));
#376 = DIRECTION('',(1.,0.,0.));
#377 = ADVANCED_FACE('',(#378),#396,.T.);
#378 = FACE_BOUND('',#379,.T.);
#379 = EDGE_LOOP('',(#380,#381,#389,#395));
#380 = ORIENTED_EDGE('',*,*,#366,.T.);
#381 = ORIENTED_EDGE('',*,*,#382,.T.);
#382 = EDGE_CURVE('',#359,#383,#385,.T.);
#383 = VERTEX_POINT('',#384);
#384 = CARTESIAN_POINT('',(7.5,3.E-15,11.000000000049));
#385 = LINE('',#386,#387);
#386 = CARTESIAN_POINT('',(14.500000000049,8.881784197001E-16,4.));
#387 = VECTOR('',#388,1.);
#388 = DIRECTION('',(-0.707106781187,0.,0.707106781187));
#389 = ORIENTED_EDGE('',*,*,#390,.F.);
#390 = EDGE_CURVE('',#165,#383,#391,.T.);
#391 = LINE('',#392,#393);
#392 = CARTESIAN_POINT('',(7.5,-5.,11.000000000049));
#393 = VECTOR('',#394,1.);
#394 = DIRECTION('',(0.,1.,-2.2E-16));
#395 = ORIENTED_EDGE('',*,*,#172,.F.);
#396 = PLANE('',#397);
#397 = AXIS2_PLACEMENT_3D('',#398,#399,#400);
#398 = CARTESIAN_POINT('',(14.500000000049,-5.,4.));
#399 = DIRECTION('',(0.707106781187,1.6E-16,0.707106781187));
#400 = DIRECTION('',(-0.707106781187,1.6E-16,0.707106781187));
#401 = ADVANCED_FACE('',(#402),#445,.T.);
#402 = FACE_BOUND('',#403,.F.);
#403 = EDGE_LOOP('',(#404,#412,#413,#414,#423,#430,#437,#438));
#404 = ORIENTED_EDGE('',*,*,#405,.T.);
#405 = EDGE_CURVE('',#406,#189,#408,.T.);
#406 = VERTEX_POINT('',#407);
#407 = CARTESIAN_POINT('',(23.500019214686,0.,-3.999999999952));
#408 = LINE('',#409,#410);
#409 = CARTESIAN_POINT('',(23.500019214686,-8.9E-16,-3.999999999952));
#410 = VECTOR('',#411,1.);
#411 = DIRECTION('',(0.,-1.,2.2E-16));
#412 = ORIENTED_EDGE('',*,*,#196,.F.);
#413 = ORIENTED_EDGE('',*,*,#350,.F.);
#414 = ORIENTED_EDGE('',*,*,#415,.F.);
#415 = EDGE_CURVE('',#416,#351,#418,.T.);
#416 = VERTEX_POINT('',#417);
#417 = CARTESIAN_POINT('',(19.5,0.,0.));
#418 = CIRCLE('',#419,4.);
#419 = AXIS2_PLACEMENT_3D('',#420,#421,#422);
#420 = CARTESIAN_POINT('',(23.5,0.,0.));
#421 = DIRECTION('',(0.,1.,-2.2E-16));
#422 = DIRECTION('',(-1.,0.,0.));
#423 = ORIENTED_EDGE('',*,*,#424,.T.);
#424 = EDGE_CURVE('',#416,#425,#427,.T.);
#425 = VERTEX_POINT('',#426);
#426 = CARTESIAN_POINT('',(19.5,4.9,-1.E-15));
#427 = B_SPLINE_CURVE_WITH_KNOTS('',1,(#428,#429),.UNSPECIFIED.,.F.,.F.,
  (2,2),(-0.,5.9),.PIECEWISE_BEZIER_KNOTS.);
#428 = CARTESIAN_POINT('',(19.5,0.,4.9E-16));
#429 = CARTESIAN_POINT('',(19.5,5.9,-8.1E-16));
#430 = ORIENTED_EDGE('',*,*,#431,.T.);
#431 = EDGE_CURVE('',#425,#425,#432,.T.);
#432 = CIRCLE('',#433,4.);
#433 = AXIS2_PLACEMENT_3D('',#434,#435,#436);
#434 = CARTESIAN_POINT('',(23.5,4.9,0.));
#435 = DIRECTION('',(0.,1.,0.));
#436 = DIRECTION('',(-1.,0.,-3.3E-16));
#437 = ORIENTED_EDGE('',*,*,#424,.F.);
#438 = ORIENTED_EDGE('',*,*,#439,.F.);
#439 = EDGE_CURVE('',#406,#416,#440,.T.);
#440 = CIRCLE('',#441,4.);
#441 = AXIS2_PLACEMENT_3D('',#442,#443,#444);
#442 = CARTESIAN_POINT('',(23.5,0.,0.));
#443 = DIRECTION('',(0.,1.,-2.2E-16));
#444 = DIRECTION('',(-1.,0.,0.));
#445 = CYLINDRICAL_SURFACE('',#446,4.);
#446 = AXIS2_PLACEMENT_3D('',#447,#448,#449);
#447 = CARTESIAN_POINT('',(23.5,0.,0.));
#448 = DIRECTION('',(0.,1.,-2.2E-16));
#449 = DIRECTION('',(1.,0.,0.));
#450 = ADVANCED_FACE('',(#451),#469,.T.);
#451 = FACE_BOUND('',#452,.T.);
#452 = EDGE_LOOP('',(#453,#454,#462,#468));
#453 = ORIENTED_EDGE('',*,*,#390,.T.);
#454 = ORIENTED_EDGE('',*,*,#455,.T.);
#455 = EDGE_CURVE('',#383,#456,#458,.T.);
#456 = VERTEX_POINT('',#457);
#457 = CARTESIAN_POINT('',(-7.5,3.E-15,11.000000000049));
#458 = LINE('',#459,#460);
#459 = CARTESIAN_POINT('',(7.5,0.,11.000000000049));
#460 = VECTOR('',#461,1.);
#461 = DIRECTION('',(-1.,0.,0.));
#462 = ORIENTED_EDGE('',*,*,#463,.F.);
#463 = EDGE_CURVE('',#214,#456,#464,.T.);
#464 = LINE('',#465,#466);
#465 = CARTESIAN_POINT('',(-7.5,-5.,11.000000000049));
#466 = VECTOR('',#467,1.);
#467 = DIRECTION('',(0.,1.,-2.2E-16));
#468 = ORIENTED_EDGE('',*,*,#221,.F.);
#469 = PLANE('',#470);
#470 = AXIS2_PLACEMENT_3D('',#471,#472,#473);
#471 = CARTESIAN_POINT('',(7.5,-5.,11.000000000049));
#472 = DIRECTION('',(0.,2.2E-16,1.));
#473 = DIRECTION('',(-1.,0.,0.));
#474 = ADVANCED_FACE('',(#475),#493,.T.);
#475 = FACE_BOUND('',#476,.T.);
#476 = EDGE_LOOP('',(#477,#478,#479,#487));
#477 = ORIENTED_EDGE('',*,*,#405,.T.);
#478 = ORIENTED_EDGE('',*,*,#245,.T.);
#479 = ORIENTED_EDGE('',*,*,#480,.F.);
#480 = EDGE_CURVE('',#481,#238,#483,.T.);
#481 = VERTEX_POINT('',#482);
#482 = CARTESIAN_POINT('',(-23.49998015669,0.,-3.999999999951));
#483 = LINE('',#484,#485);
#484 = CARTESIAN_POINT('',(-23.49998015669,-8.9E-16,-3.999999999951));
#485 = VECTOR('',#486,1.);
#486 = DIRECTION('',(0.,-1.,2.2E-16));
#487 = ORIENTED_EDGE('',*,*,#488,.T.);
#488 = EDGE_CURVE('',#481,#406,#489,.T.);
#489 = LINE('',#490,#491);
#490 = CARTESIAN_POINT('',(-23.49998015669,0.,-3.999999999951));
#491 = VECTOR('',#492,1.);
#492 = DIRECTION('',(1.,0.,0.));
#493 = PLANE('',#494);
#494 = AXIS2_PLACEMENT_3D('',#495,#496,#497);
#495 = CARTESIAN_POINT('',(1.952899354048E-05,-2.5,-3.999999999951));
#496 = DIRECTION('',(-6.76E-15,-0.,-1.));
#497 = DIRECTION('',(-1.,0.,6.76E-15));
#498 = ADVANCED_FACE('',(#499),#517,.T.);
#499 = FACE_BOUND('',#500,.T.);
#500 = EDGE_LOOP('',(#501,#502,#510,#516));
#501 = ORIENTED_EDGE('',*,*,#463,.T.);
#502 = ORIENTED_EDGE('',*,*,#503,.T.);
#503 = EDGE_CURVE('',#456,#504,#506,.T.);
#504 = VERTEX_POINT('',#505);
#505 = CARTESIAN_POINT('',(-14.50000000004,2.E-15,4.));
#506 = LINE('',#507,#508);
#507 = CARTESIAN_POINT('',(-7.5,8.881784197001E-16,11.000000000049));
#508 = VECTOR('',#509,1.);
#509 = DIRECTION('',(-0.707106781187,-0.,-0.707106781187));
#510 = ORIENTED_EDGE('',*,*,#511,.F.);
#511 = EDGE_CURVE('',#262,#504,#512,.T.);
#512 = LINE('',#513,#514);
#513 = CARTESIAN_POINT('',(-14.50000000004,-5.,4.));
#514 = VECTOR('',#515,1.);
#515 = DIRECTION('',(0.,1.,-2.2E-16));
#516 = ORIENTED_EDGE('',*,*,#269,.F.);
#517 = PLANE('',#518);
#518 = AXIS2_PLACEMENT_3D('',#519,#520,#521);
#519 = CARTESIAN_POINT('',(-7.5,-5.,11.000000000049));
#520 = DIRECTION('',(-0.707106781187,1.6E-16,0.707106781187));
#521 = DIRECTION('',(-0.707106781187,-1.6E-16,-0.707106781187));
#522 = ADVANCED_FACE('',(#523),#575,.T.);
#523 = FACE_BOUND('',#524,.F.);
#524 = EDGE_LOOP('',(#525,#533,#534,#535,#542,#551,#567,#568));
#525 = ORIENTED_EDGE('',*,*,#526,.T.);
#526 = EDGE_CURVE('',#527,#286,#529,.T.);
#527 = VERTEX_POINT('',#528);
#528 = CARTESIAN_POINT('',(-23.5,0.,4.));
#529 = LINE('',#530,#531);
#530 = CARTESIAN_POINT('',(-23.5,8.9E-16,4.));
#531 = VECTOR('',#532,1.);
#532 = DIRECTION('',(0.,-1.,2.2E-16));
#533 = ORIENTED_EDGE('',*,*,#293,.F.);
#534 = ORIENTED_EDGE('',*,*,#480,.F.);
#535 = ORIENTED_EDGE('',*,*,#536,.T.);
#536 = EDGE_CURVE('',#481,#537,#539,.T.);
#537 = VERTEX_POINT('',#538);
#538 = CARTESIAN_POINT('',(-23.49998015669,4.9,-3.999999999951));
#539 = B_SPLINE_CURVE_WITH_KNOTS('',1,(#540,#541),.UNSPECIFIED.,.F.,.F.,
  (2,2),(-1.E-17,5.9),.PIECEWISE_BEZIER_KNOTS.);
#540 = CARTESIAN_POINT('',(-23.49998015669,-8.9E-16,-3.999999999951));
#541 = CARTESIAN_POINT('',(-23.49998015669,5.9,-3.999999999951));
#542 = ORIENTED_EDGE('',*,*,#543,.T.);
#543 = EDGE_CURVE('',#537,#544,#546,.T.);
#544 = VERTEX_POINT('',#545);
#545 = CARTESIAN_POINT('',(-27.5,4.9,0.));
#546 = CIRCLE('',#547,4.);
#547 = AXIS2_PLACEMENT_3D('',#548,#549,#550);
#548 = CARTESIAN_POINT('',(-23.5,4.9,0.));
#549 = DIRECTION('',(0.,1.,0.));
#550 = DIRECTION('',(4.96082527235E-06,0.,-0.999999999988));
#551 = ORIENTED_EDGE('',*,*,#552,.T.);
#552 = EDGE_CURVE('',#544,#537,#553,.T.);
#553 = B_SPLINE_CURVE_WITH_KNOTS('',12,(#554,#555,#556,#557,#558,#559,
    #560,#561,#562,#563,#564,#565,#566),.UNSPECIFIED.,.F.,.F.,(13,13),(
    25.132741228718,43.982277306956),.PIECEWISE_BEZIER_KNOTS.);
#554 = CARTESIAN_POINT('',(-27.5,4.9,3.9E-16));
#555 = CARTESIAN_POINT('',(-27.49999999999,4.9,1.566227545751));
#556 = CARTESIAN_POINT('',(-26.83084464114,4.900000000001,3.140761042069
    ));
#557 = CARTESIAN_POINT('',(-25.48215438091,4.899999999998,4.400114665586
    ));
#558 = CARTESIAN_POINT('',(-23.61915368545,4.900000000002,5.012478177352
    ));
#559 = CARTESIAN_POINT('',(-21.61521098339,4.899999999998,4.775476714512
    ));
#560 = CARTESIAN_POINT('',(-19.81830668576,4.9,3.681711578558));
#561 = CARTESIAN_POINT('',(-18.72453263561,4.900000000001,1.884812706848
    ));
#562 = CARTESIAN_POINT('',(-18.48752123163,4.899999999999,
    -0.119128819392));
#563 = CARTESIAN_POINT('',(-19.09987550133,4.900000000001,
    -1.982132552706));
#564 = CARTESIAN_POINT('',(-20.35922243423,4.9,-3.330829060328));
#565 = CARTESIAN_POINT('',(-21.93375261096,4.9,-3.99999223017));
#566 = CARTESIAN_POINT('',(-23.49998015669,4.9,-3.999999999951));
#567 = ORIENTED_EDGE('',*,*,#536,.F.);
#568 = ORIENTED_EDGE('',*,*,#569,.F.);
#569 = EDGE_CURVE('',#527,#481,#570,.T.);
#570 = CIRCLE('',#571,4.);
#571 = AXIS2_PLACEMENT_3D('',#572,#573,#574);
#572 = CARTESIAN_POINT('',(-23.5,0.,0.));
#573 = DIRECTION('',(0.,1.,-2.2E-16));
#574 = DIRECTION('',(-1.,0.,0.));
#575 = CYLINDRICAL_SURFACE('',#576,4.);
#576 = AXIS2_PLACEMENT_3D('',#577,#578,#579);
#577 = CARTESIAN_POINT('',(-23.5,0.,0.));
#578 = DIRECTION('',(0.,1.,-2.2E-16));
#579 = DIRECTION('',(1.,0.,0.));
#580 = ADVANCED_FACE('',(#581),#592,.T.);
#581 = FACE_BOUND('',#582,.T.);
#582 = EDGE_LOOP('',(#583,#584,#590,#591));
#583 = ORIENTED_EDGE('',*,*,#511,.T.);
#584 = ORIENTED_EDGE('',*,*,#585,.F.);
#585 = EDGE_CURVE('',#527,#504,#586,.T.);
#586 = LINE('',#587,#588);
#587 = CARTESIAN_POINT('',(-23.5,0.,4.));
#588 = VECTOR('',#589,1.);
#589 = DIRECTION('',(1.,0.,0.));
#590 = ORIENTED_EDGE('',*,*,#526,.T.);
#591 = ORIENTED_EDGE('',*,*,#311,.T.);
#592 = PLANE('',#593);
#593 = AXIS2_PLACEMENT_3D('',#594,#595,#596);
#594 = CARTESIAN_POINT('',(-23.5,8.9E-16,4.));
#595 = DIRECTION('',(0.,2.2E-16,1.));
#596 = DIRECTION('',(1.,0.,0.));
#597 = ADVANCED_FACE('',(#598,#609),#612,.T.);
#598 = FACE_BOUND('',#599,.T.);
#599 = EDGE_LOOP('',(#600,#601,#602,#603,#604,#605,#606,#607,#608));
#600 = ORIENTED_EDGE('',*,*,#569,.F.);
#601 = ORIENTED_EDGE('',*,*,#585,.T.);
#602 = ORIENTED_EDGE('',*,*,#503,.F.);
#603 = ORIENTED_EDGE('',*,*,#455,.F.);
#604 = ORIENTED_EDGE('',*,*,#382,.F.);
#605 = ORIENTED_EDGE('',*,*,#358,.T.);
#606 = ORIENTED_EDGE('',*,*,#415,.F.);
#607 = ORIENTED_EDGE('',*,*,#439,.F.);
#608 = ORIENTED_EDGE('',*,*,#488,.F.);
#609 = FACE_BOUND('',#610,.T.);
#610 = EDGE_LOOP('',(#611));
#611 = ORIENTED_EDGE('',*,*,#335,.T.);
#612 = PLANE('',#613);
#613 = AXIS2_PLACEMENT_3D('',#614,#615,#616);
#614 = CARTESIAN_POINT('',(5.436094714963E-02,7.E-16,1.589830623133));
#615 = DIRECTION('',(0.,1.,0.));
#616 = DIRECTION('',(0.,0.,1.));
#617 = ADVANCED_FACE('',(#618),#637,.T.);
#618 = FACE_BOUND('',#619,.T.);
#619 = EDGE_LOOP('',(#620,#628,#629,#630));
#620 = ORIENTED_EDGE('',*,*,#621,.F.);
#621 = EDGE_CURVE('',#425,#622,#624,.T.);
#622 = VERTEX_POINT('',#623);
#623 = CARTESIAN_POINT('',(20.5,5.9,-1.E-15));
#624 = LINE('',#625,#626);
#625 = CARTESIAN_POINT('',(19.5,4.9,-1.31E-15));
#626 = VECTOR('',#627,1.);
#627 = DIRECTION('',(0.707106781187,0.707106781187,2.3E-16));
#628 = ORIENTED_EDGE('',*,*,#431,.T.);
#629 = ORIENTED_EDGE('',*,*,#621,.T.);
#630 = ORIENTED_EDGE('',*,*,#631,.F.);
#631 = EDGE_CURVE('',#622,#622,#632,.T.);
#632 = CIRCLE('',#633,3.);
#633 = AXIS2_PLACEMENT_3D('',#634,#635,#636);
#634 = CARTESIAN_POINT('',(23.5,5.9,0.));
#635 = DIRECTION('',(0.,1.,0.));
#636 = DIRECTION('',(-1.,0.,-3.3E-16));
#637 = CONICAL_SURFACE('',#638,4.,0.785398163397);
#638 = AXIS2_PLACEMENT_3D('',#639,#640,#641);
#639 = CARTESIAN_POINT('',(23.5,4.9,0.));
#640 = DIRECTION('',(-0.,-1.,-0.));
#641 = DIRECTION('',(-1.,0.,-3.3E-16));
#642 = ADVANCED_FACE('',(#643),#678,.F.);
#643 = FACE_BOUND('',#644,.F.);
#644 = EDGE_LOOP('',(#645,#653,#671,#677));
#645 = ORIENTED_EDGE('',*,*,#646,.T.);
#646 = EDGE_CURVE('',#544,#647,#649,.T.);
#647 = VERTEX_POINT('',#648);
#648 = CARTESIAN_POINT('',(-26.5,5.9,0.));
#649 = LINE('',#650,#651);
#650 = CARTESIAN_POINT('',(-27.5,4.9,-3.3E-16));
#651 = VECTOR('',#652,1.);
#652 = DIRECTION('',(0.707106781187,0.707106781187,6.E-17));
#653 = ORIENTED_EDGE('',*,*,#654,.T.);
#654 = EDGE_CURVE('',#647,#655,#657,.T.);
#655 = VERTEX_POINT('',#656);
#656 = CARTESIAN_POINT('',(-23.49998511752,5.9,-2.999999999963));
#657 = B_SPLINE_CURVE_WITH_KNOTS('',12,(#658,#659,#660,#661,#662,#663,
    #664,#665,#666,#667,#668,#669,#670),.UNSPECIFIED.,.F.,.F.,(13,13),(
    25.132741228718,43.982277306956),.PIECEWISE_BEZIER_KNOTS.);
#658 = CARTESIAN_POINT('',(-26.5,5.9,-2.4E-16));
#659 = CARTESIAN_POINT('',(-26.49999999999,5.899999999999,1.174670659313
    ));
#660 = CARTESIAN_POINT('',(-25.99813348085,5.900000000003,2.355570781553
    ));
#661 = CARTESIAN_POINT('',(-24.98661578568,5.899999999992,3.300085999188
    ));
#662 = CARTESIAN_POINT('',(-23.58936526409,5.900000000014,3.759358633016
    ));
#663 = CARTESIAN_POINT('',(-22.08640823754,5.899999999982,3.581607535882
    ));
#664 = CARTESIAN_POINT('',(-20.73873001432,5.90000000002,2.761283683919)
  );
#665 = CARTESIAN_POINT('',(-19.91839947671,5.899999999983,1.413609530135
    ));
#666 = CARTESIAN_POINT('',(-19.74064092372,5.900000000012,
    -8.934661454296E-02));
#667 = CARTESIAN_POINT('',(-20.199906626,5.899999999994,-1.48659941453)
  );
#668 = CARTESIAN_POINT('',(-21.14441682567,5.900000000002,
    -2.498121795246));
#669 = CARTESIAN_POINT('',(-22.32531445822,5.899999999999,
    -2.999994172627));
#670 = CARTESIAN_POINT('',(-23.49998511752,5.9,-2.999999999963));
#671 = ORIENTED_EDGE('',*,*,#672,.F.);
#672 = EDGE_CURVE('',#537,#655,#673,.T.);
#673 = LINE('',#674,#675);
#674 = CARTESIAN_POINT('',(-23.49998015669,4.9,-3.999999999951));
#675 = VECTOR('',#676,1.);
#676 = DIRECTION('',(-3.50783319036E-06,0.707106781187,0.707106781178));
#677 = ORIENTED_EDGE('',*,*,#552,.F.);
#678 = B_SPLINE_SURFACE_WITH_KNOTS('',1,12,(
    (#679,#680,#681,#682,#683,#684,#685,#686,#687,#688,#689,#690,#691)
    ,(#692,#693,#694,#695,#696,#697,#698,#699,#700,#701,#702,#703,#704
  )),.UNSPECIFIED.,.F.,.F.,.F.,(2,2),(13,13),(0.,18.849536078238),(
    25.132741228718,43.982277306956),.PIECEWISE_BEZIER_KNOTS.);
#679 = CARTESIAN_POINT('',(-27.5,4.9,3.9E-16));
#680 = CARTESIAN_POINT('',(-27.49999999999,4.9,1.566227545751));
#681 = CARTESIAN_POINT('',(-26.83084464114,4.900000000001,3.140761042069
    ));
#682 = CARTESIAN_POINT('',(-25.48215438091,4.899999999998,4.400114665586
    ));
#683 = CARTESIAN_POINT('',(-23.61915368545,4.900000000002,5.012478177352
    ));
#684 = CARTESIAN_POINT('',(-21.61521098339,4.899999999998,4.775476714512
    ));
#685 = CARTESIAN_POINT('',(-19.81830668576,4.9,3.681711578558));
#686 = CARTESIAN_POINT('',(-18.72453263561,4.900000000001,1.884812706848
    ));
#687 = CARTESIAN_POINT('',(-18.48752123163,4.899999999999,
    -0.119128819392));
#688 = CARTESIAN_POINT('',(-19.09987550133,4.900000000001,
    -1.982132552706));
#689 = CARTESIAN_POINT('',(-20.35922243423,4.9,-3.330829060328));
#690 = CARTESIAN_POINT('',(-21.93375261096,4.9,-3.99999223017));
#691 = CARTESIAN_POINT('',(-23.49998015669,4.9,-3.999999999951));
#692 = CARTESIAN_POINT('',(-26.5,5.9,-2.4E-16));
#693 = CARTESIAN_POINT('',(-26.49999999999,5.899999999999,1.174670659313
    ));
#694 = CARTESIAN_POINT('',(-25.99813348085,5.900000000003,2.355570781553
    ));
#695 = CARTESIAN_POINT('',(-24.98661578568,5.899999999992,3.300085999188
    ));
#696 = CARTESIAN_POINT('',(-23.58936526409,5.900000000014,3.759358633016
    ));
#697 = CARTESIAN_POINT('',(-22.08640823754,5.899999999982,3.581607535882
    ));
#698 = CARTESIAN_POINT('',(-20.73873001432,5.90000000002,2.761283683919)
  );
#699 = CARTESIAN_POINT('',(-19.91839947671,5.899999999983,1.413609530135
    ));
#700 = CARTESIAN_POINT('',(-19.74064092372,5.900000000012,
    -8.934661454296E-02));
#701 = CARTESIAN_POINT('',(-20.199906626,5.899999999994,-1.48659941453)
  );
#702 = CARTESIAN_POINT('',(-21.14441682567,5.900000000002,
    -2.498121795246));
#703 = CARTESIAN_POINT('',(-22.32531445822,5.899999999999,
    -2.999994172627));
#704 = CARTESIAN_POINT('',(-23.49998511752,5.9,-2.999999999963));
#705 = ADVANCED_FACE('',(#706),#718,.T.);
#706 = FACE_BOUND('',#707,.T.);
#707 = EDGE_LOOP('',(#708,#709,#710,#711));
#708 = ORIENTED_EDGE('',*,*,#672,.F.);
#709 = ORIENTED_EDGE('',*,*,#543,.T.);
#710 = ORIENTED_EDGE('',*,*,#646,.T.);
#711 = ORIENTED_EDGE('',*,*,#712,.F.);
#712 = EDGE_CURVE('',#655,#647,#713,.T.);
#713 = CIRCLE('',#714,3.);
#714 = AXIS2_PLACEMENT_3D('',#715,#716,#717);
#715 = CARTESIAN_POINT('',(-23.5,5.9,0.));
#716 = DIRECTION('',(0.,1.,0.));
#717 = DIRECTION('',(4.96082527235E-06,0.,-0.999999999988));
#718 = CONICAL_SURFACE('',#719,4.,0.785398163397);
#719 = AXIS2_PLACEMENT_3D('',#720,#721,#722);
#720 = CARTESIAN_POINT('',(-23.5,4.9,0.));
#721 = DIRECTION('',(-0.,-1.,-0.));
#722 = DIRECTION('',(4.96082527235E-06,0.,-0.999999999988));
#723 = ADVANCED_FACE('',(#724),#727,.T.);
#724 = FACE_BOUND('',#725,.T.);
#725 = EDGE_LOOP('',(#726));
#726 = ORIENTED_EDGE('',*,*,#631,.T.);
#727 = PLANE('',#728);
#728 = AXIS2_PLACEMENT_3D('',#729,#730,#731);
#729 = CARTESIAN_POINT('',(-3.4E-16,5.9,-6.5E-16));
#730 = DIRECTION('',(0.,1.,0.));
#731 = DIRECTION('',(0.,0.,1.));
#732 = ADVANCED_FACE('',(#733),#737,.T.);
#733 = FACE_BOUND('',#734,.T.);
#734 = EDGE_LOOP('',(#735,#736));
#735 = ORIENTED_EDGE('',*,*,#712,.T.);
#736 = ORIENTED_EDGE('',*,*,#654,.T.);
#737 = PLANE('',#738);
#738 = AXIS2_PLACEMENT_3D('',#739,#740,#741);
#739 = CARTESIAN_POINT('',(-3.4E-16,5.9,-6.5E-16));
#740 = DIRECTION('',(0.,1.,0.));
#741 = DIRECTION('',(0.,0.,1.));
#742 = ( GEOMETRIC_REPRESENTATION_CONTEXT(3) 
GLOBAL_UNCERTAINTY_ASSIGNED_CONTEXT((#746)) GLOBAL_UNIT_ASSIGNED_CONTEXT
((#743,#744,#745)) REPRESENTATION_CONTEXT('Context #1',
  '3D Context with UNIT and UNCERTAINTY') );
#743 = ( LENGTH_UNIT() NAMED_UNIT(*) SI_UNIT(.MILLI.,.METRE.) );
#744 = ( NAMED_UNIT(*) PLANE_ANGLE_UNIT() SI_UNIT($,.RADIAN.) );
#745 = ( NAMED_UNIT(*) SI_UNIT($,.STERADIAN.) SOLID_ANGLE_UNIT() );
#746 = UNCERTAINTY_MEASURE_WITH_UNIT(LENGTH_MEASURE(5.E-06),#743,
  'distance_accuracy_value','confusion accuracy');
#747 = PRODUCT_RELATED_PRODUCT_CATEGORY('part',$,(#7));
ENDSEC;
END-ISO-10303-21;
