ISO-10303-21;
HEADER;
FILE_DESCRIPTION(('FreeCAD Model'),'2;1');
FILE_NAME('Open CASCADE Shape Model','2026-09-06T12:30:34',('FreeCAD'),(
    'FreeCAD'),'Open CASCADE STEP processor 7.8','FreeCAD','Unknown');
FILE_SCHEMA(('AUTOMOTIVE_DESIGN { 1 0 10303 214 1 1 1 1 }'));
ENDSEC;
DATA;
#1 = APPLICATION_PROTOCOL_DEFINITION('international standard',
  'automotive_design',2000,#2);
#2 = APPLICATION_CONTEXT(
  'core data for automotive mechanical design processes');
#3 = SHAPE_DEFINITION_REPRESENTATION(#4,#10);
#4 = PRODUCT_DEFINITION_SHAPE('','',#5);
#5 = PRODUCT_DEFINITION('design','',#6,#9);
#6 = PRODUCT_DEFINITION_FORMATION('','',#7);
#7 = PRODUCT('Open CASCADE STEP translator 7.8 229',
  'Open CASCADE STEP translator 7.8 229','',(#8));
#8 = PRODUCT_CONTEXT('',#2,'mechanical');
#9 = PRODUCT_DEFINITION_CONTEXT('part definition',#2,'design');
#10 = ADVANCED_BREP_SHAPE_REPRESENTATION('',(#11,#15),#713);
#11 = AXIS2_PLACEMENT_3D('',#12,#13,#14);
#12 = CARTESIAN_POINT('',(0.,0.,0.));
#13 = DIRECTION('',(0.,0.,1.));
#14 = DIRECTION('',(1.,0.,-0.));
#15 = MANIFOLD_SOLID_BREP('',#16);
#16 = CLOSED_SHELL('',(#17,#79,#104,#129,#160,#191,#222,#253,#278,#303,
    #319,#350,#366,#382,#445,#508,#524,#555,#587,#619,#631,#643,#655,
    #672,#689,#701));
#17 = ADVANCED_FACE('',(#18,#29,#40),#74,.T.);
#18 = FACE_BOUND('',#19,.T.);
#19 = EDGE_LOOP('',(#20));
#20 = ORIENTED_EDGE('',*,*,#21,.T.);
#21 = EDGE_CURVE('',#22,#22,#24,.T.);
#22 = VERTEX_POINT('',#23);
#23 = CARTESIAN_POINT('',(2.95,-12.5,17.));
#24 = CIRCLE('',#25,2.95);
#25 = AXIS2_PLACEMENT_3D('',#26,#27,#28);
#26 = CARTESIAN_POINT('',(0.,-12.5,17.));
#27 = DIRECTION('',(0.,0.,-1.));
#28 = DIRECTION('',(1.,0.,0.));
#29 = FACE_BOUND('',#30,.T.);
#30 = EDGE_LOOP('',(#31));
#31 = ORIENTED_EDGE('',*,*,#32,.T.);
#32 = EDGE_CURVE('',#33,#33,#35,.T.);
#33 = VERTEX_POINT('',#34);
#34 = CARTESIAN_POINT('',(2.95,12.5,17.));
#35 = CIRCLE('',#36,2.95);
#36 = AXIS2_PLACEMENT_3D('',#37,#38,#39);
#37 = CARTESIAN_POINT('',(0.,12.5,17.));
#38 = DIRECTION('',(0.,0.,-1.));
#39 = DIRECTION('',(1.,0.,0.));
#40 = FACE_BOUND('',#41,.T.);
#41 = EDGE_LOOP('',(#42,#52,#60,#68));
#42 = ORIENTED_EDGE('',*,*,#43,.F.);
#43 = EDGE_CURVE('',#44,#46,#48,.T.);
#44 = VERTEX_POINT('',#45);
#45 = CARTESIAN_POINT('',(-5.5,18.,17.));
#46 = VERTEX_POINT('',#47);
#47 = CARTESIAN_POINT('',(5.5,18.,17.));
#48 = LINE('',#49,#50);
#49 = CARTESIAN_POINT('',(-6.5,18.,17.));
#50 = VECTOR('',#51,1.);
#51 = DIRECTION('',(1.,0.,0.));
#52 = ORIENTED_EDGE('',*,*,#53,.F.);
#53 = EDGE_CURVE('',#54,#44,#56,.T.);
#54 = VERTEX_POINT('',#55);
#55 = CARTESIAN_POINT('',(-5.5,-18.,17.));
#56 = LINE('',#57,#58);
#57 = CARTESIAN_POINT('',(-5.5,-19.,17.));
#58 = VECTOR('',#59,1.);
#59 = DIRECTION('',(0.,1.,0.));
#60 = ORIENTED_EDGE('',*,*,#61,.F.);
#61 = EDGE_CURVE('',#62,#54,#64,.T.);
#62 = VERTEX_POINT('',#63);
#63 = CARTESIAN_POINT('',(5.5,-18.,17.));
#64 = LINE('',#65,#66);
#65 = CARTESIAN_POINT('',(6.5,-18.,17.));
#66 = VECTOR('',#67,1.);
#67 = DIRECTION('',(-1.,0.,0.));
#68 = ORIENTED_EDGE('',*,*,#69,.F.);
#69 = EDGE_CURVE('',#46,#62,#70,.T.);
#70 = LINE('',#71,#72);
#71 = CARTESIAN_POINT('',(5.5,19.,17.));
#72 = VECTOR('',#73,1.);
#73 = DIRECTION('',(0.,-1.,0.));
#74 = PLANE('',#75);
#75 = AXIS2_PLACEMENT_3D('',#76,#77,#78);
#76 = CARTESIAN_POINT('',(0.,0.,17.));
#77 = DIRECTION('',(0.,0.,1.));
#78 = DIRECTION('',(1.,0.,0.));
#79 = ADVANCED_FACE('',(#80),#99,.F.);
#80 = FACE_BOUND('',#81,.F.);
#81 = EDGE_LOOP('',(#82,#90,#91,#92));
#82 = ORIENTED_EDGE('',*,*,#83,.F.);
#83 = EDGE_CURVE('',#22,#84,#86,.T.);
#84 = VERTEX_POINT('',#85);
#85 = CARTESIAN_POINT('',(1.5,-12.5,15.2));
#86 = LINE('',#87,#88);
#87 = CARTESIAN_POINT('',(1.5,-12.5,15.2));
#88 = VECTOR('',#89,1.);
#89 = DIRECTION('',(-0.627329537873,0.,-0.778753909083));
#90 = ORIENTED_EDGE('',*,*,#21,.T.);
#91 = ORIENTED_EDGE('',*,*,#83,.T.);
#92 = ORIENTED_EDGE('',*,*,#93,.F.);
#93 = EDGE_CURVE('',#84,#84,#94,.T.);
#94 = CIRCLE('',#95,1.5);
#95 = AXIS2_PLACEMENT_3D('',#96,#97,#98);
#96 = CARTESIAN_POINT('',(0.,-12.5,15.2));
#97 = DIRECTION('',(0.,0.,-1.));
#98 = DIRECTION('',(1.,0.,0.));
#99 = CONICAL_SURFACE('',#100,1.5,0.678119307749);
#100 = AXIS2_PLACEMENT_3D('',#101,#102,#103);
#101 = CARTESIAN_POINT('',(0.,-12.5,15.2));
#102 = DIRECTION('',(0.,0.,1.));
#103 = DIRECTION('',(1.,0.,0.));
#104 = ADVANCED_FACE('',(#105),#124,.F.);
#105 = FACE_BOUND('',#106,.F.);
#106 = EDGE_LOOP('',(#107,#115,#116,#117));
#107 = ORIENTED_EDGE('',*,*,#108,.F.);
#108 = EDGE_CURVE('',#33,#109,#111,.T.);
#109 = VERTEX_POINT('',#110);
#110 = CARTESIAN_POINT('',(1.5,12.5,15.2));
#111 = LINE('',#112,#113);
#112 = CARTESIAN_POINT('',(1.5,12.5,15.2));
#113 = VECTOR('',#114,1.);
#114 = DIRECTION('',(-0.627329537873,0.,-0.778753909083));
#115 = ORIENTED_EDGE('',*,*,#32,.T.);
#116 = ORIENTED_EDGE('',*,*,#108,.T.);
#117 = ORIENTED_EDGE('',*,*,#118,.F.);
#118 = EDGE_CURVE('',#109,#109,#119,.T.);
#119 = CIRCLE('',#120,1.5);
#120 = AXIS2_PLACEMENT_3D('',#121,#122,#123);
#121 = CARTESIAN_POINT('',(0.,12.5,15.2));
#122 = DIRECTION('',(0.,0.,-1.));
#123 = DIRECTION('',(1.,0.,0.));
#124 = CONICAL_SURFACE('',#125,1.5,0.678119307749);
#125 = AXIS2_PLACEMENT_3D('',#126,#127,#128);
#126 = CARTESIAN_POINT('',(0.,12.5,15.2));
#127 = DIRECTION('',(0.,0.,1.));
#128 = DIRECTION('',(1.,0.,0.));
#129 = ADVANCED_FACE('',(#130),#155,.T.);
#130 = FACE_BOUND('',#131,.T.);
#131 = EDGE_LOOP('',(#132,#140,#141,#149));
#132 = ORIENTED_EDGE('',*,*,#133,.F.);
#133 = EDGE_CURVE('',#44,#134,#136,.T.);
#134 = VERTEX_POINT('',#135);
#135 = CARTESIAN_POINT('',(-5.5,19.,16.));
#136 = LINE('',#137,#138);
#137 = CARTESIAN_POINT('',(-5.5,18.25,16.75));
#138 = VECTOR('',#139,1.);
#139 = DIRECTION('',(-1.922962686384E-15,0.707106781187,-0.707106781187)
  );
#140 = ORIENTED_EDGE('',*,*,#43,.T.);
#141 = ORIENTED_EDGE('',*,*,#142,.T.);
#142 = EDGE_CURVE('',#46,#143,#145,.T.);
#143 = VERTEX_POINT('',#144);
#144 = CARTESIAN_POINT('',(5.5,19.,16.));
#145 = LINE('',#146,#147);
#146 = CARTESIAN_POINT('',(5.5,18.25,16.75));
#147 = VECTOR('',#148,1.);
#148 = DIRECTION('',(1.346073880468E-15,0.707106781187,-0.707106781187)
  );
#149 = ORIENTED_EDGE('',*,*,#150,.F.);
#150 = EDGE_CURVE('',#134,#143,#151,.T.);
#151 = LINE('',#152,#153);
#152 = CARTESIAN_POINT('',(-6.5,19.,16.));
#153 = VECTOR('',#154,1.);
#154 = DIRECTION('',(1.,0.,0.));
#155 = PLANE('',#156);
#156 = AXIS2_PLACEMENT_3D('',#157,#158,#159);
#157 = CARTESIAN_POINT('',(-6.5,18.5,16.5));
#158 = DIRECTION('',(0.,0.707106781187,0.707106781187));
#159 = DIRECTION('',(1.,0.,0.));
#160 = ADVANCED_FACE('',(#161),#186,.T.);
#161 = FACE_BOUND('',#162,.T.);
#162 = EDGE_LOOP('',(#163,#164,#172,#180));
#163 = ORIENTED_EDGE('',*,*,#53,.T.);
#164 = ORIENTED_EDGE('',*,*,#165,.T.);
#165 = EDGE_CURVE('',#44,#166,#168,.T.);
#166 = VERTEX_POINT('',#167);
#167 = CARTESIAN_POINT('',(-6.5,18.,16.));
#168 = LINE('',#169,#170);
#169 = CARTESIAN_POINT('',(-5.75,18.,16.75));
#170 = VECTOR('',#171,1.);
#171 = DIRECTION('',(-0.707106781187,1.249925746149E-15,-0.707106781187)
  );
#172 = ORIENTED_EDGE('',*,*,#173,.F.);
#173 = EDGE_CURVE('',#174,#166,#176,.T.);
#174 = VERTEX_POINT('',#175);
#175 = CARTESIAN_POINT('',(-6.5,-18.,16.));
#176 = LINE('',#177,#178);
#177 = CARTESIAN_POINT('',(-6.5,-19.,16.));
#178 = VECTOR('',#179,1.);
#179 = DIRECTION('',(0.,1.,0.));
#180 = ORIENTED_EDGE('',*,*,#181,.F.);
#181 = EDGE_CURVE('',#54,#174,#182,.T.);
#182 = LINE('',#183,#184);
#183 = CARTESIAN_POINT('',(-6.,-18.,16.5));
#184 = VECTOR('',#185,1.);
#185 = DIRECTION('',(-0.707106781187,-1.346073880468E-15,-0.707106781187
    ));
#186 = PLANE('',#187);
#187 = AXIS2_PLACEMENT_3D('',#188,#189,#190);
#188 = CARTESIAN_POINT('',(-6.,-19.,16.5));
#189 = DIRECTION('',(-0.707106781187,0.,0.707106781187));
#190 = DIRECTION('',(0.,1.,0.));
#191 = ADVANCED_FACE('',(#192),#217,.T.);
#192 = FACE_BOUND('',#193,.F.);
#193 = EDGE_LOOP('',(#194,#202,#210,#216));
#194 = ORIENTED_EDGE('',*,*,#195,.T.);
#195 = EDGE_CURVE('',#46,#196,#198,.T.);
#196 = VERTEX_POINT('',#197);
#197 = CARTESIAN_POINT('',(6.5,18.,16.));
#198 = LINE('',#199,#200);
#199 = CARTESIAN_POINT('',(5.75,18.,16.75));
#200 = VECTOR('',#201,1.);
#201 = DIRECTION('',(0.707106781187,1.346073880468E-15,-0.707106781187)
  );
#202 = ORIENTED_EDGE('',*,*,#203,.T.);
#203 = EDGE_CURVE('',#196,#204,#206,.T.);
#204 = VERTEX_POINT('',#205);
#205 = CARTESIAN_POINT('',(6.5,-18.,16.));
#206 = LINE('',#207,#208);
#207 = CARTESIAN_POINT('',(6.5,19.,16.));
#208 = VECTOR('',#209,1.);
#209 = DIRECTION('',(0.,-1.,0.));
#210 = ORIENTED_EDGE('',*,*,#211,.F.);
#211 = EDGE_CURVE('',#62,#204,#212,.T.);
#212 = LINE('',#213,#214);
#213 = CARTESIAN_POINT('',(6.,-18.,16.5));
#214 = VECTOR('',#215,1.);
#215 = DIRECTION('',(0.707106781187,-1.249925746149E-15,-0.707106781187)
  );
#216 = ORIENTED_EDGE('',*,*,#69,.F.);
#217 = PLANE('',#218);
#218 = AXIS2_PLACEMENT_3D('',#219,#220,#221);
#219 = CARTESIAN_POINT('',(6.,19.,16.5));
#220 = DIRECTION('',(0.707106781187,0.,0.707106781187));
#221 = DIRECTION('',(0.,1.,0.));
#222 = ADVANCED_FACE('',(#223),#248,.T.);
#223 = FACE_BOUND('',#224,.F.);
#224 = EDGE_LOOP('',(#225,#233,#241,#247));
#225 = ORIENTED_EDGE('',*,*,#226,.F.);
#226 = EDGE_CURVE('',#227,#62,#229,.T.);
#227 = VERTEX_POINT('',#228);
#228 = CARTESIAN_POINT('',(5.5,-19.,16.));
#229 = LINE('',#230,#231);
#230 = CARTESIAN_POINT('',(5.5,-18.75,16.25));
#231 = VECTOR('',#232,1.);
#232 = DIRECTION('',(-1.922962686384E-15,0.707106781187,0.707106781187)
  );
#233 = ORIENTED_EDGE('',*,*,#234,.T.);
#234 = EDGE_CURVE('',#227,#235,#237,.T.);
#235 = VERTEX_POINT('',#236);
#236 = CARTESIAN_POINT('',(-5.5,-19.,16.));
#237 = LINE('',#238,#239);
#238 = CARTESIAN_POINT('',(6.5,-19.,16.));
#239 = VECTOR('',#240,1.);
#240 = DIRECTION('',(-1.,0.,0.));
#241 = ORIENTED_EDGE('',*,*,#242,.T.);
#242 = EDGE_CURVE('',#235,#54,#243,.T.);
#243 = LINE('',#244,#245);
#244 = CARTESIAN_POINT('',(-5.5,-18.75,16.25));
#245 = VECTOR('',#246,1.);
#246 = DIRECTION('',(1.346073880468E-15,0.707106781187,0.707106781187));
#247 = ORIENTED_EDGE('',*,*,#61,.F.);
#248 = PLANE('',#249);
#249 = AXIS2_PLACEMENT_3D('',#250,#251,#252);
#250 = CARTESIAN_POINT('',(6.5,-18.5,16.5));
#251 = DIRECTION('',(0.,-0.707106781187,0.707106781187));
#252 = DIRECTION('',(1.,0.,0.));
#253 = ADVANCED_FACE('',(#254),#273,.F.);
#254 = FACE_BOUND('',#255,.F.);
#255 = EDGE_LOOP('',(#256,#264,#271,#272));
#256 = ORIENTED_EDGE('',*,*,#257,.F.);
#257 = EDGE_CURVE('',#258,#84,#260,.T.);
#258 = VERTEX_POINT('',#259);
#259 = CARTESIAN_POINT('',(1.5,-12.5,1.));
#260 = LINE('',#261,#262);
#261 = CARTESIAN_POINT('',(1.5,-12.5,0.));
#262 = VECTOR('',#263,1.);
#263 = DIRECTION('',(0.,0.,1.));
#264 = ORIENTED_EDGE('',*,*,#265,.F.);
#265 = EDGE_CURVE('',#258,#258,#266,.T.);
#266 = CIRCLE('',#267,1.5);
#267 = AXIS2_PLACEMENT_3D('',#268,#269,#270);
#268 = CARTESIAN_POINT('',(0.,-12.5,1.));
#269 = DIRECTION('',(0.,0.,-1.));
#270 = DIRECTION('',(1.,0.,0.));
#271 = ORIENTED_EDGE('',*,*,#257,.T.);
#272 = ORIENTED_EDGE('',*,*,#93,.T.);
#273 = CYLINDRICAL_SURFACE('',#274,1.5);
#274 = AXIS2_PLACEMENT_3D('',#275,#276,#277);
#275 = CARTESIAN_POINT('',(0.,-12.5,0.));
#276 = DIRECTION('',(0.,0.,-1.));
#277 = DIRECTION('',(1.,0.,0.));
#278 = ADVANCED_FACE('',(#279),#298,.F.);
#279 = FACE_BOUND('',#280,.F.);
#280 = EDGE_LOOP('',(#281,#289,#296,#297));
#281 = ORIENTED_EDGE('',*,*,#282,.F.);
#282 = EDGE_CURVE('',#283,#109,#285,.T.);
#283 = VERTEX_POINT('',#284);
#284 = CARTESIAN_POINT('',(1.5,12.5,1.));
#285 = LINE('',#286,#287);
#286 = CARTESIAN_POINT('',(1.5,12.5,0.));
#287 = VECTOR('',#288,1.);
#288 = DIRECTION('',(0.,0.,1.));
#289 = ORIENTED_EDGE('',*,*,#290,.F.);
#290 = EDGE_CURVE('',#283,#283,#291,.T.);
#291 = CIRCLE('',#292,1.5);
#292 = AXIS2_PLACEMENT_3D('',#293,#294,#295);
#293 = CARTESIAN_POINT('',(0.,12.5,1.));
#294 = DIRECTION('',(0.,0.,-1.));
#295 = DIRECTION('',(1.,0.,0.));
#296 = ORIENTED_EDGE('',*,*,#282,.T.);
#297 = ORIENTED_EDGE('',*,*,#118,.T.);
#298 = CYLINDRICAL_SURFACE('',#299,1.5);
#299 = AXIS2_PLACEMENT_3D('',#300,#301,#302);
#300 = CARTESIAN_POINT('',(0.,12.5,0.));
#301 = DIRECTION('',(0.,0.,-1.));
#302 = DIRECTION('',(1.,0.,0.));
#303 = ADVANCED_FACE('',(#304),#314,.F.);
#304 = FACE_BOUND('',#305,.F.);
#305 = EDGE_LOOP('',(#306,#307,#308));
#306 = ORIENTED_EDGE('',*,*,#133,.F.);
#307 = ORIENTED_EDGE('',*,*,#165,.T.);
#308 = ORIENTED_EDGE('',*,*,#309,.F.);
#309 = EDGE_CURVE('',#134,#166,#310,.T.);
#310 = LINE('',#311,#312);
#311 = CARTESIAN_POINT('',(-6.,18.5,16.));
#312 = VECTOR('',#313,1.);
#313 = DIRECTION('',(-0.707106781187,-0.707106781187,-6.730369402342E-16
    ));
#314 = PLANE('',#315);
#315 = AXIS2_PLACEMENT_3D('',#316,#317,#318);
#316 = CARTESIAN_POINT('',(-5.5,18.,17.));
#317 = DIRECTION('',(0.57735026919,-0.57735026919,-0.57735026919));
#318 = DIRECTION('',(-0.707106781187,-0.707106781187,0.));
#319 = ADVANCED_FACE('',(#320),#345,.T.);
#320 = FACE_BOUND('',#321,.T.);
#321 = EDGE_LOOP('',(#322,#332,#338,#339));
#322 = ORIENTED_EDGE('',*,*,#323,.T.);
#323 = EDGE_CURVE('',#324,#326,#328,.T.);
#324 = VERTEX_POINT('',#325);
#325 = CARTESIAN_POINT('',(5.5,19.,1.));
#326 = VERTEX_POINT('',#327);
#327 = CARTESIAN_POINT('',(-5.5,19.,1.));
#328 = LINE('',#329,#330);
#329 = CARTESIAN_POINT('',(6.5,19.,1.));
#330 = VECTOR('',#331,1.);
#331 = DIRECTION('',(-1.,-0.,-0.));
#332 = ORIENTED_EDGE('',*,*,#333,.T.);
#333 = EDGE_CURVE('',#326,#134,#334,.T.);
#334 = LINE('',#335,#336);
#335 = CARTESIAN_POINT('',(-5.5,19.,1.));
#336 = VECTOR('',#337,1.);
#337 = DIRECTION('',(0.,0.,1.));
#338 = ORIENTED_EDGE('',*,*,#150,.T.);
#339 = ORIENTED_EDGE('',*,*,#340,.F.);
#340 = EDGE_CURVE('',#324,#143,#341,.T.);
#341 = LINE('',#342,#343);
#342 = CARTESIAN_POINT('',(5.5,19.,1.));
#343 = VECTOR('',#344,1.);
#344 = DIRECTION('',(0.,0.,1.));
#345 = PLANE('',#346);
#346 = AXIS2_PLACEMENT_3D('',#347,#348,#349);
#347 = CARTESIAN_POINT('',(-6.5,19.,0.));
#348 = DIRECTION('',(0.,1.,0.));
#349 = DIRECTION('',(1.,0.,0.));
#350 = ADVANCED_FACE('',(#351),#361,.T.);
#351 = FACE_BOUND('',#352,.T.);
#352 = EDGE_LOOP('',(#353,#354,#355));
#353 = ORIENTED_EDGE('',*,*,#142,.F.);
#354 = ORIENTED_EDGE('',*,*,#195,.T.);
#355 = ORIENTED_EDGE('',*,*,#356,.F.);
#356 = EDGE_CURVE('',#143,#196,#357,.T.);
#357 = LINE('',#358,#359);
#358 = CARTESIAN_POINT('',(6.,18.5,16.));
#359 = VECTOR('',#360,1.);
#360 = DIRECTION('',(0.707106781187,-0.707106781187,0.));
#361 = PLANE('',#362);
#362 = AXIS2_PLACEMENT_3D('',#363,#364,#365);
#363 = CARTESIAN_POINT('',(5.5,18.,17.));
#364 = DIRECTION('',(0.57735026919,0.57735026919,0.57735026919));
#365 = DIRECTION('',(0.707106781187,-0.707106781187,0.));
#366 = ADVANCED_FACE('',(#367),#377,.F.);
#367 = FACE_BOUND('',#368,.F.);
#368 = EDGE_LOOP('',(#369,#370,#376));
#369 = ORIENTED_EDGE('',*,*,#242,.F.);
#370 = ORIENTED_EDGE('',*,*,#371,.T.);
#371 = EDGE_CURVE('',#235,#174,#372,.T.);
#372 = LINE('',#373,#374);
#373 = CARTESIAN_POINT('',(-5.75,-18.75,16.));
#374 = VECTOR('',#375,1.);
#375 = DIRECTION('',(-0.707106781187,0.707106781187,0.));
#376 = ORIENTED_EDGE('',*,*,#181,.F.);
#377 = PLANE('',#378);
#378 = AXIS2_PLACEMENT_3D('',#379,#380,#381);
#379 = CARTESIAN_POINT('',(-5.5,-19.,16.));
#380 = DIRECTION('',(0.57735026919,0.57735026919,-0.57735026919));
#381 = DIRECTION('',(-0.707106781187,-2.775557561563E-17,-0.707106781187
    ));
#382 = ADVANCED_FACE('',(#383),#440,.T.);
#383 = FACE_BOUND('',#384,.T.);
#384 = EDGE_LOOP('',(#385,#395,#401,#402,#410,#418,#426,#434));
#385 = ORIENTED_EDGE('',*,*,#386,.F.);
#386 = EDGE_CURVE('',#387,#389,#391,.T.);
#387 = VERTEX_POINT('',#388);
#388 = CARTESIAN_POINT('',(-6.5,-18.,1.));
#389 = VERTEX_POINT('',#390);
#390 = CARTESIAN_POINT('',(-6.5,-6.1,1.));
#391 = LINE('',#392,#393);
#392 = CARTESIAN_POINT('',(-6.5,0.,1.));
#393 = VECTOR('',#394,1.);
#394 = DIRECTION('',(0.,1.,0.));
#395 = ORIENTED_EDGE('',*,*,#396,.T.);
#396 = EDGE_CURVE('',#387,#174,#397,.T.);
#397 = LINE('',#398,#399);
#398 = CARTESIAN_POINT('',(-6.5,-18.,1.));
#399 = VECTOR('',#400,1.);
#400 = DIRECTION('',(0.,0.,1.));
#401 = ORIENTED_EDGE('',*,*,#173,.T.);
#402 = ORIENTED_EDGE('',*,*,#403,.F.);
#403 = EDGE_CURVE('',#404,#166,#406,.T.);
#404 = VERTEX_POINT('',#405);
#405 = CARTESIAN_POINT('',(-6.5,18.,1.));
#406 = LINE('',#407,#408);
#407 = CARTESIAN_POINT('',(-6.5,18.,1.));
#408 = VECTOR('',#409,1.);
#409 = DIRECTION('',(0.,0.,1.));
#410 = ORIENTED_EDGE('',*,*,#411,.F.);
#411 = EDGE_CURVE('',#412,#404,#414,.T.);
#412 = VERTEX_POINT('',#413);
#413 = CARTESIAN_POINT('',(-6.5,6.1,1.));
#414 = LINE('',#415,#416);
#415 = CARTESIAN_POINT('',(-6.5,0.,1.));
#416 = VECTOR('',#417,1.);
#417 = DIRECTION('',(0.,1.,0.));
#418 = ORIENTED_EDGE('',*,*,#419,.T.);
#419 = EDGE_CURVE('',#412,#420,#422,.T.);
#420 = VERTEX_POINT('',#421);
#421 = CARTESIAN_POINT('',(-6.5,6.1,12.));
#422 = LINE('',#423,#424);
#423 = CARTESIAN_POINT('',(-6.5,6.1,0.));
#424 = VECTOR('',#425,1.);
#425 = DIRECTION('',(0.,0.,1.));
#426 = ORIENTED_EDGE('',*,*,#427,.F.);
#427 = EDGE_CURVE('',#428,#420,#430,.T.);
#428 = VERTEX_POINT('',#429);
#429 = CARTESIAN_POINT('',(-6.5,-6.1,12.));
#430 = LINE('',#431,#432);
#431 = CARTESIAN_POINT('',(-6.5,-6.1,12.));
#432 = VECTOR('',#433,1.);
#433 = DIRECTION('',(0.,1.,0.));
#434 = ORIENTED_EDGE('',*,*,#435,.F.);
#435 = EDGE_CURVE('',#389,#428,#436,.T.);
#436 = LINE('',#437,#438);
#437 = CARTESIAN_POINT('',(-6.5,-6.1,0.));
#438 = VECTOR('',#439,1.);
#439 = DIRECTION('',(0.,0.,1.));
#440 = PLANE('',#441);
#441 = AXIS2_PLACEMENT_3D('',#442,#443,#444);
#442 = CARTESIAN_POINT('',(-6.5,-19.,0.));
#443 = DIRECTION('',(-1.,0.,0.));
#444 = DIRECTION('',(0.,1.,0.));
#445 = ADVANCED_FACE('',(#446),#503,.T.);
#446 = FACE_BOUND('',#447,.T.);
#447 = EDGE_LOOP('',(#448,#458,#464,#465,#473,#481,#489,#497));
#448 = ORIENTED_EDGE('',*,*,#449,.F.);
#449 = EDGE_CURVE('',#450,#452,#454,.T.);
#450 = VERTEX_POINT('',#451);
#451 = CARTESIAN_POINT('',(6.5,18.,1.));
#452 = VERTEX_POINT('',#453);
#453 = CARTESIAN_POINT('',(6.5,6.1,1.));
#454 = LINE('',#455,#456);
#455 = CARTESIAN_POINT('',(6.5,19.,1.));
#456 = VECTOR('',#457,1.);
#457 = DIRECTION('',(0.,-1.,0.));
#458 = ORIENTED_EDGE('',*,*,#459,.T.);
#459 = EDGE_CURVE('',#450,#196,#460,.T.);
#460 = LINE('',#461,#462);
#461 = CARTESIAN_POINT('',(6.5,18.,1.));
#462 = VECTOR('',#463,1.);
#463 = DIRECTION('',(0.,0.,1.));
#464 = ORIENTED_EDGE('',*,*,#203,.T.);
#465 = ORIENTED_EDGE('',*,*,#466,.F.);
#466 = EDGE_CURVE('',#467,#204,#469,.T.);
#467 = VERTEX_POINT('',#468);
#468 = CARTESIAN_POINT('',(6.5,-18.,1.));
#469 = LINE('',#470,#471);
#470 = CARTESIAN_POINT('',(6.5,-18.,1.));
#471 = VECTOR('',#472,1.);
#472 = DIRECTION('',(0.,0.,1.));
#473 = ORIENTED_EDGE('',*,*,#474,.F.);
#474 = EDGE_CURVE('',#475,#467,#477,.T.);
#475 = VERTEX_POINT('',#476);
#476 = CARTESIAN_POINT('',(6.5,-6.1,1.));
#477 = LINE('',#478,#479);
#478 = CARTESIAN_POINT('',(6.5,19.,1.));
#479 = VECTOR('',#480,1.);
#480 = DIRECTION('',(0.,-1.,0.));
#481 = ORIENTED_EDGE('',*,*,#482,.T.);
#482 = EDGE_CURVE('',#475,#483,#485,.T.);
#483 = VERTEX_POINT('',#484);
#484 = CARTESIAN_POINT('',(6.5,-6.1,12.));
#485 = LINE('',#486,#487);
#486 = CARTESIAN_POINT('',(6.5,-6.1,0.));
#487 = VECTOR('',#488,1.);
#488 = DIRECTION('',(0.,0.,1.));
#489 = ORIENTED_EDGE('',*,*,#490,.F.);
#490 = EDGE_CURVE('',#491,#483,#493,.T.);
#491 = VERTEX_POINT('',#492);
#492 = CARTESIAN_POINT('',(6.5,6.1,12.));
#493 = LINE('',#494,#495);
#494 = CARTESIAN_POINT('',(6.5,6.1,12.));
#495 = VECTOR('',#496,1.);
#496 = DIRECTION('',(0.,-1.,0.));
#497 = ORIENTED_EDGE('',*,*,#498,.F.);
#498 = EDGE_CURVE('',#452,#491,#499,.T.);
#499 = LINE('',#500,#501);
#500 = CARTESIAN_POINT('',(6.5,6.1,0.));
#501 = VECTOR('',#502,1.);
#502 = DIRECTION('',(0.,0.,1.));
#503 = PLANE('',#504);
#504 = AXIS2_PLACEMENT_3D('',#505,#506,#507);
#505 = CARTESIAN_POINT('',(6.5,19.,0.));
#506 = DIRECTION('',(1.,0.,0.));
#507 = DIRECTION('',(0.,-1.,0.));
#508 = ADVANCED_FACE('',(#509),#519,.T.);
#509 = FACE_BOUND('',#510,.T.);
#510 = EDGE_LOOP('',(#511,#512,#518));
#511 = ORIENTED_EDGE('',*,*,#226,.F.);
#512 = ORIENTED_EDGE('',*,*,#513,.T.);
#513 = EDGE_CURVE('',#227,#204,#514,.T.);
#514 = LINE('',#515,#516);
#515 = CARTESIAN_POINT('',(5.75,-18.75,16.));
#516 = VECTOR('',#517,1.);
#517 = DIRECTION('',(0.707106781187,0.707106781187,-6.730369402342E-16)
  );
#518 = ORIENTED_EDGE('',*,*,#211,.F.);
#519 = PLANE('',#520);
#520 = AXIS2_PLACEMENT_3D('',#521,#522,#523);
#521 = CARTESIAN_POINT('',(5.5,-19.,16.));
#522 = DIRECTION('',(0.57735026919,-0.57735026919,0.57735026919));
#523 = DIRECTION('',(0.707106781187,0.,-0.707106781187));
#524 = ADVANCED_FACE('',(#525),#550,.T.);
#525 = FACE_BOUND('',#526,.T.);
#526 = EDGE_LOOP('',(#527,#537,#543,#544));
#527 = ORIENTED_EDGE('',*,*,#528,.F.);
#528 = EDGE_CURVE('',#529,#531,#533,.T.);
#529 = VERTEX_POINT('',#530);
#530 = CARTESIAN_POINT('',(5.5,-19.,1.));
#531 = VERTEX_POINT('',#532);
#532 = CARTESIAN_POINT('',(-5.5,-19.,1.));
#533 = LINE('',#534,#535);
#534 = CARTESIAN_POINT('',(6.5,-19.,1.));
#535 = VECTOR('',#536,1.);
#536 = DIRECTION('',(-1.,-0.,-0.));
#537 = ORIENTED_EDGE('',*,*,#538,.T.);
#538 = EDGE_CURVE('',#529,#227,#539,.T.);
#539 = LINE('',#540,#541);
#540 = CARTESIAN_POINT('',(5.5,-19.,1.));
#541 = VECTOR('',#542,1.);
#542 = DIRECTION('',(0.,0.,1.));
#543 = ORIENTED_EDGE('',*,*,#234,.T.);
#544 = ORIENTED_EDGE('',*,*,#545,.F.);
#545 = EDGE_CURVE('',#531,#235,#546,.T.);
#546 = LINE('',#547,#548);
#547 = CARTESIAN_POINT('',(-5.5,-19.,1.));
#548 = VECTOR('',#549,1.);
#549 = DIRECTION('',(0.,0.,1.));
#550 = PLANE('',#551);
#551 = AXIS2_PLACEMENT_3D('',#552,#553,#554);
#552 = CARTESIAN_POINT('',(6.5,-19.,0.));
#553 = DIRECTION('',(0.,-1.,0.));
#554 = DIRECTION('',(-1.,0.,0.));
#555 = ADVANCED_FACE('',(#556,#579),#582,.F.);
#556 = FACE_BOUND('',#557,.F.);
#557 = EDGE_LOOP('',(#558,#559,#565,#566,#572,#573));
#558 = ORIENTED_EDGE('',*,*,#474,.F.);
#559 = ORIENTED_EDGE('',*,*,#560,.T.);
#560 = EDGE_CURVE('',#475,#389,#561,.T.);
#561 = LINE('',#562,#563);
#562 = CARTESIAN_POINT('',(6.5,-6.1,1.));
#563 = VECTOR('',#564,1.);
#564 = DIRECTION('',(-1.,0.,0.));
#565 = ORIENTED_EDGE('',*,*,#386,.F.);
#566 = ORIENTED_EDGE('',*,*,#567,.F.);
#567 = EDGE_CURVE('',#531,#387,#568,.T.);
#568 = LINE('',#569,#570);
#569 = CARTESIAN_POINT('',(-12.25,-12.25,1.));
#570 = VECTOR('',#571,1.);
#571 = DIRECTION('',(-0.707106781187,0.707106781187,0.));
#572 = ORIENTED_EDGE('',*,*,#528,.F.);
#573 = ORIENTED_EDGE('',*,*,#574,.F.);
#574 = EDGE_CURVE('',#467,#529,#575,.T.);
#575 = LINE('',#576,#577);
#576 = CARTESIAN_POINT('',(15.5,-9.,1.));
#577 = VECTOR('',#578,1.);
#578 = DIRECTION('',(-0.707106781187,-0.707106781187,0.));
#579 = FACE_BOUND('',#580,.F.);
#580 = EDGE_LOOP('',(#581));
#581 = ORIENTED_EDGE('',*,*,#265,.T.);
#582 = PLANE('',#583);
#583 = AXIS2_PLACEMENT_3D('',#584,#585,#586);
#584 = CARTESIAN_POINT('',(6.5,19.,1.));
#585 = DIRECTION('',(0.,0.,1.));
#586 = DIRECTION('',(0.,-1.,0.));
#587 = ADVANCED_FACE('',(#588,#611),#614,.F.);
#588 = FACE_BOUND('',#589,.F.);
#589 = EDGE_LOOP('',(#590,#591,#597,#598,#604,#605));
#590 = ORIENTED_EDGE('',*,*,#449,.F.);
#591 = ORIENTED_EDGE('',*,*,#592,.T.);
#592 = EDGE_CURVE('',#450,#324,#593,.T.);
#593 = LINE('',#594,#595);
#594 = CARTESIAN_POINT('',(6.,18.5,1.));
#595 = VECTOR('',#596,1.);
#596 = DIRECTION('',(-0.707106781187,0.707106781187,0.));
#597 = ORIENTED_EDGE('',*,*,#323,.T.);
#598 = ORIENTED_EDGE('',*,*,#599,.T.);
#599 = EDGE_CURVE('',#326,#404,#600,.T.);
#600 = LINE('',#601,#602);
#601 = CARTESIAN_POINT('',(-2.75,21.75,1.));
#602 = VECTOR('',#603,1.);
#603 = DIRECTION('',(-0.707106781187,-0.707106781187,0.));
#604 = ORIENTED_EDGE('',*,*,#411,.F.);
#605 = ORIENTED_EDGE('',*,*,#606,.T.);
#606 = EDGE_CURVE('',#412,#452,#607,.T.);
#607 = LINE('',#608,#609);
#608 = CARTESIAN_POINT('',(-4.440892098501E-16,6.1,1.));
#609 = VECTOR('',#610,1.);
#610 = DIRECTION('',(1.,0.,0.));
#611 = FACE_BOUND('',#612,.F.);
#612 = EDGE_LOOP('',(#613));
#613 = ORIENTED_EDGE('',*,*,#290,.T.);
#614 = PLANE('',#615);
#615 = AXIS2_PLACEMENT_3D('',#616,#617,#618);
#616 = CARTESIAN_POINT('',(6.5,19.,1.));
#617 = DIRECTION('',(0.,0.,1.));
#618 = DIRECTION('',(0.,-1.,0.));
#619 = ADVANCED_FACE('',(#620),#626,.T.);
#620 = FACE_BOUND('',#621,.F.);
#621 = EDGE_LOOP('',(#622,#623,#624,#625));
#622 = ORIENTED_EDGE('',*,*,#599,.F.);
#623 = ORIENTED_EDGE('',*,*,#333,.T.);
#624 = ORIENTED_EDGE('',*,*,#309,.T.);
#625 = ORIENTED_EDGE('',*,*,#403,.F.);
#626 = PLANE('',#627);
#627 = AXIS2_PLACEMENT_3D('',#628,#629,#630);
#628 = CARTESIAN_POINT('',(-6.,18.5,1.));
#629 = DIRECTION('',(-0.707106781187,0.707106781187,0.));
#630 = DIRECTION('',(-0.,-0.,-1.));
#631 = ADVANCED_FACE('',(#632),#638,.T.);
#632 = FACE_BOUND('',#633,.F.);
#633 = EDGE_LOOP('',(#634,#635,#636,#637));
#634 = ORIENTED_EDGE('',*,*,#592,.F.);
#635 = ORIENTED_EDGE('',*,*,#459,.T.);
#636 = ORIENTED_EDGE('',*,*,#356,.F.);
#637 = ORIENTED_EDGE('',*,*,#340,.F.);
#638 = PLANE('',#639);
#639 = AXIS2_PLACEMENT_3D('',#640,#641,#642);
#640 = CARTESIAN_POINT('',(6.,18.5,1.));
#641 = DIRECTION('',(0.707106781187,0.707106781187,0.));
#642 = DIRECTION('',(-0.,-0.,-1.));
#643 = ADVANCED_FACE('',(#644),#650,.T.);
#644 = FACE_BOUND('',#645,.T.);
#645 = EDGE_LOOP('',(#646,#647,#648,#649));
#646 = ORIENTED_EDGE('',*,*,#567,.F.);
#647 = ORIENTED_EDGE('',*,*,#545,.T.);
#648 = ORIENTED_EDGE('',*,*,#371,.T.);
#649 = ORIENTED_EDGE('',*,*,#396,.F.);
#650 = PLANE('',#651);
#651 = AXIS2_PLACEMENT_3D('',#652,#653,#654);
#652 = CARTESIAN_POINT('',(-6.,-18.5,1.));
#653 = DIRECTION('',(-0.707106781187,-0.707106781187,0.));
#654 = DIRECTION('',(0.,0.,1.));
#655 = ADVANCED_FACE('',(#656),#667,.F.);
#656 = FACE_BOUND('',#657,.F.);
#657 = EDGE_LOOP('',(#658,#659,#660,#666));
#658 = ORIENTED_EDGE('',*,*,#560,.F.);
#659 = ORIENTED_EDGE('',*,*,#482,.T.);
#660 = ORIENTED_EDGE('',*,*,#661,.T.);
#661 = EDGE_CURVE('',#483,#428,#662,.T.);
#662 = LINE('',#663,#664);
#663 = CARTESIAN_POINT('',(6.5,-6.1,12.));
#664 = VECTOR('',#665,1.);
#665 = DIRECTION('',(-1.,0.,0.));
#666 = ORIENTED_EDGE('',*,*,#435,.F.);
#667 = PLANE('',#668);
#668 = AXIS2_PLACEMENT_3D('',#669,#670,#671);
#669 = CARTESIAN_POINT('',(6.5,-6.1,0.));
#670 = DIRECTION('',(0.,-1.,0.));
#671 = DIRECTION('',(-1.,0.,0.));
#672 = ADVANCED_FACE('',(#673),#684,.F.);
#673 = FACE_BOUND('',#674,.T.);
#674 = EDGE_LOOP('',(#675,#676,#677,#678));
#675 = ORIENTED_EDGE('',*,*,#490,.T.);
#676 = ORIENTED_EDGE('',*,*,#661,.T.);
#677 = ORIENTED_EDGE('',*,*,#427,.T.);
#678 = ORIENTED_EDGE('',*,*,#679,.T.);
#679 = EDGE_CURVE('',#420,#491,#680,.T.);
#680 = LINE('',#681,#682);
#681 = CARTESIAN_POINT('',(-6.5,6.1,12.));
#682 = VECTOR('',#683,1.);
#683 = DIRECTION('',(1.,0.,0.));
#684 = PLANE('',#685);
#685 = AXIS2_PLACEMENT_3D('',#686,#687,#688);
#686 = CARTESIAN_POINT('',(-8.458842092382E-16,0.,12.));
#687 = DIRECTION('',(0.,0.,1.));
#688 = DIRECTION('',(1.,0.,0.));
#689 = ADVANCED_FACE('',(#690),#696,.F.);
#690 = FACE_BOUND('',#691,.F.);
#691 = EDGE_LOOP('',(#692,#693,#694,#695));
#692 = ORIENTED_EDGE('',*,*,#606,.F.);
#693 = ORIENTED_EDGE('',*,*,#419,.T.);
#694 = ORIENTED_EDGE('',*,*,#679,.T.);
#695 = ORIENTED_EDGE('',*,*,#498,.F.);
#696 = PLANE('',#697);
#697 = AXIS2_PLACEMENT_3D('',#698,#699,#700);
#698 = CARTESIAN_POINT('',(-6.5,6.1,0.));
#699 = DIRECTION('',(0.,1.,0.));
#700 = DIRECTION('',(1.,0.,0.));
#701 = ADVANCED_FACE('',(#702),#708,.T.);
#702 = FACE_BOUND('',#703,.T.);
#703 = EDGE_LOOP('',(#704,#705,#706,#707));
#704 = ORIENTED_EDGE('',*,*,#574,.F.);
#705 = ORIENTED_EDGE('',*,*,#466,.T.);
#706 = ORIENTED_EDGE('',*,*,#513,.F.);
#707 = ORIENTED_EDGE('',*,*,#538,.F.);
#708 = PLANE('',#709);
#709 = AXIS2_PLACEMENT_3D('',#710,#711,#712);
#710 = CARTESIAN_POINT('',(6.,-18.5,1.));
#711 = DIRECTION('',(0.707106781187,-0.707106781187,0.));
#712 = DIRECTION('',(0.,0.,1.));
#713 = ( GEOMETRIC_REPRESENTATION_CONTEXT(3) 
GLOBAL_UNCERTAINTY_ASSIGNED_CONTEXT((#717)) GLOBAL_UNIT_ASSIGNED_CONTEXT
((#714,#715,#716)) REPRESENTATION_CONTEXT('Context #1',
  '3D Context with UNIT and UNCERTAINTY') );
#714 = ( LENGTH_UNIT() NAMED_UNIT(*) SI_UNIT(.MILLI.,.METRE.) );
#715 = ( NAMED_UNIT(*) PLANE_ANGLE_UNIT() SI_UNIT($,.RADIAN.) );
#716 = ( NAMED_UNIT(*) SI_UNIT($,.STERADIAN.) SOLID_ANGLE_UNIT() );
#717 = UNCERTAINTY_MEASURE_WITH_UNIT(LENGTH_MEASURE(5.E-06),#714,
  'distance_accuracy_value','confusion accuracy');
#718 = PRODUCT_RELATED_PRODUCT_CATEGORY('part',$,(#7));
ENDSEC;
END-ISO-10303-21;
