ISO-10303-21;
HEADER;
FILE_DESCRIPTION(('FreeCAD Model'),'2;1');
FILE_NAME('Open CASCADE Shape Model','2026-09-06T12:30:35',('FreeCAD'),(
    'FreeCAD'),'Open CASCADE STEP processor 7.8','FreeCAD','Unknown');
FILE_SCHEMA(('AUTOMOTIVE_DESIGN { 1 0 10303 214 1 1 1 1 }'));
ENDSEC;
DATA;
#1 = APPLICATION_PROTOCOL_DEFINITION('international standard',
  'automotive_design',2000,#2);
#2 = APPLICATION_CONTEXT(
  'core data for automotive mechanical design processes');
#3 = SHAPE_DEFINITION_REPRESENTATION(#4,#10);
#4 = PRODUCT_DEFINITION_SHAPE('','',#5);
#5 = PRODUCT_DEFINITION('design','',#6,#9);
#6 = PRODUCT_DEFINITION_FORMATION('','',#7);
#7 = PRODUCT('Open CASCADE STEP translator 7.8 232',
  'Open CASCADE STEP translator 7.8 232','',(#8));
#8 = PRODUCT_CONTEXT('',#2,'mechanical');
#9 = PRODUCT_DEFINITION_CONTEXT('part definition',#2,'design');
#10 = ADVANCED_BREP_SHAPE_REPRESENTATION('',(#11,#15),#1865);
#11 = AXIS2_PLACEMENT_3D('',#12,#13,#14);
#12 = CARTESIAN_POINT('',(0.,0.,0.));
#13 = DIRECTION('',(0.,0.,1.));
#14 = DIRECTION('',(1.,0.,-0.));
#15 = MANIFOLD_SOLID_BREP('',#16);
#16 = CLOSED_SHELL('',(#17,#159,#190,#221,#252,#283,#307,#338,#362,#386,
    #417,#441,#465,#496,#520,#537,#562,#587,#603,#634,#650,#666,#729,
    #760,#791,#807,#831,#862,#878,#924,#948,#995,#1083,#1099,#1145,#1256
    ,#1280,#1319,#1344,#1369,#1386,#1422,#1434,#1451,#1468,#1489,#1506,
    #1537,#1549,#1561,#1578,#1595,#1612,#1637,#1661,#1678,#1701,#1726,
    #1743,#1767,#1785,#1808,#1831,#1848));
#17 = ADVANCED_FACE('',(#18,#132,#143),#154,.T.);
#18 = FACE_BOUND('',#19,.T.);
#19 = EDGE_LOOP('',(#20,#30,#38,#46,#54,#62,#70,#78,#86,#94,#102,#110,
    #118,#126));
#20 = ORIENTED_EDGE('',*,*,#21,.T.);
#21 = EDGE_CURVE('',#22,#24,#26,.T.);
#22 = VERTEX_POINT('',#23);
#23 = CARTESIAN_POINT('',(18.,5.5,-8.));
#24 = VERTEX_POINT('',#25);
#25 = CARTESIAN_POINT('',(18.,-5.2,-8.));
#26 = LINE('',#27,#28);
#27 = CARTESIAN_POINT('',(18.,6.5,-8.));
#28 = VECTOR('',#29,1.);
#29 = DIRECTION('',(0.,-1.,2.2E-16));
#30 = ORIENTED_EDGE('',*,*,#31,.F.);
#31 = EDGE_CURVE('',#32,#24,#34,.T.);
#32 = VERTEX_POINT('',#33);
#33 = CARTESIAN_POINT('',(13.5,-5.2,-8.));
#34 = LINE('',#35,#36);
#35 = CARTESIAN_POINT('',(12.5,-5.2,-8.));
#36 = VECTOR('',#37,1.);
#37 = DIRECTION('',(1.,0.,0.));
#38 = ORIENTED_EDGE('',*,*,#39,.F.);
#39 = EDGE_CURVE('',#40,#32,#42,.T.);
#40 = VERTEX_POINT('',#41);
#41 = CARTESIAN_POINT('',(11.5,-7.2,-8.));
#42 = LINE('',#43,#44);
#43 = CARTESIAN_POINT('',(9.379262232416,-9.320737767584,-8.));
#44 = VECTOR('',#45,1.);
#45 = DIRECTION('',(0.707106781187,0.707106781187,-1.8E-16));
#46 = ORIENTED_EDGE('',*,*,#47,.F.);
#47 = EDGE_CURVE('',#48,#40,#50,.T.);
#48 = VERTEX_POINT('',#49);
#49 = CARTESIAN_POINT('',(11.5,-13.2,-8.));
#50 = LINE('',#51,#52);
#51 = CARTESIAN_POINT('',(11.5,-14.2,-8.));
#52 = VECTOR('',#53,1.);
#53 = DIRECTION('',(0.,1.,-2.6E-16));
#54 = ORIENTED_EDGE('',*,*,#55,.F.);
#55 = EDGE_CURVE('',#56,#48,#58,.T.);
#56 = VERTEX_POINT('',#57);
#57 = CARTESIAN_POINT('',(4.75,-13.2,-8.));
#58 = LINE('',#59,#60);
#59 = CARTESIAN_POINT('',(3.75,-13.2,-8.));
#60 = VECTOR('',#61,1.);
#61 = DIRECTION('',(1.,0.,0.));
#62 = ORIENTED_EDGE('',*,*,#63,.F.);
#63 = EDGE_CURVE('',#64,#56,#66,.T.);
#64 = VERTEX_POINT('',#65);
#65 = CARTESIAN_POINT('',(4.75,-6.5,-8.));
#66 = LINE('',#67,#68);
#67 = CARTESIAN_POINT('',(4.75,-7.5,-8.));
#68 = VECTOR('',#69,1.);
#69 = DIRECTION('',(0.,-1.,2.2E-16));
#70 = ORIENTED_EDGE('',*,*,#71,.F.);
#71 = EDGE_CURVE('',#72,#64,#74,.T.);
#72 = VERTEX_POINT('',#73);
#73 = CARTESIAN_POINT('',(-4.75,-6.5,-8.));
#74 = LINE('',#75,#76);
#75 = CARTESIAN_POINT('',(-3.75,-6.5,-8.));
#76 = VECTOR('',#77,1.);
#77 = DIRECTION('',(1.,0.,0.));
#78 = ORIENTED_EDGE('',*,*,#79,.T.);
#79 = EDGE_CURVE('',#72,#80,#82,.T.);
#80 = VERTEX_POINT('',#81);
#81 = CARTESIAN_POINT('',(-4.75,-13.2,-8.));
#82 = LINE('',#83,#84);
#83 = CARTESIAN_POINT('',(-4.75,-7.5,-8.));
#84 = VECTOR('',#85,1.);
#85 = DIRECTION('',(0.,-1.,2.2E-16));
#86 = ORIENTED_EDGE('',*,*,#87,.F.);
#87 = EDGE_CURVE('',#88,#80,#90,.T.);
#88 = VERTEX_POINT('',#89);
#89 = CARTESIAN_POINT('',(-11.5,-13.2,-8.));
#90 = LINE('',#91,#92);
#91 = CARTESIAN_POINT('',(-12.5,-13.2,-8.));
#92 = VECTOR('',#93,1.);
#93 = DIRECTION('',(1.,0.,0.));
#94 = ORIENTED_EDGE('',*,*,#95,.F.);
#95 = EDGE_CURVE('',#96,#88,#98,.T.);
#96 = VERTEX_POINT('',#97);
#97 = CARTESIAN_POINT('',(-11.5,-7.2,-8.));
#98 = LINE('',#99,#100);
#99 = CARTESIAN_POINT('',(-11.5,-6.2,-8.));
#100 = VECTOR('',#101,1.);
#101 = DIRECTION('',(0.,-1.,2.6E-16));
#102 = ORIENTED_EDGE('',*,*,#103,.F.);
#103 = EDGE_CURVE('',#104,#96,#106,.T.);
#104 = VERTEX_POINT('',#105);
#105 = CARTESIAN_POINT('',(-13.5,-5.2,-8.));
#106 = LINE('',#107,#108);
#107 = CARTESIAN_POINT('',(-10.37926223241,-8.320737767584,-8.));
#108 = VECTOR('',#109,1.);
#109 = DIRECTION('',(0.707106781187,-0.707106781187,1.8E-16));
#110 = ORIENTED_EDGE('',*,*,#111,.F.);
#111 = EDGE_CURVE('',#112,#104,#114,.T.);
#112 = VERTEX_POINT('',#113);
#113 = CARTESIAN_POINT('',(-18.,-5.2,-8.));
#114 = LINE('',#115,#116);
#115 = CARTESIAN_POINT('',(-19.,-5.2,-8.));
#116 = VECTOR('',#117,1.);
#117 = DIRECTION('',(1.,0.,0.));
#118 = ORIENTED_EDGE('',*,*,#119,.F.);
#119 = EDGE_CURVE('',#120,#112,#122,.T.);
#120 = VERTEX_POINT('',#121);
#121 = CARTESIAN_POINT('',(-18.,5.5,-8.));
#122 = LINE('',#123,#124);
#123 = CARTESIAN_POINT('',(-18.,6.5,-8.));
#124 = VECTOR('',#125,1.);
#125 = DIRECTION('',(0.,-1.,2.2E-16));
#126 = ORIENTED_EDGE('',*,*,#127,.T.);
#127 = EDGE_CURVE('',#120,#22,#128,.T.);
#128 = LINE('',#129,#130);
#129 = CARTESIAN_POINT('',(-19.,5.5,-8.));
#130 = VECTOR('',#131,1.);
#131 = DIRECTION('',(1.,0.,0.));
#132 = FACE_BOUND('',#133,.T.);
#133 = EDGE_LOOP('',(#134));
#134 = ORIENTED_EDGE('',*,*,#135,.F.);
#135 = EDGE_CURVE('',#136,#136,#138,.T.);
#136 = VERTEX_POINT('',#137);
#137 = CARTESIAN_POINT('',(15.55,-2.E-15,-8.));
#138 = CIRCLE('',#139,3.05);
#139 = AXIS2_PLACEMENT_3D('',#140,#141,#142);
#140 = CARTESIAN_POINT('',(12.5,-1.78E-15,-8.));
#141 = DIRECTION('',(0.,-2.6E-16,-1.));
#142 = DIRECTION('',(1.,-1.9E-16,4.94E-32));
#143 = FACE_BOUND('',#144,.T.);
#144 = EDGE_LOOP('',(#145));
#145 = ORIENTED_EDGE('',*,*,#146,.F.);
#146 = EDGE_CURVE('',#147,#147,#149,.T.);
#147 = VERTEX_POINT('',#148);
#148 = CARTESIAN_POINT('',(-9.45,-2.E-15,-8.));
#149 = CIRCLE('',#150,3.05);
#150 = AXIS2_PLACEMENT_3D('',#151,#152,#153);
#151 = CARTESIAN_POINT('',(-12.5,-1.78E-15,-8.));
#152 = DIRECTION('',(0.,-2.6E-16,-1.));
#153 = DIRECTION('',(1.,-1.9E-16,4.94E-32));
#154 = PLANE('',#155);
#155 = AXIS2_PLACEMENT_3D('',#156,#157,#158);
#156 = CARTESIAN_POINT('',(0.,-4.182951070336,-8.));
#157 = DIRECTION('',(-0.,-2.6E-16,-1.));
#158 = DIRECTION('',(0.,-1.,2.6E-16));
#159 = ADVANCED_FACE('',(#160),#185,.T.);
#160 = FACE_BOUND('',#161,.F.);
#161 = EDGE_LOOP('',(#162,#170,#171,#179));
#162 = ORIENTED_EDGE('',*,*,#163,.F.);
#163 = EDGE_CURVE('',#22,#164,#166,.T.);
#164 = VERTEX_POINT('',#165);
#165 = CARTESIAN_POINT('',(19.,5.5,-7.));
#166 = LINE('',#167,#168);
#167 = CARTESIAN_POINT('',(18.25,5.5,-7.75));
#168 = VECTOR('',#169,1.);
#169 = DIRECTION('',(0.707106781187,6.7E-16,0.707106781187));
#170 = ORIENTED_EDGE('',*,*,#21,.T.);
#171 = ORIENTED_EDGE('',*,*,#172,.T.);
#172 = EDGE_CURVE('',#24,#173,#175,.T.);
#173 = VERTEX_POINT('',#174);
#174 = CARTESIAN_POINT('',(19.,-5.2,-7.));
#175 = LINE('',#176,#177);
#176 = CARTESIAN_POINT('',(18.25,-5.2,-7.75));
#177 = VECTOR('',#178,1.);
#178 = DIRECTION('',(0.707106781187,-5.8E-16,0.707106781187));
#179 = ORIENTED_EDGE('',*,*,#180,.F.);
#180 = EDGE_CURVE('',#164,#173,#181,.T.);
#181 = LINE('',#182,#183);
#182 = CARTESIAN_POINT('',(19.,6.5,-7.));
#183 = VECTOR('',#184,1.);
#184 = DIRECTION('',(0.,-1.,2.2E-16));
#185 = PLANE('',#186);
#186 = AXIS2_PLACEMENT_3D('',#187,#188,#189);
#187 = CARTESIAN_POINT('',(18.5,6.5,-7.5));
#188 = DIRECTION('',(0.707106781187,-2.4E-16,-0.707106781187));
#189 = DIRECTION('',(5.970562748477E-17,1.,-2.797056274848E-16));
#190 = ADVANCED_FACE('',(#191),#216,.T.);
#191 = FACE_BOUND('',#192,.F.);
#192 = EDGE_LOOP('',(#193,#201,#202,#210));
#193 = ORIENTED_EDGE('',*,*,#194,.F.);
#194 = EDGE_CURVE('',#120,#195,#197,.T.);
#195 = VERTEX_POINT('',#196);
#196 = CARTESIAN_POINT('',(-18.,6.5,-7.));
#197 = LINE('',#198,#199);
#198 = CARTESIAN_POINT('',(-18.,5.75,-7.75));
#199 = VECTOR('',#200,1.);
#200 = DIRECTION('',(0.,0.707106781187,0.707106781187));
#201 = ORIENTED_EDGE('',*,*,#127,.T.);
#202 = ORIENTED_EDGE('',*,*,#203,.T.);
#203 = EDGE_CURVE('',#22,#204,#206,.T.);
#204 = VERTEX_POINT('',#205);
#205 = CARTESIAN_POINT('',(18.,6.5,-7.));
#206 = LINE('',#207,#208);
#207 = CARTESIAN_POINT('',(18.,5.75,-7.75));
#208 = VECTOR('',#209,1.);
#209 = DIRECTION('',(0.,0.707106781187,0.707106781187));
#210 = ORIENTED_EDGE('',*,*,#211,.F.);
#211 = EDGE_CURVE('',#195,#204,#212,.T.);
#212 = LINE('',#213,#214);
#213 = CARTESIAN_POINT('',(-19.,6.5,-7.));
#214 = VECTOR('',#215,1.);
#215 = DIRECTION('',(1.,0.,0.));
#216 = PLANE('',#217);
#217 = AXIS2_PLACEMENT_3D('',#218,#219,#220);
#218 = CARTESIAN_POINT('',(-19.,6.,-7.5));
#219 = DIRECTION('',(0.,0.707106781187,-0.707106781187));
#220 = DIRECTION('',(-1.,-0.,-0.));
#221 = ADVANCED_FACE('',(#222),#247,.F.);
#222 = FACE_BOUND('',#223,.T.);
#223 = EDGE_LOOP('',(#224,#232,#233,#241));
#224 = ORIENTED_EDGE('',*,*,#225,.F.);
#225 = EDGE_CURVE('',#32,#226,#228,.T.);
#226 = VERTEX_POINT('',#227);
#227 = CARTESIAN_POINT('',(13.5,-6.2,-7.));
#228 = LINE('',#229,#230);
#229 = CARTESIAN_POINT('',(13.5,-5.95,-7.25));
#230 = VECTOR('',#231,1.);
#231 = DIRECTION('',(-1.25E-15,-0.707106781187,0.707106781187));
#232 = ORIENTED_EDGE('',*,*,#31,.T.);
#233 = ORIENTED_EDGE('',*,*,#234,.T.);
#234 = EDGE_CURVE('',#24,#235,#237,.T.);
#235 = VERTEX_POINT('',#236);
#236 = CARTESIAN_POINT('',(18.,-6.2,-7.));
#237 = LINE('',#238,#239);
#238 = CARTESIAN_POINT('',(18.,-5.45,-7.75));
#239 = VECTOR('',#240,1.);
#240 = DIRECTION('',(5.8E-16,-0.707106781187,0.707106781187));
#241 = ORIENTED_EDGE('',*,*,#242,.F.);
#242 = EDGE_CURVE('',#226,#235,#243,.T.);
#243 = LINE('',#244,#245);
#244 = CARTESIAN_POINT('',(12.5,-6.2,-7.));
#245 = VECTOR('',#246,1.);
#246 = DIRECTION('',(1.,0.,0.));
#247 = PLANE('',#248);
#248 = AXIS2_PLACEMENT_3D('',#249,#250,#251);
#249 = CARTESIAN_POINT('',(12.5,-5.7,-7.5));
#250 = DIRECTION('',(0.,0.707106781187,0.707106781187));
#251 = DIRECTION('',(-1.,0.,0.));
#252 = ADVANCED_FACE('',(#253),#278,.T.);
#253 = FACE_BOUND('',#254,.T.);
#254 = EDGE_LOOP('',(#255,#263,#264,#272));
#255 = ORIENTED_EDGE('',*,*,#256,.F.);
#256 = EDGE_CURVE('',#120,#257,#259,.T.);
#257 = VERTEX_POINT('',#258);
#258 = CARTESIAN_POINT('',(-19.,5.5,-7.));
#259 = LINE('',#260,#261);
#260 = CARTESIAN_POINT('',(-18.25,5.5,-7.75));
#261 = VECTOR('',#262,1.);
#262 = DIRECTION('',(-0.707106781187,-5.8E-16,0.707106781187));
#263 = ORIENTED_EDGE('',*,*,#119,.T.);
#264 = ORIENTED_EDGE('',*,*,#265,.T.);
#265 = EDGE_CURVE('',#112,#266,#268,.T.);
#266 = VERTEX_POINT('',#267);
#267 = CARTESIAN_POINT('',(-19.,-5.2,-7.));
#268 = LINE('',#269,#270);
#269 = CARTESIAN_POINT('',(-18.25,-5.2,-7.75));
#270 = VECTOR('',#271,1.);
#271 = DIRECTION('',(-0.707106781187,1.35E-15,0.707106781187));
#272 = ORIENTED_EDGE('',*,*,#273,.F.);
#273 = EDGE_CURVE('',#257,#266,#274,.T.);
#274 = LINE('',#275,#276);
#275 = CARTESIAN_POINT('',(-19.,6.5,-7.));
#276 = VECTOR('',#277,1.);
#277 = DIRECTION('',(0.,-1.,2.2E-16));
#278 = PLANE('',#279);
#279 = AXIS2_PLACEMENT_3D('',#280,#281,#282);
#280 = CARTESIAN_POINT('',(-18.5,6.5,-7.5));
#281 = DIRECTION('',(-0.707106781187,-1.4E-16,-0.707106781187));
#282 = DIRECTION('',(-1.100505063388E-17,-1.,2.089949493661E-16));
#283 = ADVANCED_FACE('',(#284),#302,.T.);
#284 = FACE_BOUND('',#285,.T.);
#285 = EDGE_LOOP('',(#286,#294,#295,#296));
#286 = ORIENTED_EDGE('',*,*,#287,.F.);
#287 = EDGE_CURVE('',#40,#288,#290,.T.);
#288 = VERTEX_POINT('',#289);
#289 = CARTESIAN_POINT('',(12.5,-7.2,-7.));
#290 = LINE('',#291,#292);
#291 = CARTESIAN_POINT('',(11.75,-7.2,-7.75));
#292 = VECTOR('',#293,1.);
#293 = DIRECTION('',(0.707106781187,6.7E-16,0.707106781187));
#294 = ORIENTED_EDGE('',*,*,#39,.T.);
#295 = ORIENTED_EDGE('',*,*,#225,.T.);
#296 = ORIENTED_EDGE('',*,*,#297,.F.);
#297 = EDGE_CURVE('',#288,#226,#298,.T.);
#298 = LINE('',#299,#300);
#299 = CARTESIAN_POINT('',(12.5,-7.2,-7.));
#300 = VECTOR('',#301,1.);
#301 = DIRECTION('',(0.707106781187,0.707106781187,-5.8E-16));
#302 = PLANE('',#303);
#303 = AXIS2_PLACEMENT_3D('',#304,#305,#306);
#304 = CARTESIAN_POINT('',(11.5,-7.2,-8.));
#305 = DIRECTION('',(0.57735026919,-0.57735026919,-0.57735026919));
#306 = DIRECTION('',(0.707106781187,0.707106781187,-1.276756478319E-15)
  );
#307 = ADVANCED_FACE('',(#308),#333,.F.);
#308 = FACE_BOUND('',#309,.T.);
#309 = EDGE_LOOP('',(#310,#318,#319,#327));
#310 = ORIENTED_EDGE('',*,*,#311,.F.);
#311 = EDGE_CURVE('',#112,#312,#314,.T.);
#312 = VERTEX_POINT('',#313);
#313 = CARTESIAN_POINT('',(-18.,-6.2,-7.));
#314 = LINE('',#315,#316);
#315 = CARTESIAN_POINT('',(-18.,-5.45,-7.75));
#316 = VECTOR('',#317,1.);
#317 = DIRECTION('',(0.,-0.707106781187,0.707106781187));
#318 = ORIENTED_EDGE('',*,*,#111,.T.);
#319 = ORIENTED_EDGE('',*,*,#320,.T.);
#320 = EDGE_CURVE('',#104,#321,#323,.T.);
#321 = VERTEX_POINT('',#322);
#322 = CARTESIAN_POINT('',(-13.5,-6.2,-7.));
#323 = LINE('',#324,#325);
#324 = CARTESIAN_POINT('',(-13.5,-5.45,-7.75));
#325 = VECTOR('',#326,1.);
#326 = DIRECTION('',(0.,-0.707106781187,0.707106781187));
#327 = ORIENTED_EDGE('',*,*,#328,.F.);
#328 = EDGE_CURVE('',#312,#321,#329,.T.);
#329 = LINE('',#330,#331);
#330 = CARTESIAN_POINT('',(-19.,-6.2,-7.));
#331 = VECTOR('',#332,1.);
#332 = DIRECTION('',(1.,0.,0.));
#333 = PLANE('',#334);
#334 = AXIS2_PLACEMENT_3D('',#335,#336,#337);
#335 = CARTESIAN_POINT('',(-19.,-5.7,-7.5));
#336 = DIRECTION('',(0.,0.707106781187,0.707106781187));
#337 = DIRECTION('',(-1.,0.,0.));
#338 = ADVANCED_FACE('',(#339),#357,.F.);
#339 = FACE_BOUND('',#340,.T.);
#340 = EDGE_LOOP('',(#341,#349,#350,#351));
#341 = ORIENTED_EDGE('',*,*,#342,.T.);
#342 = EDGE_CURVE('',#343,#48,#345,.T.);
#343 = VERTEX_POINT('',#344);
#344 = CARTESIAN_POINT('',(12.5,-13.2,-7.));
#345 = LINE('',#346,#347);
#346 = CARTESIAN_POINT('',(12.25,-13.2,-7.25));
#347 = VECTOR('',#348,1.);
#348 = DIRECTION('',(-0.707106781187,-1.25E-15,-0.707106781187));
#349 = ORIENTED_EDGE('',*,*,#47,.T.);
#350 = ORIENTED_EDGE('',*,*,#287,.T.);
#351 = ORIENTED_EDGE('',*,*,#352,.F.);
#352 = EDGE_CURVE('',#343,#288,#353,.T.);
#353 = LINE('',#354,#355);
#354 = CARTESIAN_POINT('',(12.5,-14.2,-7.));
#355 = VECTOR('',#356,1.);
#356 = DIRECTION('',(0.,1.,-2.6E-16));
#357 = PLANE('',#358);
#358 = AXIS2_PLACEMENT_3D('',#359,#360,#361);
#359 = CARTESIAN_POINT('',(12.,-14.2,-7.5));
#360 = DIRECTION('',(-0.707106781187,2.E-16,0.707106781187));
#361 = DIRECTION('',(-1.142135623731E-17,-1.,2.714213562373E-16));
#362 = ADVANCED_FACE('',(#363),#381,.T.);
#363 = FACE_BOUND('',#364,.T.);
#364 = EDGE_LOOP('',(#365,#366,#367,#375));
#365 = ORIENTED_EDGE('',*,*,#320,.F.);
#366 = ORIENTED_EDGE('',*,*,#103,.T.);
#367 = ORIENTED_EDGE('',*,*,#368,.T.);
#368 = EDGE_CURVE('',#96,#369,#371,.T.);
#369 = VERTEX_POINT('',#370);
#370 = CARTESIAN_POINT('',(-12.5,-7.2,-7.));
#371 = LINE('',#372,#373);
#372 = CARTESIAN_POINT('',(-12.25,-7.2,-7.25));
#373 = VECTOR('',#374,1.);
#374 = DIRECTION('',(-0.707106781187,4.8E-16,0.707106781187));
#375 = ORIENTED_EDGE('',*,*,#376,.F.);
#376 = EDGE_CURVE('',#321,#369,#377,.T.);
#377 = LINE('',#378,#379);
#378 = CARTESIAN_POINT('',(-13.5,-6.2,-7.));
#379 = VECTOR('',#380,1.);
#380 = DIRECTION('',(0.707106781187,-0.707106781187,-5.8E-16));
#381 = PLANE('',#382);
#382 = AXIS2_PLACEMENT_3D('',#383,#384,#385);
#383 = CARTESIAN_POINT('',(-13.5,-5.2,-8.));
#384 = DIRECTION('',(-0.57735026919,-0.57735026919,-0.57735026919));
#385 = DIRECTION('',(0.707106781187,-0.707106781187,2.775557561563E-17)
  );
#386 = ADVANCED_FACE('',(#387),#412,.F.);
#387 = FACE_BOUND('',#388,.T.);
#388 = EDGE_LOOP('',(#389,#397,#398,#406));
#389 = ORIENTED_EDGE('',*,*,#390,.F.);
#390 = EDGE_CURVE('',#56,#391,#393,.T.);
#391 = VERTEX_POINT('',#392);
#392 = CARTESIAN_POINT('',(3.75,-14.2,-7.));
#393 = LINE('',#394,#395);
#394 = CARTESIAN_POINT('',(5.2,-12.75,-8.45));
#395 = VECTOR('',#396,1.);
#396 = DIRECTION('',(-0.57735026919,-0.57735026919,0.57735026919));
#397 = ORIENTED_EDGE('',*,*,#55,.T.);
#398 = ORIENTED_EDGE('',*,*,#399,.T.);
#399 = EDGE_CURVE('',#48,#400,#402,.T.);
#400 = VERTEX_POINT('',#401);
#401 = CARTESIAN_POINT('',(11.5,-14.2,-7.));
#402 = LINE('',#403,#404);
#403 = CARTESIAN_POINT('',(11.5,-13.7,-7.5));
#404 = VECTOR('',#405,1.);
#405 = DIRECTION('',(-1.25E-15,-0.707106781187,0.707106781187));
#406 = ORIENTED_EDGE('',*,*,#407,.F.);
#407 = EDGE_CURVE('',#391,#400,#408,.T.);
#408 = LINE('',#409,#410);
#409 = CARTESIAN_POINT('',(3.75,-14.2,-7.));
#410 = VECTOR('',#411,1.);
#411 = DIRECTION('',(1.,0.,0.));
#412 = PLANE('',#413);
#413 = AXIS2_PLACEMENT_3D('',#414,#415,#416);
#414 = CARTESIAN_POINT('',(3.75,-13.7,-7.5));
#415 = DIRECTION('',(0.,0.707106781187,0.707106781187));
#416 = DIRECTION('',(-1.,0.,0.));
#417 = ADVANCED_FACE('',(#418),#436,.F.);
#418 = FACE_BOUND('',#419,.T.);
#419 = EDGE_LOOP('',(#420,#421,#422,#430));
#420 = ORIENTED_EDGE('',*,*,#368,.F.);
#421 = ORIENTED_EDGE('',*,*,#95,.T.);
#422 = ORIENTED_EDGE('',*,*,#423,.T.);
#423 = EDGE_CURVE('',#88,#424,#426,.T.);
#424 = VERTEX_POINT('',#425);
#425 = CARTESIAN_POINT('',(-12.5,-13.2,-7.));
#426 = LINE('',#427,#428);
#427 = CARTESIAN_POINT('',(-12.,-13.2,-7.5));
#428 = VECTOR('',#429,1.);
#429 = DIRECTION('',(-0.707106781187,0.,0.707106781187));
#430 = ORIENTED_EDGE('',*,*,#431,.F.);
#431 = EDGE_CURVE('',#369,#424,#432,.T.);
#432 = LINE('',#433,#434);
#433 = CARTESIAN_POINT('',(-12.5,-6.2,-7.));
#434 = VECTOR('',#435,1.);
#435 = DIRECTION('',(0.,-1.,2.6E-16));
#436 = PLANE('',#437);
#437 = AXIS2_PLACEMENT_3D('',#438,#439,#440);
#438 = CARTESIAN_POINT('',(-12.,-6.2,-7.5));
#439 = DIRECTION('',(0.707106781187,1.8E-16,0.707106781187));
#440 = DIRECTION('',(2.720779386421E-18,1.,-2.572792206136E-16));
#441 = ADVANCED_FACE('',(#442),#460,.F.);
#442 = FACE_BOUND('',#443,.T.);
#443 = EDGE_LOOP('',(#444,#452,#453,#454));
#444 = ORIENTED_EDGE('',*,*,#445,.F.);
#445 = EDGE_CURVE('',#64,#446,#448,.T.);
#446 = VERTEX_POINT('',#447);
#447 = CARTESIAN_POINT('',(3.75,-7.5,-7.));
#448 = LINE('',#449,#450);
#449 = CARTESIAN_POINT('',(2.833333333333,-8.416666666667,
    -6.083333333333));
#450 = VECTOR('',#451,1.);
#451 = DIRECTION('',(-0.57735026919,-0.57735026919,0.57735026919));
#452 = ORIENTED_EDGE('',*,*,#63,.T.);
#453 = ORIENTED_EDGE('',*,*,#390,.T.);
#454 = ORIENTED_EDGE('',*,*,#455,.F.);
#455 = EDGE_CURVE('',#446,#391,#456,.T.);
#456 = LINE('',#457,#458);
#457 = CARTESIAN_POINT('',(3.75,-7.5,-7.));
#458 = VECTOR('',#459,1.);
#459 = DIRECTION('',(0.,-1.,2.2E-16));
#460 = PLANE('',#461);
#461 = AXIS2_PLACEMENT_3D('',#462,#463,#464);
#462 = CARTESIAN_POINT('',(4.25,-7.5,-7.5));
#463 = DIRECTION('',(0.707106781187,1.8E-16,0.707106781187));
#464 = DIRECTION('',(-1.727922061358E-17,1.,-2.372792206136E-16));
#465 = ADVANCED_FACE('',(#466),#491,.F.);
#466 = FACE_BOUND('',#467,.T.);
#467 = EDGE_LOOP('',(#468,#476,#477,#485));
#468 = ORIENTED_EDGE('',*,*,#469,.T.);
#469 = EDGE_CURVE('',#470,#88,#472,.T.);
#470 = VERTEX_POINT('',#471);
#471 = CARTESIAN_POINT('',(-11.5,-14.2,-7.));
#472 = LINE('',#473,#474);
#473 = CARTESIAN_POINT('',(-11.5,-13.95,-7.25));
#474 = VECTOR('',#475,1.);
#475 = DIRECTION('',(-5.8E-16,0.707106781187,-0.707106781187));
#476 = ORIENTED_EDGE('',*,*,#87,.T.);
#477 = ORIENTED_EDGE('',*,*,#478,.T.);
#478 = EDGE_CURVE('',#80,#479,#481,.T.);
#479 = VERTEX_POINT('',#480);
#480 = CARTESIAN_POINT('',(-3.75,-14.2,-7.));
#481 = LINE('',#482,#483);
#482 = CARTESIAN_POINT('',(-6.658333333333,-11.29166666666,
    -9.908333333333));
#483 = VECTOR('',#484,1.);
#484 = DIRECTION('',(0.57735026919,-0.57735026919,0.57735026919));
#485 = ORIENTED_EDGE('',*,*,#486,.F.);
#486 = EDGE_CURVE('',#470,#479,#487,.T.);
#487 = LINE('',#488,#489);
#488 = CARTESIAN_POINT('',(-12.5,-14.2,-7.));
#489 = VECTOR('',#490,1.);
#490 = DIRECTION('',(1.,0.,0.));
#491 = PLANE('',#492);
#492 = AXIS2_PLACEMENT_3D('',#493,#494,#495);
#493 = CARTESIAN_POINT('',(-12.5,-13.7,-7.5));
#494 = DIRECTION('',(0.,0.707106781187,0.707106781187));
#495 = DIRECTION('',(-1.,0.,0.));
#496 = ADVANCED_FACE('',(#497),#515,.F.);
#497 = FACE_BOUND('',#498,.T.);
#498 = EDGE_LOOP('',(#499,#507,#508,#509));
#499 = ORIENTED_EDGE('',*,*,#500,.F.);
#500 = EDGE_CURVE('',#72,#501,#503,.T.);
#501 = VERTEX_POINT('',#502);
#502 = CARTESIAN_POINT('',(-3.75,-7.5,-7.));
#503 = LINE('',#504,#505);
#504 = CARTESIAN_POINT('',(-4.083333333333,-7.166666666667,
    -7.333333333333));
#505 = VECTOR('',#506,1.);
#506 = DIRECTION('',(0.57735026919,-0.57735026919,0.57735026919));
#507 = ORIENTED_EDGE('',*,*,#71,.T.);
#508 = ORIENTED_EDGE('',*,*,#445,.T.);
#509 = ORIENTED_EDGE('',*,*,#510,.F.);
#510 = EDGE_CURVE('',#501,#446,#511,.T.);
#511 = LINE('',#512,#513);
#512 = CARTESIAN_POINT('',(-3.75,-7.5,-7.));
#513 = VECTOR('',#514,1.);
#514 = DIRECTION('',(1.,0.,0.));
#515 = PLANE('',#516);
#516 = AXIS2_PLACEMENT_3D('',#517,#518,#519);
#517 = CARTESIAN_POINT('',(-3.75,-7.,-7.5));
#518 = DIRECTION('',(0.,0.707106781187,0.707106781187));
#519 = DIRECTION('',(-1.,0.,0.));
#520 = ADVANCED_FACE('',(#521),#532,.F.);
#521 = FACE_BOUND('',#522,.F.);
#522 = EDGE_LOOP('',(#523,#524,#525,#526));
#523 = ORIENTED_EDGE('',*,*,#500,.F.);
#524 = ORIENTED_EDGE('',*,*,#79,.T.);
#525 = ORIENTED_EDGE('',*,*,#478,.T.);
#526 = ORIENTED_EDGE('',*,*,#527,.F.);
#527 = EDGE_CURVE('',#501,#479,#528,.T.);
#528 = LINE('',#529,#530);
#529 = CARTESIAN_POINT('',(-3.75,-7.5,-7.));
#530 = VECTOR('',#531,1.);
#531 = DIRECTION('',(0.,-1.,2.2E-16));
#532 = PLANE('',#533);
#533 = AXIS2_PLACEMENT_3D('',#534,#535,#536);
#534 = CARTESIAN_POINT('',(-4.25,-7.5,-7.5));
#535 = DIRECTION('',(-0.707106781187,1.4E-16,0.707106781187));
#536 = DIRECTION('',(1.100505063388E-17,-1.,2.089949493661E-16));
#537 = ADVANCED_FACE('',(#538),#557,.F.);
#538 = FACE_BOUND('',#539,.T.);
#539 = EDGE_LOOP('',(#540,#548,#549,#550));
#540 = ORIENTED_EDGE('',*,*,#541,.F.);
#541 = EDGE_CURVE('',#136,#542,#544,.T.);
#542 = VERTEX_POINT('',#543);
#543 = CARTESIAN_POINT('',(14.1,-2.E-15,-6.2));
#544 = LINE('',#545,#546);
#545 = CARTESIAN_POINT('',(14.1,-1.61E-15,-6.2));
#546 = VECTOR('',#547,1.);
#547 = DIRECTION('',(-0.627329537873,3.2E-16,0.778753909083));
#548 = ORIENTED_EDGE('',*,*,#135,.T.);
#549 = ORIENTED_EDGE('',*,*,#541,.T.);
#550 = ORIENTED_EDGE('',*,*,#551,.F.);
#551 = EDGE_CURVE('',#542,#542,#552,.T.);
#552 = CIRCLE('',#553,1.6);
#553 = AXIS2_PLACEMENT_3D('',#554,#555,#556);
#554 = CARTESIAN_POINT('',(12.5,-1.31E-15,-6.2));
#555 = DIRECTION('',(0.,-2.6E-16,-1.));
#556 = DIRECTION('',(1.,-1.9E-16,4.94E-32));
#557 = CONICAL_SURFACE('',#558,1.6,0.678119307749);
#558 = AXIS2_PLACEMENT_3D('',#559,#560,#561);
#559 = CARTESIAN_POINT('',(12.5,-1.31E-15,-6.2));
#560 = DIRECTION('',(-0.,-2.6E-16,-1.));
#561 = DIRECTION('',(1.,-1.9E-16,4.94E-32));
#562 = ADVANCED_FACE('',(#563),#582,.F.);
#563 = FACE_BOUND('',#564,.T.);
#564 = EDGE_LOOP('',(#565,#573,#574,#575));
#565 = ORIENTED_EDGE('',*,*,#566,.F.);
#566 = EDGE_CURVE('',#147,#567,#569,.T.);
#567 = VERTEX_POINT('',#568);
#568 = CARTESIAN_POINT('',(-10.9,-2.E-15,-6.2));
#569 = LINE('',#570,#571);
#570 = CARTESIAN_POINT('',(-10.9,-1.61E-15,-6.2));
#571 = VECTOR('',#572,1.);
#572 = DIRECTION('',(-0.627329537873,3.2E-16,0.778753909083));
#573 = ORIENTED_EDGE('',*,*,#146,.T.);
#574 = ORIENTED_EDGE('',*,*,#566,.T.);
#575 = ORIENTED_EDGE('',*,*,#576,.F.);
#576 = EDGE_CURVE('',#567,#567,#577,.T.);
#577 = CIRCLE('',#578,1.6);
#578 = AXIS2_PLACEMENT_3D('',#579,#580,#581);
#579 = CARTESIAN_POINT('',(-12.5,-1.31E-15,-6.2));
#580 = DIRECTION('',(0.,-2.6E-16,-1.));
#581 = DIRECTION('',(1.,-1.9E-16,4.94E-32));
#582 = CONICAL_SURFACE('',#583,1.6,0.678119307749);
#583 = AXIS2_PLACEMENT_3D('',#584,#585,#586);
#584 = CARTESIAN_POINT('',(-12.5,-1.31E-15,-6.2));
#585 = DIRECTION('',(-0.,-2.6E-16,-1.));
#586 = DIRECTION('',(1.,-1.9E-16,4.94E-32));
#587 = ADVANCED_FACE('',(#588),#598,.T.);
#588 = FACE_BOUND('',#589,.T.);
#589 = EDGE_LOOP('',(#590,#591,#592));
#590 = ORIENTED_EDGE('',*,*,#163,.F.);
#591 = ORIENTED_EDGE('',*,*,#203,.T.);
#592 = ORIENTED_EDGE('',*,*,#593,.F.);
#593 = EDGE_CURVE('',#164,#204,#594,.T.);
#594 = LINE('',#595,#596);
#595 = CARTESIAN_POINT('',(18.5,6.,-7.));
#596 = VECTOR('',#597,1.);
#597 = DIRECTION('',(-0.707106781187,0.707106781187,6.7E-16));
#598 = PLANE('',#599);
#599 = AXIS2_PLACEMENT_3D('',#600,#601,#602);
#600 = CARTESIAN_POINT('',(18.,5.5,-8.));
#601 = DIRECTION('',(0.57735026919,0.57735026919,-0.57735026919));
#602 = DIRECTION('',(-0.707106781187,0.707106781187,0.));
#603 = ADVANCED_FACE('',(#604),#629,.T.);
#604 = FACE_BOUND('',#605,.T.);
#605 = EDGE_LOOP('',(#606,#616,#622,#623));
#606 = ORIENTED_EDGE('',*,*,#607,.T.);
#607 = EDGE_CURVE('',#608,#610,#612,.T.);
#608 = VERTEX_POINT('',#609);
#609 = CARTESIAN_POINT('',(19.,5.5,8.));
#610 = VERTEX_POINT('',#611);
#611 = CARTESIAN_POINT('',(19.,-5.2,8.));
#612 = LINE('',#613,#614);
#613 = CARTESIAN_POINT('',(19.,6.5,8.));
#614 = VECTOR('',#615,1.);
#615 = DIRECTION('',(0.,-1.,2.2E-16));
#616 = ORIENTED_EDGE('',*,*,#617,.T.);
#617 = EDGE_CURVE('',#610,#173,#618,.T.);
#618 = LINE('',#619,#620);
#619 = CARTESIAN_POINT('',(19.,-5.2,8.));
#620 = VECTOR('',#621,1.);
#621 = DIRECTION('',(-0.,-0.,-1.));
#622 = ORIENTED_EDGE('',*,*,#180,.F.);
#623 = ORIENTED_EDGE('',*,*,#624,.T.);
#624 = EDGE_CURVE('',#164,#608,#625,.T.);
#625 = LINE('',#626,#627);
#626 = CARTESIAN_POINT('',(19.,5.5,-8.));
#627 = VECTOR('',#628,1.);
#628 = DIRECTION('',(0.,0.,1.));
#629 = PLANE('',#630);
#630 = AXIS2_PLACEMENT_3D('',#631,#632,#633);
#631 = CARTESIAN_POINT('',(19.,-3.85,9.7E-16));
#632 = DIRECTION('',(1.,0.,0.));
#633 = DIRECTION('',(0.,0.,1.));
#634 = ADVANCED_FACE('',(#635),#645,.F.);
#635 = FACE_BOUND('',#636,.F.);
#636 = EDGE_LOOP('',(#637,#638,#639));
#637 = ORIENTED_EDGE('',*,*,#172,.F.);
#638 = ORIENTED_EDGE('',*,*,#234,.T.);
#639 = ORIENTED_EDGE('',*,*,#640,.F.);
#640 = EDGE_CURVE('',#173,#235,#641,.T.);
#641 = LINE('',#642,#643);
#642 = CARTESIAN_POINT('',(18.5,-5.7,-7.));
#643 = VECTOR('',#644,1.);
#644 = DIRECTION('',(-0.707106781187,-0.707106781187,0.));
#645 = PLANE('',#646);
#646 = AXIS2_PLACEMENT_3D('',#647,#648,#649);
#647 = CARTESIAN_POINT('',(18.,-5.2,-8.));
#648 = DIRECTION('',(-0.57735026919,0.57735026919,0.57735026919));
#649 = DIRECTION('',(-0.707106781187,-0.707106781187,0.));
#650 = ADVANCED_FACE('',(#651),#661,.T.);
#651 = FACE_BOUND('',#652,.T.);
#652 = EDGE_LOOP('',(#653,#654,#655));
#653 = ORIENTED_EDGE('',*,*,#194,.F.);
#654 = ORIENTED_EDGE('',*,*,#256,.T.);
#655 = ORIENTED_EDGE('',*,*,#656,.F.);
#656 = EDGE_CURVE('',#195,#257,#657,.T.);
#657 = LINE('',#658,#659);
#658 = CARTESIAN_POINT('',(-18.5,6.,-7.));
#659 = VECTOR('',#660,1.);
#660 = DIRECTION('',(-0.707106781187,-0.707106781187,5.8E-16));
#661 = PLANE('',#662);
#662 = AXIS2_PLACEMENT_3D('',#663,#664,#665);
#663 = CARTESIAN_POINT('',(-18.,5.5,-8.));
#664 = DIRECTION('',(-0.57735026919,0.57735026919,-0.57735026919));
#665 = DIRECTION('',(-0.707106781187,-0.707106781187,6.106226635438E-16)
  );
#666 = ADVANCED_FACE('',(#667),#724,.T.);
#667 = FACE_BOUND('',#668,.T.);
#668 = EDGE_LOOP('',(#669,#679,#685,#686,#694,#702,#710,#718));
#669 = ORIENTED_EDGE('',*,*,#670,.F.);
#670 = EDGE_CURVE('',#671,#673,#675,.T.);
#671 = VERTEX_POINT('',#672);
#672 = CARTESIAN_POINT('',(18.,6.5,8.));
#673 = VERTEX_POINT('',#674);
#674 = CARTESIAN_POINT('',(5.,6.5,8.));
#675 = LINE('',#676,#677);
#676 = CARTESIAN_POINT('',(19.,6.5,8.));
#677 = VECTOR('',#678,1.);
#678 = DIRECTION('',(-1.,0.,0.));
#679 = ORIENTED_EDGE('',*,*,#680,.F.);
#680 = EDGE_CURVE('',#204,#671,#681,.T.);
#681 = LINE('',#682,#683);
#682 = CARTESIAN_POINT('',(18.,6.5,-8.));
#683 = VECTOR('',#684,1.);
#684 = DIRECTION('',(0.,0.,1.));
#685 = ORIENTED_EDGE('',*,*,#211,.F.);
#686 = ORIENTED_EDGE('',*,*,#687,.F.);
#687 = EDGE_CURVE('',#688,#195,#690,.T.);
#688 = VERTEX_POINT('',#689);
#689 = CARTESIAN_POINT('',(-18.,6.5,8.));
#690 = LINE('',#691,#692);
#691 = CARTESIAN_POINT('',(-18.,6.5,8.));
#692 = VECTOR('',#693,1.);
#693 = DIRECTION('',(0.,0.,-1.));
#694 = ORIENTED_EDGE('',*,*,#695,.F.);
#695 = EDGE_CURVE('',#696,#688,#698,.T.);
#696 = VERTEX_POINT('',#697);
#697 = CARTESIAN_POINT('',(-5.,6.5,8.));
#698 = LINE('',#699,#700);
#699 = CARTESIAN_POINT('',(19.,6.5,8.));
#700 = VECTOR('',#701,1.);
#701 = DIRECTION('',(-1.,0.,0.));
#702 = ORIENTED_EDGE('',*,*,#703,.F.);
#703 = EDGE_CURVE('',#704,#696,#706,.T.);
#704 = VERTEX_POINT('',#705);
#705 = CARTESIAN_POINT('',(-5.,6.5,6.5));
#706 = LINE('',#707,#708);
#707 = CARTESIAN_POINT('',(-5.,6.5,6.5));
#708 = VECTOR('',#709,1.);
#709 = DIRECTION('',(0.,0.,1.));
#710 = ORIENTED_EDGE('',*,*,#711,.F.);
#711 = EDGE_CURVE('',#712,#704,#714,.T.);
#712 = VERTEX_POINT('',#713);
#713 = CARTESIAN_POINT('',(5.,6.5,6.5));
#714 = LINE('',#715,#716);
#715 = CARTESIAN_POINT('',(5.,6.5,6.5));
#716 = VECTOR('',#717,1.);
#717 = DIRECTION('',(-1.,0.,0.));
#718 = ORIENTED_EDGE('',*,*,#719,.F.);
#719 = EDGE_CURVE('',#673,#712,#720,.T.);
#720 = LINE('',#721,#722);
#721 = CARTESIAN_POINT('',(5.,6.5,8.));
#722 = VECTOR('',#723,1.);
#723 = DIRECTION('',(0.,0.,-1.));
#724 = PLANE('',#725);
#725 = AXIS2_PLACEMENT_3D('',#726,#727,#728);
#726 = CARTESIAN_POINT('',(0.,6.5,-1.E-15));
#727 = DIRECTION('',(0.,1.,0.));
#728 = DIRECTION('',(0.,0.,1.));
#729 = ADVANCED_FACE('',(#730),#755,.F.);
#730 = FACE_BOUND('',#731,.F.);
#731 = EDGE_LOOP('',(#732,#742,#748,#749));
#732 = ORIENTED_EDGE('',*,*,#733,.F.);
#733 = EDGE_CURVE('',#734,#736,#738,.T.);
#734 = VERTEX_POINT('',#735);
#735 = CARTESIAN_POINT('',(18.,-6.2,8.));
#736 = VERTEX_POINT('',#737);
#737 = CARTESIAN_POINT('',(13.5,-6.2,8.));
#738 = LINE('',#739,#740);
#739 = CARTESIAN_POINT('',(19.,-6.2,8.));
#740 = VECTOR('',#741,1.);
#741 = DIRECTION('',(-1.,0.,0.));
#742 = ORIENTED_EDGE('',*,*,#743,.T.);
#743 = EDGE_CURVE('',#734,#235,#744,.T.);
#744 = LINE('',#745,#746);
#745 = CARTESIAN_POINT('',(18.,-6.2,8.));
#746 = VECTOR('',#747,1.);
#747 = DIRECTION('',(-0.,-0.,-1.));
#748 = ORIENTED_EDGE('',*,*,#242,.F.);
#749 = ORIENTED_EDGE('',*,*,#750,.F.);
#750 = EDGE_CURVE('',#736,#226,#751,.T.);
#751 = LINE('',#752,#753);
#752 = CARTESIAN_POINT('',(13.5,-6.2,8.));
#753 = VECTOR('',#754,1.);
#754 = DIRECTION('',(-0.,-0.,-1.));
#755 = PLANE('',#756);
#756 = AXIS2_PLACEMENT_3D('',#757,#758,#759);
#757 = CARTESIAN_POINT('',(19.,-6.2,8.));
#758 = DIRECTION('',(0.,1.,0.));
#759 = DIRECTION('',(-1.,0.,0.));
#760 = ADVANCED_FACE('',(#761),#786,.T.);
#761 = FACE_BOUND('',#762,.T.);
#762 = EDGE_LOOP('',(#763,#773,#779,#780));
#763 = ORIENTED_EDGE('',*,*,#764,.F.);
#764 = EDGE_CURVE('',#765,#767,#769,.T.);
#765 = VERTEX_POINT('',#766);
#766 = CARTESIAN_POINT('',(-19.,5.5,8.));
#767 = VERTEX_POINT('',#768);
#768 = CARTESIAN_POINT('',(-19.,-5.2,8.));
#769 = LINE('',#770,#771);
#770 = CARTESIAN_POINT('',(-19.,6.5,8.));
#771 = VECTOR('',#772,1.);
#772 = DIRECTION('',(0.,-1.,2.2E-16));
#773 = ORIENTED_EDGE('',*,*,#774,.T.);
#774 = EDGE_CURVE('',#765,#257,#775,.T.);
#775 = LINE('',#776,#777);
#776 = CARTESIAN_POINT('',(-19.,5.5,8.));
#777 = VECTOR('',#778,1.);
#778 = DIRECTION('',(0.,0.,-1.));
#779 = ORIENTED_EDGE('',*,*,#273,.T.);
#780 = ORIENTED_EDGE('',*,*,#781,.F.);
#781 = EDGE_CURVE('',#767,#266,#782,.T.);
#782 = LINE('',#783,#784);
#783 = CARTESIAN_POINT('',(-19.,-5.2,8.));
#784 = VECTOR('',#785,1.);
#785 = DIRECTION('',(-0.,-0.,-1.));
#786 = PLANE('',#787);
#787 = AXIS2_PLACEMENT_3D('',#788,#789,#790);
#788 = CARTESIAN_POINT('',(-19.,-3.85,1.02E-15));
#789 = DIRECTION('',(-1.,-0.,-0.));
#790 = DIRECTION('',(0.,0.,-1.));
#791 = ADVANCED_FACE('',(#792),#802,.T.);
#792 = FACE_BOUND('',#793,.T.);
#793 = EDGE_LOOP('',(#794,#795,#796));
#794 = ORIENTED_EDGE('',*,*,#265,.F.);
#795 = ORIENTED_EDGE('',*,*,#311,.T.);
#796 = ORIENTED_EDGE('',*,*,#797,.F.);
#797 = EDGE_CURVE('',#266,#312,#798,.T.);
#798 = LINE('',#799,#800);
#799 = CARTESIAN_POINT('',(-18.5,-5.7,-7.));
#800 = VECTOR('',#801,1.);
#801 = DIRECTION('',(0.707106781187,-0.707106781187,-1.35E-15));
#802 = PLANE('',#803);
#803 = AXIS2_PLACEMENT_3D('',#804,#805,#806);
#804 = CARTESIAN_POINT('',(-18.,-5.2,-8.));
#805 = DIRECTION('',(-0.57735026919,-0.57735026919,-0.57735026919));
#806 = DIRECTION('',(0.707106781187,-0.707106781187,0.));
#807 = ADVANCED_FACE('',(#808),#826,.F.);
#808 = FACE_BOUND('',#809,.T.);
#809 = EDGE_LOOP('',(#810,#818,#824,#825));
#810 = ORIENTED_EDGE('',*,*,#811,.F.);
#811 = EDGE_CURVE('',#812,#736,#814,.T.);
#812 = VERTEX_POINT('',#813);
#813 = CARTESIAN_POINT('',(12.5,-7.2,8.));
#814 = LINE('',#815,#816);
#815 = CARTESIAN_POINT('',(10.379262232416,-9.320737767584,8.));
#816 = VECTOR('',#817,1.);
#817 = DIRECTION('',(0.707106781187,0.707106781187,-1.6E-16));
#818 = ORIENTED_EDGE('',*,*,#819,.T.);
#819 = EDGE_CURVE('',#812,#288,#820,.T.);
#820 = LINE('',#821,#822);
#821 = CARTESIAN_POINT('',(12.5,-7.2,8.));
#822 = VECTOR('',#823,1.);
#823 = DIRECTION('',(-0.,-0.,-1.));
#824 = ORIENTED_EDGE('',*,*,#297,.T.);
#825 = ORIENTED_EDGE('',*,*,#750,.F.);
#826 = PLANE('',#827);
#827 = AXIS2_PLACEMENT_3D('',#828,#829,#830);
#828 = CARTESIAN_POINT('',(13.,-6.7,8.));
#829 = DIRECTION('',(-0.707106781187,0.707106781187,0.));
#830 = DIRECTION('',(0.,0.,1.));
#831 = ADVANCED_FACE('',(#832),#857,.F.);
#832 = FACE_BOUND('',#833,.F.);
#833 = EDGE_LOOP('',(#834,#844,#850,#851));
#834 = ORIENTED_EDGE('',*,*,#835,.F.);
#835 = EDGE_CURVE('',#836,#838,#840,.T.);
#836 = VERTEX_POINT('',#837);
#837 = CARTESIAN_POINT('',(-13.5,-6.2,8.));
#838 = VERTEX_POINT('',#839);
#839 = CARTESIAN_POINT('',(-18.,-6.2,8.));
#840 = LINE('',#841,#842);
#841 = CARTESIAN_POINT('',(-12.5,-6.2,8.));
#842 = VECTOR('',#843,1.);
#843 = DIRECTION('',(-1.,0.,0.));
#844 = ORIENTED_EDGE('',*,*,#845,.T.);
#845 = EDGE_CURVE('',#836,#321,#846,.T.);
#846 = LINE('',#847,#848);
#847 = CARTESIAN_POINT('',(-13.5,-6.2,8.));
#848 = VECTOR('',#849,1.);
#849 = DIRECTION('',(-0.,-0.,-1.));
#850 = ORIENTED_EDGE('',*,*,#328,.F.);
#851 = ORIENTED_EDGE('',*,*,#852,.F.);
#852 = EDGE_CURVE('',#838,#312,#853,.T.);
#853 = LINE('',#854,#855);
#854 = CARTESIAN_POINT('',(-18.,-6.2,8.));
#855 = VECTOR('',#856,1.);
#856 = DIRECTION('',(-0.,-0.,-1.));
#857 = PLANE('',#858);
#858 = AXIS2_PLACEMENT_3D('',#859,#860,#861);
#859 = CARTESIAN_POINT('',(-12.5,-6.2,8.));
#860 = DIRECTION('',(0.,1.,0.));
#861 = DIRECTION('',(-1.,0.,0.));
#862 = ADVANCED_FACE('',(#863),#873,.T.);
#863 = FACE_BOUND('',#864,.T.);
#864 = EDGE_LOOP('',(#865,#866,#872));
#865 = ORIENTED_EDGE('',*,*,#342,.F.);
#866 = ORIENTED_EDGE('',*,*,#867,.T.);
#867 = EDGE_CURVE('',#343,#400,#868,.T.);
#868 = LINE('',#869,#870);
#869 = CARTESIAN_POINT('',(12.25,-13.45,-7.));
#870 = VECTOR('',#871,1.);
#871 = DIRECTION('',(-0.707106781187,-0.707106781187,-0.));
#872 = ORIENTED_EDGE('',*,*,#399,.F.);
#873 = PLANE('',#874);
#874 = AXIS2_PLACEMENT_3D('',#875,#876,#877);
#875 = CARTESIAN_POINT('',(12.5,-13.2,-7.));
#876 = DIRECTION('',(0.57735026919,-0.57735026919,-0.57735026919));
#877 = DIRECTION('',(0.,-0.707106781187,0.707106781187));
#878 = ADVANCED_FACE('',(#879,#897,#908),#919,.F.);
#879 = FACE_BOUND('',#880,.F.);
#880 = EDGE_LOOP('',(#881,#889,#890,#891));
#881 = ORIENTED_EDGE('',*,*,#882,.F.);
#882 = EDGE_CURVE('',#812,#883,#885,.T.);
#883 = VERTEX_POINT('',#884);
#884 = CARTESIAN_POINT('',(12.5,-13.2,8.));
#885 = LINE('',#886,#887);
#886 = CARTESIAN_POINT('',(12.5,-6.2,8.));
#887 = VECTOR('',#888,1.);
#888 = DIRECTION('',(0.,-1.,0.));
#889 = ORIENTED_EDGE('',*,*,#819,.T.);
#890 = ORIENTED_EDGE('',*,*,#352,.F.);
#891 = ORIENTED_EDGE('',*,*,#892,.F.);
#892 = EDGE_CURVE('',#883,#343,#893,.T.);
#893 = LINE('',#894,#895);
#894 = CARTESIAN_POINT('',(12.5,-13.2,8.));
#895 = VECTOR('',#896,1.);
#896 = DIRECTION('',(-0.,-0.,-1.));
#897 = FACE_BOUND('',#898,.F.);
#898 = EDGE_LOOP('',(#899));
#899 = ORIENTED_EDGE('',*,*,#900,.F.);
#900 = EDGE_CURVE('',#901,#901,#903,.T.);
#901 = VERTEX_POINT('',#902);
#902 = CARTESIAN_POINT('',(12.5,-12.6,-3.18));
#903 = CIRCLE('',#904,1.5);
#904 = AXIS2_PLACEMENT_3D('',#905,#906,#907);
#905 = CARTESIAN_POINT('',(12.5,-11.1,-3.18));
#906 = DIRECTION('',(-1.,0.,0.));
#907 = DIRECTION('',(0.,-1.,0.));
#908 = FACE_BOUND('',#909,.F.);
#909 = EDGE_LOOP('',(#910));
#910 = ORIENTED_EDGE('',*,*,#911,.F.);
#911 = EDGE_CURVE('',#912,#912,#914,.T.);
#912 = VERTEX_POINT('',#913);
#913 = CARTESIAN_POINT('',(12.5,-12.6,3.62));
#914 = CIRCLE('',#915,1.5);
#915 = AXIS2_PLACEMENT_3D('',#916,#917,#918);
#916 = CARTESIAN_POINT('',(12.5,-11.1,3.62));
#917 = DIRECTION('',(-1.,0.,0.));
#918 = DIRECTION('',(0.,-1.,0.));
#919 = PLANE('',#920);
#920 = AXIS2_PLACEMENT_3D('',#921,#922,#923);
#921 = CARTESIAN_POINT('',(12.5,-6.2,8.));
#922 = DIRECTION('',(-1.,0.,0.));
#923 = DIRECTION('',(0.,-1.,0.));
#924 = ADVANCED_FACE('',(#925),#943,.F.);
#925 = FACE_BOUND('',#926,.T.);
#926 = EDGE_LOOP('',(#927,#935,#936,#937));
#927 = ORIENTED_EDGE('',*,*,#928,.F.);
#928 = EDGE_CURVE('',#836,#929,#931,.T.);
#929 = VERTEX_POINT('',#930);
#930 = CARTESIAN_POINT('',(-12.5,-7.2,8.));
#931 = LINE('',#932,#933);
#932 = CARTESIAN_POINT('',(-10.37926223241,-9.320737767584,8.));
#933 = VECTOR('',#934,1.);
#934 = DIRECTION('',(0.707106781187,-0.707106781187,1.6E-16));
#935 = ORIENTED_EDGE('',*,*,#845,.T.);
#936 = ORIENTED_EDGE('',*,*,#376,.T.);
#937 = ORIENTED_EDGE('',*,*,#938,.F.);
#938 = EDGE_CURVE('',#929,#369,#939,.T.);
#939 = LINE('',#940,#941);
#940 = CARTESIAN_POINT('',(-12.5,-7.2,8.));
#941 = VECTOR('',#942,1.);
#942 = DIRECTION('',(-0.,-0.,-1.));
#943 = PLANE('',#944);
#944 = AXIS2_PLACEMENT_3D('',#945,#946,#947);
#945 = CARTESIAN_POINT('',(-13.,-6.7,8.));
#946 = DIRECTION('',(0.707106781187,0.707106781187,0.));
#947 = DIRECTION('',(0.,0.,1.));
#948 = ADVANCED_FACE('',(#949),#990,.F.);
#949 = FACE_BOUND('',#950,.F.);
#950 = EDGE_LOOP('',(#951,#961,#967,#968,#976,#984));
#951 = ORIENTED_EDGE('',*,*,#952,.F.);
#952 = EDGE_CURVE('',#953,#955,#957,.T.);
#953 = VERTEX_POINT('',#954);
#954 = CARTESIAN_POINT('',(11.5,-14.2,8.));
#955 = VERTEX_POINT('',#956);
#956 = CARTESIAN_POINT('',(5.,-14.2,8.));
#957 = LINE('',#958,#959);
#958 = CARTESIAN_POINT('',(19.,-14.2,8.));
#959 = VECTOR('',#960,1.);
#960 = DIRECTION('',(-1.,0.,0.));
#961 = ORIENTED_EDGE('',*,*,#962,.T.);
#962 = EDGE_CURVE('',#953,#400,#963,.T.);
#963 = LINE('',#964,#965);
#964 = CARTESIAN_POINT('',(11.5,-14.2,8.));
#965 = VECTOR('',#966,1.);
#966 = DIRECTION('',(-0.,-0.,-1.));
#967 = ORIENTED_EDGE('',*,*,#407,.F.);
#968 = ORIENTED_EDGE('',*,*,#969,.F.);
#969 = EDGE_CURVE('',#970,#391,#972,.T.);
#970 = VERTEX_POINT('',#971);
#971 = CARTESIAN_POINT('',(3.75,-14.2,6.5));
#972 = LINE('',#973,#974);
#973 = CARTESIAN_POINT('',(3.75,-14.2,8.));
#974 = VECTOR('',#975,1.);
#975 = DIRECTION('',(0.,0.,-1.));
#976 = ORIENTED_EDGE('',*,*,#977,.F.);
#977 = EDGE_CURVE('',#978,#970,#980,.T.);
#978 = VERTEX_POINT('',#979);
#979 = CARTESIAN_POINT('',(5.,-14.2,6.5));
#980 = LINE('',#981,#982);
#981 = CARTESIAN_POINT('',(2.5,-14.2,6.5));
#982 = VECTOR('',#983,1.);
#983 = DIRECTION('',(-1.,0.,0.));
#984 = ORIENTED_EDGE('',*,*,#985,.F.);
#985 = EDGE_CURVE('',#955,#978,#986,.T.);
#986 = LINE('',#987,#988);
#987 = CARTESIAN_POINT('',(5.,-14.2,4.));
#988 = VECTOR('',#989,1.);
#989 = DIRECTION('',(0.,0.,-1.));
#990 = PLANE('',#991);
#991 = AXIS2_PLACEMENT_3D('',#992,#993,#994);
#992 = CARTESIAN_POINT('',(0.,-14.2,2.71E-15));
#993 = DIRECTION('',(0.,1.,0.));
#994 = DIRECTION('',(0.,0.,1.));
#995 = ADVANCED_FACE('',(#996),#1078,.F.);
#996 = FACE_BOUND('',#997,.F.);
#997 = EDGE_LOOP('',(#998,#1006,#1014,#1022,#1030,#1038,#1046,#1054,
    #1062,#1070,#1076,#1077));
#998 = ORIENTED_EDGE('',*,*,#999,.F.);
#999 = EDGE_CURVE('',#1000,#929,#1002,.T.);
#1000 = VERTEX_POINT('',#1001);
#1001 = CARTESIAN_POINT('',(-12.5,-13.2,8.));
#1002 = LINE('',#1003,#1004);
#1003 = CARTESIAN_POINT('',(-12.5,-14.2,8.));
#1004 = VECTOR('',#1005,1.);
#1005 = DIRECTION('',(0.,1.,0.));
#1006 = ORIENTED_EDGE('',*,*,#1007,.T.);
#1007 = EDGE_CURVE('',#1000,#1008,#1010,.T.);
#1008 = VERTEX_POINT('',#1009);
#1009 = CARTESIAN_POINT('',(-12.5,-13.2,6.37));
#1010 = LINE('',#1011,#1012);
#1011 = CARTESIAN_POINT('',(-12.5,-13.2,8.));
#1012 = VECTOR('',#1013,1.);
#1013 = DIRECTION('',(-0.,-0.,-1.));
#1014 = ORIENTED_EDGE('',*,*,#1015,.F.);
#1015 = EDGE_CURVE('',#1016,#1008,#1018,.T.);
#1016 = VERTEX_POINT('',#1017);
#1017 = CARTESIAN_POINT('',(-12.5,-8.35,6.37));
#1018 = LINE('',#1019,#1020);
#1019 = CARTESIAN_POINT('',(-12.5,-13.85,6.37));
#1020 = VECTOR('',#1021,1.);
#1021 = DIRECTION('',(0.,-1.,0.));
#1022 = ORIENTED_EDGE('',*,*,#1023,.T.);
#1023 = EDGE_CURVE('',#1016,#1024,#1026,.T.);
#1024 = VERTEX_POINT('',#1025);
#1025 = CARTESIAN_POINT('',(-12.5,-8.35,0.87));
#1026 = LINE('',#1027,#1028);
#1027 = CARTESIAN_POINT('',(-12.5,-8.35,6.37));
#1028 = VECTOR('',#1029,1.);
#1029 = DIRECTION('',(0.,0.,-1.));
#1030 = ORIENTED_EDGE('',*,*,#1031,.T.);
#1031 = EDGE_CURVE('',#1024,#1032,#1034,.T.);
#1032 = VERTEX_POINT('',#1033);
#1033 = CARTESIAN_POINT('',(-12.5,-13.2,0.87));
#1034 = LINE('',#1035,#1036);
#1035 = CARTESIAN_POINT('',(-12.5,-8.35,0.87));
#1036 = VECTOR('',#1037,1.);
#1037 = DIRECTION('',(0.,-1.,0.));
#1038 = ORIENTED_EDGE('',*,*,#1039,.T.);
#1039 = EDGE_CURVE('',#1032,#1040,#1042,.T.);
#1040 = VERTEX_POINT('',#1041);
#1041 = CARTESIAN_POINT('',(-12.5,-13.2,-0.43));
#1042 = LINE('',#1043,#1044);
#1043 = CARTESIAN_POINT('',(-12.5,-13.2,0.87));
#1044 = VECTOR('',#1045,1.);
#1045 = DIRECTION('',(-0.,-0.,-1.));
#1046 = ORIENTED_EDGE('',*,*,#1047,.F.);
#1047 = EDGE_CURVE('',#1048,#1040,#1050,.T.);
#1048 = VERTEX_POINT('',#1049);
#1049 = CARTESIAN_POINT('',(-12.5,-8.35,-0.43));
#1050 = LINE('',#1051,#1052);
#1051 = CARTESIAN_POINT('',(-12.5,-13.85,-0.43));
#1052 = VECTOR('',#1053,1.);
#1053 = DIRECTION('',(0.,-1.,0.));
#1054 = ORIENTED_EDGE('',*,*,#1055,.T.);
#1055 = EDGE_CURVE('',#1048,#1056,#1058,.T.);
#1056 = VERTEX_POINT('',#1057);
#1057 = CARTESIAN_POINT('',(-12.5,-8.35,-5.93));
#1058 = LINE('',#1059,#1060);
#1059 = CARTESIAN_POINT('',(-12.5,-8.35,-0.43));
#1060 = VECTOR('',#1061,1.);
#1061 = DIRECTION('',(0.,0.,-1.));
#1062 = ORIENTED_EDGE('',*,*,#1063,.T.);
#1063 = EDGE_CURVE('',#1056,#1064,#1066,.T.);
#1064 = VERTEX_POINT('',#1065);
#1065 = CARTESIAN_POINT('',(-12.5,-13.2,-5.93));
#1066 = LINE('',#1067,#1068);
#1067 = CARTESIAN_POINT('',(-12.5,-8.35,-5.93));
#1068 = VECTOR('',#1069,1.);
#1069 = DIRECTION('',(0.,-1.,0.));
#1070 = ORIENTED_EDGE('',*,*,#1071,.T.);
#1071 = EDGE_CURVE('',#1064,#424,#1072,.T.);
#1072 = LINE('',#1073,#1074);
#1073 = CARTESIAN_POINT('',(-12.5,-13.2,-5.93));
#1074 = VECTOR('',#1075,1.);
#1075 = DIRECTION('',(-0.,-0.,-1.));
#1076 = ORIENTED_EDGE('',*,*,#431,.F.);
#1077 = ORIENTED_EDGE('',*,*,#938,.F.);
#1078 = PLANE('',#1079);
#1079 = AXIS2_PLACEMENT_3D('',#1080,#1081,#1082);
#1080 = CARTESIAN_POINT('',(-12.5,-14.2,8.));
#1081 = DIRECTION('',(1.,0.,0.));
#1082 = DIRECTION('',(0.,1.,0.));
#1083 = ADVANCED_FACE('',(#1084),#1094,.T.);
#1084 = FACE_BOUND('',#1085,.T.);
#1085 = EDGE_LOOP('',(#1086,#1087,#1093));
#1086 = ORIENTED_EDGE('',*,*,#469,.F.);
#1087 = ORIENTED_EDGE('',*,*,#1088,.T.);
#1088 = EDGE_CURVE('',#470,#424,#1089,.T.);
#1089 = LINE('',#1090,#1091);
#1090 = CARTESIAN_POINT('',(-11.75,-13.95,-7.));
#1091 = VECTOR('',#1092,1.);
#1092 = DIRECTION('',(-0.707106781187,0.707106781187,-5.8E-16));
#1093 = ORIENTED_EDGE('',*,*,#423,.F.);
#1094 = PLANE('',#1095);
#1095 = AXIS2_PLACEMENT_3D('',#1096,#1097,#1098);
#1096 = CARTESIAN_POINT('',(-11.5,-14.2,-7.));
#1097 = DIRECTION('',(-0.57735026919,-0.57735026919,-0.57735026919));
#1098 = DIRECTION('',(-0.707106781187,0.,0.707106781187));
#1099 = ADVANCED_FACE('',(#1100,#1118,#1129),#1140,.F.);
#1100 = FACE_BOUND('',#1101,.F.);
#1101 = EDGE_LOOP('',(#1102,#1110,#1116,#1117));
#1102 = ORIENTED_EDGE('',*,*,#1103,.F.);
#1103 = EDGE_CURVE('',#1104,#446,#1106,.T.);
#1104 = VERTEX_POINT('',#1105);
#1105 = CARTESIAN_POINT('',(3.75,-7.5,6.5));
#1106 = LINE('',#1107,#1108);
#1107 = CARTESIAN_POINT('',(3.75,-7.5,8.));
#1108 = VECTOR('',#1109,1.);
#1109 = DIRECTION('',(0.,0.,-1.));
#1110 = ORIENTED_EDGE('',*,*,#1111,.F.);
#1111 = EDGE_CURVE('',#970,#1104,#1112,.T.);
#1112 = LINE('',#1113,#1114);
#1113 = CARTESIAN_POINT('',(3.75,-0.5,6.5));
#1114 = VECTOR('',#1115,1.);
#1115 = DIRECTION('',(0.,1.,-2.2E-16));
#1116 = ORIENTED_EDGE('',*,*,#969,.T.);
#1117 = ORIENTED_EDGE('',*,*,#455,.F.);
#1118 = FACE_BOUND('',#1119,.F.);
#1119 = EDGE_LOOP('',(#1120));
#1120 = ORIENTED_EDGE('',*,*,#1121,.T.);
#1121 = EDGE_CURVE('',#1122,#1122,#1124,.T.);
#1122 = VERTEX_POINT('',#1123);
#1123 = CARTESIAN_POINT('',(3.75,-12.6,3.62));
#1124 = CIRCLE('',#1125,1.5);
#1125 = AXIS2_PLACEMENT_3D('',#1126,#1127,#1128);
#1126 = CARTESIAN_POINT('',(3.75,-11.1,3.62));
#1127 = DIRECTION('',(-1.,0.,0.));
#1128 = DIRECTION('',(0.,-1.,0.));
#1129 = FACE_BOUND('',#1130,.F.);
#1130 = EDGE_LOOP('',(#1131));
#1131 = ORIENTED_EDGE('',*,*,#1132,.T.);
#1132 = EDGE_CURVE('',#1133,#1133,#1135,.T.);
#1133 = VERTEX_POINT('',#1134);
#1134 = CARTESIAN_POINT('',(3.75,-12.6,-3.18));
#1135 = CIRCLE('',#1136,1.5);
#1136 = AXIS2_PLACEMENT_3D('',#1137,#1138,#1139);
#1137 = CARTESIAN_POINT('',(3.75,-11.1,-3.18));
#1138 = DIRECTION('',(-1.,0.,0.));
#1139 = DIRECTION('',(0.,-1.,0.));
#1140 = PLANE('',#1141);
#1141 = AXIS2_PLACEMENT_3D('',#1142,#1143,#1144);
#1142 = CARTESIAN_POINT('',(3.75,-7.5,8.));
#1143 = DIRECTION('',(1.,0.,0.));
#1144 = DIRECTION('',(0.,-2.2E-16,-1.));
#1145 = ADVANCED_FACE('',(#1146),#1251,.F.);
#1146 = FACE_BOUND('',#1147,.F.);
#1147 = EDGE_LOOP('',(#1148,#1158,#1166,#1174,#1182,#1190,#1196,#1197,
    #1205,#1213,#1221,#1229,#1237,#1245));
#1148 = ORIENTED_EDGE('',*,*,#1149,.F.);
#1149 = EDGE_CURVE('',#1150,#1152,#1154,.T.);
#1150 = VERTEX_POINT('',#1151);
#1151 = CARTESIAN_POINT('',(-11.5,-14.2,6.37));
#1152 = VERTEX_POINT('',#1153);
#1153 = CARTESIAN_POINT('',(-10.5,-14.2,6.37));
#1154 = LINE('',#1155,#1156);
#1155 = CARTESIAN_POINT('',(-12.5,-14.2,6.37));
#1156 = VECTOR('',#1157,1.);
#1157 = DIRECTION('',(1.,0.,0.));
#1158 = ORIENTED_EDGE('',*,*,#1159,.F.);
#1159 = EDGE_CURVE('',#1160,#1150,#1162,.T.);
#1160 = VERTEX_POINT('',#1161);
#1161 = CARTESIAN_POINT('',(-11.5,-14.2,8.));
#1162 = LINE('',#1163,#1164);
#1163 = CARTESIAN_POINT('',(-11.5,-14.2,8.));
#1164 = VECTOR('',#1165,1.);
#1165 = DIRECTION('',(-0.,-0.,-1.));
#1166 = ORIENTED_EDGE('',*,*,#1167,.F.);
#1167 = EDGE_CURVE('',#1168,#1160,#1170,.T.);
#1168 = VERTEX_POINT('',#1169);
#1169 = CARTESIAN_POINT('',(-5.,-14.2,8.));
#1170 = LINE('',#1171,#1172);
#1171 = CARTESIAN_POINT('',(-3.75,-14.2,8.));
#1172 = VECTOR('',#1173,1.);
#1173 = DIRECTION('',(-1.,0.,0.));
#1174 = ORIENTED_EDGE('',*,*,#1175,.F.);
#1175 = EDGE_CURVE('',#1176,#1168,#1178,.T.);
#1176 = VERTEX_POINT('',#1177);
#1177 = CARTESIAN_POINT('',(-5.,-14.2,6.5));
#1178 = LINE('',#1179,#1180);
#1179 = CARTESIAN_POINT('',(-5.,-14.2,3.25));
#1180 = VECTOR('',#1181,1.);
#1181 = DIRECTION('',(0.,0.,1.));
#1182 = ORIENTED_EDGE('',*,*,#1183,.F.);
#1183 = EDGE_CURVE('',#1184,#1176,#1186,.T.);
#1184 = VERTEX_POINT('',#1185);
#1185 = CARTESIAN_POINT('',(-3.75,-14.2,6.5));
#1186 = LINE('',#1187,#1188);
#1187 = CARTESIAN_POINT('',(2.5,-14.2,6.5));
#1188 = VECTOR('',#1189,1.);
#1189 = DIRECTION('',(-1.,0.,0.));
#1190 = ORIENTED_EDGE('',*,*,#1191,.F.);
#1191 = EDGE_CURVE('',#479,#1184,#1192,.T.);
#1192 = LINE('',#1193,#1194);
#1193 = CARTESIAN_POINT('',(-3.75,-14.2,-8.));
#1194 = VECTOR('',#1195,1.);
#1195 = DIRECTION('',(0.,0.,1.));
#1196 = ORIENTED_EDGE('',*,*,#486,.F.);
#1197 = ORIENTED_EDGE('',*,*,#1198,.F.);
#1198 = EDGE_CURVE('',#1199,#470,#1201,.T.);
#1199 = VERTEX_POINT('',#1200);
#1200 = CARTESIAN_POINT('',(-11.5,-14.2,-5.93));
#1201 = LINE('',#1202,#1203);
#1202 = CARTESIAN_POINT('',(-11.5,-14.2,-5.93));
#1203 = VECTOR('',#1204,1.);
#1204 = DIRECTION('',(-0.,-0.,-1.));
#1205 = ORIENTED_EDGE('',*,*,#1206,.T.);
#1206 = EDGE_CURVE('',#1199,#1207,#1209,.T.);
#1207 = VERTEX_POINT('',#1208);
#1208 = CARTESIAN_POINT('',(-10.5,-14.2,-5.93));
#1209 = LINE('',#1210,#1211);
#1210 = CARTESIAN_POINT('',(-12.5,-14.2,-5.93));
#1211 = VECTOR('',#1212,1.);
#1212 = DIRECTION('',(1.,0.,0.));
#1213 = ORIENTED_EDGE('',*,*,#1214,.F.);
#1214 = EDGE_CURVE('',#1215,#1207,#1217,.T.);
#1215 = VERTEX_POINT('',#1216);
#1216 = CARTESIAN_POINT('',(-10.5,-14.2,-0.43));
#1217 = LINE('',#1218,#1219);
#1218 = CARTESIAN_POINT('',(-10.5,-14.2,-0.43));
#1219 = VECTOR('',#1220,1.);
#1220 = DIRECTION('',(0.,0.,-1.));
#1221 = ORIENTED_EDGE('',*,*,#1222,.F.);
#1222 = EDGE_CURVE('',#1223,#1215,#1225,.T.);
#1223 = VERTEX_POINT('',#1224);
#1224 = CARTESIAN_POINT('',(-11.5,-14.2,-0.43));
#1225 = LINE('',#1226,#1227);
#1226 = CARTESIAN_POINT('',(-12.5,-14.2,-0.43));
#1227 = VECTOR('',#1228,1.);
#1228 = DIRECTION('',(1.,0.,0.));
#1229 = ORIENTED_EDGE('',*,*,#1230,.F.);
#1230 = EDGE_CURVE('',#1231,#1223,#1233,.T.);
#1231 = VERTEX_POINT('',#1232);
#1232 = CARTESIAN_POINT('',(-11.5,-14.2,0.87));
#1233 = LINE('',#1234,#1235);
#1234 = CARTESIAN_POINT('',(-11.5,-14.2,0.87));
#1235 = VECTOR('',#1236,1.);
#1236 = DIRECTION('',(-0.,-0.,-1.));
#1237 = ORIENTED_EDGE('',*,*,#1238,.T.);
#1238 = EDGE_CURVE('',#1231,#1239,#1241,.T.);
#1239 = VERTEX_POINT('',#1240);
#1240 = CARTESIAN_POINT('',(-10.5,-14.2,0.87));
#1241 = LINE('',#1242,#1243);
#1242 = CARTESIAN_POINT('',(-12.5,-14.2,0.87));
#1243 = VECTOR('',#1244,1.);
#1244 = DIRECTION('',(1.,0.,0.));
#1245 = ORIENTED_EDGE('',*,*,#1246,.F.);
#1246 = EDGE_CURVE('',#1152,#1239,#1247,.T.);
#1247 = LINE('',#1248,#1249);
#1248 = CARTESIAN_POINT('',(-10.5,-14.2,6.37));
#1249 = VECTOR('',#1250,1.);
#1250 = DIRECTION('',(0.,0.,-1.));
#1251 = PLANE('',#1252);
#1252 = AXIS2_PLACEMENT_3D('',#1253,#1254,#1255);
#1253 = CARTESIAN_POINT('',(0.,-14.2,2.71E-15));
#1254 = DIRECTION('',(0.,1.,0.));
#1255 = DIRECTION('',(0.,0.,1.));
#1256 = ADVANCED_FACE('',(#1257),#1275,.F.);
#1257 = FACE_BOUND('',#1258,.F.);
#1258 = EDGE_LOOP('',(#1259,#1267,#1273,#1274));
#1259 = ORIENTED_EDGE('',*,*,#1260,.T.);
#1260 = EDGE_CURVE('',#501,#1261,#1263,.T.);
#1261 = VERTEX_POINT('',#1262);
#1262 = CARTESIAN_POINT('',(-3.75,-7.5,6.5));
#1263 = LINE('',#1264,#1265);
#1264 = CARTESIAN_POINT('',(-3.75,-7.5,-8.));
#1265 = VECTOR('',#1266,1.);
#1266 = DIRECTION('',(0.,0.,1.));
#1267 = ORIENTED_EDGE('',*,*,#1268,.F.);
#1268 = EDGE_CURVE('',#1104,#1261,#1269,.T.);
#1269 = LINE('',#1270,#1271);
#1270 = CARTESIAN_POINT('',(2.5,-7.5,6.5));
#1271 = VECTOR('',#1272,1.);
#1272 = DIRECTION('',(-1.,0.,0.));
#1273 = ORIENTED_EDGE('',*,*,#1103,.T.);
#1274 = ORIENTED_EDGE('',*,*,#510,.F.);
#1275 = PLANE('',#1276);
#1276 = AXIS2_PLACEMENT_3D('',#1277,#1278,#1279);
#1277 = CARTESIAN_POINT('',(0.,-7.5,1.58E-15));
#1278 = DIRECTION('',(0.,1.,0.));
#1279 = DIRECTION('',(0.,0.,1.));
#1280 = ADVANCED_FACE('',(#1281,#1292,#1303),#1314,.F.);
#1281 = FACE_BOUND('',#1282,.F.);
#1282 = EDGE_LOOP('',(#1283,#1284,#1285,#1286));
#1283 = ORIENTED_EDGE('',*,*,#1260,.F.);
#1284 = ORIENTED_EDGE('',*,*,#527,.T.);
#1285 = ORIENTED_EDGE('',*,*,#1191,.T.);
#1286 = ORIENTED_EDGE('',*,*,#1287,.F.);
#1287 = EDGE_CURVE('',#1261,#1184,#1288,.T.);
#1288 = LINE('',#1289,#1290);
#1289 = CARTESIAN_POINT('',(-3.75,-0.5,6.5));
#1290 = VECTOR('',#1291,1.);
#1291 = DIRECTION('',(0.,-1.,2.2E-16));
#1292 = FACE_BOUND('',#1293,.F.);
#1293 = EDGE_LOOP('',(#1294));
#1294 = ORIENTED_EDGE('',*,*,#1295,.F.);
#1295 = EDGE_CURVE('',#1296,#1296,#1298,.T.);
#1296 = VERTEX_POINT('',#1297);
#1297 = CARTESIAN_POINT('',(-3.75,-12.6,3.62));
#1298 = CIRCLE('',#1299,1.5);
#1299 = AXIS2_PLACEMENT_3D('',#1300,#1301,#1302);
#1300 = CARTESIAN_POINT('',(-3.75,-11.1,3.62));
#1301 = DIRECTION('',(-1.,0.,0.));
#1302 = DIRECTION('',(0.,-1.,0.));
#1303 = FACE_BOUND('',#1304,.F.);
#1304 = EDGE_LOOP('',(#1305));
#1305 = ORIENTED_EDGE('',*,*,#1306,.F.);
#1306 = EDGE_CURVE('',#1307,#1307,#1309,.T.);
#1307 = VERTEX_POINT('',#1308);
#1308 = CARTESIAN_POINT('',(-3.75,-12.6,-3.18));
#1309 = CIRCLE('',#1310,1.5);
#1310 = AXIS2_PLACEMENT_3D('',#1311,#1312,#1313);
#1311 = CARTESIAN_POINT('',(-3.75,-11.1,-3.18));
#1312 = DIRECTION('',(-1.,0.,0.));
#1313 = DIRECTION('',(0.,-1.,0.));
#1314 = PLANE('',#1315);
#1315 = AXIS2_PLACEMENT_3D('',#1316,#1317,#1318);
#1316 = CARTESIAN_POINT('',(-3.75,-7.5,-8.));
#1317 = DIRECTION('',(-1.,0.,0.));
#1318 = DIRECTION('',(0.,2.2E-16,1.));
#1319 = ADVANCED_FACE('',(#1320),#1339,.F.);
#1320 = FACE_BOUND('',#1321,.F.);
#1321 = EDGE_LOOP('',(#1322,#1330,#1331,#1332));
#1322 = ORIENTED_EDGE('',*,*,#1323,.F.);
#1323 = EDGE_CURVE('',#542,#1324,#1326,.T.);
#1324 = VERTEX_POINT('',#1325);
#1325 = CARTESIAN_POINT('',(14.1,-2.E-15,8.));
#1326 = LINE('',#1327,#1328);
#1327 = CARTESIAN_POINT('',(14.1,-2.08E-15,-8.));
#1328 = VECTOR('',#1329,1.);
#1329 = DIRECTION('',(0.,0.,1.));
#1330 = ORIENTED_EDGE('',*,*,#551,.F.);
#1331 = ORIENTED_EDGE('',*,*,#1323,.T.);
#1332 = ORIENTED_EDGE('',*,*,#1333,.T.);
#1333 = EDGE_CURVE('',#1324,#1324,#1334,.T.);
#1334 = CIRCLE('',#1335,1.6);
#1335 = AXIS2_PLACEMENT_3D('',#1336,#1337,#1338);
#1336 = CARTESIAN_POINT('',(12.5,-2.08E-15,8.));
#1337 = DIRECTION('',(0.,0.,-1.));
#1338 = DIRECTION('',(1.,0.,0.));
#1339 = CYLINDRICAL_SURFACE('',#1340,1.6);
#1340 = AXIS2_PLACEMENT_3D('',#1341,#1342,#1343);
#1341 = CARTESIAN_POINT('',(12.5,-2.08E-15,-8.));
#1342 = DIRECTION('',(0.,0.,-1.));
#1343 = DIRECTION('',(1.,0.,0.));
#1344 = ADVANCED_FACE('',(#1345),#1364,.F.);
#1345 = FACE_BOUND('',#1346,.F.);
#1346 = EDGE_LOOP('',(#1347,#1355,#1356,#1357));
#1347 = ORIENTED_EDGE('',*,*,#1348,.F.);
#1348 = EDGE_CURVE('',#567,#1349,#1351,.T.);
#1349 = VERTEX_POINT('',#1350);
#1350 = CARTESIAN_POINT('',(-10.9,-2.E-15,8.));
#1351 = LINE('',#1352,#1353);
#1352 = CARTESIAN_POINT('',(-10.9,-2.08E-15,-8.));
#1353 = VECTOR('',#1354,1.);
#1354 = DIRECTION('',(0.,0.,1.));
#1355 = ORIENTED_EDGE('',*,*,#576,.F.);
#1356 = ORIENTED_EDGE('',*,*,#1348,.T.);
#1357 = ORIENTED_EDGE('',*,*,#1358,.T.);
#1358 = EDGE_CURVE('',#1349,#1349,#1359,.T.);
#1359 = CIRCLE('',#1360,1.6);
#1360 = AXIS2_PLACEMENT_3D('',#1361,#1362,#1363);
#1361 = CARTESIAN_POINT('',(-12.5,-2.08E-15,8.));
#1362 = DIRECTION('',(0.,0.,-1.));
#1363 = DIRECTION('',(1.,0.,0.));
#1364 = CYLINDRICAL_SURFACE('',#1365,1.6);
#1365 = AXIS2_PLACEMENT_3D('',#1366,#1367,#1368);
#1366 = CARTESIAN_POINT('',(-12.5,-2.08E-15,-8.));
#1367 = DIRECTION('',(0.,0.,-1.));
#1368 = DIRECTION('',(1.,0.,0.));
#1369 = ADVANCED_FACE('',(#1370),#1381,.T.);
#1370 = FACE_BOUND('',#1371,.F.);
#1371 = EDGE_LOOP('',(#1372,#1373,#1379,#1380));
#1372 = ORIENTED_EDGE('',*,*,#624,.T.);
#1373 = ORIENTED_EDGE('',*,*,#1374,.T.);
#1374 = EDGE_CURVE('',#608,#671,#1375,.T.);
#1375 = LINE('',#1376,#1377);
#1376 = CARTESIAN_POINT('',(16.420737767584,8.079262232416,8.));
#1377 = VECTOR('',#1378,1.);
#1378 = DIRECTION('',(-0.707106781187,0.707106781187,-1.6E-16));
#1379 = ORIENTED_EDGE('',*,*,#680,.F.);
#1380 = ORIENTED_EDGE('',*,*,#593,.F.);
#1381 = PLANE('',#1382);
#1382 = AXIS2_PLACEMENT_3D('',#1383,#1384,#1385);
#1383 = CARTESIAN_POINT('',(18.5,6.,-8.));
#1384 = DIRECTION('',(0.707106781187,0.707106781187,0.));
#1385 = DIRECTION('',(0.,0.,-1.));
#1386 = ADVANCED_FACE('',(#1387,#1414),#1417,.T.);
#1387 = FACE_BOUND('',#1388,.T.);
#1388 = EDGE_LOOP('',(#1389,#1390,#1391,#1392,#1398,#1399,#1405,#1406,
    #1407,#1408));
#1389 = ORIENTED_EDGE('',*,*,#607,.F.);
#1390 = ORIENTED_EDGE('',*,*,#1374,.T.);
#1391 = ORIENTED_EDGE('',*,*,#670,.T.);
#1392 = ORIENTED_EDGE('',*,*,#1393,.T.);
#1393 = EDGE_CURVE('',#673,#955,#1394,.T.);
#1394 = LINE('',#1395,#1396);
#1395 = CARTESIAN_POINT('',(5.,6.5,8.));
#1396 = VECTOR('',#1397,1.);
#1397 = DIRECTION('',(0.,-1.,2.2E-16));
#1398 = ORIENTED_EDGE('',*,*,#952,.F.);
#1399 = ORIENTED_EDGE('',*,*,#1400,.T.);
#1400 = EDGE_CURVE('',#953,#883,#1401,.T.);
#1401 = LINE('',#1402,#1403);
#1402 = CARTESIAN_POINT('',(11.379262232416,-14.32073776758,8.));
#1403 = VECTOR('',#1404,1.);
#1404 = DIRECTION('',(0.707106781187,0.707106781187,-1.6E-16));
#1405 = ORIENTED_EDGE('',*,*,#882,.F.);
#1406 = ORIENTED_EDGE('',*,*,#811,.T.);
#1407 = ORIENTED_EDGE('',*,*,#733,.F.);
#1408 = ORIENTED_EDGE('',*,*,#1409,.T.);
#1409 = EDGE_CURVE('',#734,#610,#1410,.T.);
#1410 = LINE('',#1411,#1412);
#1411 = CARTESIAN_POINT('',(14.254262232416,-9.945737767584,8.));
#1412 = VECTOR('',#1413,1.);
#1413 = DIRECTION('',(0.707106781187,0.707106781187,-1.6E-16));
#1414 = FACE_BOUND('',#1415,.T.);
#1415 = EDGE_LOOP('',(#1416));
#1416 = ORIENTED_EDGE('',*,*,#1333,.T.);
#1417 = PLANE('',#1418);
#1418 = AXIS2_PLACEMENT_3D('',#1419,#1420,#1421);
#1419 = CARTESIAN_POINT('',(1.1E-16,-4.182951070336,8.));
#1420 = DIRECTION('',(0.,2.2E-16,1.));
#1421 = DIRECTION('',(0.,1.,-2.2E-16));
#1422 = ADVANCED_FACE('',(#1423),#1429,.F.);
#1423 = FACE_BOUND('',#1424,.T.);
#1424 = EDGE_LOOP('',(#1425,#1426,#1427,#1428));
#1425 = ORIENTED_EDGE('',*,*,#1409,.F.);
#1426 = ORIENTED_EDGE('',*,*,#743,.T.);
#1427 = ORIENTED_EDGE('',*,*,#640,.F.);
#1428 = ORIENTED_EDGE('',*,*,#617,.F.);
#1429 = PLANE('',#1430);
#1430 = AXIS2_PLACEMENT_3D('',#1431,#1432,#1433);
#1431 = CARTESIAN_POINT('',(18.5,-5.7,8.));
#1432 = DIRECTION('',(-0.707106781187,0.707106781187,0.));
#1433 = DIRECTION('',(0.,0.,1.));
#1434 = ADVANCED_FACE('',(#1435),#1446,.T.);
#1435 = FACE_BOUND('',#1436,.F.);
#1436 = EDGE_LOOP('',(#1437,#1443,#1444,#1445));
#1437 = ORIENTED_EDGE('',*,*,#1438,.F.);
#1438 = EDGE_CURVE('',#765,#688,#1439,.T.);
#1439 = LINE('',#1440,#1441);
#1440 = CARTESIAN_POINT('',(-16.42073776758,8.079262232416,8.));
#1441 = VECTOR('',#1442,1.);
#1442 = DIRECTION('',(0.707106781187,0.707106781187,-1.6E-16));
#1443 = ORIENTED_EDGE('',*,*,#774,.T.);
#1444 = ORIENTED_EDGE('',*,*,#656,.F.);
#1445 = ORIENTED_EDGE('',*,*,#687,.F.);
#1446 = PLANE('',#1447);
#1447 = AXIS2_PLACEMENT_3D('',#1448,#1449,#1450);
#1448 = CARTESIAN_POINT('',(-18.5,6.,8.));
#1449 = DIRECTION('',(-0.707106781187,0.707106781187,0.));
#1450 = DIRECTION('',(0.,0.,1.));
#1451 = ADVANCED_FACE('',(#1452),#1463,.F.);
#1452 = FACE_BOUND('',#1453,.F.);
#1453 = EDGE_LOOP('',(#1454,#1455,#1456,#1457));
#1454 = ORIENTED_EDGE('',*,*,#719,.F.);
#1455 = ORIENTED_EDGE('',*,*,#1393,.T.);
#1456 = ORIENTED_EDGE('',*,*,#985,.T.);
#1457 = ORIENTED_EDGE('',*,*,#1458,.F.);
#1458 = EDGE_CURVE('',#712,#978,#1459,.T.);
#1459 = LINE('',#1460,#1461);
#1460 = CARTESIAN_POINT('',(5.,6.5,6.5));
#1461 = VECTOR('',#1462,1.);
#1462 = DIRECTION('',(0.,-1.,2.2E-16));
#1463 = PLANE('',#1464);
#1464 = AXIS2_PLACEMENT_3D('',#1465,#1466,#1467);
#1465 = CARTESIAN_POINT('',(5.,6.5,8.));
#1466 = DIRECTION('',(1.,0.,0.));
#1467 = DIRECTION('',(0.,-2.2E-16,-1.));
#1468 = ADVANCED_FACE('',(#1469),#1484,.F.);
#1469 = FACE_BOUND('',#1470,.F.);
#1470 = EDGE_LOOP('',(#1471,#1472,#1473,#1474,#1475,#1476,#1477,#1478));
#1471 = ORIENTED_EDGE('',*,*,#711,.F.);
#1472 = ORIENTED_EDGE('',*,*,#1458,.T.);
#1473 = ORIENTED_EDGE('',*,*,#977,.T.);
#1474 = ORIENTED_EDGE('',*,*,#1111,.T.);
#1475 = ORIENTED_EDGE('',*,*,#1268,.T.);
#1476 = ORIENTED_EDGE('',*,*,#1287,.T.);
#1477 = ORIENTED_EDGE('',*,*,#1183,.T.);
#1478 = ORIENTED_EDGE('',*,*,#1479,.F.);
#1479 = EDGE_CURVE('',#704,#1176,#1480,.T.);
#1480 = LINE('',#1481,#1482);
#1481 = CARTESIAN_POINT('',(-5.,6.5,6.5));
#1482 = VECTOR('',#1483,1.);
#1483 = DIRECTION('',(0.,-1.,2.2E-16));
#1484 = PLANE('',#1485);
#1485 = AXIS2_PLACEMENT_3D('',#1486,#1487,#1488);
#1486 = CARTESIAN_POINT('',(5.,6.5,6.5));
#1487 = DIRECTION('',(-0.,-2.2E-16,-1.));
#1488 = DIRECTION('',(-1.,0.,0.));
#1489 = ADVANCED_FACE('',(#1490),#1501,.F.);
#1490 = FACE_BOUND('',#1491,.F.);
#1491 = EDGE_LOOP('',(#1492,#1493,#1494,#1495));
#1492 = ORIENTED_EDGE('',*,*,#703,.F.);
#1493 = ORIENTED_EDGE('',*,*,#1479,.T.);
#1494 = ORIENTED_EDGE('',*,*,#1175,.T.);
#1495 = ORIENTED_EDGE('',*,*,#1496,.F.);
#1496 = EDGE_CURVE('',#696,#1168,#1497,.T.);
#1497 = LINE('',#1498,#1499);
#1498 = CARTESIAN_POINT('',(-5.,6.5,8.));
#1499 = VECTOR('',#1500,1.);
#1500 = DIRECTION('',(0.,-1.,2.2E-16));
#1501 = PLANE('',#1502);
#1502 = AXIS2_PLACEMENT_3D('',#1503,#1504,#1505);
#1503 = CARTESIAN_POINT('',(-5.,6.5,6.5));
#1504 = DIRECTION('',(-1.,0.,0.));
#1505 = DIRECTION('',(0.,2.2E-16,1.));
#1506 = ADVANCED_FACE('',(#1507,#1529),#1532,.T.);
#1507 = FACE_BOUND('',#1508,.T.);
#1508 = EDGE_LOOP('',(#1509,#1510,#1511,#1512,#1513,#1514,#1520,#1521,
    #1522,#1523));
#1509 = ORIENTED_EDGE('',*,*,#1167,.F.);
#1510 = ORIENTED_EDGE('',*,*,#1496,.F.);
#1511 = ORIENTED_EDGE('',*,*,#695,.T.);
#1512 = ORIENTED_EDGE('',*,*,#1438,.F.);
#1513 = ORIENTED_EDGE('',*,*,#764,.T.);
#1514 = ORIENTED_EDGE('',*,*,#1515,.T.);
#1515 = EDGE_CURVE('',#767,#838,#1516,.T.);
#1516 = LINE('',#1517,#1518);
#1517 = CARTESIAN_POINT('',(-14.25426223241,-9.945737767584,8.));
#1518 = VECTOR('',#1519,1.);
#1519 = DIRECTION('',(0.707106781187,-0.707106781187,1.6E-16));
#1520 = ORIENTED_EDGE('',*,*,#835,.F.);
#1521 = ORIENTED_EDGE('',*,*,#928,.T.);
#1522 = ORIENTED_EDGE('',*,*,#999,.F.);
#1523 = ORIENTED_EDGE('',*,*,#1524,.T.);
#1524 = EDGE_CURVE('',#1000,#1160,#1525,.T.);
#1525 = LINE('',#1526,#1527);
#1526 = CARTESIAN_POINT('',(-11.37926223241,-14.32073776758,8.));
#1527 = VECTOR('',#1528,1.);
#1528 = DIRECTION('',(0.707106781187,-0.707106781187,1.6E-16));
#1529 = FACE_BOUND('',#1530,.T.);
#1530 = EDGE_LOOP('',(#1531));
#1531 = ORIENTED_EDGE('',*,*,#1358,.T.);
#1532 = PLANE('',#1533);
#1533 = AXIS2_PLACEMENT_3D('',#1534,#1535,#1536);
#1534 = CARTESIAN_POINT('',(1.1E-16,-4.182951070336,8.));
#1535 = DIRECTION('',(0.,2.2E-16,1.));
#1536 = DIRECTION('',(0.,1.,-2.2E-16));
#1537 = ADVANCED_FACE('',(#1538),#1544,.F.);
#1538 = FACE_BOUND('',#1539,.T.);
#1539 = EDGE_LOOP('',(#1540,#1541,#1542,#1543));
#1540 = ORIENTED_EDGE('',*,*,#1515,.F.);
#1541 = ORIENTED_EDGE('',*,*,#781,.T.);
#1542 = ORIENTED_EDGE('',*,*,#797,.T.);
#1543 = ORIENTED_EDGE('',*,*,#852,.F.);
#1544 = PLANE('',#1545);
#1545 = AXIS2_PLACEMENT_3D('',#1546,#1547,#1548);
#1546 = CARTESIAN_POINT('',(-18.5,-5.7,8.));
#1547 = DIRECTION('',(0.707106781187,0.707106781187,0.));
#1548 = DIRECTION('',(0.,0.,1.));
#1549 = ADVANCED_FACE('',(#1550),#1556,.T.);
#1550 = FACE_BOUND('',#1551,.T.);
#1551 = EDGE_LOOP('',(#1552,#1553,#1554,#1555));
#1552 = ORIENTED_EDGE('',*,*,#1400,.F.);
#1553 = ORIENTED_EDGE('',*,*,#962,.T.);
#1554 = ORIENTED_EDGE('',*,*,#867,.F.);
#1555 = ORIENTED_EDGE('',*,*,#892,.F.);
#1556 = PLANE('',#1557);
#1557 = AXIS2_PLACEMENT_3D('',#1558,#1559,#1560);
#1558 = CARTESIAN_POINT('',(12.,-13.7,8.));
#1559 = DIRECTION('',(0.707106781187,-0.707106781187,0.));
#1560 = DIRECTION('',(0.,0.,-1.));
#1561 = ADVANCED_FACE('',(#1562),#1573,.F.);
#1562 = FACE_BOUND('',#1563,.F.);
#1563 = EDGE_LOOP('',(#1564,#1570,#1571,#1572));
#1564 = ORIENTED_EDGE('',*,*,#1565,.F.);
#1565 = EDGE_CURVE('',#1133,#901,#1566,.T.);
#1566 = LINE('',#1567,#1568);
#1567 = CARTESIAN_POINT('',(-19.,-12.6,-3.18));
#1568 = VECTOR('',#1569,1.);
#1569 = DIRECTION('',(1.,0.,0.));
#1570 = ORIENTED_EDGE('',*,*,#1132,.F.);
#1571 = ORIENTED_EDGE('',*,*,#1565,.T.);
#1572 = ORIENTED_EDGE('',*,*,#900,.T.);
#1573 = CYLINDRICAL_SURFACE('',#1574,1.5);
#1574 = AXIS2_PLACEMENT_3D('',#1575,#1576,#1577);
#1575 = CARTESIAN_POINT('',(-19.,-11.1,-3.18));
#1576 = DIRECTION('',(-1.,0.,0.));
#1577 = DIRECTION('',(0.,-1.,0.));
#1578 = ADVANCED_FACE('',(#1579),#1590,.F.);
#1579 = FACE_BOUND('',#1580,.F.);
#1580 = EDGE_LOOP('',(#1581,#1587,#1588,#1589));
#1581 = ORIENTED_EDGE('',*,*,#1582,.F.);
#1582 = EDGE_CURVE('',#1122,#912,#1583,.T.);
#1583 = LINE('',#1584,#1585);
#1584 = CARTESIAN_POINT('',(-19.,-12.6,3.62));
#1585 = VECTOR('',#1586,1.);
#1586 = DIRECTION('',(1.,0.,0.));
#1587 = ORIENTED_EDGE('',*,*,#1121,.F.);
#1588 = ORIENTED_EDGE('',*,*,#1582,.T.);
#1589 = ORIENTED_EDGE('',*,*,#911,.T.);
#1590 = CYLINDRICAL_SURFACE('',#1591,1.5);
#1591 = AXIS2_PLACEMENT_3D('',#1592,#1593,#1594);
#1592 = CARTESIAN_POINT('',(-19.,-11.1,3.62));
#1593 = DIRECTION('',(-1.,0.,0.));
#1594 = DIRECTION('',(0.,-1.,0.));
#1595 = ADVANCED_FACE('',(#1596),#1607,.T.);
#1596 = FACE_BOUND('',#1597,.T.);
#1597 = EDGE_LOOP('',(#1598,#1599,#1600,#1606));
#1598 = ORIENTED_EDGE('',*,*,#1524,.F.);
#1599 = ORIENTED_EDGE('',*,*,#1007,.T.);
#1600 = ORIENTED_EDGE('',*,*,#1601,.T.);
#1601 = EDGE_CURVE('',#1008,#1150,#1602,.T.);
#1602 = LINE('',#1603,#1604);
#1603 = CARTESIAN_POINT('',(-12.48125,-13.21875,6.37));
#1604 = VECTOR('',#1605,1.);
#1605 = DIRECTION('',(0.707106781187,-0.707106781187,0.));
#1606 = ORIENTED_EDGE('',*,*,#1159,.F.);
#1607 = PLANE('',#1608);
#1608 = AXIS2_PLACEMENT_3D('',#1609,#1610,#1611);
#1609 = CARTESIAN_POINT('',(-12.,-13.7,8.));
#1610 = DIRECTION('',(-0.707106781187,-0.707106781187,0.));
#1611 = DIRECTION('',(0.,0.,-1.));
#1612 = ADVANCED_FACE('',(#1613),#1632,.F.);
#1613 = FACE_BOUND('',#1614,.F.);
#1614 = EDGE_LOOP('',(#1615,#1616,#1624,#1630,#1631));
#1615 = ORIENTED_EDGE('',*,*,#1149,.T.);
#1616 = ORIENTED_EDGE('',*,*,#1617,.T.);
#1617 = EDGE_CURVE('',#1152,#1618,#1620,.T.);
#1618 = VERTEX_POINT('',#1619);
#1619 = CARTESIAN_POINT('',(-10.5,-8.35,6.37));
#1620 = LINE('',#1621,#1622);
#1621 = CARTESIAN_POINT('',(-10.5,-13.85,6.37));
#1622 = VECTOR('',#1623,1.);
#1623 = DIRECTION('',(0.,1.,0.));
#1624 = ORIENTED_EDGE('',*,*,#1625,.F.);
#1625 = EDGE_CURVE('',#1016,#1618,#1626,.T.);
#1626 = LINE('',#1627,#1628);
#1627 = CARTESIAN_POINT('',(-12.5,-8.35,6.37));
#1628 = VECTOR('',#1629,1.);
#1629 = DIRECTION('',(1.,0.,0.));
#1630 = ORIENTED_EDGE('',*,*,#1015,.T.);
#1631 = ORIENTED_EDGE('',*,*,#1601,.T.);
#1632 = PLANE('',#1633);
#1633 = AXIS2_PLACEMENT_3D('',#1634,#1635,#1636);
#1634 = CARTESIAN_POINT('',(-11.5,-11.275,6.37));
#1635 = DIRECTION('',(0.,0.,1.));
#1636 = DIRECTION('',(1.,0.,0.));
#1637 = ADVANCED_FACE('',(#1638),#1656,.F.);
#1638 = FACE_BOUND('',#1639,.F.);
#1639 = EDGE_LOOP('',(#1640,#1641,#1649,#1655));
#1640 = ORIENTED_EDGE('',*,*,#1625,.T.);
#1641 = ORIENTED_EDGE('',*,*,#1642,.T.);
#1642 = EDGE_CURVE('',#1618,#1643,#1645,.T.);
#1643 = VERTEX_POINT('',#1644);
#1644 = CARTESIAN_POINT('',(-10.5,-8.35,0.87));
#1645 = LINE('',#1646,#1647);
#1646 = CARTESIAN_POINT('',(-10.5,-8.35,6.37));
#1647 = VECTOR('',#1648,1.);
#1648 = DIRECTION('',(0.,0.,-1.));
#1649 = ORIENTED_EDGE('',*,*,#1650,.F.);
#1650 = EDGE_CURVE('',#1024,#1643,#1651,.T.);
#1651 = LINE('',#1652,#1653);
#1652 = CARTESIAN_POINT('',(-12.5,-8.35,0.87));
#1653 = VECTOR('',#1654,1.);
#1654 = DIRECTION('',(1.,0.,0.));
#1655 = ORIENTED_EDGE('',*,*,#1023,.F.);
#1656 = PLANE('',#1657);
#1657 = AXIS2_PLACEMENT_3D('',#1658,#1659,#1660);
#1658 = CARTESIAN_POINT('',(-12.5,-8.35,6.37));
#1659 = DIRECTION('',(0.,1.,0.));
#1660 = DIRECTION('',(0.,0.,-1.));
#1661 = ADVANCED_FACE('',(#1662),#1673,.T.);
#1662 = FACE_BOUND('',#1663,.T.);
#1663 = EDGE_LOOP('',(#1664,#1670,#1671,#1672));
#1664 = ORIENTED_EDGE('',*,*,#1665,.F.);
#1665 = EDGE_CURVE('',#1064,#1199,#1666,.T.);
#1666 = LINE('',#1667,#1668);
#1667 = CARTESIAN_POINT('',(-12.48125,-13.21875,-5.93));
#1668 = VECTOR('',#1669,1.);
#1669 = DIRECTION('',(0.707106781187,-0.707106781187,0.));
#1670 = ORIENTED_EDGE('',*,*,#1071,.T.);
#1671 = ORIENTED_EDGE('',*,*,#1088,.F.);
#1672 = ORIENTED_EDGE('',*,*,#1198,.F.);
#1673 = PLANE('',#1674);
#1674 = AXIS2_PLACEMENT_3D('',#1675,#1676,#1677);
#1675 = CARTESIAN_POINT('',(-12.,-13.7,-5.93));
#1676 = DIRECTION('',(-0.707106781187,-0.707106781187,0.));
#1677 = DIRECTION('',(0.,0.,-1.));
#1678 = ADVANCED_FACE('',(#1679),#1696,.F.);
#1679 = FACE_BOUND('',#1680,.F.);
#1680 = EDGE_LOOP('',(#1681,#1682,#1688,#1689,#1690));
#1681 = ORIENTED_EDGE('',*,*,#1238,.F.);
#1682 = ORIENTED_EDGE('',*,*,#1683,.F.);
#1683 = EDGE_CURVE('',#1032,#1231,#1684,.T.);
#1684 = LINE('',#1685,#1686);
#1685 = CARTESIAN_POINT('',(-12.48125,-13.21875,0.87));
#1686 = VECTOR('',#1687,1.);
#1687 = DIRECTION('',(0.707106781187,-0.707106781187,0.));
#1688 = ORIENTED_EDGE('',*,*,#1031,.F.);
#1689 = ORIENTED_EDGE('',*,*,#1650,.T.);
#1690 = ORIENTED_EDGE('',*,*,#1691,.F.);
#1691 = EDGE_CURVE('',#1239,#1643,#1692,.T.);
#1692 = LINE('',#1693,#1694);
#1693 = CARTESIAN_POINT('',(-10.5,-14.2,0.87));
#1694 = VECTOR('',#1695,1.);
#1695 = DIRECTION('',(0.,1.,0.));
#1696 = PLANE('',#1697);
#1697 = AXIS2_PLACEMENT_3D('',#1698,#1699,#1700);
#1698 = CARTESIAN_POINT('',(-11.5,-11.275,0.87));
#1699 = DIRECTION('',(-0.,-0.,-1.));
#1700 = DIRECTION('',(-1.,0.,0.));
#1701 = ADVANCED_FACE('',(#1702),#1721,.F.);
#1702 = FACE_BOUND('',#1703,.F.);
#1703 = EDGE_LOOP('',(#1704,#1705,#1706,#1707,#1715));
#1704 = ORIENTED_EDGE('',*,*,#1206,.F.);
#1705 = ORIENTED_EDGE('',*,*,#1665,.F.);
#1706 = ORIENTED_EDGE('',*,*,#1063,.F.);
#1707 = ORIENTED_EDGE('',*,*,#1708,.T.);
#1708 = EDGE_CURVE('',#1056,#1709,#1711,.T.);
#1709 = VERTEX_POINT('',#1710);
#1710 = CARTESIAN_POINT('',(-10.5,-8.35,-5.93));
#1711 = LINE('',#1712,#1713);
#1712 = CARTESIAN_POINT('',(-12.5,-8.35,-5.93));
#1713 = VECTOR('',#1714,1.);
#1714 = DIRECTION('',(1.,0.,0.));
#1715 = ORIENTED_EDGE('',*,*,#1716,.F.);
#1716 = EDGE_CURVE('',#1207,#1709,#1717,.T.);
#1717 = LINE('',#1718,#1719);
#1718 = CARTESIAN_POINT('',(-10.5,-14.2,-5.93));
#1719 = VECTOR('',#1720,1.);
#1720 = DIRECTION('',(0.,1.,0.));
#1721 = PLANE('',#1722);
#1722 = AXIS2_PLACEMENT_3D('',#1723,#1724,#1725);
#1723 = CARTESIAN_POINT('',(-11.5,-11.275,-5.93));
#1724 = DIRECTION('',(-0.,-0.,-1.));
#1725 = DIRECTION('',(-1.,0.,0.));
#1726 = ADVANCED_FACE('',(#1727),#1738,.T.);
#1727 = FACE_BOUND('',#1728,.T.);
#1728 = EDGE_LOOP('',(#1729,#1730,#1731,#1737));
#1729 = ORIENTED_EDGE('',*,*,#1683,.F.);
#1730 = ORIENTED_EDGE('',*,*,#1039,.T.);
#1731 = ORIENTED_EDGE('',*,*,#1732,.T.);
#1732 = EDGE_CURVE('',#1040,#1223,#1733,.T.);
#1733 = LINE('',#1734,#1735);
#1734 = CARTESIAN_POINT('',(-12.48125,-13.21875,-0.43));
#1735 = VECTOR('',#1736,1.);
#1736 = DIRECTION('',(0.707106781187,-0.707106781187,0.));
#1737 = ORIENTED_EDGE('',*,*,#1230,.F.);
#1738 = PLANE('',#1739);
#1739 = AXIS2_PLACEMENT_3D('',#1740,#1741,#1742);
#1740 = CARTESIAN_POINT('',(-12.,-13.7,0.87));
#1741 = DIRECTION('',(-0.707106781187,-0.707106781187,0.));
#1742 = DIRECTION('',(0.,0.,-1.));
#1743 = ADVANCED_FACE('',(#1744),#1762,.F.);
#1744 = FACE_BOUND('',#1745,.F.);
#1745 = EDGE_LOOP('',(#1746,#1754,#1760,#1761));
#1746 = ORIENTED_EDGE('',*,*,#1747,.T.);
#1747 = EDGE_CURVE('',#1048,#1748,#1750,.T.);
#1748 = VERTEX_POINT('',#1749);
#1749 = CARTESIAN_POINT('',(-10.5,-8.35,-0.43));
#1750 = LINE('',#1751,#1752);
#1751 = CARTESIAN_POINT('',(-12.5,-8.35,-0.43));
#1752 = VECTOR('',#1753,1.);
#1753 = DIRECTION('',(1.,0.,0.));
#1754 = ORIENTED_EDGE('',*,*,#1755,.T.);
#1755 = EDGE_CURVE('',#1748,#1709,#1756,.T.);
#1756 = LINE('',#1757,#1758);
#1757 = CARTESIAN_POINT('',(-10.5,-8.35,-0.43));
#1758 = VECTOR('',#1759,1.);
#1759 = DIRECTION('',(0.,0.,-1.));
#1760 = ORIENTED_EDGE('',*,*,#1708,.F.);
#1761 = ORIENTED_EDGE('',*,*,#1055,.F.);
#1762 = PLANE('',#1763);
#1763 = AXIS2_PLACEMENT_3D('',#1764,#1765,#1766);
#1764 = CARTESIAN_POINT('',(-12.5,-8.35,-0.43));
#1765 = DIRECTION('',(0.,1.,0.));
#1766 = DIRECTION('',(0.,0.,-1.));
#1767 = ADVANCED_FACE('',(#1768),#1780,.F.);
#1768 = FACE_BOUND('',#1769,.F.);
#1769 = EDGE_LOOP('',(#1770,#1771,#1772,#1773,#1779));
#1770 = ORIENTED_EDGE('',*,*,#1047,.T.);
#1771 = ORIENTED_EDGE('',*,*,#1732,.T.);
#1772 = ORIENTED_EDGE('',*,*,#1222,.T.);
#1773 = ORIENTED_EDGE('',*,*,#1774,.T.);
#1774 = EDGE_CURVE('',#1215,#1748,#1775,.T.);
#1775 = LINE('',#1776,#1777);
#1776 = CARTESIAN_POINT('',(-10.5,-13.85,-0.43));
#1777 = VECTOR('',#1778,1.);
#1778 = DIRECTION('',(0.,1.,0.));
#1779 = ORIENTED_EDGE('',*,*,#1747,.F.);
#1780 = PLANE('',#1781);
#1781 = AXIS2_PLACEMENT_3D('',#1782,#1783,#1784);
#1782 = CARTESIAN_POINT('',(-11.5,-11.275,-0.43));
#1783 = DIRECTION('',(0.,0.,1.));
#1784 = DIRECTION('',(1.,0.,0.));
#1785 = ADVANCED_FACE('',(#1786,#1792),#1803,.F.);
#1786 = FACE_BOUND('',#1787,.F.);
#1787 = EDGE_LOOP('',(#1788,#1789,#1790,#1791));
#1788 = ORIENTED_EDGE('',*,*,#1617,.F.);
#1789 = ORIENTED_EDGE('',*,*,#1246,.T.);
#1790 = ORIENTED_EDGE('',*,*,#1691,.T.);
#1791 = ORIENTED_EDGE('',*,*,#1642,.F.);
#1792 = FACE_BOUND('',#1793,.F.);
#1793 = EDGE_LOOP('',(#1794));
#1794 = ORIENTED_EDGE('',*,*,#1795,.T.);
#1795 = EDGE_CURVE('',#1796,#1796,#1798,.T.);
#1796 = VERTEX_POINT('',#1797);
#1797 = CARTESIAN_POINT('',(-10.5,-12.6,3.62));
#1798 = CIRCLE('',#1799,1.5);
#1799 = AXIS2_PLACEMENT_3D('',#1800,#1801,#1802);
#1800 = CARTESIAN_POINT('',(-10.5,-11.1,3.62));
#1801 = DIRECTION('',(-1.,0.,0.));
#1802 = DIRECTION('',(0.,-1.,0.));
#1803 = PLANE('',#1804);
#1804 = AXIS2_PLACEMENT_3D('',#1805,#1806,#1807);
#1805 = CARTESIAN_POINT('',(-10.5,-11.275,0.22));
#1806 = DIRECTION('',(1.,0.,0.));
#1807 = DIRECTION('',(0.,0.,1.));
#1808 = ADVANCED_FACE('',(#1809,#1815),#1826,.F.);
#1809 = FACE_BOUND('',#1810,.F.);
#1810 = EDGE_LOOP('',(#1811,#1812,#1813,#1814));
#1811 = ORIENTED_EDGE('',*,*,#1774,.F.);
#1812 = ORIENTED_EDGE('',*,*,#1214,.T.);
#1813 = ORIENTED_EDGE('',*,*,#1716,.T.);
#1814 = ORIENTED_EDGE('',*,*,#1755,.F.);
#1815 = FACE_BOUND('',#1816,.F.);
#1816 = EDGE_LOOP('',(#1817));
#1817 = ORIENTED_EDGE('',*,*,#1818,.T.);
#1818 = EDGE_CURVE('',#1819,#1819,#1821,.T.);
#1819 = VERTEX_POINT('',#1820);
#1820 = CARTESIAN_POINT('',(-10.5,-12.6,-3.18));
#1821 = CIRCLE('',#1822,1.5);
#1822 = AXIS2_PLACEMENT_3D('',#1823,#1824,#1825);
#1823 = CARTESIAN_POINT('',(-10.5,-11.1,-3.18));
#1824 = DIRECTION('',(-1.,0.,0.));
#1825 = DIRECTION('',(0.,-1.,0.));
#1826 = PLANE('',#1827);
#1827 = AXIS2_PLACEMENT_3D('',#1828,#1829,#1830);
#1828 = CARTESIAN_POINT('',(-10.5,-11.275,0.22));
#1829 = DIRECTION('',(1.,0.,0.));
#1830 = DIRECTION('',(0.,0.,1.));
#1831 = ADVANCED_FACE('',(#1832),#1843,.F.);
#1832 = FACE_BOUND('',#1833,.F.);
#1833 = EDGE_LOOP('',(#1834,#1835,#1841,#1842));
#1834 = ORIENTED_EDGE('',*,*,#1795,.F.);
#1835 = ORIENTED_EDGE('',*,*,#1836,.T.);
#1836 = EDGE_CURVE('',#1796,#1296,#1837,.T.);
#1837 = LINE('',#1838,#1839);
#1838 = CARTESIAN_POINT('',(-19.,-12.6,3.62));
#1839 = VECTOR('',#1840,1.);
#1840 = DIRECTION('',(1.,0.,0.));
#1841 = ORIENTED_EDGE('',*,*,#1295,.T.);
#1842 = ORIENTED_EDGE('',*,*,#1836,.F.);
#1843 = CYLINDRICAL_SURFACE('',#1844,1.5);
#1844 = AXIS2_PLACEMENT_3D('',#1845,#1846,#1847);
#1845 = CARTESIAN_POINT('',(-19.,-11.1,3.62));
#1846 = DIRECTION('',(-1.,0.,0.));
#1847 = DIRECTION('',(0.,-1.,0.));
#1848 = ADVANCED_FACE('',(#1849),#1860,.F.);
#1849 = FACE_BOUND('',#1850,.F.);
#1850 = EDGE_LOOP('',(#1851,#1852,#1858,#1859));
#1851 = ORIENTED_EDGE('',*,*,#1818,.F.);
#1852 = ORIENTED_EDGE('',*,*,#1853,.T.);
#1853 = EDGE_CURVE('',#1819,#1307,#1854,.T.);
#1854 = LINE('',#1855,#1856);
#1855 = CARTESIAN_POINT('',(-19.,-12.6,-3.18));
#1856 = VECTOR('',#1857,1.);
#1857 = DIRECTION('',(1.,0.,0.));
#1858 = ORIENTED_EDGE('',*,*,#1306,.T.);
#1859 = ORIENTED_EDGE('',*,*,#1853,.F.);
#1860 = CYLINDRICAL_SURFACE('',#1861,1.5);
#1861 = AXIS2_PLACEMENT_3D('',#1862,#1863,#1864);
#1862 = CARTESIAN_POINT('',(-19.,-11.1,-3.18));
#1863 = DIRECTION('',(-1.,0.,0.));
#1864 = DIRECTION('',(0.,-1.,0.));
#1865 = ( GEOMETRIC_REPRESENTATION_CONTEXT(3) 
GLOBAL_UNCERTAINTY_ASSIGNED_CONTEXT((#1869)) 
GLOBAL_UNIT_ASSIGNED_CONTEXT((#1866,#1867,#1868)) REPRESENTATION_CONTEXT
('Context #1','3D Context with UNIT and UNCERTAINTY') );
#1866 = ( LENGTH_UNIT() NAMED_UNIT(*) SI_UNIT(.MILLI.,.METRE.) );
#1867 = ( NAMED_UNIT(*) PLANE_ANGLE_UNIT() SI_UNIT($,.RADIAN.) );
#1868 = ( NAMED_UNIT(*) SI_UNIT($,.STERADIAN.) SOLID_ANGLE_UNIT() );
#1869 = UNCERTAINTY_MEASURE_WITH_UNIT(LENGTH_MEASURE(2.E-06),#1866,
  'distance_accuracy_value','confusion accuracy');
#1870 = PRODUCT_RELATED_PRODUCT_CATEGORY('part',$,(#7));
ENDSEC;
END-ISO-10303-21;
