ISO-10303-21;
HEADER;
FILE_DESCRIPTION(('FreeCAD Model'),'2;1');
FILE_NAME('Open CASCADE Shape Model','2026-09-06T12:30:35',('FreeCAD'),(
    'FreeCAD'),'Open CASCADE STEP processor 7.8','FreeCAD','Unknown');
FILE_SCHEMA(('AUTOMOTIVE_DESIGN { 1 0 10303 214 1 1 1 1 }'));
ENDSEC;
DATA;
#1 = APPLICATION_PROTOCOL_DEFINITION('international standard',
  'automotive_design',2000,#2);
#2 = APPLICATION_CONTEXT(
  'core data for automotive mechanical design processes');
#3 = SHAPE_DEFINITION_REPRESENTATION(#4,#10);
#4 = PRODUCT_DEFINITION_SHAPE('','',#5);
#5 = PRODUCT_DEFINITION('design','',#6,#9);
#6 = PRODUCT_DEFINITION_FORMATION('','',#7);
#7 = PRODUCT('Open CASCADE STEP translator 7.8 231',
  'Open CASCADE STEP translator 7.8 231','',(#8));
#8 = PRODUCT_CONTEXT('',#2,'mechanical');
#9 = PRODUCT_DEFINITION_CONTEXT('part definition',#2,'design');
#10 = ADVANCED_BREP_SHAPE_REPRESENTATION('',(#11,#15),#912);
#11 = AXIS2_PLACEMENT_3D('',#12,#13,#14);
#12 = CARTESIAN_POINT('',(0.,0.,0.));
#13 = DIRECTION('',(0.,0.,1.));
#14 = DIRECTION('',(1.,0.,-0.));
#15 = MANIFOLD_SOLID_BREP('',#16);
#16 = CLOSED_SHELL('',(#17,#73,#104,#135,#166,#197,#228,#252,#268,#284,
    #337,#368,#384,#415,#431,#447,#500,#531,#555,#572,#589,#620,#637,
    #654,#671,#700,#717,#746,#763,#792,#821,#843,#854,#865,#879,#890,
    #901));
#17 = ADVANCED_FACE('',(#18),#68,.F.);
#18 = FACE_BOUND('',#19,.F.);
#19 = EDGE_LOOP('',(#20,#30,#38,#46,#54,#62));
#20 = ORIENTED_EDGE('',*,*,#21,.F.);
#21 = EDGE_CURVE('',#22,#24,#26,.T.);
#22 = VERTEX_POINT('',#23);
#23 = CARTESIAN_POINT('',(6.9,-9.4,-4.45));
#24 = VERTEX_POINT('',#25);
#25 = CARTESIAN_POINT('',(6.9,9.4,-4.45));
#26 = LINE('',#27,#28);
#27 = CARTESIAN_POINT('',(6.9,-10.4,-4.45));
#28 = VECTOR('',#29,1.);
#29 = DIRECTION('',(0.,1.,0.));
#30 = ORIENTED_EDGE('',*,*,#31,.T.);
#31 = EDGE_CURVE('',#22,#32,#34,.T.);
#32 = VERTEX_POINT('',#33);
#33 = CARTESIAN_POINT('',(6.9,-9.4,4.45));
#34 = LINE('',#35,#36);
#35 = CARTESIAN_POINT('',(6.9,-9.4,-5.45));
#36 = VECTOR('',#37,1.);
#37 = DIRECTION('',(0.,0.,1.));
#38 = ORIENTED_EDGE('',*,*,#39,.T.);
#39 = EDGE_CURVE('',#32,#40,#42,.T.);
#40 = VERTEX_POINT('',#41);
#41 = CARTESIAN_POINT('',(6.9,6.5,4.45));
#42 = LINE('',#43,#44);
#43 = CARTESIAN_POINT('',(6.9,-10.4,4.45));
#44 = VECTOR('',#45,1.);
#45 = DIRECTION('',(0.,1.,0.));
#46 = ORIENTED_EDGE('',*,*,#47,.T.);
#47 = EDGE_CURVE('',#40,#48,#50,.T.);
#48 = VERTEX_POINT('',#49);
#49 = CARTESIAN_POINT('',(6.9,6.5,2.45));
#50 = LINE('',#51,#52);
#51 = CARTESIAN_POINT('',(6.9,6.5,5.45));
#52 = VECTOR('',#53,1.);
#53 = DIRECTION('',(-0.,-0.,-1.));
#54 = ORIENTED_EDGE('',*,*,#55,.T.);
#55 = EDGE_CURVE('',#48,#56,#58,.T.);
#56 = VERTEX_POINT('',#57);
#57 = CARTESIAN_POINT('',(6.9,9.4,2.45));
#58 = LINE('',#59,#60);
#59 = CARTESIAN_POINT('',(6.9,7.5,2.45));
#60 = VECTOR('',#61,1.);
#61 = DIRECTION('',(0.,1.,0.));
#62 = ORIENTED_EDGE('',*,*,#63,.F.);
#63 = EDGE_CURVE('',#24,#56,#64,.T.);
#64 = LINE('',#65,#66);
#65 = CARTESIAN_POINT('',(6.9,9.4,-5.45));
#66 = VECTOR('',#67,1.);
#67 = DIRECTION('',(0.,0.,1.));
#68 = PLANE('',#69);
#69 = AXIS2_PLACEMENT_3D('',#70,#71,#72);
#70 = CARTESIAN_POINT('',(6.9,-10.4,-5.45));
#71 = DIRECTION('',(-1.,0.,0.));
#72 = DIRECTION('',(0.,1.,0.));
#73 = ADVANCED_FACE('',(#74),#99,.T.);
#74 = FACE_BOUND('',#75,.F.);
#75 = EDGE_LOOP('',(#76,#77,#85,#93));
#76 = ORIENTED_EDGE('',*,*,#21,.T.);
#77 = ORIENTED_EDGE('',*,*,#78,.T.);
#78 = EDGE_CURVE('',#24,#79,#81,.T.);
#79 = VERTEX_POINT('',#80);
#80 = CARTESIAN_POINT('',(5.9,9.4,-5.45));
#81 = LINE('',#82,#83);
#82 = CARTESIAN_POINT('',(6.4,9.4,-4.95));
#83 = VECTOR('',#84,1.);
#84 = DIRECTION('',(-0.707106781187,-1.25E-15,-0.707106781187));
#85 = ORIENTED_EDGE('',*,*,#86,.F.);
#86 = EDGE_CURVE('',#87,#79,#89,.T.);
#87 = VERTEX_POINT('',#88);
#88 = CARTESIAN_POINT('',(5.9,-9.4,-5.45));
#89 = LINE('',#90,#91);
#90 = CARTESIAN_POINT('',(5.9,-10.4,-5.45));
#91 = VECTOR('',#92,1.);
#92 = DIRECTION('',(0.,1.,0.));
#93 = ORIENTED_EDGE('',*,*,#94,.F.);
#94 = EDGE_CURVE('',#22,#87,#95,.T.);
#95 = LINE('',#96,#97);
#96 = CARTESIAN_POINT('',(6.4,-9.4,-4.95));
#97 = VECTOR('',#98,1.);
#98 = DIRECTION('',(-0.707106781187,1.25E-15,-0.707106781187));
#99 = PLANE('',#100);
#100 = AXIS2_PLACEMENT_3D('',#101,#102,#103);
#101 = CARTESIAN_POINT('',(6.4,-10.4,-4.95));
#102 = DIRECTION('',(0.707106781187,0.,-0.707106781187));
#103 = DIRECTION('',(-0.,-1.,-0.));
#104 = ADVANCED_FACE('',(#105),#130,.T.);
#105 = FACE_BOUND('',#106,.T.);
#106 = EDGE_LOOP('',(#107,#115,#116,#124));
#107 = ORIENTED_EDGE('',*,*,#108,.T.);
#108 = EDGE_CURVE('',#109,#22,#111,.T.);
#109 = VERTEX_POINT('',#110);
#110 = CARTESIAN_POINT('',(5.9,-10.4,-4.45));
#111 = LINE('',#112,#113);
#112 = CARTESIAN_POINT('',(6.15,-10.15,-4.45));
#113 = VECTOR('',#114,1.);
#114 = DIRECTION('',(0.707106781187,0.707106781187,-1.25E-15));
#115 = ORIENTED_EDGE('',*,*,#31,.T.);
#116 = ORIENTED_EDGE('',*,*,#117,.F.);
#117 = EDGE_CURVE('',#118,#32,#120,.T.);
#118 = VERTEX_POINT('',#119);
#119 = CARTESIAN_POINT('',(5.9,-10.4,4.45));
#120 = LINE('',#121,#122);
#121 = CARTESIAN_POINT('',(6.15,-10.15,4.45));
#122 = VECTOR('',#123,1.);
#123 = DIRECTION('',(0.707106781187,0.707106781187,1.25E-15));
#124 = ORIENTED_EDGE('',*,*,#125,.F.);
#125 = EDGE_CURVE('',#109,#118,#126,.T.);
#126 = LINE('',#127,#128);
#127 = CARTESIAN_POINT('',(5.9,-10.4,-5.45));
#128 = VECTOR('',#129,1.);
#129 = DIRECTION('',(0.,0.,1.));
#130 = PLANE('',#131);
#131 = AXIS2_PLACEMENT_3D('',#132,#133,#134);
#132 = CARTESIAN_POINT('',(6.4,-9.9,-5.45));
#133 = DIRECTION('',(0.707106781187,-0.707106781187,0.));
#134 = DIRECTION('',(0.,0.,1.));
#135 = ADVANCED_FACE('',(#136),#161,.T.);
#136 = FACE_BOUND('',#137,.F.);
#137 = EDGE_LOOP('',(#138,#146,#147,#155));
#138 = ORIENTED_EDGE('',*,*,#139,.T.);
#139 = EDGE_CURVE('',#140,#24,#142,.T.);
#140 = VERTEX_POINT('',#141);
#141 = CARTESIAN_POINT('',(5.9,10.4,-4.45));
#142 = LINE('',#143,#144);
#143 = CARTESIAN_POINT('',(6.15,10.15,-4.45));
#144 = VECTOR('',#145,1.);
#145 = DIRECTION('',(0.707106781187,-0.707106781187,-1.25E-15));
#146 = ORIENTED_EDGE('',*,*,#63,.T.);
#147 = ORIENTED_EDGE('',*,*,#148,.T.);
#148 = EDGE_CURVE('',#56,#149,#151,.T.);
#149 = VERTEX_POINT('',#150);
#150 = CARTESIAN_POINT('',(5.9,10.4,2.45));
#151 = LINE('',#152,#153);
#152 = CARTESIAN_POINT('',(6.4,9.9,2.45));
#153 = VECTOR('',#154,1.);
#154 = DIRECTION('',(-0.707106781187,0.707106781187,-1.83E-15));
#155 = ORIENTED_EDGE('',*,*,#156,.F.);
#156 = EDGE_CURVE('',#140,#149,#157,.T.);
#157 = LINE('',#158,#159);
#158 = CARTESIAN_POINT('',(5.9,10.4,-5.45));
#159 = VECTOR('',#160,1.);
#160 = DIRECTION('',(0.,0.,1.));
#161 = PLANE('',#162);
#162 = AXIS2_PLACEMENT_3D('',#163,#164,#165);
#163 = CARTESIAN_POINT('',(6.4,9.9,-5.45));
#164 = DIRECTION('',(0.707106781187,0.707106781187,0.));
#165 = DIRECTION('',(0.,0.,-1.));
#166 = ADVANCED_FACE('',(#167),#192,.F.);
#167 = FACE_BOUND('',#168,.T.);
#168 = EDGE_LOOP('',(#169,#170,#178,#186));
#169 = ORIENTED_EDGE('',*,*,#39,.T.);
#170 = ORIENTED_EDGE('',*,*,#171,.F.);
#171 = EDGE_CURVE('',#172,#40,#174,.T.);
#172 = VERTEX_POINT('',#173);
#173 = CARTESIAN_POINT('',(5.9,6.5,5.45));
#174 = LINE('',#175,#176);
#175 = CARTESIAN_POINT('',(6.15,6.5,5.2));
#176 = VECTOR('',#177,1.);
#177 = DIRECTION('',(0.707106781187,0.,-0.707106781187));
#178 = ORIENTED_EDGE('',*,*,#179,.F.);
#179 = EDGE_CURVE('',#180,#172,#182,.T.);
#180 = VERTEX_POINT('',#181);
#181 = CARTESIAN_POINT('',(5.9,-9.4,5.45));
#182 = LINE('',#183,#184);
#183 = CARTESIAN_POINT('',(5.9,-10.4,5.45));
#184 = VECTOR('',#185,1.);
#185 = DIRECTION('',(0.,1.,0.));
#186 = ORIENTED_EDGE('',*,*,#187,.F.);
#187 = EDGE_CURVE('',#32,#180,#188,.T.);
#188 = LINE('',#189,#190);
#189 = CARTESIAN_POINT('',(6.4,-9.4,4.95));
#190 = VECTOR('',#191,1.);
#191 = DIRECTION('',(-0.707106781187,1.25E-15,0.707106781187));
#192 = PLANE('',#193);
#193 = AXIS2_PLACEMENT_3D('',#194,#195,#196);
#194 = CARTESIAN_POINT('',(6.4,-10.4,4.95));
#195 = DIRECTION('',(-0.707106781187,0.,-0.707106781187));
#196 = DIRECTION('',(-0.,-1.,-0.));
#197 = ADVANCED_FACE('',(#198),#223,.F.);
#198 = FACE_BOUND('',#199,.T.);
#199 = EDGE_LOOP('',(#200,#208,#209,#217));
#200 = ORIENTED_EDGE('',*,*,#201,.F.);
#201 = EDGE_CURVE('',#48,#202,#204,.T.);
#202 = VERTEX_POINT('',#203);
#203 = CARTESIAN_POINT('',(5.9,7.5,3.45));
#204 = LINE('',#205,#206);
#205 = CARTESIAN_POINT('',(5.9,7.5,3.45));
#206 = VECTOR('',#207,1.);
#207 = DIRECTION('',(-0.57735026919,0.57735026919,0.57735026919));
#208 = ORIENTED_EDGE('',*,*,#55,.T.);
#209 = ORIENTED_EDGE('',*,*,#210,.F.);
#210 = EDGE_CURVE('',#211,#56,#213,.T.);
#211 = VERTEX_POINT('',#212);
#212 = CARTESIAN_POINT('',(5.9,9.4,3.45));
#213 = LINE('',#214,#215);
#214 = CARTESIAN_POINT('',(6.15,9.4,3.2));
#215 = VECTOR('',#216,1.);
#216 = DIRECTION('',(0.707106781187,1.44E-15,-0.707106781187));
#217 = ORIENTED_EDGE('',*,*,#218,.F.);
#218 = EDGE_CURVE('',#202,#211,#219,.T.);
#219 = LINE('',#220,#221);
#220 = CARTESIAN_POINT('',(5.9,7.5,3.45));
#221 = VECTOR('',#222,1.);
#222 = DIRECTION('',(0.,1.,0.));
#223 = PLANE('',#224);
#224 = AXIS2_PLACEMENT_3D('',#225,#226,#227);
#225 = CARTESIAN_POINT('',(6.4,7.5,2.95));
#226 = DIRECTION('',(-0.707106781187,0.,-0.707106781187));
#227 = DIRECTION('',(-0.,-1.,-0.));
#228 = ADVANCED_FACE('',(#229),#247,.T.);
#229 = FACE_BOUND('',#230,.T.);
#230 = EDGE_LOOP('',(#231,#232,#233,#241));
#231 = ORIENTED_EDGE('',*,*,#47,.T.);
#232 = ORIENTED_EDGE('',*,*,#201,.T.);
#233 = ORIENTED_EDGE('',*,*,#234,.F.);
#234 = EDGE_CURVE('',#235,#202,#237,.T.);
#235 = VERTEX_POINT('',#236);
#236 = CARTESIAN_POINT('',(5.9,7.5,4.45));
#237 = LINE('',#238,#239);
#238 = CARTESIAN_POINT('',(5.9,7.5,5.45));
#239 = VECTOR('',#240,1.);
#240 = DIRECTION('',(-0.,-0.,-1.));
#241 = ORIENTED_EDGE('',*,*,#242,.F.);
#242 = EDGE_CURVE('',#40,#235,#243,.T.);
#243 = LINE('',#244,#245);
#244 = CARTESIAN_POINT('',(6.4,7.,4.45));
#245 = VECTOR('',#246,1.);
#246 = DIRECTION('',(-0.707106781187,0.707106781187,6.7E-16));
#247 = PLANE('',#248);
#248 = AXIS2_PLACEMENT_3D('',#249,#250,#251);
#249 = CARTESIAN_POINT('',(6.4,7.,5.45));
#250 = DIRECTION('',(0.707106781187,0.707106781187,0.));
#251 = DIRECTION('',(0.,0.,-1.));
#252 = ADVANCED_FACE('',(#253),#263,.T.);
#253 = FACE_BOUND('',#254,.T.);
#254 = EDGE_LOOP('',(#255,#256,#262));
#255 = ORIENTED_EDGE('',*,*,#108,.F.);
#256 = ORIENTED_EDGE('',*,*,#257,.T.);
#257 = EDGE_CURVE('',#109,#87,#258,.T.);
#258 = LINE('',#259,#260);
#259 = CARTESIAN_POINT('',(5.9,-10.15,-4.7));
#260 = VECTOR('',#261,1.);
#261 = DIRECTION('',(0.,0.707106781187,-0.707106781187));
#262 = ORIENTED_EDGE('',*,*,#94,.F.);
#263 = PLANE('',#264);
#264 = AXIS2_PLACEMENT_3D('',#265,#266,#267);
#265 = CARTESIAN_POINT('',(5.9,-10.4,-4.45));
#266 = DIRECTION('',(0.57735026919,-0.57735026919,-0.57735026919));
#267 = DIRECTION('',(-0.707106781187,1.249000902703E-15,-0.707106781187)
  );
#268 = ADVANCED_FACE('',(#269),#279,.F.);
#269 = FACE_BOUND('',#270,.F.);
#270 = EDGE_LOOP('',(#271,#272,#278));
#271 = ORIENTED_EDGE('',*,*,#139,.F.);
#272 = ORIENTED_EDGE('',*,*,#273,.T.);
#273 = EDGE_CURVE('',#140,#79,#274,.T.);
#274 = LINE('',#275,#276);
#275 = CARTESIAN_POINT('',(5.9,10.15,-4.7));
#276 = VECTOR('',#277,1.);
#277 = DIRECTION('',(-0.,-0.707106781187,-0.707106781187));
#278 = ORIENTED_EDGE('',*,*,#78,.F.);
#279 = PLANE('',#280);
#280 = AXIS2_PLACEMENT_3D('',#281,#282,#283);
#281 = CARTESIAN_POINT('',(5.9,10.4,-4.45));
#282 = DIRECTION('',(-0.57735026919,-0.57735026919,0.57735026919));
#283 = DIRECTION('',(-0.707106781187,-1.249000902703E-15,-0.707106781187
    ));
#284 = ADVANCED_FACE('',(#285,#310,#321),#332,.F.);
#285 = FACE_BOUND('',#286,.F.);
#286 = EDGE_LOOP('',(#287,#288,#296,#304));
#287 = ORIENTED_EDGE('',*,*,#86,.T.);
#288 = ORIENTED_EDGE('',*,*,#289,.T.);
#289 = EDGE_CURVE('',#79,#290,#292,.T.);
#290 = VERTEX_POINT('',#291);
#291 = CARTESIAN_POINT('',(-5.9,9.4,-5.45));
#292 = LINE('',#293,#294);
#293 = CARTESIAN_POINT('',(6.9,9.4,-5.45));
#294 = VECTOR('',#295,1.);
#295 = DIRECTION('',(-1.,0.,0.));
#296 = ORIENTED_EDGE('',*,*,#297,.T.);
#297 = EDGE_CURVE('',#290,#298,#300,.T.);
#298 = VERTEX_POINT('',#299);
#299 = CARTESIAN_POINT('',(-5.9,-9.4,-5.45));
#300 = LINE('',#301,#302);
#301 = CARTESIAN_POINT('',(-5.9,10.4,-5.45));
#302 = VECTOR('',#303,1.);
#303 = DIRECTION('',(0.,-1.,0.));
#304 = ORIENTED_EDGE('',*,*,#305,.T.);
#305 = EDGE_CURVE('',#298,#87,#306,.T.);
#306 = LINE('',#307,#308);
#307 = CARTESIAN_POINT('',(-6.9,-9.4,-5.45));
#308 = VECTOR('',#309,1.);
#309 = DIRECTION('',(1.,0.,0.));
#310 = FACE_BOUND('',#311,.F.);
#311 = EDGE_LOOP('',(#312));
#312 = ORIENTED_EDGE('',*,*,#313,.F.);
#313 = EDGE_CURVE('',#314,#314,#316,.T.);
#314 = VERTEX_POINT('',#315);
#315 = CARTESIAN_POINT('',(1.1,-4.5,-5.45));
#316 = CIRCLE('',#317,1.1);
#317 = AXIS2_PLACEMENT_3D('',#318,#319,#320);
#318 = CARTESIAN_POINT('',(0.,-4.5,-5.45));
#319 = DIRECTION('',(0.,0.,1.));
#320 = DIRECTION('',(1.,0.,0.));
#321 = FACE_BOUND('',#322,.F.);
#322 = EDGE_LOOP('',(#323));
#323 = ORIENTED_EDGE('',*,*,#324,.F.);
#324 = EDGE_CURVE('',#325,#325,#327,.T.);
#325 = VERTEX_POINT('',#326);
#326 = CARTESIAN_POINT('',(1.1,4.5,-5.45));
#327 = CIRCLE('',#328,1.1);
#328 = AXIS2_PLACEMENT_3D('',#329,#330,#331);
#329 = CARTESIAN_POINT('',(0.,4.5,-5.45));
#330 = DIRECTION('',(0.,0.,1.));
#331 = DIRECTION('',(1.,0.,0.));
#332 = PLANE('',#333);
#333 = AXIS2_PLACEMENT_3D('',#334,#335,#336);
#334 = CARTESIAN_POINT('',(0.,-4.1E-16,-5.45));
#335 = DIRECTION('',(0.,0.,1.));
#336 = DIRECTION('',(1.,0.,0.));
#337 = ADVANCED_FACE('',(#338),#363,.F.);
#338 = FACE_BOUND('',#339,.F.);
#339 = EDGE_LOOP('',(#340,#341,#349,#357));
#340 = ORIENTED_EDGE('',*,*,#125,.F.);
#341 = ORIENTED_EDGE('',*,*,#342,.F.);
#342 = EDGE_CURVE('',#343,#109,#345,.T.);
#343 = VERTEX_POINT('',#344);
#344 = CARTESIAN_POINT('',(-5.9,-10.4,-4.45));
#345 = LINE('',#346,#347);
#346 = CARTESIAN_POINT('',(-6.9,-10.4,-4.45));
#347 = VECTOR('',#348,1.);
#348 = DIRECTION('',(1.,0.,0.));
#349 = ORIENTED_EDGE('',*,*,#350,.T.);
#350 = EDGE_CURVE('',#343,#351,#353,.T.);
#351 = VERTEX_POINT('',#352);
#352 = CARTESIAN_POINT('',(-5.9,-10.4,4.45));
#353 = LINE('',#354,#355);
#354 = CARTESIAN_POINT('',(-5.9,-10.4,-5.45));
#355 = VECTOR('',#356,1.);
#356 = DIRECTION('',(0.,0.,1.));
#357 = ORIENTED_EDGE('',*,*,#358,.T.);
#358 = EDGE_CURVE('',#351,#118,#359,.T.);
#359 = LINE('',#360,#361);
#360 = CARTESIAN_POINT('',(-6.9,-10.4,4.45));
#361 = VECTOR('',#362,1.);
#362 = DIRECTION('',(1.,0.,0.));
#363 = PLANE('',#364);
#364 = AXIS2_PLACEMENT_3D('',#365,#366,#367);
#365 = CARTESIAN_POINT('',(-6.9,-10.4,-5.45));
#366 = DIRECTION('',(0.,1.,0.));
#367 = DIRECTION('',(1.,0.,0.));
#368 = ADVANCED_FACE('',(#369),#379,.F.);
#369 = FACE_BOUND('',#370,.F.);
#370 = EDGE_LOOP('',(#371,#372,#378));
#371 = ORIENTED_EDGE('',*,*,#117,.F.);
#372 = ORIENTED_EDGE('',*,*,#373,.T.);
#373 = EDGE_CURVE('',#118,#180,#374,.T.);
#374 = LINE('',#375,#376);
#375 = CARTESIAN_POINT('',(5.9,-10.15,4.7));
#376 = VECTOR('',#377,1.);
#377 = DIRECTION('',(0.,0.707106781187,0.707106781187));
#378 = ORIENTED_EDGE('',*,*,#187,.F.);
#379 = PLANE('',#380);
#380 = AXIS2_PLACEMENT_3D('',#381,#382,#383);
#381 = CARTESIAN_POINT('',(5.9,-10.4,4.45));
#382 = DIRECTION('',(-0.57735026919,0.57735026919,-0.57735026919));
#383 = DIRECTION('',(-0.707106781187,1.249000902703E-15,0.707106781187)
  );
#384 = ADVANCED_FACE('',(#385),#410,.F.);
#385 = FACE_BOUND('',#386,.F.);
#386 = EDGE_LOOP('',(#387,#388,#396,#404));
#387 = ORIENTED_EDGE('',*,*,#156,.T.);
#388 = ORIENTED_EDGE('',*,*,#389,.T.);
#389 = EDGE_CURVE('',#149,#390,#392,.T.);
#390 = VERTEX_POINT('',#391);
#391 = CARTESIAN_POINT('',(-5.9,10.4,2.45));
#392 = LINE('',#393,#394);
#393 = CARTESIAN_POINT('',(6.9,10.4,2.45));
#394 = VECTOR('',#395,1.);
#395 = DIRECTION('',(-1.,0.,0.));
#396 = ORIENTED_EDGE('',*,*,#397,.F.);
#397 = EDGE_CURVE('',#398,#390,#400,.T.);
#398 = VERTEX_POINT('',#399);
#399 = CARTESIAN_POINT('',(-5.9,10.4,-4.45));
#400 = LINE('',#401,#402);
#401 = CARTESIAN_POINT('',(-5.9,10.4,-5.45));
#402 = VECTOR('',#403,1.);
#403 = DIRECTION('',(0.,0.,1.));
#404 = ORIENTED_EDGE('',*,*,#405,.F.);
#405 = EDGE_CURVE('',#140,#398,#406,.T.);
#406 = LINE('',#407,#408);
#407 = CARTESIAN_POINT('',(6.9,10.4,-4.45));
#408 = VECTOR('',#409,1.);
#409 = DIRECTION('',(-1.,0.,0.));
#410 = PLANE('',#411);
#411 = AXIS2_PLACEMENT_3D('',#412,#413,#414);
#412 = CARTESIAN_POINT('',(6.9,10.4,-5.45));
#413 = DIRECTION('',(0.,-1.,0.));
#414 = DIRECTION('',(-1.,0.,0.));
#415 = ADVANCED_FACE('',(#416),#426,.F.);
#416 = FACE_BOUND('',#417,.F.);
#417 = EDGE_LOOP('',(#418,#419,#425));
#418 = ORIENTED_EDGE('',*,*,#210,.F.);
#419 = ORIENTED_EDGE('',*,*,#420,.T.);
#420 = EDGE_CURVE('',#211,#149,#421,.T.);
#421 = LINE('',#422,#423);
#422 = CARTESIAN_POINT('',(5.9,9.65,3.2));
#423 = VECTOR('',#424,1.);
#424 = DIRECTION('',(-3.8E-16,0.707106781187,-0.707106781187));
#425 = ORIENTED_EDGE('',*,*,#148,.F.);
#426 = PLANE('',#427);
#427 = AXIS2_PLACEMENT_3D('',#428,#429,#430);
#428 = CARTESIAN_POINT('',(5.9,9.4,3.45));
#429 = DIRECTION('',(-0.57735026919,-0.57735026919,-0.57735026919));
#430 = DIRECTION('',(-0.707106781187,0.707106781187,-6.661338147751E-16)
  );
#431 = ADVANCED_FACE('',(#432),#442,.F.);
#432 = FACE_BOUND('',#433,.F.);
#433 = EDGE_LOOP('',(#434,#435,#441));
#434 = ORIENTED_EDGE('',*,*,#171,.F.);
#435 = ORIENTED_EDGE('',*,*,#436,.T.);
#436 = EDGE_CURVE('',#172,#235,#437,.T.);
#437 = LINE('',#438,#439);
#438 = CARTESIAN_POINT('',(5.9,6.75,5.2));
#439 = VECTOR('',#440,1.);
#440 = DIRECTION('',(6.7E-16,0.707106781187,-0.707106781187));
#441 = ORIENTED_EDGE('',*,*,#242,.F.);
#442 = PLANE('',#443);
#443 = AXIS2_PLACEMENT_3D('',#444,#445,#446);
#444 = CARTESIAN_POINT('',(5.9,6.5,5.45));
#445 = DIRECTION('',(-0.57735026919,-0.57735026919,-0.57735026919));
#446 = DIRECTION('',(-0.707106781187,0.707106781187,-6.661338147751E-16)
  );
#447 = ADVANCED_FACE('',(#448,#473,#484),#495,.T.);
#448 = FACE_BOUND('',#449,.T.);
#449 = EDGE_LOOP('',(#450,#451,#459,#467));
#450 = ORIENTED_EDGE('',*,*,#179,.T.);
#451 = ORIENTED_EDGE('',*,*,#452,.F.);
#452 = EDGE_CURVE('',#453,#172,#455,.T.);
#453 = VERTEX_POINT('',#454);
#454 = CARTESIAN_POINT('',(-5.9,6.5,5.45));
#455 = LINE('',#456,#457);
#456 = CARTESIAN_POINT('',(-6.9,6.5,5.45));
#457 = VECTOR('',#458,1.);
#458 = DIRECTION('',(1.,0.,0.));
#459 = ORIENTED_EDGE('',*,*,#460,.T.);
#460 = EDGE_CURVE('',#453,#461,#463,.T.);
#461 = VERTEX_POINT('',#462);
#462 = CARTESIAN_POINT('',(-5.9,-9.4,5.45));
#463 = LINE('',#464,#465);
#464 = CARTESIAN_POINT('',(-5.9,7.5,5.45));
#465 = VECTOR('',#466,1.);
#466 = DIRECTION('',(0.,-1.,0.));
#467 = ORIENTED_EDGE('',*,*,#468,.T.);
#468 = EDGE_CURVE('',#461,#180,#469,.T.);
#469 = LINE('',#470,#471);
#470 = CARTESIAN_POINT('',(-6.9,-9.4,5.45));
#471 = VECTOR('',#472,1.);
#472 = DIRECTION('',(1.,0.,0.));
#473 = FACE_BOUND('',#474,.T.);
#474 = EDGE_LOOP('',(#475));
#475 = ORIENTED_EDGE('',*,*,#476,.F.);
#476 = EDGE_CURVE('',#477,#477,#479,.T.);
#477 = VERTEX_POINT('',#478);
#478 = CARTESIAN_POINT('',(1.1,-4.5,5.45));
#479 = CIRCLE('',#480,1.1);
#480 = AXIS2_PLACEMENT_3D('',#481,#482,#483);
#481 = CARTESIAN_POINT('',(0.,-4.5,5.45));
#482 = DIRECTION('',(0.,0.,1.));
#483 = DIRECTION('',(1.,0.,0.));
#484 = FACE_BOUND('',#485,.T.);
#485 = EDGE_LOOP('',(#486));
#486 = ORIENTED_EDGE('',*,*,#487,.F.);
#487 = EDGE_CURVE('',#488,#488,#490,.T.);
#488 = VERTEX_POINT('',#489);
#489 = CARTESIAN_POINT('',(1.1,4.5,5.45));
#490 = CIRCLE('',#491,1.1);
#491 = AXIS2_PLACEMENT_3D('',#492,#493,#494);
#492 = CARTESIAN_POINT('',(0.,4.5,5.45));
#493 = DIRECTION('',(0.,0.,1.));
#494 = DIRECTION('',(1.,0.,0.));
#495 = PLANE('',#496);
#496 = AXIS2_PLACEMENT_3D('',#497,#498,#499);
#497 = CARTESIAN_POINT('',(0.,-4.1E-16,5.45));
#498 = DIRECTION('',(0.,0.,1.));
#499 = DIRECTION('',(1.,0.,0.));
#500 = ADVANCED_FACE('',(#501),#526,.T.);
#501 = FACE_BOUND('',#502,.T.);
#502 = EDGE_LOOP('',(#503,#511,#512,#520));
#503 = ORIENTED_EDGE('',*,*,#504,.T.);
#504 = EDGE_CURVE('',#505,#202,#507,.T.);
#505 = VERTEX_POINT('',#506);
#506 = CARTESIAN_POINT('',(-5.9,7.5,3.45));
#507 = LINE('',#508,#509);
#508 = CARTESIAN_POINT('',(-6.9,7.5,3.45));
#509 = VECTOR('',#510,1.);
#510 = DIRECTION('',(1.,0.,0.));
#511 = ORIENTED_EDGE('',*,*,#218,.T.);
#512 = ORIENTED_EDGE('',*,*,#513,.T.);
#513 = EDGE_CURVE('',#211,#514,#516,.T.);
#514 = VERTEX_POINT('',#515);
#515 = CARTESIAN_POINT('',(-5.9,9.4,3.45));
#516 = LINE('',#517,#518);
#517 = CARTESIAN_POINT('',(6.9,9.4,3.45));
#518 = VECTOR('',#519,1.);
#519 = DIRECTION('',(-1.,0.,0.));
#520 = ORIENTED_EDGE('',*,*,#521,.T.);
#521 = EDGE_CURVE('',#514,#505,#522,.T.);
#522 = LINE('',#523,#524);
#523 = CARTESIAN_POINT('',(-5.9,10.4,3.45));
#524 = VECTOR('',#525,1.);
#525 = DIRECTION('',(0.,-1.,0.));
#526 = PLANE('',#527);
#527 = AXIS2_PLACEMENT_3D('',#528,#529,#530);
#528 = CARTESIAN_POINT('',(-7.4E-16,8.95,3.45));
#529 = DIRECTION('',(0.,0.,1.));
#530 = DIRECTION('',(1.,0.,0.));
#531 = ADVANCED_FACE('',(#532),#550,.F.);
#532 = FACE_BOUND('',#533,.F.);
#533 = EDGE_LOOP('',(#534,#535,#536,#544));
#534 = ORIENTED_EDGE('',*,*,#504,.T.);
#535 = ORIENTED_EDGE('',*,*,#234,.F.);
#536 = ORIENTED_EDGE('',*,*,#537,.F.);
#537 = EDGE_CURVE('',#538,#235,#540,.T.);
#538 = VERTEX_POINT('',#539);
#539 = CARTESIAN_POINT('',(-5.9,7.5,4.45));
#540 = LINE('',#541,#542);
#541 = CARTESIAN_POINT('',(-6.9,7.5,4.45));
#542 = VECTOR('',#543,1.);
#543 = DIRECTION('',(1.,0.,0.));
#544 = ORIENTED_EDGE('',*,*,#545,.T.);
#545 = EDGE_CURVE('',#538,#505,#546,.T.);
#546 = LINE('',#547,#548);
#547 = CARTESIAN_POINT('',(-5.9,7.5,5.45));
#548 = VECTOR('',#549,1.);
#549 = DIRECTION('',(-0.,-0.,-1.));
#550 = PLANE('',#551);
#551 = AXIS2_PLACEMENT_3D('',#552,#553,#554);
#552 = CARTESIAN_POINT('',(-6.9,7.5,5.45));
#553 = DIRECTION('',(0.,-1.,0.));
#554 = DIRECTION('',(1.,0.,0.));
#555 = ADVANCED_FACE('',(#556),#567,.T.);
#556 = FACE_BOUND('',#557,.T.);
#557 = EDGE_LOOP('',(#558,#564,#565,#566));
#558 = ORIENTED_EDGE('',*,*,#559,.T.);
#559 = EDGE_CURVE('',#343,#298,#560,.T.);
#560 = LINE('',#561,#562);
#561 = CARTESIAN_POINT('',(-5.9,-10.15,-4.7));
#562 = VECTOR('',#563,1.);
#563 = DIRECTION('',(0.,0.707106781187,-0.707106781187));
#564 = ORIENTED_EDGE('',*,*,#305,.T.);
#565 = ORIENTED_EDGE('',*,*,#257,.F.);
#566 = ORIENTED_EDGE('',*,*,#342,.F.);
#567 = PLANE('',#568);
#568 = AXIS2_PLACEMENT_3D('',#569,#570,#571);
#569 = CARTESIAN_POINT('',(-6.9,-9.9,-4.95));
#570 = DIRECTION('',(0.,-0.707106781187,-0.707106781187));
#571 = DIRECTION('',(1.,0.,0.));
#572 = ADVANCED_FACE('',(#573),#584,.T.);
#573 = FACE_BOUND('',#574,.T.);
#574 = EDGE_LOOP('',(#575,#576,#577,#583));
#575 = ORIENTED_EDGE('',*,*,#273,.T.);
#576 = ORIENTED_EDGE('',*,*,#289,.T.);
#577 = ORIENTED_EDGE('',*,*,#578,.F.);
#578 = EDGE_CURVE('',#398,#290,#579,.T.);
#579 = LINE('',#580,#581);
#580 = CARTESIAN_POINT('',(-5.9,10.15,-4.7));
#581 = VECTOR('',#582,1.);
#582 = DIRECTION('',(-0.,-0.707106781187,-0.707106781187));
#583 = ORIENTED_EDGE('',*,*,#405,.F.);
#584 = PLANE('',#585);
#585 = AXIS2_PLACEMENT_3D('',#586,#587,#588);
#586 = CARTESIAN_POINT('',(6.9,9.9,-4.95));
#587 = DIRECTION('',(0.,0.707106781187,-0.707106781187));
#588 = DIRECTION('',(-1.,0.,0.));
#589 = ADVANCED_FACE('',(#590),#615,.T.);
#590 = FACE_BOUND('',#591,.T.);
#591 = EDGE_LOOP('',(#592,#593,#601,#609));
#592 = ORIENTED_EDGE('',*,*,#297,.T.);
#593 = ORIENTED_EDGE('',*,*,#594,.F.);
#594 = EDGE_CURVE('',#595,#298,#597,.T.);
#595 = VERTEX_POINT('',#596);
#596 = CARTESIAN_POINT('',(-6.9,-9.4,-4.45));
#597 = LINE('',#598,#599);
#598 = CARTESIAN_POINT('',(-6.4,-9.4,-4.95));
#599 = VECTOR('',#600,1.);
#600 = DIRECTION('',(0.707106781187,1.15E-15,-0.707106781187));
#601 = ORIENTED_EDGE('',*,*,#602,.F.);
#602 = EDGE_CURVE('',#603,#595,#605,.T.);
#603 = VERTEX_POINT('',#604);
#604 = CARTESIAN_POINT('',(-6.9,9.4,-4.45));
#605 = LINE('',#606,#607);
#606 = CARTESIAN_POINT('',(-6.9,10.4,-4.45));
#607 = VECTOR('',#608,1.);
#608 = DIRECTION('',(0.,-1.,0.));
#609 = ORIENTED_EDGE('',*,*,#610,.T.);
#610 = EDGE_CURVE('',#603,#290,#611,.T.);
#611 = LINE('',#612,#613);
#612 = CARTESIAN_POINT('',(-6.4,9.4,-4.95));
#613 = VECTOR('',#614,1.);
#614 = DIRECTION('',(0.707106781187,-1.15E-15,-0.707106781187));
#615 = PLANE('',#616);
#616 = AXIS2_PLACEMENT_3D('',#617,#618,#619);
#617 = CARTESIAN_POINT('',(-6.4,10.4,-4.95));
#618 = DIRECTION('',(-0.707106781187,0.,-0.707106781187));
#619 = DIRECTION('',(0.,-1.,0.));
#620 = ADVANCED_FACE('',(#621),#632,.F.);
#621 = FACE_BOUND('',#622,.F.);
#622 = EDGE_LOOP('',(#623,#624,#630,#631));
#623 = ORIENTED_EDGE('',*,*,#476,.F.);
#624 = ORIENTED_EDGE('',*,*,#625,.T.);
#625 = EDGE_CURVE('',#477,#314,#626,.T.);
#626 = LINE('',#627,#628);
#627 = CARTESIAN_POINT('',(1.1,-4.5,5.45));
#628 = VECTOR('',#629,1.);
#629 = DIRECTION('',(-0.,-0.,-1.));
#630 = ORIENTED_EDGE('',*,*,#313,.T.);
#631 = ORIENTED_EDGE('',*,*,#625,.F.);
#632 = CYLINDRICAL_SURFACE('',#633,1.1);
#633 = AXIS2_PLACEMENT_3D('',#634,#635,#636);
#634 = CARTESIAN_POINT('',(0.,-4.5,5.45));
#635 = DIRECTION('',(0.,0.,1.));
#636 = DIRECTION('',(1.,0.,0.));
#637 = ADVANCED_FACE('',(#638),#649,.F.);
#638 = FACE_BOUND('',#639,.F.);
#639 = EDGE_LOOP('',(#640,#641,#647,#648));
#640 = ORIENTED_EDGE('',*,*,#487,.F.);
#641 = ORIENTED_EDGE('',*,*,#642,.T.);
#642 = EDGE_CURVE('',#488,#325,#643,.T.);
#643 = LINE('',#644,#645);
#644 = CARTESIAN_POINT('',(1.1,4.5,5.45));
#645 = VECTOR('',#646,1.);
#646 = DIRECTION('',(-0.,-0.,-1.));
#647 = ORIENTED_EDGE('',*,*,#324,.T.);
#648 = ORIENTED_EDGE('',*,*,#642,.F.);
#649 = CYLINDRICAL_SURFACE('',#650,1.1);
#650 = AXIS2_PLACEMENT_3D('',#651,#652,#653);
#651 = CARTESIAN_POINT('',(0.,4.5,5.45));
#652 = DIRECTION('',(0.,0.,1.));
#653 = DIRECTION('',(1.,0.,0.));
#654 = ADVANCED_FACE('',(#655),#666,.F.);
#655 = FACE_BOUND('',#656,.F.);
#656 = EDGE_LOOP('',(#657,#663,#664,#665));
#657 = ORIENTED_EDGE('',*,*,#658,.F.);
#658 = EDGE_CURVE('',#461,#351,#659,.T.);
#659 = LINE('',#660,#661);
#660 = CARTESIAN_POINT('',(-5.9,-9.65,5.2));
#661 = VECTOR('',#662,1.);
#662 = DIRECTION('',(-1.25E-15,-0.707106781187,-0.707106781187));
#663 = ORIENTED_EDGE('',*,*,#468,.T.);
#664 = ORIENTED_EDGE('',*,*,#373,.F.);
#665 = ORIENTED_EDGE('',*,*,#358,.F.);
#666 = PLANE('',#667);
#667 = AXIS2_PLACEMENT_3D('',#668,#669,#670);
#668 = CARTESIAN_POINT('',(-6.9,-9.9,4.95));
#669 = DIRECTION('',(0.,0.707106781187,-0.707106781187));
#670 = DIRECTION('',(1.,0.,0.));
#671 = ADVANCED_FACE('',(#672),#695,.T.);
#672 = FACE_BOUND('',#673,.T.);
#673 = EDGE_LOOP('',(#674,#680,#681,#689));
#674 = ORIENTED_EDGE('',*,*,#675,.F.);
#675 = EDGE_CURVE('',#343,#595,#676,.T.);
#676 = LINE('',#677,#678);
#677 = CARTESIAN_POINT('',(-6.15,-10.15,-4.45));
#678 = VECTOR('',#679,1.);
#679 = DIRECTION('',(-0.707106781187,0.707106781187,-1.25E-15));
#680 = ORIENTED_EDGE('',*,*,#350,.T.);
#681 = ORIENTED_EDGE('',*,*,#682,.F.);
#682 = EDGE_CURVE('',#683,#351,#685,.T.);
#683 = VERTEX_POINT('',#684);
#684 = CARTESIAN_POINT('',(-6.9,-9.4,4.45));
#685 = LINE('',#686,#687);
#686 = CARTESIAN_POINT('',(-6.4,-9.9,4.45));
#687 = VECTOR('',#688,1.);
#688 = DIRECTION('',(0.707106781187,-0.707106781187,-1.25E-15));
#689 = ORIENTED_EDGE('',*,*,#690,.F.);
#690 = EDGE_CURVE('',#595,#683,#691,.T.);
#691 = LINE('',#692,#693);
#692 = CARTESIAN_POINT('',(-6.9,-9.4,-5.45));
#693 = VECTOR('',#694,1.);
#694 = DIRECTION('',(0.,0.,1.));
#695 = PLANE('',#696);
#696 = AXIS2_PLACEMENT_3D('',#697,#698,#699);
#697 = CARTESIAN_POINT('',(-6.4,-9.9,-5.45));
#698 = DIRECTION('',(-0.707106781187,-0.707106781187,0.));
#699 = DIRECTION('',(0.,0.,1.));
#700 = ADVANCED_FACE('',(#701),#712,.F.);
#701 = FACE_BOUND('',#702,.T.);
#702 = EDGE_LOOP('',(#703,#704,#705,#711));
#703 = ORIENTED_EDGE('',*,*,#420,.T.);
#704 = ORIENTED_EDGE('',*,*,#389,.T.);
#705 = ORIENTED_EDGE('',*,*,#706,.T.);
#706 = EDGE_CURVE('',#390,#514,#707,.T.);
#707 = LINE('',#708,#709);
#708 = CARTESIAN_POINT('',(-5.9,10.15,2.7));
#709 = VECTOR('',#710,1.);
#710 = DIRECTION('',(-3.8E-16,-0.707106781187,0.707106781187));
#711 = ORIENTED_EDGE('',*,*,#513,.F.);
#712 = PLANE('',#713);
#713 = AXIS2_PLACEMENT_3D('',#714,#715,#716);
#714 = CARTESIAN_POINT('',(6.9,9.9,2.95));
#715 = DIRECTION('',(0.,-0.707106781187,-0.707106781187));
#716 = DIRECTION('',(1.,0.,0.));
#717 = ADVANCED_FACE('',(#718),#741,.T.);
#718 = FACE_BOUND('',#719,.F.);
#719 = EDGE_LOOP('',(#720,#726,#727,#735));
#720 = ORIENTED_EDGE('',*,*,#721,.F.);
#721 = EDGE_CURVE('',#398,#603,#722,.T.);
#722 = LINE('',#723,#724);
#723 = CARTESIAN_POINT('',(-6.15,10.15,-4.45));
#724 = VECTOR('',#725,1.);
#725 = DIRECTION('',(-0.707106781187,-0.707106781187,-1.25E-15));
#726 = ORIENTED_EDGE('',*,*,#397,.T.);
#727 = ORIENTED_EDGE('',*,*,#728,.T.);
#728 = EDGE_CURVE('',#390,#729,#731,.T.);
#729 = VERTEX_POINT('',#730);
#730 = CARTESIAN_POINT('',(-6.9,9.4,2.45));
#731 = LINE('',#732,#733);
#732 = CARTESIAN_POINT('',(-6.15,10.15,2.45));
#733 = VECTOR('',#734,1.);
#734 = DIRECTION('',(-0.707106781187,-0.707106781187,1.83E-15));
#735 = ORIENTED_EDGE('',*,*,#736,.F.);
#736 = EDGE_CURVE('',#603,#729,#737,.T.);
#737 = LINE('',#738,#739);
#738 = CARTESIAN_POINT('',(-6.9,9.4,-5.45));
#739 = VECTOR('',#740,1.);
#740 = DIRECTION('',(0.,0.,1.));
#741 = PLANE('',#742);
#742 = AXIS2_PLACEMENT_3D('',#743,#744,#745);
#743 = CARTESIAN_POINT('',(-6.4,9.9,-5.45));
#744 = DIRECTION('',(-0.707106781187,0.707106781187,0.));
#745 = DIRECTION('',(-0.,-0.,-1.));
#746 = ADVANCED_FACE('',(#747),#758,.F.);
#747 = FACE_BOUND('',#748,.F.);
#748 = EDGE_LOOP('',(#749,#755,#756,#757));
#749 = ORIENTED_EDGE('',*,*,#750,.F.);
#750 = EDGE_CURVE('',#538,#453,#751,.T.);
#751 = LINE('',#752,#753);
#752 = CARTESIAN_POINT('',(-5.9,7.25,4.7));
#753 = VECTOR('',#754,1.);
#754 = DIRECTION('',(0.,-0.707106781187,0.707106781187));
#755 = ORIENTED_EDGE('',*,*,#537,.T.);
#756 = ORIENTED_EDGE('',*,*,#436,.F.);
#757 = ORIENTED_EDGE('',*,*,#452,.F.);
#758 = PLANE('',#759);
#759 = AXIS2_PLACEMENT_3D('',#760,#761,#762);
#760 = CARTESIAN_POINT('',(-6.9,7.,4.95));
#761 = DIRECTION('',(0.,-0.707106781187,-0.707106781187));
#762 = DIRECTION('',(1.,0.,0.));
#763 = ADVANCED_FACE('',(#764),#787,.F.);
#764 = FACE_BOUND('',#765,.F.);
#765 = EDGE_LOOP('',(#766,#767,#773,#781));
#766 = ORIENTED_EDGE('',*,*,#460,.T.);
#767 = ORIENTED_EDGE('',*,*,#768,.T.);
#768 = EDGE_CURVE('',#461,#683,#769,.T.);
#769 = LINE('',#770,#771);
#770 = CARTESIAN_POINT('',(-6.15,-9.4,5.2));
#771 = VECTOR('',#772,1.);
#772 = DIRECTION('',(-0.707106781187,-2.5E-15,-0.707106781187));
#773 = ORIENTED_EDGE('',*,*,#774,.F.);
#774 = EDGE_CURVE('',#775,#683,#777,.T.);
#775 = VERTEX_POINT('',#776);
#776 = CARTESIAN_POINT('',(-6.9,6.5,4.45));
#777 = LINE('',#778,#779);
#778 = CARTESIAN_POINT('',(-6.9,7.5,4.45));
#779 = VECTOR('',#780,1.);
#780 = DIRECTION('',(0.,-1.,0.));
#781 = ORIENTED_EDGE('',*,*,#782,.T.);
#782 = EDGE_CURVE('',#775,#453,#783,.T.);
#783 = LINE('',#784,#785);
#784 = CARTESIAN_POINT('',(-6.4,6.5,4.95));
#785 = VECTOR('',#786,1.);
#786 = DIRECTION('',(0.707106781187,-6.7E-16,0.707106781187));
#787 = PLANE('',#788);
#788 = AXIS2_PLACEMENT_3D('',#789,#790,#791);
#789 = CARTESIAN_POINT('',(-6.4,7.5,4.95));
#790 = DIRECTION('',(0.707106781187,0.,-0.707106781187));
#791 = DIRECTION('',(0.,-1.,0.));
#792 = ADVANCED_FACE('',(#793),#816,.F.);
#793 = FACE_BOUND('',#794,.F.);
#794 = EDGE_LOOP('',(#795,#796,#804,#810));
#795 = ORIENTED_EDGE('',*,*,#521,.T.);
#796 = ORIENTED_EDGE('',*,*,#797,.T.);
#797 = EDGE_CURVE('',#505,#798,#800,.T.);
#798 = VERTEX_POINT('',#799);
#799 = CARTESIAN_POINT('',(-6.9,6.5,2.45));
#800 = LINE('',#801,#802);
#801 = CARTESIAN_POINT('',(-5.416666666667,7.983333333333,3.933333333333
    ));
#802 = VECTOR('',#803,1.);
#803 = DIRECTION('',(-0.57735026919,-0.57735026919,-0.57735026919));
#804 = ORIENTED_EDGE('',*,*,#805,.F.);
#805 = EDGE_CURVE('',#729,#798,#806,.T.);
#806 = LINE('',#807,#808);
#807 = CARTESIAN_POINT('',(-6.9,10.4,2.45));
#808 = VECTOR('',#809,1.);
#809 = DIRECTION('',(0.,-1.,0.));
#810 = ORIENTED_EDGE('',*,*,#811,.T.);
#811 = EDGE_CURVE('',#729,#514,#812,.T.);
#812 = LINE('',#813,#814);
#813 = CARTESIAN_POINT('',(-6.4,9.4,2.95));
#814 = VECTOR('',#815,1.);
#815 = DIRECTION('',(0.707106781187,-1.44E-15,0.707106781187));
#816 = PLANE('',#817);
#817 = AXIS2_PLACEMENT_3D('',#818,#819,#820);
#818 = CARTESIAN_POINT('',(-6.4,10.4,2.95));
#819 = DIRECTION('',(0.707106781187,0.,-0.707106781187));
#820 = DIRECTION('',(0.,-1.,0.));
#821 = ADVANCED_FACE('',(#822),#838,.T.);
#822 = FACE_BOUND('',#823,.T.);
#823 = EDGE_LOOP('',(#824,#830,#831,#832));
#824 = ORIENTED_EDGE('',*,*,#825,.F.);
#825 = EDGE_CURVE('',#538,#775,#826,.T.);
#826 = LINE('',#827,#828);
#827 = CARTESIAN_POINT('',(-6.15,7.25,4.45));
#828 = VECTOR('',#829,1.);
#829 = DIRECTION('',(-0.707106781187,-0.707106781187,6.7E-16));
#830 = ORIENTED_EDGE('',*,*,#545,.T.);
#831 = ORIENTED_EDGE('',*,*,#797,.T.);
#832 = ORIENTED_EDGE('',*,*,#833,.F.);
#833 = EDGE_CURVE('',#775,#798,#834,.T.);
#834 = LINE('',#835,#836);
#835 = CARTESIAN_POINT('',(-6.9,6.5,5.45));
#836 = VECTOR('',#837,1.);
#837 = DIRECTION('',(-0.,-0.,-1.));
#838 = PLANE('',#839);
#839 = AXIS2_PLACEMENT_3D('',#840,#841,#842);
#840 = CARTESIAN_POINT('',(-6.4,7.,5.45));
#841 = DIRECTION('',(-0.707106781187,0.707106781187,0.));
#842 = DIRECTION('',(0.,0.,-1.));
#843 = ADVANCED_FACE('',(#844),#849,.F.);
#844 = FACE_BOUND('',#845,.F.);
#845 = EDGE_LOOP('',(#846,#847,#848));
#846 = ORIENTED_EDGE('',*,*,#675,.F.);
#847 = ORIENTED_EDGE('',*,*,#559,.T.);
#848 = ORIENTED_EDGE('',*,*,#594,.F.);
#849 = PLANE('',#850);
#850 = AXIS2_PLACEMENT_3D('',#851,#852,#853);
#851 = CARTESIAN_POINT('',(-5.9,-10.4,-4.45));
#852 = DIRECTION('',(0.57735026919,0.57735026919,0.57735026919));
#853 = DIRECTION('',(0.707106781187,1.249000902703E-15,-0.707106781187)
  );
#854 = ADVANCED_FACE('',(#855),#860,.T.);
#855 = FACE_BOUND('',#856,.T.);
#856 = EDGE_LOOP('',(#857,#858,#859));
#857 = ORIENTED_EDGE('',*,*,#721,.F.);
#858 = ORIENTED_EDGE('',*,*,#578,.T.);
#859 = ORIENTED_EDGE('',*,*,#610,.F.);
#860 = PLANE('',#861);
#861 = AXIS2_PLACEMENT_3D('',#862,#863,#864);
#862 = CARTESIAN_POINT('',(-5.9,10.4,-4.45));
#863 = DIRECTION('',(-0.57735026919,0.57735026919,-0.57735026919));
#864 = DIRECTION('',(0.707106781187,-1.249000902703E-15,-0.707106781187)
  );
#865 = ADVANCED_FACE('',(#866),#874,.F.);
#866 = FACE_BOUND('',#867,.F.);
#867 = EDGE_LOOP('',(#868,#869,#870,#871,#872,#873));
#868 = ORIENTED_EDGE('',*,*,#602,.F.);
#869 = ORIENTED_EDGE('',*,*,#736,.T.);
#870 = ORIENTED_EDGE('',*,*,#805,.T.);
#871 = ORIENTED_EDGE('',*,*,#833,.F.);
#872 = ORIENTED_EDGE('',*,*,#774,.T.);
#873 = ORIENTED_EDGE('',*,*,#690,.F.);
#874 = PLANE('',#875);
#875 = AXIS2_PLACEMENT_3D('',#876,#877,#878);
#876 = CARTESIAN_POINT('',(-6.9,10.4,-5.45));
#877 = DIRECTION('',(1.,0.,0.));
#878 = DIRECTION('',(0.,-1.,0.));
#879 = ADVANCED_FACE('',(#880),#885,.F.);
#880 = FACE_BOUND('',#881,.F.);
#881 = EDGE_LOOP('',(#882,#883,#884));
#882 = ORIENTED_EDGE('',*,*,#768,.F.);
#883 = ORIENTED_EDGE('',*,*,#658,.T.);
#884 = ORIENTED_EDGE('',*,*,#682,.F.);
#885 = PLANE('',#886);
#886 = AXIS2_PLACEMENT_3D('',#887,#888,#889);
#887 = CARTESIAN_POINT('',(-5.9,-9.4,5.45));
#888 = DIRECTION('',(0.57735026919,0.57735026919,-0.57735026919));
#889 = DIRECTION('',(0.707106781187,-0.707106781187,-6.661338147751E-16)
  );
#890 = ADVANCED_FACE('',(#891),#896,.F.);
#891 = FACE_BOUND('',#892,.F.);
#892 = EDGE_LOOP('',(#893,#894,#895));
#893 = ORIENTED_EDGE('',*,*,#728,.F.);
#894 = ORIENTED_EDGE('',*,*,#706,.T.);
#895 = ORIENTED_EDGE('',*,*,#811,.F.);
#896 = PLANE('',#897);
#897 = AXIS2_PLACEMENT_3D('',#898,#899,#900);
#898 = CARTESIAN_POINT('',(-5.9,10.4,2.45));
#899 = DIRECTION('',(0.57735026919,-0.57735026919,-0.57735026919));
#900 = DIRECTION('',(0.707106781187,-1.137978600241E-15,0.707106781187)
  );
#901 = ADVANCED_FACE('',(#902),#907,.F.);
#902 = FACE_BOUND('',#903,.F.);
#903 = EDGE_LOOP('',(#904,#905,#906));
#904 = ORIENTED_EDGE('',*,*,#825,.F.);
#905 = ORIENTED_EDGE('',*,*,#750,.T.);
#906 = ORIENTED_EDGE('',*,*,#782,.F.);
#907 = PLANE('',#908);
#908 = AXIS2_PLACEMENT_3D('',#909,#910,#911);
#909 = CARTESIAN_POINT('',(-5.9,7.5,4.45));
#910 = DIRECTION('',(0.57735026919,-0.57735026919,-0.57735026919));
#911 = DIRECTION('',(0.707106781187,-6.661338147751E-16,0.707106781187)
  );
#912 = ( GEOMETRIC_REPRESENTATION_CONTEXT(3) 
GLOBAL_UNCERTAINTY_ASSIGNED_CONTEXT((#916)) GLOBAL_UNIT_ASSIGNED_CONTEXT
((#913,#914,#915)) REPRESENTATION_CONTEXT('Context #1',
  '3D Context with UNIT and UNCERTAINTY') );
#913 = ( LENGTH_UNIT() NAMED_UNIT(*) SI_UNIT(.MILLI.,.METRE.) );
#914 = ( NAMED_UNIT(*) PLANE_ANGLE_UNIT() SI_UNIT($,.RADIAN.) );
#915 = ( NAMED_UNIT(*) SI_UNIT($,.STERADIAN.) SOLID_ANGLE_UNIT() );
#916 = UNCERTAINTY_MEASURE_WITH_UNIT(LENGTH_MEASURE(1.E-07),#913,
  'distance_accuracy_value','confusion accuracy');
#917 = PRODUCT_RELATED_PRODUCT_CATEGORY('part',$,(#7));
ENDSEC;
END-ISO-10303-21;
