ISO-10303-21;
HEADER;
FILE_DESCRIPTION(('FreeCAD Model'),'2;1');
FILE_NAME('Open CASCADE Shape Model','2026-09-06T12:30:38',('FreeCAD'),(
    'FreeCAD'),'Open CASCADE STEP processor 7.8','FreeCAD','Unknown');
FILE_SCHEMA(('AUTOMOTIVE_DESIGN { 1 0 10303 214 1 1 1 1 }'));
ENDSEC;
DATA;
#1 = APPLICATION_PROTOCOL_DEFINITION('international standard',
  'automotive_design',2000,#2);
#2 = APPLICATION_CONTEXT(
  'core data for automotive mechanical design processes');
#3 = SHAPE_DEFINITION_REPRESENTATION(#4,#10);
#4 = PRODUCT_DEFINITION_SHAPE('','',#5);
#5 = PRODUCT_DEFINITION('design','',#6,#9);
#6 = PRODUCT_DEFINITION_FORMATION('','',#7);
#7 = PRODUCT('Open CASCADE STEP translator 7.8 242',
  'Open CASCADE STEP translator 7.8 242','',(#8));
#8 = PRODUCT_CONTEXT('',#2,'mechanical');
#9 = PRODUCT_DEFINITION_CONTEXT('part definition',#2,'design');
#10 = ADVANCED_BREP_SHAPE_REPRESENTATION('',(#11,#15),#1086);
#11 = AXIS2_PLACEMENT_3D('',#12,#13,#14);
#12 = CARTESIAN_POINT('',(0.,0.,0.));
#13 = DIRECTION('',(0.,0.,1.));
#14 = DIRECTION('',(1.,0.,-0.));
#15 = MANIFOLD_SOLID_BREP('',#16);
#16 = CLOSED_SHELL('',(#17,#79,#104,#135,#166,#197,#228,#253,#278,#341,
    #357,#373,#404,#420,#451,#467,#556,#581,#615,#637,#668,#685,#709,
    #733,#750,#774,#796,#808,#835,#847,#867,#900,#925,#965,#990,#1012,
    #1031,#1042,#1053,#1064,#1075));
#17 = ADVANCED_FACE('',(#18,#29,#63),#74,.F.);
#18 = FACE_BOUND('',#19,.F.);
#19 = EDGE_LOOP('',(#20));
#20 = ORIENTED_EDGE('',*,*,#21,.T.);
#21 = EDGE_CURVE('',#22,#22,#24,.T.);
#22 = VERTEX_POINT('',#23);
#23 = CARTESIAN_POINT('',(15.55,-7.5,-5.E-15));
#24 = CIRCLE('',#25,3.05);
#25 = AXIS2_PLACEMENT_3D('',#26,#27,#28);
#26 = CARTESIAN_POINT('',(12.5,-7.5,0.));
#27 = DIRECTION('',(0.,-1.,-2.2E-16));
#28 = DIRECTION('',(1.,2.288E-31,-1.04E-15));
#29 = FACE_BOUND('',#30,.F.);
#30 = EDGE_LOOP('',(#31,#41,#49,#57));
#31 = ORIENTED_EDGE('',*,*,#32,.F.);
#32 = EDGE_CURVE('',#33,#35,#37,.T.);
#33 = VERTEX_POINT('',#34);
#34 = CARTESIAN_POINT('',(18.,-7.5,11.2));
#35 = VERTEX_POINT('',#36);
#36 = CARTESIAN_POINT('',(-18.,-7.5,11.2));
#37 = LINE('',#38,#39);
#38 = CARTESIAN_POINT('',(19.,-7.5,11.2));
#39 = VECTOR('',#40,1.);
#40 = DIRECTION('',(-1.,0.,0.));
#41 = ORIENTED_EDGE('',*,*,#42,.F.);
#42 = EDGE_CURVE('',#43,#33,#45,.T.);
#43 = VERTEX_POINT('',#44);
#44 = CARTESIAN_POINT('',(18.,-7.5,-11.2));
#45 = LINE('',#46,#47);
#46 = CARTESIAN_POINT('',(18.,-7.5,-12.2));
#47 = VECTOR('',#48,1.);
#48 = DIRECTION('',(0.,-2.2E-16,1.));
#49 = ORIENTED_EDGE('',*,*,#50,.F.);
#50 = EDGE_CURVE('',#51,#43,#53,.T.);
#51 = VERTEX_POINT('',#52);
#52 = CARTESIAN_POINT('',(-18.,-7.5,-11.2));
#53 = LINE('',#54,#55);
#54 = CARTESIAN_POINT('',(-19.,-7.5,-11.2));
#55 = VECTOR('',#56,1.);
#56 = DIRECTION('',(1.,0.,0.));
#57 = ORIENTED_EDGE('',*,*,#58,.F.);
#58 = EDGE_CURVE('',#35,#51,#59,.T.);
#59 = LINE('',#60,#61);
#60 = CARTESIAN_POINT('',(-18.,-7.5,12.2));
#61 = VECTOR('',#62,1.);
#62 = DIRECTION('',(0.,2.2E-16,-1.));
#63 = FACE_BOUND('',#64,.F.);
#64 = EDGE_LOOP('',(#65));
#65 = ORIENTED_EDGE('',*,*,#66,.T.);
#66 = EDGE_CURVE('',#67,#67,#69,.T.);
#67 = VERTEX_POINT('',#68);
#68 = CARTESIAN_POINT('',(-9.45,-7.5,-5.E-15));
#69 = CIRCLE('',#70,3.05);
#70 = AXIS2_PLACEMENT_3D('',#71,#72,#73);
#71 = CARTESIAN_POINT('',(-12.5,-7.5,0.));
#72 = DIRECTION('',(0.,-1.,-2.2E-16));
#73 = DIRECTION('',(1.,2.288E-31,-1.04E-15));
#74 = PLANE('',#75);
#75 = AXIS2_PLACEMENT_3D('',#76,#77,#78);
#76 = CARTESIAN_POINT('',(-4.6E-16,-7.5,2.6645352591E-15));
#77 = DIRECTION('',(0.,1.,2.2E-16));
#78 = DIRECTION('',(0.,-2.2E-16,1.));
#79 = ADVANCED_FACE('',(#80),#99,.F.);
#80 = FACE_BOUND('',#81,.T.);
#81 = EDGE_LOOP('',(#82,#90,#91,#92));
#82 = ORIENTED_EDGE('',*,*,#83,.F.);
#83 = EDGE_CURVE('',#22,#84,#86,.T.);
#84 = VERTEX_POINT('',#85);
#85 = CARTESIAN_POINT('',(14.1,-5.7,-3.E-15));
#86 = LINE('',#87,#88);
#87 = CARTESIAN_POINT('',(14.1,-5.7,-1.27E-15));
#88 = VECTOR('',#89,1.);
#89 = DIRECTION('',(-0.627329537873,0.778753909083,8.3E-16));
#90 = ORIENTED_EDGE('',*,*,#21,.T.);
#91 = ORIENTED_EDGE('',*,*,#83,.T.);
#92 = ORIENTED_EDGE('',*,*,#93,.F.);
#93 = EDGE_CURVE('',#84,#84,#94,.T.);
#94 = CIRCLE('',#95,1.6);
#95 = AXIS2_PLACEMENT_3D('',#96,#97,#98);
#96 = CARTESIAN_POINT('',(12.5,-5.7,4.E-16));
#97 = DIRECTION('',(0.,-1.,-2.2E-16));
#98 = DIRECTION('',(1.,2.288E-31,-1.04E-15));
#99 = CONICAL_SURFACE('',#100,1.6,0.678119307749);
#100 = AXIS2_PLACEMENT_3D('',#101,#102,#103);
#101 = CARTESIAN_POINT('',(12.5,-5.7,4.E-16));
#102 = DIRECTION('',(-0.,-1.,-2.2E-16));
#103 = DIRECTION('',(1.,2.288E-31,-1.04E-15));
#104 = ADVANCED_FACE('',(#105),#130,.T.);
#105 = FACE_BOUND('',#106,.T.);
#106 = EDGE_LOOP('',(#107,#117,#123,#124));
#107 = ORIENTED_EDGE('',*,*,#108,.T.);
#108 = EDGE_CURVE('',#109,#111,#113,.T.);
#109 = VERTEX_POINT('',#110);
#110 = CARTESIAN_POINT('',(18.,-6.5,12.2));
#111 = VERTEX_POINT('',#112);
#112 = CARTESIAN_POINT('',(-18.,-6.5,12.2));
#113 = LINE('',#114,#115);
#114 = CARTESIAN_POINT('',(19.,-6.5,12.2));
#115 = VECTOR('',#116,1.);
#116 = DIRECTION('',(-1.,0.,0.));
#117 = ORIENTED_EDGE('',*,*,#118,.F.);
#118 = EDGE_CURVE('',#35,#111,#119,.T.);
#119 = LINE('',#120,#121);
#120 = CARTESIAN_POINT('',(-18.,-7.25,11.45));
#121 = VECTOR('',#122,1.);
#122 = DIRECTION('',(5.8E-16,0.707106781187,0.707106781187));
#123 = ORIENTED_EDGE('',*,*,#32,.F.);
#124 = ORIENTED_EDGE('',*,*,#125,.F.);
#125 = EDGE_CURVE('',#109,#33,#126,.T.);
#126 = LINE('',#127,#128);
#127 = CARTESIAN_POINT('',(18.,-7.,11.7));
#128 = VECTOR('',#129,1.);
#129 = DIRECTION('',(5.8E-16,-0.707106781187,-0.707106781187));
#130 = PLANE('',#131);
#131 = AXIS2_PLACEMENT_3D('',#132,#133,#134);
#132 = CARTESIAN_POINT('',(19.,-7.,11.7));
#133 = DIRECTION('',(0.,-0.707106781187,0.707106781187));
#134 = DIRECTION('',(-1.,0.,0.));
#135 = ADVANCED_FACE('',(#136),#161,.T.);
#136 = FACE_BOUND('',#137,.T.);
#137 = EDGE_LOOP('',(#138,#148,#154,#155));
#138 = ORIENTED_EDGE('',*,*,#139,.T.);
#139 = EDGE_CURVE('',#140,#142,#144,.T.);
#140 = VERTEX_POINT('',#141);
#141 = CARTESIAN_POINT('',(19.,-6.5,-11.2));
#142 = VERTEX_POINT('',#143);
#143 = CARTESIAN_POINT('',(19.,-6.5,11.2));
#144 = LINE('',#145,#146);
#145 = CARTESIAN_POINT('',(19.,-6.5,-12.2));
#146 = VECTOR('',#147,1.);
#147 = DIRECTION('',(0.,-2.2E-16,1.));
#148 = ORIENTED_EDGE('',*,*,#149,.T.);
#149 = EDGE_CURVE('',#142,#33,#150,.T.);
#150 = LINE('',#151,#152);
#151 = CARTESIAN_POINT('',(18.75,-6.75,11.2));
#152 = VECTOR('',#153,1.);
#153 = DIRECTION('',(-0.707106781187,-0.707106781187,-1.6E-16));
#154 = ORIENTED_EDGE('',*,*,#42,.F.);
#155 = ORIENTED_EDGE('',*,*,#156,.T.);
#156 = EDGE_CURVE('',#43,#140,#157,.T.);
#157 = LINE('',#158,#159);
#158 = CARTESIAN_POINT('',(18.5,-7.,-11.2));
#159 = VECTOR('',#160,1.);
#160 = DIRECTION('',(0.707106781187,0.707106781187,-2.44E-15));
#161 = PLANE('',#162);
#162 = AXIS2_PLACEMENT_3D('',#163,#164,#165);
#163 = CARTESIAN_POINT('',(18.5,-7.,-12.2));
#164 = DIRECTION('',(0.707106781187,-0.707106781187,-1.6E-16));
#165 = DIRECTION('',(3.137084989848E-18,-2.231370849898E-16,1.));
#166 = ADVANCED_FACE('',(#167),#192,.T.);
#167 = FACE_BOUND('',#168,.F.);
#168 = EDGE_LOOP('',(#169,#177,#178,#186));
#169 = ORIENTED_EDGE('',*,*,#170,.F.);
#170 = EDGE_CURVE('',#35,#171,#173,.T.);
#171 = VERTEX_POINT('',#172);
#172 = CARTESIAN_POINT('',(-19.,-6.5,11.2));
#173 = LINE('',#174,#175);
#174 = CARTESIAN_POINT('',(-18.25,-7.25,11.2));
#175 = VECTOR('',#176,1.);
#176 = DIRECTION('',(-0.707106781187,0.707106781187,1.6E-16));
#177 = ORIENTED_EDGE('',*,*,#58,.T.);
#178 = ORIENTED_EDGE('',*,*,#179,.T.);
#179 = EDGE_CURVE('',#51,#180,#182,.T.);
#180 = VERTEX_POINT('',#181);
#181 = CARTESIAN_POINT('',(-19.,-6.5,-11.2));
#182 = LINE('',#183,#184);
#183 = CARTESIAN_POINT('',(-18.5,-7.,-11.2));
#184 = VECTOR('',#185,1.);
#185 = DIRECTION('',(-0.707106781187,0.707106781187,1.6E-16));
#186 = ORIENTED_EDGE('',*,*,#187,.F.);
#187 = EDGE_CURVE('',#171,#180,#188,.T.);
#188 = LINE('',#189,#190);
#189 = CARTESIAN_POINT('',(-19.,-6.5,12.2));
#190 = VECTOR('',#191,1.);
#191 = DIRECTION('',(0.,2.2E-16,-1.));
#192 = PLANE('',#193);
#193 = AXIS2_PLACEMENT_3D('',#194,#195,#196);
#194 = CARTESIAN_POINT('',(-18.5,-7.,12.2));
#195 = DIRECTION('',(-0.707106781187,-0.707106781187,-1.6E-16));
#196 = DIRECTION('',(-3.137084989848E-18,-2.231370849898E-16,1.));
#197 = ADVANCED_FACE('',(#198),#223,.T.);
#198 = FACE_BOUND('',#199,.F.);
#199 = EDGE_LOOP('',(#200,#208,#209,#217));
#200 = ORIENTED_EDGE('',*,*,#201,.T.);
#201 = EDGE_CURVE('',#202,#51,#204,.T.);
#202 = VERTEX_POINT('',#203);
#203 = CARTESIAN_POINT('',(-18.,-6.5,-12.2));
#204 = LINE('',#205,#206);
#205 = CARTESIAN_POINT('',(-18.,-6.75,-11.95));
#206 = VECTOR('',#207,1.);
#207 = DIRECTION('',(6.7E-16,-0.707106781187,0.707106781187));
#208 = ORIENTED_EDGE('',*,*,#50,.T.);
#209 = ORIENTED_EDGE('',*,*,#210,.F.);
#210 = EDGE_CURVE('',#211,#43,#213,.T.);
#211 = VERTEX_POINT('',#212);
#212 = CARTESIAN_POINT('',(18.,-6.5,-12.2));
#213 = LINE('',#214,#215);
#214 = CARTESIAN_POINT('',(18.,-6.75,-11.95));
#215 = VECTOR('',#216,1.);
#216 = DIRECTION('',(-6.7E-16,-0.707106781187,0.707106781187));
#217 = ORIENTED_EDGE('',*,*,#218,.F.);
#218 = EDGE_CURVE('',#202,#211,#219,.T.);
#219 = LINE('',#220,#221);
#220 = CARTESIAN_POINT('',(-19.,-6.5,-12.2));
#221 = VECTOR('',#222,1.);
#222 = DIRECTION('',(1.,0.,0.));
#223 = PLANE('',#224);
#224 = AXIS2_PLACEMENT_3D('',#225,#226,#227);
#225 = CARTESIAN_POINT('',(-19.,-7.,-11.7));
#226 = DIRECTION('',(0.,-0.707106781187,-0.707106781187));
#227 = DIRECTION('',(-1.,-0.,-0.));
#228 = ADVANCED_FACE('',(#229),#248,.F.);
#229 = FACE_BOUND('',#230,.T.);
#230 = EDGE_LOOP('',(#231,#239,#240,#241));
#231 = ORIENTED_EDGE('',*,*,#232,.F.);
#232 = EDGE_CURVE('',#67,#233,#235,.T.);
#233 = VERTEX_POINT('',#234);
#234 = CARTESIAN_POINT('',(-10.9,-5.7,-3.E-15));
#235 = LINE('',#236,#237);
#236 = CARTESIAN_POINT('',(-10.9,-5.7,-1.27E-15));
#237 = VECTOR('',#238,1.);
#238 = DIRECTION('',(-0.627329537873,0.778753909083,8.3E-16));
#239 = ORIENTED_EDGE('',*,*,#66,.T.);
#240 = ORIENTED_EDGE('',*,*,#232,.T.);
#241 = ORIENTED_EDGE('',*,*,#242,.F.);
#242 = EDGE_CURVE('',#233,#233,#243,.T.);
#243 = CIRCLE('',#244,1.6);
#244 = AXIS2_PLACEMENT_3D('',#245,#246,#247);
#245 = CARTESIAN_POINT('',(-12.5,-5.7,4.E-16));
#246 = DIRECTION('',(0.,-1.,-2.2E-16));
#247 = DIRECTION('',(1.,2.288E-31,-1.04E-15));
#248 = CONICAL_SURFACE('',#249,1.6,0.678119307749);
#249 = AXIS2_PLACEMENT_3D('',#250,#251,#252);
#250 = CARTESIAN_POINT('',(-12.5,-5.7,4.E-16));
#251 = DIRECTION('',(-0.,-1.,-2.2E-16));
#252 = DIRECTION('',(1.,2.288E-31,-1.04E-15));
#253 = ADVANCED_FACE('',(#254),#273,.F.);
#254 = FACE_BOUND('',#255,.F.);
#255 = EDGE_LOOP('',(#256,#264,#265,#266));
#256 = ORIENTED_EDGE('',*,*,#257,.F.);
#257 = EDGE_CURVE('',#84,#258,#260,.T.);
#258 = VERTEX_POINT('',#259);
#259 = CARTESIAN_POINT('',(14.1,6.5,-3.E-15));
#260 = LINE('',#261,#262);
#261 = CARTESIAN_POINT('',(14.1,-7.5,0.));
#262 = VECTOR('',#263,1.);
#263 = DIRECTION('',(0.,1.,-2.2E-16));
#264 = ORIENTED_EDGE('',*,*,#93,.F.);
#265 = ORIENTED_EDGE('',*,*,#257,.T.);
#266 = ORIENTED_EDGE('',*,*,#267,.T.);
#267 = EDGE_CURVE('',#258,#258,#268,.T.);
#268 = CIRCLE('',#269,1.6);
#269 = AXIS2_PLACEMENT_3D('',#270,#271,#272);
#270 = CARTESIAN_POINT('',(12.5,6.5,-4.49E-15));
#271 = DIRECTION('',(0.,-1.,4.4E-16));
#272 = DIRECTION('',(1.,0.,0.));
#273 = CYLINDRICAL_SURFACE('',#274,1.6);
#274 = AXIS2_PLACEMENT_3D('',#275,#276,#277);
#275 = CARTESIAN_POINT('',(12.5,-7.5,0.));
#276 = DIRECTION('',(0.,-1.,2.2E-16));
#277 = DIRECTION('',(1.,0.,0.));
#278 = ADVANCED_FACE('',(#279),#336,.F.);
#279 = FACE_BOUND('',#280,.F.);
#280 = EDGE_LOOP('',(#281,#291,#297,#298,#306,#314,#322,#330));
#281 = ORIENTED_EDGE('',*,*,#282,.T.);
#282 = EDGE_CURVE('',#283,#285,#287,.T.);
#283 = VERTEX_POINT('',#284);
#284 = CARTESIAN_POINT('',(7.1,5.5,12.2));
#285 = VERTEX_POINT('',#286);
#286 = CARTESIAN_POINT('',(18.,5.5,12.2));
#287 = LINE('',#288,#289);
#288 = CARTESIAN_POINT('',(6.1,5.5,12.2));
#289 = VECTOR('',#290,1.);
#290 = DIRECTION('',(1.,0.,0.));
#291 = ORIENTED_EDGE('',*,*,#292,.T.);
#292 = EDGE_CURVE('',#285,#109,#293,.T.);
#293 = LINE('',#294,#295);
#294 = CARTESIAN_POINT('',(18.,6.5,12.2));
#295 = VECTOR('',#296,1.);
#296 = DIRECTION('',(0.,-1.,2.2E-16));
#297 = ORIENTED_EDGE('',*,*,#108,.T.);
#298 = ORIENTED_EDGE('',*,*,#299,.F.);
#299 = EDGE_CURVE('',#300,#111,#302,.T.);
#300 = VERTEX_POINT('',#301);
#301 = CARTESIAN_POINT('',(-18.,5.5,12.2));
#302 = LINE('',#303,#304);
#303 = CARTESIAN_POINT('',(-18.,6.5,12.2));
#304 = VECTOR('',#305,1.);
#305 = DIRECTION('',(0.,-1.,2.2E-16));
#306 = ORIENTED_EDGE('',*,*,#307,.T.);
#307 = EDGE_CURVE('',#300,#308,#310,.T.);
#308 = VERTEX_POINT('',#309);
#309 = CARTESIAN_POINT('',(-7.1,5.5,12.2));
#310 = LINE('',#311,#312);
#311 = CARTESIAN_POINT('',(-19.,5.5,12.2));
#312 = VECTOR('',#313,1.);
#313 = DIRECTION('',(1.,0.,0.));
#314 = ORIENTED_EDGE('',*,*,#315,.T.);
#315 = EDGE_CURVE('',#308,#316,#318,.T.);
#316 = VERTEX_POINT('',#317);
#317 = CARTESIAN_POINT('',(-7.1,-3.5,12.2));
#318 = LINE('',#319,#320);
#319 = CARTESIAN_POINT('',(-7.1,6.5,12.2));
#320 = VECTOR('',#321,1.);
#321 = DIRECTION('',(0.,-1.,-2.2E-16));
#322 = ORIENTED_EDGE('',*,*,#323,.F.);
#323 = EDGE_CURVE('',#324,#316,#326,.T.);
#324 = VERTEX_POINT('',#325);
#325 = CARTESIAN_POINT('',(7.1,-3.5,12.2));
#326 = LINE('',#327,#328);
#327 = CARTESIAN_POINT('',(6.1,-3.5,12.2));
#328 = VECTOR('',#329,1.);
#329 = DIRECTION('',(-1.,0.,0.));
#330 = ORIENTED_EDGE('',*,*,#331,.F.);
#331 = EDGE_CURVE('',#283,#324,#332,.T.);
#332 = LINE('',#333,#334);
#333 = CARTESIAN_POINT('',(7.1,6.5,12.2));
#334 = VECTOR('',#335,1.);
#335 = DIRECTION('',(0.,-1.,-2.2E-16));
#336 = PLANE('',#337);
#337 = AXIS2_PLACEMENT_3D('',#338,#339,#340);
#338 = CARTESIAN_POINT('',(19.,7.5,12.2));
#339 = DIRECTION('',(0.,-2.2E-16,-1.));
#340 = DIRECTION('',(-1.,0.,0.));
#341 = ADVANCED_FACE('',(#342),#352,.F.);
#342 = FACE_BOUND('',#343,.F.);
#343 = EDGE_LOOP('',(#344,#350,#351));
#344 = ORIENTED_EDGE('',*,*,#345,.F.);
#345 = EDGE_CURVE('',#142,#109,#346,.T.);
#346 = LINE('',#347,#348);
#347 = CARTESIAN_POINT('',(18.75,-6.5,11.45));
#348 = VECTOR('',#349,1.);
#349 = DIRECTION('',(-0.707106781187,3.2E-16,0.707106781187));
#350 = ORIENTED_EDGE('',*,*,#149,.T.);
#351 = ORIENTED_EDGE('',*,*,#125,.F.);
#352 = PLANE('',#353);
#353 = AXIS2_PLACEMENT_3D('',#354,#355,#356);
#354 = CARTESIAN_POINT('',(19.,-6.5,11.2));
#355 = DIRECTION('',(-0.57735026919,0.57735026919,-0.57735026919));
#356 = DIRECTION('',(-5.551115123126E-17,-0.707106781187,-0.707106781187
    ));
#357 = ADVANCED_FACE('',(#358),#368,.F.);
#358 = FACE_BOUND('',#359,.F.);
#359 = EDGE_LOOP('',(#360,#361,#362));
#360 = ORIENTED_EDGE('',*,*,#118,.F.);
#361 = ORIENTED_EDGE('',*,*,#170,.T.);
#362 = ORIENTED_EDGE('',*,*,#363,.F.);
#363 = EDGE_CURVE('',#111,#171,#364,.T.);
#364 = LINE('',#365,#366);
#365 = CARTESIAN_POINT('',(-18.5,-6.5,11.7));
#366 = VECTOR('',#367,1.);
#367 = DIRECTION('',(-0.707106781187,-4.2E-16,-0.707106781187));
#368 = PLANE('',#369);
#369 = AXIS2_PLACEMENT_3D('',#370,#371,#372);
#370 = CARTESIAN_POINT('',(-18.,-7.5,11.2));
#371 = DIRECTION('',(0.57735026919,0.57735026919,-0.57735026919));
#372 = DIRECTION('',(-0.707106781187,8.604228440845E-16,-0.707106781187)
  );
#373 = ADVANCED_FACE('',(#374),#399,.F.);
#374 = FACE_BOUND('',#375,.F.);
#375 = EDGE_LOOP('',(#376,#384,#392,#398));
#376 = ORIENTED_EDGE('',*,*,#377,.F.);
#377 = EDGE_CURVE('',#378,#142,#380,.T.);
#378 = VERTEX_POINT('',#379);
#379 = CARTESIAN_POINT('',(19.,5.5,11.2));
#380 = LINE('',#381,#382);
#381 = CARTESIAN_POINT('',(19.,6.5,11.2));
#382 = VECTOR('',#383,1.);
#383 = DIRECTION('',(0.,-1.,2.2E-16));
#384 = ORIENTED_EDGE('',*,*,#385,.T.);
#385 = EDGE_CURVE('',#378,#386,#388,.T.);
#386 = VERTEX_POINT('',#387);
#387 = CARTESIAN_POINT('',(19.,5.5,-11.2));
#388 = LINE('',#389,#390);
#389 = CARTESIAN_POINT('',(19.,5.5,12.2));
#390 = VECTOR('',#391,1.);
#391 = DIRECTION('',(0.,0.,-1.));
#392 = ORIENTED_EDGE('',*,*,#393,.T.);
#393 = EDGE_CURVE('',#386,#140,#394,.T.);
#394 = LINE('',#395,#396);
#395 = CARTESIAN_POINT('',(19.,6.5,-11.2));
#396 = VECTOR('',#397,1.);
#397 = DIRECTION('',(0.,-1.,2.2E-16));
#398 = ORIENTED_EDGE('',*,*,#139,.T.);
#399 = PLANE('',#400);
#400 = AXIS2_PLACEMENT_3D('',#401,#402,#403);
#401 = CARTESIAN_POINT('',(19.,7.5,-12.2));
#402 = DIRECTION('',(-1.,0.,0.));
#403 = DIRECTION('',(0.,2.2E-16,1.));
#404 = ADVANCED_FACE('',(#405),#415,.T.);
#405 = FACE_BOUND('',#406,.T.);
#406 = EDGE_LOOP('',(#407,#408,#414));
#407 = ORIENTED_EDGE('',*,*,#210,.F.);
#408 = ORIENTED_EDGE('',*,*,#409,.T.);
#409 = EDGE_CURVE('',#211,#140,#410,.T.);
#410 = LINE('',#411,#412);
#411 = CARTESIAN_POINT('',(18.25,-6.5,-11.95));
#412 = VECTOR('',#413,1.);
#413 = DIRECTION('',(0.707106781187,-1.98E-15,0.707106781187));
#414 = ORIENTED_EDGE('',*,*,#156,.F.);
#415 = PLANE('',#416);
#416 = AXIS2_PLACEMENT_3D('',#417,#418,#419);
#417 = CARTESIAN_POINT('',(18.,-6.5,-12.2));
#418 = DIRECTION('',(0.57735026919,-0.57735026919,-0.57735026919));
#419 = DIRECTION('',(0.707106781187,0.707106781187,-1.137978600241E-15)
  );
#420 = ADVANCED_FACE('',(#421),#446,.F.);
#421 = FACE_BOUND('',#422,.F.);
#422 = EDGE_LOOP('',(#423,#431,#432,#440));
#423 = ORIENTED_EDGE('',*,*,#424,.T.);
#424 = EDGE_CURVE('',#425,#171,#427,.T.);
#425 = VERTEX_POINT('',#426);
#426 = CARTESIAN_POINT('',(-19.,5.5,11.2));
#427 = LINE('',#428,#429);
#428 = CARTESIAN_POINT('',(-19.,6.5,11.2));
#429 = VECTOR('',#430,1.);
#430 = DIRECTION('',(0.,-1.,2.2E-16));
#431 = ORIENTED_EDGE('',*,*,#187,.T.);
#432 = ORIENTED_EDGE('',*,*,#433,.F.);
#433 = EDGE_CURVE('',#434,#180,#436,.T.);
#434 = VERTEX_POINT('',#435);
#435 = CARTESIAN_POINT('',(-19.,5.5,-11.2));
#436 = LINE('',#437,#438);
#437 = CARTESIAN_POINT('',(-19.,6.5,-11.2));
#438 = VECTOR('',#439,1.);
#439 = DIRECTION('',(0.,-1.,2.2E-16));
#440 = ORIENTED_EDGE('',*,*,#441,.F.);
#441 = EDGE_CURVE('',#425,#434,#442,.T.);
#442 = LINE('',#443,#444);
#443 = CARTESIAN_POINT('',(-19.,5.5,12.2));
#444 = VECTOR('',#445,1.);
#445 = DIRECTION('',(0.,0.,-1.));
#446 = PLANE('',#447);
#447 = AXIS2_PLACEMENT_3D('',#448,#449,#450);
#448 = CARTESIAN_POINT('',(-19.,7.5,12.2));
#449 = DIRECTION('',(1.,0.,0.));
#450 = DIRECTION('',(0.,-2.2E-16,-1.));
#451 = ADVANCED_FACE('',(#452),#462,.F.);
#452 = FACE_BOUND('',#453,.F.);
#453 = EDGE_LOOP('',(#454,#455,#461));
#454 = ORIENTED_EDGE('',*,*,#201,.F.);
#455 = ORIENTED_EDGE('',*,*,#456,.T.);
#456 = EDGE_CURVE('',#202,#180,#457,.T.);
#457 = LINE('',#458,#459);
#458 = CARTESIAN_POINT('',(-18.25,-6.5,-11.95));
#459 = VECTOR('',#460,1.);
#460 = DIRECTION('',(-0.707106781187,5.2E-16,0.707106781187));
#461 = ORIENTED_EDGE('',*,*,#179,.F.);
#462 = PLANE('',#463);
#463 = AXIS2_PLACEMENT_3D('',#464,#465,#466);
#464 = CARTESIAN_POINT('',(-18.,-6.5,-12.2));
#465 = DIRECTION('',(0.57735026919,0.57735026919,0.57735026919));
#466 = DIRECTION('',(-0.707106781187,0.707106781187,1.942890293094E-16)
  );
#467 = ADVANCED_FACE('',(#468),#551,.F.);
#468 = FACE_BOUND('',#469,.F.);
#469 = EDGE_LOOP('',(#470,#480,#486,#487,#495,#503,#511,#519,#528,#536,
    #545));
#470 = ORIENTED_EDGE('',*,*,#471,.F.);
#471 = EDGE_CURVE('',#472,#474,#476,.T.);
#472 = VERTEX_POINT('',#473);
#473 = CARTESIAN_POINT('',(-18.,6.5,-12.2));
#474 = VERTEX_POINT('',#475);
#475 = CARTESIAN_POINT('',(-6.1,6.5,-12.2));
#476 = LINE('',#477,#478);
#477 = CARTESIAN_POINT('',(-19.,6.5,-12.2));
#478 = VECTOR('',#479,1.);
#479 = DIRECTION('',(1.,0.,0.));
#480 = ORIENTED_EDGE('',*,*,#481,.T.);
#481 = EDGE_CURVE('',#472,#202,#482,.T.);
#482 = LINE('',#483,#484);
#483 = CARTESIAN_POINT('',(-18.,6.5,-12.2));
#484 = VECTOR('',#485,1.);
#485 = DIRECTION('',(0.,-1.,2.2E-16));
#486 = ORIENTED_EDGE('',*,*,#218,.T.);
#487 = ORIENTED_EDGE('',*,*,#488,.F.);
#488 = EDGE_CURVE('',#489,#211,#491,.T.);
#489 = VERTEX_POINT('',#490);
#490 = CARTESIAN_POINT('',(18.,6.5,-12.2));
#491 = LINE('',#492,#493);
#492 = CARTESIAN_POINT('',(18.,6.5,-12.2));
#493 = VECTOR('',#494,1.);
#494 = DIRECTION('',(0.,-1.,2.2E-16));
#495 = ORIENTED_EDGE('',*,*,#496,.F.);
#496 = EDGE_CURVE('',#497,#489,#499,.T.);
#497 = VERTEX_POINT('',#498);
#498 = CARTESIAN_POINT('',(7.099999999999,6.5,-12.2));
#499 = LINE('',#500,#501);
#500 = CARTESIAN_POINT('',(-19.,6.5,-12.2));
#501 = VECTOR('',#502,1.);
#502 = DIRECTION('',(1.,0.,0.));
#503 = ORIENTED_EDGE('',*,*,#504,.T.);
#504 = EDGE_CURVE('',#497,#505,#507,.T.);
#505 = VERTEX_POINT('',#506);
#506 = CARTESIAN_POINT('',(6.099999999999,5.5,-12.2));
#507 = LINE('',#508,#509);
#508 = CARTESIAN_POINT('',(0.575,-2.499999999983E-02,-12.2));
#509 = VECTOR('',#510,1.);
#510 = DIRECTION('',(-0.707106781187,-0.707106781187,1.5E-16));
#511 = ORIENTED_EDGE('',*,*,#512,.F.);
#512 = EDGE_CURVE('',#513,#505,#515,.T.);
#513 = VERTEX_POINT('',#514);
#514 = CARTESIAN_POINT('',(6.099999999999,2.6,-12.2));
#515 = LINE('',#516,#517);
#516 = CARTESIAN_POINT('',(6.099999999999,5.05,-12.2));
#517 = VECTOR('',#518,1.);
#518 = DIRECTION('',(0.,1.,-2.2E-16));
#519 = ORIENTED_EDGE('',*,*,#520,.F.);
#520 = EDGE_CURVE('',#521,#513,#523,.T.);
#521 = VERTEX_POINT('',#522);
#522 = CARTESIAN_POINT('',(3.346640106136,-2.5,-12.2));
#523 = CIRCLE('',#524,6.1);
#524 = AXIS2_PLACEMENT_3D('',#525,#526,#527);
#525 = CARTESIAN_POINT('',(-5.875E-13,2.6,-12.2));
#526 = DIRECTION('',(0.,0.,1.));
#527 = DIRECTION('',(-1.,0.,0.));
#528 = ORIENTED_EDGE('',*,*,#529,.T.);
#529 = EDGE_CURVE('',#521,#530,#532,.T.);
#530 = VERTEX_POINT('',#531);
#531 = CARTESIAN_POINT('',(-3.346640106136,-2.5,-12.2));
#532 = LINE('',#533,#534);
#533 = CARTESIAN_POINT('',(-7.826679946932,-2.5,-12.2));
#534 = VECTOR('',#535,1.);
#535 = DIRECTION('',(-1.,0.,0.));
#536 = ORIENTED_EDGE('',*,*,#537,.F.);
#537 = EDGE_CURVE('',#538,#530,#540,.T.);
#538 = VERTEX_POINT('',#539);
#539 = CARTESIAN_POINT('',(-6.1,2.6,-12.2));
#540 = CIRCLE('',#541,6.1);
#541 = AXIS2_PLACEMENT_3D('',#542,#543,#544);
#542 = CARTESIAN_POINT('',(3.776E-13,2.6,-12.2));
#543 = DIRECTION('',(0.,0.,1.));
#544 = DIRECTION('',(-1.,0.,0.));
#545 = ORIENTED_EDGE('',*,*,#546,.F.);
#546 = EDGE_CURVE('',#474,#538,#547,.T.);
#547 = LINE('',#548,#549);
#548 = CARTESIAN_POINT('',(-6.1,7.5,-12.2));
#549 = VECTOR('',#550,1.);
#550 = DIRECTION('',(0.,-1.,2.2E-16));
#551 = PLANE('',#552);
#552 = AXIS2_PLACEMENT_3D('',#553,#554,#555);
#553 = CARTESIAN_POINT('',(-19.,7.5,-12.2));
#554 = DIRECTION('',(0.,2.2E-16,1.));
#555 = DIRECTION('',(1.,0.,0.));
#556 = ADVANCED_FACE('',(#557),#576,.F.);
#557 = FACE_BOUND('',#558,.F.);
#558 = EDGE_LOOP('',(#559,#567,#568,#569));
#559 = ORIENTED_EDGE('',*,*,#560,.F.);
#560 = EDGE_CURVE('',#233,#561,#563,.T.);
#561 = VERTEX_POINT('',#562);
#562 = CARTESIAN_POINT('',(-10.9,6.5,-3.E-15));
#563 = LINE('',#564,#565);
#564 = CARTESIAN_POINT('',(-10.9,-7.5,0.));
#565 = VECTOR('',#566,1.);
#566 = DIRECTION('',(0.,1.,-2.2E-16));
#567 = ORIENTED_EDGE('',*,*,#242,.F.);
#568 = ORIENTED_EDGE('',*,*,#560,.T.);
#569 = ORIENTED_EDGE('',*,*,#570,.T.);
#570 = EDGE_CURVE('',#561,#561,#571,.T.);
#571 = CIRCLE('',#572,1.6);
#572 = AXIS2_PLACEMENT_3D('',#573,#574,#575);
#573 = CARTESIAN_POINT('',(-12.5,6.5,-4.49E-15));
#574 = DIRECTION('',(0.,-1.,4.4E-16));
#575 = DIRECTION('',(1.,0.,0.));
#576 = CYLINDRICAL_SURFACE('',#577,1.6);
#577 = AXIS2_PLACEMENT_3D('',#578,#579,#580);
#578 = CARTESIAN_POINT('',(-12.5,-7.5,0.));
#579 = DIRECTION('',(0.,-1.,2.2E-16));
#580 = DIRECTION('',(1.,0.,0.));
#581 = ADVANCED_FACE('',(#582,#607),#610,.F.);
#582 = FACE_BOUND('',#583,.F.);
#583 = EDGE_LOOP('',(#584,#585,#593,#601));
#584 = ORIENTED_EDGE('',*,*,#496,.T.);
#585 = ORIENTED_EDGE('',*,*,#586,.F.);
#586 = EDGE_CURVE('',#587,#489,#589,.T.);
#587 = VERTEX_POINT('',#588);
#588 = CARTESIAN_POINT('',(18.,6.5,11.2));
#589 = LINE('',#590,#591);
#590 = CARTESIAN_POINT('',(18.,6.5,12.2));
#591 = VECTOR('',#592,1.);
#592 = DIRECTION('',(0.,0.,-1.));
#593 = ORIENTED_EDGE('',*,*,#594,.F.);
#594 = EDGE_CURVE('',#595,#587,#597,.T.);
#595 = VERTEX_POINT('',#596);
#596 = CARTESIAN_POINT('',(7.1,6.5,11.2));
#597 = LINE('',#598,#599);
#598 = CARTESIAN_POINT('',(6.1,6.5,11.2));
#599 = VECTOR('',#600,1.);
#600 = DIRECTION('',(1.,0.,0.));
#601 = ORIENTED_EDGE('',*,*,#602,.F.);
#602 = EDGE_CURVE('',#497,#595,#603,.T.);
#603 = LINE('',#604,#605);
#604 = CARTESIAN_POINT('',(7.099999999999,6.5,-12.2));
#605 = VECTOR('',#606,1.);
#606 = DIRECTION('',(2.187E-14,0.,1.));
#607 = FACE_BOUND('',#608,.F.);
#608 = EDGE_LOOP('',(#609));
#609 = ORIENTED_EDGE('',*,*,#267,.F.);
#610 = PLANE('',#611);
#611 = AXIS2_PLACEMENT_3D('',#612,#613,#614);
#612 = CARTESIAN_POINT('',(-19.,6.5,12.2));
#613 = DIRECTION('',(0.,-1.,0.));
#614 = DIRECTION('',(1.,0.,0.));
#615 = ADVANCED_FACE('',(#616),#632,.T.);
#616 = FACE_BOUND('',#617,.F.);
#617 = EDGE_LOOP('',(#618,#619,#625,#626));
#618 = ORIENTED_EDGE('',*,*,#594,.T.);
#619 = ORIENTED_EDGE('',*,*,#620,.F.);
#620 = EDGE_CURVE('',#285,#587,#621,.T.);
#621 = LINE('',#622,#623);
#622 = CARTESIAN_POINT('',(18.,6.,11.7));
#623 = VECTOR('',#624,1.);
#624 = DIRECTION('',(5.8E-16,0.707106781187,-0.707106781187));
#625 = ORIENTED_EDGE('',*,*,#282,.F.);
#626 = ORIENTED_EDGE('',*,*,#627,.T.);
#627 = EDGE_CURVE('',#283,#595,#628,.T.);
#628 = LINE('',#629,#630);
#629 = CARTESIAN_POINT('',(7.1,6.,11.7));
#630 = VECTOR('',#631,1.);
#631 = DIRECTION('',(-2.134E-14,0.707106781187,-0.707106781187));
#632 = PLANE('',#633);
#633 = AXIS2_PLACEMENT_3D('',#634,#635,#636);
#634 = CARTESIAN_POINT('',(6.1,6.,11.7));
#635 = DIRECTION('',(0.,0.707106781187,0.707106781187));
#636 = DIRECTION('',(-1.,0.,0.));
#637 = ADVANCED_FACE('',(#638),#663,.F.);
#638 = FACE_BOUND('',#639,.F.);
#639 = EDGE_LOOP('',(#640,#648,#649,#657));
#640 = ORIENTED_EDGE('',*,*,#641,.T.);
#641 = EDGE_CURVE('',#642,#283,#644,.T.);
#642 = VERTEX_POINT('',#643);
#643 = CARTESIAN_POINT('',(6.1,5.5,11.2));
#644 = LINE('',#645,#646);
#645 = CARTESIAN_POINT('',(6.35,5.5,11.45));
#646 = VECTOR('',#647,1.);
#647 = DIRECTION('',(0.707106781187,7.44E-15,0.707106781187));
#648 = ORIENTED_EDGE('',*,*,#331,.T.);
#649 = ORIENTED_EDGE('',*,*,#650,.T.);
#650 = EDGE_CURVE('',#324,#651,#653,.T.);
#651 = VERTEX_POINT('',#652);
#652 = CARTESIAN_POINT('',(6.1,-2.5,11.2));
#653 = LINE('',#654,#655);
#654 = CARTESIAN_POINT('',(4.933333333333,-1.333333333333,
    10.033333333333));
#655 = VECTOR('',#656,1.);
#656 = DIRECTION('',(-0.57735026919,0.57735026919,-0.57735026919));
#657 = ORIENTED_EDGE('',*,*,#658,.F.);
#658 = EDGE_CURVE('',#642,#651,#659,.T.);
#659 = LINE('',#660,#661);
#660 = CARTESIAN_POINT('',(6.1,6.5,11.2));
#661 = VECTOR('',#662,1.);
#662 = DIRECTION('',(0.,-1.,-2.2E-16));
#663 = PLANE('',#664);
#664 = AXIS2_PLACEMENT_3D('',#665,#666,#667);
#665 = CARTESIAN_POINT('',(6.6,6.5,11.7));
#666 = DIRECTION('',(0.707106781187,9.56E-15,-0.707106781187));
#667 = DIRECTION('',(6.649940828143E-15,-1.,-6.869940828143E-15));
#668 = ADVANCED_FACE('',(#669),#680,.T.);
#669 = FACE_BOUND('',#670,.F.);
#670 = EDGE_LOOP('',(#671,#677,#678,#679));
#671 = ORIENTED_EDGE('',*,*,#672,.F.);
#672 = EDGE_CURVE('',#378,#285,#673,.T.);
#673 = LINE('',#674,#675);
#674 = CARTESIAN_POINT('',(18.75,5.5,11.45));
#675 = VECTOR('',#676,1.);
#676 = DIRECTION('',(-0.707106781187,-6.4E-16,0.707106781187));
#677 = ORIENTED_EDGE('',*,*,#377,.T.);
#678 = ORIENTED_EDGE('',*,*,#345,.T.);
#679 = ORIENTED_EDGE('',*,*,#292,.F.);
#680 = PLANE('',#681);
#681 = AXIS2_PLACEMENT_3D('',#682,#683,#684);
#682 = CARTESIAN_POINT('',(18.5,6.5,11.7));
#683 = DIRECTION('',(0.707106781187,2.2E-16,0.707106781187));
#684 = DIRECTION('',(-4.556349186104E-17,1.,-2.65563491861E-16));
#685 = ADVANCED_FACE('',(#686),#704,.F.);
#686 = FACE_BOUND('',#687,.F.);
#687 = EDGE_LOOP('',(#688,#689,#690,#698));
#688 = ORIENTED_EDGE('',*,*,#650,.F.);
#689 = ORIENTED_EDGE('',*,*,#323,.T.);
#690 = ORIENTED_EDGE('',*,*,#691,.T.);
#691 = EDGE_CURVE('',#316,#692,#694,.T.);
#692 = VERTEX_POINT('',#693);
#693 = CARTESIAN_POINT('',(-6.1,-2.5,11.2));
#694 = LINE('',#695,#696);
#695 = CARTESIAN_POINT('',(-2.9,0.7,8.));
#696 = VECTOR('',#697,1.);
#697 = DIRECTION('',(0.57735026919,0.57735026919,-0.57735026919));
#698 = ORIENTED_EDGE('',*,*,#699,.F.);
#699 = EDGE_CURVE('',#651,#692,#700,.T.);
#700 = LINE('',#701,#702);
#701 = CARTESIAN_POINT('',(6.1,-2.5,11.2));
#702 = VECTOR('',#703,1.);
#703 = DIRECTION('',(-1.,0.,0.));
#704 = PLANE('',#705);
#705 = AXIS2_PLACEMENT_3D('',#706,#707,#708);
#706 = CARTESIAN_POINT('',(6.1,-3.,11.7));
#707 = DIRECTION('',(7.6E-16,-0.707106781187,-0.707106781187));
#708 = DIRECTION('',(-1.,-5.374011537018E-16,-5.374011537018E-16));
#709 = ADVANCED_FACE('',(#710),#728,.F.);
#710 = FACE_BOUND('',#711,.T.);
#711 = EDGE_LOOP('',(#712,#720,#721,#722));
#712 = ORIENTED_EDGE('',*,*,#713,.F.);
#713 = EDGE_CURVE('',#308,#714,#716,.T.);
#714 = VERTEX_POINT('',#715);
#715 = CARTESIAN_POINT('',(-6.1,6.5,11.2));
#716 = LINE('',#717,#718);
#717 = CARTESIAN_POINT('',(-8.583333333333,4.016666666667,
    13.683333333333));
#718 = VECTOR('',#719,1.);
#719 = DIRECTION('',(0.57735026919,0.57735026919,-0.57735026919));
#720 = ORIENTED_EDGE('',*,*,#315,.T.);
#721 = ORIENTED_EDGE('',*,*,#691,.T.);
#722 = ORIENTED_EDGE('',*,*,#723,.F.);
#723 = EDGE_CURVE('',#714,#692,#724,.T.);
#724 = LINE('',#725,#726);
#725 = CARTESIAN_POINT('',(-6.1,6.5,11.2));
#726 = VECTOR('',#727,1.);
#727 = DIRECTION('',(0.,-1.,-2.2E-16));
#728 = PLANE('',#729);
#729 = AXIS2_PLACEMENT_3D('',#730,#731,#732);
#730 = CARTESIAN_POINT('',(-6.6,6.5,11.7));
#731 = DIRECTION('',(-0.707106781187,-3.23E-15,-0.707106781187));
#732 = DIRECTION('',(-2.393954903233E-15,1.,-2.173954903233E-15));
#733 = ADVANCED_FACE('',(#734),#745,.T.);
#734 = FACE_BOUND('',#735,.F.);
#735 = EDGE_LOOP('',(#736,#742,#743,#744));
#736 = ORIENTED_EDGE('',*,*,#737,.T.);
#737 = EDGE_CURVE('',#425,#300,#738,.T.);
#738 = LINE('',#739,#740);
#739 = CARTESIAN_POINT('',(-18.75,5.5,11.45));
#740 = VECTOR('',#741,1.);
#741 = DIRECTION('',(0.707106781187,-7.3E-16,0.707106781187));
#742 = ORIENTED_EDGE('',*,*,#299,.T.);
#743 = ORIENTED_EDGE('',*,*,#363,.T.);
#744 = ORIENTED_EDGE('',*,*,#424,.F.);
#745 = PLANE('',#746);
#746 = AXIS2_PLACEMENT_3D('',#747,#748,#749);
#747 = CARTESIAN_POINT('',(-18.5,6.5,11.7));
#748 = DIRECTION('',(-0.707106781187,2.2E-16,0.707106781187));
#749 = DIRECTION('',(4.556349186104E-17,1.,-2.65563491861E-16));
#750 = ADVANCED_FACE('',(#751),#769,.T.);
#751 = FACE_BOUND('',#752,.T.);
#752 = EDGE_LOOP('',(#753,#754,#755,#763));
#753 = ORIENTED_EDGE('',*,*,#307,.T.);
#754 = ORIENTED_EDGE('',*,*,#713,.T.);
#755 = ORIENTED_EDGE('',*,*,#756,.F.);
#756 = EDGE_CURVE('',#757,#714,#759,.T.);
#757 = VERTEX_POINT('',#758);
#758 = CARTESIAN_POINT('',(-18.,6.5,11.2));
#759 = LINE('',#760,#761);
#760 = CARTESIAN_POINT('',(-19.,6.5,11.2));
#761 = VECTOR('',#762,1.);
#762 = DIRECTION('',(1.,0.,0.));
#763 = ORIENTED_EDGE('',*,*,#764,.F.);
#764 = EDGE_CURVE('',#300,#757,#765,.T.);
#765 = LINE('',#766,#767);
#766 = CARTESIAN_POINT('',(-18.,6.,11.7));
#767 = VECTOR('',#768,1.);
#768 = DIRECTION('',(-5.8E-16,0.707106781187,-0.707106781187));
#769 = PLANE('',#770);
#770 = AXIS2_PLACEMENT_3D('',#771,#772,#773);
#771 = CARTESIAN_POINT('',(-19.,6.,11.7));
#772 = DIRECTION('',(0.,0.707106781187,0.707106781187));
#773 = DIRECTION('',(1.,0.,0.));
#774 = ADVANCED_FACE('',(#775),#791,.T.);
#775 = FACE_BOUND('',#776,.T.);
#776 = EDGE_LOOP('',(#777,#783,#784,#790));
#777 = ORIENTED_EDGE('',*,*,#778,.F.);
#778 = EDGE_CURVE('',#378,#587,#779,.T.);
#779 = LINE('',#780,#781);
#780 = CARTESIAN_POINT('',(18.75,5.75,11.2));
#781 = VECTOR('',#782,1.);
#782 = DIRECTION('',(-0.707106781187,0.707106781187,1.6E-16));
#783 = ORIENTED_EDGE('',*,*,#385,.T.);
#784 = ORIENTED_EDGE('',*,*,#785,.T.);
#785 = EDGE_CURVE('',#386,#489,#786,.T.);
#786 = LINE('',#787,#788);
#787 = CARTESIAN_POINT('',(22.4,2.1,-7.8));
#788 = VECTOR('',#789,1.);
#789 = DIRECTION('',(-0.57735026919,0.57735026919,-0.57735026919));
#790 = ORIENTED_EDGE('',*,*,#586,.F.);
#791 = PLANE('',#792);
#792 = AXIS2_PLACEMENT_3D('',#793,#794,#795);
#793 = CARTESIAN_POINT('',(18.5,6.,12.2));
#794 = DIRECTION('',(0.707106781187,0.707106781187,4.E-17));
#795 = DIRECTION('',(2.828427124746E-17,2.828427124746E-17,-1.));
#796 = ADVANCED_FACE('',(#797),#803,.T.);
#797 = FACE_BOUND('',#798,.T.);
#798 = EDGE_LOOP('',(#799,#800,#801,#802));
#799 = ORIENTED_EDGE('',*,*,#785,.F.);
#800 = ORIENTED_EDGE('',*,*,#393,.T.);
#801 = ORIENTED_EDGE('',*,*,#409,.F.);
#802 = ORIENTED_EDGE('',*,*,#488,.F.);
#803 = PLANE('',#804);
#804 = AXIS2_PLACEMENT_3D('',#805,#806,#807);
#805 = CARTESIAN_POINT('',(18.5,6.5,-11.7));
#806 = DIRECTION('',(0.707106781187,-1.E-16,-0.707106781187));
#807 = DIRECTION('',(3.928932188135E-17,-1.,1.807106781187E-16));
#808 = ADVANCED_FACE('',(#809),#830,.T.);
#809 = FACE_BOUND('',#810,.T.);
#810 = EDGE_LOOP('',(#811,#817,#823,#829));
#811 = ORIENTED_EDGE('',*,*,#812,.T.);
#812 = EDGE_CURVE('',#425,#757,#813,.T.);
#813 = LINE('',#814,#815);
#814 = CARTESIAN_POINT('',(-18.75,5.75,11.2));
#815 = VECTOR('',#816,1.);
#816 = DIRECTION('',(0.707106781187,0.707106781187,1.6E-16));
#817 = ORIENTED_EDGE('',*,*,#818,.T.);
#818 = EDGE_CURVE('',#757,#472,#819,.T.);
#819 = LINE('',#820,#821);
#820 = CARTESIAN_POINT('',(-18.,6.5,12.2));
#821 = VECTOR('',#822,1.);
#822 = DIRECTION('',(0.,0.,-1.));
#823 = ORIENTED_EDGE('',*,*,#824,.T.);
#824 = EDGE_CURVE('',#472,#434,#825,.T.);
#825 = LINE('',#826,#827);
#826 = CARTESIAN_POINT('',(-22.4,2.1,-7.8));
#827 = VECTOR('',#828,1.);
#828 = DIRECTION('',(-0.57735026919,-0.57735026919,0.57735026919));
#829 = ORIENTED_EDGE('',*,*,#441,.F.);
#830 = PLANE('',#831);
#831 = AXIS2_PLACEMENT_3D('',#832,#833,#834);
#832 = CARTESIAN_POINT('',(-18.5,6.,12.2));
#833 = DIRECTION('',(-0.707106781187,0.707106781187,2.E-17));
#834 = DIRECTION('',(-1.414213562373E-17,1.414213562373E-17,-1.));
#835 = ADVANCED_FACE('',(#836),#842,.T.);
#836 = FACE_BOUND('',#837,.T.);
#837 = EDGE_LOOP('',(#838,#839,#840,#841));
#838 = ORIENTED_EDGE('',*,*,#824,.F.);
#839 = ORIENTED_EDGE('',*,*,#481,.T.);
#840 = ORIENTED_EDGE('',*,*,#456,.T.);
#841 = ORIENTED_EDGE('',*,*,#433,.F.);
#842 = PLANE('',#843);
#843 = AXIS2_PLACEMENT_3D('',#844,#845,#846);
#844 = CARTESIAN_POINT('',(-18.5,6.5,-11.7));
#845 = DIRECTION('',(-0.707106781187,-1.E-16,-0.707106781187));
#846 = DIRECTION('',(-3.928932188135E-17,-1.,1.807106781187E-16));
#847 = ADVANCED_FACE('',(#848,#859),#862,.F.);
#848 = FACE_BOUND('',#849,.F.);
#849 = EDGE_LOOP('',(#850,#856,#857,#858));
#850 = ORIENTED_EDGE('',*,*,#851,.F.);
#851 = EDGE_CURVE('',#714,#474,#852,.T.);
#852 = LINE('',#853,#854);
#853 = CARTESIAN_POINT('',(-6.1,6.5,6.663372093023));
#854 = VECTOR('',#855,1.);
#855 = DIRECTION('',(3.18E-15,0.,-1.));
#856 = ORIENTED_EDGE('',*,*,#756,.F.);
#857 = ORIENTED_EDGE('',*,*,#818,.T.);
#858 = ORIENTED_EDGE('',*,*,#471,.T.);
#859 = FACE_BOUND('',#860,.F.);
#860 = EDGE_LOOP('',(#861));
#861 = ORIENTED_EDGE('',*,*,#570,.F.);
#862 = PLANE('',#863);
#863 = AXIS2_PLACEMENT_3D('',#864,#865,#866);
#864 = CARTESIAN_POINT('',(-19.,6.5,12.2));
#865 = DIRECTION('',(0.,-1.,0.));
#866 = DIRECTION('',(1.,0.,0.));
#867 = ADVANCED_FACE('',(#868),#895,.T.);
#868 = FACE_BOUND('',#869,.T.);
#869 = EDGE_LOOP('',(#870,#878,#886,#892,#893,#894));
#870 = ORIENTED_EDGE('',*,*,#871,.T.);
#871 = EDGE_CURVE('',#692,#872,#874,.T.);
#872 = VERTEX_POINT('',#873);
#873 = CARTESIAN_POINT('',(-6.1,-2.5,3.));
#874 = LINE('',#875,#876);
#875 = CARTESIAN_POINT('',(-6.1,-2.5,12.2));
#876 = VECTOR('',#877,1.);
#877 = DIRECTION('',(0.,2.2E-16,-1.));
#878 = ORIENTED_EDGE('',*,*,#879,.F.);
#879 = EDGE_CURVE('',#880,#872,#882,.T.);
#880 = VERTEX_POINT('',#881);
#881 = CARTESIAN_POINT('',(-6.1,2.6,3.));
#882 = LINE('',#883,#884);
#883 = CARTESIAN_POINT('',(-6.1,7.5,3.));
#884 = VECTOR('',#885,1.);
#885 = DIRECTION('',(0.,-1.,-2.2E-16));
#886 = ORIENTED_EDGE('',*,*,#887,.T.);
#887 = EDGE_CURVE('',#880,#538,#888,.T.);
#888 = LINE('',#889,#890);
#889 = CARTESIAN_POINT('',(-6.1,2.6,3.));
#890 = VECTOR('',#891,1.);
#891 = DIRECTION('',(0.,0.,-1.));
#892 = ORIENTED_EDGE('',*,*,#546,.F.);
#893 = ORIENTED_EDGE('',*,*,#851,.F.);
#894 = ORIENTED_EDGE('',*,*,#723,.T.);
#895 = PLANE('',#896);
#896 = AXIS2_PLACEMENT_3D('',#897,#898,#899);
#897 = CARTESIAN_POINT('',(-6.1,3.626744186047,1.126744186047));
#898 = DIRECTION('',(1.,4.39E-15,3.18E-15));
#899 = DIRECTION('',(4.39E-15,-1.,-2.2E-16));
#900 = ADVANCED_FACE('',(#901),#920,.F.);
#901 = FACE_BOUND('',#902,.F.);
#902 = EDGE_LOOP('',(#903,#912,#913,#914));
#903 = ORIENTED_EDGE('',*,*,#904,.F.);
#904 = EDGE_CURVE('',#880,#905,#907,.T.);
#905 = VERTEX_POINT('',#906);
#906 = CARTESIAN_POINT('',(-3.346640106136,-2.5,3.));
#907 = CIRCLE('',#908,6.1);
#908 = AXIS2_PLACEMENT_3D('',#909,#910,#911);
#909 = CARTESIAN_POINT('',(3.776E-13,2.6,3.));
#910 = DIRECTION('',(0.,-2.2E-16,1.));
#911 = DIRECTION('',(-1.,0.,0.));
#912 = ORIENTED_EDGE('',*,*,#887,.T.);
#913 = ORIENTED_EDGE('',*,*,#537,.T.);
#914 = ORIENTED_EDGE('',*,*,#915,.F.);
#915 = EDGE_CURVE('',#905,#530,#916,.T.);
#916 = LINE('',#917,#918);
#917 = CARTESIAN_POINT('',(-3.346640106136,-2.5,3.));
#918 = VECTOR('',#919,1.);
#919 = DIRECTION('',(0.,0.,-1.));
#920 = CYLINDRICAL_SURFACE('',#921,6.1);
#921 = AXIS2_PLACEMENT_3D('',#922,#923,#924);
#922 = CARTESIAN_POINT('',(3.776E-13,2.6,3.));
#923 = DIRECTION('',(0.,0.,1.));
#924 = DIRECTION('',(-1.,0.,0.));
#925 = ADVANCED_FACE('',(#926),#960,.T.);
#926 = FACE_BOUND('',#927,.T.);
#927 = EDGE_LOOP('',(#928,#929,#930,#938,#946,#952,#953,#954));
#928 = ORIENTED_EDGE('',*,*,#871,.F.);
#929 = ORIENTED_EDGE('',*,*,#699,.F.);
#930 = ORIENTED_EDGE('',*,*,#931,.F.);
#931 = EDGE_CURVE('',#932,#651,#934,.T.);
#932 = VERTEX_POINT('',#933);
#933 = CARTESIAN_POINT('',(6.1,-2.5,3.));
#934 = LINE('',#935,#936);
#935 = CARTESIAN_POINT('',(6.1,-2.5,3.));
#936 = VECTOR('',#937,1.);
#937 = DIRECTION('',(0.,-2.2E-16,1.));
#938 = ORIENTED_EDGE('',*,*,#939,.F.);
#939 = EDGE_CURVE('',#940,#932,#942,.T.);
#940 = VERTEX_POINT('',#941);
#941 = CARTESIAN_POINT('',(3.346640106136,-2.5,3.));
#942 = LINE('',#943,#944);
#943 = CARTESIAN_POINT('',(-6.1,-2.5,3.));
#944 = VECTOR('',#945,1.);
#945 = DIRECTION('',(1.,0.,0.));
#946 = ORIENTED_EDGE('',*,*,#947,.T.);
#947 = EDGE_CURVE('',#940,#521,#948,.T.);
#948 = LINE('',#949,#950);
#949 = CARTESIAN_POINT('',(3.346640106136,-2.5,3.));
#950 = VECTOR('',#951,1.);
#951 = DIRECTION('',(0.,0.,-1.));
#952 = ORIENTED_EDGE('',*,*,#529,.T.);
#953 = ORIENTED_EDGE('',*,*,#915,.F.);
#954 = ORIENTED_EDGE('',*,*,#955,.F.);
#955 = EDGE_CURVE('',#872,#905,#956,.T.);
#956 = LINE('',#957,#958);
#957 = CARTESIAN_POINT('',(-6.1,-2.5,3.));
#958 = VECTOR('',#959,1.);
#959 = DIRECTION('',(1.,0.,0.));
#960 = PLANE('',#961);
#961 = AXIS2_PLACEMENT_3D('',#962,#963,#964);
#962 = CARTESIAN_POINT('',(-7.35E-15,-2.5,1.14347186849));
#963 = DIRECTION('',(-1.07E-15,1.,5.5E-16));
#964 = DIRECTION('',(-1.,-1.07E-15,0.));
#965 = ADVANCED_FACE('',(#966),#985,.F.);
#966 = FACE_BOUND('',#967,.F.);
#967 = EDGE_LOOP('',(#968,#977,#978,#979));
#968 = ORIENTED_EDGE('',*,*,#969,.F.);
#969 = EDGE_CURVE('',#940,#970,#972,.T.);
#970 = VERTEX_POINT('',#971);
#971 = CARTESIAN_POINT('',(6.099999999999,2.6,3.));
#972 = CIRCLE('',#973,6.1);
#973 = AXIS2_PLACEMENT_3D('',#974,#975,#976);
#974 = CARTESIAN_POINT('',(-5.875E-13,2.6,3.));
#975 = DIRECTION('',(0.,-2.2E-16,1.));
#976 = DIRECTION('',(-1.,0.,0.));
#977 = ORIENTED_EDGE('',*,*,#947,.T.);
#978 = ORIENTED_EDGE('',*,*,#520,.T.);
#979 = ORIENTED_EDGE('',*,*,#980,.F.);
#980 = EDGE_CURVE('',#970,#513,#981,.T.);
#981 = LINE('',#982,#983);
#982 = CARTESIAN_POINT('',(6.099999999999,2.6,3.));
#983 = VECTOR('',#984,1.);
#984 = DIRECTION('',(0.,0.,-1.));
#985 = CYLINDRICAL_SURFACE('',#986,6.1);
#986 = AXIS2_PLACEMENT_3D('',#987,#988,#989);
#987 = CARTESIAN_POINT('',(-5.875E-13,2.6,3.));
#988 = DIRECTION('',(0.,0.,1.));
#989 = DIRECTION('',(-1.,0.,0.));
#990 = ADVANCED_FACE('',(#991),#1007,.F.);
#991 = FACE_BOUND('',#992,.F.);
#992 = EDGE_LOOP('',(#993,#994,#995,#1001));
#993 = ORIENTED_EDGE('',*,*,#504,.F.);
#994 = ORIENTED_EDGE('',*,*,#602,.T.);
#995 = ORIENTED_EDGE('',*,*,#996,.F.);
#996 = EDGE_CURVE('',#642,#595,#997,.T.);
#997 = LINE('',#998,#999);
#998 = CARTESIAN_POINT('',(6.35,5.75,11.2));
#999 = VECTOR('',#1000,1.);
#1000 = DIRECTION('',(0.707106781187,0.707106781187,3.33E-15));
#1001 = ORIENTED_EDGE('',*,*,#1002,.F.);
#1002 = EDGE_CURVE('',#505,#642,#1003,.T.);
#1003 = LINE('',#1004,#1005);
#1004 = CARTESIAN_POINT('',(6.099999999999,5.5,-12.2));
#1005 = VECTOR('',#1006,1.);
#1006 = DIRECTION('',(2.187E-14,0.,1.));
#1007 = PLANE('',#1008);
#1008 = AXIS2_PLACEMENT_3D('',#1009,#1010,#1011);
#1009 = CARTESIAN_POINT('',(6.599999999999,6.,-12.2));
#1010 = DIRECTION('',(0.707106781187,-0.707106781187,-1.555E-14));
#1011 = DIRECTION('',(2.193051044745E-14,-6.051044745074E-17,1.));
#1012 = ADVANCED_FACE('',(#1013),#1026,.T.);
#1013 = FACE_BOUND('',#1014,.T.);
#1014 = EDGE_LOOP('',(#1015,#1016,#1017,#1018,#1019,#1020));
#1015 = ORIENTED_EDGE('',*,*,#931,.T.);
#1016 = ORIENTED_EDGE('',*,*,#658,.F.);
#1017 = ORIENTED_EDGE('',*,*,#1002,.F.);
#1018 = ORIENTED_EDGE('',*,*,#512,.F.);
#1019 = ORIENTED_EDGE('',*,*,#980,.F.);
#1020 = ORIENTED_EDGE('',*,*,#1021,.T.);
#1021 = EDGE_CURVE('',#970,#932,#1022,.T.);
#1022 = LINE('',#1023,#1024);
#1023 = CARTESIAN_POINT('',(6.1,7.5,3.));
#1024 = VECTOR('',#1025,1.);
#1025 = DIRECTION('',(0.,-1.,-2.2E-16));
#1026 = PLANE('',#1027);
#1027 = AXIS2_PLACEMENT_3D('',#1028,#1029,#1030);
#1028 = CARTESIAN_POINT('',(6.1,3.626744186047,1.126744186047));
#1029 = DIRECTION('',(-1.,-1.387E-14,2.187E-14));
#1030 = DIRECTION('',(-2.187E-14,2.2E-16,-1.));
#1031 = ADVANCED_FACE('',(#1032),#1037,.F.);
#1032 = FACE_BOUND('',#1033,.F.);
#1033 = EDGE_LOOP('',(#1034,#1035,#1036));
#1034 = ORIENTED_EDGE('',*,*,#641,.F.);
#1035 = ORIENTED_EDGE('',*,*,#996,.T.);
#1036 = ORIENTED_EDGE('',*,*,#627,.F.);
#1037 = PLANE('',#1038);
#1038 = AXIS2_PLACEMENT_3D('',#1039,#1040,#1041);
#1039 = CARTESIAN_POINT('',(6.1,5.5,11.2));
#1040 = DIRECTION('',(0.57735026919,-0.57735026919,-0.57735026919));
#1041 = DIRECTION('',(-1.884603584301E-14,0.707106781187,-0.707106781187
    ));
#1042 = ADVANCED_FACE('',(#1043),#1048,.T.);
#1043 = FACE_BOUND('',#1044,.T.);
#1044 = EDGE_LOOP('',(#1045,#1046,#1047));
#1045 = ORIENTED_EDGE('',*,*,#672,.F.);
#1046 = ORIENTED_EDGE('',*,*,#778,.T.);
#1047 = ORIENTED_EDGE('',*,*,#620,.F.);
#1048 = PLANE('',#1049);
#1049 = AXIS2_PLACEMENT_3D('',#1050,#1051,#1052);
#1050 = CARTESIAN_POINT('',(19.,5.5,11.2));
#1051 = DIRECTION('',(0.57735026919,0.57735026919,0.57735026919));
#1052 = DIRECTION('',(-2.775557561563E-17,0.707106781187,-0.707106781187
    ));
#1053 = ADVANCED_FACE('',(#1054),#1059,.F.);
#1054 = FACE_BOUND('',#1055,.F.);
#1055 = EDGE_LOOP('',(#1056,#1057,#1058));
#1056 = ORIENTED_EDGE('',*,*,#737,.F.);
#1057 = ORIENTED_EDGE('',*,*,#812,.T.);
#1058 = ORIENTED_EDGE('',*,*,#764,.F.);
#1059 = PLANE('',#1060);
#1060 = AXIS2_PLACEMENT_3D('',#1061,#1062,#1063);
#1061 = CARTESIAN_POINT('',(-19.,5.5,11.2));
#1062 = DIRECTION('',(0.57735026919,-0.57735026919,-0.57735026919));
#1063 = DIRECTION('',(2.775557561563E-17,0.707106781187,-0.707106781187)
  );
#1064 = ADVANCED_FACE('',(#1065),#1070,.T.);
#1065 = FACE_BOUND('',#1066,.T.);
#1066 = EDGE_LOOP('',(#1067,#1068,#1069));
#1067 = ORIENTED_EDGE('',*,*,#904,.F.);
#1068 = ORIENTED_EDGE('',*,*,#879,.T.);
#1069 = ORIENTED_EDGE('',*,*,#955,.T.);
#1070 = PLANE('',#1071);
#1071 = AXIS2_PLACEMENT_3D('',#1072,#1073,#1074);
#1072 = CARTESIAN_POINT('',(-6.1,7.5,3.));
#1073 = DIRECTION('',(0.,-2.2E-16,1.));
#1074 = DIRECTION('',(1.,0.,0.));
#1075 = ADVANCED_FACE('',(#1076),#1081,.T.);
#1076 = FACE_BOUND('',#1077,.T.);
#1077 = EDGE_LOOP('',(#1078,#1079,#1080));
#1078 = ORIENTED_EDGE('',*,*,#1021,.F.);
#1079 = ORIENTED_EDGE('',*,*,#969,.F.);
#1080 = ORIENTED_EDGE('',*,*,#939,.T.);
#1081 = PLANE('',#1082);
#1082 = AXIS2_PLACEMENT_3D('',#1083,#1084,#1085);
#1083 = CARTESIAN_POINT('',(-6.1,7.5,3.));
#1084 = DIRECTION('',(0.,-2.2E-16,1.));
#1085 = DIRECTION('',(1.,0.,0.));
#1086 = ( GEOMETRIC_REPRESENTATION_CONTEXT(3) 
GLOBAL_UNCERTAINTY_ASSIGNED_CONTEXT((#1090)) 
GLOBAL_UNIT_ASSIGNED_CONTEXT((#1087,#1088,#1089)) REPRESENTATION_CONTEXT
('Context #1','3D Context with UNIT and UNCERTAINTY') );
#1087 = ( LENGTH_UNIT() NAMED_UNIT(*) SI_UNIT(.MILLI.,.METRE.) );
#1088 = ( NAMED_UNIT(*) PLANE_ANGLE_UNIT() SI_UNIT($,.RADIAN.) );
#1089 = ( NAMED_UNIT(*) SI_UNIT($,.STERADIAN.) SOLID_ANGLE_UNIT() );
#1090 = UNCERTAINTY_MEASURE_WITH_UNIT(LENGTH_MEASURE(2.E-05),#1087,
  'distance_accuracy_value','confusion accuracy');
#1091 = PRODUCT_RELATED_PRODUCT_CATEGORY('part',$,(#7));
ENDSEC;
END-ISO-10303-21;
