ISO-10303-21;
HEADER;
FILE_DESCRIPTION(('FreeCAD Model'),'2;1');
FILE_NAME('Open CASCADE Shape Model','2026-07-24T10:13:07',(''),(''),
  'Open CASCADE STEP processor 7.8','FreeCAD','Unknown');
FILE_SCHEMA(('AUTOMOTIVE_DESIGN { 1 0 10303 214 1 1 1 1 }'));
ENDSEC;
DATA;
#1 = APPLICATION_PROTOCOL_DEFINITION('international standard',
  'automotive_design',2000,#2);
#2 = APPLICATION_CONTEXT(
  'core data for automotive mechanical design processes');
#3 = SHAPE_DEFINITION_REPRESENTATION(#4,#10);
#4 = PRODUCT_DEFINITION_SHAPE('','',#5);
#5 = PRODUCT_DEFINITION('design','',#6,#9);
#6 = PRODUCT_DEFINITION_FORMATION('','',#7);
#7 = PRODUCT('Body','Body','',(#8));
#8 = PRODUCT_CONTEXT('',#2,'mechanical');
#9 = PRODUCT_DEFINITION_CONTEXT('part definition',#2,'design');
#10 = ADVANCED_BREP_SHAPE_REPRESENTATION('',(#11,#15),#1894);
#11 = AXIS2_PLACEMENT_3D('',#12,#13,#14);
#12 = CARTESIAN_POINT('',(0.,0.,0.));
#13 = DIRECTION('',(0.,0.,1.));
#14 = DIRECTION('',(1.,0.,-0.));
#15 = MANIFOLD_SOLID_BREP('',#16);
#16 = CLOSED_SHELL('',(#17,#111,#177,#201,#233,#306,#395,#419,#451,#512,
    #537,#562,#593,#617,#649,#665,#678,#695,#721,#745,#769,#793,#817,
    #841,#859,#883,#899,#1020,#1058,#1110,#1127,#1138,#1155,#1179,#1204,
    #1230,#1244,#1268,#1421,#1451,#1475,#1499,#1517,#1549,#1574,#1597,
    #1614,#1640,#1665,#1689,#1735,#1747,#1759,#1776,#1788,#1824,#1841,
    #1853,#1870,#1882));
#17 = ADVANCED_FACE('',(#18,#84,#95),#106,.F.);
#18 = FACE_BOUND('',#19,.F.);
#19 = EDGE_LOOP('',(#20,#30,#38,#46,#54,#62,#70,#78));
#20 = ORIENTED_EDGE('',*,*,#21,.T.);
#21 = EDGE_CURVE('',#22,#24,#26,.T.);
#22 = VERTEX_POINT('',#23);
#23 = CARTESIAN_POINT('',(-19.,2.E-15,-4.7));
#24 = VERTEX_POINT('',#25);
#25 = CARTESIAN_POINT('',(-19.,-2.E-15,4.7));
#26 = LINE('',#27,#28);
#27 = CARTESIAN_POINT('',(-19.,-1.78E-15,-5.7));
#28 = VECTOR('',#29,1.);
#29 = DIRECTION('',(0.,0.,1.));
#30 = ORIENTED_EDGE('',*,*,#31,.T.);
#31 = EDGE_CURVE('',#24,#32,#34,.T.);
#32 = VERTEX_POINT('',#33);
#33 = CARTESIAN_POINT('',(-17.58578643762,-1.E-15,5.7));
#34 = LINE('',#35,#36);
#35 = CARTESIAN_POINT('',(-19.54893458105,-2.34E-15,4.311844635308));
#36 = VECTOR('',#37,1.);
#37 = DIRECTION('',(0.816496580928,4.E-17,0.57735026919));
#38 = ORIENTED_EDGE('',*,*,#39,.T.);
#39 = EDGE_CURVE('',#32,#40,#42,.T.);
#40 = VERTEX_POINT('',#41);
#41 = CARTESIAN_POINT('',(17.585786437628,-1.5E-14,5.7));
#42 = LINE('',#43,#44);
#43 = CARTESIAN_POINT('',(-19.,-1.78E-15,5.7));
#44 = VECTOR('',#45,1.);
#45 = DIRECTION('',(1.,5.E-17,0.));
#46 = ORIENTED_EDGE('',*,*,#47,.T.);
#47 = EDGE_CURVE('',#40,#48,#50,.T.);
#48 = VERTEX_POINT('',#49);
#49 = CARTESIAN_POINT('',(19.,3.7E-14,4.7));
#50 = LINE('',#51,#52);
#51 = CARTESIAN_POINT('',(8.548934581058,-4.E-16,12.090019228364));
#52 = VECTOR('',#53,1.);
#53 = DIRECTION('',(0.816496580928,4.E-17,-0.57735026919));
#54 = ORIENTED_EDGE('',*,*,#55,.F.);
#55 = EDGE_CURVE('',#56,#48,#58,.T.);
#56 = VERTEX_POINT('',#57);
#57 = CARTESIAN_POINT('',(19.,3.18E-13,-4.7));
#58 = LINE('',#59,#60);
#59 = CARTESIAN_POINT('',(19.,0.,-5.7));
#60 = VECTOR('',#61,1.);
#61 = DIRECTION('',(0.,0.,1.));
#62 = ORIENTED_EDGE('',*,*,#63,.F.);
#63 = EDGE_CURVE('',#64,#56,#66,.T.);
#64 = VERTEX_POINT('',#65);
#65 = CARTESIAN_POINT('',(17.585786437629,-1.5E-14,-5.7));
#66 = LINE('',#67,#68);
#67 = CARTESIAN_POINT('',(5.861928812549,-5.3E-16,-13.99001922836));
#68 = VECTOR('',#69,1.);
#69 = DIRECTION('',(0.816496580928,4.E-17,0.57735026919));
#70 = ORIENTED_EDGE('',*,*,#71,.F.);
#71 = EDGE_CURVE('',#72,#64,#74,.T.);
#72 = VERTEX_POINT('',#73);
#73 = CARTESIAN_POINT('',(-17.58578643762,2.E-15,-5.7));
#74 = LINE('',#75,#76);
#75 = CARTESIAN_POINT('',(-19.,-1.78E-15,-5.7));
#76 = VECTOR('',#77,1.);
#77 = DIRECTION('',(1.,5.E-17,0.));
#78 = ORIENTED_EDGE('',*,*,#79,.F.);
#79 = EDGE_CURVE('',#22,#72,#80,.T.);
#80 = LINE('',#81,#82);
#81 = CARTESIAN_POINT('',(-14.19526214588,-8.8E-16,-8.097462718471));
#82 = VECTOR('',#83,1.);
#83 = DIRECTION('',(0.816496580928,4.E-17,-0.57735026919));
#84 = FACE_BOUND('',#85,.F.);
#85 = EDGE_LOOP('',(#86));
#86 = ORIENTED_EDGE('',*,*,#87,.F.);
#87 = EDGE_CURVE('',#88,#88,#90,.T.);
#88 = VERTEX_POINT('',#89);
#89 = CARTESIAN_POINT('',(-13.50000000001,-2.E-15,3.E-15));
#90 = CIRCLE('',#91,1.);
#91 = AXIS2_PLACEMENT_3D('',#92,#93,#94);
#92 = CARTESIAN_POINT('',(-12.50000000001,0.,2.89E-15));
#93 = DIRECTION('',(0.,1.,-2.2E-16));
#94 = DIRECTION('',(-1.,0.,0.));
#95 = FACE_BOUND('',#96,.F.);
#96 = EDGE_LOOP('',(#97));
#97 = ORIENTED_EDGE('',*,*,#98,.F.);
#98 = EDGE_CURVE('',#99,#99,#101,.T.);
#99 = VERTEX_POINT('',#100);
#100 = CARTESIAN_POINT('',(11.50000000001,0.,3.E-15));
#101 = CIRCLE('',#102,1.);
#102 = AXIS2_PLACEMENT_3D('',#103,#104,#105);
#103 = CARTESIAN_POINT('',(12.50000000001,0.,2.89E-15));
#104 = DIRECTION('',(0.,1.,-2.2E-16));
#105 = DIRECTION('',(-1.,0.,0.));
#106 = PLANE('',#107);
#107 = AXIS2_PLACEMENT_3D('',#108,#109,#110);
#108 = CARTESIAN_POINT('',(-19.,-1.78E-15,-5.7));
#109 = DIRECTION('',(-5.E-17,1.,0.));
#110 = DIRECTION('',(1.,5.E-17,0.));
#111 = ADVANCED_FACE('',(#112,#153),#172,.T.);
#112 = FACE_BOUND('',#113,.T.);
#113 = EDGE_LOOP('',(#114,#115,#123,#131,#139,#147));
#114 = ORIENTED_EDGE('',*,*,#21,.T.);
#115 = ORIENTED_EDGE('',*,*,#116,.F.);
#116 = EDGE_CURVE('',#117,#24,#119,.T.);
#117 = VERTEX_POINT('',#118);
#118 = CARTESIAN_POINT('',(-13.61394354505,5.386056454951,4.7));
#119 = LINE('',#120,#121);
#120 = CARTESIAN_POINT('',(-14.,5.,4.7));
#121 = VECTOR('',#122,1.);
#122 = DIRECTION('',(-0.707106781186,-0.707106781187,0.));
#123 = ORIENTED_EDGE('',*,*,#124,.F.);
#124 = EDGE_CURVE('',#125,#117,#127,.T.);
#125 = VERTEX_POINT('',#126);
#126 = CARTESIAN_POINT('',(-8.613943545066,10.386056454951,15.7));
#127 = LINE('',#128,#129);
#128 = CARTESIAN_POINT('',(-8.405188122537,10.59481187748,
    16.159261929564));
#129 = VECTOR('',#130,1.);
#130 = DIRECTION('',(-0.38235955645,-0.382359556451,-0.841191024192));
#131 = ORIENTED_EDGE('',*,*,#132,.F.);
#132 = EDGE_CURVE('',#133,#125,#135,.T.);
#133 = VERTEX_POINT('',#134);
#134 = CARTESIAN_POINT('',(-6.707106781206,12.292893218813,15.7));
#135 = LINE('',#136,#137);
#136 = CARTESIAN_POINT('',(-6.000000000021,13.,15.7));
#137 = VECTOR('',#138,1.);
#138 = DIRECTION('',(-0.707106781186,-0.707106781187,0.));
#139 = ORIENTED_EDGE('',*,*,#140,.F.);
#140 = EDGE_CURVE('',#141,#133,#143,.T.);
#141 = VERTEX_POINT('',#142);
#142 = CARTESIAN_POINT('',(-6.707106781206,12.292893218813,-4.7));
#143 = LINE('',#144,#145);
#144 = CARTESIAN_POINT('',(-6.707106781206,12.292893218813,-5.7));
#145 = VECTOR('',#146,1.);
#146 = DIRECTION('',(0.,0.,1.));
#147 = ORIENTED_EDGE('',*,*,#148,.T.);
#148 = EDGE_CURVE('',#141,#22,#149,.T.);
#149 = LINE('',#150,#151);
#150 = CARTESIAN_POINT('',(-6.000000000021,13.,-4.7));
#151 = VECTOR('',#152,1.);
#152 = DIRECTION('',(-0.707106781186,-0.707106781187,0.));
#153 = FACE_BOUND('',#154,.T.);
#154 = EDGE_LOOP('',(#155,#166));
#155 = ORIENTED_EDGE('',*,*,#156,.F.);
#156 = EDGE_CURVE('',#157,#159,#161,.T.);
#157 = VERTEX_POINT('',#158);
#158 = CARTESIAN_POINT('',(-14.,5.,1.322875655523));
#159 = VERTEX_POINT('',#160);
#160 = CARTESIAN_POINT('',(-14.,5.,-1.322875655523));
#161 = ELLIPSE('',#162,2.828427124748,2.);
#162 = AXIS2_PLACEMENT_3D('',#163,#164,#165);
#163 = CARTESIAN_POINT('',(-12.5,6.50000000001,1.44E-15));
#164 = DIRECTION('',(-0.707106781187,0.707106781186,0.));
#165 = DIRECTION('',(0.707106781186,0.707106781187,-3.1E-16));
#166 = ORIENTED_EDGE('',*,*,#167,.T.);
#167 = EDGE_CURVE('',#157,#159,#168,.T.);
#168 = LINE('',#169,#170);
#169 = CARTESIAN_POINT('',(-14.,5.,2.273218263246));
#170 = VECTOR('',#171,1.);
#171 = DIRECTION('',(0.,0.,-1.));
#172 = PLANE('',#173);
#173 = AXIS2_PLACEMENT_3D('',#174,#175,#176);
#174 = CARTESIAN_POINT('',(-11.8257288016,7.17427119841,4.546436526491)
  );
#175 = DIRECTION('',(-0.707106781187,0.707106781186,0.));
#176 = DIRECTION('',(-0.707106781186,-0.707106781187,0.));
#177 = ADVANCED_FACE('',(#178),#196,.F.);
#178 = FACE_BOUND('',#179,.F.);
#179 = EDGE_LOOP('',(#180,#188,#189,#190));
#180 = ORIENTED_EDGE('',*,*,#181,.T.);
#181 = EDGE_CURVE('',#182,#141,#184,.T.);
#182 = VERTEX_POINT('',#183);
#183 = CARTESIAN_POINT('',(-6.000000000019,11.585786437627,-5.7));
#184 = LINE('',#185,#186);
#185 = CARTESIAN_POINT('',(-6.103553390613,11.68933982822,
    -5.553553390593));
#186 = VECTOR('',#187,1.);
#187 = DIRECTION('',(-0.5,0.5,0.707106781187));
#188 = ORIENTED_EDGE('',*,*,#148,.T.);
#189 = ORIENTED_EDGE('',*,*,#79,.T.);
#190 = ORIENTED_EDGE('',*,*,#191,.F.);
#191 = EDGE_CURVE('',#182,#72,#192,.T.);
#192 = LINE('',#193,#194);
#193 = CARTESIAN_POINT('',(-5.292893218833,12.292893218814,-5.7));
#194 = VECTOR('',#195,1.);
#195 = DIRECTION('',(-0.707106781186,-0.707106781187,0.));
#196 = PLANE('',#197);
#197 = AXIS2_PLACEMENT_3D('',#198,#199,#200);
#198 = CARTESIAN_POINT('',(-5.646446609427,12.646446609407,-5.2));
#199 = DIRECTION('',(0.5,-0.5,0.707106781187));
#200 = DIRECTION('',(-0.707106781186,-0.707106781187,-1.387778780781E-16
    ));
#201 = ADVANCED_FACE('',(#202),#228,.T.);
#202 = FACE_BOUND('',#203,.T.);
#203 = EDGE_LOOP('',(#204,#212,#213,#214,#222));
#204 = ORIENTED_EDGE('',*,*,#205,.F.);
#205 = EDGE_CURVE('',#117,#206,#208,.T.);
#206 = VERTEX_POINT('',#207);
#207 = CARTESIAN_POINT('',(-13.02446677937,4.893298090589,5.465255799296
    ));
#208 = LINE('',#209,#210);
#209 = CARTESIAN_POINT('',(-11.01793205828,3.215985557258,8.070129173749
    ));
#210 = VECTOR('',#211,1.);
#211 = DIRECTION('',(0.54360022956,-0.454409020976,0.705699108741));
#212 = ORIENTED_EDGE('',*,*,#116,.T.);
#213 = ORIENTED_EDGE('',*,*,#31,.T.);
#214 = ORIENTED_EDGE('',*,*,#215,.F.);
#215 = EDGE_CURVE('',#216,#32,#218,.T.);
#216 = VERTEX_POINT('',#217);
#217 = CARTESIAN_POINT('',(-12.58578643763,5.,5.7));
#218 = LINE('',#219,#220);
#219 = CARTESIAN_POINT('',(-13.29289321882,4.292893218814,5.7));
#220 = VECTOR('',#221,1.);
#221 = DIRECTION('',(-0.707106781186,-0.707106781187,0.));
#222 = ORIENTED_EDGE('',*,*,#223,.F.);
#223 = EDGE_CURVE('',#206,#216,#224,.T.);
#224 = LINE('',#225,#226);
#225 = CARTESIAN_POINT('',(-7.114706757536,6.330751786364,8.627653930001
    ));
#226 = VECTOR('',#227,1.);
#227 = DIRECTION('',(0.862097729898,0.209691351829,0.461320974023));
#228 = PLANE('',#229);
#229 = AXIS2_PLACEMENT_3D('',#230,#231,#232);
#230 = CARTESIAN_POINT('',(-13.64644660941,4.646446609407,5.2));
#231 = DIRECTION('',(-0.5,0.5,0.707106781187));
#232 = DIRECTION('',(-0.707106781186,-0.707106781187,0.));
#233 = ADVANCED_FACE('',(#234),#301,.F.);
#234 = FACE_BOUND('',#235,.F.);
#235 = EDGE_LOOP('',(#236,#237,#245,#253,#261,#269,#278,#286,#294,#300)
  );
#236 = ORIENTED_EDGE('',*,*,#71,.T.);
#237 = ORIENTED_EDGE('',*,*,#238,.T.);
#238 = EDGE_CURVE('',#64,#239,#241,.T.);
#239 = VERTEX_POINT('',#240);
#240 = CARTESIAN_POINT('',(6.00000000002,11.585786437627,-5.7));
#241 = LINE('',#242,#243);
#242 = CARTESIAN_POINT('',(18.292893218813,-0.707106781186,-5.7));
#243 = VECTOR('',#244,1.);
#244 = DIRECTION('',(-0.707106781186,0.707106781187,0.));
#245 = ORIENTED_EDGE('',*,*,#246,.F.);
#246 = EDGE_CURVE('',#247,#239,#249,.T.);
#247 = VERTEX_POINT('',#248);
#248 = CARTESIAN_POINT('',(5.00000000002,12.,-5.7));
#249 = LINE('',#250,#251);
#250 = CARTESIAN_POINT('',(4.182694162345,12.338539162572,-5.7));
#251 = VECTOR('',#252,1.);
#252 = DIRECTION('',(0.923879532511,-0.382683432366,0.));
#253 = ORIENTED_EDGE('',*,*,#254,.T.);
#254 = EDGE_CURVE('',#247,#255,#257,.T.);
#255 = VERTEX_POINT('',#256);
#256 = CARTESIAN_POINT('',(1.5,12.,-5.7));
#257 = LINE('',#258,#259);
#258 = CARTESIAN_POINT('',(6.000000000021,12.,-5.7));
#259 = VECTOR('',#260,1.);
#260 = DIRECTION('',(-1.,1.5E-16,0.));
#261 = ORIENTED_EDGE('',*,*,#262,.F.);
#262 = EDGE_CURVE('',#263,#255,#265,.T.);
#263 = VERTEX_POINT('',#264);
#264 = CARTESIAN_POINT('',(1.5,10.5,-5.7));
#265 = LINE('',#266,#267);
#266 = CARTESIAN_POINT('',(1.5,10.5,-5.7));
#267 = VECTOR('',#268,1.);
#268 = DIRECTION('',(0.,1.,0.));
#269 = ORIENTED_EDGE('',*,*,#270,.F.);
#270 = EDGE_CURVE('',#271,#263,#273,.T.);
#271 = VERTEX_POINT('',#272);
#272 = CARTESIAN_POINT('',(-1.5,10.5,-5.7));
#273 = CIRCLE('',#274,1.5);
#274 = AXIS2_PLACEMENT_3D('',#275,#276,#277);
#275 = CARTESIAN_POINT('',(0.,10.5,-5.7));
#276 = DIRECTION('',(0.,0.,1.));
#277 = DIRECTION('',(-1.,0.,0.));
#278 = ORIENTED_EDGE('',*,*,#279,.F.);
#279 = EDGE_CURVE('',#280,#271,#282,.T.);
#280 = VERTEX_POINT('',#281);
#281 = CARTESIAN_POINT('',(-1.5,12.,-5.7));
#282 = LINE('',#283,#284);
#283 = CARTESIAN_POINT('',(-1.5,13.,-5.7));
#284 = VECTOR('',#285,1.);
#285 = DIRECTION('',(-0.,-1.,-0.));
#286 = ORIENTED_EDGE('',*,*,#287,.T.);
#287 = EDGE_CURVE('',#280,#288,#290,.T.);
#288 = VERTEX_POINT('',#289);
#289 = CARTESIAN_POINT('',(-5.000000000021,12.,-5.7));
#290 = LINE('',#291,#292);
#291 = CARTESIAN_POINT('',(-0.5,12.,-5.7));
#292 = VECTOR('',#293,1.);
#293 = DIRECTION('',(-1.,1.5E-16,0.));
#294 = ORIENTED_EDGE('',*,*,#295,.T.);
#295 = EDGE_CURVE('',#288,#182,#296,.T.);
#296 = LINE('',#297,#298);
#297 = CARTESIAN_POINT('',(-4.182694162345,12.338539162572,-5.7));
#298 = VECTOR('',#299,1.);
#299 = DIRECTION('',(-0.923879532511,-0.382683432365,0.));
#300 = ORIENTED_EDGE('',*,*,#191,.T.);
#301 = PLANE('',#302);
#302 = AXIS2_PLACEMENT_3D('',#303,#304,#305);
#303 = CARTESIAN_POINT('',(1.802E-14,4.552312189086,-5.7));
#304 = DIRECTION('',(0.,0.,1.));
#305 = DIRECTION('',(1.,0.,0.));
#306 = ADVANCED_FACE('',(#307),#390,.T.);
#307 = FACE_BOUND('',#308,.T.);
#308 = EDGE_LOOP('',(#309,#317,#318,#319,#327,#335,#343,#351,#359,#368,
    #376,#384));
#309 = ORIENTED_EDGE('',*,*,#310,.F.);
#310 = EDGE_CURVE('',#216,#311,#313,.T.);
#311 = VERTEX_POINT('',#312);
#312 = CARTESIAN_POINT('',(-10.83959444294,5.,5.7));
#313 = LINE('',#314,#315);
#314 = CARTESIAN_POINT('',(-14.,5.,5.7));
#315 = VECTOR('',#316,1.);
#316 = DIRECTION('',(1.,0.,0.));
#317 = ORIENTED_EDGE('',*,*,#215,.T.);
#318 = ORIENTED_EDGE('',*,*,#39,.T.);
#319 = ORIENTED_EDGE('',*,*,#320,.T.);
#320 = EDGE_CURVE('',#40,#321,#323,.T.);
#321 = VERTEX_POINT('',#322);
#322 = CARTESIAN_POINT('',(12.585786437636,5.,5.7));
#323 = LINE('',#324,#325);
#324 = CARTESIAN_POINT('',(18.292893218813,-0.707106781186,5.7));
#325 = VECTOR('',#326,1.);
#326 = DIRECTION('',(-0.707106781186,0.707106781187,0.));
#327 = ORIENTED_EDGE('',*,*,#328,.F.);
#328 = EDGE_CURVE('',#329,#321,#331,.T.);
#329 = VERTEX_POINT('',#330);
#330 = CARTESIAN_POINT('',(10.839594442941,5.,5.7));
#331 = LINE('',#332,#333);
#332 = CARTESIAN_POINT('',(9.757359312892,5.,5.7));
#333 = VECTOR('',#334,1.);
#334 = DIRECTION('',(1.,0.,0.));
#335 = ORIENTED_EDGE('',*,*,#336,.F.);
#336 = EDGE_CURVE('',#337,#329,#339,.T.);
#337 = VERTEX_POINT('',#338);
#338 = CARTESIAN_POINT('',(8.916757403397,5.840601909496,5.7));
#339 = LINE('',#340,#341);
#340 = CARTESIAN_POINT('',(6.145217764701,7.052229033699,5.7));
#341 = VECTOR('',#342,1.);
#342 = DIRECTION('',(0.916269165782,-0.400563123411,0.));
#343 = ORIENTED_EDGE('',*,*,#344,.F.);
#344 = EDGE_CURVE('',#345,#337,#347,.T.);
#345 = VERTEX_POINT('',#346);
#346 = CARTESIAN_POINT('',(4.7573593129,10.,5.7));
#347 = LINE('',#348,#349);
#348 = CARTESIAN_POINT('',(4.7573593129,10.,5.7));
#349 = VECTOR('',#350,1.);
#350 = DIRECTION('',(0.707106781186,-0.707106781187,0.));
#351 = ORIENTED_EDGE('',*,*,#352,.T.);
#352 = EDGE_CURVE('',#345,#353,#355,.T.);
#353 = VERTEX_POINT('',#354);
#354 = CARTESIAN_POINT('',(1.414213562373,10.,5.7));
#355 = LINE('',#356,#357);
#356 = CARTESIAN_POINT('',(9.000000000016,10.,5.7));
#357 = VECTOR('',#358,1.);
#358 = DIRECTION('',(-1.,0.,0.));
#359 = ORIENTED_EDGE('',*,*,#360,.T.);
#360 = EDGE_CURVE('',#353,#361,#363,.T.);
#361 = VERTEX_POINT('',#362);
#362 = CARTESIAN_POINT('',(-1.414213562373,10.,5.7));
#363 = CIRCLE('',#364,1.5);
#364 = AXIS2_PLACEMENT_3D('',#365,#366,#367);
#365 = CARTESIAN_POINT('',(0.,10.5,5.7));
#366 = DIRECTION('',(0.,0.,-1.));
#367 = DIRECTION('',(1.,0.,0.));
#368 = ORIENTED_EDGE('',*,*,#369,.T.);
#369 = EDGE_CURVE('',#361,#370,#372,.T.);
#370 = VERTEX_POINT('',#371);
#371 = CARTESIAN_POINT('',(-4.7573593129,10.,5.7));
#372 = LINE('',#373,#374);
#373 = CARTESIAN_POINT('',(9.000000000016,10.,5.7));
#374 = VECTOR('',#375,1.);
#375 = DIRECTION('',(-1.,0.,0.));
#376 = ORIENTED_EDGE('',*,*,#377,.F.);
#377 = EDGE_CURVE('',#378,#370,#380,.T.);
#378 = VERTEX_POINT('',#379);
#379 = CARTESIAN_POINT('',(-8.916757403397,5.840601909496,5.7));
#380 = LINE('',#381,#382);
#381 = CARTESIAN_POINT('',(-9.757359312892,5.,5.7));
#382 = VECTOR('',#383,1.);
#383 = DIRECTION('',(0.707106781186,0.707106781187,0.));
#384 = ORIENTED_EDGE('',*,*,#385,.F.);
#385 = EDGE_CURVE('',#311,#378,#386,.T.);
#386 = LINE('',#387,#388);
#387 = CARTESIAN_POINT('',(-3.128785706969,8.370915170615,5.7));
#388 = VECTOR('',#389,1.);
#389 = DIRECTION('',(0.916269165782,0.400563123411,0.));
#390 = PLANE('',#391);
#391 = AXIS2_PLACEMENT_3D('',#392,#393,#394);
#392 = CARTESIAN_POINT('',(1.922E-14,3.310166241423,5.7));
#393 = DIRECTION('',(0.,0.,1.));
#394 = DIRECTION('',(1.,0.,0.));
#395 = ADVANCED_FACE('',(#396),#414,.F.);
#396 = FACE_BOUND('',#397,.T.);
#397 = EDGE_LOOP('',(#398,#399,#400,#408));
#398 = ORIENTED_EDGE('',*,*,#63,.F.);
#399 = ORIENTED_EDGE('',*,*,#238,.T.);
#400 = ORIENTED_EDGE('',*,*,#401,.T.);
#401 = EDGE_CURVE('',#239,#402,#404,.T.);
#402 = VERTEX_POINT('',#403);
#403 = CARTESIAN_POINT('',(6.707106781206,12.292893218813,-4.7));
#404 = LINE('',#405,#406);
#405 = CARTESIAN_POINT('',(6.103553390613,11.68933982822,-5.553553390593
    ));
#406 = VECTOR('',#407,1.);
#407 = DIRECTION('',(0.5,0.5,0.707106781187));
#408 = ORIENTED_EDGE('',*,*,#409,.F.);
#409 = EDGE_CURVE('',#56,#402,#410,.T.);
#410 = LINE('',#411,#412);
#411 = CARTESIAN_POINT('',(19.,3.1646E-13,-4.7));
#412 = VECTOR('',#413,1.);
#413 = DIRECTION('',(-0.707106781186,0.707106781187,0.));
#414 = PLANE('',#415);
#415 = AXIS2_PLACEMENT_3D('',#416,#417,#418);
#416 = CARTESIAN_POINT('',(18.646446609407,-0.353553390593,-5.2));
#417 = DIRECTION('',(-0.5,-0.5,0.707106781187));
#418 = DIRECTION('',(0.707106781186,-0.707106781187,-2.142730437527E-14)
  );
#419 = ADVANCED_FACE('',(#420),#446,.T.);
#420 = FACE_BOUND('',#421,.F.);
#421 = EDGE_LOOP('',(#422,#432,#438,#439,#440));
#422 = ORIENTED_EDGE('',*,*,#423,.F.);
#423 = EDGE_CURVE('',#424,#426,#428,.T.);
#424 = VERTEX_POINT('',#425);
#425 = CARTESIAN_POINT('',(13.613943545057,5.386056454951,4.7));
#426 = VERTEX_POINT('',#427);
#427 = CARTESIAN_POINT('',(13.024466779369,4.893298090589,5.465255799296
    ));
#428 = LINE('',#429,#430);
#429 = CARTESIAN_POINT('',(13.370253951903,5.182350232205,5.016356615298
    ));
#430 = VECTOR('',#431,1.);
#431 = DIRECTION('',(-0.54360022956,-0.454409020976,0.705699108741));
#432 = ORIENTED_EDGE('',*,*,#433,.F.);
#433 = EDGE_CURVE('',#48,#424,#434,.T.);
#434 = LINE('',#435,#436);
#435 = CARTESIAN_POINT('',(19.,3.525E-14,4.7));
#436 = VECTOR('',#437,1.);
#437 = DIRECTION('',(-0.707106781186,0.707106781187,0.));
#438 = ORIENTED_EDGE('',*,*,#47,.F.);
#439 = ORIENTED_EDGE('',*,*,#320,.T.);
#440 = ORIENTED_EDGE('',*,*,#441,.F.);
#441 = EDGE_CURVE('',#426,#321,#442,.T.);
#442 = LINE('',#443,#444);
#443 = CARTESIAN_POINT('',(9.424674093247,5.768889532809,7.391556972179)
  );
#444 = VECTOR('',#445,1.);
#445 = DIRECTION('',(-0.862097729898,0.209691351829,0.461320974023));
#446 = PLANE('',#447);
#447 = AXIS2_PLACEMENT_3D('',#448,#449,#450);
#448 = CARTESIAN_POINT('',(18.646446609406,-0.353553390593,5.2));
#449 = DIRECTION('',(0.5,0.5,0.707106781187));
#450 = DIRECTION('',(0.707106781186,-0.707106781187,2.13162820728E-14));
#451 = ADVANCED_FACE('',(#452,#479),#507,.T.);
#452 = FACE_BOUND('',#453,.T.);
#453 = EDGE_LOOP('',(#454,#455,#456,#464,#472,#478));
#454 = ORIENTED_EDGE('',*,*,#55,.F.);
#455 = ORIENTED_EDGE('',*,*,#409,.T.);
#456 = ORIENTED_EDGE('',*,*,#457,.T.);
#457 = EDGE_CURVE('',#402,#458,#460,.T.);
#458 = VERTEX_POINT('',#459);
#459 = CARTESIAN_POINT('',(6.707106781206,12.292893218813,
    15.699999999998));
#460 = LINE('',#461,#462);
#461 = CARTESIAN_POINT('',(6.707106781206,12.292893218813,-5.7));
#462 = VECTOR('',#463,1.);
#463 = DIRECTION('',(0.,0.,1.));
#464 = ORIENTED_EDGE('',*,*,#465,.T.);
#465 = EDGE_CURVE('',#458,#466,#468,.T.);
#466 = VERTEX_POINT('',#467);
#467 = CARTESIAN_POINT('',(8.613943545067,10.386056454948,
    15.699999999994));
#468 = LINE('',#469,#470);
#469 = CARTESIAN_POINT('',(6.000000000009,13.000000000009,15.7));
#470 = VECTOR('',#471,1.);
#471 = DIRECTION('',(0.707106781188,-0.707106781185,0.));
#472 = ORIENTED_EDGE('',*,*,#473,.F.);
#473 = EDGE_CURVE('',#424,#466,#474,.T.);
#474 = LINE('',#475,#476);
#475 = CARTESIAN_POINT('',(13.405188122528,5.59481187748,5.159261929564)
  );
#476 = VECTOR('',#477,1.);
#477 = DIRECTION('',(-0.38235955645,0.382359556451,0.841191024192));
#478 = ORIENTED_EDGE('',*,*,#433,.F.);
#479 = FACE_BOUND('',#480,.T.);
#480 = EDGE_LOOP('',(#481,#492,#501));
#481 = ORIENTED_EDGE('',*,*,#482,.F.);
#482 = EDGE_CURVE('',#483,#485,#487,.T.);
#483 = VERTEX_POINT('',#484);
#484 = CARTESIAN_POINT('',(10.5,8.500000000013,1.E-15));
#485 = VERTEX_POINT('',#486);
#486 = CARTESIAN_POINT('',(14.000000000008,5.,1.322875655524));
#487 = ELLIPSE('',#488,2.828427124748,2.);
#488 = AXIS2_PLACEMENT_3D('',#489,#490,#491);
#489 = CARTESIAN_POINT('',(12.5,6.50000000001,1.44E-15));
#490 = DIRECTION('',(0.707106781187,0.707106781186,4.232E-14));
#491 = DIRECTION('',(-0.707106781186,0.707106781187,-4.263E-14));
#492 = ORIENTED_EDGE('',*,*,#493,.F.);
#493 = EDGE_CURVE('',#494,#483,#496,.T.);
#494 = VERTEX_POINT('',#495);
#495 = CARTESIAN_POINT('',(14.000000000008,5.,-1.322875655523));
#496 = ELLIPSE('',#497,2.828427124748,2.);
#497 = AXIS2_PLACEMENT_3D('',#498,#499,#500);
#498 = CARTESIAN_POINT('',(12.5,6.50000000001,1.44E-15));
#499 = DIRECTION('',(0.707106781187,0.707106781186,4.232E-14));
#500 = DIRECTION('',(-0.707106781186,0.707106781187,-4.263E-14));
#501 = ORIENTED_EDGE('',*,*,#502,.T.);
#502 = EDGE_CURVE('',#494,#485,#503,.T.);
#503 = LINE('',#504,#505);
#504 = CARTESIAN_POINT('',(14.000000000008,5.,2.273218263247));
#505 = VECTOR('',#506,1.);
#506 = DIRECTION('',(-5.985E-14,0.,1.));
#507 = PLANE('',#508);
#508 = AXIS2_PLACEMENT_3D('',#509,#510,#511);
#509 = CARTESIAN_POINT('',(11.8257288016,7.174271198411,4.546436526494)
  );
#510 = DIRECTION('',(0.707106781187,0.707106781186,4.232E-14));
#511 = DIRECTION('',(-0.707106781186,0.707106781187,0.));
#512 = ADVANCED_FACE('',(#513),#532,.F.);
#513 = FACE_BOUND('',#514,.F.);
#514 = EDGE_LOOP('',(#515,#524,#530,#531));
#515 = ORIENTED_EDGE('',*,*,#516,.F.);
#516 = EDGE_CURVE('',#517,#517,#519,.T.);
#517 = VERTEX_POINT('',#518);
#518 = CARTESIAN_POINT('',(-13.50000000001,5.,2.E-15));
#519 = CIRCLE('',#520,1.);
#520 = AXIS2_PLACEMENT_3D('',#521,#522,#523);
#521 = CARTESIAN_POINT('',(-12.50000000001,5.,1.78E-15));
#522 = DIRECTION('',(0.,1.,-2.2E-16));
#523 = DIRECTION('',(-1.,0.,0.));
#524 = ORIENTED_EDGE('',*,*,#525,.T.);
#525 = EDGE_CURVE('',#517,#88,#526,.T.);
#526 = LINE('',#527,#528);
#527 = CARTESIAN_POINT('',(-13.50000000001,13.,0.));
#528 = VECTOR('',#529,1.);
#529 = DIRECTION('',(0.,-1.,2.2E-16));
#530 = ORIENTED_EDGE('',*,*,#87,.T.);
#531 = ORIENTED_EDGE('',*,*,#525,.F.);
#532 = CYLINDRICAL_SURFACE('',#533,1.);
#533 = AXIS2_PLACEMENT_3D('',#534,#535,#536);
#534 = CARTESIAN_POINT('',(-12.50000000001,13.,0.));
#535 = DIRECTION('',(0.,1.,-2.2E-16));
#536 = DIRECTION('',(-1.,0.,0.));
#537 = ADVANCED_FACE('',(#538),#557,.F.);
#538 = FACE_BOUND('',#539,.F.);
#539 = EDGE_LOOP('',(#540,#549,#555,#556));
#540 = ORIENTED_EDGE('',*,*,#541,.F.);
#541 = EDGE_CURVE('',#542,#542,#544,.T.);
#542 = VERTEX_POINT('',#543);
#543 = CARTESIAN_POINT('',(11.50000000001,5.,2.E-15));
#544 = CIRCLE('',#545,1.);
#545 = AXIS2_PLACEMENT_3D('',#546,#547,#548);
#546 = CARTESIAN_POINT('',(12.50000000001,5.,1.78E-15));
#547 = DIRECTION('',(0.,1.,-2.2E-16));
#548 = DIRECTION('',(-1.,0.,0.));
#549 = ORIENTED_EDGE('',*,*,#550,.T.);
#550 = EDGE_CURVE('',#542,#99,#551,.T.);
#551 = LINE('',#552,#553);
#552 = CARTESIAN_POINT('',(11.50000000001,13.,0.));
#553 = VECTOR('',#554,1.);
#554 = DIRECTION('',(0.,-1.,2.2E-16));
#555 = ORIENTED_EDGE('',*,*,#98,.T.);
#556 = ORIENTED_EDGE('',*,*,#550,.F.);
#557 = CYLINDRICAL_SURFACE('',#558,1.);
#558 = AXIS2_PLACEMENT_3D('',#559,#560,#561);
#559 = CARTESIAN_POINT('',(12.50000000001,13.,0.));
#560 = DIRECTION('',(0.,1.,-2.2E-16));
#561 = DIRECTION('',(-1.,0.,0.));
#562 = ADVANCED_FACE('',(#563),#588,.T.);
#563 = FACE_BOUND('',#564,.T.);
#564 = EDGE_LOOP('',(#565,#566,#574,#582));
#565 = ORIENTED_EDGE('',*,*,#140,.T.);
#566 = ORIENTED_EDGE('',*,*,#567,.T.);
#567 = EDGE_CURVE('',#133,#568,#570,.T.);
#568 = VERTEX_POINT('',#569);
#569 = CARTESIAN_POINT('',(-5.000000000021,13.,15.7));
#570 = LINE('',#571,#572);
#571 = CARTESIAN_POINT('',(-6.103553390613,12.542893218813,15.7));
#572 = VECTOR('',#573,1.);
#573 = DIRECTION('',(0.923879532511,0.382683432365,2.5E-16));
#574 = ORIENTED_EDGE('',*,*,#575,.F.);
#575 = EDGE_CURVE('',#576,#568,#578,.T.);
#576 = VERTEX_POINT('',#577);
#577 = CARTESIAN_POINT('',(-5.000000000021,13.,-4.7));
#578 = LINE('',#579,#580);
#579 = CARTESIAN_POINT('',(-5.000000000021,13.,-5.7));
#580 = VECTOR('',#581,1.);
#581 = DIRECTION('',(0.,0.,1.));
#582 = ORIENTED_EDGE('',*,*,#583,.T.);
#583 = EDGE_CURVE('',#576,#141,#584,.T.);
#584 = LINE('',#585,#586);
#585 = CARTESIAN_POINT('',(-5.603553390614,12.75,-4.7));
#586 = VECTOR('',#587,1.);
#587 = DIRECTION('',(-0.923879532511,-0.382683432365,1.06E-15));
#588 = PLANE('',#589);
#589 = AXIS2_PLACEMENT_3D('',#590,#591,#592);
#590 = CARTESIAN_POINT('',(-5.853553390613,12.646446609406,-5.7));
#591 = DIRECTION('',(-0.382683432365,0.923879532511,1.E-17));
#592 = DIRECTION('',(8.826834323649E-18,-7.167727513246E-18,1.));
#593 = ADVANCED_FACE('',(#594),#612,.F.);
#594 = FACE_BOUND('',#595,.T.);
#595 = EDGE_LOOP('',(#596,#604,#605,#606));
#596 = ORIENTED_EDGE('',*,*,#597,.F.);
#597 = EDGE_CURVE('',#125,#598,#600,.T.);
#598 = VERTEX_POINT('',#599);
#599 = CARTESIAN_POINT('',(-8.024466779377,9.893298090589,
    16.465255799296));
#600 = LINE('',#601,#602);
#601 = CARTESIAN_POINT('',(-8.176316506069,10.020233073117,
    16.268125240916));
#602 = VECTOR('',#603,1.);
#603 = DIRECTION('',(0.54360022956,-0.454409020976,0.705699108741));
#604 = ORIENTED_EDGE('',*,*,#124,.T.);
#605 = ORIENTED_EDGE('',*,*,#205,.T.);
#606 = ORIENTED_EDGE('',*,*,#607,.F.);
#607 = EDGE_CURVE('',#598,#206,#608,.T.);
#608 = LINE('',#609,#610);
#609 = CARTESIAN_POINT('',(-8.075986380208,9.841778489759,16.35191267747
    ));
#610 = VECTOR('',#611,1.);
#611 = DIRECTION('',(-0.38235955645,-0.382359556451,-0.841191024192));
#612 = PLANE('',#613);
#613 = AXIS2_PLACEMENT_3D('',#614,#615,#616);
#614 = CARTESIAN_POINT('',(-8.240587251372,10.21829518362,
    16.255587303517));
#615 = DIRECTION('',(0.837679964427,0.240793299791,-0.490215120098));
#616 = DIRECTION('',(0.38235955645,0.382359556451,0.841191024192));
#617 = ADVANCED_FACE('',(#618),#644,.T.);
#618 = FACE_BOUND('',#619,.T.);
#619 = EDGE_LOOP('',(#620,#621,#629,#637,#643));
#620 = ORIENTED_EDGE('',*,*,#597,.T.);
#621 = ORIENTED_EDGE('',*,*,#622,.T.);
#622 = EDGE_CURVE('',#598,#623,#625,.T.);
#623 = VERTEX_POINT('',#624);
#624 = CARTESIAN_POINT('',(-7.585786437644,10.,16.7));
#625 = LINE('',#626,#627);
#626 = CARTESIAN_POINT('',(-5.226064396354,10.573964282259,
    17.962721420969));
#627 = VECTOR('',#628,1.);
#628 = DIRECTION('',(0.862097729898,0.209691351829,0.461320974023));
#629 = ORIENTED_EDGE('',*,*,#630,.F.);
#630 = EDGE_CURVE('',#631,#623,#633,.T.);
#631 = VERTEX_POINT('',#632);
#632 = CARTESIAN_POINT('',(-6.000000000019,11.585786437627,16.7));
#633 = LINE('',#634,#635);
#634 = CARTESIAN_POINT('',(-5.292893218833,12.292893218814,16.7));
#635 = VECTOR('',#636,1.);
#636 = DIRECTION('',(-0.707106781186,-0.707106781187,0.));
#637 = ORIENTED_EDGE('',*,*,#638,.T.);
#638 = EDGE_CURVE('',#631,#133,#639,.T.);
#639 = LINE('',#640,#641);
#640 = CARTESIAN_POINT('',(-6.176776695316,11.762563132923,16.45));
#641 = VECTOR('',#642,1.);
#642 = DIRECTION('',(-0.5,0.5,-0.707106781187));
#643 = ORIENTED_EDGE('',*,*,#132,.T.);
#644 = PLANE('',#645);
#645 = AXIS2_PLACEMENT_3D('',#646,#647,#648);
#646 = CARTESIAN_POINT('',(-5.646446609427,12.646446609407,16.2));
#647 = DIRECTION('',(-0.5,0.5,0.707106781187));
#648 = DIRECTION('',(-0.707106781186,-0.707106781187,5.551115123126E-17)
  );
#649 = ADVANCED_FACE('',(#650),#660,.F.);
#650 = FACE_BOUND('',#651,.F.);
#651 = EDGE_LOOP('',(#652,#653));
#652 = ORIENTED_EDGE('',*,*,#156,.F.);
#653 = ORIENTED_EDGE('',*,*,#654,.T.);
#654 = EDGE_CURVE('',#157,#159,#655,.T.);
#655 = CIRCLE('',#656,2.);
#656 = AXIS2_PLACEMENT_3D('',#657,#658,#659);
#657 = CARTESIAN_POINT('',(-12.5,5.,2.E-15));
#658 = DIRECTION('',(0.,1.,-0.));
#659 = DIRECTION('',(-1.,0.,0.));
#660 = CYLINDRICAL_SURFACE('',#661,2.);
#661 = AXIS2_PLACEMENT_3D('',#662,#663,#664);
#662 = CARTESIAN_POINT('',(-12.5,13.,0.));
#663 = DIRECTION('',(0.,1.,-2.2E-16));
#664 = DIRECTION('',(-1.,0.,0.));
#665 = ADVANCED_FACE('',(#666,#670),#673,.T.);
#666 = FACE_BOUND('',#667,.T.);
#667 = EDGE_LOOP('',(#668,#669));
#668 = ORIENTED_EDGE('',*,*,#167,.F.);
#669 = ORIENTED_EDGE('',*,*,#654,.T.);
#670 = FACE_BOUND('',#671,.T.);
#671 = EDGE_LOOP('',(#672));
#672 = ORIENTED_EDGE('',*,*,#516,.F.);
#673 = PLANE('',#674);
#674 = AXIS2_PLACEMENT_3D('',#675,#676,#677);
#675 = CARTESIAN_POINT('',(1.2E-15,5.,2.17E-15));
#676 = DIRECTION('',(0.,1.,0.));
#677 = DIRECTION('',(0.,0.,1.));
#678 = ADVANCED_FACE('',(#679),#690,.T.);
#679 = FACE_BOUND('',#680,.T.);
#680 = EDGE_LOOP('',(#681,#687,#688,#689));
#681 = ORIENTED_EDGE('',*,*,#682,.F.);
#682 = EDGE_CURVE('',#288,#576,#683,.T.);
#683 = LINE('',#684,#685);
#684 = CARTESIAN_POINT('',(-5.000000000021,12.25,-5.45));
#685 = VECTOR('',#686,1.);
#686 = DIRECTION('',(0.,0.707106781187,0.707106781187));
#687 = ORIENTED_EDGE('',*,*,#295,.T.);
#688 = ORIENTED_EDGE('',*,*,#181,.T.);
#689 = ORIENTED_EDGE('',*,*,#583,.F.);
#690 = PLANE('',#691);
#691 = AXIS2_PLACEMENT_3D('',#692,#693,#694);
#692 = CARTESIAN_POINT('',(-5.000000000021,12.,-5.7));
#693 = DIRECTION('',(-0.281084637715,0.678598344546,-0.678598344546));
#694 = DIRECTION('',(-0.923879532511,-0.382683432365,0.));
#695 = ADVANCED_FACE('',(#696),#716,.F.);
#696 = FACE_BOUND('',#697,.F.);
#697 = EDGE_LOOP('',(#698,#706,#712,#713,#714,#715));
#698 = ORIENTED_EDGE('',*,*,#699,.F.);
#699 = EDGE_CURVE('',#700,#623,#702,.T.);
#700 = VERTEX_POINT('',#701);
#701 = CARTESIAN_POINT('',(-5.839594442949,10.,16.7));
#702 = LINE('',#703,#704);
#703 = CARTESIAN_POINT('',(0.,10.,16.7));
#704 = VECTOR('',#705,1.);
#705 = DIRECTION('',(-1.,-0.,-0.));
#706 = ORIENTED_EDGE('',*,*,#707,.T.);
#707 = EDGE_CURVE('',#700,#311,#708,.T.);
#708 = LINE('',#709,#710);
#709 = CARTESIAN_POINT('',(-5.681372932708,10.158221510241,
    17.04808732253));
#710 = VECTOR('',#711,1.);
#711 = DIRECTION('',(-0.38235955645,-0.382359556451,-0.841191024192));
#712 = ORIENTED_EDGE('',*,*,#310,.F.);
#713 = ORIENTED_EDGE('',*,*,#223,.F.);
#714 = ORIENTED_EDGE('',*,*,#607,.F.);
#715 = ORIENTED_EDGE('',*,*,#622,.T.);
#716 = PLANE('',#717);
#717 = AXIS2_PLACEMENT_3D('',#718,#719,#720);
#718 = CARTESIAN_POINT('',(-5.7E-16,7.5,11.2));
#719 = DIRECTION('',(0.,0.910366477463,-0.413802944301));
#720 = DIRECTION('',(0.,0.413802944301,0.910366477463));
#721 = ADVANCED_FACE('',(#722),#740,.F.);
#722 = FACE_BOUND('',#723,.F.);
#723 = EDGE_LOOP('',(#724,#732,#733,#734));
#724 = ORIENTED_EDGE('',*,*,#725,.F.);
#725 = EDGE_CURVE('',#247,#726,#728,.T.);
#726 = VERTEX_POINT('',#727);
#727 = CARTESIAN_POINT('',(5.00000000002,13.,-4.7));
#728 = LINE('',#729,#730);
#729 = CARTESIAN_POINT('',(5.00000000002,12.25,-5.45));
#730 = VECTOR('',#731,1.);
#731 = DIRECTION('',(-1.817E-14,0.707106781187,0.707106781187));
#732 = ORIENTED_EDGE('',*,*,#246,.T.);
#733 = ORIENTED_EDGE('',*,*,#401,.T.);
#734 = ORIENTED_EDGE('',*,*,#735,.F.);
#735 = EDGE_CURVE('',#726,#402,#736,.T.);
#736 = LINE('',#737,#738);
#737 = CARTESIAN_POINT('',(5.603553390613,12.75,-4.7));
#738 = VECTOR('',#739,1.);
#739 = DIRECTION('',(0.923879532511,-0.382683432365,1.1526E-13));
#740 = PLANE('',#741);
#741 = AXIS2_PLACEMENT_3D('',#742,#743,#744);
#742 = CARTESIAN_POINT('',(5.00000000002,12.,-5.7));
#743 = DIRECTION('',(-0.281084637715,-0.678598344546,0.678598344546));
#744 = DIRECTION('',(0.923879532511,-0.382683432365,2.01394456667E-13));
#745 = ADVANCED_FACE('',(#746),#764,.F.);
#746 = FACE_BOUND('',#747,.T.);
#747 = EDGE_LOOP('',(#748,#756,#757,#758));
#748 = ORIENTED_EDGE('',*,*,#749,.F.);
#749 = EDGE_CURVE('',#280,#750,#752,.T.);
#750 = VERTEX_POINT('',#751);
#751 = CARTESIAN_POINT('',(-0.5,13.,-4.7));
#752 = LINE('',#753,#754);
#753 = CARTESIAN_POINT('',(-0.833333333333,12.666666666667,
    -5.033333333333));
#754 = VECTOR('',#755,1.);
#755 = DIRECTION('',(0.57735026919,0.57735026919,0.57735026919));
#756 = ORIENTED_EDGE('',*,*,#287,.T.);
#757 = ORIENTED_EDGE('',*,*,#682,.T.);
#758 = ORIENTED_EDGE('',*,*,#759,.F.);
#759 = EDGE_CURVE('',#750,#576,#760,.T.);
#760 = LINE('',#761,#762);
#761 = CARTESIAN_POINT('',(-0.5,13.,-4.7));
#762 = VECTOR('',#763,1.);
#763 = DIRECTION('',(-1.,1.5E-16,0.));
#764 = PLANE('',#765);
#765 = AXIS2_PLACEMENT_3D('',#766,#767,#768);
#766 = CARTESIAN_POINT('',(-0.5,12.5,-5.2));
#767 = DIRECTION('',(0.,-0.707106781187,0.707106781187));
#768 = DIRECTION('',(1.,-7.E-17,-7.E-17));
#769 = ADVANCED_FACE('',(#770),#788,.F.);
#770 = FACE_BOUND('',#771,.T.);
#771 = EDGE_LOOP('',(#772,#773,#774,#782));
#772 = ORIENTED_EDGE('',*,*,#725,.F.);
#773 = ORIENTED_EDGE('',*,*,#254,.T.);
#774 = ORIENTED_EDGE('',*,*,#775,.T.);
#775 = EDGE_CURVE('',#255,#776,#778,.T.);
#776 = VERTEX_POINT('',#777);
#777 = CARTESIAN_POINT('',(0.5,13.,-4.7));
#778 = LINE('',#779,#780);
#779 = CARTESIAN_POINT('',(2.16666666667,11.33333333333,-6.36666666667)
  );
#780 = VECTOR('',#781,1.);
#781 = DIRECTION('',(-0.57735026919,0.57735026919,0.57735026919));
#782 = ORIENTED_EDGE('',*,*,#783,.F.);
#783 = EDGE_CURVE('',#726,#776,#784,.T.);
#784 = LINE('',#785,#786);
#785 = CARTESIAN_POINT('',(6.000000000021,13.,-4.7));
#786 = VECTOR('',#787,1.);
#787 = DIRECTION('',(-1.,1.5E-16,0.));
#788 = PLANE('',#789);
#789 = AXIS2_PLACEMENT_3D('',#790,#791,#792);
#790 = CARTESIAN_POINT('',(6.000000000021,12.5,-5.2));
#791 = DIRECTION('',(0.,-0.707106781187,0.707106781187));
#792 = DIRECTION('',(1.,-7.E-17,-7.E-17));
#793 = ADVANCED_FACE('',(#794),#812,.T.);
#794 = FACE_BOUND('',#795,.F.);
#795 = EDGE_LOOP('',(#796,#797,#798,#806));
#796 = ORIENTED_EDGE('',*,*,#749,.F.);
#797 = ORIENTED_EDGE('',*,*,#279,.T.);
#798 = ORIENTED_EDGE('',*,*,#799,.T.);
#799 = EDGE_CURVE('',#271,#800,#802,.T.);
#800 = VERTEX_POINT('',#801);
#801 = CARTESIAN_POINT('',(-0.5,10.5,-4.7));
#802 = LINE('',#803,#804);
#803 = CARTESIAN_POINT('',(-1.,10.5,-5.2));
#804 = VECTOR('',#805,1.);
#805 = DIRECTION('',(0.707106781187,0.,0.707106781187));
#806 = ORIENTED_EDGE('',*,*,#807,.F.);
#807 = EDGE_CURVE('',#750,#800,#808,.T.);
#808 = LINE('',#809,#810);
#809 = CARTESIAN_POINT('',(-0.5,13.,-4.7));
#810 = VECTOR('',#811,1.);
#811 = DIRECTION('',(-0.,-1.,-0.));
#812 = PLANE('',#813);
#813 = AXIS2_PLACEMENT_3D('',#814,#815,#816);
#814 = CARTESIAN_POINT('',(-1.,13.,-5.2));
#815 = DIRECTION('',(0.707106781187,0.,-0.707106781187));
#816 = DIRECTION('',(-0.,1.,-0.));
#817 = ADVANCED_FACE('',(#818),#836,.F.);
#818 = FACE_BOUND('',#819,.F.);
#819 = EDGE_LOOP('',(#820,#828,#829,#830));
#820 = ORIENTED_EDGE('',*,*,#821,.F.);
#821 = EDGE_CURVE('',#263,#822,#824,.T.);
#822 = VERTEX_POINT('',#823);
#823 = CARTESIAN_POINT('',(0.5,10.5,-4.7));
#824 = LINE('',#825,#826);
#825 = CARTESIAN_POINT('',(0.5,10.5,-4.7));
#826 = VECTOR('',#827,1.);
#827 = DIRECTION('',(-0.707106781187,9.E-17,0.707106781187));
#828 = ORIENTED_EDGE('',*,*,#262,.T.);
#829 = ORIENTED_EDGE('',*,*,#775,.T.);
#830 = ORIENTED_EDGE('',*,*,#831,.F.);
#831 = EDGE_CURVE('',#822,#776,#832,.T.);
#832 = LINE('',#833,#834);
#833 = CARTESIAN_POINT('',(0.5,10.5,-4.7));
#834 = VECTOR('',#835,1.);
#835 = DIRECTION('',(0.,1.,0.));
#836 = PLANE('',#837);
#837 = AXIS2_PLACEMENT_3D('',#838,#839,#840);
#838 = CARTESIAN_POINT('',(1.,10.5,-5.2));
#839 = DIRECTION('',(0.707106781187,0.,0.707106781187));
#840 = DIRECTION('',(-0.,1.,0.));
#841 = ADVANCED_FACE('',(#842),#854,.F.);
#842 = FACE_BOUND('',#843,.F.);
#843 = EDGE_LOOP('',(#844,#845,#846,#847));
#844 = ORIENTED_EDGE('',*,*,#799,.F.);
#845 = ORIENTED_EDGE('',*,*,#270,.T.);
#846 = ORIENTED_EDGE('',*,*,#821,.T.);
#847 = ORIENTED_EDGE('',*,*,#848,.F.);
#848 = EDGE_CURVE('',#800,#822,#849,.T.);
#849 = CIRCLE('',#850,0.5);
#850 = AXIS2_PLACEMENT_3D('',#851,#852,#853);
#851 = CARTESIAN_POINT('',(0.,10.5,-4.7));
#852 = DIRECTION('',(0.,0.,1.));
#853 = DIRECTION('',(-1.,0.,0.));
#854 = CONICAL_SURFACE('',#855,0.5,0.785398163397);
#855 = AXIS2_PLACEMENT_3D('',#856,#857,#858);
#856 = CARTESIAN_POINT('',(0.,10.5,-4.7));
#857 = DIRECTION('',(-0.,-0.,-1.));
#858 = DIRECTION('',(-1.,0.,0.));
#859 = ADVANCED_FACE('',(#860),#878,.T.);
#860 = FACE_BOUND('',#861,.T.);
#861 = EDGE_LOOP('',(#862,#870,#871,#872));
#862 = ORIENTED_EDGE('',*,*,#863,.F.);
#863 = EDGE_CURVE('',#700,#864,#866,.T.);
#864 = VERTEX_POINT('',#865);
#865 = CARTESIAN_POINT('',(-4.7573593129,10.,14.850675799108));
#866 = LINE('',#867,#868);
#867 = CARTESIAN_POINT('',(-1.411196762759,10.,9.132750726935));
#868 = VECTOR('',#869,1.);
#869 = DIRECTION('',(0.505076272276,0.,-0.8630747124));
#870 = ORIENTED_EDGE('',*,*,#707,.T.);
#871 = ORIENTED_EDGE('',*,*,#385,.T.);
#872 = ORIENTED_EDGE('',*,*,#873,.F.);
#873 = EDGE_CURVE('',#864,#378,#874,.T.);
#874 = LINE('',#875,#876);
#875 = CARTESIAN_POINT('',(-4.162547435421,10.59481187748,
    16.159261929564));
#876 = VECTOR('',#877,1.);
#877 = DIRECTION('',(-0.38235955645,-0.382359556451,-0.841191024192));
#878 = PLANE('',#879);
#879 = AXIS2_PLACEMENT_3D('',#880,#881,#882);
#880 = CARTESIAN_POINT('',(-4.921960184064,10.37651669386,
    16.603674626047));
#881 = DIRECTION('',(0.389991598356,-0.892087303108,0.228225320342));
#882 = DIRECTION('',(-0.38235955645,-0.382359556451,-0.841191024192));
#883 = ADVANCED_FACE('',(#884),#894,.F.);
#884 = FACE_BOUND('',#885,.F.);
#885 = EDGE_LOOP('',(#886,#887,#888));
#886 = ORIENTED_EDGE('',*,*,#377,.F.);
#887 = ORIENTED_EDGE('',*,*,#873,.F.);
#888 = ORIENTED_EDGE('',*,*,#889,.F.);
#889 = EDGE_CURVE('',#370,#864,#890,.T.);
#890 = LINE('',#891,#892);
#891 = CARTESIAN_POINT('',(-4.7573593129,10.,5.7));
#892 = VECTOR('',#893,1.);
#893 = DIRECTION('',(0.,0.,1.));
#894 = PLANE('',#895);
#895 = AXIS2_PLACEMENT_3D('',#896,#897,#898);
#896 = CARTESIAN_POINT('',(-9.757359312892,5.,5.7));
#897 = DIRECTION('',(-0.707106781187,0.707106781186,0.));
#898 = DIRECTION('',(0.707106781186,0.707106781187,0.));
#899 = ADVANCED_FACE('',(#900),#1015,.T.);
#900 = FACE_BOUND('',#901,.T.);
#901 = EDGE_LOOP('',(#902,#903,#904,#912,#920,#928,#936,#945,#953,#961,
    #969,#975,#976,#984,#992,#1000,#1008,#1014));
#902 = ORIENTED_EDGE('',*,*,#889,.F.);
#903 = ORIENTED_EDGE('',*,*,#369,.F.);
#904 = ORIENTED_EDGE('',*,*,#905,.F.);
#905 = EDGE_CURVE('',#906,#361,#908,.T.);
#906 = VERTEX_POINT('',#907);
#907 = CARTESIAN_POINT('',(-1.414213562373,10.,9.2));
#908 = LINE('',#909,#910);
#909 = CARTESIAN_POINT('',(-1.414213562373,10.,3.9));
#910 = VECTOR('',#911,1.);
#911 = DIRECTION('',(0.,0.,-1.));
#912 = ORIENTED_EDGE('',*,*,#913,.F.);
#913 = EDGE_CURVE('',#914,#906,#916,.T.);
#914 = VERTEX_POINT('',#915);
#915 = CARTESIAN_POINT('',(-1.145643923739,10.,9.2));
#916 = LINE('',#917,#918);
#917 = CARTESIAN_POINT('',(4.500000000008,10.,9.2));
#918 = VECTOR('',#919,1.);
#919 = DIRECTION('',(-1.,0.,0.));
#920 = ORIENTED_EDGE('',*,*,#921,.F.);
#921 = EDGE_CURVE('',#922,#914,#924,.T.);
#922 = VERTEX_POINT('',#923);
#923 = CARTESIAN_POINT('',(-1.145643923739,10.,10.7));
#924 = LINE('',#925,#926);
#925 = CARTESIAN_POINT('',(-1.145643923739,10.,9.2));
#926 = VECTOR('',#927,1.);
#927 = DIRECTION('',(0.,0.,-1.));
#928 = ORIENTED_EDGE('',*,*,#929,.F.);
#929 = EDGE_CURVE('',#930,#922,#932,.T.);
#930 = VERTEX_POINT('',#931);
#931 = CARTESIAN_POINT('',(-0.32,10.,10.7));
#932 = LINE('',#933,#934);
#933 = CARTESIAN_POINT('',(4.500000000008,10.,10.7));
#934 = VECTOR('',#935,1.);
#935 = DIRECTION('',(-1.,0.,0.));
#936 = ORIENTED_EDGE('',*,*,#937,.T.);
#937 = EDGE_CURVE('',#930,#938,#940,.T.);
#938 = VERTEX_POINT('',#939);
#939 = CARTESIAN_POINT('',(0.32,10.,10.7));
#940 = CIRCLE('',#941,0.32);
#941 = AXIS2_PLACEMENT_3D('',#942,#943,#944);
#942 = CARTESIAN_POINT('',(0.,10.,10.7));
#943 = DIRECTION('',(0.,1.,-2.2E-16));
#944 = DIRECTION('',(-1.,0.,0.));
#945 = ORIENTED_EDGE('',*,*,#946,.F.);
#946 = EDGE_CURVE('',#947,#938,#949,.T.);
#947 = VERTEX_POINT('',#948);
#948 = CARTESIAN_POINT('',(1.145643923739,10.,10.7));
#949 = LINE('',#950,#951);
#950 = CARTESIAN_POINT('',(4.500000000008,10.,10.7));
#951 = VECTOR('',#952,1.);
#952 = DIRECTION('',(-1.,0.,0.));
#953 = ORIENTED_EDGE('',*,*,#954,.T.);
#954 = EDGE_CURVE('',#947,#955,#957,.T.);
#955 = VERTEX_POINT('',#956);
#956 = CARTESIAN_POINT('',(1.145643923739,10.,9.2));
#957 = LINE('',#958,#959);
#958 = CARTESIAN_POINT('',(1.145643923739,10.,9.2));
#959 = VECTOR('',#960,1.);
#960 = DIRECTION('',(0.,0.,-1.));
#961 = ORIENTED_EDGE('',*,*,#962,.F.);
#962 = EDGE_CURVE('',#963,#955,#965,.T.);
#963 = VERTEX_POINT('',#964);
#964 = CARTESIAN_POINT('',(1.414213562373,10.,9.2));
#965 = LINE('',#966,#967);
#966 = CARTESIAN_POINT('',(4.500000000008,10.,9.2));
#967 = VECTOR('',#968,1.);
#968 = DIRECTION('',(-1.,0.,0.));
#969 = ORIENTED_EDGE('',*,*,#970,.T.);
#970 = EDGE_CURVE('',#963,#353,#971,.T.);
#971 = LINE('',#972,#973);
#972 = CARTESIAN_POINT('',(1.414213562373,10.,3.9));
#973 = VECTOR('',#974,1.);
#974 = DIRECTION('',(0.,0.,-1.));
#975 = ORIENTED_EDGE('',*,*,#352,.F.);
#976 = ORIENTED_EDGE('',*,*,#977,.T.);
#977 = EDGE_CURVE('',#345,#978,#980,.T.);
#978 = VERTEX_POINT('',#979);
#979 = CARTESIAN_POINT('',(4.7573593129,10.,14.850675799108));
#980 = LINE('',#981,#982);
#981 = CARTESIAN_POINT('',(4.7573593129,10.,5.7));
#982 = VECTOR('',#983,1.);
#983 = DIRECTION('',(0.,0.,1.));
#984 = ORIENTED_EDGE('',*,*,#985,.T.);
#985 = EDGE_CURVE('',#978,#986,#988,.T.);
#986 = VERTEX_POINT('',#987);
#987 = CARTESIAN_POINT('',(5.839594442949,10.,16.7));
#988 = LINE('',#989,#990);
#989 = CARTESIAN_POINT('',(1.947318160757,10.,10.048875373424));
#990 = VECTOR('',#991,1.);
#991 = DIRECTION('',(0.505076272276,0.,0.8630747124));
#992 = ORIENTED_EDGE('',*,*,#993,.T.);
#993 = EDGE_CURVE('',#986,#994,#996,.T.);
#994 = VERTEX_POINT('',#995);
#995 = CARTESIAN_POINT('',(4.7573593129,10.,16.7));
#996 = LINE('',#997,#998);
#997 = CARTESIAN_POINT('',(9.000000000016,10.,16.7));
#998 = VECTOR('',#999,1.);
#999 = DIRECTION('',(-1.,0.,0.));
#1000 = ORIENTED_EDGE('',*,*,#1001,.T.);
#1001 = EDGE_CURVE('',#994,#1002,#1004,.T.);
#1002 = VERTEX_POINT('',#1003);
#1003 = CARTESIAN_POINT('',(-4.7573593129,10.,16.7));
#1004 = LINE('',#1005,#1006);
#1005 = CARTESIAN_POINT('',(9.000000000016,10.,16.7));
#1006 = VECTOR('',#1007,1.);
#1007 = DIRECTION('',(-1.,0.,0.));
#1008 = ORIENTED_EDGE('',*,*,#1009,.T.);
#1009 = EDGE_CURVE('',#1002,#700,#1010,.T.);
#1010 = LINE('',#1011,#1012);
#1011 = CARTESIAN_POINT('',(9.000000000016,10.,16.7));
#1012 = VECTOR('',#1013,1.);
#1013 = DIRECTION('',(-1.,0.,0.));
#1014 = ORIENTED_EDGE('',*,*,#863,.T.);
#1015 = PLANE('',#1016);
#1016 = AXIS2_PLACEMENT_3D('',#1017,#1018,#1019);
#1017 = CARTESIAN_POINT('',(9.000000000016,10.,5.7));
#1018 = DIRECTION('',(0.,-1.,0.));
#1019 = DIRECTION('',(-1.,0.,0.));
#1020 = ADVANCED_FACE('',(#1021),#1053,.F.);
#1021 = FACE_BOUND('',#1022,.F.);
#1022 = EDGE_LOOP('',(#1023,#1031,#1039,#1045,#1046,#1047));
#1023 = ORIENTED_EDGE('',*,*,#1024,.F.);
#1024 = EDGE_CURVE('',#1025,#986,#1027,.T.);
#1025 = VERTEX_POINT('',#1026);
#1026 = CARTESIAN_POINT('',(7.585786437654,9.999999999996,
    16.699999999995));
#1027 = LINE('',#1028,#1029);
#1028 = CARTESIAN_POINT('',(0.,10.,16.7));
#1029 = VECTOR('',#1030,1.);
#1030 = DIRECTION('',(-1.,-0.,-0.));
#1031 = ORIENTED_EDGE('',*,*,#1032,.F.);
#1032 = EDGE_CURVE('',#1033,#1025,#1035,.T.);
#1033 = VERTEX_POINT('',#1034);
#1034 = CARTESIAN_POINT('',(8.024466779376,9.893298090589,
    16.465255799296));
#1035 = LINE('',#1036,#1037);
#1036 = CARTESIAN_POINT('',(5.226064396349,10.573964282259,
    17.962721420971));
#1037 = VECTOR('',#1038,1.);
#1038 = DIRECTION('',(-0.862097729898,0.209691351829,0.461320974023));
#1039 = ORIENTED_EDGE('',*,*,#1040,.F.);
#1040 = EDGE_CURVE('',#426,#1033,#1041,.T.);
#1041 = LINE('',#1042,#1043);
#1042 = CARTESIAN_POINT('',(13.075986380199,4.841778489759,5.35191267747
    ));
#1043 = VECTOR('',#1044,1.);
#1044 = DIRECTION('',(-0.38235955645,0.382359556451,0.841191024192));
#1045 = ORIENTED_EDGE('',*,*,#441,.T.);
#1046 = ORIENTED_EDGE('',*,*,#328,.F.);
#1047 = ORIENTED_EDGE('',*,*,#1048,.T.);
#1048 = EDGE_CURVE('',#329,#986,#1049,.T.);
#1049 = LINE('',#1050,#1051);
#1050 = CARTESIAN_POINT('',(10.6813729327,5.158221510241,6.04808732253)
  );
#1051 = VECTOR('',#1052,1.);
#1052 = DIRECTION('',(-0.38235955645,0.382359556451,0.841191024192));
#1053 = PLANE('',#1054);
#1054 = AXIS2_PLACEMENT_3D('',#1055,#1056,#1057);
#1055 = CARTESIAN_POINT('',(-5.7E-16,7.5,11.2));
#1056 = DIRECTION('',(0.,0.910366477463,-0.413802944301));
#1057 = DIRECTION('',(0.,0.413802944301,0.910366477463));
#1058 = ADVANCED_FACE('',(#1059),#1105,.F.);
#1059 = FACE_BOUND('',#1060,.F.);
#1060 = EDGE_LOOP('',(#1061,#1072,#1080,#1087,#1088,#1089,#1090,#1099));
#1061 = ORIENTED_EDGE('',*,*,#1062,.F.);
#1062 = EDGE_CURVE('',#1063,#1065,#1067,.T.);
#1063 = VERTEX_POINT('',#1064);
#1064 = CARTESIAN_POINT('',(1.5,10.5,3.9));
#1065 = VERTEX_POINT('',#1066);
#1066 = CARTESIAN_POINT('',(-1.5,10.5,3.9));
#1067 = CIRCLE('',#1068,1.5);
#1068 = AXIS2_PLACEMENT_3D('',#1069,#1070,#1071);
#1069 = CARTESIAN_POINT('',(0.,10.5,3.9));
#1070 = DIRECTION('',(0.,0.,-1.));
#1071 = DIRECTION('',(1.,0.,0.));
#1072 = ORIENTED_EDGE('',*,*,#1073,.T.);
#1073 = EDGE_CURVE('',#1063,#1074,#1076,.T.);
#1074 = VERTEX_POINT('',#1075);
#1075 = CARTESIAN_POINT('',(1.5,10.5,9.2));
#1076 = LINE('',#1077,#1078);
#1077 = CARTESIAN_POINT('',(1.5,10.5,3.9));
#1078 = VECTOR('',#1079,1.);
#1079 = DIRECTION('',(0.,0.,1.));
#1080 = ORIENTED_EDGE('',*,*,#1081,.T.);
#1081 = EDGE_CURVE('',#1074,#963,#1082,.T.);
#1082 = CIRCLE('',#1083,1.5);
#1083 = AXIS2_PLACEMENT_3D('',#1084,#1085,#1086);
#1084 = CARTESIAN_POINT('',(0.,10.5,9.2));
#1085 = DIRECTION('',(0.,0.,-1.));
#1086 = DIRECTION('',(1.,0.,0.));
#1087 = ORIENTED_EDGE('',*,*,#970,.T.);
#1088 = ORIENTED_EDGE('',*,*,#360,.T.);
#1089 = ORIENTED_EDGE('',*,*,#905,.F.);
#1090 = ORIENTED_EDGE('',*,*,#1091,.T.);
#1091 = EDGE_CURVE('',#906,#1092,#1094,.T.);
#1092 = VERTEX_POINT('',#1093);
#1093 = CARTESIAN_POINT('',(-1.5,10.5,9.2));
#1094 = CIRCLE('',#1095,1.5);
#1095 = AXIS2_PLACEMENT_3D('',#1096,#1097,#1098);
#1096 = CARTESIAN_POINT('',(0.,10.5,9.2));
#1097 = DIRECTION('',(0.,0.,-1.));
#1098 = DIRECTION('',(1.,0.,0.));
#1099 = ORIENTED_EDGE('',*,*,#1100,.F.);
#1100 = EDGE_CURVE('',#1065,#1092,#1101,.T.);
#1101 = LINE('',#1102,#1103);
#1102 = CARTESIAN_POINT('',(-1.5,10.5,3.9));
#1103 = VECTOR('',#1104,1.);
#1104 = DIRECTION('',(0.,0.,1.));
#1105 = CYLINDRICAL_SURFACE('',#1106,1.5);
#1106 = AXIS2_PLACEMENT_3D('',#1107,#1108,#1109);
#1107 = CARTESIAN_POINT('',(0.,10.5,3.9));
#1108 = DIRECTION('',(0.,0.,-1.));
#1109 = DIRECTION('',(1.,0.,0.));
#1110 = ADVANCED_FACE('',(#1111),#1122,.T.);
#1111 = FACE_BOUND('',#1112,.F.);
#1112 = EDGE_LOOP('',(#1113,#1114,#1115,#1116));
#1113 = ORIENTED_EDGE('',*,*,#985,.T.);
#1114 = ORIENTED_EDGE('',*,*,#1048,.F.);
#1115 = ORIENTED_EDGE('',*,*,#336,.F.);
#1116 = ORIENTED_EDGE('',*,*,#1117,.T.);
#1117 = EDGE_CURVE('',#337,#978,#1118,.T.);
#1118 = LINE('',#1119,#1120);
#1119 = CARTESIAN_POINT('',(9.162547435413,5.59481187748,5.159261929564)
  );
#1120 = VECTOR('',#1121,1.);
#1121 = DIRECTION('',(-0.38235955645,0.382359556451,0.841191024192));
#1122 = PLANE('',#1123);
#1123 = AXIS2_PLACEMENT_3D('',#1124,#1125,#1126);
#1124 = CARTESIAN_POINT('',(9.921960184056,5.37651669386,5.603674626047)
  );
#1125 = DIRECTION('',(-0.389991598356,-0.892087303108,0.228225320342));
#1126 = DIRECTION('',(0.38235955645,-0.382359556451,-0.841191024192));
#1127 = ADVANCED_FACE('',(#1128),#1133,.F.);
#1128 = FACE_BOUND('',#1129,.F.);
#1129 = EDGE_LOOP('',(#1130,#1131,#1132));
#1130 = ORIENTED_EDGE('',*,*,#344,.F.);
#1131 = ORIENTED_EDGE('',*,*,#977,.T.);
#1132 = ORIENTED_EDGE('',*,*,#1117,.F.);
#1133 = PLANE('',#1134);
#1134 = AXIS2_PLACEMENT_3D('',#1135,#1136,#1137);
#1135 = CARTESIAN_POINT('',(4.7573593129,10.,5.7));
#1136 = DIRECTION('',(0.707106781187,0.707106781186,0.));
#1137 = DIRECTION('',(0.707106781186,-0.707106781187,0.));
#1138 = ADVANCED_FACE('',(#1139),#1150,.F.);
#1139 = FACE_BOUND('',#1140,.T.);
#1140 = EDGE_LOOP('',(#1141,#1142,#1143,#1149));
#1141 = ORIENTED_EDGE('',*,*,#423,.F.);
#1142 = ORIENTED_EDGE('',*,*,#473,.T.);
#1143 = ORIENTED_EDGE('',*,*,#1144,.T.);
#1144 = EDGE_CURVE('',#466,#1033,#1145,.T.);
#1145 = LINE('',#1146,#1147);
#1146 = CARTESIAN_POINT('',(10.407427496034,11.885274523634,
    13.371708073477));
#1147 = VECTOR('',#1148,1.);
#1148 = DIRECTION('',(-0.54360022956,-0.454409020976,0.705699108741));
#1149 = ORIENTED_EDGE('',*,*,#1040,.F.);
#1150 = PLANE('',#1151);
#1151 = AXIS2_PLACEMENT_3D('',#1152,#1153,#1154);
#1152 = CARTESIAN_POINT('',(13.240587251364,5.21829518362,5.255587303517
    ));
#1153 = DIRECTION('',(-0.837679964427,0.240793299791,-0.490215120099));
#1154 = DIRECTION('',(0.38235955645,-0.382359556451,-0.841191024192));
#1155 = ADVANCED_FACE('',(#1156),#1174,.T.);
#1156 = FACE_BOUND('',#1157,.F.);
#1157 = EDGE_LOOP('',(#1158,#1159,#1167,#1173));
#1158 = ORIENTED_EDGE('',*,*,#457,.T.);
#1159 = ORIENTED_EDGE('',*,*,#1160,.T.);
#1160 = EDGE_CURVE('',#458,#1161,#1163,.T.);
#1161 = VERTEX_POINT('',#1162);
#1162 = CARTESIAN_POINT('',(5.00000000002,13.,15.7));
#1163 = LINE('',#1164,#1165);
#1164 = CARTESIAN_POINT('',(6.103553390621,12.542893218809,
    15.699999999999));
#1165 = VECTOR('',#1166,1.);
#1166 = DIRECTION('',(-0.923879532511,0.382683432365,7.0318E-13));
#1167 = ORIENTED_EDGE('',*,*,#1168,.F.);
#1168 = EDGE_CURVE('',#726,#1161,#1169,.T.);
#1169 = LINE('',#1170,#1171);
#1170 = CARTESIAN_POINT('',(5.00000000002,13.,-5.7));
#1171 = VECTOR('',#1172,1.);
#1172 = DIRECTION('',(0.,0.,1.));
#1173 = ORIENTED_EDGE('',*,*,#735,.T.);
#1174 = PLANE('',#1175);
#1175 = AXIS2_PLACEMENT_3D('',#1176,#1177,#1178);
#1176 = CARTESIAN_POINT('',(5.853553390613,12.646446609406,-5.7));
#1177 = DIRECTION('',(0.382683432365,0.923879532511,2.29E-14));
#1178 = DIRECTION('',(8.76792409171E-15,2.115498831405E-14,-1.));
#1179 = ADVANCED_FACE('',(#1180),#1199,.T.);
#1180 = FACE_BOUND('',#1181,.F.);
#1181 = EDGE_LOOP('',(#1182,#1183,#1184,#1192,#1198));
#1182 = ORIENTED_EDGE('',*,*,#1144,.T.);
#1183 = ORIENTED_EDGE('',*,*,#1032,.T.);
#1184 = ORIENTED_EDGE('',*,*,#1185,.F.);
#1185 = EDGE_CURVE('',#1186,#1025,#1188,.T.);
#1186 = VERTEX_POINT('',#1187);
#1187 = CARTESIAN_POINT('',(6.000000000023,11.585786437626,16.7));
#1188 = LINE('',#1189,#1190);
#1189 = CARTESIAN_POINT('',(5.292893218825,12.292893218821,16.7));
#1190 = VECTOR('',#1191,1.);
#1191 = DIRECTION('',(0.707106781188,-0.707106781185,0.));
#1192 = ORIENTED_EDGE('',*,*,#1193,.T.);
#1193 = EDGE_CURVE('',#1186,#458,#1194,.T.);
#1194 = LINE('',#1195,#1196);
#1195 = CARTESIAN_POINT('',(6.176776695312,11.762563132924,
    16.450000000001));
#1196 = VECTOR('',#1197,1.);
#1197 = DIRECTION('',(0.500000000004,0.499999999997,-0.707106781187));
#1198 = ORIENTED_EDGE('',*,*,#465,.T.);
#1199 = PLANE('',#1200);
#1200 = AXIS2_PLACEMENT_3D('',#1201,#1202,#1203);
#1201 = CARTESIAN_POINT('',(5.646446609417,12.646446609415,16.2));
#1202 = DIRECTION('',(0.5,0.5,0.707106781187));
#1203 = DIRECTION('',(-0.707106781187,0.707106781186,1.686956130342E-12)
  );
#1204 = ADVANCED_FACE('',(#1205),#1225,.F.);
#1205 = FACE_BOUND('',#1206,.F.);
#1206 = EDGE_LOOP('',(#1207,#1216,#1223,#1224));
#1207 = ORIENTED_EDGE('',*,*,#1208,.T.);
#1208 = EDGE_CURVE('',#494,#1209,#1211,.T.);
#1209 = VERTEX_POINT('',#1210);
#1210 = CARTESIAN_POINT('',(10.5,5.,2.E-15));
#1211 = CIRCLE('',#1212,2.);
#1212 = AXIS2_PLACEMENT_3D('',#1213,#1214,#1215);
#1213 = CARTESIAN_POINT('',(12.5,5.,2.E-15));
#1214 = DIRECTION('',(0.,1.,-0.));
#1215 = DIRECTION('',(-1.,0.,0.));
#1216 = ORIENTED_EDGE('',*,*,#1217,.T.);
#1217 = EDGE_CURVE('',#1209,#485,#1218,.T.);
#1218 = CIRCLE('',#1219,2.);
#1219 = AXIS2_PLACEMENT_3D('',#1220,#1221,#1222);
#1220 = CARTESIAN_POINT('',(12.5,5.,2.E-15));
#1221 = DIRECTION('',(0.,1.,-0.));
#1222 = DIRECTION('',(-1.,0.,0.));
#1223 = ORIENTED_EDGE('',*,*,#482,.F.);
#1224 = ORIENTED_EDGE('',*,*,#493,.F.);
#1225 = CYLINDRICAL_SURFACE('',#1226,2.);
#1226 = AXIS2_PLACEMENT_3D('',#1227,#1228,#1229);
#1227 = CARTESIAN_POINT('',(12.5,13.,0.));
#1228 = DIRECTION('',(0.,1.,-2.2E-16));
#1229 = DIRECTION('',(-1.,0.,0.));
#1230 = ADVANCED_FACE('',(#1231,#1236),#1239,.T.);
#1231 = FACE_BOUND('',#1232,.T.);
#1232 = EDGE_LOOP('',(#1233,#1234,#1235));
#1233 = ORIENTED_EDGE('',*,*,#1208,.T.);
#1234 = ORIENTED_EDGE('',*,*,#1217,.T.);
#1235 = ORIENTED_EDGE('',*,*,#502,.F.);
#1236 = FACE_BOUND('',#1237,.T.);
#1237 = EDGE_LOOP('',(#1238));
#1238 = ORIENTED_EDGE('',*,*,#541,.F.);
#1239 = PLANE('',#1240);
#1240 = AXIS2_PLACEMENT_3D('',#1241,#1242,#1243);
#1241 = CARTESIAN_POINT('',(1.2E-15,5.,2.17E-15));
#1242 = DIRECTION('',(0.,1.,0.));
#1243 = DIRECTION('',(0.,0.,1.));
#1244 = ADVANCED_FACE('',(#1245),#1263,.T.);
#1245 = FACE_BOUND('',#1246,.T.);
#1246 = EDGE_LOOP('',(#1247,#1248,#1256,#1262));
#1247 = ORIENTED_EDGE('',*,*,#638,.F.);
#1248 = ORIENTED_EDGE('',*,*,#1249,.T.);
#1249 = EDGE_CURVE('',#631,#1250,#1252,.T.);
#1250 = VERTEX_POINT('',#1251);
#1251 = CARTESIAN_POINT('',(-5.000000000021,12.,16.7));
#1252 = LINE('',#1253,#1254);
#1253 = CARTESIAN_POINT('',(-3.890197325528,12.459695319333,16.7));
#1254 = VECTOR('',#1255,1.);
#1255 = DIRECTION('',(0.923879532511,0.382683432365,0.));
#1256 = ORIENTED_EDGE('',*,*,#1257,.T.);
#1257 = EDGE_CURVE('',#1250,#568,#1258,.T.);
#1258 = LINE('',#1259,#1260);
#1259 = CARTESIAN_POINT('',(-5.000000000021,12.146446609407,
    16.553553390593));
#1260 = VECTOR('',#1261,1.);
#1261 = DIRECTION('',(-9.9E-16,0.707106781187,-0.707106781187));
#1262 = ORIENTED_EDGE('',*,*,#567,.F.);
#1263 = PLANE('',#1264);
#1264 = AXIS2_PLACEMENT_3D('',#1265,#1266,#1267);
#1265 = CARTESIAN_POINT('',(-6.000000000019,11.585786437627,16.7));
#1266 = DIRECTION('',(-0.281084637715,0.678598344546,0.678598344546));
#1267 = DIRECTION('',(0.923879532511,0.382683432365,0.));
#1268 = ADVANCED_FACE('',(#1269),#1416,.T.);
#1269 = FACE_BOUND('',#1270,.T.);
#1270 = EDGE_LOOP('',(#1271,#1279,#1280,#1281,#1287,#1288,#1289,#1297,
    #1305,#1313,#1321,#1329,#1337,#1345,#1353,#1362,#1370,#1378,#1386,
    #1394,#1402,#1410));
#1271 = ORIENTED_EDGE('',*,*,#1272,.F.);
#1272 = EDGE_CURVE('',#750,#1273,#1275,.T.);
#1273 = VERTEX_POINT('',#1274);
#1274 = CARTESIAN_POINT('',(-0.5,13.,0.8));
#1275 = LINE('',#1276,#1277);
#1276 = CARTESIAN_POINT('',(-0.5,13.,-5.7));
#1277 = VECTOR('',#1278,1.);
#1278 = DIRECTION('',(0.,0.,1.));
#1279 = ORIENTED_EDGE('',*,*,#759,.T.);
#1280 = ORIENTED_EDGE('',*,*,#575,.T.);
#1281 = ORIENTED_EDGE('',*,*,#1282,.T.);
#1282 = EDGE_CURVE('',#568,#1161,#1283,.T.);
#1283 = LINE('',#1284,#1285);
#1284 = CARTESIAN_POINT('',(-6.000000000021,13.,15.7));
#1285 = VECTOR('',#1286,1.);
#1286 = DIRECTION('',(1.,0.,0.));
#1287 = ORIENTED_EDGE('',*,*,#1168,.F.);
#1288 = ORIENTED_EDGE('',*,*,#783,.T.);
#1289 = ORIENTED_EDGE('',*,*,#1290,.T.);
#1290 = EDGE_CURVE('',#776,#1291,#1293,.T.);
#1291 = VERTEX_POINT('',#1292);
#1292 = CARTESIAN_POINT('',(0.5,13.,0.8));
#1293 = LINE('',#1294,#1295);
#1294 = CARTESIAN_POINT('',(0.5,13.,-5.7));
#1295 = VECTOR('',#1296,1.);
#1296 = DIRECTION('',(0.,0.,1.));
#1297 = ORIENTED_EDGE('',*,*,#1298,.T.);
#1298 = EDGE_CURVE('',#1291,#1299,#1301,.T.);
#1299 = VERTEX_POINT('',#1300);
#1300 = CARTESIAN_POINT('',(2.,13.,0.8));
#1301 = LINE('',#1302,#1303);
#1302 = CARTESIAN_POINT('',(-2.,13.,0.8));
#1303 = VECTOR('',#1304,1.);
#1304 = DIRECTION('',(1.,0.,0.));
#1305 = ORIENTED_EDGE('',*,*,#1306,.T.);
#1306 = EDGE_CURVE('',#1299,#1307,#1309,.T.);
#1307 = VERTEX_POINT('',#1308);
#1308 = CARTESIAN_POINT('',(2.,13.,3.9));
#1309 = LINE('',#1310,#1311);
#1310 = CARTESIAN_POINT('',(2.,13.,0.8));
#1311 = VECTOR('',#1312,1.);
#1312 = DIRECTION('',(0.,0.,1.));
#1313 = ORIENTED_EDGE('',*,*,#1314,.F.);
#1314 = EDGE_CURVE('',#1315,#1307,#1317,.T.);
#1315 = VERTEX_POINT('',#1316);
#1316 = CARTESIAN_POINT('',(1.5,13.,3.9));
#1317 = LINE('',#1318,#1319);
#1318 = CARTESIAN_POINT('',(-2.,13.,3.9));
#1319 = VECTOR('',#1320,1.);
#1320 = DIRECTION('',(1.,0.,0.));
#1321 = ORIENTED_EDGE('',*,*,#1322,.T.);
#1322 = EDGE_CURVE('',#1315,#1323,#1325,.T.);
#1323 = VERTEX_POINT('',#1324);
#1324 = CARTESIAN_POINT('',(1.5,13.,9.2));
#1325 = LINE('',#1326,#1327);
#1326 = CARTESIAN_POINT('',(1.5,13.,3.9));
#1327 = VECTOR('',#1328,1.);
#1328 = DIRECTION('',(0.,0.,1.));
#1329 = ORIENTED_EDGE('',*,*,#1330,.F.);
#1330 = EDGE_CURVE('',#1331,#1323,#1333,.T.);
#1331 = VERTEX_POINT('',#1332);
#1332 = CARTESIAN_POINT('',(1.25,13.,9.2));
#1333 = LINE('',#1334,#1335);
#1334 = CARTESIAN_POINT('',(-1.5,13.,9.2));
#1335 = VECTOR('',#1336,1.);
#1336 = DIRECTION('',(1.,0.,0.));
#1337 = ORIENTED_EDGE('',*,*,#1338,.T.);
#1338 = EDGE_CURVE('',#1331,#1339,#1341,.T.);
#1339 = VERTEX_POINT('',#1340);
#1340 = CARTESIAN_POINT('',(1.25,13.,10.7));
#1341 = LINE('',#1342,#1343);
#1342 = CARTESIAN_POINT('',(1.25,13.,9.2));
#1343 = VECTOR('',#1344,1.);
#1344 = DIRECTION('',(0.,0.,1.));
#1345 = ORIENTED_EDGE('',*,*,#1346,.F.);
#1346 = EDGE_CURVE('',#1347,#1339,#1349,.T.);
#1347 = VERTEX_POINT('',#1348);
#1348 = CARTESIAN_POINT('',(0.32,13.,10.7));
#1349 = LINE('',#1350,#1351);
#1350 = CARTESIAN_POINT('',(-1.25,13.,10.7));
#1351 = VECTOR('',#1352,1.);
#1352 = DIRECTION('',(1.,0.,0.));
#1353 = ORIENTED_EDGE('',*,*,#1354,.F.);
#1354 = EDGE_CURVE('',#1355,#1347,#1357,.T.);
#1355 = VERTEX_POINT('',#1356);
#1356 = CARTESIAN_POINT('',(-0.32,13.,10.7));
#1357 = CIRCLE('',#1358,0.32);
#1358 = AXIS2_PLACEMENT_3D('',#1359,#1360,#1361);
#1359 = CARTESIAN_POINT('',(0.,13.,10.7));
#1360 = DIRECTION('',(0.,1.,-0.));
#1361 = DIRECTION('',(-1.,0.,0.));
#1362 = ORIENTED_EDGE('',*,*,#1363,.F.);
#1363 = EDGE_CURVE('',#1364,#1355,#1366,.T.);
#1364 = VERTEX_POINT('',#1365);
#1365 = CARTESIAN_POINT('',(-1.25,13.,10.7));
#1366 = LINE('',#1367,#1368);
#1367 = CARTESIAN_POINT('',(-1.25,13.,10.7));
#1368 = VECTOR('',#1369,1.);
#1369 = DIRECTION('',(1.,0.,0.));
#1370 = ORIENTED_EDGE('',*,*,#1371,.F.);
#1371 = EDGE_CURVE('',#1372,#1364,#1374,.T.);
#1372 = VERTEX_POINT('',#1373);
#1373 = CARTESIAN_POINT('',(-1.25,13.,9.2));
#1374 = LINE('',#1375,#1376);
#1375 = CARTESIAN_POINT('',(-1.25,13.,9.2));
#1376 = VECTOR('',#1377,1.);
#1377 = DIRECTION('',(0.,0.,1.));
#1378 = ORIENTED_EDGE('',*,*,#1379,.F.);
#1379 = EDGE_CURVE('',#1380,#1372,#1382,.T.);
#1380 = VERTEX_POINT('',#1381);
#1381 = CARTESIAN_POINT('',(-1.5,13.,9.2));
#1382 = LINE('',#1383,#1384);
#1383 = CARTESIAN_POINT('',(-1.5,13.,9.2));
#1384 = VECTOR('',#1385,1.);
#1385 = DIRECTION('',(1.,0.,0.));
#1386 = ORIENTED_EDGE('',*,*,#1387,.F.);
#1387 = EDGE_CURVE('',#1388,#1380,#1390,.T.);
#1388 = VERTEX_POINT('',#1389);
#1389 = CARTESIAN_POINT('',(-1.5,13.,3.9));
#1390 = LINE('',#1391,#1392);
#1391 = CARTESIAN_POINT('',(-1.5,13.,3.9));
#1392 = VECTOR('',#1393,1.);
#1393 = DIRECTION('',(0.,0.,1.));
#1394 = ORIENTED_EDGE('',*,*,#1395,.F.);
#1395 = EDGE_CURVE('',#1396,#1388,#1398,.T.);
#1396 = VERTEX_POINT('',#1397);
#1397 = CARTESIAN_POINT('',(-2.,13.,3.9));
#1398 = LINE('',#1399,#1400);
#1399 = CARTESIAN_POINT('',(-2.,13.,3.9));
#1400 = VECTOR('',#1401,1.);
#1401 = DIRECTION('',(1.,0.,0.));
#1402 = ORIENTED_EDGE('',*,*,#1403,.F.);
#1403 = EDGE_CURVE('',#1404,#1396,#1406,.T.);
#1404 = VERTEX_POINT('',#1405);
#1405 = CARTESIAN_POINT('',(-2.,13.,0.8));
#1406 = LINE('',#1407,#1408);
#1407 = CARTESIAN_POINT('',(-2.,13.,0.8));
#1408 = VECTOR('',#1409,1.);
#1409 = DIRECTION('',(0.,0.,1.));
#1410 = ORIENTED_EDGE('',*,*,#1411,.T.);
#1411 = EDGE_CURVE('',#1404,#1273,#1412,.T.);
#1412 = LINE('',#1413,#1414);
#1413 = CARTESIAN_POINT('',(-2.,13.,0.8));
#1414 = VECTOR('',#1415,1.);
#1415 = DIRECTION('',(1.,0.,0.));
#1416 = PLANE('',#1417);
#1417 = AXIS2_PLACEMENT_3D('',#1418,#1419,#1420);
#1418 = CARTESIAN_POINT('',(-5.06757E-12,13.,5.499999999997));
#1419 = DIRECTION('',(0.,1.,0.));
#1420 = DIRECTION('',(0.,0.,1.));
#1421 = ADVANCED_FACE('',(#1422),#1446,.T.);
#1422 = FACE_BOUND('',#1423,.T.);
#1423 = EDGE_LOOP('',(#1424,#1425,#1426,#1434,#1440,#1441,#1442,#1443,
    #1444,#1445));
#1424 = ORIENTED_EDGE('',*,*,#1024,.F.);
#1425 = ORIENTED_EDGE('',*,*,#1185,.F.);
#1426 = ORIENTED_EDGE('',*,*,#1427,.T.);
#1427 = EDGE_CURVE('',#1186,#1428,#1430,.T.);
#1428 = VERTEX_POINT('',#1429);
#1429 = CARTESIAN_POINT('',(5.00000000002,12.,16.7));
#1430 = LINE('',#1431,#1432);
#1431 = CARTESIAN_POINT('',(3.890197325532,12.459695319334,16.7));
#1432 = VECTOR('',#1433,1.);
#1433 = DIRECTION('',(-0.923879532511,0.382683432366,0.));
#1434 = ORIENTED_EDGE('',*,*,#1435,.F.);
#1435 = EDGE_CURVE('',#1250,#1428,#1436,.T.);
#1436 = LINE('',#1437,#1438);
#1437 = CARTESIAN_POINT('',(-6.000000000021,12.,16.7));
#1438 = VECTOR('',#1439,1.);
#1439 = DIRECTION('',(1.,0.,0.));
#1440 = ORIENTED_EDGE('',*,*,#1249,.F.);
#1441 = ORIENTED_EDGE('',*,*,#630,.T.);
#1442 = ORIENTED_EDGE('',*,*,#699,.F.);
#1443 = ORIENTED_EDGE('',*,*,#1009,.F.);
#1444 = ORIENTED_EDGE('',*,*,#1001,.F.);
#1445 = ORIENTED_EDGE('',*,*,#993,.F.);
#1446 = PLANE('',#1447);
#1447 = AXIS2_PLACEMENT_3D('',#1448,#1449,#1450);
#1448 = CARTESIAN_POINT('',(-8.5879E-13,9.035351288136,16.7));
#1449 = DIRECTION('',(0.,0.,1.));
#1450 = DIRECTION('',(1.,0.,0.));
#1451 = ADVANCED_FACE('',(#1452),#1470,.F.);
#1452 = FACE_BOUND('',#1453,.F.);
#1453 = EDGE_LOOP('',(#1454,#1462,#1468,#1469));
#1454 = ORIENTED_EDGE('',*,*,#1455,.T.);
#1455 = EDGE_CURVE('',#800,#1456,#1458,.T.);
#1456 = VERTEX_POINT('',#1457);
#1457 = CARTESIAN_POINT('',(-0.5,10.5,0.8));
#1458 = LINE('',#1459,#1460);
#1459 = CARTESIAN_POINT('',(-0.5,10.5,-5.7));
#1460 = VECTOR('',#1461,1.);
#1461 = DIRECTION('',(0.,0.,1.));
#1462 = ORIENTED_EDGE('',*,*,#1463,.T.);
#1463 = EDGE_CURVE('',#1456,#1273,#1464,.T.);
#1464 = LINE('',#1465,#1466);
#1465 = CARTESIAN_POINT('',(-0.5,10.5,0.8));
#1466 = VECTOR('',#1467,1.);
#1467 = DIRECTION('',(0.,1.,0.));
#1468 = ORIENTED_EDGE('',*,*,#1272,.F.);
#1469 = ORIENTED_EDGE('',*,*,#807,.T.);
#1470 = PLANE('',#1471);
#1471 = AXIS2_PLACEMENT_3D('',#1472,#1473,#1474);
#1472 = CARTESIAN_POINT('',(-0.5,10.5,-5.7));
#1473 = DIRECTION('',(-1.,0.,0.));
#1474 = DIRECTION('',(0.,1.,0.));
#1475 = ADVANCED_FACE('',(#1476),#1494,.T.);
#1476 = FACE_BOUND('',#1477,.T.);
#1477 = EDGE_LOOP('',(#1478,#1486,#1492,#1493));
#1478 = ORIENTED_EDGE('',*,*,#1479,.T.);
#1479 = EDGE_CURVE('',#822,#1480,#1482,.T.);
#1480 = VERTEX_POINT('',#1481);
#1481 = CARTESIAN_POINT('',(0.5,10.5,0.8));
#1482 = LINE('',#1483,#1484);
#1483 = CARTESIAN_POINT('',(0.5,10.5,-5.7));
#1484 = VECTOR('',#1485,1.);
#1485 = DIRECTION('',(0.,0.,1.));
#1486 = ORIENTED_EDGE('',*,*,#1487,.T.);
#1487 = EDGE_CURVE('',#1480,#1291,#1488,.T.);
#1488 = LINE('',#1489,#1490);
#1489 = CARTESIAN_POINT('',(0.5,10.5,0.8));
#1490 = VECTOR('',#1491,1.);
#1491 = DIRECTION('',(0.,1.,0.));
#1492 = ORIENTED_EDGE('',*,*,#1290,.F.);
#1493 = ORIENTED_EDGE('',*,*,#831,.F.);
#1494 = PLANE('',#1495);
#1495 = AXIS2_PLACEMENT_3D('',#1496,#1497,#1498);
#1496 = CARTESIAN_POINT('',(0.5,10.5,-5.7));
#1497 = DIRECTION('',(-1.,0.,0.));
#1498 = DIRECTION('',(0.,1.,0.));
#1499 = ADVANCED_FACE('',(#1500),#1512,.F.);
#1500 = FACE_BOUND('',#1501,.F.);
#1501 = EDGE_LOOP('',(#1502,#1503,#1510,#1511));
#1502 = ORIENTED_EDGE('',*,*,#1479,.T.);
#1503 = ORIENTED_EDGE('',*,*,#1504,.T.);
#1504 = EDGE_CURVE('',#1480,#1456,#1505,.T.);
#1505 = CIRCLE('',#1506,0.5);
#1506 = AXIS2_PLACEMENT_3D('',#1507,#1508,#1509);
#1507 = CARTESIAN_POINT('',(0.,10.5,0.8));
#1508 = DIRECTION('',(0.,0.,-1.));
#1509 = DIRECTION('',(1.,0.,0.));
#1510 = ORIENTED_EDGE('',*,*,#1455,.F.);
#1511 = ORIENTED_EDGE('',*,*,#848,.T.);
#1512 = CYLINDRICAL_SURFACE('',#1513,0.5);
#1513 = AXIS2_PLACEMENT_3D('',#1514,#1515,#1516);
#1514 = CARTESIAN_POINT('',(0.,10.5,-5.7));
#1515 = DIRECTION('',(0.,0.,-1.));
#1516 = DIRECTION('',(1.,0.,0.));
#1517 = ADVANCED_FACE('',(#1518),#1544,.F.);
#1518 = FACE_BOUND('',#1519,.F.);
#1519 = EDGE_LOOP('',(#1520,#1521,#1530,#1536,#1537,#1543));
#1520 = ORIENTED_EDGE('',*,*,#913,.F.);
#1521 = ORIENTED_EDGE('',*,*,#1522,.T.);
#1522 = EDGE_CURVE('',#914,#1523,#1525,.T.);
#1523 = VERTEX_POINT('',#1524);
#1524 = CARTESIAN_POINT('',(-1.25,10.5,9.2));
#1525 = CIRCLE('',#1526,1.25);
#1526 = AXIS2_PLACEMENT_3D('',#1527,#1528,#1529);
#1527 = CARTESIAN_POINT('',(0.,10.5,9.2));
#1528 = DIRECTION('',(0.,0.,-1.));
#1529 = DIRECTION('',(1.,0.,0.));
#1530 = ORIENTED_EDGE('',*,*,#1531,.T.);
#1531 = EDGE_CURVE('',#1523,#1372,#1532,.T.);
#1532 = LINE('',#1533,#1534);
#1533 = CARTESIAN_POINT('',(-1.25,10.5,9.2));
#1534 = VECTOR('',#1535,1.);
#1535 = DIRECTION('',(0.,1.,0.));
#1536 = ORIENTED_EDGE('',*,*,#1379,.F.);
#1537 = ORIENTED_EDGE('',*,*,#1538,.F.);
#1538 = EDGE_CURVE('',#1092,#1380,#1539,.T.);
#1539 = LINE('',#1540,#1541);
#1540 = CARTESIAN_POINT('',(-1.5,10.5,9.2));
#1541 = VECTOR('',#1542,1.);
#1542 = DIRECTION('',(0.,1.,0.));
#1543 = ORIENTED_EDGE('',*,*,#1091,.F.);
#1544 = PLANE('',#1545);
#1545 = AXIS2_PLACEMENT_3D('',#1546,#1547,#1548);
#1546 = CARTESIAN_POINT('',(0.,11.288230854638,9.2));
#1547 = DIRECTION('',(0.,0.,1.));
#1548 = DIRECTION('',(1.,0.,0.));
#1549 = ADVANCED_FACE('',(#1550),#1569,.F.);
#1550 = FACE_BOUND('',#1551,.F.);
#1551 = EDGE_LOOP('',(#1552,#1553,#1554,#1563));
#1552 = ORIENTED_EDGE('',*,*,#1522,.F.);
#1553 = ORIENTED_EDGE('',*,*,#921,.F.);
#1554 = ORIENTED_EDGE('',*,*,#1555,.T.);
#1555 = EDGE_CURVE('',#922,#1556,#1558,.T.);
#1556 = VERTEX_POINT('',#1557);
#1557 = CARTESIAN_POINT('',(-1.25,10.5,10.7));
#1558 = CIRCLE('',#1559,1.25);
#1559 = AXIS2_PLACEMENT_3D('',#1560,#1561,#1562);
#1560 = CARTESIAN_POINT('',(0.,10.5,10.7));
#1561 = DIRECTION('',(0.,0.,-1.));
#1562 = DIRECTION('',(1.,0.,0.));
#1563 = ORIENTED_EDGE('',*,*,#1564,.F.);
#1564 = EDGE_CURVE('',#1523,#1556,#1565,.T.);
#1565 = LINE('',#1566,#1567);
#1566 = CARTESIAN_POINT('',(-1.25,10.5,9.2));
#1567 = VECTOR('',#1568,1.);
#1568 = DIRECTION('',(0.,0.,1.));
#1569 = CYLINDRICAL_SURFACE('',#1570,1.25);
#1570 = AXIS2_PLACEMENT_3D('',#1571,#1572,#1573);
#1571 = CARTESIAN_POINT('',(0.,10.5,9.2));
#1572 = DIRECTION('',(0.,0.,-1.));
#1573 = DIRECTION('',(1.,0.,0.));
#1574 = ADVANCED_FACE('',(#1575),#1592,.F.);
#1575 = FACE_BOUND('',#1576,.F.);
#1576 = EDGE_LOOP('',(#1577,#1583,#1584,#1585,#1591));
#1577 = ORIENTED_EDGE('',*,*,#1578,.F.);
#1578 = EDGE_CURVE('',#1556,#1364,#1579,.T.);
#1579 = LINE('',#1580,#1581);
#1580 = CARTESIAN_POINT('',(-1.25,10.5,10.7));
#1581 = VECTOR('',#1582,1.);
#1582 = DIRECTION('',(0.,1.,0.));
#1583 = ORIENTED_EDGE('',*,*,#1555,.F.);
#1584 = ORIENTED_EDGE('',*,*,#929,.F.);
#1585 = ORIENTED_EDGE('',*,*,#1586,.F.);
#1586 = EDGE_CURVE('',#1355,#930,#1587,.T.);
#1587 = LINE('',#1588,#1589);
#1588 = CARTESIAN_POINT('',(-0.32,13.,10.7));
#1589 = VECTOR('',#1590,1.);
#1590 = DIRECTION('',(0.,-1.,2.2E-16));
#1591 = ORIENTED_EDGE('',*,*,#1363,.F.);
#1592 = PLANE('',#1593);
#1593 = AXIS2_PLACEMENT_3D('',#1594,#1595,#1596);
#1594 = CARTESIAN_POINT('',(4.E-17,11.370548498949,10.7));
#1595 = DIRECTION('',(0.,0.,1.));
#1596 = DIRECTION('',(1.,0.,0.));
#1597 = ADVANCED_FACE('',(#1598),#1609,.F.);
#1598 = FACE_BOUND('',#1599,.F.);
#1599 = EDGE_LOOP('',(#1600,#1601,#1602,#1603));
#1600 = ORIENTED_EDGE('',*,*,#1354,.F.);
#1601 = ORIENTED_EDGE('',*,*,#1586,.T.);
#1602 = ORIENTED_EDGE('',*,*,#937,.T.);
#1603 = ORIENTED_EDGE('',*,*,#1604,.T.);
#1604 = EDGE_CURVE('',#938,#1347,#1605,.T.);
#1605 = LINE('',#1606,#1607);
#1606 = CARTESIAN_POINT('',(0.32,13.,10.7));
#1607 = VECTOR('',#1608,1.);
#1608 = DIRECTION('',(0.,1.,-2.2E-16));
#1609 = CYLINDRICAL_SURFACE('',#1610,0.32);
#1610 = AXIS2_PLACEMENT_3D('',#1611,#1612,#1613);
#1611 = CARTESIAN_POINT('',(0.,13.,10.7));
#1612 = DIRECTION('',(0.,1.,-2.2E-16));
#1613 = DIRECTION('',(-1.,0.,0.));
#1614 = ADVANCED_FACE('',(#1615),#1635,.F.);
#1615 = FACE_BOUND('',#1616,.F.);
#1616 = EDGE_LOOP('',(#1617,#1618,#1627,#1633,#1634));
#1617 = ORIENTED_EDGE('',*,*,#946,.F.);
#1618 = ORIENTED_EDGE('',*,*,#1619,.F.);
#1619 = EDGE_CURVE('',#1620,#947,#1622,.T.);
#1620 = VERTEX_POINT('',#1621);
#1621 = CARTESIAN_POINT('',(1.25,10.5,10.7));
#1622 = CIRCLE('',#1623,1.25);
#1623 = AXIS2_PLACEMENT_3D('',#1624,#1625,#1626);
#1624 = CARTESIAN_POINT('',(0.,10.5,10.7));
#1625 = DIRECTION('',(0.,0.,-1.));
#1626 = DIRECTION('',(1.,0.,0.));
#1627 = ORIENTED_EDGE('',*,*,#1628,.F.);
#1628 = EDGE_CURVE('',#1339,#1620,#1629,.T.);
#1629 = LINE('',#1630,#1631);
#1630 = CARTESIAN_POINT('',(1.25,13.,10.7));
#1631 = VECTOR('',#1632,1.);
#1632 = DIRECTION('',(0.,-1.,0.));
#1633 = ORIENTED_EDGE('',*,*,#1346,.F.);
#1634 = ORIENTED_EDGE('',*,*,#1604,.F.);
#1635 = PLANE('',#1636);
#1636 = AXIS2_PLACEMENT_3D('',#1637,#1638,#1639);
#1637 = CARTESIAN_POINT('',(4.E-17,11.370548498949,10.7));
#1638 = DIRECTION('',(0.,0.,1.));
#1639 = DIRECTION('',(1.,0.,0.));
#1640 = ADVANCED_FACE('',(#1641),#1660,.F.);
#1641 = FACE_BOUND('',#1642,.F.);
#1642 = EDGE_LOOP('',(#1643,#1652,#1658,#1659));
#1643 = ORIENTED_EDGE('',*,*,#1644,.F.);
#1644 = EDGE_CURVE('',#1645,#955,#1647,.T.);
#1645 = VERTEX_POINT('',#1646);
#1646 = CARTESIAN_POINT('',(1.25,10.5,9.2));
#1647 = CIRCLE('',#1648,1.25);
#1648 = AXIS2_PLACEMENT_3D('',#1649,#1650,#1651);
#1649 = CARTESIAN_POINT('',(0.,10.5,9.2));
#1650 = DIRECTION('',(0.,0.,-1.));
#1651 = DIRECTION('',(1.,0.,0.));
#1652 = ORIENTED_EDGE('',*,*,#1653,.T.);
#1653 = EDGE_CURVE('',#1645,#1620,#1654,.T.);
#1654 = LINE('',#1655,#1656);
#1655 = CARTESIAN_POINT('',(1.25,10.5,9.2));
#1656 = VECTOR('',#1657,1.);
#1657 = DIRECTION('',(0.,0.,1.));
#1658 = ORIENTED_EDGE('',*,*,#1619,.T.);
#1659 = ORIENTED_EDGE('',*,*,#954,.T.);
#1660 = CYLINDRICAL_SURFACE('',#1661,1.25);
#1661 = AXIS2_PLACEMENT_3D('',#1662,#1663,#1664);
#1662 = CARTESIAN_POINT('',(0.,10.5,9.2));
#1663 = DIRECTION('',(0.,0.,-1.));
#1664 = DIRECTION('',(1.,0.,0.));
#1665 = ADVANCED_FACE('',(#1666),#1684,.F.);
#1666 = FACE_BOUND('',#1667,.F.);
#1667 = EDGE_LOOP('',(#1668,#1669,#1675,#1676,#1682,#1683));
#1668 = ORIENTED_EDGE('',*,*,#1081,.F.);
#1669 = ORIENTED_EDGE('',*,*,#1670,.F.);
#1670 = EDGE_CURVE('',#1323,#1074,#1671,.T.);
#1671 = LINE('',#1672,#1673);
#1672 = CARTESIAN_POINT('',(1.5,13.,9.2));
#1673 = VECTOR('',#1674,1.);
#1674 = DIRECTION('',(0.,-1.,0.));
#1675 = ORIENTED_EDGE('',*,*,#1330,.F.);
#1676 = ORIENTED_EDGE('',*,*,#1677,.T.);
#1677 = EDGE_CURVE('',#1331,#1645,#1678,.T.);
#1678 = LINE('',#1679,#1680);
#1679 = CARTESIAN_POINT('',(1.25,13.,9.2));
#1680 = VECTOR('',#1681,1.);
#1681 = DIRECTION('',(0.,-1.,0.));
#1682 = ORIENTED_EDGE('',*,*,#1644,.T.);
#1683 = ORIENTED_EDGE('',*,*,#962,.F.);
#1684 = PLANE('',#1685);
#1685 = AXIS2_PLACEMENT_3D('',#1686,#1687,#1688);
#1686 = CARTESIAN_POINT('',(0.,11.288230854638,9.2));
#1687 = DIRECTION('',(0.,0.,1.));
#1688 = DIRECTION('',(1.,0.,0.));
#1689 = ADVANCED_FACE('',(#1690),#1730,.F.);
#1690 = FACE_BOUND('',#1691,.F.);
#1691 = EDGE_LOOP('',(#1692,#1703,#1709,#1710,#1716,#1717,#1723,#1724));
#1692 = ORIENTED_EDGE('',*,*,#1693,.F.);
#1693 = EDGE_CURVE('',#1694,#1696,#1698,.T.);
#1694 = VERTEX_POINT('',#1695);
#1695 = CARTESIAN_POINT('',(2.,10.500000000001,3.9));
#1696 = VERTEX_POINT('',#1697);
#1697 = CARTESIAN_POINT('',(-2.,10.500000000001,3.9));
#1698 = CIRCLE('',#1699,2.);
#1699 = AXIS2_PLACEMENT_3D('',#1700,#1701,#1702);
#1700 = CARTESIAN_POINT('',(0.,10.5,3.9));
#1701 = DIRECTION('',(0.,0.,-1.));
#1702 = DIRECTION('',(1.,0.,0.));
#1703 = ORIENTED_EDGE('',*,*,#1704,.F.);
#1704 = EDGE_CURVE('',#1307,#1694,#1705,.T.);
#1705 = LINE('',#1706,#1707);
#1706 = CARTESIAN_POINT('',(2.,13.,3.9));
#1707 = VECTOR('',#1708,1.);
#1708 = DIRECTION('',(0.,-1.,0.));
#1709 = ORIENTED_EDGE('',*,*,#1314,.F.);
#1710 = ORIENTED_EDGE('',*,*,#1711,.T.);
#1711 = EDGE_CURVE('',#1315,#1063,#1712,.T.);
#1712 = LINE('',#1713,#1714);
#1713 = CARTESIAN_POINT('',(1.5,13.,3.9));
#1714 = VECTOR('',#1715,1.);
#1715 = DIRECTION('',(0.,-1.,0.));
#1716 = ORIENTED_EDGE('',*,*,#1062,.T.);
#1717 = ORIENTED_EDGE('',*,*,#1718,.T.);
#1718 = EDGE_CURVE('',#1065,#1388,#1719,.T.);
#1719 = LINE('',#1720,#1721);
#1720 = CARTESIAN_POINT('',(-1.5,10.5,3.9));
#1721 = VECTOR('',#1722,1.);
#1722 = DIRECTION('',(0.,1.,0.));
#1723 = ORIENTED_EDGE('',*,*,#1395,.F.);
#1724 = ORIENTED_EDGE('',*,*,#1725,.F.);
#1725 = EDGE_CURVE('',#1696,#1396,#1726,.T.);
#1726 = LINE('',#1727,#1728);
#1727 = CARTESIAN_POINT('',(-2.,10.500000000001,3.9));
#1728 = VECTOR('',#1729,1.);
#1729 = DIRECTION('',(0.,1.,0.));
#1730 = PLANE('',#1731);
#1731 = AXIS2_PLACEMENT_3D('',#1732,#1733,#1734);
#1732 = CARTESIAN_POINT('',(0.,11.121453117982,3.9));
#1733 = DIRECTION('',(0.,0.,1.));
#1734 = DIRECTION('',(1.,0.,0.));
#1735 = ADVANCED_FACE('',(#1736),#1742,.F.);
#1736 = FACE_BOUND('',#1737,.F.);
#1737 = EDGE_LOOP('',(#1738,#1739,#1740,#1741));
#1738 = ORIENTED_EDGE('',*,*,#1100,.T.);
#1739 = ORIENTED_EDGE('',*,*,#1538,.T.);
#1740 = ORIENTED_EDGE('',*,*,#1387,.F.);
#1741 = ORIENTED_EDGE('',*,*,#1718,.F.);
#1742 = PLANE('',#1743);
#1743 = AXIS2_PLACEMENT_3D('',#1744,#1745,#1746);
#1744 = CARTESIAN_POINT('',(-1.5,10.5,3.9));
#1745 = DIRECTION('',(-1.,0.,0.));
#1746 = DIRECTION('',(0.,1.,0.));
#1747 = ADVANCED_FACE('',(#1748),#1754,.F.);
#1748 = FACE_BOUND('',#1749,.F.);
#1749 = EDGE_LOOP('',(#1750,#1751,#1752,#1753));
#1750 = ORIENTED_EDGE('',*,*,#1322,.T.);
#1751 = ORIENTED_EDGE('',*,*,#1670,.T.);
#1752 = ORIENTED_EDGE('',*,*,#1073,.F.);
#1753 = ORIENTED_EDGE('',*,*,#1711,.F.);
#1754 = PLANE('',#1755);
#1755 = AXIS2_PLACEMENT_3D('',#1756,#1757,#1758);
#1756 = CARTESIAN_POINT('',(1.5,13.,3.9));
#1757 = DIRECTION('',(1.,0.,0.));
#1758 = DIRECTION('',(0.,-1.,0.));
#1759 = ADVANCED_FACE('',(#1760),#1771,.F.);
#1760 = FACE_BOUND('',#1761,.F.);
#1761 = EDGE_LOOP('',(#1762,#1763,#1764,#1770));
#1762 = ORIENTED_EDGE('',*,*,#1193,.F.);
#1763 = ORIENTED_EDGE('',*,*,#1427,.T.);
#1764 = ORIENTED_EDGE('',*,*,#1765,.T.);
#1765 = EDGE_CURVE('',#1428,#1161,#1766,.T.);
#1766 = LINE('',#1767,#1768);
#1767 = CARTESIAN_POINT('',(5.000000000023,12.146446609419,
    16.553553390581));
#1768 = VECTOR('',#1769,1.);
#1769 = DIRECTION('',(-3.44026E-12,0.707106781187,-0.707106781187));
#1770 = ORIENTED_EDGE('',*,*,#1160,.F.);
#1771 = PLANE('',#1772);
#1772 = AXIS2_PLACEMENT_3D('',#1773,#1774,#1775);
#1773 = CARTESIAN_POINT('',(6.000000000023,11.585786437626,16.7));
#1774 = DIRECTION('',(-0.281084637716,-0.678598344546,-0.678598344545));
#1775 = DIRECTION('',(-0.923879532511,0.382683432365,9.132972156323E-13)
  );
#1776 = ADVANCED_FACE('',(#1777),#1783,.T.);
#1777 = FACE_BOUND('',#1778,.F.);
#1778 = EDGE_LOOP('',(#1779,#1780,#1781,#1782));
#1779 = ORIENTED_EDGE('',*,*,#1257,.T.);
#1780 = ORIENTED_EDGE('',*,*,#1282,.T.);
#1781 = ORIENTED_EDGE('',*,*,#1765,.F.);
#1782 = ORIENTED_EDGE('',*,*,#1435,.F.);
#1783 = PLANE('',#1784);
#1784 = AXIS2_PLACEMENT_3D('',#1785,#1786,#1787);
#1785 = CARTESIAN_POINT('',(-6.000000000021,12.5,16.2));
#1786 = DIRECTION('',(0.,0.707106781187,0.707106781187));
#1787 = DIRECTION('',(-1.,-0.,0.));
#1788 = ADVANCED_FACE('',(#1789),#1819,.T.);
#1789 = FACE_BOUND('',#1790,.T.);
#1790 = EDGE_LOOP('',(#1791,#1802,#1808,#1809,#1810,#1811,#1812,#1813));
#1791 = ORIENTED_EDGE('',*,*,#1792,.F.);
#1792 = EDGE_CURVE('',#1793,#1795,#1797,.T.);
#1793 = VERTEX_POINT('',#1794);
#1794 = CARTESIAN_POINT('',(2.,10.500000000001,0.8));
#1795 = VERTEX_POINT('',#1796);
#1796 = CARTESIAN_POINT('',(-2.,10.500000000001,0.8));
#1797 = CIRCLE('',#1798,2.);
#1798 = AXIS2_PLACEMENT_3D('',#1799,#1800,#1801);
#1799 = CARTESIAN_POINT('',(0.,10.5,0.8));
#1800 = DIRECTION('',(0.,0.,-1.));
#1801 = DIRECTION('',(1.,0.,0.));
#1802 = ORIENTED_EDGE('',*,*,#1803,.F.);
#1803 = EDGE_CURVE('',#1299,#1793,#1804,.T.);
#1804 = LINE('',#1805,#1806);
#1805 = CARTESIAN_POINT('',(2.,13.,0.8));
#1806 = VECTOR('',#1807,1.);
#1807 = DIRECTION('',(0.,-1.,0.));
#1808 = ORIENTED_EDGE('',*,*,#1298,.F.);
#1809 = ORIENTED_EDGE('',*,*,#1487,.F.);
#1810 = ORIENTED_EDGE('',*,*,#1504,.T.);
#1811 = ORIENTED_EDGE('',*,*,#1463,.T.);
#1812 = ORIENTED_EDGE('',*,*,#1411,.F.);
#1813 = ORIENTED_EDGE('',*,*,#1814,.F.);
#1814 = EDGE_CURVE('',#1795,#1404,#1815,.T.);
#1815 = LINE('',#1816,#1817);
#1816 = CARTESIAN_POINT('',(-2.,10.500000000001,0.8));
#1817 = VECTOR('',#1818,1.);
#1818 = DIRECTION('',(0.,1.,0.));
#1819 = PLANE('',#1820);
#1820 = AXIS2_PLACEMENT_3D('',#1821,#1822,#1823);
#1821 = CARTESIAN_POINT('',(0.,11.121453117982,0.8));
#1822 = DIRECTION('',(0.,0.,1.));
#1823 = DIRECTION('',(1.,0.,0.));
#1824 = ADVANCED_FACE('',(#1825),#1836,.F.);
#1825 = FACE_BOUND('',#1826,.F.);
#1826 = EDGE_LOOP('',(#1827,#1833,#1834,#1835));
#1827 = ORIENTED_EDGE('',*,*,#1828,.T.);
#1828 = EDGE_CURVE('',#1795,#1696,#1829,.T.);
#1829 = LINE('',#1830,#1831);
#1830 = CARTESIAN_POINT('',(-2.,10.500000000001,0.8));
#1831 = VECTOR('',#1832,1.);
#1832 = DIRECTION('',(0.,0.,1.));
#1833 = ORIENTED_EDGE('',*,*,#1725,.T.);
#1834 = ORIENTED_EDGE('',*,*,#1403,.F.);
#1835 = ORIENTED_EDGE('',*,*,#1814,.F.);
#1836 = PLANE('',#1837);
#1837 = AXIS2_PLACEMENT_3D('',#1838,#1839,#1840);
#1838 = CARTESIAN_POINT('',(-2.,10.500000000001,0.8));
#1839 = DIRECTION('',(-1.,0.,0.));
#1840 = DIRECTION('',(0.,1.,0.));
#1841 = ADVANCED_FACE('',(#1842),#1848,.F.);
#1842 = FACE_BOUND('',#1843,.F.);
#1843 = EDGE_LOOP('',(#1844,#1845,#1846,#1847));
#1844 = ORIENTED_EDGE('',*,*,#1564,.T.);
#1845 = ORIENTED_EDGE('',*,*,#1578,.T.);
#1846 = ORIENTED_EDGE('',*,*,#1371,.F.);
#1847 = ORIENTED_EDGE('',*,*,#1531,.F.);
#1848 = PLANE('',#1849);
#1849 = AXIS2_PLACEMENT_3D('',#1850,#1851,#1852);
#1850 = CARTESIAN_POINT('',(-1.25,10.5,9.2));
#1851 = DIRECTION('',(-1.,0.,0.));
#1852 = DIRECTION('',(0.,1.,0.));
#1853 = ADVANCED_FACE('',(#1854),#1865,.F.);
#1854 = FACE_BOUND('',#1855,.F.);
#1855 = EDGE_LOOP('',(#1856,#1857,#1858,#1864));
#1856 = ORIENTED_EDGE('',*,*,#1306,.T.);
#1857 = ORIENTED_EDGE('',*,*,#1704,.T.);
#1858 = ORIENTED_EDGE('',*,*,#1859,.F.);
#1859 = EDGE_CURVE('',#1793,#1694,#1860,.T.);
#1860 = LINE('',#1861,#1862);
#1861 = CARTESIAN_POINT('',(2.,10.500000000001,0.8));
#1862 = VECTOR('',#1863,1.);
#1863 = DIRECTION('',(0.,0.,1.));
#1864 = ORIENTED_EDGE('',*,*,#1803,.F.);
#1865 = PLANE('',#1866);
#1866 = AXIS2_PLACEMENT_3D('',#1867,#1868,#1869);
#1867 = CARTESIAN_POINT('',(2.,13.,0.8));
#1868 = DIRECTION('',(1.,0.,0.));
#1869 = DIRECTION('',(0.,-1.,0.));
#1870 = ADVANCED_FACE('',(#1871),#1877,.F.);
#1871 = FACE_BOUND('',#1872,.F.);
#1872 = EDGE_LOOP('',(#1873,#1874,#1875,#1876));
#1873 = ORIENTED_EDGE('',*,*,#1338,.T.);
#1874 = ORIENTED_EDGE('',*,*,#1628,.T.);
#1875 = ORIENTED_EDGE('',*,*,#1653,.F.);
#1876 = ORIENTED_EDGE('',*,*,#1677,.F.);
#1877 = PLANE('',#1878);
#1878 = AXIS2_PLACEMENT_3D('',#1879,#1880,#1881);
#1879 = CARTESIAN_POINT('',(1.25,13.,9.2));
#1880 = DIRECTION('',(1.,0.,0.));
#1881 = DIRECTION('',(0.,-1.,0.));
#1882 = ADVANCED_FACE('',(#1883),#1889,.F.);
#1883 = FACE_BOUND('',#1884,.F.);
#1884 = EDGE_LOOP('',(#1885,#1886,#1887,#1888));
#1885 = ORIENTED_EDGE('',*,*,#1859,.T.);
#1886 = ORIENTED_EDGE('',*,*,#1693,.T.);
#1887 = ORIENTED_EDGE('',*,*,#1828,.F.);
#1888 = ORIENTED_EDGE('',*,*,#1792,.F.);
#1889 = CYLINDRICAL_SURFACE('',#1890,2.);
#1890 = AXIS2_PLACEMENT_3D('',#1891,#1892,#1893);
#1891 = CARTESIAN_POINT('',(0.,10.5,0.8));
#1892 = DIRECTION('',(0.,0.,-1.));
#1893 = DIRECTION('',(1.,0.,0.));
#1894 = ( GEOMETRIC_REPRESENTATION_CONTEXT(3) 
GLOBAL_UNCERTAINTY_ASSIGNED_CONTEXT((#1898)) 
GLOBAL_UNIT_ASSIGNED_CONTEXT((#1895,#1896,#1897)) REPRESENTATION_CONTEXT
('Context #1','3D Context with UNIT and UNCERTAINTY') );
#1895 = ( LENGTH_UNIT() NAMED_UNIT(*) SI_UNIT(.MILLI.,.METRE.) );
#1896 = ( NAMED_UNIT(*) PLANE_ANGLE_UNIT() SI_UNIT($,.RADIAN.) );
#1897 = ( NAMED_UNIT(*) SI_UNIT($,.STERADIAN.) SOLID_ANGLE_UNIT() );
#1898 = UNCERTAINTY_MEASURE_WITH_UNIT(LENGTH_MEASURE(1.E-04),#1895,
  'distance_accuracy_value','confusion accuracy');
#1899 = PRODUCT_RELATED_PRODUCT_CATEGORY('part',$,(#7));
#1900 = MECHANICAL_DESIGN_GEOMETRIC_PRESENTATION_REPRESENTATION('',(
    #1901),#1894);
#1901 = STYLED_ITEM('color',(#1902),#15);
#1902 = PRESENTATION_STYLE_ASSIGNMENT((#1903,#1909));
#1903 = SURFACE_STYLE_USAGE(.BOTH.,#1904);
#1904 = SURFACE_SIDE_STYLE('',(#1905));
#1905 = SURFACE_STYLE_FILL_AREA(#1906);
#1906 = FILL_AREA_STYLE('',(#1907));
#1907 = FILL_AREA_STYLE_COLOUR('',#1908);
#1908 = COLOUR_RGB('',0.447058818107,0.474509808674,0.501960817233);
#1909 = CURVE_STYLE('',#1910,POSITIVE_LENGTH_MEASURE(0.1),#1911);
#1910 = DRAUGHTING_PRE_DEFINED_CURVE_FONT('continuous');
#1911 = COLOUR_RGB('',9.803921802644E-02,9.803921802644E-02,
  9.803921802644E-02);
ENDSEC;
END-ISO-10303-21;
