ISO-10303-21;
HEADER;
FILE_DESCRIPTION(('FreeCAD Model'),'2;1');
FILE_NAME('Open CASCADE Shape Model','2026-07-24T10:13:34',(''),(''),
  'Open CASCADE STEP processor 7.8','FreeCAD','Unknown');
FILE_SCHEMA(('AUTOMOTIVE_DESIGN { 1 0 10303 214 1 1 1 1 }'));
ENDSEC;
DATA;
#1 = APPLICATION_PROTOCOL_DEFINITION('international standard',
  'automotive_design',2000,#2);
#2 = APPLICATION_CONTEXT(
  'core data for automotive mechanical design processes');
#3 = SHAPE_DEFINITION_REPRESENTATION(#4,#10);
#4 = PRODUCT_DEFINITION_SHAPE('','',#5);
#5 = PRODUCT_DEFINITION('design','',#6,#9);
#6 = PRODUCT_DEFINITION_FORMATION('','',#7);
#7 = PRODUCT('Body','Body','',(#8));
#8 = PRODUCT_CONTEXT('',#2,'mechanical');
#9 = PRODUCT_DEFINITION_CONTEXT('part definition',#2,'design');
#10 = ADVANCED_BREP_SHAPE_REPRESENTATION('',(#11,#15),#600);
#11 = AXIS2_PLACEMENT_3D('',#12,#13,#14);
#12 = CARTESIAN_POINT('',(0.,0.,0.));
#13 = DIRECTION('',(0.,0.,1.));
#14 = DIRECTION('',(1.,0.,-0.));
#15 = MANIFOLD_SOLID_BREP('',#16);
#16 = CLOSED_SHELL('',(#17,#87,#157,#262,#284,#310,#415,#459,#482,#507,
    #519,#539,#559,#583));
#17 = ADVANCED_FACE('',(#18),#82,.T.);
#18 = FACE_BOUND('',#19,.T.);
#19 = EDGE_LOOP('',(#20,#30,#45,#53,#68,#76));
#20 = ORIENTED_EDGE('',*,*,#21,.T.);
#21 = EDGE_CURVE('',#22,#24,#26,.T.);
#22 = VERTEX_POINT('',#23);
#23 = CARTESIAN_POINT('',(-1.05260391411,-1.2,-1.205));
#24 = VERTEX_POINT('',#25);
#25 = CARTESIAN_POINT('',(-1.05260391411,6.905063580259,-1.205));
#26 = LINE('',#27,#28);
#27 = CARTESIAN_POINT('',(-1.05260391411,-1.2,-1.205));
#28 = VECTOR('',#29,1.);
#29 = DIRECTION('',(0.,1.,-2.2E-16));
#30 = ORIENTED_EDGE('',*,*,#31,.T.);
#31 = EDGE_CURVE('',#24,#32,#34,.T.);
#32 = VERTEX_POINT('',#33);
#33 = CARTESIAN_POINT('',(-1.05260391411,7.9,-0.319413531102));
#34 = B_SPLINE_CURVE_WITH_KNOTS('',9,(#35,#36,#37,#38,#39,#40,#41,#42,
    #43,#44),.UNSPECIFIED.,.F.,.F.,(10,10),(0.,1.),
  .PIECEWISE_BEZIER_KNOTS.);
#35 = CARTESIAN_POINT('',(-1.05260391411,6.905063580259,-1.205));
#36 = CARTESIAN_POINT('',(-1.05260391411,7.070347550458,-1.205));
#37 = CARTESIAN_POINT('',(-1.05260391411,7.235628000527,-1.182689843577)
  );
#38 = CARTESIAN_POINT('',(-1.05260391411,7.397485217046,-1.133747834674)
  );
#39 = CARTESIAN_POINT('',(-1.05260391411,7.550065900616,-1.054928691589)
  );
#40 = CARTESIAN_POINT('',(-1.05260391411,7.685357835581,-0.944808528588)
  );
#41 = CARTESIAN_POINT('',(-1.05260391411,7.79261154434,-0.806667979576)
  );
#42 = CARTESIAN_POINT('',(-1.05260391411,7.864767235993,-0.649983899394)
  );
#43 = CARTESIAN_POINT('',(-1.05260391411,7.9,-0.484696873964));
#44 = CARTESIAN_POINT('',(-1.05260391411,7.9,-0.319413531102));
#45 = ORIENTED_EDGE('',*,*,#46,.T.);
#46 = EDGE_CURVE('',#32,#47,#49,.T.);
#47 = VERTEX_POINT('',#48);
#48 = CARTESIAN_POINT('',(-1.05260391411,7.9,0.319413525073));
#49 = LINE('',#50,#51);
#50 = CARTESIAN_POINT('',(-1.05260391411,7.9,-1.205));
#51 = VECTOR('',#52,1.);
#52 = DIRECTION('',(0.,0.,1.));
#53 = ORIENTED_EDGE('',*,*,#54,.F.);
#54 = EDGE_CURVE('',#55,#47,#57,.T.);
#55 = VERTEX_POINT('',#56);
#56 = CARTESIAN_POINT('',(-1.05260391411,6.905063586235,1.205));
#57 = B_SPLINE_CURVE_WITH_KNOTS('',9,(#58,#59,#60,#61,#62,#63,#64,#65,
    #66,#67),.UNSPECIFIED.,.F.,.F.,(10,10),(0.,1.),
  .PIECEWISE_BEZIER_KNOTS.);
#58 = CARTESIAN_POINT('',(-1.05260391411,6.905063586235,1.205));
#59 = CARTESIAN_POINT('',(-1.05260391411,7.070347556362,1.205));
#60 = CARTESIAN_POINT('',(-1.05260391411,7.23562800636,1.182689842858));
#61 = CARTESIAN_POINT('',(-1.05260391411,7.397485222581,1.133747832685)
  );
#62 = CARTESIAN_POINT('',(-1.05260391411,7.550065905434,1.054928688046)
  );
#63 = CARTESIAN_POINT('',(-1.05260391411,7.685357839134,0.944808523555)
  );
#64 = CARTESIAN_POINT('',(-1.05260391411,7.792611546325,0.806667973671)
  );
#65 = CARTESIAN_POINT('',(-1.05260391411,7.864767236694,0.649983893223)
  );
#66 = CARTESIAN_POINT('',(-1.05260391411,7.9,0.484696867864));
#67 = CARTESIAN_POINT('',(-1.05260391411,7.9,0.319413525073));
#68 = ORIENTED_EDGE('',*,*,#69,.F.);
#69 = EDGE_CURVE('',#70,#55,#72,.T.);
#70 = VERTEX_POINT('',#71);
#71 = CARTESIAN_POINT('',(-1.05260391411,-1.2,1.205));
#72 = LINE('',#73,#74);
#73 = CARTESIAN_POINT('',(-1.05260391411,-1.2,1.205));
#74 = VECTOR('',#75,1.);
#75 = DIRECTION('',(0.,1.,-2.2E-16));
#76 = ORIENTED_EDGE('',*,*,#77,.F.);
#77 = EDGE_CURVE('',#22,#70,#78,.T.);
#78 = LINE('',#79,#80);
#79 = CARTESIAN_POINT('',(-1.05260391411,-1.2,-1.205));
#80 = VECTOR('',#81,1.);
#81 = DIRECTION('',(0.,0.,1.));
#82 = PLANE('',#83);
#83 = AXIS2_PLACEMENT_3D('',#84,#85,#86);
#84 = CARTESIAN_POINT('',(-1.05260391411,-1.2,-1.205));
#85 = DIRECTION('',(1.,0.,0.));
#86 = DIRECTION('',(0.,2.2E-16,1.));
#87 = ADVANCED_FACE('',(#88),#152,.F.);
#88 = FACE_BOUND('',#89,.F.);
#89 = EDGE_LOOP('',(#90,#91,#100,#107,#108,#122,#131,#140));
#90 = ORIENTED_EDGE('',*,*,#69,.F.);
#91 = ORIENTED_EDGE('',*,*,#92,.F.);
#92 = EDGE_CURVE('',#93,#70,#95,.T.);
#93 = VERTEX_POINT('',#94);
#94 = CARTESIAN_POINT('',(1.6,-1.2,0.));
#95 = CIRCLE('',#96,1.6);
#96 = AXIS2_PLACEMENT_3D('',#97,#98,#99);
#97 = CARTESIAN_POINT('',(0.,-1.2,0.));
#98 = DIRECTION('',(0.,-1.,0.));
#99 = DIRECTION('',(1.,0.,0.));
#100 = ORIENTED_EDGE('',*,*,#101,.F.);
#101 = EDGE_CURVE('',#22,#93,#102,.T.);
#102 = CIRCLE('',#103,1.6);
#103 = AXIS2_PLACEMENT_3D('',#104,#105,#106);
#104 = CARTESIAN_POINT('',(0.,-1.2,0.));
#105 = DIRECTION('',(0.,-1.,0.));
#106 = DIRECTION('',(1.,0.,0.));
#107 = ORIENTED_EDGE('',*,*,#21,.T.);
#108 = ORIENTED_EDGE('',*,*,#109,.F.);
#109 = EDGE_CURVE('',#110,#24,#112,.T.);
#110 = VERTEX_POINT('',#111);
#111 = CARTESIAN_POINT('',(-0.153620075552,7.9,-1.592608198016));
#112 = B_SPLINE_CURVE_WITH_KNOTS('',8,(#113,#114,#115,#116,#117,#118,
    #119,#120,#121),.UNSPECIFIED.,.F.,.F.,(9,9),(0.,1.),
  .PIECEWISE_BEZIER_KNOTS.);
#113 = CARTESIAN_POINT('',(-0.153620075552,7.9,-1.592608198016));
#114 = CARTESIAN_POINT('',(-0.416022927231,7.9,-1.567297298606));
#115 = CARTESIAN_POINT('',(-0.673551071931,7.840423174415,
    -1.493407246361));
#116 = CARTESIAN_POINT('',(-0.876631085518,7.720476474867,-1.36929557393
    ));
#117 = CARTESIAN_POINT('',(-0.968308773646,7.561656138609,
    -1.269729426048));
#118 = CARTESIAN_POINT('',(-1.029425980248,7.399847543753,
    -1.229034699254));
#119 = CARTESIAN_POINT('',(-1.049149325456,7.234471201704,-1.20720397688
    ));
#120 = CARTESIAN_POINT('',(-1.05260391411,7.069823502583,-1.205));
#121 = CARTESIAN_POINT('',(-1.05260391411,6.905063580259,-1.205));
#122 = ORIENTED_EDGE('',*,*,#123,.T.);
#123 = EDGE_CURVE('',#110,#124,#126,.T.);
#124 = VERTEX_POINT('',#125);
#125 = CARTESIAN_POINT('',(1.6,7.9,-2.E-15));
#126 = CIRCLE('',#127,1.6);
#127 = AXIS2_PLACEMENT_3D('',#128,#129,#130);
#128 = CARTESIAN_POINT('',(0.,7.9,-2.02E-15));
#129 = DIRECTION('',(0.,-1.,2.2E-16));
#130 = DIRECTION('',(1.,0.,0.));
#131 = ORIENTED_EDGE('',*,*,#132,.T.);
#132 = EDGE_CURVE('',#124,#133,#135,.T.);
#133 = VERTEX_POINT('',#134);
#134 = CARTESIAN_POINT('',(-0.1536200815,7.9,1.592608197442));
#135 = CIRCLE('',#136,1.6);
#136 = AXIS2_PLACEMENT_3D('',#137,#138,#139);
#137 = CARTESIAN_POINT('',(0.,7.9,-2.02E-15));
#138 = DIRECTION('',(0.,-1.,2.2E-16));
#139 = DIRECTION('',(1.,0.,0.));
#140 = ORIENTED_EDGE('',*,*,#141,.T.);
#141 = EDGE_CURVE('',#133,#55,#142,.T.);
#142 = B_SPLINE_CURVE_WITH_KNOTS('',8,(#143,#144,#145,#146,#147,#148,
    #149,#150,#151),.UNSPECIFIED.,.F.,.F.,(9,9),(0.,1.),
  .PIECEWISE_BEZIER_KNOTS.);
#143 = CARTESIAN_POINT('',(-0.1536200815,7.9,1.592608197442));
#144 = CARTESIAN_POINT('',(-0.416022931508,7.9,1.567297297204));
#145 = CARTESIAN_POINT('',(-0.673551074412,7.840423174772,1.493407244731
    ));
#146 = CARTESIAN_POINT('',(-0.876631086508,7.720476475946,1.369295572912
    ));
#147 = CARTESIAN_POINT('',(-0.968308774191,7.561656140641,1.269729425697
    ));
#148 = CARTESIAN_POINT('',(-1.029425980374,7.399847546757,1.22903469909)
  );
#149 = CARTESIAN_POINT('',(-1.049149325479,7.234471205701,1.207203976872
    ));
#150 = CARTESIAN_POINT('',(-1.05260391411,7.069823507569,1.205));
#151 = CARTESIAN_POINT('',(-1.05260391411,6.905063586235,1.205));
#152 = CYLINDRICAL_SURFACE('',#153,1.6);
#153 = AXIS2_PLACEMENT_3D('',#154,#155,#156);
#154 = CARTESIAN_POINT('',(0.,-1.2,0.));
#155 = DIRECTION('',(0.,-1.,2.2E-16));
#156 = DIRECTION('',(1.,0.,0.));
#157 = ADVANCED_FACE('',(#158),#180,.F.);
#158 = FACE_BOUND('',#159,.F.);
#159 = EDGE_LOOP('',(#160,#167,#178,#179));
#160 = ORIENTED_EDGE('',*,*,#161,.T.);
#161 = EDGE_CURVE('',#32,#162,#164,.T.);
#162 = VERTEX_POINT('',#163);
#163 = CARTESIAN_POINT('',(-1.457745406727,8.394095118322,
    -0.442354037355));
#164 = B_SPLINE_CURVE_WITH_KNOTS('',1,(#165,#166),.UNSPECIFIED.,.F.,.F.,
  (2,2),(0.,0.471391473346),.PIECEWISE_BEZIER_KNOTS.);
#165 = CARTESIAN_POINT('',(-1.05260391411,7.9,-0.319413531102));
#166 = CARTESIAN_POINT('',(-1.457745406727,8.394095118322,
    -0.442354037355));
#167 = ORIENTED_EDGE('',*,*,#168,.T.);
#168 = EDGE_CURVE('',#162,#110,#169,.T.);
#169 = B_SPLINE_CURVE_WITH_KNOTS('',7,(#170,#171,#172,#173,#174,#175,
    #176,#177),.UNSPECIFIED.,.F.,.F.,(8,8),(0.,1.),
  .PIECEWISE_BEZIER_KNOTS.);
#170 = CARTESIAN_POINT('',(-1.457745406727,8.394095118322,
    -0.442354037355));
#171 = CARTESIAN_POINT('',(-1.375428914589,8.394095117212,
    -0.713622022815));
#172 = CARTESIAN_POINT('',(-1.244664157937,8.322039367285,
    -0.970166028024));
#173 = CARTESIAN_POINT('',(-1.080943686236,8.202415099238,
    -1.153227324721));
#174 = CARTESIAN_POINT('',(-0.935770341336,8.091680017026,
    -1.294065043557));
#175 = CARTESIAN_POINT('',(-0.739898007185,7.972055749133,
    -1.459316899864));
#176 = CARTESIAN_POINT('',(-0.449984320933,7.9,-1.564021444649));
#177 = CARTESIAN_POINT('',(-0.153620075552,7.9,-1.592608198016));
#178 = ORIENTED_EDGE('',*,*,#109,.T.);
#179 = ORIENTED_EDGE('',*,*,#31,.T.);
#180 = B_SPLINE_SURFACE_WITH_KNOTS('',8,8,(
    (#181,#182,#183,#184,#185,#186,#187,#188,#189)
    ,(#190,#191,#192,#193,#194,#195,#196,#197,#198)
    ,(#199,#200,#201,#202,#203,#204,#205,#206,#207)
    ,(#208,#209,#210,#211,#212,#213,#214,#215,#216)
    ,(#217,#218,#219,#220,#221,#222,#223,#224,#225)
    ,(#226,#227,#228,#229,#230,#231,#232,#233,#234)
    ,(#235,#236,#237,#238,#239,#240,#241,#242,#243)
    ,(#244,#245,#246,#247,#248,#249,#250,#251,#252)
    ,(#253,#254,#255,#256,#257,#258,#259,#260,#261
  )),.UNSPECIFIED.,.F.,.F.,.F.,(9,9),(9,9),(-0.910477850759,
    0.942245153609),(-0.681455204827,0.489243439613),
  .PIECEWISE_BEZIER_KNOTS.);
#181 = CARTESIAN_POINT('',(-0.989223846376,6.702886161627,
    -1.387437510954));
#182 = CARTESIAN_POINT('',(-0.946350864484,6.833888466896,
    -1.452936618065));
#183 = CARTESIAN_POINT('',(-0.885321825405,6.969844411805,
    -1.509887747218));
#184 = CARTESIAN_POINT('',(-0.752486928527,7.125779785511,
    -1.535126309238));
#185 = CARTESIAN_POINT('',(-0.657145903565,7.271039322029,
    -1.575468147494));
#186 = CARTESIAN_POINT('',(-0.438279500715,7.44876279616,-1.565627169787
    ));
#187 = CARTESIAN_POINT('',(-0.320815516893,7.600131416605,
    -1.596913686525));
#188 = CARTESIAN_POINT('',(-0.15259831128,7.764583517381,-1.608164979581
    ));
#189 = CARTESIAN_POINT('',(5.827684256668E-02,7.940308002314,
    -1.602812799619));
#190 = CARTESIAN_POINT('',(-1.086013887589,6.824551074951,-1.2150070442)
  );
#191 = CARTESIAN_POINT('',(-1.078645031182,6.945986198384,
    -1.296360943426));
#192 = CARTESIAN_POINT('',(-1.06176329748,7.06994945184,-1.373123662745)
  );
#193 = CARTESIAN_POINT('',(-0.956033379465,7.218995575057,
    -1.409483268722));
#194 = CARTESIAN_POINT('',(-0.910404850106,7.350344559144,
    -1.474899724257));
#195 = CARTESIAN_POINT('',(-0.740326024621,7.515271770666,
    -1.482550903789));
#196 = CARTESIAN_POINT('',(-0.622440415913,7.666501395601,
    -1.518041594176));
#197 = CARTESIAN_POINT('',(-0.559031592111,7.803132206659,
    -1.572798482698));
#198 = CARTESIAN_POINT('',(-0.395792318958,7.966221088713,
    -1.587057163731));
#199 = CARTESIAN_POINT('',(-1.101267964007,6.967811493966,
    -1.006031599242));
#200 = CARTESIAN_POINT('',(-1.120727549358,7.082023459397,
    -1.099257811795));
#201 = CARTESIAN_POINT('',(-1.086204028836,7.209978859741,-1.17187086576
    ));
#202 = CARTESIAN_POINT('',(-1.261751187239,7.286932546657,
    -1.313226075807));
#203 = CARTESIAN_POINT('',(-0.77703752476,7.530900304322,-1.233923164244
    ));
#204 = CARTESIAN_POINT('',(-1.182184001084,7.545218782215,
    -1.430345689325));
#205 = CARTESIAN_POINT('',(-0.740710389016,7.781155401908,
    -1.373531501691));
#206 = CARTESIAN_POINT('',(-0.774480377599,7.892329316334,
    -1.453200971605));
#207 = CARTESIAN_POINT('',(-0.701398854255,8.031615983523,
    -1.503684819031));
#208 = CARTESIAN_POINT('',(-1.061027592117,7.125888626976,
    -0.772096484877));
#209 = CARTESIAN_POINT('',(-1.104048319869,7.234029197711,
    -0.875374753942));
#210 = CARTESIAN_POINT('',(-1.273122272857,7.309966891348,
    -1.031828623259));
#211 = CARTESIAN_POINT('',(-0.894327737017,7.518545623225,
    -0.982913136891));
#212 = CARTESIAN_POINT('',(-1.389448687807,7.520611559545,
    -1.198792355561));
#213 = CARTESIAN_POINT('',(-0.845517487146,7.777537990155,
    -1.159034771047));
#214 = CARTESIAN_POINT('',(-1.128525886234,7.825960618461,
    -1.277397197367));
#215 = CARTESIAN_POINT('',(-0.835198144378,8.022933541039,
    -1.262382514756));
#216 = CARTESIAN_POINT('',(-0.776710878729,8.158117329324,-1.32337591219
    ));
#217 = CARTESIAN_POINT('',(-0.955519268406,7.299196404571,
    -0.512573791464));
#218 = CARTESIAN_POINT('',(-1.004218440351,7.404961098555,
    -0.618964349158));
#219 = CARTESIAN_POINT('',(-0.820989406396,7.571549671578,
    -0.625611473142));
#220 = CARTESIAN_POINT('',(-1.799811570899,7.437442975133,
    -1.104986505348));
#221 = CARTESIAN_POINT('',(-1.009951025507,7.768282943781,
    -0.924351094415));
#222 = CARTESIAN_POINT('',(-1.016844005182,7.879623341346,
    -0.909099074814));
#223 = CARTESIAN_POINT('',(-0.997007821256,8.007186740333,
    -1.063631511046));
#224 = CARTESIAN_POINT('',(-1.182743250505,8.076915147614,
    -1.203844448473));
#225 = CARTESIAN_POINT('',(-1.135268403589,8.209347907763,
    -1.265889192405));
#226 = CARTESIAN_POINT('',(-0.824072201415,7.481286837688,
    -0.239317860561));
#227 = CARTESIAN_POINT('',(-0.824333215909,7.60076389392,-0.323850542192
    ));
#228 = CARTESIAN_POINT('',(-1.016217979442,7.670155167161,
    -0.490998969453));
#229 = CARTESIAN_POINT('',(-1.166629425881E-03,8.056692243684,
    -0.150783639756));
#230 = CARTESIAN_POINT('',(-1.003581978039,7.906267700723,
    -0.628908292941));
#231 = CARTESIAN_POINT('',(-1.287121336372,7.960099314032,-0.89100945142
    ));
#232 = CARTESIAN_POINT('',(-1.11840338195,8.119723857496,-0.860607036348
    ));
#233 = CARTESIAN_POINT('',(-1.093583395399,8.247337793257,
    -0.945598914979));
#234 = CARTESIAN_POINT('',(-1.128383821802,8.357797365888,
    -1.046289764412));
#235 = CARTESIAN_POINT('',(-0.863179061433,7.616902247914,
    -4.240296502337E-02));
#236 = CARTESIAN_POINT('',(-0.928709656566,7.718697192429,
    -0.155772478675));
#237 = CARTESIAN_POINT('',(-0.968795090864,7.827065385765,
    -0.258254378411));
#238 = CARTESIAN_POINT('',(-1.066871970396,7.922230540457,
    -0.381197344785));
#239 = CARTESIAN_POINT('',(-1.391455204485,7.956678248243,-0.61570259885
    ));
#240 = CARTESIAN_POINT('',(-1.021471953916,8.17193990371,-0.527296829421
    ));
#241 = CARTESIAN_POINT('',(-1.263290275236,8.229318356682,
    -0.726183944942));
#242 = CARTESIAN_POINT('',(-1.303258077191,8.338006465086,
    -0.825006824458));
#243 = CARTESIAN_POINT('',(-1.338156414536,8.448517254754,
    -0.924543073355));
#244 = CARTESIAN_POINT('',(-0.896276239986,7.754605916288,0.157830244237
    ));
#245 = CARTESIAN_POINT('',(-0.992325461398,7.848430785317,
    3.130307402571E-02));
#246 = CARTESIAN_POINT('',(-1.087965908424,7.94251858991,
    -9.500927779692E-02));
#247 = CARTESIAN_POINT('',(-1.137690846423,8.04931201896,-0.201053113364
    ));
#248 = CARTESIAN_POINT('',(-1.382738856948,8.104458850455,
    -0.391452612979));
#249 = CARTESIAN_POINT('',(-1.246842820023,8.259635888926,
    -0.417230532906));
#250 = CARTESIAN_POINT('',(-1.379944337432,8.344542688513,
    -0.558984436715));
#251 = CARTESIAN_POINT('',(-1.431598949278,8.450510542553,
    -0.665808696857));
#252 = CARTESIAN_POINT('',(-1.491554047084,8.554338339846,
    -0.776589708412));
#253 = CARTESIAN_POINT('',(-0.941819468286,7.888954827915,0.352522797651
    ));
#254 = CARTESIAN_POINT('',(-1.070368188725,7.97419096774,0.211888622464)
  );
#255 = CARTESIAN_POINT('',(-1.192938368671,8.061191292688,
    7.390468959641E-02));
#256 = CARTESIAN_POINT('',(-1.292892900244,8.154580261629,
    -5.400891958066E-02));
#257 = CARTESIAN_POINT('',(-1.467717479152,8.228220852386,-0.21407208809
    ));
#258 = CARTESIAN_POINT('',(-1.420094911032,8.36032009278,-0.27797906159)
  );
#259 = CARTESIAN_POINT('',(-1.526484013867,8.452079809901,
    -0.408249526867));
#260 = CARTESIAN_POINT('',(-1.596073382647,8.553331329238,-0.52291563698
    ));
#261 = CARTESIAN_POINT('',(-1.671538875552,8.653032888478,
    -0.640498641878));
#262 = ADVANCED_FACE('',(#263,#274),#279,.T.);
#263 = FACE_BOUND('',#264,.T.);
#264 = EDGE_LOOP('',(#265));
#265 = ORIENTED_EDGE('',*,*,#266,.T.);
#266 = EDGE_CURVE('',#267,#267,#269,.T.);
#267 = VERTEX_POINT('',#268);
#268 = CARTESIAN_POINT('',(4.1,-1.2,0.));
#269 = CIRCLE('',#270,4.1);
#270 = AXIS2_PLACEMENT_3D('',#271,#272,#273);
#271 = CARTESIAN_POINT('',(0.,-1.2,0.));
#272 = DIRECTION('',(0.,-1.,0.));
#273 = DIRECTION('',(1.,0.,0.));
#274 = FACE_BOUND('',#275,.T.);
#275 = EDGE_LOOP('',(#276,#277,#278));
#276 = ORIENTED_EDGE('',*,*,#101,.F.);
#277 = ORIENTED_EDGE('',*,*,#77,.T.);
#278 = ORIENTED_EDGE('',*,*,#92,.F.);
#279 = PLANE('',#280);
#280 = AXIS2_PLACEMENT_3D('',#281,#282,#283);
#281 = CARTESIAN_POINT('',(-1.7E-16,-1.2,5.4E-16));
#282 = DIRECTION('',(0.,-1.,2.5E-16));
#283 = DIRECTION('',(0.,-2.5E-16,-1.));
#284 = ADVANCED_FACE('',(#285),#305,.T.);
#285 = FACE_BOUND('',#286,.T.);
#286 = EDGE_LOOP('',(#287,#288,#298));
#287 = ORIENTED_EDGE('',*,*,#46,.F.);
#288 = ORIENTED_EDGE('',*,*,#289,.F.);
#289 = EDGE_CURVE('',#290,#32,#292,.T.);
#290 = VERTEX_POINT('',#291);
#291 = CARTESIAN_POINT('',(-1.1,7.9,-1.E-15));
#292 = B_SPLINE_CURVE_WITH_KNOTS('',4,(#293,#294,#295,#296,#297),
  .UNSPECIFIED.,.F.,.F.,(5,5),(1.364479001596,1.835870474942),
  .PIECEWISE_BEZIER_KNOTS.);
#293 = CARTESIAN_POINT('',(-1.1,7.9,4.746E-14));
#294 = CARTESIAN_POINT('',(-1.1,7.9,-8.102039986812E-02));
#295 = CARTESIAN_POINT('',(-1.092043054365,7.9,-0.162042500649));
#296 = CARTESIAN_POINT('',(-1.076130291652,7.9,-0.241884065807));
#297 = CARTESIAN_POINT('',(-1.05260391411,7.9,-0.319413531102));
#298 = ORIENTED_EDGE('',*,*,#299,.F.);
#299 = EDGE_CURVE('',#47,#290,#300,.T.);
#300 = CIRCLE('',#301,1.1);
#301 = AXIS2_PLACEMENT_3D('',#302,#303,#304);
#302 = CARTESIAN_POINT('',(0.,7.9,-1.75E-15));
#303 = DIRECTION('',(-0.,-1.,0.));
#304 = DIRECTION('',(-0.657877446319,0.,0.753125));
#305 = PLANE('',#306);
#306 = AXIS2_PLACEMENT_3D('',#307,#308,#309);
#307 = CARTESIAN_POINT('',(-1.326301957055,7.9,-1.08E-15));
#308 = DIRECTION('',(0.,1.,0.));
#309 = DIRECTION('',(0.,0.,1.));
#310 = ADVANCED_FACE('',(#311),#333,.F.);
#311 = FACE_BOUND('',#312,.F.);
#312 = EDGE_LOOP('',(#313,#320,#321,#322));
#313 = ORIENTED_EDGE('',*,*,#314,.F.);
#314 = EDGE_CURVE('',#47,#315,#317,.T.);
#315 = VERTEX_POINT('',#316);
#316 = CARTESIAN_POINT('',(-1.457745404608,8.394095118587,0.442354044197
    ));
#317 = B_SPLINE_CURVE_WITH_KNOTS('',1,(#318,#319),.UNSPECIFIED.,.F.,.F.,
  (2,2),(0.,0.650679632981),.PIECEWISE_BEZIER_KNOTS.);
#318 = CARTESIAN_POINT('',(-1.05260391411,7.9,0.319413525073));
#319 = CARTESIAN_POINT('',(-1.457745404608,8.394095118587,0.442354044197
    ));
#320 = ORIENTED_EDGE('',*,*,#54,.F.);
#321 = ORIENTED_EDGE('',*,*,#141,.F.);
#322 = ORIENTED_EDGE('',*,*,#323,.F.);
#323 = EDGE_CURVE('',#315,#133,#324,.T.);
#324 = B_SPLINE_CURVE_WITH_KNOTS('',7,(#325,#326,#327,#328,#329,#330,
    #331,#332),.UNSPECIFIED.,.F.,.F.,(8,8),(0.,1.),
  .PIECEWISE_BEZIER_KNOTS.);
#325 = CARTESIAN_POINT('',(-1.457745404608,8.394095118587,0.442354044197
    ));
#326 = CARTESIAN_POINT('',(-1.375428911485,8.394095118587,0.71362202772)
  );
#327 = CARTESIAN_POINT('',(-1.244664154474,8.322039369017,0.970166031573
    ));
#328 = CARTESIAN_POINT('',(-1.080943683459,8.202415100378,1.153227326054
    ));
#329 = CARTESIAN_POINT('',(-0.935770340685,8.091680018209,1.294065042685
    ));
#330 = CARTESIAN_POINT('',(-0.739898009439,7.972055749569,1.459316898023
    ));
#331 = CARTESIAN_POINT('',(-0.449984325144,7.9,1.564021443126));
#332 = CARTESIAN_POINT('',(-0.1536200815,7.9,1.592608197442));
#333 = B_SPLINE_SURFACE_WITH_KNOTS('',8,8,(
    (#334,#335,#336,#337,#338,#339,#340,#341,#342)
    ,(#343,#344,#345,#346,#347,#348,#349,#350,#351)
    ,(#352,#353,#354,#355,#356,#357,#358,#359,#360)
    ,(#361,#362,#363,#364,#365,#366,#367,#368,#369)
    ,(#370,#371,#372,#373,#374,#375,#376,#377,#378)
    ,(#379,#380,#381,#382,#383,#384,#385,#386,#387)
    ,(#388,#389,#390,#391,#392,#393,#394,#395,#396)
    ,(#397,#398,#399,#400,#401,#402,#403,#404,#405)
    ,(#406,#407,#408,#409,#410,#411,#412,#413,#414
  )),.UNSPECIFIED.,.F.,.F.,.F.,(9,9),(9,9),(-0.942245145121,
    0.910477848677),(-0.681455202153,0.489243435455),
  .PIECEWISE_BEZIER_KNOTS.);
#334 = CARTESIAN_POINT('',(-0.941819461432,7.888954824962,
    -0.352522791872));
#335 = CARTESIAN_POINT('',(-1.070368186361,7.974190963052,
    -0.211888614586));
#336 = CARTESIAN_POINT('',(-1.192938365555,8.061191287978,
    -7.390468313363E-02));
#337 = CARTESIAN_POINT('',(-1.29289290053,8.154580255148,
    5.400892817074E-02));
#338 = CARTESIAN_POINT('',(-1.467717462579,8.228220850993,0.214072084372
    ));
#339 = CARTESIAN_POINT('',(-1.420094913225,8.360320085207,0.277979068597
    ));
#340 = CARTESIAN_POINT('',(-1.526484006429,8.452079804796,0.40824952716)
  );
#341 = CARTESIAN_POINT('',(-1.596073375844,8.553331323551,0.522915636769
    ));
#342 = CARTESIAN_POINT('',(-1.671538868001,8.653032882642,0.64049864021)
  );
#343 = CARTESIAN_POINT('',(-0.896276232966,7.754605914726,
    -0.157830239447));
#344 = CARTESIAN_POINT('',(-0.992325459487,7.848430781808,
    -3.13030667408E-02));
#345 = CARTESIAN_POINT('',(-1.087965906473,7.942518586132,
    9.500928409628E-02));
#346 = CARTESIAN_POINT('',(-1.13769084757,8.049312013449,0.201053121852)
  );
#347 = CARTESIAN_POINT('',(-1.382738834699,8.104458852008,0.391452605122
    ));
#348 = CARTESIAN_POINT('',(-1.246842829139,8.259635880547,0.417230543207
    ));
#349 = CARTESIAN_POINT('',(-1.379944328238,8.344542685145,0.558984435276
    ));
#350 = CARTESIAN_POINT('',(-1.431598942803,8.450510537985,0.66580869613)
  );
#351 = CARTESIAN_POINT('',(-1.491554040105,8.554338335044,0.776589706373
    ));
#352 = CARTESIAN_POINT('',(-0.86317905489,7.616902247618,
    4.240296890131E-02));
#353 = CARTESIAN_POINT('',(-0.928709656891,7.718697189637,0.15577248616)
  );
#354 = CARTESIAN_POINT('',(-0.968795092108,7.827065382438,0.258254386356
    ));
#355 = CARTESIAN_POINT('',(-1.066871956757,7.922230540096,0.381197342921
    ));
#356 = CARTESIAN_POINT('',(-1.391455174861,7.956678253492,0.615702589414
    ));
#357 = CARTESIAN_POINT('',(-1.021471976222,8.171939892633,0.527296843298
    ));
#358 = CARTESIAN_POINT('',(-1.263290260101,8.229318356226,0.726183940408
    ));
#359 = CARTESIAN_POINT('',(-1.303258071601,8.338006461584,0.82500682328)
  );
#360 = CARTESIAN_POINT('',(-1.338156408825,8.448517250871,0.924543071116
    ));
#361 = CARTESIAN_POINT('',(-0.82407219227,7.481286839611,0.239317861574)
  );
#362 = CARTESIAN_POINT('',(-0.824333210766,7.600763894217,0.323850544743
    ));
#363 = CARTESIAN_POINT('',(-1.016218007482,7.670155156364,0.49099899149)
  );
#364 = CARTESIAN_POINT('',(-1.166615192207E-03,8.056692247131,
    0.150783634462));
#365 = CARTESIAN_POINT('',(-1.003582071959,7.906267670105,0.628908343741
    ));
#366 = CARTESIAN_POINT('',(-1.287121251754,7.960099335889,0.891009412047
    ));
#367 = CARTESIAN_POINT('',(-1.118403406878,8.119723847182,0.860607049877
    ));
#368 = CARTESIAN_POINT('',(-1.093583392423,8.247337790134,0.945598914291
    ));
#369 = CARTESIAN_POINT('',(-1.128383818807,8.357797362372,1.046289762746
    ));
#370 = CARTESIAN_POINT('',(-0.955519266789,7.299196405827,0.512573795454
    ));
#371 = CARTESIAN_POINT('',(-1.004218452904,7.404961095189,0.618964360868
    ));
#372 = CARTESIAN_POINT('',(-0.820989346946,7.571549690062,0.625611440205
    ));
#373 = CARTESIAN_POINT('',(-1.799811673347,7.43744294371,1.1049865636));
#374 = CARTESIAN_POINT('',(-1.009950897137,7.768282980958,0.924351029709
    ));
#375 = CARTESIAN_POINT('',(-1.016844095008,7.879623313533,0.909099120711
    ));
#376 = CARTESIAN_POINT('',(-0.997007791587,8.007186746539,1.06363149694)
  );
#377 = CARTESIAN_POINT('',(-1.18274325041,8.0769151454,1.203844447733));
#378 = CARTESIAN_POINT('',(-1.135268403431,8.209347905036,1.265889190884
    ));
#379 = CARTESIAN_POINT('',(-1.061027576884,7.125888633735,0.772096479788
    ));
#380 = CARTESIAN_POINT('',(-1.104048308362,7.234029202893,0.875374750514
    ));
#381 = CARTESIAN_POINT('',(-1.273122343515,7.309966870993,1.031828668927
    ));
#382 = CARTESIAN_POINT('',(-0.894327647737,7.518545651113,0.982913091133
    ));
#383 = CARTESIAN_POINT('',(-1.389448745546,7.520611542375,1.198792384915
    ));
#384 = CARTESIAN_POINT('',(-0.845517452326,7.777538000254,1.159034755536
    ));
#385 = CARTESIAN_POINT('',(-1.12852589798,7.825960614694,1.277397201862)
  );
#386 = CARTESIAN_POINT('',(-0.83519814524,8.022933539467,1.262382513982)
  );
#387 = CARTESIAN_POINT('',(-0.776710880615,8.158117326958,1.32337591118)
  );
#388 = CARTESIAN_POINT('',(-1.1012679544,6.967811500518,1.006031596232)
  );
#389 = CARTESIAN_POINT('',(-1.120727546999,7.082023463339,1.099257812398
    ));
#390 = CARTESIAN_POINT('',(-1.086204004961,7.209978869917,1.171870852572
    ));
#391 = CARTESIAN_POINT('',(-1.261751206701,7.286932542937,1.313226086284
    ));
#392 = CARTESIAN_POINT('',(-0.777037517795,7.530900308413,1.233923161019
    ));
#393 = CARTESIAN_POINT('',(-1.182184003351,7.545218782792,1.430345688629
    ));
#394 = CARTESIAN_POINT('',(-0.740710389121,7.7811554024,1.373531500622)
  );
#395 = CARTESIAN_POINT('',(-0.77448038027,7.892329315675,1.45320097078)
  );
#396 = CARTESIAN_POINT('',(-0.701398857115,8.031615982254,1.503684817624
    ));
#397 = CARTESIAN_POINT('',(-1.08601388562,6.824551080656,1.215007044871)
  );
#398 = CARTESIAN_POINT('',(-1.078645034997,6.945986201887,1.296360946846
    ));
#399 = CARTESIAN_POINT('',(-1.061763298201,7.069949455809,1.373123663441
    ));
#400 = CARTESIAN_POINT('',(-0.956033369235,7.21899558174,1.409483261696)
  );
#401 = CARTESIAN_POINT('',(-0.910404862482,7.350344558532,1.474899730474
    ));
#402 = CARTESIAN_POINT('',(-0.740326020502,7.515271774356,1.482550899403
    ));
#403 = CARTESIAN_POINT('',(-0.622440418361,7.666501396694,1.518041593268
    ));
#404 = CARTESIAN_POINT('',(-0.559031593819,7.80313220742,1.572798480721)
  );
#405 = CARTESIAN_POINT('',(-0.395792322494,7.966221088322,1.587057162146
    ));
#406 = CARTESIAN_POINT('',(-0.989223852739,6.7028861662,1.387437515725)
  );
#407 = CARTESIAN_POINT('',(-0.946350875486,6.833888469575,1.452936624895
    ));
#408 = CARTESIAN_POINT('',(-0.885321834527,6.969844414537,1.509887752069
    ));
#409 = CARTESIAN_POINT('',(-0.75248692741,7.125779790718,1.535126306939)
  );
#410 = CARTESIAN_POINT('',(-0.657145915579,7.27103932272,1.575468152586)
  );
#411 = CARTESIAN_POINT('',(-0.438279503749,7.44876279885,1.565627168963)
  );
#412 = CARTESIAN_POINT('',(-0.320815521827,7.600131418075,1.596913686412
    ));
#413 = CARTESIAN_POINT('',(-0.152598316753,7.764583518053,1.608164979206
    ));
#414 = CARTESIAN_POINT('',(5.827683520668E-02,7.940308001769,
    1.602812799723));
#415 = ADVANCED_FACE('',(#416),#454,.F.);
#416 = FACE_BOUND('',#417,.T.);
#417 = EDGE_LOOP('',(#418,#427,#434,#435,#443,#444,#445,#446,#447));
#418 = ORIENTED_EDGE('',*,*,#419,.F.);
#419 = EDGE_CURVE('',#420,#422,#424,.T.);
#420 = VERTEX_POINT('',#421);
#421 = CARTESIAN_POINT('',(-0.375,15.8,-2.E-15));
#422 = VERTEX_POINT('',#423);
#423 = CARTESIAN_POINT('',(-1.523383984776,8.394095118587,-1.E-15));
#424 = B_SPLINE_CURVE_WITH_KNOTS('',1,(#425,#426),.UNSPECIFIED.,.F.,.F.,
  (2,2),(0.,1.),.PIECEWISE_BEZIER_KNOTS.);
#425 = CARTESIAN_POINT('',(-0.375,15.8,-1.75E-15));
#426 = CARTESIAN_POINT('',(-1.6,7.9,-2.02E-15));
#427 = ORIENTED_EDGE('',*,*,#428,.T.);
#428 = EDGE_CURVE('',#420,#420,#429,.T.);
#429 = CIRCLE('',#430,0.375);
#430 = AXIS2_PLACEMENT_3D('',#431,#432,#433);
#431 = CARTESIAN_POINT('',(0.,15.8,-1.75E-15));
#432 = DIRECTION('',(0.,1.,-2.2E-16));
#433 = DIRECTION('',(-1.,0.,0.));
#434 = ORIENTED_EDGE('',*,*,#419,.T.);
#435 = ORIENTED_EDGE('',*,*,#436,.T.);
#436 = EDGE_CURVE('',#422,#162,#437,.T.);
#437 = B_SPLINE_CURVE_WITH_KNOTS('',4,(#438,#439,#440,#441,#442),
  .UNSPECIFIED.,.F.,.F.,(5,5),(1.364479001596,1.835870474942),
  .PIECEWISE_BEZIER_KNOTS.);
#438 = CARTESIAN_POINT('',(-1.523383984776,8.394095118587,-4.8E-16));
#439 = CARTESIAN_POINT('',(-1.523383984776,8.394095118587,
    -0.112204708726));
#440 = CARTESIAN_POINT('',(-1.512364454673,8.394095118509,
    -0.224411771654));
#441 = CARTESIAN_POINT('',(-1.490326955146,8.394095118761,
    -0.334983925082));
#442 = CARTESIAN_POINT('',(-1.457745406727,8.394095118322,
    -0.442354037355));
#443 = ORIENTED_EDGE('',*,*,#168,.T.);
#444 = ORIENTED_EDGE('',*,*,#123,.T.);
#445 = ORIENTED_EDGE('',*,*,#132,.T.);
#446 = ORIENTED_EDGE('',*,*,#323,.F.);
#447 = ORIENTED_EDGE('',*,*,#448,.T.);
#448 = EDGE_CURVE('',#315,#422,#449,.T.);
#449 = CIRCLE('',#450,1.523383984776);
#450 = AXIS2_PLACEMENT_3D('',#451,#452,#453);
#451 = CARTESIAN_POINT('',(0.,8.394095118587,-1.75E-15));
#452 = DIRECTION('',(-0.,-1.,0.));
#453 = DIRECTION('',(-0.657877446319,0.,0.753125));
#454 = CONICAL_SURFACE('',#455,0.375,0.153838105772);
#455 = AXIS2_PLACEMENT_3D('',#456,#457,#458);
#456 = CARTESIAN_POINT('',(0.,15.8,-1.75E-15));
#457 = DIRECTION('',(0.,-1.,2.2E-16));
#458 = DIRECTION('',(-1.,0.,0.));
#459 = ADVANCED_FACE('',(#460),#471,.F.);
#460 = FACE_BOUND('',#461,.F.);
#461 = EDGE_LOOP('',(#462,#468,#469,#470));
#462 = ORIENTED_EDGE('',*,*,#463,.T.);
#463 = EDGE_CURVE('',#290,#422,#464,.T.);
#464 = LINE('',#465,#466);
#465 = CARTESIAN_POINT('',(-1.1,7.9,-9.8E-16));
#466 = VECTOR('',#467,1.);
#467 = DIRECTION('',(-0.650679632981,0.759352365654,5.E-16));
#468 = ORIENTED_EDGE('',*,*,#436,.T.);
#469 = ORIENTED_EDGE('',*,*,#161,.F.);
#470 = ORIENTED_EDGE('',*,*,#289,.F.);
#471 = B_SPLINE_SURFACE_WITH_KNOTS('',1,4,(
    (#472,#473,#474,#475,#476)
    ,(#477,#478,#479,#480,#481
    )),.UNSPECIFIED.,.F.,.F.,.F.,(2,2),(5,5),(0.,0.471391473346),(
    1.364479001596,1.835870474942),.PIECEWISE_BEZIER_KNOTS.);
#472 = CARTESIAN_POINT('',(-1.1,7.9,4.746E-14));
#473 = CARTESIAN_POINT('',(-1.1,7.9,-8.102039986812E-02));
#474 = CARTESIAN_POINT('',(-1.092043054365,7.9,-0.162042500649));
#475 = CARTESIAN_POINT('',(-1.076130291652,7.9,-0.241884065807));
#476 = CARTESIAN_POINT('',(-1.05260391411,7.9,-0.319413531102));
#477 = CARTESIAN_POINT('',(-1.523383984776,8.394095118587,-4.8E-16));
#478 = CARTESIAN_POINT('',(-1.523383984776,8.394095118587,
    -0.112204708726));
#479 = CARTESIAN_POINT('',(-1.512364454673,8.394095118509,
    -0.224411771654));
#480 = CARTESIAN_POINT('',(-1.490326955146,8.394095118761,
    -0.334983925082));
#481 = CARTESIAN_POINT('',(-1.457745406727,8.394095118322,
    -0.442354037355));
#482 = ADVANCED_FACE('',(#483),#502,.T.);
#483 = FACE_BOUND('',#484,.F.);
#484 = EDGE_LOOP('',(#485,#493,#494,#495));
#485 = ORIENTED_EDGE('',*,*,#486,.T.);
#486 = EDGE_CURVE('',#487,#267,#489,.T.);
#487 = VERTEX_POINT('',#488);
#488 = CARTESIAN_POINT('',(4.1,0.,0.));
#489 = LINE('',#490,#491);
#490 = CARTESIAN_POINT('',(4.1,0.,0.));
#491 = VECTOR('',#492,1.);
#492 = DIRECTION('',(0.,-1.,2.2E-16));
#493 = ORIENTED_EDGE('',*,*,#266,.T.);
#494 = ORIENTED_EDGE('',*,*,#486,.F.);
#495 = ORIENTED_EDGE('',*,*,#496,.F.);
#496 = EDGE_CURVE('',#487,#487,#497,.T.);
#497 = CIRCLE('',#498,4.1);
#498 = AXIS2_PLACEMENT_3D('',#499,#500,#501);
#499 = CARTESIAN_POINT('',(0.,0.,0.));
#500 = DIRECTION('',(0.,-1.,0.));
#501 = DIRECTION('',(1.,0.,0.));
#502 = CYLINDRICAL_SURFACE('',#503,4.1);
#503 = AXIS2_PLACEMENT_3D('',#504,#505,#506);
#504 = CARTESIAN_POINT('',(0.,0.,0.));
#505 = DIRECTION('',(0.,1.,-2.2E-16));
#506 = DIRECTION('',(1.,0.,0.));
#507 = ADVANCED_FACE('',(#508),#514,.F.);
#508 = FACE_BOUND('',#509,.T.);
#509 = EDGE_LOOP('',(#510,#511,#512,#513));
#510 = ORIENTED_EDGE('',*,*,#314,.F.);
#511 = ORIENTED_EDGE('',*,*,#299,.T.);
#512 = ORIENTED_EDGE('',*,*,#463,.T.);
#513 = ORIENTED_EDGE('',*,*,#448,.F.);
#514 = CONICAL_SURFACE('',#515,1.1,0.708479110512);
#515 = AXIS2_PLACEMENT_3D('',#516,#517,#518);
#516 = CARTESIAN_POINT('',(0.,7.9,-1.75E-15));
#517 = DIRECTION('',(0.,1.,0.));
#518 = DIRECTION('',(-0.657877446319,0.,0.753125));
#519 = ADVANCED_FACE('',(#520,#531),#534,.T.);
#520 = FACE_BOUND('',#521,.T.);
#521 = EDGE_LOOP('',(#522));
#522 = ORIENTED_EDGE('',*,*,#523,.T.);
#523 = EDGE_CURVE('',#524,#524,#526,.T.);
#524 = VERTEX_POINT('',#525);
#525 = CARTESIAN_POINT('',(-1.8,15.8,-2.E-15));
#526 = CIRCLE('',#527,1.8);
#527 = AXIS2_PLACEMENT_3D('',#528,#529,#530);
#528 = CARTESIAN_POINT('',(0.,15.8,-1.75E-15));
#529 = DIRECTION('',(0.,1.,-2.2E-16));
#530 = DIRECTION('',(-1.,0.,0.));
#531 = FACE_BOUND('',#532,.F.);
#532 = EDGE_LOOP('',(#533));
#533 = ORIENTED_EDGE('',*,*,#428,.T.);
#534 = PLANE('',#535);
#535 = AXIS2_PLACEMENT_3D('',#536,#537,#538);
#536 = CARTESIAN_POINT('',(4.E-17,15.8,-1.63E-15));
#537 = DIRECTION('',(0.,1.,0.));
#538 = DIRECTION('',(0.,0.,1.));
#539 = ADVANCED_FACE('',(#540,#543),#554,.T.);
#540 = FACE_BOUND('',#541,.T.);
#541 = EDGE_LOOP('',(#542));
#542 = ORIENTED_EDGE('',*,*,#496,.F.);
#543 = FACE_BOUND('',#544,.T.);
#544 = EDGE_LOOP('',(#545));
#545 = ORIENTED_EDGE('',*,*,#546,.F.);
#546 = EDGE_CURVE('',#547,#547,#549,.T.);
#547 = VERTEX_POINT('',#548);
#548 = CARTESIAN_POINT('',(-3.2,0.,0.));
#549 = CIRCLE('',#550,3.2);
#550 = AXIS2_PLACEMENT_3D('',#551,#552,#553);
#551 = CARTESIAN_POINT('',(0.,0.,0.));
#552 = DIRECTION('',(0.,1.,-0.));
#553 = DIRECTION('',(-1.,0.,0.));
#554 = PLANE('',#555);
#555 = AXIS2_PLACEMENT_3D('',#556,#557,#558);
#556 = CARTESIAN_POINT('',(-1.7E-16,0.,1.7E-16));
#557 = DIRECTION('',(0.,1.,0.));
#558 = DIRECTION('',(0.,0.,1.));
#559 = ADVANCED_FACE('',(#560),#578,.T.);
#560 = FACE_BOUND('',#561,.F.);
#561 = EDGE_LOOP('',(#562,#563,#570,#577));
#562 = ORIENTED_EDGE('',*,*,#523,.T.);
#563 = ORIENTED_EDGE('',*,*,#564,.T.);
#564 = EDGE_CURVE('',#524,#565,#567,.T.);
#565 = VERTEX_POINT('',#566);
#566 = CARTESIAN_POINT('',(-3.2,7.9,-2.E-15));
#567 = B_SPLINE_CURVE_WITH_KNOTS('',1,(#568,#569),.UNSPECIFIED.,.F.,.F.,
  (2,2),(0.,1.),.PIECEWISE_BEZIER_KNOTS.);
#568 = CARTESIAN_POINT('',(-1.8,15.8,-1.75E-15));
#569 = CARTESIAN_POINT('',(-3.2,7.9,-1.75E-15));
#570 = ORIENTED_EDGE('',*,*,#571,.F.);
#571 = EDGE_CURVE('',#565,#565,#572,.T.);
#572 = CIRCLE('',#573,3.2);
#573 = AXIS2_PLACEMENT_3D('',#574,#575,#576);
#574 = CARTESIAN_POINT('',(0.,7.9,-2.E-15));
#575 = DIRECTION('',(0.,1.,-0.));
#576 = DIRECTION('',(-1.,0.,0.));
#577 = ORIENTED_EDGE('',*,*,#564,.F.);
#578 = CONICAL_SURFACE('',#579,1.8,0.175394220543);
#579 = AXIS2_PLACEMENT_3D('',#580,#581,#582);
#580 = CARTESIAN_POINT('',(0.,15.8,-1.75E-15));
#581 = DIRECTION('',(0.,-1.,2.2E-16));
#582 = DIRECTION('',(-1.,0.,0.));
#583 = ADVANCED_FACE('',(#584),#595,.T.);
#584 = FACE_BOUND('',#585,.F.);
#585 = EDGE_LOOP('',(#586,#592,#593,#594));
#586 = ORIENTED_EDGE('',*,*,#587,.T.);
#587 = EDGE_CURVE('',#547,#565,#588,.T.);
#588 = LINE('',#589,#590);
#589 = CARTESIAN_POINT('',(-3.2,0.,0.));
#590 = VECTOR('',#591,1.);
#591 = DIRECTION('',(0.,1.,-2.2E-16));
#592 = ORIENTED_EDGE('',*,*,#571,.T.);
#593 = ORIENTED_EDGE('',*,*,#587,.F.);
#594 = ORIENTED_EDGE('',*,*,#546,.F.);
#595 = CYLINDRICAL_SURFACE('',#596,3.2);
#596 = AXIS2_PLACEMENT_3D('',#597,#598,#599);
#597 = CARTESIAN_POINT('',(0.,0.,0.));
#598 = DIRECTION('',(0.,-1.,2.2E-16));
#599 = DIRECTION('',(-1.,0.,0.));
#600 = ( GEOMETRIC_REPRESENTATION_CONTEXT(3) 
GLOBAL_UNCERTAINTY_ASSIGNED_CONTEXT((#604)) GLOBAL_UNIT_ASSIGNED_CONTEXT
((#601,#602,#603)) REPRESENTATION_CONTEXT('Context #1',
  '3D Context with UNIT and UNCERTAINTY') );
#601 = ( LENGTH_UNIT() NAMED_UNIT(*) SI_UNIT(.MILLI.,.METRE.) );
#602 = ( NAMED_UNIT(*) PLANE_ANGLE_UNIT() SI_UNIT($,.RADIAN.) );
#603 = ( NAMED_UNIT(*) SI_UNIT($,.STERADIAN.) SOLID_ANGLE_UNIT() );
#604 = UNCERTAINTY_MEASURE_WITH_UNIT(LENGTH_MEASURE(2.E-03),#601,
  'distance_accuracy_value','confusion accuracy');
#605 = PRODUCT_RELATED_PRODUCT_CATEGORY('part',$,(#7));
#606 = MECHANICAL_DESIGN_GEOMETRIC_PRESENTATION_REPRESENTATION('',(#607)
  ,#600);
#607 = STYLED_ITEM('color',(#608),#15);
#608 = PRESENTATION_STYLE_ASSIGNMENT((#609,#615));
#609 = SURFACE_STYLE_USAGE(.BOTH.,#610);
#610 = SURFACE_SIDE_STYLE('',(#611));
#611 = SURFACE_STYLE_FILL_AREA(#612);
#612 = FILL_AREA_STYLE('',(#613));
#613 = FILL_AREA_STYLE_COLOUR('',#614);
#614 = COLOUR_RGB('',0.447058818107,0.474509808674,0.501960817233);
#615 = CURVE_STYLE('',#616,POSITIVE_LENGTH_MEASURE(0.1),#617);
#616 = DRAUGHTING_PRE_DEFINED_CURVE_FONT('continuous');
#617 = COLOUR_RGB('',9.803921802644E-02,9.803921802644E-02,
  9.803921802644E-02);
ENDSEC;
END-ISO-10303-21;
