ISO-10303-21;
HEADER;
FILE_DESCRIPTION(('FreeCAD Model'),'2;1');
FILE_NAME('Open CASCADE Shape Model','2026-09-08T00:01:26',('FreeCAD'),(
    'FreeCAD'),'Open CASCADE STEP processor 7.8','FreeCAD','Unknown');
FILE_SCHEMA(('AUTOMOTIVE_DESIGN { 1 0 10303 214 1 1 1 1 }'));
ENDSEC;
DATA;
#1 = APPLICATION_PROTOCOL_DEFINITION('international standard',
  'automotive_design',2000,#2);
#2 = APPLICATION_CONTEXT(
  'core data for automotive mechanical design processes');
#3 = SHAPE_DEFINITION_REPRESENTATION(#4,#10);
#4 = PRODUCT_DEFINITION_SHAPE('','',#5);
#5 = PRODUCT_DEFINITION('design','',#6,#9);
#6 = PRODUCT_DEFINITION_FORMATION('','',#7);
#7 = PRODUCT('Open CASCADE STEP translator 7.8 31',
  'Open CASCADE STEP translator 7.8 31','',(#8));
#8 = PRODUCT_CONTEXT('',#2,'mechanical');
#9 = PRODUCT_DEFINITION_CONTEXT('part definition',#2,'design');
#10 = ADVANCED_BREP_SHAPE_REPRESENTATION('',(#11,#15),#359);
#11 = AXIS2_PLACEMENT_3D('',#12,#13,#14);
#12 = CARTESIAN_POINT('',(0.,0.,0.));
#13 = DIRECTION('',(0.,0.,1.));
#14 = DIRECTION('',(1.,0.,-0.));
#15 = MANIFOLD_SOLID_BREP('',#16);
#16 = CLOSED_SHELL('',(#17,#79,#126,#150,#174,#207,#232,#257,#274,#291,
    #325,#342));
#17 = ADVANCED_FACE('',(#18,#52,#63),#74,.F.);
#18 = FACE_BOUND('',#19,.F.);
#19 = EDGE_LOOP('',(#20,#30,#38,#46));
#20 = ORIENTED_EDGE('',*,*,#21,.T.);
#21 = EDGE_CURVE('',#22,#24,#26,.T.);
#22 = VERTEX_POINT('',#23);
#23 = CARTESIAN_POINT('',(2.5,89.,-29.9));
#24 = VERTEX_POINT('',#25);
#25 = CARTESIAN_POINT('',(2.5,-89.,-29.9));
#26 = LINE('',#27,#28);
#27 = CARTESIAN_POINT('',(2.5,90.,-29.9));
#28 = VECTOR('',#29,1.);
#29 = DIRECTION('',(0.,-1.,2.2E-16));
#30 = ORIENTED_EDGE('',*,*,#31,.T.);
#31 = EDGE_CURVE('',#24,#32,#34,.T.);
#32 = VERTEX_POINT('',#33);
#33 = CARTESIAN_POINT('',(2.5,-89.,29.9));
#34 = LINE('',#35,#36);
#35 = CARTESIAN_POINT('',(2.5,-89.,-29.9));
#36 = VECTOR('',#37,1.);
#37 = DIRECTION('',(0.,2.2E-16,1.));
#38 = ORIENTED_EDGE('',*,*,#39,.F.);
#39 = EDGE_CURVE('',#40,#32,#42,.T.);
#40 = VERTEX_POINT('',#41);
#41 = CARTESIAN_POINT('',(2.5,89.,29.9));
#42 = LINE('',#43,#44);
#43 = CARTESIAN_POINT('',(2.5,90.,29.9));
#44 = VECTOR('',#45,1.);
#45 = DIRECTION('',(0.,-1.,2.2E-16));
#46 = ORIENTED_EDGE('',*,*,#47,.F.);
#47 = EDGE_CURVE('',#22,#40,#48,.T.);
#48 = LINE('',#49,#50);
#49 = CARTESIAN_POINT('',(2.5,89.,-29.9));
#50 = VECTOR('',#51,1.);
#51 = DIRECTION('',(0.,2.2E-16,1.));
#52 = FACE_BOUND('',#53,.F.);
#53 = EDGE_LOOP('',(#54));
#54 = ORIENTED_EDGE('',*,*,#55,.T.);
#55 = EDGE_CURVE('',#56,#56,#58,.T.);
#56 = VERTEX_POINT('',#57);
#57 = CARTESIAN_POINT('',(2.5,80.,5.1));
#58 = CIRCLE('',#59,5.1);
#59 = AXIS2_PLACEMENT_3D('',#60,#61,#62);
#60 = CARTESIAN_POINT('',(2.5,80.,0.));
#61 = DIRECTION('',(1.,0.,0.));
#62 = DIRECTION('',(0.,-2.2E-16,1.));
#63 = FACE_BOUND('',#64,.F.);
#64 = EDGE_LOOP('',(#65));
#65 = ORIENTED_EDGE('',*,*,#66,.T.);
#66 = EDGE_CURVE('',#67,#67,#69,.T.);
#67 = VERTEX_POINT('',#68);
#68 = CARTESIAN_POINT('',(2.5,-80.,5.1));
#69 = CIRCLE('',#70,5.1);
#70 = AXIS2_PLACEMENT_3D('',#71,#72,#73);
#71 = CARTESIAN_POINT('',(2.5,-80.,0.));
#72 = DIRECTION('',(1.,0.,-0.));
#73 = DIRECTION('',(0.,5.24E-15,1.));
#74 = PLANE('',#75);
#75 = AXIS2_PLACEMENT_3D('',#76,#77,#78);
#76 = CARTESIAN_POINT('',(2.5,90.,-29.9));
#77 = DIRECTION('',(-1.,0.,0.));
#78 = DIRECTION('',(0.,2.2E-16,1.));
#79 = ADVANCED_FACE('',(#80),#121,.F.);
#80 = FACE_BOUND('',#81,.F.);
#81 = EDGE_LOOP('',(#82,#83,#91,#99,#107,#115));
#82 = ORIENTED_EDGE('',*,*,#21,.F.);
#83 = ORIENTED_EDGE('',*,*,#84,.T.);
#84 = EDGE_CURVE('',#22,#85,#87,.T.);
#85 = VERTEX_POINT('',#86);
#86 = CARTESIAN_POINT('',(1.5,90.,-29.9));
#87 = LINE('',#88,#89);
#88 = CARTESIAN_POINT('',(0.75,90.75,-29.9));
#89 = VECTOR('',#90,1.);
#90 = DIRECTION('',(-0.707106781187,0.707106781187,-1.6E-16));
#91 = ORIENTED_EDGE('',*,*,#92,.F.);
#92 = EDGE_CURVE('',#93,#85,#95,.T.);
#93 = VERTEX_POINT('',#94);
#94 = CARTESIAN_POINT('',(-2.5,90.,-29.9));
#95 = LINE('',#96,#97);
#96 = CARTESIAN_POINT('',(-2.5,90.,-29.9));
#97 = VECTOR('',#98,1.);
#98 = DIRECTION('',(1.,0.,0.));
#99 = ORIENTED_EDGE('',*,*,#100,.T.);
#100 = EDGE_CURVE('',#93,#101,#103,.T.);
#101 = VERTEX_POINT('',#102);
#102 = CARTESIAN_POINT('',(-2.5,-90.,-29.9));
#103 = LINE('',#104,#105);
#104 = CARTESIAN_POINT('',(-2.5,90.,-29.9));
#105 = VECTOR('',#106,1.);
#106 = DIRECTION('',(0.,-1.,2.2E-16));
#107 = ORIENTED_EDGE('',*,*,#108,.T.);
#108 = EDGE_CURVE('',#101,#109,#111,.T.);
#109 = VERTEX_POINT('',#110);
#110 = CARTESIAN_POINT('',(1.5,-90.,-29.9));
#111 = LINE('',#112,#113);
#112 = CARTESIAN_POINT('',(-2.5,-90.,-29.9));
#113 = VECTOR('',#114,1.);
#114 = DIRECTION('',(1.,0.,0.));
#115 = ORIENTED_EDGE('',*,*,#116,.F.);
#116 = EDGE_CURVE('',#24,#109,#117,.T.);
#117 = LINE('',#118,#119);
#118 = CARTESIAN_POINT('',(45.75,-45.75,-29.9));
#119 = VECTOR('',#120,1.);
#120 = DIRECTION('',(-0.707106781187,-0.707106781187,1.6E-16));
#121 = PLANE('',#122);
#122 = AXIS2_PLACEMENT_3D('',#123,#124,#125);
#123 = CARTESIAN_POINT('',(-2.5,90.,-29.9));
#124 = DIRECTION('',(0.,2.2E-16,1.));
#125 = DIRECTION('',(1.,0.,0.));
#126 = ADVANCED_FACE('',(#127),#145,.F.);
#127 = FACE_BOUND('',#128,.F.);
#128 = EDGE_LOOP('',(#129,#130,#131,#139));
#129 = ORIENTED_EDGE('',*,*,#84,.F.);
#130 = ORIENTED_EDGE('',*,*,#47,.T.);
#131 = ORIENTED_EDGE('',*,*,#132,.T.);
#132 = EDGE_CURVE('',#40,#133,#135,.T.);
#133 = VERTEX_POINT('',#134);
#134 = CARTESIAN_POINT('',(1.5,90.,29.9));
#135 = LINE('',#136,#137);
#136 = CARTESIAN_POINT('',(2.,89.5,29.9));
#137 = VECTOR('',#138,1.);
#138 = DIRECTION('',(-0.707106781187,0.707106781187,-1.6E-16));
#139 = ORIENTED_EDGE('',*,*,#140,.F.);
#140 = EDGE_CURVE('',#85,#133,#141,.T.);
#141 = LINE('',#142,#143);
#142 = CARTESIAN_POINT('',(1.5,90.,-29.9));
#143 = VECTOR('',#144,1.);
#144 = DIRECTION('',(0.,2.2E-16,1.));
#145 = PLANE('',#146);
#146 = AXIS2_PLACEMENT_3D('',#147,#148,#149);
#147 = CARTESIAN_POINT('',(2.,89.5,-29.9));
#148 = DIRECTION('',(-0.707106781187,-0.707106781187,-1.6E-16));
#149 = DIRECTION('',(-2.231370849898E-16,-3.137084989848E-18,1.));
#150 = ADVANCED_FACE('',(#151),#169,.T.);
#151 = FACE_BOUND('',#152,.T.);
#152 = EDGE_LOOP('',(#153,#154,#155,#163));
#153 = ORIENTED_EDGE('',*,*,#116,.F.);
#154 = ORIENTED_EDGE('',*,*,#31,.T.);
#155 = ORIENTED_EDGE('',*,*,#156,.T.);
#156 = EDGE_CURVE('',#32,#157,#159,.T.);
#157 = VERTEX_POINT('',#158);
#158 = CARTESIAN_POINT('',(1.5,-90.,29.9));
#159 = LINE('',#160,#161);
#160 = CARTESIAN_POINT('',(47.,-44.5,29.9));
#161 = VECTOR('',#162,1.);
#162 = DIRECTION('',(-0.707106781187,-0.707106781187,1.6E-16));
#163 = ORIENTED_EDGE('',*,*,#164,.F.);
#164 = EDGE_CURVE('',#109,#157,#165,.T.);
#165 = LINE('',#166,#167);
#166 = CARTESIAN_POINT('',(1.5,-90.,-29.9));
#167 = VECTOR('',#168,1.);
#168 = DIRECTION('',(0.,2.2E-16,1.));
#169 = PLANE('',#170);
#170 = AXIS2_PLACEMENT_3D('',#171,#172,#173);
#171 = CARTESIAN_POINT('',(2.,-89.5,-29.9));
#172 = DIRECTION('',(0.707106781187,-0.707106781187,-1.6E-16));
#173 = DIRECTION('',(2.231370849898E-16,-3.137084989848E-18,1.));
#174 = ADVANCED_FACE('',(#175),#202,.F.);
#175 = FACE_BOUND('',#176,.F.);
#176 = EDGE_LOOP('',(#177,#178,#179,#187,#195,#201));
#177 = ORIENTED_EDGE('',*,*,#39,.T.);
#178 = ORIENTED_EDGE('',*,*,#156,.T.);
#179 = ORIENTED_EDGE('',*,*,#180,.T.);
#180 = EDGE_CURVE('',#157,#181,#183,.T.);
#181 = VERTEX_POINT('',#182);
#182 = CARTESIAN_POINT('',(-2.5,-90.,29.9));
#183 = LINE('',#184,#185);
#184 = CARTESIAN_POINT('',(2.5,-90.,29.9));
#185 = VECTOR('',#186,1.);
#186 = DIRECTION('',(-1.,0.,0.));
#187 = ORIENTED_EDGE('',*,*,#188,.F.);
#188 = EDGE_CURVE('',#189,#181,#191,.T.);
#189 = VERTEX_POINT('',#190);
#190 = CARTESIAN_POINT('',(-2.5,90.,29.9));
#191 = LINE('',#192,#193);
#192 = CARTESIAN_POINT('',(-2.5,90.,29.9));
#193 = VECTOR('',#194,1.);
#194 = DIRECTION('',(0.,-1.,2.2E-16));
#195 = ORIENTED_EDGE('',*,*,#196,.F.);
#196 = EDGE_CURVE('',#133,#189,#197,.T.);
#197 = LINE('',#198,#199);
#198 = CARTESIAN_POINT('',(2.5,90.,29.9));
#199 = VECTOR('',#200,1.);
#200 = DIRECTION('',(-1.,0.,0.));
#201 = ORIENTED_EDGE('',*,*,#132,.F.);
#202 = PLANE('',#203);
#203 = AXIS2_PLACEMENT_3D('',#204,#205,#206);
#204 = CARTESIAN_POINT('',(2.5,90.,29.9));
#205 = DIRECTION('',(0.,-2.2E-16,-1.));
#206 = DIRECTION('',(-1.,0.,0.));
#207 = ADVANCED_FACE('',(#208),#227,.F.);
#208 = FACE_BOUND('',#209,.T.);
#209 = EDGE_LOOP('',(#210,#218,#219,#220));
#210 = ORIENTED_EDGE('',*,*,#211,.F.);
#211 = EDGE_CURVE('',#56,#212,#214,.T.);
#212 = VERTEX_POINT('',#213);
#213 = CARTESIAN_POINT('',(-0.3,80.,2.6));
#214 = LINE('',#215,#216);
#215 = CARTESIAN_POINT('',(-0.3,80.,2.6));
#216 = VECTOR('',#217,1.);
#217 = DIRECTION('',(-0.745937661626,1.5E-16,-0.666015769309));
#218 = ORIENTED_EDGE('',*,*,#55,.T.);
#219 = ORIENTED_EDGE('',*,*,#211,.T.);
#220 = ORIENTED_EDGE('',*,*,#221,.F.);
#221 = EDGE_CURVE('',#212,#212,#222,.T.);
#222 = CIRCLE('',#223,2.6);
#223 = AXIS2_PLACEMENT_3D('',#224,#225,#226);
#224 = CARTESIAN_POINT('',(-0.3,80.,0.));
#225 = DIRECTION('',(1.,0.,0.));
#226 = DIRECTION('',(0.,-2.2E-16,1.));
#227 = CONICAL_SURFACE('',#228,2.6,0.728854726453);
#228 = AXIS2_PLACEMENT_3D('',#229,#230,#231);
#229 = CARTESIAN_POINT('',(-0.3,80.,0.));
#230 = DIRECTION('',(1.,0.,0.));
#231 = DIRECTION('',(0.,-2.2E-16,1.));
#232 = ADVANCED_FACE('',(#233),#252,.F.);
#233 = FACE_BOUND('',#234,.T.);
#234 = EDGE_LOOP('',(#235,#243,#244,#245));
#235 = ORIENTED_EDGE('',*,*,#236,.F.);
#236 = EDGE_CURVE('',#67,#237,#239,.T.);
#237 = VERTEX_POINT('',#238);
#238 = CARTESIAN_POINT('',(-0.3,-80.,2.6));
#239 = LINE('',#240,#241);
#240 = CARTESIAN_POINT('',(-0.3,-80.,2.6));
#241 = VECTOR('',#242,1.);
#242 = DIRECTION('',(-0.745937661626,-3.49E-15,-0.666015769309));
#243 = ORIENTED_EDGE('',*,*,#66,.T.);
#244 = ORIENTED_EDGE('',*,*,#236,.T.);
#245 = ORIENTED_EDGE('',*,*,#246,.F.);
#246 = EDGE_CURVE('',#237,#237,#247,.T.);
#247 = CIRCLE('',#248,2.6);
#248 = AXIS2_PLACEMENT_3D('',#249,#250,#251);
#249 = CARTESIAN_POINT('',(-0.3,-80.,0.));
#250 = DIRECTION('',(1.,0.,-0.));
#251 = DIRECTION('',(0.,5.24E-15,1.));
#252 = CONICAL_SURFACE('',#253,2.6,0.728854726453);
#253 = AXIS2_PLACEMENT_3D('',#254,#255,#256);
#254 = CARTESIAN_POINT('',(-0.3,-80.,0.));
#255 = DIRECTION('',(1.,0.,0.));
#256 = DIRECTION('',(0.,5.24E-15,1.));
#257 = ADVANCED_FACE('',(#258),#269,.T.);
#258 = FACE_BOUND('',#259,.T.);
#259 = EDGE_LOOP('',(#260,#261,#262,#263));
#260 = ORIENTED_EDGE('',*,*,#196,.F.);
#261 = ORIENTED_EDGE('',*,*,#140,.F.);
#262 = ORIENTED_EDGE('',*,*,#92,.F.);
#263 = ORIENTED_EDGE('',*,*,#264,.F.);
#264 = EDGE_CURVE('',#189,#93,#265,.T.);
#265 = LINE('',#266,#267);
#266 = CARTESIAN_POINT('',(-2.5,90.,29.9));
#267 = VECTOR('',#268,1.);
#268 = DIRECTION('',(0.,2.2E-16,-1.));
#269 = PLANE('',#270);
#270 = AXIS2_PLACEMENT_3D('',#271,#272,#273);
#271 = CARTESIAN_POINT('',(0.,90.,0.));
#272 = DIRECTION('',(0.,1.,2.2E-16));
#273 = DIRECTION('',(0.,-2.2E-16,1.));
#274 = ADVANCED_FACE('',(#275),#286,.F.);
#275 = FACE_BOUND('',#276,.F.);
#276 = EDGE_LOOP('',(#277,#278,#279,#280));
#277 = ORIENTED_EDGE('',*,*,#180,.F.);
#278 = ORIENTED_EDGE('',*,*,#164,.F.);
#279 = ORIENTED_EDGE('',*,*,#108,.F.);
#280 = ORIENTED_EDGE('',*,*,#281,.F.);
#281 = EDGE_CURVE('',#181,#101,#282,.T.);
#282 = LINE('',#283,#284);
#283 = CARTESIAN_POINT('',(-2.5,-90.,29.9));
#284 = VECTOR('',#285,1.);
#285 = DIRECTION('',(0.,2.2E-16,-1.));
#286 = PLANE('',#287);
#287 = AXIS2_PLACEMENT_3D('',#288,#289,#290);
#288 = CARTESIAN_POINT('',(0.,-90.,0.));
#289 = DIRECTION('',(0.,1.,2.2E-16));
#290 = DIRECTION('',(0.,-2.2E-16,1.));
#291 = ADVANCED_FACE('',(#292,#298,#309),#320,.F.);
#292 = FACE_BOUND('',#293,.F.);
#293 = EDGE_LOOP('',(#294,#295,#296,#297));
#294 = ORIENTED_EDGE('',*,*,#188,.T.);
#295 = ORIENTED_EDGE('',*,*,#281,.T.);
#296 = ORIENTED_EDGE('',*,*,#100,.F.);
#297 = ORIENTED_EDGE('',*,*,#264,.F.);
#298 = FACE_BOUND('',#299,.F.);
#299 = EDGE_LOOP('',(#300));
#300 = ORIENTED_EDGE('',*,*,#301,.F.);
#301 = EDGE_CURVE('',#302,#302,#304,.T.);
#302 = VERTEX_POINT('',#303);
#303 = CARTESIAN_POINT('',(-2.5,-80.,2.6));
#304 = CIRCLE('',#305,2.6);
#305 = AXIS2_PLACEMENT_3D('',#306,#307,#308);
#306 = CARTESIAN_POINT('',(-2.5,-80.,1.11E-15));
#307 = DIRECTION('',(1.,0.,-2.2E-16));
#308 = DIRECTION('',(2.2E-16,0.,1.));
#309 = FACE_BOUND('',#310,.F.);
#310 = EDGE_LOOP('',(#311));
#311 = ORIENTED_EDGE('',*,*,#312,.F.);
#312 = EDGE_CURVE('',#313,#313,#315,.T.);
#313 = VERTEX_POINT('',#314);
#314 = CARTESIAN_POINT('',(-2.5,80.,2.6));
#315 = CIRCLE('',#316,2.6);
#316 = AXIS2_PLACEMENT_3D('',#317,#318,#319);
#317 = CARTESIAN_POINT('',(-2.5,80.,1.11E-15));
#318 = DIRECTION('',(1.,0.,-2.2E-16));
#319 = DIRECTION('',(2.2E-16,0.,1.));
#320 = PLANE('',#321);
#321 = AXIS2_PLACEMENT_3D('',#322,#323,#324);
#322 = CARTESIAN_POINT('',(-2.5,90.,29.9));
#323 = DIRECTION('',(1.,0.,0.));
#324 = DIRECTION('',(0.,-2.2E-16,-1.));
#325 = ADVANCED_FACE('',(#326),#337,.F.);
#326 = FACE_BOUND('',#327,.F.);
#327 = EDGE_LOOP('',(#328,#334,#335,#336));
#328 = ORIENTED_EDGE('',*,*,#329,.F.);
#329 = EDGE_CURVE('',#212,#313,#330,.T.);
#330 = LINE('',#331,#332);
#331 = CARTESIAN_POINT('',(2.5,80.,2.6));
#332 = VECTOR('',#333,1.);
#333 = DIRECTION('',(-1.,0.,2.2E-16));
#334 = ORIENTED_EDGE('',*,*,#221,.F.);
#335 = ORIENTED_EDGE('',*,*,#329,.T.);
#336 = ORIENTED_EDGE('',*,*,#312,.T.);
#337 = CYLINDRICAL_SURFACE('',#338,2.6);
#338 = AXIS2_PLACEMENT_3D('',#339,#340,#341);
#339 = CARTESIAN_POINT('',(2.5,80.,0.));
#340 = DIRECTION('',(1.,0.,-2.2E-16));
#341 = DIRECTION('',(2.2E-16,0.,1.));
#342 = ADVANCED_FACE('',(#343),#354,.F.);
#343 = FACE_BOUND('',#344,.F.);
#344 = EDGE_LOOP('',(#345,#351,#352,#353));
#345 = ORIENTED_EDGE('',*,*,#346,.F.);
#346 = EDGE_CURVE('',#237,#302,#347,.T.);
#347 = LINE('',#348,#349);
#348 = CARTESIAN_POINT('',(2.5,-80.,2.6));
#349 = VECTOR('',#350,1.);
#350 = DIRECTION('',(-1.,0.,2.2E-16));
#351 = ORIENTED_EDGE('',*,*,#246,.F.);
#352 = ORIENTED_EDGE('',*,*,#346,.T.);
#353 = ORIENTED_EDGE('',*,*,#301,.T.);
#354 = CYLINDRICAL_SURFACE('',#355,2.6);
#355 = AXIS2_PLACEMENT_3D('',#356,#357,#358);
#356 = CARTESIAN_POINT('',(2.5,-80.,0.));
#357 = DIRECTION('',(1.,0.,-2.2E-16));
#358 = DIRECTION('',(2.2E-16,0.,1.));
#359 = ( GEOMETRIC_REPRESENTATION_CONTEXT(3) 
GLOBAL_UNCERTAINTY_ASSIGNED_CONTEXT((#363)) GLOBAL_UNIT_ASSIGNED_CONTEXT
((#360,#361,#362)) REPRESENTATION_CONTEXT('Context #1',
  '3D Context with UNIT and UNCERTAINTY') );
#360 = ( LENGTH_UNIT() NAMED_UNIT(*) SI_UNIT(.MILLI.,.METRE.) );
#361 = ( NAMED_UNIT(*) PLANE_ANGLE_UNIT() SI_UNIT($,.RADIAN.) );
#362 = ( NAMED_UNIT(*) SI_UNIT($,.STERADIAN.) SOLID_ANGLE_UNIT() );
#363 = UNCERTAINTY_MEASURE_WITH_UNIT(LENGTH_MEASURE(1.E-07),#360,
  'distance_accuracy_value','confusion accuracy');
#364 = PRODUCT_RELATED_PRODUCT_CATEGORY('part',$,(#7));
ENDSEC;
END-ISO-10303-21;
