ISO-10303-21;
HEADER;
FILE_DESCRIPTION(('FreeCAD Model'),'2;1');
FILE_NAME('Open CASCADE Shape Model','2026-09-08T00:01:26',('FreeCAD'),(
    'FreeCAD'),'Open CASCADE STEP processor 7.8','FreeCAD','Unknown');
FILE_SCHEMA(('AUTOMOTIVE_DESIGN { 1 0 10303 214 1 1 1 1 }'));
ENDSEC;
DATA;
#1 = APPLICATION_PROTOCOL_DEFINITION('international standard',
  'automotive_design',2000,#2);
#2 = APPLICATION_CONTEXT(
  'core data for automotive mechanical design processes');
#3 = SHAPE_DEFINITION_REPRESENTATION(#4,#10);
#4 = PRODUCT_DEFINITION_SHAPE('','',#5);
#5 = PRODUCT_DEFINITION('design','',#6,#9);
#6 = PRODUCT_DEFINITION_FORMATION('','',#7);
#7 = PRODUCT('Open CASCADE STEP translator 7.8 33',
  'Open CASCADE STEP translator 7.8 33','',(#8));
#8 = PRODUCT_CONTEXT('',#2,'mechanical');
#9 = PRODUCT_DEFINITION_CONTEXT('part definition',#2,'design');
#10 = ADVANCED_BREP_SHAPE_REPRESENTATION('',(#11,#15),#1864);
#11 = AXIS2_PLACEMENT_3D('',#12,#13,#14);
#12 = CARTESIAN_POINT('',(0.,0.,0.));
#13 = DIRECTION('',(0.,0.,1.));
#14 = DIRECTION('',(1.,0.,-0.));
#15 = MANIFOLD_SOLID_BREP('',#16);
#16 = CLOSED_SHELL('',(#17,#295,#320,#367,#391,#415,#446,#477,#501,#525,
    #549,#573,#604,#629,#654,#679,#704,#729,#754,#779,#811,#835,#859,
    #877,#902,#927,#952,#977,#1002,#1027,#1052,#1076,#1346,#1363,#1379,
    #1395,#1417,#1439,#1456,#1473,#1490,#1506,#1522,#1539,#1561,#1578,
    #1595,#1612,#1629,#1646,#1668,#1685,#1702,#1714,#1731,#1748,#1765,
    #1782,#1799,#1816,#1828,#1840,#1852));
#17 = ADVANCED_FACE('',(#18,#29,#111,#122,#133,#144,#155,#166,#177,#188,
    #224,#235,#246,#257,#268,#279),#290,.T.);
#18 = FACE_BOUND('',#19,.T.);
#19 = EDGE_LOOP('',(#20));
#20 = ORIENTED_EDGE('',*,*,#21,.F.);
#21 = EDGE_CURVE('',#22,#22,#24,.T.);
#22 = VERTEX_POINT('',#23);
#23 = CARTESIAN_POINT('',(52.15,28.5,2.5));
#24 = CIRCLE('',#25,2.95);
#25 = AXIS2_PLACEMENT_3D('',#26,#27,#28);
#26 = CARTESIAN_POINT('',(49.2,28.5,2.5));
#27 = DIRECTION('',(0.,0.,1.));
#28 = DIRECTION('',(1.,0.,0.));
#29 = FACE_BOUND('',#30,.T.);
#30 = EDGE_LOOP('',(#31,#41,#49,#57,#65,#73,#81,#89,#97,#105));
#31 = ORIENTED_EDGE('',*,*,#32,.T.);
#32 = EDGE_CURVE('',#33,#35,#37,.T.);
#33 = VERTEX_POINT('',#34);
#34 = CARTESIAN_POINT('',(-75.,89.,2.5));
#35 = VERTEX_POINT('',#36);
#36 = CARTESIAN_POINT('',(-75.,-89.,2.5));
#37 = LINE('',#38,#39);
#38 = CARTESIAN_POINT('',(-75.,90.,2.5));
#39 = VECTOR('',#40,1.);
#40 = DIRECTION('',(0.,-1.,0.));
#41 = ORIENTED_EDGE('',*,*,#42,.T.);
#42 = EDGE_CURVE('',#35,#43,#45,.T.);
#43 = VERTEX_POINT('',#44);
#44 = CARTESIAN_POINT('',(-2.5,-89.,2.5));
#45 = LINE('',#46,#47);
#46 = CARTESIAN_POINT('',(-75.,-89.,2.5));
#47 = VECTOR('',#48,1.);
#48 = DIRECTION('',(1.,0.,0.));
#49 = ORIENTED_EDGE('',*,*,#50,.F.);
#50 = EDGE_CURVE('',#51,#43,#53,.T.);
#51 = VERTEX_POINT('',#52);
#52 = CARTESIAN_POINT('',(-2.5,-71.,2.5));
#53 = LINE('',#54,#55);
#54 = CARTESIAN_POINT('',(-2.5,-70.,2.5));
#55 = VECTOR('',#56,1.);
#56 = DIRECTION('',(0.,-1.,0.));
#57 = ORIENTED_EDGE('',*,*,#58,.F.);
#58 = EDGE_CURVE('',#59,#51,#61,.T.);
#59 = VERTEX_POINT('',#60);
#60 = CARTESIAN_POINT('',(-0.5,-69.,2.5));
#61 = LINE('',#62,#63);
#62 = CARTESIAN_POINT('',(16.875,-51.625,2.5));
#63 = VECTOR('',#64,1.);
#64 = DIRECTION('',(-0.707106781187,-0.707106781187,0.));
#65 = ORIENTED_EDGE('',*,*,#66,.F.);
#66 = EDGE_CURVE('',#67,#59,#69,.T.);
#67 = VERTEX_POINT('',#68);
#68 = CARTESIAN_POINT('',(74.,-69.,2.5));
#69 = LINE('',#70,#71);
#70 = CARTESIAN_POINT('',(75.,-69.,2.5));
#71 = VECTOR('',#72,1.);
#72 = DIRECTION('',(-1.,0.,0.));
#73 = ORIENTED_EDGE('',*,*,#74,.T.);
#74 = EDGE_CURVE('',#67,#75,#77,.T.);
#75 = VERTEX_POINT('',#76);
#76 = CARTESIAN_POINT('',(74.,69.,2.5));
#77 = LINE('',#78,#79);
#78 = CARTESIAN_POINT('',(74.,-70.,2.5));
#79 = VECTOR('',#80,1.);
#80 = DIRECTION('',(0.,1.,0.));
#81 = ORIENTED_EDGE('',*,*,#82,.F.);
#82 = EDGE_CURVE('',#83,#75,#85,.T.);
#83 = VERTEX_POINT('',#84);
#84 = CARTESIAN_POINT('',(-0.5,69.,2.5));
#85 = LINE('',#86,#87);
#86 = CARTESIAN_POINT('',(-1.5,69.,2.5));
#87 = VECTOR('',#88,1.);
#88 = DIRECTION('',(1.,0.,0.));
#89 = ORIENTED_EDGE('',*,*,#90,.F.);
#90 = EDGE_CURVE('',#91,#83,#93,.T.);
#91 = VERTEX_POINT('',#92);
#92 = CARTESIAN_POINT('',(-2.5,71.,2.5));
#93 = LINE('',#94,#95);
#94 = CARTESIAN_POINT('',(15.875,52.625,2.5));
#95 = VECTOR('',#96,1.);
#96 = DIRECTION('',(0.707106781187,-0.707106781187,0.));
#97 = ORIENTED_EDGE('',*,*,#98,.F.);
#98 = EDGE_CURVE('',#99,#91,#101,.T.);
#99 = VERTEX_POINT('',#100);
#100 = CARTESIAN_POINT('',(-2.5,89.,2.5));
#101 = LINE('',#102,#103);
#102 = CARTESIAN_POINT('',(-2.5,90.,2.5));
#103 = VECTOR('',#104,1.);
#104 = DIRECTION('',(0.,-1.,0.));
#105 = ORIENTED_EDGE('',*,*,#106,.T.);
#106 = EDGE_CURVE('',#99,#33,#107,.T.);
#107 = LINE('',#108,#109);
#108 = CARTESIAN_POINT('',(-1.5,89.,2.5));
#109 = VECTOR('',#110,1.);
#110 = DIRECTION('',(-1.,0.,0.));
#111 = FACE_BOUND('',#112,.T.);
#112 = EDGE_LOOP('',(#113));
#113 = ORIENTED_EDGE('',*,*,#114,.F.);
#114 = EDGE_CURVE('',#115,#115,#117,.T.);
#115 = VERTEX_POINT('',#116);
#116 = CARTESIAN_POINT('',(-59.4,-80.,2.5));
#117 = CIRCLE('',#118,5.1);
#118 = AXIS2_PLACEMENT_3D('',#119,#120,#121);
#119 = CARTESIAN_POINT('',(-64.5,-80.,2.5));
#120 = DIRECTION('',(0.,0.,1.));
#121 = DIRECTION('',(1.,0.,0.));
#122 = FACE_BOUND('',#123,.T.);
#123 = EDGE_LOOP('',(#124));
#124 = ORIENTED_EDGE('',*,*,#125,.F.);
#125 = EDGE_CURVE('',#126,#126,#128,.T.);
#126 = VERTEX_POINT('',#127);
#127 = CARTESIAN_POINT('',(-7.,-80.,2.5));
#128 = CIRCLE('',#129,5.1);
#129 = AXIS2_PLACEMENT_3D('',#130,#131,#132);
#130 = CARTESIAN_POINT('',(-12.1,-80.,2.5));
#131 = DIRECTION('',(0.,0.,1.));
#132 = DIRECTION('',(1.,0.,0.));
#133 = FACE_BOUND('',#134,.T.);
#134 = EDGE_LOOP('',(#135));
#135 = ORIENTED_EDGE('',*,*,#136,.F.);
#136 = EDGE_CURVE('',#137,#137,#139,.T.);
#137 = VERTEX_POINT('',#138);
#138 = CARTESIAN_POINT('',(-52.4,0.,2.5));
#139 = CIRCLE('',#140,4.1);
#140 = AXIS2_PLACEMENT_3D('',#141,#142,#143);
#141 = CARTESIAN_POINT('',(-56.5,0.,2.5));
#142 = DIRECTION('',(0.,0.,1.));
#143 = DIRECTION('',(1.,0.,0.));
#144 = FACE_BOUND('',#145,.T.);
#145 = EDGE_LOOP('',(#146));
#146 = ORIENTED_EDGE('',*,*,#147,.F.);
#147 = EDGE_CURVE('',#148,#148,#150,.T.);
#148 = VERTEX_POINT('',#149);
#149 = CARTESIAN_POINT('',(-37.55,-15.5,2.5));
#150 = CIRCLE('',#151,2.95);
#151 = AXIS2_PLACEMENT_3D('',#152,#153,#154);
#152 = CARTESIAN_POINT('',(-40.5,-15.5,2.5));
#153 = DIRECTION('',(0.,0.,1.));
#154 = DIRECTION('',(1.,0.,0.));
#155 = FACE_BOUND('',#156,.T.);
#156 = EDGE_LOOP('',(#157));
#157 = ORIENTED_EDGE('',*,*,#158,.F.);
#158 = EDGE_CURVE('',#159,#159,#161,.T.);
#159 = VERTEX_POINT('',#160);
#160 = CARTESIAN_POINT('',(-12.5,0.,2.5));
#161 = CIRCLE('',#162,12.5);
#162 = AXIS2_PLACEMENT_3D('',#163,#164,#165);
#163 = CARTESIAN_POINT('',(-25.,0.,2.5));
#164 = DIRECTION('',(0.,0.,1.));
#165 = DIRECTION('',(1.,0.,0.));
#166 = FACE_BOUND('',#167,.T.);
#167 = EDGE_LOOP('',(#168));
#168 = ORIENTED_EDGE('',*,*,#169,.F.);
#169 = EDGE_CURVE('',#170,#170,#172,.T.);
#170 = VERTEX_POINT('',#171);
#171 = CARTESIAN_POINT('',(-6.55,-15.5,2.5));
#172 = CIRCLE('',#173,2.95);
#173 = AXIS2_PLACEMENT_3D('',#174,#175,#176);
#174 = CARTESIAN_POINT('',(-9.5,-15.5,2.5));
#175 = DIRECTION('',(0.,0.,1.));
#176 = DIRECTION('',(1.,0.,0.));
#177 = FACE_BOUND('',#178,.T.);
#178 = EDGE_LOOP('',(#179));
#179 = ORIENTED_EDGE('',*,*,#180,.F.);
#180 = EDGE_CURVE('',#181,#181,#183,.T.);
#181 = VERTEX_POINT('',#182);
#182 = CARTESIAN_POINT('',(10.6,0.,2.5));
#183 = CIRCLE('',#184,4.1);
#184 = AXIS2_PLACEMENT_3D('',#185,#186,#187);
#185 = CARTESIAN_POINT('',(6.5,0.,2.5));
#186 = DIRECTION('',(0.,0.,1.));
#187 = DIRECTION('',(1.,0.,0.));
#188 = FACE_BOUND('',#189,.T.);
#189 = EDGE_LOOP('',(#190,#201,#209,#218));
#190 = ORIENTED_EDGE('',*,*,#191,.F.);
#191 = EDGE_CURVE('',#192,#194,#196,.T.);
#192 = VERTEX_POINT('',#193);
#193 = CARTESIAN_POINT('',(37.25,15.,2.5));
#194 = VERTEX_POINT('',#195);
#195 = CARTESIAN_POINT('',(23.25,15.,2.5));
#196 = CIRCLE('',#197,7.);
#197 = AXIS2_PLACEMENT_3D('',#198,#199,#200);
#198 = CARTESIAN_POINT('',(30.25,15.,2.5));
#199 = DIRECTION('',(0.,-0.,1.));
#200 = DIRECTION('',(1.,3.E-16,0.));
#201 = ORIENTED_EDGE('',*,*,#202,.F.);
#202 = EDGE_CURVE('',#203,#192,#205,.T.);
#203 = VERTEX_POINT('',#204);
#204 = CARTESIAN_POINT('',(37.25,-15.,2.5));
#205 = LINE('',#206,#207);
#206 = CARTESIAN_POINT('',(37.25,-15.,2.5));
#207 = VECTOR('',#208,1.);
#208 = DIRECTION('',(0.,1.,0.));
#209 = ORIENTED_EDGE('',*,*,#210,.F.);
#210 = EDGE_CURVE('',#211,#203,#213,.T.);
#211 = VERTEX_POINT('',#212);
#212 = CARTESIAN_POINT('',(23.25,-15.,2.5));
#213 = CIRCLE('',#214,7.);
#214 = AXIS2_PLACEMENT_3D('',#215,#216,#217);
#215 = CARTESIAN_POINT('',(30.25,-15.,2.5));
#216 = DIRECTION('',(0.,0.,1.));
#217 = DIRECTION('',(-1.,0.,0.));
#218 = ORIENTED_EDGE('',*,*,#219,.F.);
#219 = EDGE_CURVE('',#194,#211,#220,.T.);
#220 = LINE('',#221,#222);
#221 = CARTESIAN_POINT('',(23.25,15.,2.5));
#222 = VECTOR('',#223,1.);
#223 = DIRECTION('',(-1.2E-16,-1.,0.));
#224 = FACE_BOUND('',#225,.T.);
#225 = EDGE_LOOP('',(#226));
#226 = ORIENTED_EDGE('',*,*,#227,.F.);
#227 = EDGE_CURVE('',#228,#228,#230,.T.);
#228 = VERTEX_POINT('',#229);
#229 = CARTESIAN_POINT('',(-37.55,15.5,2.5));
#230 = CIRCLE('',#231,2.95);
#231 = AXIS2_PLACEMENT_3D('',#232,#233,#234);
#232 = CARTESIAN_POINT('',(-40.5,15.5,2.5));
#233 = DIRECTION('',(0.,0.,1.));
#234 = DIRECTION('',(1.,0.,0.));
#235 = FACE_BOUND('',#236,.T.);
#236 = EDGE_LOOP('',(#237));
#237 = ORIENTED_EDGE('',*,*,#238,.F.);
#238 = EDGE_CURVE('',#239,#239,#241,.T.);
#239 = VERTEX_POINT('',#240);
#240 = CARTESIAN_POINT('',(-6.55,15.5,2.5));
#241 = CIRCLE('',#242,2.95);
#242 = AXIS2_PLACEMENT_3D('',#243,#244,#245);
#243 = CARTESIAN_POINT('',(-9.5,15.5,2.5));
#244 = DIRECTION('',(0.,0.,1.));
#245 = DIRECTION('',(1.,0.,0.));
#246 = FACE_BOUND('',#247,.T.);
#247 = EDGE_LOOP('',(#248));
#248 = ORIENTED_EDGE('',*,*,#249,.F.);
#249 = EDGE_CURVE('',#250,#250,#252,.T.);
#250 = VERTEX_POINT('',#251);
#251 = CARTESIAN_POINT('',(-59.4,80.,2.5));
#252 = CIRCLE('',#253,5.1);
#253 = AXIS2_PLACEMENT_3D('',#254,#255,#256);
#254 = CARTESIAN_POINT('',(-64.5,80.,2.5));
#255 = DIRECTION('',(0.,0.,1.));
#256 = DIRECTION('',(1.,0.,0.));
#257 = FACE_BOUND('',#258,.T.);
#258 = EDGE_LOOP('',(#259));
#259 = ORIENTED_EDGE('',*,*,#260,.F.);
#260 = EDGE_CURVE('',#261,#261,#263,.T.);
#261 = VERTEX_POINT('',#262);
#262 = CARTESIAN_POINT('',(-7.,80.,2.5));
#263 = CIRCLE('',#264,5.1);
#264 = AXIS2_PLACEMENT_3D('',#265,#266,#267);
#265 = CARTESIAN_POINT('',(-12.1,80.,2.5));
#266 = DIRECTION('',(0.,0.,1.));
#267 = DIRECTION('',(1.,0.,0.));
#268 = FACE_BOUND('',#269,.T.);
#269 = EDGE_LOOP('',(#270));
#270 = ORIENTED_EDGE('',*,*,#271,.F.);
#271 = EDGE_CURVE('',#272,#272,#274,.T.);
#272 = VERTEX_POINT('',#273);
#273 = CARTESIAN_POINT('',(42.75,48.5,2.5));
#274 = CIRCLE('',#275,12.5);
#275 = AXIS2_PLACEMENT_3D('',#276,#277,#278);
#276 = CARTESIAN_POINT('',(30.25,48.5,2.5));
#277 = DIRECTION('',(0.,0.,1.));
#278 = DIRECTION('',(1.,0.,0.));
#279 = FACE_BOUND('',#280,.T.);
#280 = EDGE_LOOP('',(#281));
#281 = ORIENTED_EDGE('',*,*,#282,.F.);
#282 = EDGE_CURVE('',#283,#283,#285,.T.);
#283 = VERTEX_POINT('',#284);
#284 = CARTESIAN_POINT('',(52.15,-28.5,2.5));
#285 = CIRCLE('',#286,2.95);
#286 = AXIS2_PLACEMENT_3D('',#287,#288,#289);
#287 = CARTESIAN_POINT('',(49.2,-28.5,2.5));
#288 = DIRECTION('',(0.,0.,1.));
#289 = DIRECTION('',(1.,0.,0.));
#290 = PLANE('',#291);
#291 = AXIS2_PLACEMENT_3D('',#292,#293,#294);
#292 = CARTESIAN_POINT('',(0.,0.,2.5));
#293 = DIRECTION('',(0.,0.,1.));
#294 = DIRECTION('',(1.,0.,0.));
#295 = ADVANCED_FACE('',(#296),#315,.F.);
#296 = FACE_BOUND('',#297,.T.);
#297 = EDGE_LOOP('',(#298,#306,#307,#308));
#298 = ORIENTED_EDGE('',*,*,#299,.F.);
#299 = EDGE_CURVE('',#22,#300,#302,.T.);
#300 = VERTEX_POINT('',#301);
#301 = CARTESIAN_POINT('',(50.7,28.5,0.7));
#302 = LINE('',#303,#304);
#303 = CARTESIAN_POINT('',(50.7,28.5,0.7));
#304 = VECTOR('',#305,1.);
#305 = DIRECTION('',(-0.627329537873,-0.,-0.778753909083));
#306 = ORIENTED_EDGE('',*,*,#21,.T.);
#307 = ORIENTED_EDGE('',*,*,#299,.T.);
#308 = ORIENTED_EDGE('',*,*,#309,.F.);
#309 = EDGE_CURVE('',#300,#300,#310,.T.);
#310 = CIRCLE('',#311,1.5);
#311 = AXIS2_PLACEMENT_3D('',#312,#313,#314);
#312 = CARTESIAN_POINT('',(49.2,28.5,0.7));
#313 = DIRECTION('',(0.,0.,1.));
#314 = DIRECTION('',(1.,0.,0.));
#315 = CONICAL_SURFACE('',#316,1.5,0.678119307749);
#316 = AXIS2_PLACEMENT_3D('',#317,#318,#319);
#317 = CARTESIAN_POINT('',(49.2,28.5,0.7));
#318 = DIRECTION('',(0.,0.,1.));
#319 = DIRECTION('',(1.,0.,0.));
#320 = ADVANCED_FACE('',(#321),#362,.F.);
#321 = FACE_BOUND('',#322,.F.);
#322 = EDGE_LOOP('',(#323,#333,#339,#340,#348,#356));
#323 = ORIENTED_EDGE('',*,*,#324,.T.);
#324 = EDGE_CURVE('',#325,#327,#329,.T.);
#325 = VERTEX_POINT('',#326);
#326 = CARTESIAN_POINT('',(-75.,90.,-2.5));
#327 = VERTEX_POINT('',#328);
#328 = CARTESIAN_POINT('',(-75.,90.,1.5));
#329 = LINE('',#330,#331);
#330 = CARTESIAN_POINT('',(-75.,90.,-2.5));
#331 = VECTOR('',#332,1.);
#332 = DIRECTION('',(0.,0.,1.));
#333 = ORIENTED_EDGE('',*,*,#334,.F.);
#334 = EDGE_CURVE('',#33,#327,#335,.T.);
#335 = LINE('',#336,#337);
#336 = CARTESIAN_POINT('',(-75.,90.75,0.75));
#337 = VECTOR('',#338,1.);
#338 = DIRECTION('',(0.,0.707106781187,-0.707106781187));
#339 = ORIENTED_EDGE('',*,*,#32,.T.);
#340 = ORIENTED_EDGE('',*,*,#341,.T.);
#341 = EDGE_CURVE('',#35,#342,#344,.T.);
#342 = VERTEX_POINT('',#343);
#343 = CARTESIAN_POINT('',(-75.,-90.,1.5));
#344 = LINE('',#345,#346);
#345 = CARTESIAN_POINT('',(-75.,-45.75,45.75));
#346 = VECTOR('',#347,1.);
#347 = DIRECTION('',(0.,-0.707106781187,-0.707106781187));
#348 = ORIENTED_EDGE('',*,*,#349,.F.);
#349 = EDGE_CURVE('',#350,#342,#352,.T.);
#350 = VERTEX_POINT('',#351);
#351 = CARTESIAN_POINT('',(-75.,-90.,-2.5));
#352 = LINE('',#353,#354);
#353 = CARTESIAN_POINT('',(-75.,-90.,-2.5));
#354 = VECTOR('',#355,1.);
#355 = DIRECTION('',(0.,0.,1.));
#356 = ORIENTED_EDGE('',*,*,#357,.F.);
#357 = EDGE_CURVE('',#325,#350,#358,.T.);
#358 = LINE('',#359,#360);
#359 = CARTESIAN_POINT('',(-75.,90.,-2.5));
#360 = VECTOR('',#361,1.);
#361 = DIRECTION('',(0.,-1.,0.));
#362 = PLANE('',#363);
#363 = AXIS2_PLACEMENT_3D('',#364,#365,#366);
#364 = CARTESIAN_POINT('',(-75.,90.,-2.5));
#365 = DIRECTION('',(1.,0.,0.));
#366 = DIRECTION('',(0.,-1.,0.));
#367 = ADVANCED_FACE('',(#368),#386,.F.);
#368 = FACE_BOUND('',#369,.F.);
#369 = EDGE_LOOP('',(#370,#371,#372,#380));
#370 = ORIENTED_EDGE('',*,*,#106,.T.);
#371 = ORIENTED_EDGE('',*,*,#334,.T.);
#372 = ORIENTED_EDGE('',*,*,#373,.F.);
#373 = EDGE_CURVE('',#374,#327,#376,.T.);
#374 = VERTEX_POINT('',#375);
#375 = CARTESIAN_POINT('',(-2.5,90.,1.5));
#376 = LINE('',#377,#378);
#377 = CARTESIAN_POINT('',(-1.5,90.,1.5));
#378 = VECTOR('',#379,1.);
#379 = DIRECTION('',(-1.,0.,0.));
#380 = ORIENTED_EDGE('',*,*,#381,.F.);
#381 = EDGE_CURVE('',#99,#374,#382,.T.);
#382 = LINE('',#383,#384);
#383 = CARTESIAN_POINT('',(-2.5,89.5,2.));
#384 = VECTOR('',#385,1.);
#385 = DIRECTION('',(7.4E-15,0.707106781187,-0.707106781187));
#386 = PLANE('',#387);
#387 = AXIS2_PLACEMENT_3D('',#388,#389,#390);
#388 = CARTESIAN_POINT('',(-1.5,89.5,2.));
#389 = DIRECTION('',(0.,-0.707106781187,-0.707106781187));
#390 = DIRECTION('',(-1.,0.,0.));
#391 = ADVANCED_FACE('',(#392),#410,.F.);
#392 = FACE_BOUND('',#393,.F.);
#393 = EDGE_LOOP('',(#394,#395,#396,#404));
#394 = ORIENTED_EDGE('',*,*,#341,.F.);
#395 = ORIENTED_EDGE('',*,*,#42,.T.);
#396 = ORIENTED_EDGE('',*,*,#397,.T.);
#397 = EDGE_CURVE('',#43,#398,#400,.T.);
#398 = VERTEX_POINT('',#399);
#399 = CARTESIAN_POINT('',(-2.5,-90.,1.5));
#400 = LINE('',#401,#402);
#401 = CARTESIAN_POINT('',(-2.5,-89.5,2.));
#402 = VECTOR('',#403,1.);
#403 = DIRECTION('',(5.19E-15,-0.707106781187,-0.707106781187));
#404 = ORIENTED_EDGE('',*,*,#405,.F.);
#405 = EDGE_CURVE('',#342,#398,#406,.T.);
#406 = LINE('',#407,#408);
#407 = CARTESIAN_POINT('',(-75.,-90.,1.5));
#408 = VECTOR('',#409,1.);
#409 = DIRECTION('',(1.,0.,0.));
#410 = PLANE('',#411);
#411 = AXIS2_PLACEMENT_3D('',#412,#413,#414);
#412 = CARTESIAN_POINT('',(-75.,-89.5,2.));
#413 = DIRECTION('',(0.,0.707106781187,-0.707106781187));
#414 = DIRECTION('',(1.,0.,0.));
#415 = ADVANCED_FACE('',(#416),#441,.F.);
#416 = FACE_BOUND('',#417,.T.);
#417 = EDGE_LOOP('',(#418,#426,#427,#435));
#418 = ORIENTED_EDGE('',*,*,#419,.T.);
#419 = EDGE_CURVE('',#420,#99,#422,.T.);
#420 = VERTEX_POINT('',#421);
#421 = CARTESIAN_POINT('',(-1.5,89.,1.5));
#422 = LINE('',#423,#424);
#423 = CARTESIAN_POINT('',(-1.75,89.,1.75));
#424 = VECTOR('',#425,1.);
#425 = DIRECTION('',(-0.707106781187,-1.9E-16,0.707106781187));
#426 = ORIENTED_EDGE('',*,*,#98,.T.);
#427 = ORIENTED_EDGE('',*,*,#428,.T.);
#428 = EDGE_CURVE('',#91,#429,#431,.T.);
#429 = VERTEX_POINT('',#430);
#430 = CARTESIAN_POINT('',(-1.5,71.,1.5));
#431 = LINE('',#432,#433);
#432 = CARTESIAN_POINT('',(-2.25,71.,2.25));
#433 = VECTOR('',#434,1.);
#434 = DIRECTION('',(0.707106781187,3.8E-16,-0.707106781187));
#435 = ORIENTED_EDGE('',*,*,#436,.F.);
#436 = EDGE_CURVE('',#420,#429,#437,.T.);
#437 = LINE('',#438,#439);
#438 = CARTESIAN_POINT('',(-1.5,90.,1.5));
#439 = VECTOR('',#440,1.);
#440 = DIRECTION('',(0.,-1.,0.));
#441 = PLANE('',#442);
#442 = AXIS2_PLACEMENT_3D('',#443,#444,#445);
#443 = CARTESIAN_POINT('',(-2.,90.,2.));
#444 = DIRECTION('',(-0.707106781187,0.,-0.707106781187));
#445 = DIRECTION('',(0.,1.,0.));
#446 = ADVANCED_FACE('',(#447),#472,.F.);
#447 = FACE_BOUND('',#448,.T.);
#448 = EDGE_LOOP('',(#449,#457,#458,#466));
#449 = ORIENTED_EDGE('',*,*,#450,.F.);
#450 = EDGE_CURVE('',#51,#451,#453,.T.);
#451 = VERTEX_POINT('',#452);
#452 = CARTESIAN_POINT('',(-1.5,-71.,1.5));
#453 = LINE('',#454,#455);
#454 = CARTESIAN_POINT('',(-1.75,-71.,1.75));
#455 = VECTOR('',#456,1.);
#456 = DIRECTION('',(0.707106781187,-7.5E-15,-0.707106781187));
#457 = ORIENTED_EDGE('',*,*,#50,.T.);
#458 = ORIENTED_EDGE('',*,*,#459,.F.);
#459 = EDGE_CURVE('',#460,#43,#462,.T.);
#460 = VERTEX_POINT('',#461);
#461 = CARTESIAN_POINT('',(-1.5,-89.,1.5));
#462 = LINE('',#463,#464);
#463 = CARTESIAN_POINT('',(-1.75,-89.,1.75));
#464 = VECTOR('',#465,1.);
#465 = DIRECTION('',(-0.707106781187,1.9E-16,0.707106781187));
#466 = ORIENTED_EDGE('',*,*,#467,.F.);
#467 = EDGE_CURVE('',#451,#460,#468,.T.);
#468 = LINE('',#469,#470);
#469 = CARTESIAN_POINT('',(-1.5,-70.,1.5));
#470 = VECTOR('',#471,1.);
#471 = DIRECTION('',(0.,-1.,0.));
#472 = PLANE('',#473);
#473 = AXIS2_PLACEMENT_3D('',#474,#475,#476);
#474 = CARTESIAN_POINT('',(-2.,-70.,2.));
#475 = DIRECTION('',(-0.707106781187,0.,-0.707106781187));
#476 = DIRECTION('',(0.,1.,0.));
#477 = ADVANCED_FACE('',(#478),#496,.T.);
#478 = FACE_BOUND('',#479,.T.);
#479 = EDGE_LOOP('',(#480,#481,#482,#490));
#480 = ORIENTED_EDGE('',*,*,#428,.F.);
#481 = ORIENTED_EDGE('',*,*,#90,.T.);
#482 = ORIENTED_EDGE('',*,*,#483,.T.);
#483 = EDGE_CURVE('',#83,#484,#486,.T.);
#484 = VERTEX_POINT('',#485);
#485 = CARTESIAN_POINT('',(-0.5,70.,1.5));
#486 = LINE('',#487,#488);
#487 = CARTESIAN_POINT('',(-0.5,69.75,1.75));
#488 = VECTOR('',#489,1.);
#489 = DIRECTION('',(-3.08E-15,0.707106781187,-0.707106781187));
#490 = ORIENTED_EDGE('',*,*,#491,.F.);
#491 = EDGE_CURVE('',#429,#484,#492,.T.);
#492 = LINE('',#493,#494);
#493 = CARTESIAN_POINT('',(-1.5,71.,1.5));
#494 = VECTOR('',#495,1.);
#495 = DIRECTION('',(0.707106781187,-0.707106781187,3.46E-15));
#496 = PLANE('',#497);
#497 = AXIS2_PLACEMENT_3D('',#498,#499,#500);
#498 = CARTESIAN_POINT('',(-2.5,71.,2.5));
#499 = DIRECTION('',(0.57735026919,0.57735026919,0.57735026919));
#500 = DIRECTION('',(0.707106781187,-0.707106781187,4.218847493576E-15)
  );
#501 = ADVANCED_FACE('',(#502),#520,.T.);
#502 = FACE_BOUND('',#503,.T.);
#503 = EDGE_LOOP('',(#504,#512,#513,#514));
#504 = ORIENTED_EDGE('',*,*,#505,.F.);
#505 = EDGE_CURVE('',#59,#506,#508,.T.);
#506 = VERTEX_POINT('',#507);
#507 = CARTESIAN_POINT('',(-0.5,-70.,1.5));
#508 = LINE('',#509,#510);
#509 = CARTESIAN_POINT('',(-0.5,-69.25,2.25));
#510 = VECTOR('',#511,1.);
#511 = DIRECTION('',(4.04E-15,-0.707106781187,-0.707106781187));
#512 = ORIENTED_EDGE('',*,*,#58,.T.);
#513 = ORIENTED_EDGE('',*,*,#450,.T.);
#514 = ORIENTED_EDGE('',*,*,#515,.F.);
#515 = EDGE_CURVE('',#506,#451,#516,.T.);
#516 = LINE('',#517,#518);
#517 = CARTESIAN_POINT('',(-0.5,-70.,1.5));
#518 = VECTOR('',#519,1.);
#519 = DIRECTION('',(-0.707106781187,-0.707106781187,-3.46E-15));
#520 = PLANE('',#521);
#521 = AXIS2_PLACEMENT_3D('',#522,#523,#524);
#522 = CARTESIAN_POINT('',(-0.5,-69.,2.5));
#523 = DIRECTION('',(0.57735026919,-0.57735026919,0.57735026919));
#524 = DIRECTION('',(-0.707106781187,-0.707106781187,-4.218847493576E-15
    ));
#525 = ADVANCED_FACE('',(#526),#544,.F.);
#526 = FACE_BOUND('',#527,.T.);
#527 = EDGE_LOOP('',(#528,#529,#530,#538));
#528 = ORIENTED_EDGE('',*,*,#483,.F.);
#529 = ORIENTED_EDGE('',*,*,#82,.T.);
#530 = ORIENTED_EDGE('',*,*,#531,.F.);
#531 = EDGE_CURVE('',#532,#75,#534,.T.);
#532 = VERTEX_POINT('',#533);
#533 = CARTESIAN_POINT('',(74.,70.,1.5));
#534 = LINE('',#535,#536);
#535 = CARTESIAN_POINT('',(74.,69.5,2.));
#536 = VECTOR('',#537,1.);
#537 = DIRECTION('',(-1.35E-15,-0.707106781187,0.707106781187));
#538 = ORIENTED_EDGE('',*,*,#539,.F.);
#539 = EDGE_CURVE('',#484,#532,#540,.T.);
#540 = LINE('',#541,#542);
#541 = CARTESIAN_POINT('',(-1.5,70.,1.5));
#542 = VECTOR('',#543,1.);
#543 = DIRECTION('',(1.,0.,0.));
#544 = PLANE('',#545);
#545 = AXIS2_PLACEMENT_3D('',#546,#547,#548);
#546 = CARTESIAN_POINT('',(-1.5,69.5,2.));
#547 = DIRECTION('',(0.,-0.707106781187,-0.707106781187));
#548 = DIRECTION('',(-1.,-0.,-0.));
#549 = ADVANCED_FACE('',(#550),#568,.F.);
#550 = FACE_BOUND('',#551,.T.);
#551 = EDGE_LOOP('',(#552,#560,#561,#562));
#552 = ORIENTED_EDGE('',*,*,#553,.T.);
#553 = EDGE_CURVE('',#554,#67,#556,.T.);
#554 = VERTEX_POINT('',#555);
#555 = CARTESIAN_POINT('',(74.,-70.,1.5));
#556 = LINE('',#557,#558);
#557 = CARTESIAN_POINT('',(74.,-69.75,1.75));
#558 = VECTOR('',#559,1.);
#559 = DIRECTION('',(-1.35E-15,0.707106781187,0.707106781187));
#560 = ORIENTED_EDGE('',*,*,#66,.T.);
#561 = ORIENTED_EDGE('',*,*,#505,.T.);
#562 = ORIENTED_EDGE('',*,*,#563,.F.);
#563 = EDGE_CURVE('',#554,#506,#564,.T.);
#564 = LINE('',#565,#566);
#565 = CARTESIAN_POINT('',(75.,-70.,1.5));
#566 = VECTOR('',#567,1.);
#567 = DIRECTION('',(-1.,0.,0.));
#568 = PLANE('',#569);
#569 = AXIS2_PLACEMENT_3D('',#570,#571,#572);
#570 = CARTESIAN_POINT('',(75.,-69.5,2.));
#571 = DIRECTION('',(0.,0.707106781187,-0.707106781187));
#572 = DIRECTION('',(1.,0.,0.));
#573 = ADVANCED_FACE('',(#574),#599,.F.);
#574 = FACE_BOUND('',#575,.F.);
#575 = EDGE_LOOP('',(#576,#577,#585,#593));
#576 = ORIENTED_EDGE('',*,*,#74,.T.);
#577 = ORIENTED_EDGE('',*,*,#578,.F.);
#578 = EDGE_CURVE('',#579,#75,#581,.T.);
#579 = VERTEX_POINT('',#580);
#580 = CARTESIAN_POINT('',(75.,69.,1.5));
#581 = LINE('',#582,#583);
#582 = CARTESIAN_POINT('',(74.75,69.,1.75));
#583 = VECTOR('',#584,1.);
#584 = DIRECTION('',(-0.707106781187,-1.35E-15,0.707106781187));
#585 = ORIENTED_EDGE('',*,*,#586,.F.);
#586 = EDGE_CURVE('',#587,#579,#589,.T.);
#587 = VERTEX_POINT('',#588);
#588 = CARTESIAN_POINT('',(75.,-69.,1.5));
#589 = LINE('',#590,#591);
#590 = CARTESIAN_POINT('',(75.,-70.,1.5));
#591 = VECTOR('',#592,1.);
#592 = DIRECTION('',(0.,1.,0.));
#593 = ORIENTED_EDGE('',*,*,#594,.F.);
#594 = EDGE_CURVE('',#67,#587,#595,.T.);
#595 = LINE('',#596,#597);
#596 = CARTESIAN_POINT('',(74.5,-69.,2.));
#597 = VECTOR('',#598,1.);
#598 = DIRECTION('',(0.707106781187,-1.35E-15,-0.707106781187));
#599 = PLANE('',#600);
#600 = AXIS2_PLACEMENT_3D('',#601,#602,#603);
#601 = CARTESIAN_POINT('',(74.5,-70.,2.));
#602 = DIRECTION('',(-0.707106781187,0.,-0.707106781187));
#603 = DIRECTION('',(0.,1.,0.));
#604 = ADVANCED_FACE('',(#605),#624,.F.);
#605 = FACE_BOUND('',#606,.T.);
#606 = EDGE_LOOP('',(#607,#615,#616,#617));
#607 = ORIENTED_EDGE('',*,*,#608,.F.);
#608 = EDGE_CURVE('',#115,#609,#611,.T.);
#609 = VERTEX_POINT('',#610);
#610 = CARTESIAN_POINT('',(-61.9,-80.,-0.3));
#611 = LINE('',#612,#613);
#612 = CARTESIAN_POINT('',(-61.9,-80.,-0.3));
#613 = VECTOR('',#614,1.);
#614 = DIRECTION('',(-0.666015769309,-0.,-0.745937661626));
#615 = ORIENTED_EDGE('',*,*,#114,.T.);
#616 = ORIENTED_EDGE('',*,*,#608,.T.);
#617 = ORIENTED_EDGE('',*,*,#618,.F.);
#618 = EDGE_CURVE('',#609,#609,#619,.T.);
#619 = CIRCLE('',#620,2.6);
#620 = AXIS2_PLACEMENT_3D('',#621,#622,#623);
#621 = CARTESIAN_POINT('',(-64.5,-80.,-0.3));
#622 = DIRECTION('',(0.,0.,1.));
#623 = DIRECTION('',(1.,0.,0.));
#624 = CONICAL_SURFACE('',#625,2.6,0.728854726453);
#625 = AXIS2_PLACEMENT_3D('',#626,#627,#628);
#626 = CARTESIAN_POINT('',(-64.5,-80.,-0.3));
#627 = DIRECTION('',(0.,0.,1.));
#628 = DIRECTION('',(1.,0.,0.));
#629 = ADVANCED_FACE('',(#630),#649,.F.);
#630 = FACE_BOUND('',#631,.T.);
#631 = EDGE_LOOP('',(#632,#640,#641,#642));
#632 = ORIENTED_EDGE('',*,*,#633,.F.);
#633 = EDGE_CURVE('',#126,#634,#636,.T.);
#634 = VERTEX_POINT('',#635);
#635 = CARTESIAN_POINT('',(-9.5,-80.,-0.3));
#636 = LINE('',#637,#638);
#637 = CARTESIAN_POINT('',(-9.5,-80.,-0.3));
#638 = VECTOR('',#639,1.);
#639 = DIRECTION('',(-0.666015769309,-0.,-0.745937661626));
#640 = ORIENTED_EDGE('',*,*,#125,.T.);
#641 = ORIENTED_EDGE('',*,*,#633,.T.);
#642 = ORIENTED_EDGE('',*,*,#643,.F.);
#643 = EDGE_CURVE('',#634,#634,#644,.T.);
#644 = CIRCLE('',#645,2.6);
#645 = AXIS2_PLACEMENT_3D('',#646,#647,#648);
#646 = CARTESIAN_POINT('',(-12.1,-80.,-0.3));
#647 = DIRECTION('',(0.,0.,1.));
#648 = DIRECTION('',(1.,0.,0.));
#649 = CONICAL_SURFACE('',#650,2.6,0.728854726453);
#650 = AXIS2_PLACEMENT_3D('',#651,#652,#653);
#651 = CARTESIAN_POINT('',(-12.1,-80.,-0.3));
#652 = DIRECTION('',(0.,0.,1.));
#653 = DIRECTION('',(1.,0.,0.));
#654 = ADVANCED_FACE('',(#655),#674,.F.);
#655 = FACE_BOUND('',#656,.F.);
#656 = EDGE_LOOP('',(#657,#658,#666,#673));
#657 = ORIENTED_EDGE('',*,*,#136,.F.);
#658 = ORIENTED_EDGE('',*,*,#659,.T.);
#659 = EDGE_CURVE('',#137,#660,#662,.T.);
#660 = VERTEX_POINT('',#661);
#661 = CARTESIAN_POINT('',(-52.4,0.,-2.5));
#662 = LINE('',#663,#664);
#663 = CARTESIAN_POINT('',(-52.4,0.,2.5));
#664 = VECTOR('',#665,1.);
#665 = DIRECTION('',(-0.,-0.,-1.));
#666 = ORIENTED_EDGE('',*,*,#667,.T.);
#667 = EDGE_CURVE('',#660,#660,#668,.T.);
#668 = CIRCLE('',#669,4.1);
#669 = AXIS2_PLACEMENT_3D('',#670,#671,#672);
#670 = CARTESIAN_POINT('',(-56.5,0.,-2.5));
#671 = DIRECTION('',(0.,0.,1.));
#672 = DIRECTION('',(1.,0.,0.));
#673 = ORIENTED_EDGE('',*,*,#659,.F.);
#674 = CYLINDRICAL_SURFACE('',#675,4.1);
#675 = AXIS2_PLACEMENT_3D('',#676,#677,#678);
#676 = CARTESIAN_POINT('',(-56.5,0.,2.5));
#677 = DIRECTION('',(0.,0.,1.));
#678 = DIRECTION('',(1.,0.,0.));
#679 = ADVANCED_FACE('',(#680),#699,.F.);
#680 = FACE_BOUND('',#681,.T.);
#681 = EDGE_LOOP('',(#682,#690,#691,#692));
#682 = ORIENTED_EDGE('',*,*,#683,.F.);
#683 = EDGE_CURVE('',#148,#684,#686,.T.);
#684 = VERTEX_POINT('',#685);
#685 = CARTESIAN_POINT('',(-39.,-15.5,0.7));
#686 = LINE('',#687,#688);
#687 = CARTESIAN_POINT('',(-39.,-15.5,0.7));
#688 = VECTOR('',#689,1.);
#689 = DIRECTION('',(-0.627329537873,-0.,-0.778753909083));
#690 = ORIENTED_EDGE('',*,*,#147,.T.);
#691 = ORIENTED_EDGE('',*,*,#683,.T.);
#692 = ORIENTED_EDGE('',*,*,#693,.F.);
#693 = EDGE_CURVE('',#684,#684,#694,.T.);
#694 = CIRCLE('',#695,1.5);
#695 = AXIS2_PLACEMENT_3D('',#696,#697,#698);
#696 = CARTESIAN_POINT('',(-40.5,-15.5,0.7));
#697 = DIRECTION('',(0.,0.,1.));
#698 = DIRECTION('',(1.,0.,0.));
#699 = CONICAL_SURFACE('',#700,1.5,0.678119307749);
#700 = AXIS2_PLACEMENT_3D('',#701,#702,#703);
#701 = CARTESIAN_POINT('',(-40.5,-15.5,0.7));
#702 = DIRECTION('',(0.,0.,1.));
#703 = DIRECTION('',(1.,0.,0.));
#704 = ADVANCED_FACE('',(#705),#724,.F.);
#705 = FACE_BOUND('',#706,.T.);
#706 = EDGE_LOOP('',(#707,#715,#716,#717));
#707 = ORIENTED_EDGE('',*,*,#708,.F.);
#708 = EDGE_CURVE('',#159,#709,#711,.T.);
#709 = VERTEX_POINT('',#710);
#710 = CARTESIAN_POINT('',(-13.5,0.,1.5));
#711 = LINE('',#712,#713);
#712 = CARTESIAN_POINT('',(-13.5,0.,1.5));
#713 = VECTOR('',#714,1.);
#714 = DIRECTION('',(-0.707106781187,-0.,-0.707106781187));
#715 = ORIENTED_EDGE('',*,*,#158,.T.);
#716 = ORIENTED_EDGE('',*,*,#708,.T.);
#717 = ORIENTED_EDGE('',*,*,#718,.F.);
#718 = EDGE_CURVE('',#709,#709,#719,.T.);
#719 = CIRCLE('',#720,11.5);
#720 = AXIS2_PLACEMENT_3D('',#721,#722,#723);
#721 = CARTESIAN_POINT('',(-25.,0.,1.5));
#722 = DIRECTION('',(0.,0.,1.));
#723 = DIRECTION('',(1.,0.,0.));
#724 = CONICAL_SURFACE('',#725,11.5,0.785398163397);
#725 = AXIS2_PLACEMENT_3D('',#726,#727,#728);
#726 = CARTESIAN_POINT('',(-25.,0.,1.5));
#727 = DIRECTION('',(0.,0.,1.));
#728 = DIRECTION('',(1.,0.,0.));
#729 = ADVANCED_FACE('',(#730),#749,.F.);
#730 = FACE_BOUND('',#731,.T.);
#731 = EDGE_LOOP('',(#732,#740,#741,#742));
#732 = ORIENTED_EDGE('',*,*,#733,.F.);
#733 = EDGE_CURVE('',#170,#734,#736,.T.);
#734 = VERTEX_POINT('',#735);
#735 = CARTESIAN_POINT('',(-8.,-15.5,0.7));
#736 = LINE('',#737,#738);
#737 = CARTESIAN_POINT('',(-8.,-15.5,0.7));
#738 = VECTOR('',#739,1.);
#739 = DIRECTION('',(-0.627329537873,-0.,-0.778753909083));
#740 = ORIENTED_EDGE('',*,*,#169,.T.);
#741 = ORIENTED_EDGE('',*,*,#733,.T.);
#742 = ORIENTED_EDGE('',*,*,#743,.F.);
#743 = EDGE_CURVE('',#734,#734,#744,.T.);
#744 = CIRCLE('',#745,1.5);
#745 = AXIS2_PLACEMENT_3D('',#746,#747,#748);
#746 = CARTESIAN_POINT('',(-9.5,-15.5,0.7));
#747 = DIRECTION('',(0.,0.,1.));
#748 = DIRECTION('',(1.,0.,0.));
#749 = CONICAL_SURFACE('',#750,1.5,0.678119307749);
#750 = AXIS2_PLACEMENT_3D('',#751,#752,#753);
#751 = CARTESIAN_POINT('',(-9.5,-15.5,0.7));
#752 = DIRECTION('',(0.,0.,1.));
#753 = DIRECTION('',(1.,0.,0.));
#754 = ADVANCED_FACE('',(#755),#774,.F.);
#755 = FACE_BOUND('',#756,.F.);
#756 = EDGE_LOOP('',(#757,#758,#766,#773));
#757 = ORIENTED_EDGE('',*,*,#180,.F.);
#758 = ORIENTED_EDGE('',*,*,#759,.T.);
#759 = EDGE_CURVE('',#181,#760,#762,.T.);
#760 = VERTEX_POINT('',#761);
#761 = CARTESIAN_POINT('',(10.6,0.,-2.5));
#762 = LINE('',#763,#764);
#763 = CARTESIAN_POINT('',(10.6,0.,2.5));
#764 = VECTOR('',#765,1.);
#765 = DIRECTION('',(-0.,-0.,-1.));
#766 = ORIENTED_EDGE('',*,*,#767,.T.);
#767 = EDGE_CURVE('',#760,#760,#768,.T.);
#768 = CIRCLE('',#769,4.1);
#769 = AXIS2_PLACEMENT_3D('',#770,#771,#772);
#770 = CARTESIAN_POINT('',(6.5,0.,-2.5));
#771 = DIRECTION('',(0.,0.,1.));
#772 = DIRECTION('',(1.,0.,0.));
#773 = ORIENTED_EDGE('',*,*,#759,.F.);
#774 = CYLINDRICAL_SURFACE('',#775,4.1);
#775 = AXIS2_PLACEMENT_3D('',#776,#777,#778);
#776 = CARTESIAN_POINT('',(6.5,0.,2.5));
#777 = DIRECTION('',(0.,0.,1.));
#778 = DIRECTION('',(1.,0.,0.));
#779 = ADVANCED_FACE('',(#780),#806,.F.);
#780 = FACE_BOUND('',#781,.T.);
#781 = EDGE_LOOP('',(#782,#790,#791,#799));
#782 = ORIENTED_EDGE('',*,*,#783,.F.);
#783 = EDGE_CURVE('',#192,#784,#786,.T.);
#784 = VERTEX_POINT('',#785);
#785 = CARTESIAN_POINT('',(36.25,15.,1.5));
#786 = LINE('',#787,#788);
#787 = CARTESIAN_POINT('',(36.25,15.,1.5));
#788 = VECTOR('',#789,1.);
#789 = DIRECTION('',(-0.707106781187,-1.4E-16,-0.707106781187));
#790 = ORIENTED_EDGE('',*,*,#191,.T.);
#791 = ORIENTED_EDGE('',*,*,#792,.T.);
#792 = EDGE_CURVE('',#194,#793,#795,.T.);
#793 = VERTEX_POINT('',#794);
#794 = CARTESIAN_POINT('',(24.25,15.,1.5));
#795 = LINE('',#796,#797);
#796 = CARTESIAN_POINT('',(24.25,15.,1.5));
#797 = VECTOR('',#798,1.);
#798 = DIRECTION('',(0.707106781187,-1.9E-16,-0.707106781187));
#799 = ORIENTED_EDGE('',*,*,#800,.F.);
#800 = EDGE_CURVE('',#784,#793,#801,.T.);
#801 = CIRCLE('',#802,6.);
#802 = AXIS2_PLACEMENT_3D('',#803,#804,#805);
#803 = CARTESIAN_POINT('',(30.25,15.,1.5));
#804 = DIRECTION('',(0.,-0.,1.));
#805 = DIRECTION('',(1.,3.E-16,0.));
#806 = CONICAL_SURFACE('',#807,6.,0.785398163397);
#807 = AXIS2_PLACEMENT_3D('',#808,#809,#810);
#808 = CARTESIAN_POINT('',(30.25,15.,1.5));
#809 = DIRECTION('',(0.,0.,1.));
#810 = DIRECTION('',(1.,3.E-16,0.));
#811 = ADVANCED_FACE('',(#812),#830,.T.);
#812 = FACE_BOUND('',#813,.T.);
#813 = EDGE_LOOP('',(#814,#822,#823,#824));
#814 = ORIENTED_EDGE('',*,*,#815,.F.);
#815 = EDGE_CURVE('',#203,#816,#818,.T.);
#816 = VERTEX_POINT('',#817);
#817 = CARTESIAN_POINT('',(36.25,-15.,1.5));
#818 = LINE('',#819,#820);
#819 = CARTESIAN_POINT('',(36.25,-15.,1.5));
#820 = VECTOR('',#821,1.);
#821 = DIRECTION('',(-0.707106781187,9.E-17,-0.707106781187));
#822 = ORIENTED_EDGE('',*,*,#202,.T.);
#823 = ORIENTED_EDGE('',*,*,#783,.T.);
#824 = ORIENTED_EDGE('',*,*,#825,.F.);
#825 = EDGE_CURVE('',#816,#784,#826,.T.);
#826 = LINE('',#827,#828);
#827 = CARTESIAN_POINT('',(36.25,-15.,1.5));
#828 = VECTOR('',#829,1.);
#829 = DIRECTION('',(0.,1.,0.));
#830 = PLANE('',#831);
#831 = AXIS2_PLACEMENT_3D('',#832,#833,#834);
#832 = CARTESIAN_POINT('',(36.75,-15.,2.));
#833 = DIRECTION('',(-0.707106781187,0.,0.707106781187));
#834 = DIRECTION('',(0.,1.,0.));
#835 = ADVANCED_FACE('',(#836),#854,.F.);
#836 = FACE_BOUND('',#837,.T.);
#837 = EDGE_LOOP('',(#838,#839,#840,#848));
#838 = ORIENTED_EDGE('',*,*,#792,.F.);
#839 = ORIENTED_EDGE('',*,*,#219,.T.);
#840 = ORIENTED_EDGE('',*,*,#841,.T.);
#841 = EDGE_CURVE('',#211,#842,#844,.T.);
#842 = VERTEX_POINT('',#843);
#843 = CARTESIAN_POINT('',(24.25,-15.,1.5));
#844 = LINE('',#845,#846);
#845 = CARTESIAN_POINT('',(23.75,-15.,2.));
#846 = VECTOR('',#847,1.);
#847 = DIRECTION('',(0.707106781187,-8.E-17,-0.707106781187));
#848 = ORIENTED_EDGE('',*,*,#849,.F.);
#849 = EDGE_CURVE('',#793,#842,#850,.T.);
#850 = LINE('',#851,#852);
#851 = CARTESIAN_POINT('',(24.25,15.,1.5));
#852 = VECTOR('',#853,1.);
#853 = DIRECTION('',(-1.2E-16,-1.,0.));
#854 = PLANE('',#855);
#855 = AXIS2_PLACEMENT_3D('',#856,#857,#858);
#856 = CARTESIAN_POINT('',(23.75,15.,2.));
#857 = DIRECTION('',(-0.707106781187,0.,-0.707106781187));
#858 = DIRECTION('',(6.E-17,1.,-6.E-17));
#859 = ADVANCED_FACE('',(#860),#872,.F.);
#860 = FACE_BOUND('',#861,.T.);
#861 = EDGE_LOOP('',(#862,#863,#864,#865));
#862 = ORIENTED_EDGE('',*,*,#841,.F.);
#863 = ORIENTED_EDGE('',*,*,#210,.T.);
#864 = ORIENTED_EDGE('',*,*,#815,.T.);
#865 = ORIENTED_EDGE('',*,*,#866,.F.);
#866 = EDGE_CURVE('',#842,#816,#867,.T.);
#867 = CIRCLE('',#868,6.);
#868 = AXIS2_PLACEMENT_3D('',#869,#870,#871);
#869 = CARTESIAN_POINT('',(30.25,-15.,1.5));
#870 = DIRECTION('',(0.,0.,1.));
#871 = DIRECTION('',(-1.,0.,0.));
#872 = CONICAL_SURFACE('',#873,6.,0.785398163397);
#873 = AXIS2_PLACEMENT_3D('',#874,#875,#876);
#874 = CARTESIAN_POINT('',(30.25,-15.,1.5));
#875 = DIRECTION('',(0.,0.,1.));
#876 = DIRECTION('',(-1.,0.,0.));
#877 = ADVANCED_FACE('',(#878),#897,.F.);
#878 = FACE_BOUND('',#879,.T.);
#879 = EDGE_LOOP('',(#880,#888,#889,#890));
#880 = ORIENTED_EDGE('',*,*,#881,.F.);
#881 = EDGE_CURVE('',#228,#882,#884,.T.);
#882 = VERTEX_POINT('',#883);
#883 = CARTESIAN_POINT('',(-39.,15.5,0.7));
#884 = LINE('',#885,#886);
#885 = CARTESIAN_POINT('',(-39.,15.5,0.7));
#886 = VECTOR('',#887,1.);
#887 = DIRECTION('',(-0.627329537873,-0.,-0.778753909083));
#888 = ORIENTED_EDGE('',*,*,#227,.T.);
#889 = ORIENTED_EDGE('',*,*,#881,.T.);
#890 = ORIENTED_EDGE('',*,*,#891,.F.);
#891 = EDGE_CURVE('',#882,#882,#892,.T.);
#892 = CIRCLE('',#893,1.5);
#893 = AXIS2_PLACEMENT_3D('',#894,#895,#896);
#894 = CARTESIAN_POINT('',(-40.5,15.5,0.7));
#895 = DIRECTION('',(0.,0.,1.));
#896 = DIRECTION('',(1.,0.,0.));
#897 = CONICAL_SURFACE('',#898,1.5,0.678119307749);
#898 = AXIS2_PLACEMENT_3D('',#899,#900,#901);
#899 = CARTESIAN_POINT('',(-40.5,15.5,0.7));
#900 = DIRECTION('',(0.,0.,1.));
#901 = DIRECTION('',(1.,0.,0.));
#902 = ADVANCED_FACE('',(#903),#922,.F.);
#903 = FACE_BOUND('',#904,.T.);
#904 = EDGE_LOOP('',(#905,#913,#914,#915));
#905 = ORIENTED_EDGE('',*,*,#906,.F.);
#906 = EDGE_CURVE('',#239,#907,#909,.T.);
#907 = VERTEX_POINT('',#908);
#908 = CARTESIAN_POINT('',(-8.,15.5,0.7));
#909 = LINE('',#910,#911);
#910 = CARTESIAN_POINT('',(-8.,15.5,0.7));
#911 = VECTOR('',#912,1.);
#912 = DIRECTION('',(-0.627329537873,-0.,-0.778753909083));
#913 = ORIENTED_EDGE('',*,*,#238,.T.);
#914 = ORIENTED_EDGE('',*,*,#906,.T.);
#915 = ORIENTED_EDGE('',*,*,#916,.F.);
#916 = EDGE_CURVE('',#907,#907,#917,.T.);
#917 = CIRCLE('',#918,1.5);
#918 = AXIS2_PLACEMENT_3D('',#919,#920,#921);
#919 = CARTESIAN_POINT('',(-9.5,15.5,0.7));
#920 = DIRECTION('',(0.,0.,1.));
#921 = DIRECTION('',(1.,0.,0.));
#922 = CONICAL_SURFACE('',#923,1.5,0.678119307749);
#923 = AXIS2_PLACEMENT_3D('',#924,#925,#926);
#924 = CARTESIAN_POINT('',(-9.5,15.5,0.7));
#925 = DIRECTION('',(0.,0.,1.));
#926 = DIRECTION('',(1.,0.,0.));
#927 = ADVANCED_FACE('',(#928),#947,.F.);
#928 = FACE_BOUND('',#929,.T.);
#929 = EDGE_LOOP('',(#930,#938,#939,#940));
#930 = ORIENTED_EDGE('',*,*,#931,.F.);
#931 = EDGE_CURVE('',#250,#932,#934,.T.);
#932 = VERTEX_POINT('',#933);
#933 = CARTESIAN_POINT('',(-61.9,80.,-0.3));
#934 = LINE('',#935,#936);
#935 = CARTESIAN_POINT('',(-61.9,80.,-0.3));
#936 = VECTOR('',#937,1.);
#937 = DIRECTION('',(-0.666015769309,-0.,-0.745937661626));
#938 = ORIENTED_EDGE('',*,*,#249,.T.);
#939 = ORIENTED_EDGE('',*,*,#931,.T.);
#940 = ORIENTED_EDGE('',*,*,#941,.F.);
#941 = EDGE_CURVE('',#932,#932,#942,.T.);
#942 = CIRCLE('',#943,2.6);
#943 = AXIS2_PLACEMENT_3D('',#944,#945,#946);
#944 = CARTESIAN_POINT('',(-64.5,80.,-0.3));
#945 = DIRECTION('',(0.,0.,1.));
#946 = DIRECTION('',(1.,0.,0.));
#947 = CONICAL_SURFACE('',#948,2.6,0.728854726453);
#948 = AXIS2_PLACEMENT_3D('',#949,#950,#951);
#949 = CARTESIAN_POINT('',(-64.5,80.,-0.3));
#950 = DIRECTION('',(0.,0.,1.));
#951 = DIRECTION('',(1.,0.,0.));
#952 = ADVANCED_FACE('',(#953),#972,.F.);
#953 = FACE_BOUND('',#954,.T.);
#954 = EDGE_LOOP('',(#955,#963,#964,#965));
#955 = ORIENTED_EDGE('',*,*,#956,.F.);
#956 = EDGE_CURVE('',#261,#957,#959,.T.);
#957 = VERTEX_POINT('',#958);
#958 = CARTESIAN_POINT('',(-9.5,80.,-0.3));
#959 = LINE('',#960,#961);
#960 = CARTESIAN_POINT('',(-9.5,80.,-0.3));
#961 = VECTOR('',#962,1.);
#962 = DIRECTION('',(-0.666015769309,-0.,-0.745937661626));
#963 = ORIENTED_EDGE('',*,*,#260,.T.);
#964 = ORIENTED_EDGE('',*,*,#956,.T.);
#965 = ORIENTED_EDGE('',*,*,#966,.F.);
#966 = EDGE_CURVE('',#957,#957,#967,.T.);
#967 = CIRCLE('',#968,2.6);
#968 = AXIS2_PLACEMENT_3D('',#969,#970,#971);
#969 = CARTESIAN_POINT('',(-12.1,80.,-0.3));
#970 = DIRECTION('',(0.,0.,1.));
#971 = DIRECTION('',(1.,0.,0.));
#972 = CONICAL_SURFACE('',#973,2.6,0.728854726453);
#973 = AXIS2_PLACEMENT_3D('',#974,#975,#976);
#974 = CARTESIAN_POINT('',(-12.1,80.,-0.3));
#975 = DIRECTION('',(0.,0.,1.));
#976 = DIRECTION('',(1.,0.,0.));
#977 = ADVANCED_FACE('',(#978),#997,.F.);
#978 = FACE_BOUND('',#979,.T.);
#979 = EDGE_LOOP('',(#980,#988,#989,#990));
#980 = ORIENTED_EDGE('',*,*,#981,.F.);
#981 = EDGE_CURVE('',#272,#982,#984,.T.);
#982 = VERTEX_POINT('',#983);
#983 = CARTESIAN_POINT('',(41.75,48.5,1.5));
#984 = LINE('',#985,#986);
#985 = CARTESIAN_POINT('',(41.75,48.5,1.5));
#986 = VECTOR('',#987,1.);
#987 = DIRECTION('',(-0.707106781187,-0.,-0.707106781187));
#988 = ORIENTED_EDGE('',*,*,#271,.T.);
#989 = ORIENTED_EDGE('',*,*,#981,.T.);
#990 = ORIENTED_EDGE('',*,*,#991,.F.);
#991 = EDGE_CURVE('',#982,#982,#992,.T.);
#992 = CIRCLE('',#993,11.5);
#993 = AXIS2_PLACEMENT_3D('',#994,#995,#996);
#994 = CARTESIAN_POINT('',(30.25,48.5,1.5));
#995 = DIRECTION('',(0.,0.,1.));
#996 = DIRECTION('',(1.,0.,0.));
#997 = CONICAL_SURFACE('',#998,11.5,0.785398163397);
#998 = AXIS2_PLACEMENT_3D('',#999,#1000,#1001);
#999 = CARTESIAN_POINT('',(30.25,48.5,1.5));
#1000 = DIRECTION('',(0.,0.,1.));
#1001 = DIRECTION('',(1.,0.,0.));
#1002 = ADVANCED_FACE('',(#1003),#1022,.F.);
#1003 = FACE_BOUND('',#1004,.T.);
#1004 = EDGE_LOOP('',(#1005,#1013,#1014,#1015));
#1005 = ORIENTED_EDGE('',*,*,#1006,.F.);
#1006 = EDGE_CURVE('',#283,#1007,#1009,.T.);
#1007 = VERTEX_POINT('',#1008);
#1008 = CARTESIAN_POINT('',(50.7,-28.5,0.7));
#1009 = LINE('',#1010,#1011);
#1010 = CARTESIAN_POINT('',(50.7,-28.5,0.7));
#1011 = VECTOR('',#1012,1.);
#1012 = DIRECTION('',(-0.627329537873,-0.,-0.778753909083));
#1013 = ORIENTED_EDGE('',*,*,#282,.T.);
#1014 = ORIENTED_EDGE('',*,*,#1006,.T.);
#1015 = ORIENTED_EDGE('',*,*,#1016,.F.);
#1016 = EDGE_CURVE('',#1007,#1007,#1017,.T.);
#1017 = CIRCLE('',#1018,1.5);
#1018 = AXIS2_PLACEMENT_3D('',#1019,#1020,#1021);
#1019 = CARTESIAN_POINT('',(49.2,-28.5,0.7));
#1020 = DIRECTION('',(0.,0.,1.));
#1021 = DIRECTION('',(1.,0.,0.));
#1022 = CONICAL_SURFACE('',#1023,1.5,0.678119307749);
#1023 = AXIS2_PLACEMENT_3D('',#1024,#1025,#1026);
#1024 = CARTESIAN_POINT('',(49.2,-28.5,0.7));
#1025 = DIRECTION('',(0.,0.,1.));
#1026 = DIRECTION('',(1.,0.,0.));
#1027 = ADVANCED_FACE('',(#1028),#1047,.F.);
#1028 = FACE_BOUND('',#1029,.F.);
#1029 = EDGE_LOOP('',(#1030,#1038,#1039,#1040));
#1030 = ORIENTED_EDGE('',*,*,#1031,.F.);
#1031 = EDGE_CURVE('',#300,#1032,#1034,.T.);
#1032 = VERTEX_POINT('',#1033);
#1033 = CARTESIAN_POINT('',(50.7,28.5,-2.5));
#1034 = LINE('',#1035,#1036);
#1035 = CARTESIAN_POINT('',(50.7,28.5,2.5));
#1036 = VECTOR('',#1037,1.);
#1037 = DIRECTION('',(-0.,-0.,-1.));
#1038 = ORIENTED_EDGE('',*,*,#309,.F.);
#1039 = ORIENTED_EDGE('',*,*,#1031,.T.);
#1040 = ORIENTED_EDGE('',*,*,#1041,.T.);
#1041 = EDGE_CURVE('',#1032,#1032,#1042,.T.);
#1042 = CIRCLE('',#1043,1.5);
#1043 = AXIS2_PLACEMENT_3D('',#1044,#1045,#1046);
#1044 = CARTESIAN_POINT('',(49.2,28.5,-2.5));
#1045 = DIRECTION('',(0.,0.,1.));
#1046 = DIRECTION('',(1.,0.,0.));
#1047 = CYLINDRICAL_SURFACE('',#1048,1.5);
#1048 = AXIS2_PLACEMENT_3D('',#1049,#1050,#1051);
#1049 = CARTESIAN_POINT('',(49.2,28.5,2.5));
#1050 = DIRECTION('',(0.,0.,1.));
#1051 = DIRECTION('',(1.,0.,0.));
#1052 = ADVANCED_FACE('',(#1053),#1071,.F.);
#1053 = FACE_BOUND('',#1054,.F.);
#1054 = EDGE_LOOP('',(#1055,#1063,#1069,#1070));
#1055 = ORIENTED_EDGE('',*,*,#1056,.F.);
#1056 = EDGE_CURVE('',#1057,#325,#1059,.T.);
#1057 = VERTEX_POINT('',#1058);
#1058 = CARTESIAN_POINT('',(-2.5,90.,-2.5));
#1059 = LINE('',#1060,#1061);
#1060 = CARTESIAN_POINT('',(75.,90.,-2.5));
#1061 = VECTOR('',#1062,1.);
#1062 = DIRECTION('',(-1.,0.,0.));
#1063 = ORIENTED_EDGE('',*,*,#1064,.F.);
#1064 = EDGE_CURVE('',#374,#1057,#1065,.T.);
#1065 = LINE('',#1066,#1067);
#1066 = CARTESIAN_POINT('',(-2.5,90.,2.5));
#1067 = VECTOR('',#1068,1.);
#1068 = DIRECTION('',(-0.,-0.,-1.));
#1069 = ORIENTED_EDGE('',*,*,#373,.T.);
#1070 = ORIENTED_EDGE('',*,*,#324,.F.);
#1071 = PLANE('',#1072);
#1072 = AXIS2_PLACEMENT_3D('',#1073,#1074,#1075);
#1073 = CARTESIAN_POINT('',(75.,90.,-2.5));
#1074 = DIRECTION('',(0.,-1.,0.));
#1075 = DIRECTION('',(-1.,0.,0.));
#1076 = ADVANCED_FACE('',(#1077,#1175,#1186,#1197,#1208,#1219,#1230,
    #1233,#1244,#1255,#1266,#1277,#1288,#1291,#1327,#1330),#1341,.F.);
#1077 = FACE_BOUND('',#1078,.F.);
#1078 = EDGE_LOOP('',(#1079,#1089,#1097,#1105,#1113,#1121,#1129,#1137,
    #1143,#1144,#1145,#1153,#1161,#1169));
#1079 = ORIENTED_EDGE('',*,*,#1080,.F.);
#1080 = EDGE_CURVE('',#1081,#1083,#1085,.T.);
#1081 = VERTEX_POINT('',#1082);
#1082 = CARTESIAN_POINT('',(74.,-70.,-2.5));
#1083 = VERTEX_POINT('',#1084);
#1084 = CARTESIAN_POINT('',(-0.5,-70.,-2.5));
#1085 = LINE('',#1086,#1087);
#1086 = CARTESIAN_POINT('',(37.5,-70.,-2.5));
#1087 = VECTOR('',#1088,1.);
#1088 = DIRECTION('',(-1.,0.,0.));
#1089 = ORIENTED_EDGE('',*,*,#1090,.T.);
#1090 = EDGE_CURVE('',#1081,#1091,#1093,.T.);
#1091 = VERTEX_POINT('',#1092);
#1092 = CARTESIAN_POINT('',(75.,-69.,-2.5));
#1093 = LINE('',#1094,#1095);
#1094 = CARTESIAN_POINT('',(73.25,-70.75,-2.5));
#1095 = VECTOR('',#1096,1.);
#1096 = DIRECTION('',(0.707106781187,0.707106781187,0.));
#1097 = ORIENTED_EDGE('',*,*,#1098,.T.);
#1098 = EDGE_CURVE('',#1091,#1099,#1101,.T.);
#1099 = VERTEX_POINT('',#1100);
#1100 = CARTESIAN_POINT('',(75.,69.,-2.5));
#1101 = LINE('',#1102,#1103);
#1102 = CARTESIAN_POINT('',(75.,-90.,-2.5));
#1103 = VECTOR('',#1104,1.);
#1104 = DIRECTION('',(0.,1.,0.));
#1105 = ORIENTED_EDGE('',*,*,#1106,.T.);
#1106 = EDGE_CURVE('',#1099,#1107,#1109,.T.);
#1107 = VERTEX_POINT('',#1108);
#1108 = CARTESIAN_POINT('',(74.,70.,-2.5));
#1109 = LINE('',#1110,#1111);
#1110 = CARTESIAN_POINT('',(73.25,70.75,-2.5));
#1111 = VECTOR('',#1112,1.);
#1112 = DIRECTION('',(-0.707106781187,0.707106781187,0.));
#1113 = ORIENTED_EDGE('',*,*,#1114,.F.);
#1114 = EDGE_CURVE('',#1115,#1107,#1117,.T.);
#1115 = VERTEX_POINT('',#1116);
#1116 = CARTESIAN_POINT('',(-0.5,70.,-2.5));
#1117 = LINE('',#1118,#1119);
#1118 = CARTESIAN_POINT('',(-0.75,70.,-2.5));
#1119 = VECTOR('',#1120,1.);
#1120 = DIRECTION('',(1.,0.,0.));
#1121 = ORIENTED_EDGE('',*,*,#1122,.T.);
#1122 = EDGE_CURVE('',#1115,#1123,#1125,.T.);
#1123 = VERTEX_POINT('',#1124);
#1124 = CARTESIAN_POINT('',(-1.5,71.,-2.5));
#1125 = LINE('',#1126,#1127);
#1126 = CARTESIAN_POINT('',(16.875,52.625,-2.5));
#1127 = VECTOR('',#1128,1.);
#1128 = DIRECTION('',(-0.707106781187,0.707106781187,0.));
#1129 = ORIENTED_EDGE('',*,*,#1130,.F.);
#1130 = EDGE_CURVE('',#1131,#1123,#1133,.T.);
#1131 = VERTEX_POINT('',#1132);
#1132 = CARTESIAN_POINT('',(-1.5,89.,-2.5));
#1133 = LINE('',#1134,#1135);
#1134 = CARTESIAN_POINT('',(-1.5,45.,-2.5));
#1135 = VECTOR('',#1136,1.);
#1136 = DIRECTION('',(0.,-1.,0.));
#1137 = ORIENTED_EDGE('',*,*,#1138,.T.);
#1138 = EDGE_CURVE('',#1131,#1057,#1139,.T.);
#1139 = LINE('',#1140,#1141);
#1140 = CARTESIAN_POINT('',(20.875,66.625,-2.5));
#1141 = VECTOR('',#1142,1.);
#1142 = DIRECTION('',(-0.707106781187,0.707106781187,0.));
#1143 = ORIENTED_EDGE('',*,*,#1056,.T.);
#1144 = ORIENTED_EDGE('',*,*,#357,.T.);
#1145 = ORIENTED_EDGE('',*,*,#1146,.T.);
#1146 = EDGE_CURVE('',#350,#1147,#1149,.T.);
#1147 = VERTEX_POINT('',#1148);
#1148 = CARTESIAN_POINT('',(-2.5,-90.,-2.5));
#1149 = LINE('',#1150,#1151);
#1150 = CARTESIAN_POINT('',(-75.,-90.,-2.5));
#1151 = VECTOR('',#1152,1.);
#1152 = DIRECTION('',(1.,0.,0.));
#1153 = ORIENTED_EDGE('',*,*,#1154,.F.);
#1154 = EDGE_CURVE('',#1155,#1147,#1157,.T.);
#1155 = VERTEX_POINT('',#1156);
#1156 = CARTESIAN_POINT('',(-1.5,-89.,-2.5));
#1157 = LINE('',#1158,#1159);
#1158 = CARTESIAN_POINT('',(20.875,-66.625,-2.5));
#1159 = VECTOR('',#1160,1.);
#1160 = DIRECTION('',(-0.707106781187,-0.707106781187,0.));
#1161 = ORIENTED_EDGE('',*,*,#1162,.F.);
#1162 = EDGE_CURVE('',#1163,#1155,#1165,.T.);
#1163 = VERTEX_POINT('',#1164);
#1164 = CARTESIAN_POINT('',(-1.5,-71.,-2.5));
#1165 = LINE('',#1166,#1167);
#1166 = CARTESIAN_POINT('',(-1.5,-35.,-2.5));
#1167 = VECTOR('',#1168,1.);
#1168 = DIRECTION('',(0.,-1.,0.));
#1169 = ORIENTED_EDGE('',*,*,#1170,.F.);
#1170 = EDGE_CURVE('',#1083,#1163,#1171,.T.);
#1171 = LINE('',#1172,#1173);
#1172 = CARTESIAN_POINT('',(16.875,-52.625,-2.5));
#1173 = VECTOR('',#1174,1.);
#1174 = DIRECTION('',(-0.707106781187,-0.707106781187,0.));
#1175 = FACE_BOUND('',#1176,.F.);
#1176 = EDGE_LOOP('',(#1177));
#1177 = ORIENTED_EDGE('',*,*,#1178,.F.);
#1178 = EDGE_CURVE('',#1179,#1179,#1181,.T.);
#1179 = VERTEX_POINT('',#1180);
#1180 = CARTESIAN_POINT('',(-61.9,-80.,-2.5));
#1181 = CIRCLE('',#1182,2.6);
#1182 = AXIS2_PLACEMENT_3D('',#1183,#1184,#1185);
#1183 = CARTESIAN_POINT('',(-64.5,-80.,-2.5));
#1184 = DIRECTION('',(0.,0.,1.));
#1185 = DIRECTION('',(1.,0.,0.));
#1186 = FACE_BOUND('',#1187,.F.);
#1187 = EDGE_LOOP('',(#1188));
#1188 = ORIENTED_EDGE('',*,*,#1189,.F.);
#1189 = EDGE_CURVE('',#1190,#1190,#1192,.T.);
#1190 = VERTEX_POINT('',#1191);
#1191 = CARTESIAN_POINT('',(-9.5,-80.,-2.5));
#1192 = CIRCLE('',#1193,2.6);
#1193 = AXIS2_PLACEMENT_3D('',#1194,#1195,#1196);
#1194 = CARTESIAN_POINT('',(-12.1,-80.,-2.5));
#1195 = DIRECTION('',(0.,0.,1.));
#1196 = DIRECTION('',(1.,0.,0.));
#1197 = FACE_BOUND('',#1198,.F.);
#1198 = EDGE_LOOP('',(#1199));
#1199 = ORIENTED_EDGE('',*,*,#1200,.F.);
#1200 = EDGE_CURVE('',#1201,#1201,#1203,.T.);
#1201 = VERTEX_POINT('',#1202);
#1202 = CARTESIAN_POINT('',(-39.,-15.5,-2.5));
#1203 = CIRCLE('',#1204,1.5);
#1204 = AXIS2_PLACEMENT_3D('',#1205,#1206,#1207);
#1205 = CARTESIAN_POINT('',(-40.5,-15.5,-2.5));
#1206 = DIRECTION('',(0.,0.,1.));
#1207 = DIRECTION('',(1.,0.,0.));
#1208 = FACE_BOUND('',#1209,.F.);
#1209 = EDGE_LOOP('',(#1210));
#1210 = ORIENTED_EDGE('',*,*,#1211,.F.);
#1211 = EDGE_CURVE('',#1212,#1212,#1214,.T.);
#1212 = VERTEX_POINT('',#1213);
#1213 = CARTESIAN_POINT('',(-8.,-15.5,-2.5));
#1214 = CIRCLE('',#1215,1.5);
#1215 = AXIS2_PLACEMENT_3D('',#1216,#1217,#1218);
#1216 = CARTESIAN_POINT('',(-9.5,-15.5,-2.5));
#1217 = DIRECTION('',(0.,0.,1.));
#1218 = DIRECTION('',(1.,0.,0.));
#1219 = FACE_BOUND('',#1220,.F.);
#1220 = EDGE_LOOP('',(#1221));
#1221 = ORIENTED_EDGE('',*,*,#1222,.F.);
#1222 = EDGE_CURVE('',#1223,#1223,#1225,.T.);
#1223 = VERTEX_POINT('',#1224);
#1224 = CARTESIAN_POINT('',(50.7,-28.5,-2.5));
#1225 = CIRCLE('',#1226,1.5);
#1226 = AXIS2_PLACEMENT_3D('',#1227,#1228,#1229);
#1227 = CARTESIAN_POINT('',(49.2,-28.5,-2.5));
#1228 = DIRECTION('',(0.,0.,1.));
#1229 = DIRECTION('',(1.,0.,0.));
#1230 = FACE_BOUND('',#1231,.F.);
#1231 = EDGE_LOOP('',(#1232));
#1232 = ORIENTED_EDGE('',*,*,#667,.F.);
#1233 = FACE_BOUND('',#1234,.F.);
#1234 = EDGE_LOOP('',(#1235));
#1235 = ORIENTED_EDGE('',*,*,#1236,.F.);
#1236 = EDGE_CURVE('',#1237,#1237,#1239,.T.);
#1237 = VERTEX_POINT('',#1238);
#1238 = CARTESIAN_POINT('',(-39.,15.5,-2.5));
#1239 = CIRCLE('',#1240,1.5);
#1240 = AXIS2_PLACEMENT_3D('',#1241,#1242,#1243);
#1241 = CARTESIAN_POINT('',(-40.5,15.5,-2.5));
#1242 = DIRECTION('',(0.,0.,1.));
#1243 = DIRECTION('',(1.,0.,0.));
#1244 = FACE_BOUND('',#1245,.F.);
#1245 = EDGE_LOOP('',(#1246));
#1246 = ORIENTED_EDGE('',*,*,#1247,.F.);
#1247 = EDGE_CURVE('',#1248,#1248,#1250,.T.);
#1248 = VERTEX_POINT('',#1249);
#1249 = CARTESIAN_POINT('',(-13.5,0.,-2.5));
#1250 = CIRCLE('',#1251,11.5);
#1251 = AXIS2_PLACEMENT_3D('',#1252,#1253,#1254);
#1252 = CARTESIAN_POINT('',(-25.,0.,-2.5));
#1253 = DIRECTION('',(0.,0.,1.));
#1254 = DIRECTION('',(1.,0.,0.));
#1255 = FACE_BOUND('',#1256,.F.);
#1256 = EDGE_LOOP('',(#1257));
#1257 = ORIENTED_EDGE('',*,*,#1258,.F.);
#1258 = EDGE_CURVE('',#1259,#1259,#1261,.T.);
#1259 = VERTEX_POINT('',#1260);
#1260 = CARTESIAN_POINT('',(-8.,15.5,-2.5));
#1261 = CIRCLE('',#1262,1.5);
#1262 = AXIS2_PLACEMENT_3D('',#1263,#1264,#1265);
#1263 = CARTESIAN_POINT('',(-9.5,15.5,-2.5));
#1264 = DIRECTION('',(0.,0.,1.));
#1265 = DIRECTION('',(1.,0.,0.));
#1266 = FACE_BOUND('',#1267,.F.);
#1267 = EDGE_LOOP('',(#1268));
#1268 = ORIENTED_EDGE('',*,*,#1269,.F.);
#1269 = EDGE_CURVE('',#1270,#1270,#1272,.T.);
#1270 = VERTEX_POINT('',#1271);
#1271 = CARTESIAN_POINT('',(-61.9,80.,-2.5));
#1272 = CIRCLE('',#1273,2.6);
#1273 = AXIS2_PLACEMENT_3D('',#1274,#1275,#1276);
#1274 = CARTESIAN_POINT('',(-64.5,80.,-2.5));
#1275 = DIRECTION('',(0.,0.,1.));
#1276 = DIRECTION('',(1.,0.,0.));
#1277 = FACE_BOUND('',#1278,.F.);
#1278 = EDGE_LOOP('',(#1279));
#1279 = ORIENTED_EDGE('',*,*,#1280,.F.);
#1280 = EDGE_CURVE('',#1281,#1281,#1283,.T.);
#1281 = VERTEX_POINT('',#1282);
#1282 = CARTESIAN_POINT('',(-9.5,80.,-2.5));
#1283 = CIRCLE('',#1284,2.6);
#1284 = AXIS2_PLACEMENT_3D('',#1285,#1286,#1287);
#1285 = CARTESIAN_POINT('',(-12.1,80.,-2.5));
#1286 = DIRECTION('',(0.,0.,1.));
#1287 = DIRECTION('',(1.,0.,0.));
#1288 = FACE_BOUND('',#1289,.F.);
#1289 = EDGE_LOOP('',(#1290));
#1290 = ORIENTED_EDGE('',*,*,#767,.F.);
#1291 = FACE_BOUND('',#1292,.F.);
#1292 = EDGE_LOOP('',(#1293,#1304,#1312,#1321));
#1293 = ORIENTED_EDGE('',*,*,#1294,.F.);
#1294 = EDGE_CURVE('',#1295,#1297,#1299,.T.);
#1295 = VERTEX_POINT('',#1296);
#1296 = CARTESIAN_POINT('',(36.25,15.,-2.5));
#1297 = VERTEX_POINT('',#1298);
#1298 = CARTESIAN_POINT('',(24.25,15.,-2.5));
#1299 = CIRCLE('',#1300,6.);
#1300 = AXIS2_PLACEMENT_3D('',#1301,#1302,#1303);
#1301 = CARTESIAN_POINT('',(30.25,15.,-2.5));
#1302 = DIRECTION('',(0.,0.,1.));
#1303 = DIRECTION('',(1.,0.,0.));
#1304 = ORIENTED_EDGE('',*,*,#1305,.T.);
#1305 = EDGE_CURVE('',#1295,#1306,#1308,.T.);
#1306 = VERTEX_POINT('',#1307);
#1307 = CARTESIAN_POINT('',(36.25,-15.,-2.5));
#1308 = LINE('',#1309,#1310);
#1309 = CARTESIAN_POINT('',(36.25,7.5,-2.5));
#1310 = VECTOR('',#1311,1.);
#1311 = DIRECTION('',(0.,-1.,0.));
#1312 = ORIENTED_EDGE('',*,*,#1313,.F.);
#1313 = EDGE_CURVE('',#1314,#1306,#1316,.T.);
#1314 = VERTEX_POINT('',#1315);
#1315 = CARTESIAN_POINT('',(24.25,-15.,-2.5));
#1316 = CIRCLE('',#1317,6.);
#1317 = AXIS2_PLACEMENT_3D('',#1318,#1319,#1320);
#1318 = CARTESIAN_POINT('',(30.25,-15.,-2.5));
#1319 = DIRECTION('',(0.,0.,1.));
#1320 = DIRECTION('',(1.,0.,0.));
#1321 = ORIENTED_EDGE('',*,*,#1322,.F.);
#1322 = EDGE_CURVE('',#1297,#1314,#1323,.T.);
#1323 = LINE('',#1324,#1325);
#1324 = CARTESIAN_POINT('',(24.25,7.5,-2.5));
#1325 = VECTOR('',#1326,1.);
#1326 = DIRECTION('',(-1.2E-16,-1.,0.));
#1327 = FACE_BOUND('',#1328,.F.);
#1328 = EDGE_LOOP('',(#1329));
#1329 = ORIENTED_EDGE('',*,*,#1041,.F.);
#1330 = FACE_BOUND('',#1331,.F.);
#1331 = EDGE_LOOP('',(#1332));
#1332 = ORIENTED_EDGE('',*,*,#1333,.F.);
#1333 = EDGE_CURVE('',#1334,#1334,#1336,.T.);
#1334 = VERTEX_POINT('',#1335);
#1335 = CARTESIAN_POINT('',(41.75,48.5,-2.5));
#1336 = CIRCLE('',#1337,11.5);
#1337 = AXIS2_PLACEMENT_3D('',#1338,#1339,#1340);
#1338 = CARTESIAN_POINT('',(30.25,48.5,-2.5));
#1339 = DIRECTION('',(0.,0.,1.));
#1340 = DIRECTION('',(1.,0.,0.));
#1341 = PLANE('',#1342);
#1342 = AXIS2_PLACEMENT_3D('',#1343,#1344,#1345);
#1343 = CARTESIAN_POINT('',(0.,0.,-2.5));
#1344 = DIRECTION('',(0.,0.,1.));
#1345 = DIRECTION('',(1.,0.,0.));
#1346 = ADVANCED_FACE('',(#1347),#1358,.F.);
#1347 = FACE_BOUND('',#1348,.F.);
#1348 = EDGE_LOOP('',(#1349,#1350,#1351,#1352));
#1349 = ORIENTED_EDGE('',*,*,#1146,.F.);
#1350 = ORIENTED_EDGE('',*,*,#349,.T.);
#1351 = ORIENTED_EDGE('',*,*,#405,.T.);
#1352 = ORIENTED_EDGE('',*,*,#1353,.T.);
#1353 = EDGE_CURVE('',#398,#1147,#1354,.T.);
#1354 = LINE('',#1355,#1356);
#1355 = CARTESIAN_POINT('',(-2.5,-90.,2.5));
#1356 = VECTOR('',#1357,1.);
#1357 = DIRECTION('',(-0.,-0.,-1.));
#1358 = PLANE('',#1359);
#1359 = AXIS2_PLACEMENT_3D('',#1360,#1361,#1362);
#1360 = CARTESIAN_POINT('',(-75.,-90.,-2.5));
#1361 = DIRECTION('',(0.,1.,0.));
#1362 = DIRECTION('',(1.,0.,0.));
#1363 = ADVANCED_FACE('',(#1364),#1374,.T.);
#1364 = FACE_BOUND('',#1365,.T.);
#1365 = EDGE_LOOP('',(#1366,#1367,#1373));
#1366 = ORIENTED_EDGE('',*,*,#419,.F.);
#1367 = ORIENTED_EDGE('',*,*,#1368,.T.);
#1368 = EDGE_CURVE('',#420,#374,#1369,.T.);
#1369 = LINE('',#1370,#1371);
#1370 = CARTESIAN_POINT('',(-1.75,89.25,1.5));
#1371 = VECTOR('',#1372,1.);
#1372 = DIRECTION('',(-0.707106781187,0.707106781187,7.21E-15));
#1373 = ORIENTED_EDGE('',*,*,#381,.F.);
#1374 = PLANE('',#1375);
#1375 = AXIS2_PLACEMENT_3D('',#1376,#1377,#1378);
#1376 = CARTESIAN_POINT('',(-1.5,89.,1.5));
#1377 = DIRECTION('',(0.57735026919,0.57735026919,0.57735026919));
#1378 = DIRECTION('',(4.329869796038E-15,0.707106781187,-0.707106781187)
  );
#1379 = ADVANCED_FACE('',(#1380),#1390,.F.);
#1380 = FACE_BOUND('',#1381,.F.);
#1381 = EDGE_LOOP('',(#1382,#1383,#1389));
#1382 = ORIENTED_EDGE('',*,*,#459,.F.);
#1383 = ORIENTED_EDGE('',*,*,#1384,.T.);
#1384 = EDGE_CURVE('',#460,#398,#1385,.T.);
#1385 = LINE('',#1386,#1387);
#1386 = CARTESIAN_POINT('',(-1.75,-89.25,1.5));
#1387 = VECTOR('',#1388,1.);
#1388 = DIRECTION('',(-0.707106781187,-0.707106781187,5.E-15));
#1389 = ORIENTED_EDGE('',*,*,#397,.F.);
#1390 = PLANE('',#1391);
#1391 = AXIS2_PLACEMENT_3D('',#1392,#1393,#1394);
#1392 = CARTESIAN_POINT('',(-1.5,-89.,1.5));
#1393 = DIRECTION('',(-0.57735026919,0.57735026919,-0.57735026919));
#1394 = DIRECTION('',(2.164934898019E-15,-0.707106781187,-0.707106781187
    ));
#1395 = ADVANCED_FACE('',(#1396),#1412,.F.);
#1396 = FACE_BOUND('',#1397,.F.);
#1397 = EDGE_LOOP('',(#1398,#1399,#1405,#1406));
#1398 = ORIENTED_EDGE('',*,*,#1130,.T.);
#1399 = ORIENTED_EDGE('',*,*,#1400,.F.);
#1400 = EDGE_CURVE('',#429,#1123,#1401,.T.);
#1401 = LINE('',#1402,#1403);
#1402 = CARTESIAN_POINT('',(-1.5,71.,2.5));
#1403 = VECTOR('',#1404,1.);
#1404 = DIRECTION('',(-0.,-0.,-1.));
#1405 = ORIENTED_EDGE('',*,*,#436,.F.);
#1406 = ORIENTED_EDGE('',*,*,#1407,.T.);
#1407 = EDGE_CURVE('',#420,#1131,#1408,.T.);
#1408 = LINE('',#1409,#1410);
#1409 = CARTESIAN_POINT('',(-1.5,89.,2.5));
#1410 = VECTOR('',#1411,1.);
#1411 = DIRECTION('',(-0.,-0.,-1.));
#1412 = PLANE('',#1413);
#1413 = AXIS2_PLACEMENT_3D('',#1414,#1415,#1416);
#1414 = CARTESIAN_POINT('',(-1.5,90.,2.5));
#1415 = DIRECTION('',(-1.,0.,0.));
#1416 = DIRECTION('',(0.,-1.,0.));
#1417 = ADVANCED_FACE('',(#1418),#1434,.F.);
#1418 = FACE_BOUND('',#1419,.F.);
#1419 = EDGE_LOOP('',(#1420,#1421,#1427,#1428));
#1420 = ORIENTED_EDGE('',*,*,#1162,.T.);
#1421 = ORIENTED_EDGE('',*,*,#1422,.F.);
#1422 = EDGE_CURVE('',#460,#1155,#1423,.T.);
#1423 = LINE('',#1424,#1425);
#1424 = CARTESIAN_POINT('',(-1.5,-89.,2.5));
#1425 = VECTOR('',#1426,1.);
#1426 = DIRECTION('',(-0.,-0.,-1.));
#1427 = ORIENTED_EDGE('',*,*,#467,.F.);
#1428 = ORIENTED_EDGE('',*,*,#1429,.T.);
#1429 = EDGE_CURVE('',#451,#1163,#1430,.T.);
#1430 = LINE('',#1431,#1432);
#1431 = CARTESIAN_POINT('',(-1.5,-71.,2.5));
#1432 = VECTOR('',#1433,1.);
#1433 = DIRECTION('',(-0.,-0.,-1.));
#1434 = PLANE('',#1435);
#1435 = AXIS2_PLACEMENT_3D('',#1436,#1437,#1438);
#1436 = CARTESIAN_POINT('',(-1.5,-70.,2.5));
#1437 = DIRECTION('',(-1.,0.,0.));
#1438 = DIRECTION('',(0.,-1.,0.));
#1439 = ADVANCED_FACE('',(#1440),#1451,.F.);
#1440 = FACE_BOUND('',#1441,.T.);
#1441 = EDGE_LOOP('',(#1442,#1448,#1449,#1450));
#1442 = ORIENTED_EDGE('',*,*,#1443,.T.);
#1443 = EDGE_CURVE('',#484,#1115,#1444,.T.);
#1444 = LINE('',#1445,#1446);
#1445 = CARTESIAN_POINT('',(-0.5,70.,2.5));
#1446 = VECTOR('',#1447,1.);
#1447 = DIRECTION('',(-0.,-0.,-1.));
#1448 = ORIENTED_EDGE('',*,*,#1122,.T.);
#1449 = ORIENTED_EDGE('',*,*,#1400,.F.);
#1450 = ORIENTED_EDGE('',*,*,#491,.T.);
#1451 = PLANE('',#1452);
#1452 = AXIS2_PLACEMENT_3D('',#1453,#1454,#1455);
#1453 = CARTESIAN_POINT('',(-1.,70.5,2.5));
#1454 = DIRECTION('',(-0.707106781187,-0.707106781187,0.));
#1455 = DIRECTION('',(0.,0.,1.));
#1456 = ADVANCED_FACE('',(#1457),#1468,.F.);
#1457 = FACE_BOUND('',#1458,.F.);
#1458 = EDGE_LOOP('',(#1459,#1465,#1466,#1467));
#1459 = ORIENTED_EDGE('',*,*,#1460,.T.);
#1460 = EDGE_CURVE('',#506,#1083,#1461,.T.);
#1461 = LINE('',#1462,#1463);
#1462 = CARTESIAN_POINT('',(-0.5,-70.,2.5));
#1463 = VECTOR('',#1464,1.);
#1464 = DIRECTION('',(-0.,-0.,-1.));
#1465 = ORIENTED_EDGE('',*,*,#1170,.T.);
#1466 = ORIENTED_EDGE('',*,*,#1429,.F.);
#1467 = ORIENTED_EDGE('',*,*,#515,.F.);
#1468 = PLANE('',#1469);
#1469 = AXIS2_PLACEMENT_3D('',#1470,#1471,#1472);
#1470 = CARTESIAN_POINT('',(-1.,-70.5,2.5));
#1471 = DIRECTION('',(-0.707106781187,0.707106781187,0.));
#1472 = DIRECTION('',(0.,0.,-1.));
#1473 = ADVANCED_FACE('',(#1474),#1485,.F.);
#1474 = FACE_BOUND('',#1475,.F.);
#1475 = EDGE_LOOP('',(#1476,#1477,#1483,#1484));
#1476 = ORIENTED_EDGE('',*,*,#1114,.T.);
#1477 = ORIENTED_EDGE('',*,*,#1478,.F.);
#1478 = EDGE_CURVE('',#532,#1107,#1479,.T.);
#1479 = LINE('',#1480,#1481);
#1480 = CARTESIAN_POINT('',(74.,70.,2.5));
#1481 = VECTOR('',#1482,1.);
#1482 = DIRECTION('',(-0.,-0.,-1.));
#1483 = ORIENTED_EDGE('',*,*,#539,.F.);
#1484 = ORIENTED_EDGE('',*,*,#1443,.T.);
#1485 = PLANE('',#1486);
#1486 = AXIS2_PLACEMENT_3D('',#1487,#1488,#1489);
#1487 = CARTESIAN_POINT('',(-1.5,70.,2.5));
#1488 = DIRECTION('',(0.,-1.,0.));
#1489 = DIRECTION('',(1.,0.,0.));
#1490 = ADVANCED_FACE('',(#1491),#1501,.F.);
#1491 = FACE_BOUND('',#1492,.F.);
#1492 = EDGE_LOOP('',(#1493,#1499,#1500));
#1493 = ORIENTED_EDGE('',*,*,#1494,.F.);
#1494 = EDGE_CURVE('',#579,#532,#1495,.T.);
#1495 = LINE('',#1496,#1497);
#1496 = CARTESIAN_POINT('',(74.75,69.25,1.5));
#1497 = VECTOR('',#1498,1.);
#1498 = DIRECTION('',(-0.707106781187,0.707106781187,0.));
#1499 = ORIENTED_EDGE('',*,*,#578,.T.);
#1500 = ORIENTED_EDGE('',*,*,#531,.F.);
#1501 = PLANE('',#1502);
#1502 = AXIS2_PLACEMENT_3D('',#1503,#1504,#1505);
#1503 = CARTESIAN_POINT('',(75.,69.,1.5));
#1504 = DIRECTION('',(-0.57735026919,-0.57735026919,-0.57735026919));
#1505 = DIRECTION('',(0.,-0.707106781187,0.707106781187));
#1506 = ADVANCED_FACE('',(#1507),#1517,.T.);
#1507 = FACE_BOUND('',#1508,.T.);
#1508 = EDGE_LOOP('',(#1509,#1510,#1516));
#1509 = ORIENTED_EDGE('',*,*,#553,.F.);
#1510 = ORIENTED_EDGE('',*,*,#1511,.T.);
#1511 = EDGE_CURVE('',#554,#587,#1512,.T.);
#1512 = LINE('',#1513,#1514);
#1513 = CARTESIAN_POINT('',(74.25,-69.75,1.5));
#1514 = VECTOR('',#1515,1.);
#1515 = DIRECTION('',(0.707106781187,0.707106781187,0.));
#1516 = ORIENTED_EDGE('',*,*,#594,.F.);
#1517 = PLANE('',#1518);
#1518 = AXIS2_PLACEMENT_3D('',#1519,#1520,#1521);
#1519 = CARTESIAN_POINT('',(74.,-70.,1.5));
#1520 = DIRECTION('',(0.57735026919,-0.57735026919,0.57735026919));
#1521 = DIRECTION('',(0.707106781187,0.,-0.707106781187));
#1522 = ADVANCED_FACE('',(#1523),#1534,.F.);
#1523 = FACE_BOUND('',#1524,.F.);
#1524 = EDGE_LOOP('',(#1525,#1526,#1527,#1528));
#1525 = ORIENTED_EDGE('',*,*,#1080,.T.);
#1526 = ORIENTED_EDGE('',*,*,#1460,.F.);
#1527 = ORIENTED_EDGE('',*,*,#563,.F.);
#1528 = ORIENTED_EDGE('',*,*,#1529,.T.);
#1529 = EDGE_CURVE('',#554,#1081,#1530,.T.);
#1530 = LINE('',#1531,#1532);
#1531 = CARTESIAN_POINT('',(74.,-70.,2.5));
#1532 = VECTOR('',#1533,1.);
#1533 = DIRECTION('',(-0.,-0.,-1.));
#1534 = PLANE('',#1535);
#1535 = AXIS2_PLACEMENT_3D('',#1536,#1537,#1538);
#1536 = CARTESIAN_POINT('',(75.,-70.,2.5));
#1537 = DIRECTION('',(0.,1.,0.));
#1538 = DIRECTION('',(-1.,0.,0.));
#1539 = ADVANCED_FACE('',(#1540),#1556,.F.);
#1540 = FACE_BOUND('',#1541,.F.);
#1541 = EDGE_LOOP('',(#1542,#1543,#1549,#1550));
#1542 = ORIENTED_EDGE('',*,*,#1098,.F.);
#1543 = ORIENTED_EDGE('',*,*,#1544,.F.);
#1544 = EDGE_CURVE('',#587,#1091,#1545,.T.);
#1545 = LINE('',#1546,#1547);
#1546 = CARTESIAN_POINT('',(75.,-69.,2.5));
#1547 = VECTOR('',#1548,1.);
#1548 = DIRECTION('',(-0.,-0.,-1.));
#1549 = ORIENTED_EDGE('',*,*,#586,.T.);
#1550 = ORIENTED_EDGE('',*,*,#1551,.T.);
#1551 = EDGE_CURVE('',#579,#1099,#1552,.T.);
#1552 = LINE('',#1553,#1554);
#1553 = CARTESIAN_POINT('',(75.,69.,2.5));
#1554 = VECTOR('',#1555,1.);
#1555 = DIRECTION('',(-0.,-0.,-1.));
#1556 = PLANE('',#1557);
#1557 = AXIS2_PLACEMENT_3D('',#1558,#1559,#1560);
#1558 = CARTESIAN_POINT('',(75.,-90.,-2.5));
#1559 = DIRECTION('',(-1.,0.,0.));
#1560 = DIRECTION('',(0.,1.,0.));
#1561 = ADVANCED_FACE('',(#1562),#1573,.F.);
#1562 = FACE_BOUND('',#1563,.F.);
#1563 = EDGE_LOOP('',(#1564,#1570,#1571,#1572));
#1564 = ORIENTED_EDGE('',*,*,#1565,.F.);
#1565 = EDGE_CURVE('',#609,#1179,#1566,.T.);
#1566 = LINE('',#1567,#1568);
#1567 = CARTESIAN_POINT('',(-61.9,-80.,2.5));
#1568 = VECTOR('',#1569,1.);
#1569 = DIRECTION('',(-0.,-0.,-1.));
#1570 = ORIENTED_EDGE('',*,*,#618,.F.);
#1571 = ORIENTED_EDGE('',*,*,#1565,.T.);
#1572 = ORIENTED_EDGE('',*,*,#1178,.T.);
#1573 = CYLINDRICAL_SURFACE('',#1574,2.6);
#1574 = AXIS2_PLACEMENT_3D('',#1575,#1576,#1577);
#1575 = CARTESIAN_POINT('',(-64.5,-80.,2.5));
#1576 = DIRECTION('',(0.,0.,1.));
#1577 = DIRECTION('',(1.,0.,0.));
#1578 = ADVANCED_FACE('',(#1579),#1590,.F.);
#1579 = FACE_BOUND('',#1580,.F.);
#1580 = EDGE_LOOP('',(#1581,#1587,#1588,#1589));
#1581 = ORIENTED_EDGE('',*,*,#1582,.F.);
#1582 = EDGE_CURVE('',#634,#1190,#1583,.T.);
#1583 = LINE('',#1584,#1585);
#1584 = CARTESIAN_POINT('',(-9.5,-80.,2.5));
#1585 = VECTOR('',#1586,1.);
#1586 = DIRECTION('',(-0.,-0.,-1.));
#1587 = ORIENTED_EDGE('',*,*,#643,.F.);
#1588 = ORIENTED_EDGE('',*,*,#1582,.T.);
#1589 = ORIENTED_EDGE('',*,*,#1189,.T.);
#1590 = CYLINDRICAL_SURFACE('',#1591,2.6);
#1591 = AXIS2_PLACEMENT_3D('',#1592,#1593,#1594);
#1592 = CARTESIAN_POINT('',(-12.1,-80.,2.5));
#1593 = DIRECTION('',(0.,0.,1.));
#1594 = DIRECTION('',(1.,0.,0.));
#1595 = ADVANCED_FACE('',(#1596),#1607,.F.);
#1596 = FACE_BOUND('',#1597,.F.);
#1597 = EDGE_LOOP('',(#1598,#1604,#1605,#1606));
#1598 = ORIENTED_EDGE('',*,*,#1599,.F.);
#1599 = EDGE_CURVE('',#684,#1201,#1600,.T.);
#1600 = LINE('',#1601,#1602);
#1601 = CARTESIAN_POINT('',(-39.,-15.5,2.5));
#1602 = VECTOR('',#1603,1.);
#1603 = DIRECTION('',(-0.,-0.,-1.));
#1604 = ORIENTED_EDGE('',*,*,#693,.F.);
#1605 = ORIENTED_EDGE('',*,*,#1599,.T.);
#1606 = ORIENTED_EDGE('',*,*,#1200,.T.);
#1607 = CYLINDRICAL_SURFACE('',#1608,1.5);
#1608 = AXIS2_PLACEMENT_3D('',#1609,#1610,#1611);
#1609 = CARTESIAN_POINT('',(-40.5,-15.5,2.5));
#1610 = DIRECTION('',(0.,0.,1.));
#1611 = DIRECTION('',(1.,0.,0.));
#1612 = ADVANCED_FACE('',(#1613),#1624,.F.);
#1613 = FACE_BOUND('',#1614,.F.);
#1614 = EDGE_LOOP('',(#1615,#1621,#1622,#1623));
#1615 = ORIENTED_EDGE('',*,*,#1616,.F.);
#1616 = EDGE_CURVE('',#709,#1248,#1617,.T.);
#1617 = LINE('',#1618,#1619);
#1618 = CARTESIAN_POINT('',(-13.5,0.,2.5));
#1619 = VECTOR('',#1620,1.);
#1620 = DIRECTION('',(-0.,-0.,-1.));
#1621 = ORIENTED_EDGE('',*,*,#718,.F.);
#1622 = ORIENTED_EDGE('',*,*,#1616,.T.);
#1623 = ORIENTED_EDGE('',*,*,#1247,.T.);
#1624 = CYLINDRICAL_SURFACE('',#1625,11.5);
#1625 = AXIS2_PLACEMENT_3D('',#1626,#1627,#1628);
#1626 = CARTESIAN_POINT('',(-25.,0.,2.5));
#1627 = DIRECTION('',(0.,0.,1.));
#1628 = DIRECTION('',(1.,0.,0.));
#1629 = ADVANCED_FACE('',(#1630),#1641,.F.);
#1630 = FACE_BOUND('',#1631,.F.);
#1631 = EDGE_LOOP('',(#1632,#1638,#1639,#1640));
#1632 = ORIENTED_EDGE('',*,*,#1633,.F.);
#1633 = EDGE_CURVE('',#734,#1212,#1634,.T.);
#1634 = LINE('',#1635,#1636);
#1635 = CARTESIAN_POINT('',(-8.,-15.5,2.5));
#1636 = VECTOR('',#1637,1.);
#1637 = DIRECTION('',(-0.,-0.,-1.));
#1638 = ORIENTED_EDGE('',*,*,#743,.F.);
#1639 = ORIENTED_EDGE('',*,*,#1633,.T.);
#1640 = ORIENTED_EDGE('',*,*,#1211,.T.);
#1641 = CYLINDRICAL_SURFACE('',#1642,1.5);
#1642 = AXIS2_PLACEMENT_3D('',#1643,#1644,#1645);
#1643 = CARTESIAN_POINT('',(-9.5,-15.5,2.5));
#1644 = DIRECTION('',(0.,0.,1.));
#1645 = DIRECTION('',(1.,0.,0.));
#1646 = ADVANCED_FACE('',(#1647),#1663,.F.);
#1647 = FACE_BOUND('',#1648,.F.);
#1648 = EDGE_LOOP('',(#1649,#1655,#1656,#1662));
#1649 = ORIENTED_EDGE('',*,*,#1650,.F.);
#1650 = EDGE_CURVE('',#793,#1297,#1651,.T.);
#1651 = LINE('',#1652,#1653);
#1652 = CARTESIAN_POINT('',(24.25,15.,2.5));
#1653 = VECTOR('',#1654,1.);
#1654 = DIRECTION('',(-0.,-0.,-1.));
#1655 = ORIENTED_EDGE('',*,*,#800,.F.);
#1656 = ORIENTED_EDGE('',*,*,#1657,.T.);
#1657 = EDGE_CURVE('',#784,#1295,#1658,.T.);
#1658 = LINE('',#1659,#1660);
#1659 = CARTESIAN_POINT('',(36.25,15.,2.5));
#1660 = VECTOR('',#1661,1.);
#1661 = DIRECTION('',(-0.,-0.,-1.));
#1662 = ORIENTED_EDGE('',*,*,#1294,.T.);
#1663 = CYLINDRICAL_SURFACE('',#1664,6.);
#1664 = AXIS2_PLACEMENT_3D('',#1665,#1666,#1667);
#1665 = CARTESIAN_POINT('',(30.25,15.,2.5));
#1666 = DIRECTION('',(0.,0.,1.));
#1667 = DIRECTION('',(1.,0.,0.));
#1668 = ADVANCED_FACE('',(#1669),#1680,.T.);
#1669 = FACE_BOUND('',#1670,.T.);
#1670 = EDGE_LOOP('',(#1671,#1677,#1678,#1679));
#1671 = ORIENTED_EDGE('',*,*,#1672,.F.);
#1672 = EDGE_CURVE('',#816,#1306,#1673,.T.);
#1673 = LINE('',#1674,#1675);
#1674 = CARTESIAN_POINT('',(36.25,-15.,2.5));
#1675 = VECTOR('',#1676,1.);
#1676 = DIRECTION('',(-0.,-0.,-1.));
#1677 = ORIENTED_EDGE('',*,*,#825,.T.);
#1678 = ORIENTED_EDGE('',*,*,#1657,.T.);
#1679 = ORIENTED_EDGE('',*,*,#1305,.T.);
#1680 = PLANE('',#1681);
#1681 = AXIS2_PLACEMENT_3D('',#1682,#1683,#1684);
#1682 = CARTESIAN_POINT('',(36.25,15.,2.5));
#1683 = DIRECTION('',(-1.,0.,0.));
#1684 = DIRECTION('',(0.,-1.,0.));
#1685 = ADVANCED_FACE('',(#1686),#1697,.F.);
#1686 = FACE_BOUND('',#1687,.F.);
#1687 = EDGE_LOOP('',(#1688,#1694,#1695,#1696));
#1688 = ORIENTED_EDGE('',*,*,#1689,.F.);
#1689 = EDGE_CURVE('',#842,#1314,#1690,.T.);
#1690 = LINE('',#1691,#1692);
#1691 = CARTESIAN_POINT('',(24.25,-15.,2.5));
#1692 = VECTOR('',#1693,1.);
#1693 = DIRECTION('',(-0.,-0.,-1.));
#1694 = ORIENTED_EDGE('',*,*,#849,.F.);
#1695 = ORIENTED_EDGE('',*,*,#1650,.T.);
#1696 = ORIENTED_EDGE('',*,*,#1322,.T.);
#1697 = PLANE('',#1698);
#1698 = AXIS2_PLACEMENT_3D('',#1699,#1700,#1701);
#1699 = CARTESIAN_POINT('',(24.25,15.,2.5));
#1700 = DIRECTION('',(-1.,1.2E-16,0.));
#1701 = DIRECTION('',(-1.2E-16,-1.,0.));
#1702 = ADVANCED_FACE('',(#1703),#1709,.F.);
#1703 = FACE_BOUND('',#1704,.F.);
#1704 = EDGE_LOOP('',(#1705,#1706,#1707,#1708));
#1705 = ORIENTED_EDGE('',*,*,#1672,.F.);
#1706 = ORIENTED_EDGE('',*,*,#866,.F.);
#1707 = ORIENTED_EDGE('',*,*,#1689,.T.);
#1708 = ORIENTED_EDGE('',*,*,#1313,.T.);
#1709 = CYLINDRICAL_SURFACE('',#1710,6.);
#1710 = AXIS2_PLACEMENT_3D('',#1711,#1712,#1713);
#1711 = CARTESIAN_POINT('',(30.25,-15.,2.5));
#1712 = DIRECTION('',(0.,0.,1.));
#1713 = DIRECTION('',(1.,0.,0.));
#1714 = ADVANCED_FACE('',(#1715),#1726,.F.);
#1715 = FACE_BOUND('',#1716,.F.);
#1716 = EDGE_LOOP('',(#1717,#1723,#1724,#1725));
#1717 = ORIENTED_EDGE('',*,*,#1718,.F.);
#1718 = EDGE_CURVE('',#882,#1237,#1719,.T.);
#1719 = LINE('',#1720,#1721);
#1720 = CARTESIAN_POINT('',(-39.,15.5,2.5));
#1721 = VECTOR('',#1722,1.);
#1722 = DIRECTION('',(-0.,-0.,-1.));
#1723 = ORIENTED_EDGE('',*,*,#891,.F.);
#1724 = ORIENTED_EDGE('',*,*,#1718,.T.);
#1725 = ORIENTED_EDGE('',*,*,#1236,.T.);
#1726 = CYLINDRICAL_SURFACE('',#1727,1.5);
#1727 = AXIS2_PLACEMENT_3D('',#1728,#1729,#1730);
#1728 = CARTESIAN_POINT('',(-40.5,15.5,2.5));
#1729 = DIRECTION('',(0.,0.,1.));
#1730 = DIRECTION('',(1.,0.,0.));
#1731 = ADVANCED_FACE('',(#1732),#1743,.F.);
#1732 = FACE_BOUND('',#1733,.F.);
#1733 = EDGE_LOOP('',(#1734,#1740,#1741,#1742));
#1734 = ORIENTED_EDGE('',*,*,#1735,.F.);
#1735 = EDGE_CURVE('',#907,#1259,#1736,.T.);
#1736 = LINE('',#1737,#1738);
#1737 = CARTESIAN_POINT('',(-8.,15.5,2.5));
#1738 = VECTOR('',#1739,1.);
#1739 = DIRECTION('',(-0.,-0.,-1.));
#1740 = ORIENTED_EDGE('',*,*,#916,.F.);
#1741 = ORIENTED_EDGE('',*,*,#1735,.T.);
#1742 = ORIENTED_EDGE('',*,*,#1258,.T.);
#1743 = CYLINDRICAL_SURFACE('',#1744,1.5);
#1744 = AXIS2_PLACEMENT_3D('',#1745,#1746,#1747);
#1745 = CARTESIAN_POINT('',(-9.5,15.5,2.5));
#1746 = DIRECTION('',(0.,0.,1.));
#1747 = DIRECTION('',(1.,0.,0.));
#1748 = ADVANCED_FACE('',(#1749),#1760,.F.);
#1749 = FACE_BOUND('',#1750,.F.);
#1750 = EDGE_LOOP('',(#1751,#1757,#1758,#1759));
#1751 = ORIENTED_EDGE('',*,*,#1752,.F.);
#1752 = EDGE_CURVE('',#932,#1270,#1753,.T.);
#1753 = LINE('',#1754,#1755);
#1754 = CARTESIAN_POINT('',(-61.9,80.,2.5));
#1755 = VECTOR('',#1756,1.);
#1756 = DIRECTION('',(-0.,-0.,-1.));
#1757 = ORIENTED_EDGE('',*,*,#941,.F.);
#1758 = ORIENTED_EDGE('',*,*,#1752,.T.);
#1759 = ORIENTED_EDGE('',*,*,#1269,.T.);
#1760 = CYLINDRICAL_SURFACE('',#1761,2.6);
#1761 = AXIS2_PLACEMENT_3D('',#1762,#1763,#1764);
#1762 = CARTESIAN_POINT('',(-64.5,80.,2.5));
#1763 = DIRECTION('',(0.,0.,1.));
#1764 = DIRECTION('',(1.,0.,0.));
#1765 = ADVANCED_FACE('',(#1766),#1777,.F.);
#1766 = FACE_BOUND('',#1767,.F.);
#1767 = EDGE_LOOP('',(#1768,#1774,#1775,#1776));
#1768 = ORIENTED_EDGE('',*,*,#1769,.F.);
#1769 = EDGE_CURVE('',#957,#1281,#1770,.T.);
#1770 = LINE('',#1771,#1772);
#1771 = CARTESIAN_POINT('',(-9.5,80.,2.5));
#1772 = VECTOR('',#1773,1.);
#1773 = DIRECTION('',(-0.,-0.,-1.));
#1774 = ORIENTED_EDGE('',*,*,#966,.F.);
#1775 = ORIENTED_EDGE('',*,*,#1769,.T.);
#1776 = ORIENTED_EDGE('',*,*,#1280,.T.);
#1777 = CYLINDRICAL_SURFACE('',#1778,2.6);
#1778 = AXIS2_PLACEMENT_3D('',#1779,#1780,#1781);
#1779 = CARTESIAN_POINT('',(-12.1,80.,2.5));
#1780 = DIRECTION('',(0.,0.,1.));
#1781 = DIRECTION('',(1.,0.,0.));
#1782 = ADVANCED_FACE('',(#1783),#1794,.F.);
#1783 = FACE_BOUND('',#1784,.F.);
#1784 = EDGE_LOOP('',(#1785,#1791,#1792,#1793));
#1785 = ORIENTED_EDGE('',*,*,#1786,.F.);
#1786 = EDGE_CURVE('',#982,#1334,#1787,.T.);
#1787 = LINE('',#1788,#1789);
#1788 = CARTESIAN_POINT('',(41.75,48.5,2.5));
#1789 = VECTOR('',#1790,1.);
#1790 = DIRECTION('',(-0.,-0.,-1.));
#1791 = ORIENTED_EDGE('',*,*,#991,.F.);
#1792 = ORIENTED_EDGE('',*,*,#1786,.T.);
#1793 = ORIENTED_EDGE('',*,*,#1333,.T.);
#1794 = CYLINDRICAL_SURFACE('',#1795,11.5);
#1795 = AXIS2_PLACEMENT_3D('',#1796,#1797,#1798);
#1796 = CARTESIAN_POINT('',(30.25,48.5,2.5));
#1797 = DIRECTION('',(0.,0.,1.));
#1798 = DIRECTION('',(1.,0.,0.));
#1799 = ADVANCED_FACE('',(#1800),#1811,.F.);
#1800 = FACE_BOUND('',#1801,.F.);
#1801 = EDGE_LOOP('',(#1802,#1808,#1809,#1810));
#1802 = ORIENTED_EDGE('',*,*,#1803,.F.);
#1803 = EDGE_CURVE('',#1007,#1223,#1804,.T.);
#1804 = LINE('',#1805,#1806);
#1805 = CARTESIAN_POINT('',(50.7,-28.5,2.5));
#1806 = VECTOR('',#1807,1.);
#1807 = DIRECTION('',(-0.,-0.,-1.));
#1808 = ORIENTED_EDGE('',*,*,#1016,.F.);
#1809 = ORIENTED_EDGE('',*,*,#1803,.T.);
#1810 = ORIENTED_EDGE('',*,*,#1222,.T.);
#1811 = CYLINDRICAL_SURFACE('',#1812,1.5);
#1812 = AXIS2_PLACEMENT_3D('',#1813,#1814,#1815);
#1813 = CARTESIAN_POINT('',(49.2,-28.5,2.5));
#1814 = DIRECTION('',(0.,0.,1.));
#1815 = DIRECTION('',(1.,0.,0.));
#1816 = ADVANCED_FACE('',(#1817),#1823,.T.);
#1817 = FACE_BOUND('',#1818,.T.);
#1818 = EDGE_LOOP('',(#1819,#1820,#1821,#1822));
#1819 = ORIENTED_EDGE('',*,*,#1368,.F.);
#1820 = ORIENTED_EDGE('',*,*,#1407,.T.);
#1821 = ORIENTED_EDGE('',*,*,#1138,.T.);
#1822 = ORIENTED_EDGE('',*,*,#1064,.F.);
#1823 = PLANE('',#1824);
#1824 = AXIS2_PLACEMENT_3D('',#1825,#1826,#1827);
#1825 = CARTESIAN_POINT('',(-2.,89.5,2.5));
#1826 = DIRECTION('',(0.707106781187,0.707106781187,0.));
#1827 = DIRECTION('',(0.,0.,-1.));
#1828 = ADVANCED_FACE('',(#1829),#1835,.T.);
#1829 = FACE_BOUND('',#1830,.T.);
#1830 = EDGE_LOOP('',(#1831,#1832,#1833,#1834));
#1831 = ORIENTED_EDGE('',*,*,#1511,.F.);
#1832 = ORIENTED_EDGE('',*,*,#1529,.T.);
#1833 = ORIENTED_EDGE('',*,*,#1090,.T.);
#1834 = ORIENTED_EDGE('',*,*,#1544,.F.);
#1835 = PLANE('',#1836);
#1836 = AXIS2_PLACEMENT_3D('',#1837,#1838,#1839);
#1837 = CARTESIAN_POINT('',(74.5,-69.5,2.5));
#1838 = DIRECTION('',(0.707106781187,-0.707106781187,0.));
#1839 = DIRECTION('',(0.,0.,-1.));
#1840 = ADVANCED_FACE('',(#1841),#1847,.T.);
#1841 = FACE_BOUND('',#1842,.T.);
#1842 = EDGE_LOOP('',(#1843,#1844,#1845,#1846));
#1843 = ORIENTED_EDGE('',*,*,#1494,.F.);
#1844 = ORIENTED_EDGE('',*,*,#1551,.T.);
#1845 = ORIENTED_EDGE('',*,*,#1106,.T.);
#1846 = ORIENTED_EDGE('',*,*,#1478,.F.);
#1847 = PLANE('',#1848);
#1848 = AXIS2_PLACEMENT_3D('',#1849,#1850,#1851);
#1849 = CARTESIAN_POINT('',(74.5,69.5,2.5));
#1850 = DIRECTION('',(0.707106781187,0.707106781187,0.));
#1851 = DIRECTION('',(0.,0.,-1.));
#1852 = ADVANCED_FACE('',(#1853),#1859,.T.);
#1853 = FACE_BOUND('',#1854,.F.);
#1854 = EDGE_LOOP('',(#1855,#1856,#1857,#1858));
#1855 = ORIENTED_EDGE('',*,*,#1384,.F.);
#1856 = ORIENTED_EDGE('',*,*,#1422,.T.);
#1857 = ORIENTED_EDGE('',*,*,#1154,.T.);
#1858 = ORIENTED_EDGE('',*,*,#1353,.F.);
#1859 = PLANE('',#1860);
#1860 = AXIS2_PLACEMENT_3D('',#1861,#1862,#1863);
#1861 = CARTESIAN_POINT('',(-2.,-89.5,2.5));
#1862 = DIRECTION('',(0.707106781187,-0.707106781187,0.));
#1863 = DIRECTION('',(0.,0.,1.));
#1864 = ( GEOMETRIC_REPRESENTATION_CONTEXT(3) 
GLOBAL_UNCERTAINTY_ASSIGNED_CONTEXT((#1868)) 
GLOBAL_UNIT_ASSIGNED_CONTEXT((#1865,#1866,#1867)) REPRESENTATION_CONTEXT
('Context #1','3D Context with UNIT and UNCERTAINTY') );
#1865 = ( LENGTH_UNIT() NAMED_UNIT(*) SI_UNIT(.MILLI.,.METRE.) );
#1866 = ( NAMED_UNIT(*) PLANE_ANGLE_UNIT() SI_UNIT($,.RADIAN.) );
#1867 = ( NAMED_UNIT(*) SI_UNIT($,.STERADIAN.) SOLID_ANGLE_UNIT() );
#1868 = UNCERTAINTY_MEASURE_WITH_UNIT(LENGTH_MEASURE(2.E-05),#1865,
  'distance_accuracy_value','confusion accuracy');
#1869 = PRODUCT_RELATED_PRODUCT_CATEGORY('part',$,(#7));
ENDSEC;
END-ISO-10303-21;
