ISO-10303-21;
HEADER;
FILE_DESCRIPTION(('FreeCAD Model'),'2;1');
FILE_NAME('Open CASCADE Shape Model','2026-09-08T00:01:26',('FreeCAD'),(
    'FreeCAD'),'Open CASCADE STEP processor 7.8','FreeCAD','Unknown');
FILE_SCHEMA(('AUTOMOTIVE_DESIGN { 1 0 10303 214 1 1 1 1 }'));
ENDSEC;
DATA;
#1 = APPLICATION_PROTOCOL_DEFINITION('international standard',
  'automotive_design',2000,#2);
#2 = APPLICATION_CONTEXT(
  'core data for automotive mechanical design processes');
#3 = SHAPE_DEFINITION_REPRESENTATION(#4,#10);
#4 = PRODUCT_DEFINITION_SHAPE('','',#5);
#5 = PRODUCT_DEFINITION('design','',#6,#9);
#6 = PRODUCT_DEFINITION_FORMATION('','',#7);
#7 = PRODUCT('Open CASCADE STEP translator 7.8 32',
  'Open CASCADE STEP translator 7.8 32','',(#8));
#8 = PRODUCT_CONTEXT('',#2,'mechanical');
#9 = PRODUCT_DEFINITION_CONTEXT('part definition',#2,'design');
#10 = ADVANCED_BREP_SHAPE_REPRESENTATION('',(#11,#15),#593);
#11 = AXIS2_PLACEMENT_3D('',#12,#13,#14);
#12 = CARTESIAN_POINT('',(0.,0.,0.));
#13 = DIRECTION('',(0.,0.,1.));
#14 = DIRECTION('',(1.,0.,-0.));
#15 = MANIFOLD_SOLID_BREP('',#16);
#16 = CLOSED_SHELL('',(#17,#145,#192,#216,#240,#273,#298,#323,#348,#373,
    #398,#423,#448,#473,#490,#507,#559,#576));
#17 = ADVANCED_FACE('',(#18,#52,#63,#74,#85,#96,#107,#118,#129),#140,.F.
  );
#18 = FACE_BOUND('',#19,.F.);
#19 = EDGE_LOOP('',(#20,#30,#38,#46));
#20 = ORIENTED_EDGE('',*,*,#21,.T.);
#21 = EDGE_CURVE('',#22,#24,#26,.T.);
#22 = VERTEX_POINT('',#23);
#23 = CARTESIAN_POINT('',(-2.5,89.,29.9));
#24 = VERTEX_POINT('',#25);
#25 = CARTESIAN_POINT('',(-2.5,-89.,29.9));
#26 = LINE('',#27,#28);
#27 = CARTESIAN_POINT('',(-2.5,90.,29.9));
#28 = VECTOR('',#29,1.);
#29 = DIRECTION('',(0.,-1.,2.2E-16));
#30 = ORIENTED_EDGE('',*,*,#31,.T.);
#31 = EDGE_CURVE('',#24,#32,#34,.T.);
#32 = VERTEX_POINT('',#33);
#33 = CARTESIAN_POINT('',(-2.5,-89.,-29.9));
#34 = LINE('',#35,#36);
#35 = CARTESIAN_POINT('',(-2.5,-89.,29.9));
#36 = VECTOR('',#37,1.);
#37 = DIRECTION('',(0.,-2.2E-16,-1.));
#38 = ORIENTED_EDGE('',*,*,#39,.F.);
#39 = EDGE_CURVE('',#40,#32,#42,.T.);
#40 = VERTEX_POINT('',#41);
#41 = CARTESIAN_POINT('',(-2.5,89.,-29.9));
#42 = LINE('',#43,#44);
#43 = CARTESIAN_POINT('',(-2.5,90.,-29.9));
#44 = VECTOR('',#45,1.);
#45 = DIRECTION('',(0.,-1.,2.2E-16));
#46 = ORIENTED_EDGE('',*,*,#47,.F.);
#47 = EDGE_CURVE('',#22,#40,#48,.T.);
#48 = LINE('',#49,#50);
#49 = CARTESIAN_POINT('',(-2.5,89.,29.9));
#50 = VECTOR('',#51,1.);
#51 = DIRECTION('',(0.,-2.2E-16,-1.));
#52 = FACE_BOUND('',#53,.F.);
#53 = EDGE_LOOP('',(#54));
#54 = ORIENTED_EDGE('',*,*,#55,.T.);
#55 = EDGE_CURVE('',#56,#56,#58,.T.);
#56 = VERTEX_POINT('',#57);
#57 = CARTESIAN_POINT('',(-2.5,-80.,-5.1));
#58 = CIRCLE('',#59,5.1);
#59 = AXIS2_PLACEMENT_3D('',#60,#61,#62);
#60 = CARTESIAN_POINT('',(-2.5,-80.,0.));
#61 = DIRECTION('',(-1.,-0.,0.));
#62 = DIRECTION('',(0.,-5.24E-15,-1.));
#63 = FACE_BOUND('',#64,.F.);
#64 = EDGE_LOOP('',(#65));
#65 = ORIENTED_EDGE('',*,*,#66,.T.);
#66 = EDGE_CURVE('',#67,#67,#69,.T.);
#67 = VERTEX_POINT('',#68);
#68 = CARTESIAN_POINT('',(-2.5,50.500000000006,-1.));
#69 = CIRCLE('',#70,10.5);
#70 = AXIS2_PLACEMENT_3D('',#71,#72,#73);
#71 = CARTESIAN_POINT('',(-2.5,50.500000000006,9.5));
#72 = DIRECTION('',(-1.,2.2E-16,-2.2E-16));
#73 = DIRECTION('',(2.2E-16,2.2E-16,-1.));
#74 = FACE_BOUND('',#75,.F.);
#75 = EDGE_LOOP('',(#76));
#76 = ORIENTED_EDGE('',*,*,#77,.T.);
#77 = EDGE_CURVE('',#78,#78,#80,.T.);
#78 = VERTEX_POINT('',#79);
#79 = CARTESIAN_POINT('',(-2.5,80.,-5.1));
#80 = CIRCLE('',#81,5.1);
#81 = AXIS2_PLACEMENT_3D('',#82,#83,#84);
#82 = CARTESIAN_POINT('',(-2.5,80.,0.));
#83 = DIRECTION('',(-1.,0.,-0.));
#84 = DIRECTION('',(0.,2.2E-16,-1.));
#85 = FACE_BOUND('',#86,.F.);
#86 = EDGE_LOOP('',(#87));
#87 = ORIENTED_EDGE('',*,*,#88,.T.);
#88 = EDGE_CURVE('',#89,#89,#91,.T.);
#89 = VERTEX_POINT('',#90);
#90 = CARTESIAN_POINT('',(-2.5,41.,-17.05));
#91 = CIRCLE('',#92,1.05);
#92 = AXIS2_PLACEMENT_3D('',#93,#94,#95);
#93 = CARTESIAN_POINT('',(-2.5,41.,-16.));
#94 = DIRECTION('',(-1.,2.2E-16,-2.2E-16));
#95 = DIRECTION('',(2.2E-16,2.2E-16,-1.));
#96 = FACE_BOUND('',#97,.F.);
#97 = EDGE_LOOP('',(#98));
#98 = ORIENTED_EDGE('',*,*,#99,.T.);
#99 = EDGE_CURVE('',#100,#100,#102,.T.);
#100 = VERTEX_POINT('',#101);
#101 = CARTESIAN_POINT('',(-2.5,44.500000000006,-17.1));
#102 = CIRCLE('',#103,1.1);
#103 = AXIS2_PLACEMENT_3D('',#104,#105,#106);
#104 = CARTESIAN_POINT('',(-2.5,44.500000000006,-16.));
#105 = DIRECTION('',(-1.,2.2E-16,-2.2E-16));
#106 = DIRECTION('',(2.2E-16,2.2E-16,-1.));
#107 = FACE_BOUND('',#108,.F.);
#108 = EDGE_LOOP('',(#109));
#109 = ORIENTED_EDGE('',*,*,#110,.T.);
#110 = EDGE_CURVE('',#111,#111,#113,.T.);
#111 = VERTEX_POINT('',#112);
#112 = CARTESIAN_POINT('',(-2.5,50.5,-20.));
#113 = CIRCLE('',#114,4.);
#114 = AXIS2_PLACEMENT_3D('',#115,#116,#117);
#115 = CARTESIAN_POINT('',(-2.5,50.5,-16.));
#116 = DIRECTION('',(-1.,2.2E-16,-2.2E-16));
#117 = DIRECTION('',(2.2E-16,2.2E-16,-1.));
#118 = FACE_BOUND('',#119,.F.);
#119 = EDGE_LOOP('',(#120));
#120 = ORIENTED_EDGE('',*,*,#121,.T.);
#121 = EDGE_CURVE('',#122,#122,#124,.T.);
#122 = VERTEX_POINT('',#123);
#123 = CARTESIAN_POINT('',(-2.5,56.500000000006,-17.1));
#124 = CIRCLE('',#125,1.1);
#125 = AXIS2_PLACEMENT_3D('',#126,#127,#128);
#126 = CARTESIAN_POINT('',(-2.5,56.500000000006,-16.));
#127 = DIRECTION('',(-1.,2.2E-16,-2.2E-16));
#128 = DIRECTION('',(2.2E-16,2.2E-16,-1.));
#129 = FACE_BOUND('',#130,.F.);
#130 = EDGE_LOOP('',(#131));
#131 = ORIENTED_EDGE('',*,*,#132,.T.);
#132 = EDGE_CURVE('',#133,#133,#135,.T.);
#133 = VERTEX_POINT('',#134);
#134 = CARTESIAN_POINT('',(-2.5,60.,-17.05));
#135 = CIRCLE('',#136,1.05);
#136 = AXIS2_PLACEMENT_3D('',#137,#138,#139);
#137 = CARTESIAN_POINT('',(-2.5,60.,-16.));
#138 = DIRECTION('',(-1.,2.2E-16,-2.2E-16));
#139 = DIRECTION('',(2.2E-16,2.2E-16,-1.));
#140 = PLANE('',#141);
#141 = AXIS2_PLACEMENT_3D('',#142,#143,#144);
#142 = CARTESIAN_POINT('',(-2.5,90.,29.9));
#143 = DIRECTION('',(1.,0.,0.));
#144 = DIRECTION('',(0.,-2.2E-16,-1.));
#145 = ADVANCED_FACE('',(#146),#187,.F.);
#146 = FACE_BOUND('',#147,.F.);
#147 = EDGE_LOOP('',(#148,#149,#157,#165,#173,#181));
#148 = ORIENTED_EDGE('',*,*,#21,.F.);
#149 = ORIENTED_EDGE('',*,*,#150,.T.);
#150 = EDGE_CURVE('',#22,#151,#153,.T.);
#151 = VERTEX_POINT('',#152);
#152 = CARTESIAN_POINT('',(-1.5,90.,29.9));
#153 = LINE('',#154,#155);
#154 = CARTESIAN_POINT('',(-0.75,90.75,29.9));
#155 = VECTOR('',#156,1.);
#156 = DIRECTION('',(0.707106781187,0.707106781187,-1.6E-16));
#157 = ORIENTED_EDGE('',*,*,#158,.F.);
#158 = EDGE_CURVE('',#159,#151,#161,.T.);
#159 = VERTEX_POINT('',#160);
#160 = CARTESIAN_POINT('',(2.5,90.,29.9));
#161 = LINE('',#162,#163);
#162 = CARTESIAN_POINT('',(2.5,90.,29.9));
#163 = VECTOR('',#164,1.);
#164 = DIRECTION('',(-1.,0.,0.));
#165 = ORIENTED_EDGE('',*,*,#166,.T.);
#166 = EDGE_CURVE('',#159,#167,#169,.T.);
#167 = VERTEX_POINT('',#168);
#168 = CARTESIAN_POINT('',(2.5,-90.,29.9));
#169 = LINE('',#170,#171);
#170 = CARTESIAN_POINT('',(2.5,90.,29.9));
#171 = VECTOR('',#172,1.);
#172 = DIRECTION('',(0.,-1.,2.2E-16));
#173 = ORIENTED_EDGE('',*,*,#174,.T.);
#174 = EDGE_CURVE('',#167,#175,#177,.T.);
#175 = VERTEX_POINT('',#176);
#176 = CARTESIAN_POINT('',(-1.5,-90.,29.9));
#177 = LINE('',#178,#179);
#178 = CARTESIAN_POINT('',(2.5,-90.,29.9));
#179 = VECTOR('',#180,1.);
#180 = DIRECTION('',(-1.,0.,0.));
#181 = ORIENTED_EDGE('',*,*,#182,.F.);
#182 = EDGE_CURVE('',#24,#175,#183,.T.);
#183 = LINE('',#184,#185);
#184 = CARTESIAN_POINT('',(-45.75,-45.75,29.9));
#185 = VECTOR('',#186,1.);
#186 = DIRECTION('',(0.707106781187,-0.707106781187,1.6E-16));
#187 = PLANE('',#188);
#188 = AXIS2_PLACEMENT_3D('',#189,#190,#191);
#189 = CARTESIAN_POINT('',(2.5,90.,29.9));
#190 = DIRECTION('',(0.,-2.2E-16,-1.));
#191 = DIRECTION('',(-1.,0.,0.));
#192 = ADVANCED_FACE('',(#193),#211,.F.);
#193 = FACE_BOUND('',#194,.F.);
#194 = EDGE_LOOP('',(#195,#196,#197,#205));
#195 = ORIENTED_EDGE('',*,*,#150,.F.);
#196 = ORIENTED_EDGE('',*,*,#47,.T.);
#197 = ORIENTED_EDGE('',*,*,#198,.T.);
#198 = EDGE_CURVE('',#40,#199,#201,.T.);
#199 = VERTEX_POINT('',#200);
#200 = CARTESIAN_POINT('',(-1.5,90.,-29.9));
#201 = LINE('',#202,#203);
#202 = CARTESIAN_POINT('',(-2.,89.5,-29.9));
#203 = VECTOR('',#204,1.);
#204 = DIRECTION('',(0.707106781187,0.707106781187,-1.6E-16));
#205 = ORIENTED_EDGE('',*,*,#206,.F.);
#206 = EDGE_CURVE('',#151,#199,#207,.T.);
#207 = LINE('',#208,#209);
#208 = CARTESIAN_POINT('',(-1.5,90.,29.9));
#209 = VECTOR('',#210,1.);
#210 = DIRECTION('',(0.,-2.2E-16,-1.));
#211 = PLANE('',#212);
#212 = AXIS2_PLACEMENT_3D('',#213,#214,#215);
#213 = CARTESIAN_POINT('',(-2.,89.5,29.9));
#214 = DIRECTION('',(0.707106781187,-0.707106781187,-1.6E-16));
#215 = DIRECTION('',(-2.231370849898E-16,3.137084989848E-18,-1.));
#216 = ADVANCED_FACE('',(#217),#235,.T.);
#217 = FACE_BOUND('',#218,.T.);
#218 = EDGE_LOOP('',(#219,#220,#221,#229));
#219 = ORIENTED_EDGE('',*,*,#182,.F.);
#220 = ORIENTED_EDGE('',*,*,#31,.T.);
#221 = ORIENTED_EDGE('',*,*,#222,.T.);
#222 = EDGE_CURVE('',#32,#223,#225,.T.);
#223 = VERTEX_POINT('',#224);
#224 = CARTESIAN_POINT('',(-1.5,-90.,-29.9));
#225 = LINE('',#226,#227);
#226 = CARTESIAN_POINT('',(-47.,-44.5,-29.9));
#227 = VECTOR('',#228,1.);
#228 = DIRECTION('',(0.707106781187,-0.707106781187,1.6E-16));
#229 = ORIENTED_EDGE('',*,*,#230,.F.);
#230 = EDGE_CURVE('',#175,#223,#231,.T.);
#231 = LINE('',#232,#233);
#232 = CARTESIAN_POINT('',(-1.5,-90.,29.9));
#233 = VECTOR('',#234,1.);
#234 = DIRECTION('',(0.,-2.2E-16,-1.));
#235 = PLANE('',#236);
#236 = AXIS2_PLACEMENT_3D('',#237,#238,#239);
#237 = CARTESIAN_POINT('',(-2.,-89.5,29.9));
#238 = DIRECTION('',(-0.707106781187,-0.707106781187,-1.6E-16));
#239 = DIRECTION('',(2.231370849898E-16,3.137084989848E-18,-1.));
#240 = ADVANCED_FACE('',(#241),#268,.F.);
#241 = FACE_BOUND('',#242,.F.);
#242 = EDGE_LOOP('',(#243,#244,#245,#253,#261,#267));
#243 = ORIENTED_EDGE('',*,*,#39,.T.);
#244 = ORIENTED_EDGE('',*,*,#222,.T.);
#245 = ORIENTED_EDGE('',*,*,#246,.T.);
#246 = EDGE_CURVE('',#223,#247,#249,.T.);
#247 = VERTEX_POINT('',#248);
#248 = CARTESIAN_POINT('',(2.5,-90.,-29.9));
#249 = LINE('',#250,#251);
#250 = CARTESIAN_POINT('',(-2.5,-90.,-29.9));
#251 = VECTOR('',#252,1.);
#252 = DIRECTION('',(1.,0.,0.));
#253 = ORIENTED_EDGE('',*,*,#254,.F.);
#254 = EDGE_CURVE('',#255,#247,#257,.T.);
#255 = VERTEX_POINT('',#256);
#256 = CARTESIAN_POINT('',(2.5,90.,-29.9));
#257 = LINE('',#258,#259);
#258 = CARTESIAN_POINT('',(2.5,90.,-29.9));
#259 = VECTOR('',#260,1.);
#260 = DIRECTION('',(0.,-1.,2.2E-16));
#261 = ORIENTED_EDGE('',*,*,#262,.F.);
#262 = EDGE_CURVE('',#199,#255,#263,.T.);
#263 = LINE('',#264,#265);
#264 = CARTESIAN_POINT('',(-2.5,90.,-29.9));
#265 = VECTOR('',#266,1.);
#266 = DIRECTION('',(1.,0.,0.));
#267 = ORIENTED_EDGE('',*,*,#198,.F.);
#268 = PLANE('',#269);
#269 = AXIS2_PLACEMENT_3D('',#270,#271,#272);
#270 = CARTESIAN_POINT('',(-2.5,90.,-29.9));
#271 = DIRECTION('',(0.,2.2E-16,1.));
#272 = DIRECTION('',(1.,0.,0.));
#273 = ADVANCED_FACE('',(#274),#293,.F.);
#274 = FACE_BOUND('',#275,.T.);
#275 = EDGE_LOOP('',(#276,#284,#285,#286));
#276 = ORIENTED_EDGE('',*,*,#277,.F.);
#277 = EDGE_CURVE('',#56,#278,#280,.T.);
#278 = VERTEX_POINT('',#279);
#279 = CARTESIAN_POINT('',(0.3,-80.,-2.6));
#280 = LINE('',#281,#282);
#281 = CARTESIAN_POINT('',(0.3,-80.,-2.6));
#282 = VECTOR('',#283,1.);
#283 = DIRECTION('',(0.745937661626,3.49E-15,0.666015769309));
#284 = ORIENTED_EDGE('',*,*,#55,.T.);
#285 = ORIENTED_EDGE('',*,*,#277,.T.);
#286 = ORIENTED_EDGE('',*,*,#287,.F.);
#287 = EDGE_CURVE('',#278,#278,#288,.T.);
#288 = CIRCLE('',#289,2.6);
#289 = AXIS2_PLACEMENT_3D('',#290,#291,#292);
#290 = CARTESIAN_POINT('',(0.3,-80.,0.));
#291 = DIRECTION('',(-1.,-0.,0.));
#292 = DIRECTION('',(0.,-5.24E-15,-1.));
#293 = CONICAL_SURFACE('',#294,2.6,0.728854726453);
#294 = AXIS2_PLACEMENT_3D('',#295,#296,#297);
#295 = CARTESIAN_POINT('',(0.3,-80.,0.));
#296 = DIRECTION('',(-1.,-0.,-0.));
#297 = DIRECTION('',(0.,-5.24E-15,-1.));
#298 = ADVANCED_FACE('',(#299),#318,.F.);
#299 = FACE_BOUND('',#300,.F.);
#300 = EDGE_LOOP('',(#301,#302,#310,#317));
#301 = ORIENTED_EDGE('',*,*,#66,.F.);
#302 = ORIENTED_EDGE('',*,*,#303,.T.);
#303 = EDGE_CURVE('',#67,#304,#306,.T.);
#304 = VERTEX_POINT('',#305);
#305 = CARTESIAN_POINT('',(2.5,50.500000000006,-1.));
#306 = LINE('',#307,#308);
#307 = CARTESIAN_POINT('',(-2.5,50.500000000006,-1.));
#308 = VECTOR('',#309,1.);
#309 = DIRECTION('',(1.,0.,2.2E-16));
#310 = ORIENTED_EDGE('',*,*,#311,.T.);
#311 = EDGE_CURVE('',#304,#304,#312,.T.);
#312 = CIRCLE('',#313,10.5);
#313 = AXIS2_PLACEMENT_3D('',#314,#315,#316);
#314 = CARTESIAN_POINT('',(2.5,50.500000000006,9.5));
#315 = DIRECTION('',(-1.,-0.,-2.2E-16));
#316 = DIRECTION('',(2.2E-16,0.,-1.));
#317 = ORIENTED_EDGE('',*,*,#303,.F.);
#318 = CYLINDRICAL_SURFACE('',#319,10.5);
#319 = AXIS2_PLACEMENT_3D('',#320,#321,#322);
#320 = CARTESIAN_POINT('',(-2.5,50.500000000006,9.5));
#321 = DIRECTION('',(-1.,0.,-2.2E-16));
#322 = DIRECTION('',(2.2E-16,0.,-1.));
#323 = ADVANCED_FACE('',(#324),#343,.F.);
#324 = FACE_BOUND('',#325,.T.);
#325 = EDGE_LOOP('',(#326,#334,#335,#336));
#326 = ORIENTED_EDGE('',*,*,#327,.F.);
#327 = EDGE_CURVE('',#78,#328,#330,.T.);
#328 = VERTEX_POINT('',#329);
#329 = CARTESIAN_POINT('',(0.3,80.,-2.6));
#330 = LINE('',#331,#332);
#331 = CARTESIAN_POINT('',(0.3,80.,-2.6));
#332 = VECTOR('',#333,1.);
#333 = DIRECTION('',(0.745937661626,-1.5E-16,0.666015769309));
#334 = ORIENTED_EDGE('',*,*,#77,.T.);
#335 = ORIENTED_EDGE('',*,*,#327,.T.);
#336 = ORIENTED_EDGE('',*,*,#337,.F.);
#337 = EDGE_CURVE('',#328,#328,#338,.T.);
#338 = CIRCLE('',#339,2.6);
#339 = AXIS2_PLACEMENT_3D('',#340,#341,#342);
#340 = CARTESIAN_POINT('',(0.3,80.,0.));
#341 = DIRECTION('',(-1.,0.,-0.));
#342 = DIRECTION('',(0.,2.2E-16,-1.));
#343 = CONICAL_SURFACE('',#344,2.6,0.728854726453);
#344 = AXIS2_PLACEMENT_3D('',#345,#346,#347);
#345 = CARTESIAN_POINT('',(0.3,80.,0.));
#346 = DIRECTION('',(-1.,-0.,-0.));
#347 = DIRECTION('',(0.,2.2E-16,-1.));
#348 = ADVANCED_FACE('',(#349),#368,.F.);
#349 = FACE_BOUND('',#350,.F.);
#350 = EDGE_LOOP('',(#351,#352,#360,#367));
#351 = ORIENTED_EDGE('',*,*,#88,.F.);
#352 = ORIENTED_EDGE('',*,*,#353,.T.);
#353 = EDGE_CURVE('',#89,#354,#356,.T.);
#354 = VERTEX_POINT('',#355);
#355 = CARTESIAN_POINT('',(2.5,41.,-17.05));
#356 = LINE('',#357,#358);
#357 = CARTESIAN_POINT('',(-2.5,41.,-17.05));
#358 = VECTOR('',#359,1.);
#359 = DIRECTION('',(1.,0.,2.2E-16));
#360 = ORIENTED_EDGE('',*,*,#361,.T.);
#361 = EDGE_CURVE('',#354,#354,#362,.T.);
#362 = CIRCLE('',#363,1.05);
#363 = AXIS2_PLACEMENT_3D('',#364,#365,#366);
#364 = CARTESIAN_POINT('',(2.5,41.,-16.));
#365 = DIRECTION('',(-1.,-0.,-2.2E-16));
#366 = DIRECTION('',(2.2E-16,0.,-1.));
#367 = ORIENTED_EDGE('',*,*,#353,.F.);
#368 = CYLINDRICAL_SURFACE('',#369,1.05);
#369 = AXIS2_PLACEMENT_3D('',#370,#371,#372);
#370 = CARTESIAN_POINT('',(-2.5,41.,-16.));
#371 = DIRECTION('',(-1.,0.,-2.2E-16));
#372 = DIRECTION('',(2.2E-16,0.,-1.));
#373 = ADVANCED_FACE('',(#374),#393,.F.);
#374 = FACE_BOUND('',#375,.F.);
#375 = EDGE_LOOP('',(#376,#377,#385,#392));
#376 = ORIENTED_EDGE('',*,*,#99,.F.);
#377 = ORIENTED_EDGE('',*,*,#378,.T.);
#378 = EDGE_CURVE('',#100,#379,#381,.T.);
#379 = VERTEX_POINT('',#380);
#380 = CARTESIAN_POINT('',(2.5,44.500000000006,-17.1));
#381 = LINE('',#382,#383);
#382 = CARTESIAN_POINT('',(-2.5,44.500000000006,-17.1));
#383 = VECTOR('',#384,1.);
#384 = DIRECTION('',(1.,0.,2.2E-16));
#385 = ORIENTED_EDGE('',*,*,#386,.T.);
#386 = EDGE_CURVE('',#379,#379,#387,.T.);
#387 = CIRCLE('',#388,1.1);
#388 = AXIS2_PLACEMENT_3D('',#389,#390,#391);
#389 = CARTESIAN_POINT('',(2.5,44.500000000006,-16.));
#390 = DIRECTION('',(-1.,-0.,-2.2E-16));
#391 = DIRECTION('',(2.2E-16,0.,-1.));
#392 = ORIENTED_EDGE('',*,*,#378,.F.);
#393 = CYLINDRICAL_SURFACE('',#394,1.1);
#394 = AXIS2_PLACEMENT_3D('',#395,#396,#397);
#395 = CARTESIAN_POINT('',(-2.5,44.500000000006,-16.));
#396 = DIRECTION('',(-1.,0.,-2.2E-16));
#397 = DIRECTION('',(2.2E-16,0.,-1.));
#398 = ADVANCED_FACE('',(#399),#418,.F.);
#399 = FACE_BOUND('',#400,.F.);
#400 = EDGE_LOOP('',(#401,#402,#410,#417));
#401 = ORIENTED_EDGE('',*,*,#110,.F.);
#402 = ORIENTED_EDGE('',*,*,#403,.T.);
#403 = EDGE_CURVE('',#111,#404,#406,.T.);
#404 = VERTEX_POINT('',#405);
#405 = CARTESIAN_POINT('',(2.5,50.5,-20.));
#406 = LINE('',#407,#408);
#407 = CARTESIAN_POINT('',(-2.5,50.5,-20.));
#408 = VECTOR('',#409,1.);
#409 = DIRECTION('',(1.,0.,2.2E-16));
#410 = ORIENTED_EDGE('',*,*,#411,.T.);
#411 = EDGE_CURVE('',#404,#404,#412,.T.);
#412 = CIRCLE('',#413,4.);
#413 = AXIS2_PLACEMENT_3D('',#414,#415,#416);
#414 = CARTESIAN_POINT('',(2.5,50.5,-16.));
#415 = DIRECTION('',(-1.,-0.,-2.2E-16));
#416 = DIRECTION('',(2.2E-16,0.,-1.));
#417 = ORIENTED_EDGE('',*,*,#403,.F.);
#418 = CYLINDRICAL_SURFACE('',#419,4.);
#419 = AXIS2_PLACEMENT_3D('',#420,#421,#422);
#420 = CARTESIAN_POINT('',(-2.5,50.5,-16.));
#421 = DIRECTION('',(-1.,0.,-2.2E-16));
#422 = DIRECTION('',(2.2E-16,0.,-1.));
#423 = ADVANCED_FACE('',(#424),#443,.F.);
#424 = FACE_BOUND('',#425,.F.);
#425 = EDGE_LOOP('',(#426,#427,#435,#442));
#426 = ORIENTED_EDGE('',*,*,#121,.F.);
#427 = ORIENTED_EDGE('',*,*,#428,.T.);
#428 = EDGE_CURVE('',#122,#429,#431,.T.);
#429 = VERTEX_POINT('',#430);
#430 = CARTESIAN_POINT('',(2.5,56.500000000006,-17.1));
#431 = LINE('',#432,#433);
#432 = CARTESIAN_POINT('',(-2.5,56.500000000006,-17.1));
#433 = VECTOR('',#434,1.);
#434 = DIRECTION('',(1.,0.,2.2E-16));
#435 = ORIENTED_EDGE('',*,*,#436,.T.);
#436 = EDGE_CURVE('',#429,#429,#437,.T.);
#437 = CIRCLE('',#438,1.1);
#438 = AXIS2_PLACEMENT_3D('',#439,#440,#441);
#439 = CARTESIAN_POINT('',(2.5,56.500000000006,-16.));
#440 = DIRECTION('',(-1.,-0.,-2.2E-16));
#441 = DIRECTION('',(2.2E-16,0.,-1.));
#442 = ORIENTED_EDGE('',*,*,#428,.F.);
#443 = CYLINDRICAL_SURFACE('',#444,1.1);
#444 = AXIS2_PLACEMENT_3D('',#445,#446,#447);
#445 = CARTESIAN_POINT('',(-2.5,56.500000000006,-16.));
#446 = DIRECTION('',(-1.,0.,-2.2E-16));
#447 = DIRECTION('',(2.2E-16,0.,-1.));
#448 = ADVANCED_FACE('',(#449),#468,.F.);
#449 = FACE_BOUND('',#450,.F.);
#450 = EDGE_LOOP('',(#451,#452,#460,#467));
#451 = ORIENTED_EDGE('',*,*,#132,.F.);
#452 = ORIENTED_EDGE('',*,*,#453,.T.);
#453 = EDGE_CURVE('',#133,#454,#456,.T.);
#454 = VERTEX_POINT('',#455);
#455 = CARTESIAN_POINT('',(2.5,60.,-17.05));
#456 = LINE('',#457,#458);
#457 = CARTESIAN_POINT('',(-2.5,60.,-17.05));
#458 = VECTOR('',#459,1.);
#459 = DIRECTION('',(1.,0.,2.2E-16));
#460 = ORIENTED_EDGE('',*,*,#461,.T.);
#461 = EDGE_CURVE('',#454,#454,#462,.T.);
#462 = CIRCLE('',#463,1.05);
#463 = AXIS2_PLACEMENT_3D('',#464,#465,#466);
#464 = CARTESIAN_POINT('',(2.5,60.,-16.));
#465 = DIRECTION('',(-1.,-0.,-2.2E-16));
#466 = DIRECTION('',(2.2E-16,0.,-1.));
#467 = ORIENTED_EDGE('',*,*,#453,.F.);
#468 = CYLINDRICAL_SURFACE('',#469,1.05);
#469 = AXIS2_PLACEMENT_3D('',#470,#471,#472);
#470 = CARTESIAN_POINT('',(-2.5,60.,-16.));
#471 = DIRECTION('',(-1.,0.,-2.2E-16));
#472 = DIRECTION('',(2.2E-16,0.,-1.));
#473 = ADVANCED_FACE('',(#474),#485,.T.);
#474 = FACE_BOUND('',#475,.T.);
#475 = EDGE_LOOP('',(#476,#477,#483,#484));
#476 = ORIENTED_EDGE('',*,*,#158,.F.);
#477 = ORIENTED_EDGE('',*,*,#478,.F.);
#478 = EDGE_CURVE('',#255,#159,#479,.T.);
#479 = LINE('',#480,#481);
#480 = CARTESIAN_POINT('',(2.5,90.,-29.9));
#481 = VECTOR('',#482,1.);
#482 = DIRECTION('',(0.,-2.2E-16,1.));
#483 = ORIENTED_EDGE('',*,*,#262,.F.);
#484 = ORIENTED_EDGE('',*,*,#206,.F.);
#485 = PLANE('',#486);
#486 = AXIS2_PLACEMENT_3D('',#487,#488,#489);
#487 = CARTESIAN_POINT('',(0.,90.,0.));
#488 = DIRECTION('',(0.,1.,2.2E-16));
#489 = DIRECTION('',(0.,-2.2E-16,1.));
#490 = ADVANCED_FACE('',(#491),#502,.F.);
#491 = FACE_BOUND('',#492,.F.);
#492 = EDGE_LOOP('',(#493,#494,#500,#501));
#493 = ORIENTED_EDGE('',*,*,#174,.F.);
#494 = ORIENTED_EDGE('',*,*,#495,.F.);
#495 = EDGE_CURVE('',#247,#167,#496,.T.);
#496 = LINE('',#497,#498);
#497 = CARTESIAN_POINT('',(2.5,-90.,-29.9));
#498 = VECTOR('',#499,1.);
#499 = DIRECTION('',(0.,-2.2E-16,1.));
#500 = ORIENTED_EDGE('',*,*,#246,.F.);
#501 = ORIENTED_EDGE('',*,*,#230,.F.);
#502 = PLANE('',#503);
#503 = AXIS2_PLACEMENT_3D('',#504,#505,#506);
#504 = CARTESIAN_POINT('',(0.,-90.,0.));
#505 = DIRECTION('',(0.,1.,2.2E-16));
#506 = DIRECTION('',(0.,-2.2E-16,1.));
#507 = ADVANCED_FACE('',(#508,#514,#525,#528,#531,#534,#537,#540,#543),
  #554,.F.);
#508 = FACE_BOUND('',#509,.F.);
#509 = EDGE_LOOP('',(#510,#511,#512,#513));
#510 = ORIENTED_EDGE('',*,*,#254,.T.);
#511 = ORIENTED_EDGE('',*,*,#495,.T.);
#512 = ORIENTED_EDGE('',*,*,#166,.F.);
#513 = ORIENTED_EDGE('',*,*,#478,.F.);
#514 = FACE_BOUND('',#515,.F.);
#515 = EDGE_LOOP('',(#516));
#516 = ORIENTED_EDGE('',*,*,#517,.F.);
#517 = EDGE_CURVE('',#518,#518,#520,.T.);
#518 = VERTEX_POINT('',#519);
#519 = CARTESIAN_POINT('',(2.5,-80.,-2.6));
#520 = CIRCLE('',#521,2.6);
#521 = AXIS2_PLACEMENT_3D('',#522,#523,#524);
#522 = CARTESIAN_POINT('',(2.5,-80.,1.11E-15));
#523 = DIRECTION('',(-1.,-0.,-2.2E-16));
#524 = DIRECTION('',(2.2E-16,0.,-1.));
#525 = FACE_BOUND('',#526,.F.);
#526 = EDGE_LOOP('',(#527));
#527 = ORIENTED_EDGE('',*,*,#361,.F.);
#528 = FACE_BOUND('',#529,.F.);
#529 = EDGE_LOOP('',(#530));
#530 = ORIENTED_EDGE('',*,*,#386,.F.);
#531 = FACE_BOUND('',#532,.F.);
#532 = EDGE_LOOP('',(#533));
#533 = ORIENTED_EDGE('',*,*,#411,.F.);
#534 = FACE_BOUND('',#535,.F.);
#535 = EDGE_LOOP('',(#536));
#536 = ORIENTED_EDGE('',*,*,#436,.F.);
#537 = FACE_BOUND('',#538,.F.);
#538 = EDGE_LOOP('',(#539));
#539 = ORIENTED_EDGE('',*,*,#461,.F.);
#540 = FACE_BOUND('',#541,.F.);
#541 = EDGE_LOOP('',(#542));
#542 = ORIENTED_EDGE('',*,*,#311,.F.);
#543 = FACE_BOUND('',#544,.F.);
#544 = EDGE_LOOP('',(#545));
#545 = ORIENTED_EDGE('',*,*,#546,.F.);
#546 = EDGE_CURVE('',#547,#547,#549,.T.);
#547 = VERTEX_POINT('',#548);
#548 = CARTESIAN_POINT('',(2.5,80.,-2.6));
#549 = CIRCLE('',#550,2.6);
#550 = AXIS2_PLACEMENT_3D('',#551,#552,#553);
#551 = CARTESIAN_POINT('',(2.5,80.,1.11E-15));
#552 = DIRECTION('',(-1.,-0.,-2.2E-16));
#553 = DIRECTION('',(2.2E-16,0.,-1.));
#554 = PLANE('',#555);
#555 = AXIS2_PLACEMENT_3D('',#556,#557,#558);
#556 = CARTESIAN_POINT('',(2.5,90.,-29.9));
#557 = DIRECTION('',(-1.,0.,0.));
#558 = DIRECTION('',(0.,2.2E-16,1.));
#559 = ADVANCED_FACE('',(#560),#571,.F.);
#560 = FACE_BOUND('',#561,.F.);
#561 = EDGE_LOOP('',(#562,#568,#569,#570));
#562 = ORIENTED_EDGE('',*,*,#563,.F.);
#563 = EDGE_CURVE('',#278,#518,#564,.T.);
#564 = LINE('',#565,#566);
#565 = CARTESIAN_POINT('',(-2.5,-80.,-2.6));
#566 = VECTOR('',#567,1.);
#567 = DIRECTION('',(1.,0.,2.2E-16));
#568 = ORIENTED_EDGE('',*,*,#287,.F.);
#569 = ORIENTED_EDGE('',*,*,#563,.T.);
#570 = ORIENTED_EDGE('',*,*,#517,.T.);
#571 = CYLINDRICAL_SURFACE('',#572,2.6);
#572 = AXIS2_PLACEMENT_3D('',#573,#574,#575);
#573 = CARTESIAN_POINT('',(-2.5,-80.,0.));
#574 = DIRECTION('',(-1.,0.,-2.2E-16));
#575 = DIRECTION('',(2.2E-16,0.,-1.));
#576 = ADVANCED_FACE('',(#577),#588,.F.);
#577 = FACE_BOUND('',#578,.F.);
#578 = EDGE_LOOP('',(#579,#585,#586,#587));
#579 = ORIENTED_EDGE('',*,*,#580,.F.);
#580 = EDGE_CURVE('',#328,#547,#581,.T.);
#581 = LINE('',#582,#583);
#582 = CARTESIAN_POINT('',(-2.5,80.,-2.6));
#583 = VECTOR('',#584,1.);
#584 = DIRECTION('',(1.,0.,2.2E-16));
#585 = ORIENTED_EDGE('',*,*,#337,.F.);
#586 = ORIENTED_EDGE('',*,*,#580,.T.);
#587 = ORIENTED_EDGE('',*,*,#546,.T.);
#588 = CYLINDRICAL_SURFACE('',#589,2.6);
#589 = AXIS2_PLACEMENT_3D('',#590,#591,#592);
#590 = CARTESIAN_POINT('',(-2.5,80.,0.));
#591 = DIRECTION('',(-1.,0.,-2.2E-16));
#592 = DIRECTION('',(2.2E-16,0.,-1.));
#593 = ( GEOMETRIC_REPRESENTATION_CONTEXT(3) 
GLOBAL_UNCERTAINTY_ASSIGNED_CONTEXT((#597)) GLOBAL_UNIT_ASSIGNED_CONTEXT
((#594,#595,#596)) REPRESENTATION_CONTEXT('Context #1',
  '3D Context with UNIT and UNCERTAINTY') );
#594 = ( LENGTH_UNIT() NAMED_UNIT(*) SI_UNIT(.MILLI.,.METRE.) );
#595 = ( NAMED_UNIT(*) PLANE_ANGLE_UNIT() SI_UNIT($,.RADIAN.) );
#596 = ( NAMED_UNIT(*) SI_UNIT($,.STERADIAN.) SOLID_ANGLE_UNIT() );
#597 = UNCERTAINTY_MEASURE_WITH_UNIT(LENGTH_MEASURE(1.E-07),#594,
  'distance_accuracy_value','confusion accuracy');
#598 = PRODUCT_RELATED_PRODUCT_CATEGORY('part',$,(#7));
ENDSEC;
END-ISO-10303-21;
