ISO-10303-21;
HEADER;
FILE_DESCRIPTION(('FreeCAD Model'),'2;1');
FILE_NAME('Open CASCADE Shape Model','2026-09-08T00:01:26',('FreeCAD'),(
    'FreeCAD'),'Open CASCADE STEP processor 7.8','FreeCAD','Unknown');
FILE_SCHEMA(('AUTOMOTIVE_DESIGN { 1 0 10303 214 1 1 1 1 }'));
ENDSEC;
DATA;
#1 = APPLICATION_PROTOCOL_DEFINITION('international standard',
  'automotive_design',2000,#2);
#2 = APPLICATION_CONTEXT(
  'core data for automotive mechanical design processes');
#3 = SHAPE_DEFINITION_REPRESENTATION(#4,#10);
#4 = PRODUCT_DEFINITION_SHAPE('','',#5);
#5 = PRODUCT_DEFINITION('design','',#6,#9);
#6 = PRODUCT_DEFINITION_FORMATION('','',#7);
#7 = PRODUCT('Open CASCADE STEP translator 7.8 29',
  'Open CASCADE STEP translator 7.8 29','',(#8));
#8 = PRODUCT_CONTEXT('',#2,'mechanical');
#9 = PRODUCT_DEFINITION_CONTEXT('part definition',#2,'design');
#10 = ADVANCED_BREP_SHAPE_REPRESENTATION('',(#11,#15),#609);
#11 = AXIS2_PLACEMENT_3D('',#12,#13,#14);
#12 = CARTESIAN_POINT('',(0.,0.,0.));
#13 = DIRECTION('',(0.,0.,1.));
#14 = DIRECTION('',(1.,0.,-0.));
#15 = MANIFOLD_SOLID_BREP('',#16);
#16 = CLOSED_SHELL('',(#17,#57,#164,#188,#212,#243,#267,#291,#315,#339,
    #356,#381,#406,#431,#456,#472,#488,#531,#548,#565,#581,#597));
#17 = ADVANCED_FACE('',(#18),#52,.F.);
#18 = FACE_BOUND('',#19,.F.);
#19 = EDGE_LOOP('',(#20,#30,#38,#46));
#20 = ORIENTED_EDGE('',*,*,#21,.F.);
#21 = EDGE_CURVE('',#22,#24,#26,.T.);
#22 = VERTEX_POINT('',#23);
#23 = CARTESIAN_POINT('',(130.,-89.,-2.5));
#24 = VERTEX_POINT('',#25);
#25 = CARTESIAN_POINT('',(130.,89.,-2.5));
#26 = LINE('',#27,#28);
#27 = CARTESIAN_POINT('',(130.,-90.,-2.5));
#28 = VECTOR('',#29,1.);
#29 = DIRECTION('',(0.,1.,0.));
#30 = ORIENTED_EDGE('',*,*,#31,.T.);
#31 = EDGE_CURVE('',#22,#32,#34,.T.);
#32 = VERTEX_POINT('',#33);
#33 = CARTESIAN_POINT('',(130.,-89.,1.5));
#34 = LINE('',#35,#36);
#35 = CARTESIAN_POINT('',(130.,-89.,-2.5));
#36 = VECTOR('',#37,1.);
#37 = DIRECTION('',(0.,0.,1.));
#38 = ORIENTED_EDGE('',*,*,#39,.T.);
#39 = EDGE_CURVE('',#32,#40,#42,.T.);
#40 = VERTEX_POINT('',#41);
#41 = CARTESIAN_POINT('',(130.,89.,1.5));
#42 = LINE('',#43,#44);
#43 = CARTESIAN_POINT('',(130.,-90.,1.5));
#44 = VECTOR('',#45,1.);
#45 = DIRECTION('',(0.,1.,0.));
#46 = ORIENTED_EDGE('',*,*,#47,.F.);
#47 = EDGE_CURVE('',#24,#40,#48,.T.);
#48 = LINE('',#49,#50);
#49 = CARTESIAN_POINT('',(130.,89.,-2.5));
#50 = VECTOR('',#51,1.);
#51 = DIRECTION('',(0.,0.,1.));
#52 = PLANE('',#53);
#53 = AXIS2_PLACEMENT_3D('',#54,#55,#56);
#54 = CARTESIAN_POINT('',(130.,-90.,-2.5));
#55 = DIRECTION('',(-1.,0.,0.));
#56 = DIRECTION('',(0.,1.,0.));
#57 = ADVANCED_FACE('',(#58,#115,#126,#137,#148),#159,.F.);
#58 = FACE_BOUND('',#59,.F.);
#59 = EDGE_LOOP('',(#60,#61,#69,#77,#85,#93,#101,#109));
#60 = ORIENTED_EDGE('',*,*,#21,.T.);
#61 = ORIENTED_EDGE('',*,*,#62,.T.);
#62 = EDGE_CURVE('',#24,#63,#65,.T.);
#63 = VERTEX_POINT('',#64);
#64 = CARTESIAN_POINT('',(129.,90.,-2.5));
#65 = LINE('',#66,#67);
#66 = CARTESIAN_POINT('',(119.5,99.5,-2.5));
#67 = VECTOR('',#68,1.);
#68 = DIRECTION('',(-0.707106781187,0.707106781187,0.));
#69 = ORIENTED_EDGE('',*,*,#70,.T.);
#70 = EDGE_CURVE('',#63,#71,#73,.T.);
#71 = VERTEX_POINT('',#72);
#72 = CARTESIAN_POINT('',(-129.,90.,-2.5));
#73 = LINE('',#74,#75);
#74 = CARTESIAN_POINT('',(130.,90.,-2.5));
#75 = VECTOR('',#76,1.);
#76 = DIRECTION('',(-1.,0.,0.));
#77 = ORIENTED_EDGE('',*,*,#78,.T.);
#78 = EDGE_CURVE('',#71,#79,#81,.T.);
#79 = VERTEX_POINT('',#80);
#80 = CARTESIAN_POINT('',(-130.,89.,-2.5));
#81 = LINE('',#82,#83);
#82 = CARTESIAN_POINT('',(-119.5,99.5,-2.5));
#83 = VECTOR('',#84,1.);
#84 = DIRECTION('',(-0.707106781187,-0.707106781187,0.));
#85 = ORIENTED_EDGE('',*,*,#86,.T.);
#86 = EDGE_CURVE('',#79,#87,#89,.T.);
#87 = VERTEX_POINT('',#88);
#88 = CARTESIAN_POINT('',(-130.,-89.,-2.5));
#89 = LINE('',#90,#91);
#90 = CARTESIAN_POINT('',(-130.,90.,-2.5));
#91 = VECTOR('',#92,1.);
#92 = DIRECTION('',(0.,-1.,0.));
#93 = ORIENTED_EDGE('',*,*,#94,.F.);
#94 = EDGE_CURVE('',#95,#87,#97,.T.);
#95 = VERTEX_POINT('',#96);
#96 = CARTESIAN_POINT('',(-129.,-90.,-2.5));
#97 = LINE('',#98,#99);
#98 = CARTESIAN_POINT('',(-119.5,-99.5,-2.5));
#99 = VECTOR('',#100,1.);
#100 = DIRECTION('',(-0.707106781187,0.707106781187,0.));
#101 = ORIENTED_EDGE('',*,*,#102,.T.);
#102 = EDGE_CURVE('',#95,#103,#105,.T.);
#103 = VERTEX_POINT('',#104);
#104 = CARTESIAN_POINT('',(129.,-90.,-2.5));
#105 = LINE('',#106,#107);
#106 = CARTESIAN_POINT('',(-130.,-90.,-2.5));
#107 = VECTOR('',#108,1.);
#108 = DIRECTION('',(1.,0.,0.));
#109 = ORIENTED_EDGE('',*,*,#110,.F.);
#110 = EDGE_CURVE('',#22,#103,#111,.T.);
#111 = LINE('',#112,#113);
#112 = CARTESIAN_POINT('',(119.5,-99.5,-2.5));
#113 = VECTOR('',#114,1.);
#114 = DIRECTION('',(-0.707106781187,-0.707106781187,0.));
#115 = FACE_BOUND('',#116,.F.);
#116 = EDGE_LOOP('',(#117));
#117 = ORIENTED_EDGE('',*,*,#118,.F.);
#118 = EDGE_CURVE('',#119,#119,#121,.T.);
#119 = VERTEX_POINT('',#120);
#120 = CARTESIAN_POINT('',(-116.9,-80.,-2.5));
#121 = CIRCLE('',#122,2.6);
#122 = AXIS2_PLACEMENT_3D('',#123,#124,#125);
#123 = CARTESIAN_POINT('',(-119.5,-80.,-2.5));
#124 = DIRECTION('',(0.,0.,1.));
#125 = DIRECTION('',(1.,0.,0.));
#126 = FACE_BOUND('',#127,.F.);
#127 = EDGE_LOOP('',(#128));
#128 = ORIENTED_EDGE('',*,*,#129,.F.);
#129 = EDGE_CURVE('',#130,#130,#132,.T.);
#130 = VERTEX_POINT('',#131);
#131 = CARTESIAN_POINT('',(122.1,-80.,-2.5));
#132 = CIRCLE('',#133,2.6);
#133 = AXIS2_PLACEMENT_3D('',#134,#135,#136);
#134 = CARTESIAN_POINT('',(119.5,-80.,-2.5));
#135 = DIRECTION('',(0.,0.,1.));
#136 = DIRECTION('',(1.,0.,0.));
#137 = FACE_BOUND('',#138,.F.);
#138 = EDGE_LOOP('',(#139));
#139 = ORIENTED_EDGE('',*,*,#140,.F.);
#140 = EDGE_CURVE('',#141,#141,#143,.T.);
#141 = VERTEX_POINT('',#142);
#142 = CARTESIAN_POINT('',(-116.9,80.,-2.5));
#143 = CIRCLE('',#144,2.6);
#144 = AXIS2_PLACEMENT_3D('',#145,#146,#147);
#145 = CARTESIAN_POINT('',(-119.5,80.,-2.5));
#146 = DIRECTION('',(0.,0.,1.));
#147 = DIRECTION('',(1.,0.,0.));
#148 = FACE_BOUND('',#149,.F.);
#149 = EDGE_LOOP('',(#150));
#150 = ORIENTED_EDGE('',*,*,#151,.F.);
#151 = EDGE_CURVE('',#152,#152,#154,.T.);
#152 = VERTEX_POINT('',#153);
#153 = CARTESIAN_POINT('',(122.1,80.,-2.5));
#154 = CIRCLE('',#155,2.6);
#155 = AXIS2_PLACEMENT_3D('',#156,#157,#158);
#156 = CARTESIAN_POINT('',(119.5,80.,-2.5));
#157 = DIRECTION('',(0.,0.,1.));
#158 = DIRECTION('',(1.,0.,0.));
#159 = PLANE('',#160);
#160 = AXIS2_PLACEMENT_3D('',#161,#162,#163);
#161 = CARTESIAN_POINT('',(0.,0.,-2.5));
#162 = DIRECTION('',(0.,0.,1.));
#163 = DIRECTION('',(1.,0.,0.));
#164 = ADVANCED_FACE('',(#165),#183,.T.);
#165 = FACE_BOUND('',#166,.T.);
#166 = EDGE_LOOP('',(#167,#168,#169,#177));
#167 = ORIENTED_EDGE('',*,*,#110,.F.);
#168 = ORIENTED_EDGE('',*,*,#31,.T.);
#169 = ORIENTED_EDGE('',*,*,#170,.T.);
#170 = EDGE_CURVE('',#32,#171,#173,.T.);
#171 = VERTEX_POINT('',#172);
#172 = CARTESIAN_POINT('',(129.,-90.,1.5));
#173 = LINE('',#174,#175);
#174 = CARTESIAN_POINT('',(129.75,-89.25,1.5));
#175 = VECTOR('',#176,1.);
#176 = DIRECTION('',(-0.707106781187,-0.707106781187,7.21E-15));
#177 = ORIENTED_EDGE('',*,*,#178,.F.);
#178 = EDGE_CURVE('',#103,#171,#179,.T.);
#179 = LINE('',#180,#181);
#180 = CARTESIAN_POINT('',(129.,-90.,-2.5));
#181 = VECTOR('',#182,1.);
#182 = DIRECTION('',(0.,0.,1.));
#183 = PLANE('',#184);
#184 = AXIS2_PLACEMENT_3D('',#185,#186,#187);
#185 = CARTESIAN_POINT('',(129.5,-89.5,-2.5));
#186 = DIRECTION('',(0.707106781187,-0.707106781187,0.));
#187 = DIRECTION('',(0.,0.,1.));
#188 = ADVANCED_FACE('',(#189),#207,.T.);
#189 = FACE_BOUND('',#190,.F.);
#190 = EDGE_LOOP('',(#191,#192,#193,#201));
#191 = ORIENTED_EDGE('',*,*,#62,.F.);
#192 = ORIENTED_EDGE('',*,*,#47,.T.);
#193 = ORIENTED_EDGE('',*,*,#194,.T.);
#194 = EDGE_CURVE('',#40,#195,#197,.T.);
#195 = VERTEX_POINT('',#196);
#196 = CARTESIAN_POINT('',(129.,90.,1.5));
#197 = LINE('',#198,#199);
#198 = CARTESIAN_POINT('',(129.75,89.25,1.5));
#199 = VECTOR('',#200,1.);
#200 = DIRECTION('',(-0.707106781187,0.707106781187,7.21E-15));
#201 = ORIENTED_EDGE('',*,*,#202,.F.);
#202 = EDGE_CURVE('',#63,#195,#203,.T.);
#203 = LINE('',#204,#205);
#204 = CARTESIAN_POINT('',(129.,90.,-2.5));
#205 = VECTOR('',#206,1.);
#206 = DIRECTION('',(0.,0.,1.));
#207 = PLANE('',#208);
#208 = AXIS2_PLACEMENT_3D('',#209,#210,#211);
#209 = CARTESIAN_POINT('',(129.5,89.5,-2.5));
#210 = DIRECTION('',(0.707106781187,0.707106781187,0.));
#211 = DIRECTION('',(0.,0.,-1.));
#212 = ADVANCED_FACE('',(#213),#238,.F.);
#213 = FACE_BOUND('',#214,.T.);
#214 = EDGE_LOOP('',(#215,#223,#224,#232));
#215 = ORIENTED_EDGE('',*,*,#216,.F.);
#216 = EDGE_CURVE('',#32,#217,#219,.T.);
#217 = VERTEX_POINT('',#218);
#218 = CARTESIAN_POINT('',(129.,-89.,2.5));
#219 = LINE('',#220,#221);
#220 = CARTESIAN_POINT('',(129.75,-89.,1.75));
#221 = VECTOR('',#222,1.);
#222 = DIRECTION('',(-0.707106781187,-2.12E-15,0.707106781187));
#223 = ORIENTED_EDGE('',*,*,#39,.T.);
#224 = ORIENTED_EDGE('',*,*,#225,.T.);
#225 = EDGE_CURVE('',#40,#226,#228,.T.);
#226 = VERTEX_POINT('',#227);
#227 = CARTESIAN_POINT('',(129.,89.,2.5));
#228 = LINE('',#229,#230);
#229 = CARTESIAN_POINT('',(129.75,89.,1.75));
#230 = VECTOR('',#231,1.);
#231 = DIRECTION('',(-0.707106781187,2.12E-15,0.707106781187));
#232 = ORIENTED_EDGE('',*,*,#233,.F.);
#233 = EDGE_CURVE('',#217,#226,#234,.T.);
#234 = LINE('',#235,#236);
#235 = CARTESIAN_POINT('',(129.,-90.,2.5));
#236 = VECTOR('',#237,1.);
#237 = DIRECTION('',(0.,1.,0.));
#238 = PLANE('',#239);
#239 = AXIS2_PLACEMENT_3D('',#240,#241,#242);
#240 = CARTESIAN_POINT('',(129.5,-90.,2.));
#241 = DIRECTION('',(-0.707106781187,0.,-0.707106781187));
#242 = DIRECTION('',(-0.,-1.,-0.));
#243 = ADVANCED_FACE('',(#244),#262,.F.);
#244 = FACE_BOUND('',#245,.F.);
#245 = EDGE_LOOP('',(#246,#247,#255,#261));
#246 = ORIENTED_EDGE('',*,*,#102,.F.);
#247 = ORIENTED_EDGE('',*,*,#248,.T.);
#248 = EDGE_CURVE('',#95,#249,#251,.T.);
#249 = VERTEX_POINT('',#250);
#250 = CARTESIAN_POINT('',(-129.,-90.,1.5));
#251 = LINE('',#252,#253);
#252 = CARTESIAN_POINT('',(-129.,-90.,-2.5));
#253 = VECTOR('',#254,1.);
#254 = DIRECTION('',(0.,0.,1.));
#255 = ORIENTED_EDGE('',*,*,#256,.T.);
#256 = EDGE_CURVE('',#249,#171,#257,.T.);
#257 = LINE('',#258,#259);
#258 = CARTESIAN_POINT('',(-130.,-90.,1.5));
#259 = VECTOR('',#260,1.);
#260 = DIRECTION('',(1.,0.,0.));
#261 = ORIENTED_EDGE('',*,*,#178,.F.);
#262 = PLANE('',#263);
#263 = AXIS2_PLACEMENT_3D('',#264,#265,#266);
#264 = CARTESIAN_POINT('',(-130.,-90.,-2.5));
#265 = DIRECTION('',(0.,1.,0.));
#266 = DIRECTION('',(1.,0.,0.));
#267 = ADVANCED_FACE('',(#268),#286,.F.);
#268 = FACE_BOUND('',#269,.F.);
#269 = EDGE_LOOP('',(#270,#271,#272,#280));
#270 = ORIENTED_EDGE('',*,*,#70,.F.);
#271 = ORIENTED_EDGE('',*,*,#202,.T.);
#272 = ORIENTED_EDGE('',*,*,#273,.T.);
#273 = EDGE_CURVE('',#195,#274,#276,.T.);
#274 = VERTEX_POINT('',#275);
#275 = CARTESIAN_POINT('',(-129.,90.,1.5));
#276 = LINE('',#277,#278);
#277 = CARTESIAN_POINT('',(130.,90.,1.5));
#278 = VECTOR('',#279,1.);
#279 = DIRECTION('',(-1.,0.,0.));
#280 = ORIENTED_EDGE('',*,*,#281,.F.);
#281 = EDGE_CURVE('',#71,#274,#282,.T.);
#282 = LINE('',#283,#284);
#283 = CARTESIAN_POINT('',(-129.,90.,-2.5));
#284 = VECTOR('',#285,1.);
#285 = DIRECTION('',(0.,0.,1.));
#286 = PLANE('',#287);
#287 = AXIS2_PLACEMENT_3D('',#288,#289,#290);
#288 = CARTESIAN_POINT('',(130.,90.,-2.5));
#289 = DIRECTION('',(0.,-1.,0.));
#290 = DIRECTION('',(-1.,0.,0.));
#291 = ADVANCED_FACE('',(#292),#310,.T.);
#292 = FACE_BOUND('',#293,.T.);
#293 = EDGE_LOOP('',(#294,#295,#296,#304));
#294 = ORIENTED_EDGE('',*,*,#94,.F.);
#295 = ORIENTED_EDGE('',*,*,#248,.T.);
#296 = ORIENTED_EDGE('',*,*,#297,.F.);
#297 = EDGE_CURVE('',#298,#249,#300,.T.);
#298 = VERTEX_POINT('',#299);
#299 = CARTESIAN_POINT('',(-130.,-89.,1.5));
#300 = LINE('',#301,#302);
#301 = CARTESIAN_POINT('',(-129.5,-89.5,1.5));
#302 = VECTOR('',#303,1.);
#303 = DIRECTION('',(0.707106781187,-0.707106781187,7.21E-15));
#304 = ORIENTED_EDGE('',*,*,#305,.F.);
#305 = EDGE_CURVE('',#87,#298,#306,.T.);
#306 = LINE('',#307,#308);
#307 = CARTESIAN_POINT('',(-130.,-89.,-2.5));
#308 = VECTOR('',#309,1.);
#309 = DIRECTION('',(0.,0.,1.));
#310 = PLANE('',#311);
#311 = AXIS2_PLACEMENT_3D('',#312,#313,#314);
#312 = CARTESIAN_POINT('',(-129.5,-89.5,-2.5));
#313 = DIRECTION('',(-0.707106781187,-0.707106781187,0.));
#314 = DIRECTION('',(0.,0.,1.));
#315 = ADVANCED_FACE('',(#316),#334,.T.);
#316 = FACE_BOUND('',#317,.F.);
#317 = EDGE_LOOP('',(#318,#319,#320,#328));
#318 = ORIENTED_EDGE('',*,*,#78,.F.);
#319 = ORIENTED_EDGE('',*,*,#281,.T.);
#320 = ORIENTED_EDGE('',*,*,#321,.T.);
#321 = EDGE_CURVE('',#274,#322,#324,.T.);
#322 = VERTEX_POINT('',#323);
#323 = CARTESIAN_POINT('',(-130.,89.,1.5));
#324 = LINE('',#325,#326);
#325 = CARTESIAN_POINT('',(-129.25,89.75,1.5));
#326 = VECTOR('',#327,1.);
#327 = DIRECTION('',(-0.707106781187,-0.707106781187,-7.21E-15));
#328 = ORIENTED_EDGE('',*,*,#329,.F.);
#329 = EDGE_CURVE('',#79,#322,#330,.T.);
#330 = LINE('',#331,#332);
#331 = CARTESIAN_POINT('',(-130.,89.,-2.5));
#332 = VECTOR('',#333,1.);
#333 = DIRECTION('',(0.,0.,1.));
#334 = PLANE('',#335);
#335 = AXIS2_PLACEMENT_3D('',#336,#337,#338);
#336 = CARTESIAN_POINT('',(-129.5,89.5,-2.5));
#337 = DIRECTION('',(-0.707106781187,0.707106781187,0.));
#338 = DIRECTION('',(-0.,-0.,-1.));
#339 = ADVANCED_FACE('',(#340),#351,.F.);
#340 = FACE_BOUND('',#341,.F.);
#341 = EDGE_LOOP('',(#342,#343,#344,#350));
#342 = ORIENTED_EDGE('',*,*,#86,.F.);
#343 = ORIENTED_EDGE('',*,*,#329,.T.);
#344 = ORIENTED_EDGE('',*,*,#345,.T.);
#345 = EDGE_CURVE('',#322,#298,#346,.T.);
#346 = LINE('',#347,#348);
#347 = CARTESIAN_POINT('',(-130.,90.,1.5));
#348 = VECTOR('',#349,1.);
#349 = DIRECTION('',(0.,-1.,0.));
#350 = ORIENTED_EDGE('',*,*,#305,.F.);
#351 = PLANE('',#352);
#352 = AXIS2_PLACEMENT_3D('',#353,#354,#355);
#353 = CARTESIAN_POINT('',(-130.,90.,-2.5));
#354 = DIRECTION('',(1.,0.,0.));
#355 = DIRECTION('',(0.,-1.,0.));
#356 = ADVANCED_FACE('',(#357),#376,.F.);
#357 = FACE_BOUND('',#358,.F.);
#358 = EDGE_LOOP('',(#359,#368,#374,#375));
#359 = ORIENTED_EDGE('',*,*,#360,.F.);
#360 = EDGE_CURVE('',#361,#361,#363,.T.);
#361 = VERTEX_POINT('',#362);
#362 = CARTESIAN_POINT('',(-116.9,-80.,2.5));
#363 = CIRCLE('',#364,2.6);
#364 = AXIS2_PLACEMENT_3D('',#365,#366,#367);
#365 = CARTESIAN_POINT('',(-119.5,-80.,2.5));
#366 = DIRECTION('',(0.,0.,1.));
#367 = DIRECTION('',(1.,0.,0.));
#368 = ORIENTED_EDGE('',*,*,#369,.T.);
#369 = EDGE_CURVE('',#361,#119,#370,.T.);
#370 = LINE('',#371,#372);
#371 = CARTESIAN_POINT('',(-116.9,-80.,2.5));
#372 = VECTOR('',#373,1.);
#373 = DIRECTION('',(-0.,-0.,-1.));
#374 = ORIENTED_EDGE('',*,*,#118,.T.);
#375 = ORIENTED_EDGE('',*,*,#369,.F.);
#376 = CYLINDRICAL_SURFACE('',#377,2.6);
#377 = AXIS2_PLACEMENT_3D('',#378,#379,#380);
#378 = CARTESIAN_POINT('',(-119.5,-80.,2.5));
#379 = DIRECTION('',(0.,0.,1.));
#380 = DIRECTION('',(1.,0.,0.));
#381 = ADVANCED_FACE('',(#382),#401,.F.);
#382 = FACE_BOUND('',#383,.F.);
#383 = EDGE_LOOP('',(#384,#393,#399,#400));
#384 = ORIENTED_EDGE('',*,*,#385,.F.);
#385 = EDGE_CURVE('',#386,#386,#388,.T.);
#386 = VERTEX_POINT('',#387);
#387 = CARTESIAN_POINT('',(122.1,-80.,2.5));
#388 = CIRCLE('',#389,2.6);
#389 = AXIS2_PLACEMENT_3D('',#390,#391,#392);
#390 = CARTESIAN_POINT('',(119.5,-80.,2.5));
#391 = DIRECTION('',(0.,0.,1.));
#392 = DIRECTION('',(1.,0.,0.));
#393 = ORIENTED_EDGE('',*,*,#394,.T.);
#394 = EDGE_CURVE('',#386,#130,#395,.T.);
#395 = LINE('',#396,#397);
#396 = CARTESIAN_POINT('',(122.1,-80.,2.5));
#397 = VECTOR('',#398,1.);
#398 = DIRECTION('',(-0.,-0.,-1.));
#399 = ORIENTED_EDGE('',*,*,#129,.T.);
#400 = ORIENTED_EDGE('',*,*,#394,.F.);
#401 = CYLINDRICAL_SURFACE('',#402,2.6);
#402 = AXIS2_PLACEMENT_3D('',#403,#404,#405);
#403 = CARTESIAN_POINT('',(119.5,-80.,2.5));
#404 = DIRECTION('',(0.,0.,1.));
#405 = DIRECTION('',(1.,0.,0.));
#406 = ADVANCED_FACE('',(#407),#426,.F.);
#407 = FACE_BOUND('',#408,.F.);
#408 = EDGE_LOOP('',(#409,#418,#424,#425));
#409 = ORIENTED_EDGE('',*,*,#410,.F.);
#410 = EDGE_CURVE('',#411,#411,#413,.T.);
#411 = VERTEX_POINT('',#412);
#412 = CARTESIAN_POINT('',(-116.9,80.,2.5));
#413 = CIRCLE('',#414,2.6);
#414 = AXIS2_PLACEMENT_3D('',#415,#416,#417);
#415 = CARTESIAN_POINT('',(-119.5,80.,2.5));
#416 = DIRECTION('',(0.,0.,1.));
#417 = DIRECTION('',(1.,0.,0.));
#418 = ORIENTED_EDGE('',*,*,#419,.T.);
#419 = EDGE_CURVE('',#411,#141,#420,.T.);
#420 = LINE('',#421,#422);
#421 = CARTESIAN_POINT('',(-116.9,80.,2.5));
#422 = VECTOR('',#423,1.);
#423 = DIRECTION('',(-0.,-0.,-1.));
#424 = ORIENTED_EDGE('',*,*,#140,.T.);
#425 = ORIENTED_EDGE('',*,*,#419,.F.);
#426 = CYLINDRICAL_SURFACE('',#427,2.6);
#427 = AXIS2_PLACEMENT_3D('',#428,#429,#430);
#428 = CARTESIAN_POINT('',(-119.5,80.,2.5));
#429 = DIRECTION('',(0.,0.,1.));
#430 = DIRECTION('',(1.,0.,0.));
#431 = ADVANCED_FACE('',(#432),#451,.F.);
#432 = FACE_BOUND('',#433,.F.);
#433 = EDGE_LOOP('',(#434,#443,#449,#450));
#434 = ORIENTED_EDGE('',*,*,#435,.F.);
#435 = EDGE_CURVE('',#436,#436,#438,.T.);
#436 = VERTEX_POINT('',#437);
#437 = CARTESIAN_POINT('',(122.1,80.,2.5));
#438 = CIRCLE('',#439,2.6);
#439 = AXIS2_PLACEMENT_3D('',#440,#441,#442);
#440 = CARTESIAN_POINT('',(119.5,80.,2.5));
#441 = DIRECTION('',(0.,0.,1.));
#442 = DIRECTION('',(1.,0.,0.));
#443 = ORIENTED_EDGE('',*,*,#444,.T.);
#444 = EDGE_CURVE('',#436,#152,#445,.T.);
#445 = LINE('',#446,#447);
#446 = CARTESIAN_POINT('',(122.1,80.,2.5));
#447 = VECTOR('',#448,1.);
#448 = DIRECTION('',(-0.,-0.,-1.));
#449 = ORIENTED_EDGE('',*,*,#151,.T.);
#450 = ORIENTED_EDGE('',*,*,#444,.F.);
#451 = CYLINDRICAL_SURFACE('',#452,2.6);
#452 = AXIS2_PLACEMENT_3D('',#453,#454,#455);
#453 = CARTESIAN_POINT('',(119.5,80.,2.5));
#454 = DIRECTION('',(0.,0.,1.));
#455 = DIRECTION('',(1.,0.,0.));
#456 = ADVANCED_FACE('',(#457),#467,.F.);
#457 = FACE_BOUND('',#458,.F.);
#458 = EDGE_LOOP('',(#459,#460,#461));
#459 = ORIENTED_EDGE('',*,*,#216,.F.);
#460 = ORIENTED_EDGE('',*,*,#170,.T.);
#461 = ORIENTED_EDGE('',*,*,#462,.F.);
#462 = EDGE_CURVE('',#217,#171,#463,.T.);
#463 = LINE('',#464,#465);
#464 = CARTESIAN_POINT('',(129.,-89.5,2.));
#465 = VECTOR('',#466,1.);
#466 = DIRECTION('',(5.1E-15,-0.707106781187,-0.707106781187));
#467 = PLANE('',#468);
#468 = AXIS2_PLACEMENT_3D('',#469,#470,#471);
#469 = CARTESIAN_POINT('',(130.,-89.,1.5));
#470 = DIRECTION('',(-0.57735026919,0.57735026919,-0.57735026919));
#471 = DIRECTION('',(2.775557561563E-17,-0.707106781187,-0.707106781187)
  );
#472 = ADVANCED_FACE('',(#473),#483,.F.);
#473 = FACE_BOUND('',#474,.F.);
#474 = EDGE_LOOP('',(#475,#476,#477));
#475 = ORIENTED_EDGE('',*,*,#194,.F.);
#476 = ORIENTED_EDGE('',*,*,#225,.T.);
#477 = ORIENTED_EDGE('',*,*,#478,.F.);
#478 = EDGE_CURVE('',#195,#226,#479,.T.);
#479 = LINE('',#480,#481);
#480 = CARTESIAN_POINT('',(129.,89.5,2.));
#481 = VECTOR('',#482,1.);
#482 = DIRECTION('',(-5.1E-15,-0.707106781187,0.707106781187));
#483 = PLANE('',#484);
#484 = AXIS2_PLACEMENT_3D('',#485,#486,#487);
#485 = CARTESIAN_POINT('',(130.,89.,1.5));
#486 = DIRECTION('',(-0.57735026919,-0.57735026919,-0.57735026919));
#487 = DIRECTION('',(-2.775557561563E-17,-0.707106781187,0.707106781187)
  );
#488 = ADVANCED_FACE('',(#489,#514,#517,#520,#523),#526,.T.);
#489 = FACE_BOUND('',#490,.T.);
#490 = EDGE_LOOP('',(#491,#501,#507,#508));
#491 = ORIENTED_EDGE('',*,*,#492,.T.);
#492 = EDGE_CURVE('',#493,#495,#497,.T.);
#493 = VERTEX_POINT('',#494);
#494 = CARTESIAN_POINT('',(-129.,89.,2.5));
#495 = VERTEX_POINT('',#496);
#496 = CARTESIAN_POINT('',(-129.,-89.,2.5));
#497 = LINE('',#498,#499);
#498 = CARTESIAN_POINT('',(-129.,90.,2.5));
#499 = VECTOR('',#500,1.);
#500 = DIRECTION('',(0.,-1.,0.));
#501 = ORIENTED_EDGE('',*,*,#502,.T.);
#502 = EDGE_CURVE('',#495,#217,#503,.T.);
#503 = LINE('',#504,#505);
#504 = CARTESIAN_POINT('',(-130.,-89.,2.5));
#505 = VECTOR('',#506,1.);
#506 = DIRECTION('',(1.,0.,0.));
#507 = ORIENTED_EDGE('',*,*,#233,.T.);
#508 = ORIENTED_EDGE('',*,*,#509,.T.);
#509 = EDGE_CURVE('',#226,#493,#510,.T.);
#510 = LINE('',#511,#512);
#511 = CARTESIAN_POINT('',(130.,89.,2.5));
#512 = VECTOR('',#513,1.);
#513 = DIRECTION('',(-1.,0.,0.));
#514 = FACE_BOUND('',#515,.T.);
#515 = EDGE_LOOP('',(#516));
#516 = ORIENTED_EDGE('',*,*,#360,.F.);
#517 = FACE_BOUND('',#518,.T.);
#518 = EDGE_LOOP('',(#519));
#519 = ORIENTED_EDGE('',*,*,#385,.F.);
#520 = FACE_BOUND('',#521,.T.);
#521 = EDGE_LOOP('',(#522));
#522 = ORIENTED_EDGE('',*,*,#410,.F.);
#523 = FACE_BOUND('',#524,.T.);
#524 = EDGE_LOOP('',(#525));
#525 = ORIENTED_EDGE('',*,*,#435,.F.);
#526 = PLANE('',#527);
#527 = AXIS2_PLACEMENT_3D('',#528,#529,#530);
#528 = CARTESIAN_POINT('',(0.,0.,2.5));
#529 = DIRECTION('',(0.,0.,1.));
#530 = DIRECTION('',(1.,0.,0.));
#531 = ADVANCED_FACE('',(#532),#543,.F.);
#532 = FACE_BOUND('',#533,.T.);
#533 = EDGE_LOOP('',(#534,#540,#541,#542));
#534 = ORIENTED_EDGE('',*,*,#535,.T.);
#535 = EDGE_CURVE('',#495,#249,#536,.T.);
#536 = LINE('',#537,#538);
#537 = CARTESIAN_POINT('',(-129.,-89.25,2.25));
#538 = VECTOR('',#539,1.);
#539 = DIRECTION('',(-5.1E-15,-0.707106781187,-0.707106781187));
#540 = ORIENTED_EDGE('',*,*,#256,.T.);
#541 = ORIENTED_EDGE('',*,*,#462,.F.);
#542 = ORIENTED_EDGE('',*,*,#502,.F.);
#543 = PLANE('',#544);
#544 = AXIS2_PLACEMENT_3D('',#545,#546,#547);
#545 = CARTESIAN_POINT('',(-130.,-89.5,2.));
#546 = DIRECTION('',(0.,0.707106781187,-0.707106781187));
#547 = DIRECTION('',(-1.,-0.,-0.));
#548 = ADVANCED_FACE('',(#549),#560,.F.);
#549 = FACE_BOUND('',#550,.T.);
#550 = EDGE_LOOP('',(#551,#552,#558,#559));
#551 = ORIENTED_EDGE('',*,*,#273,.T.);
#552 = ORIENTED_EDGE('',*,*,#553,.T.);
#553 = EDGE_CURVE('',#274,#493,#554,.T.);
#554 = LINE('',#555,#556);
#555 = CARTESIAN_POINT('',(-129.,89.75,1.75));
#556 = VECTOR('',#557,1.);
#557 = DIRECTION('',(5.1E-15,-0.707106781187,0.707106781187));
#558 = ORIENTED_EDGE('',*,*,#509,.F.);
#559 = ORIENTED_EDGE('',*,*,#478,.F.);
#560 = PLANE('',#561);
#561 = AXIS2_PLACEMENT_3D('',#562,#563,#564);
#562 = CARTESIAN_POINT('',(130.,89.5,2.));
#563 = DIRECTION('',(0.,-0.707106781187,-0.707106781187));
#564 = DIRECTION('',(1.,0.,0.));
#565 = ADVANCED_FACE('',(#566),#576,.F.);
#566 = FACE_BOUND('',#567,.F.);
#567 = EDGE_LOOP('',(#568,#574,#575));
#568 = ORIENTED_EDGE('',*,*,#569,.F.);
#569 = EDGE_CURVE('',#495,#298,#570,.T.);
#570 = LINE('',#571,#572);
#571 = CARTESIAN_POINT('',(-129.25,-89.,2.25));
#572 = VECTOR('',#573,1.);
#573 = DIRECTION('',(-0.707106781187,2.12E-15,-0.707106781187));
#574 = ORIENTED_EDGE('',*,*,#535,.T.);
#575 = ORIENTED_EDGE('',*,*,#297,.F.);
#576 = PLANE('',#577);
#577 = AXIS2_PLACEMENT_3D('',#578,#579,#580);
#578 = CARTESIAN_POINT('',(-129.,-89.,2.5));
#579 = DIRECTION('',(0.57735026919,0.57735026919,-0.57735026919));
#580 = DIRECTION('',(0.707106781187,-0.707106781187,7.244205235679E-15)
  );
#581 = ADVANCED_FACE('',(#582),#592,.F.);
#582 = FACE_BOUND('',#583,.F.);
#583 = EDGE_LOOP('',(#584,#585,#586));
#584 = ORIENTED_EDGE('',*,*,#321,.F.);
#585 = ORIENTED_EDGE('',*,*,#553,.T.);
#586 = ORIENTED_EDGE('',*,*,#587,.F.);
#587 = EDGE_CURVE('',#322,#493,#588,.T.);
#588 = LINE('',#589,#590);
#589 = CARTESIAN_POINT('',(-129.5,89.,2.));
#590 = VECTOR('',#591,1.);
#591 = DIRECTION('',(0.707106781187,2.12E-15,0.707106781187));
#592 = PLANE('',#593);
#593 = AXIS2_PLACEMENT_3D('',#594,#595,#596);
#594 = CARTESIAN_POINT('',(-129.,90.,1.5));
#595 = DIRECTION('',(0.57735026919,-0.57735026919,-0.57735026919));
#596 = DIRECTION('',(0.707106781187,0.,0.707106781187));
#597 = ADVANCED_FACE('',(#598),#604,.F.);
#598 = FACE_BOUND('',#599,.F.);
#599 = EDGE_LOOP('',(#600,#601,#602,#603));
#600 = ORIENTED_EDGE('',*,*,#492,.T.);
#601 = ORIENTED_EDGE('',*,*,#569,.T.);
#602 = ORIENTED_EDGE('',*,*,#345,.F.);
#603 = ORIENTED_EDGE('',*,*,#587,.T.);
#604 = PLANE('',#605);
#605 = AXIS2_PLACEMENT_3D('',#606,#607,#608);
#606 = CARTESIAN_POINT('',(-129.5,90.,2.));
#607 = DIRECTION('',(0.707106781187,0.,-0.707106781187));
#608 = DIRECTION('',(0.,-1.,0.));
#609 = ( GEOMETRIC_REPRESENTATION_CONTEXT(3) 
GLOBAL_UNCERTAINTY_ASSIGNED_CONTEXT((#613)) GLOBAL_UNIT_ASSIGNED_CONTEXT
((#610,#611,#612)) REPRESENTATION_CONTEXT('Context #1',
  '3D Context with UNIT and UNCERTAINTY') );
#610 = ( LENGTH_UNIT() NAMED_UNIT(*) SI_UNIT(.MILLI.,.METRE.) );
#611 = ( NAMED_UNIT(*) PLANE_ANGLE_UNIT() SI_UNIT($,.RADIAN.) );
#612 = ( NAMED_UNIT(*) SI_UNIT($,.STERADIAN.) SOLID_ANGLE_UNIT() );
#613 = UNCERTAINTY_MEASURE_WITH_UNIT(LENGTH_MEASURE(1.E-07),#610,
  'distance_accuracy_value','confusion accuracy');
#614 = PRODUCT_RELATED_PRODUCT_CATEGORY('part',$,(#7));
ENDSEC;
END-ISO-10303-21;
