ISO-10303-21;
HEADER;
FILE_DESCRIPTION(('FreeCAD Model'),'2;1');
FILE_NAME('Open CASCADE Shape Model','2026-09-08T00:01:26',('FreeCAD'),(
    'FreeCAD'),'Open CASCADE STEP processor 7.8','FreeCAD','Unknown');
FILE_SCHEMA(('AUTOMOTIVE_DESIGN { 1 0 10303 214 1 1 1 1 }'));
ENDSEC;
DATA;
#1 = APPLICATION_PROTOCOL_DEFINITION('international standard',
  'automotive_design',2000,#2);
#2 = APPLICATION_CONTEXT(
  'core data for automotive mechanical design processes');
#3 = SHAPE_DEFINITION_REPRESENTATION(#4,#10);
#4 = PRODUCT_DEFINITION_SHAPE('','',#5);
#5 = PRODUCT_DEFINITION('design','',#6,#9);
#6 = PRODUCT_DEFINITION_FORMATION('','',#7);
#7 = PRODUCT('Open CASCADE STEP translator 7.8 34',
  'Open CASCADE STEP translator 7.8 34','',(#8));
#8 = PRODUCT_CONTEXT('',#2,'mechanical');
#9 = PRODUCT_DEFINITION_CONTEXT('part definition',#2,'design');
#10 = ADVANCED_BREP_SHAPE_REPRESENTATION('',(#11,#15),#1826);
#11 = AXIS2_PLACEMENT_3D('',#12,#13,#14);
#12 = CARTESIAN_POINT('',(0.,0.,0.));
#13 = DIRECTION('',(0.,0.,1.));
#14 = DIRECTION('',(1.,0.,-0.));
#15 = MANIFOLD_SOLID_BREP('',#16);
#16 = CLOSED_SHELL('',(#17,#160,#185,#318,#342,#366,#397,#428,#452,#476,
    #500,#524,#555,#580,#605,#630,#655,#689,#720,#752,#776,#793,#817,
    #841,#873,#897,#1003,#1028,#1053,#1069,#1085,#1123,#1161,#1185,#1209
    ,#1265,#1281,#1337,#1353,#1407,#1427,#1445,#1463,#1481,#1511,#1523,
    #1535,#1565,#1582,#1616,#1650,#1672,#1689,#1711,#1728,#1740,#1752,
    #1764,#1776,#1788,#1800,#1813));
#17 = ADVANCED_FACE('',(#18,#29,#111,#122,#133,#144),#155,.T.);
#18 = FACE_BOUND('',#19,.T.);
#19 = EDGE_LOOP('',(#20));
#20 = ORIENTED_EDGE('',*,*,#21,.F.);
#21 = EDGE_CURVE('',#22,#22,#24,.T.);
#22 = VERTEX_POINT('',#23);
#23 = CARTESIAN_POINT('',(-12.45,-2.5,15.5));
#24 = CIRCLE('',#25,3.05);
#25 = AXIS2_PLACEMENT_3D('',#26,#27,#28);
#26 = CARTESIAN_POINT('',(-15.5,-2.5,15.5));
#27 = DIRECTION('',(0.,-1.,2.6E-16));
#28 = DIRECTION('',(1.,0.,0.));
#29 = FACE_BOUND('',#30,.T.);
#30 = EDGE_LOOP('',(#31,#41,#49,#57,#65,#73,#81,#89,#97,#105));
#31 = ORIENTED_EDGE('',*,*,#32,.F.);
#32 = EDGE_CURVE('',#33,#35,#37,.T.);
#33 = VERTEX_POINT('',#34);
#34 = CARTESIAN_POINT('',(-35.1,-2.5,21.1));
#35 = VERTEX_POINT('',#36);
#36 = CARTESIAN_POINT('',(35.1,-2.5,21.1));
#37 = LINE('',#38,#39);
#38 = CARTESIAN_POINT('',(21.1,-2.5,21.1));
#39 = VECTOR('',#40,1.);
#40 = DIRECTION('',(1.,0.,0.));
#41 = ORIENTED_EDGE('',*,*,#42,.T.);
#42 = EDGE_CURVE('',#33,#43,#45,.T.);
#43 = VERTEX_POINT('',#44);
#44 = CARTESIAN_POINT('',(-35.1,-2.5,2.1));
#45 = LINE('',#46,#47);
#46 = CARTESIAN_POINT('',(-35.1,-2.5,21.1));
#47 = VECTOR('',#48,1.);
#48 = DIRECTION('',(0.,-2.2E-16,-1.));
#49 = ORIENTED_EDGE('',*,*,#50,.T.);
#50 = EDGE_CURVE('',#43,#51,#53,.T.);
#51 = VERTEX_POINT('',#52);
#52 = CARTESIAN_POINT('',(-30.73578643762,-2.5,2.1));
#53 = LINE('',#54,#55);
#54 = CARTESIAN_POINT('',(-36.1,-2.5,2.1));
#55 = VECTOR('',#56,1.);
#56 = DIRECTION('',(1.,0.,0.));
#57 = ORIENTED_EDGE('',*,*,#58,.F.);
#58 = EDGE_CURVE('',#59,#51,#61,.T.);
#59 = VERTEX_POINT('',#60);
#60 = CARTESIAN_POINT('',(-24.85,-2.5,-3.785786437627));
#61 = LINE('',#62,#63);
#62 = CARTESIAN_POINT('',(-25.14289321881,-2.5,-3.492893218813));
#63 = VECTOR('',#64,1.);
#64 = DIRECTION('',(-0.707106781187,1.8E-16,0.707106781187));
#65 = ORIENTED_EDGE('',*,*,#66,.T.);
#66 = EDGE_CURVE('',#59,#67,#69,.T.);
#67 = VERTEX_POINT('',#68);
#68 = CARTESIAN_POINT('',(-24.85,-2.5,-20.1));
#69 = LINE('',#70,#71);
#70 = CARTESIAN_POINT('',(-24.85,-2.5,-4.2));
#71 = VECTOR('',#72,1.);
#72 = DIRECTION('',(0.,-2.4E-16,-1.));
#73 = ORIENTED_EDGE('',*,*,#74,.T.);
#74 = EDGE_CURVE('',#67,#75,#77,.T.);
#75 = VERTEX_POINT('',#76);
#76 = CARTESIAN_POINT('',(24.85,-2.5,-20.1));
#77 = LINE('',#78,#79);
#78 = CARTESIAN_POINT('',(-25.85,-2.5,-20.1));
#79 = VECTOR('',#80,1.);
#80 = DIRECTION('',(1.,-2.2E-16,2.2E-16));
#81 = ORIENTED_EDGE('',*,*,#82,.F.);
#82 = EDGE_CURVE('',#83,#75,#85,.T.);
#83 = VERTEX_POINT('',#84);
#84 = CARTESIAN_POINT('',(24.85,-2.5,-3.785786437627));
#85 = LINE('',#86,#87);
#86 = CARTESIAN_POINT('',(24.85,-2.5,-4.2));
#87 = VECTOR('',#88,1.);
#88 = DIRECTION('',(2.2E-16,-2.4E-16,-1.));
#89 = ORIENTED_EDGE('',*,*,#90,.F.);
#90 = EDGE_CURVE('',#91,#83,#93,.T.);
#91 = VERTEX_POINT('',#92);
#92 = CARTESIAN_POINT('',(30.735786437627,-2.5,2.1));
#93 = LINE('',#94,#95);
#94 = CARTESIAN_POINT('',(30.442893218813,-2.5,1.807106781187));
#95 = VECTOR('',#96,1.);
#96 = DIRECTION('',(-0.707106781187,-1.8E-16,-0.707106781187));
#97 = ORIENTED_EDGE('',*,*,#98,.T.);
#98 = EDGE_CURVE('',#91,#99,#101,.T.);
#99 = VERTEX_POINT('',#100);
#100 = CARTESIAN_POINT('',(35.1,-2.5,2.1));
#101 = LINE('',#102,#103);
#102 = CARTESIAN_POINT('',(31.15,-2.5,2.1));
#103 = VECTOR('',#104,1.);
#104 = DIRECTION('',(1.,0.,0.));
#105 = ORIENTED_EDGE('',*,*,#106,.T.);
#106 = EDGE_CURVE('',#99,#35,#107,.T.);
#107 = LINE('',#108,#109);
#108 = CARTESIAN_POINT('',(35.1,-2.5,1.1));
#109 = VECTOR('',#110,1.);
#110 = DIRECTION('',(0.,2.2E-16,1.));
#111 = FACE_BOUND('',#112,.T.);
#112 = EDGE_LOOP('',(#113));
#113 = ORIENTED_EDGE('',*,*,#114,.F.);
#114 = EDGE_CURVE('',#115,#115,#117,.T.);
#115 = VERTEX_POINT('',#116);
#116 = CARTESIAN_POINT('',(2.75,-2.5,0.));
#117 = CIRCLE('',#118,2.75);
#118 = AXIS2_PLACEMENT_3D('',#119,#120,#121);
#119 = CARTESIAN_POINT('',(0.,-2.5,0.));
#120 = DIRECTION('',(0.,-1.,0.));
#121 = DIRECTION('',(1.,0.,0.));
#122 = FACE_BOUND('',#123,.T.);
#123 = EDGE_LOOP('',(#124));
#124 = ORIENTED_EDGE('',*,*,#125,.F.);
#125 = EDGE_CURVE('',#126,#126,#128,.T.);
#126 = VERTEX_POINT('',#127);
#127 = CARTESIAN_POINT('',(-12.45,-2.5,-15.5));
#128 = CIRCLE('',#129,3.05);
#129 = AXIS2_PLACEMENT_3D('',#130,#131,#132);
#130 = CARTESIAN_POINT('',(-15.5,-2.5,-15.5));
#131 = DIRECTION('',(0.,-1.,2.6E-16));
#132 = DIRECTION('',(1.,-2.886E-31,-1.11E-15));
#133 = FACE_BOUND('',#134,.T.);
#134 = EDGE_LOOP('',(#135));
#135 = ORIENTED_EDGE('',*,*,#136,.F.);
#136 = EDGE_CURVE('',#137,#137,#139,.T.);
#137 = VERTEX_POINT('',#138);
#138 = CARTESIAN_POINT('',(18.55,-2.5,15.5));
#139 = CIRCLE('',#140,3.05);
#140 = AXIS2_PLACEMENT_3D('',#141,#142,#143);
#141 = CARTESIAN_POINT('',(15.5,-2.5,15.5));
#142 = DIRECTION('',(0.,-1.,2.6E-16));
#143 = DIRECTION('',(1.,0.,0.));
#144 = FACE_BOUND('',#145,.T.);
#145 = EDGE_LOOP('',(#146));
#146 = ORIENTED_EDGE('',*,*,#147,.F.);
#147 = EDGE_CURVE('',#148,#148,#150,.T.);
#148 = VERTEX_POINT('',#149);
#149 = CARTESIAN_POINT('',(18.55,-2.5,-15.5));
#150 = CIRCLE('',#151,3.05);
#151 = AXIS2_PLACEMENT_3D('',#152,#153,#154);
#152 = CARTESIAN_POINT('',(15.5,-2.5,-15.5));
#153 = DIRECTION('',(0.,-1.,2.6E-16));
#154 = DIRECTION('',(1.,-2.886E-31,-1.11E-15));
#155 = PLANE('',#156);
#156 = AXIS2_PLACEMENT_3D('',#157,#158,#159);
#157 = CARTESIAN_POINT('',(2.5E-16,-2.5,1.989073426573));
#158 = DIRECTION('',(0.,-1.,2.6E-16));
#159 = DIRECTION('',(0.,-2.6E-16,-1.));
#160 = ADVANCED_FACE('',(#161),#180,.F.);
#161 = FACE_BOUND('',#162,.T.);
#162 = EDGE_LOOP('',(#163,#171,#172,#173));
#163 = ORIENTED_EDGE('',*,*,#164,.F.);
#164 = EDGE_CURVE('',#22,#165,#167,.T.);
#165 = VERTEX_POINT('',#166);
#166 = CARTESIAN_POINT('',(-13.9,-0.7,15.5));
#167 = LINE('',#168,#169);
#168 = CARTESIAN_POINT('',(-13.9,-0.7,15.5));
#169 = VECTOR('',#170,1.);
#170 = DIRECTION('',(-0.627329537873,0.778753909083,-2.E-16));
#171 = ORIENTED_EDGE('',*,*,#21,.T.);
#172 = ORIENTED_EDGE('',*,*,#164,.T.);
#173 = ORIENTED_EDGE('',*,*,#174,.F.);
#174 = EDGE_CURVE('',#165,#165,#175,.T.);
#175 = CIRCLE('',#176,1.6);
#176 = AXIS2_PLACEMENT_3D('',#177,#178,#179);
#177 = CARTESIAN_POINT('',(-15.5,-0.7,15.5));
#178 = DIRECTION('',(0.,-1.,2.6E-16));
#179 = DIRECTION('',(1.,0.,0.));
#180 = CONICAL_SURFACE('',#181,1.6,0.678119307749);
#181 = AXIS2_PLACEMENT_3D('',#182,#183,#184);
#182 = CARTESIAN_POINT('',(-15.5,-0.7,15.5));
#183 = DIRECTION('',(0.,-1.,2.6E-16));
#184 = DIRECTION('',(1.,0.,0.));
#185 = ADVANCED_FACE('',(#186,#291,#302),#313,.T.);
#186 = FACE_BOUND('',#187,.T.);
#187 = EDGE_LOOP('',(#188,#198,#206,#214,#222,#230,#238,#246,#252,#253,
    #261,#269,#277,#285));
#188 = ORIENTED_EDGE('',*,*,#189,.F.);
#189 = EDGE_CURVE('',#190,#192,#194,.T.);
#190 = VERTEX_POINT('',#191);
#191 = CARTESIAN_POINT('',(21.1,2.,21.1));
#192 = VERTEX_POINT('',#193);
#193 = CARTESIAN_POINT('',(21.1,11.5,21.1));
#194 = LINE('',#195,#196);
#195 = CARTESIAN_POINT('',(21.1,-2.5,21.1));
#196 = VECTOR('',#197,1.);
#197 = DIRECTION('',(0.,1.,-2.2E-16));
#198 = ORIENTED_EDGE('',*,*,#199,.T.);
#199 = EDGE_CURVE('',#190,#200,#202,.T.);
#200 = VERTEX_POINT('',#201);
#201 = CARTESIAN_POINT('',(-21.1,2.,21.1));
#202 = LINE('',#203,#204);
#203 = CARTESIAN_POINT('',(21.1,2.,21.1));
#204 = VECTOR('',#205,1.);
#205 = DIRECTION('',(-1.,0.,0.));
#206 = ORIENTED_EDGE('',*,*,#207,.F.);
#207 = EDGE_CURVE('',#208,#200,#210,.T.);
#208 = VERTEX_POINT('',#209);
#209 = CARTESIAN_POINT('',(-21.1,11.5,21.1));
#210 = LINE('',#211,#212);
#211 = CARTESIAN_POINT('',(-21.1,2.5,21.1));
#212 = VECTOR('',#213,1.);
#213 = DIRECTION('',(0.,-1.,2.2E-16));
#214 = ORIENTED_EDGE('',*,*,#215,.F.);
#215 = EDGE_CURVE('',#216,#208,#218,.T.);
#216 = VERTEX_POINT('',#217);
#217 = CARTESIAN_POINT('',(-22.1,12.5,21.1));
#218 = LINE('',#219,#220);
#219 = CARTESIAN_POINT('',(-13.97160493827,4.371604938272,21.1));
#220 = VECTOR('',#221,1.);
#221 = DIRECTION('',(0.707106781187,-0.707106781187,1.7E-16));
#222 = ORIENTED_EDGE('',*,*,#223,.F.);
#223 = EDGE_CURVE('',#224,#216,#226,.T.);
#224 = VERTEX_POINT('',#225);
#225 = CARTESIAN_POINT('',(-35.1,12.5,21.1));
#226 = LINE('',#227,#228);
#227 = CARTESIAN_POINT('',(-36.1,12.5,21.1));
#228 = VECTOR('',#229,1.);
#229 = DIRECTION('',(1.,0.,0.));
#230 = ORIENTED_EDGE('',*,*,#231,.F.);
#231 = EDGE_CURVE('',#232,#224,#234,.T.);
#232 = VERTEX_POINT('',#233);
#233 = CARTESIAN_POINT('',(-36.1,11.5,21.1));
#234 = LINE('',#235,#236);
#235 = CARTESIAN_POINT('',(-28.92839506172,18.671604938272,21.1));
#236 = VECTOR('',#237,1.);
#237 = DIRECTION('',(0.707106781187,0.707106781187,-1.7E-16));
#238 = ORIENTED_EDGE('',*,*,#239,.F.);
#239 = EDGE_CURVE('',#240,#232,#242,.T.);
#240 = VERTEX_POINT('',#241);
#241 = CARTESIAN_POINT('',(-36.1,-1.5,21.1));
#242 = LINE('',#243,#244);
#243 = CARTESIAN_POINT('',(-36.1,-2.5,21.1));
#244 = VECTOR('',#245,1.);
#245 = DIRECTION('',(0.,1.,-2.2E-16));
#246 = ORIENTED_EDGE('',*,*,#247,.F.);
#247 = EDGE_CURVE('',#33,#240,#248,.T.);
#248 = LINE('',#249,#250);
#249 = CARTESIAN_POINT('',(-27.97160493827,-9.628395061728,21.1));
#250 = VECTOR('',#251,1.);
#251 = DIRECTION('',(-0.707106781187,0.707106781187,-1.7E-16));
#252 = ORIENTED_EDGE('',*,*,#32,.T.);
#253 = ORIENTED_EDGE('',*,*,#254,.T.);
#254 = EDGE_CURVE('',#35,#255,#257,.T.);
#255 = VERTEX_POINT('',#256);
#256 = CARTESIAN_POINT('',(36.1,-1.5,21.1));
#257 = LINE('',#258,#259);
#258 = CARTESIAN_POINT('',(27.971604938272,-9.628395061728,21.1));
#259 = VECTOR('',#260,1.);
#260 = DIRECTION('',(0.707106781187,0.707106781187,-1.7E-16));
#261 = ORIENTED_EDGE('',*,*,#262,.T.);
#262 = EDGE_CURVE('',#255,#263,#265,.T.);
#263 = VERTEX_POINT('',#264);
#264 = CARTESIAN_POINT('',(36.1,11.5,21.1));
#265 = LINE('',#266,#267);
#266 = CARTESIAN_POINT('',(36.1,-2.5,21.1));
#267 = VECTOR('',#268,1.);
#268 = DIRECTION('',(0.,1.,-2.2E-16));
#269 = ORIENTED_EDGE('',*,*,#270,.F.);
#270 = EDGE_CURVE('',#271,#263,#273,.T.);
#271 = VERTEX_POINT('',#272);
#272 = CARTESIAN_POINT('',(35.1,12.5,21.1));
#273 = LINE('',#274,#275);
#274 = CARTESIAN_POINT('',(28.928395061728,18.671604938272,21.1));
#275 = VECTOR('',#276,1.);
#276 = DIRECTION('',(0.707106781187,-0.707106781187,1.7E-16));
#277 = ORIENTED_EDGE('',*,*,#278,.F.);
#278 = EDGE_CURVE('',#279,#271,#281,.T.);
#279 = VERTEX_POINT('',#280);
#280 = CARTESIAN_POINT('',(22.1,12.5,21.1));
#281 = LINE('',#282,#283);
#282 = CARTESIAN_POINT('',(21.1,12.5,21.1));
#283 = VECTOR('',#284,1.);
#284 = DIRECTION('',(1.,0.,0.));
#285 = ORIENTED_EDGE('',*,*,#286,.T.);
#286 = EDGE_CURVE('',#279,#192,#287,.T.);
#287 = LINE('',#288,#289);
#288 = CARTESIAN_POINT('',(13.971604938272,4.371604938272,21.1));
#289 = VECTOR('',#290,1.);
#290 = DIRECTION('',(-0.707106781187,-0.707106781187,1.7E-16));
#291 = FACE_BOUND('',#292,.T.);
#292 = EDGE_LOOP('',(#293));
#293 = ORIENTED_EDGE('',*,*,#294,.T.);
#294 = EDGE_CURVE('',#295,#295,#297,.T.);
#295 = VERTEX_POINT('',#296);
#296 = CARTESIAN_POINT('',(30.,5.,21.1));
#297 = CIRCLE('',#298,1.5);
#298 = AXIS2_PLACEMENT_3D('',#299,#300,#301);
#299 = CARTESIAN_POINT('',(28.5,5.,21.1));
#300 = DIRECTION('',(0.,0.,-1.));
#301 = DIRECTION('',(1.,0.,0.));
#302 = FACE_BOUND('',#303,.T.);
#303 = EDGE_LOOP('',(#304));
#304 = ORIENTED_EDGE('',*,*,#305,.T.);
#305 = EDGE_CURVE('',#306,#306,#308,.T.);
#306 = VERTEX_POINT('',#307);
#307 = CARTESIAN_POINT('',(-27.,5.,21.1));
#308 = CIRCLE('',#309,1.5);
#309 = AXIS2_PLACEMENT_3D('',#310,#311,#312);
#310 = CARTESIAN_POINT('',(-28.5,5.,21.1));
#311 = DIRECTION('',(0.,0.,-1.));
#312 = DIRECTION('',(1.,0.,0.));
#313 = PLANE('',#314);
#314 = AXIS2_PLACEMENT_3D('',#315,#316,#317);
#315 = CARTESIAN_POINT('',(0.,3.086419753086,21.1));
#316 = DIRECTION('',(0.,2.4E-16,1.));
#317 = DIRECTION('',(0.,1.,-2.4E-16));
#318 = ADVANCED_FACE('',(#319),#337,.T.);
#319 = FACE_BOUND('',#320,.F.);
#320 = EDGE_LOOP('',(#321,#322,#323,#331));
#321 = ORIENTED_EDGE('',*,*,#247,.F.);
#322 = ORIENTED_EDGE('',*,*,#42,.T.);
#323 = ORIENTED_EDGE('',*,*,#324,.F.);
#324 = EDGE_CURVE('',#325,#43,#327,.T.);
#325 = VERTEX_POINT('',#326);
#326 = CARTESIAN_POINT('',(-36.1,-1.5,2.1));
#327 = LINE('',#328,#329);
#328 = CARTESIAN_POINT('',(-35.6,-2.,2.1));
#329 = VECTOR('',#330,1.);
#330 = DIRECTION('',(0.707106781187,-0.707106781187,1.35E-15));
#331 = ORIENTED_EDGE('',*,*,#332,.F.);
#332 = EDGE_CURVE('',#240,#325,#333,.T.);
#333 = LINE('',#334,#335);
#334 = CARTESIAN_POINT('',(-36.1,-1.5,21.1));
#335 = VECTOR('',#336,1.);
#336 = DIRECTION('',(0.,-2.2E-16,-1.));
#337 = PLANE('',#338);
#338 = AXIS2_PLACEMENT_3D('',#339,#340,#341);
#339 = CARTESIAN_POINT('',(-35.6,-2.,21.1));
#340 = DIRECTION('',(-0.707106781187,-0.707106781187,2.E-16));
#341 = DIRECTION('',(3.142135623731E-17,2.514213562373E-16,1.));
#342 = ADVANCED_FACE('',(#343),#361,.T.);
#343 = FACE_BOUND('',#344,.F.);
#344 = EDGE_LOOP('',(#345,#353,#354,#355));
#345 = ORIENTED_EDGE('',*,*,#346,.F.);
#346 = EDGE_CURVE('',#99,#347,#349,.T.);
#347 = VERTEX_POINT('',#348);
#348 = CARTESIAN_POINT('',(36.1,-1.5,2.1));
#349 = LINE('',#350,#351);
#350 = CARTESIAN_POINT('',(35.35,-2.25,2.1));
#351 = VECTOR('',#352,1.);
#352 = DIRECTION('',(0.707106781187,0.707106781187,-1.73E-15));
#353 = ORIENTED_EDGE('',*,*,#106,.T.);
#354 = ORIENTED_EDGE('',*,*,#254,.T.);
#355 = ORIENTED_EDGE('',*,*,#356,.F.);
#356 = EDGE_CURVE('',#347,#255,#357,.T.);
#357 = LINE('',#358,#359);
#358 = CARTESIAN_POINT('',(36.1,-1.5,1.1));
#359 = VECTOR('',#360,1.);
#360 = DIRECTION('',(0.,2.2E-16,1.));
#361 = PLANE('',#362);
#362 = AXIS2_PLACEMENT_3D('',#363,#364,#365);
#363 = CARTESIAN_POINT('',(35.6,-2.,1.1));
#364 = DIRECTION('',(0.707106781187,-0.707106781187,1.8E-16));
#365 = DIRECTION('',(1.727922061358E-17,-2.372792206136E-16,-1.));
#366 = ADVANCED_FACE('',(#367),#392,.T.);
#367 = FACE_BOUND('',#368,.F.);
#368 = EDGE_LOOP('',(#369,#377,#378,#386));
#369 = ORIENTED_EDGE('',*,*,#370,.T.);
#370 = EDGE_CURVE('',#371,#43,#373,.T.);
#371 = VERTEX_POINT('',#372);
#372 = CARTESIAN_POINT('',(-35.1,-1.5,1.1));
#373 = LINE('',#374,#375);
#374 = CARTESIAN_POINT('',(-35.1,-1.75,1.35));
#375 = VECTOR('',#376,1.);
#376 = DIRECTION('',(0.,-0.707106781187,0.707106781187));
#377 = ORIENTED_EDGE('',*,*,#50,.T.);
#378 = ORIENTED_EDGE('',*,*,#379,.T.);
#379 = EDGE_CURVE('',#51,#380,#382,.T.);
#380 = VERTEX_POINT('',#381);
#381 = CARTESIAN_POINT('',(-31.15,-1.5,1.1));
#382 = LINE('',#383,#384);
#383 = CARTESIAN_POINT('',(-31.45090038984,-0.773562197907,
    0.373562197907));
#384 = VECTOR('',#385,1.);
#385 = DIRECTION('',(-0.281084637715,0.678598344546,-0.678598344546));
#386 = ORIENTED_EDGE('',*,*,#387,.F.);
#387 = EDGE_CURVE('',#371,#380,#388,.T.);
#388 = LINE('',#389,#390);
#389 = CARTESIAN_POINT('',(-36.1,-1.5,1.1));
#390 = VECTOR('',#391,1.);
#391 = DIRECTION('',(1.,0.,0.));
#392 = PLANE('',#393);
#393 = AXIS2_PLACEMENT_3D('',#394,#395,#396);
#394 = CARTESIAN_POINT('',(-36.1,-2.,1.6));
#395 = DIRECTION('',(0.,-0.707106781187,-0.707106781187));
#396 = DIRECTION('',(-1.,-0.,-0.));
#397 = ADVANCED_FACE('',(#398),#423,.T.);
#398 = FACE_BOUND('',#399,.F.);
#399 = EDGE_LOOP('',(#400,#408,#409,#417));
#400 = ORIENTED_EDGE('',*,*,#401,.F.);
#401 = EDGE_CURVE('',#91,#402,#404,.T.);
#402 = VERTEX_POINT('',#403);
#403 = CARTESIAN_POINT('',(31.15,-1.5,1.1));
#404 = LINE('',#405,#406);
#405 = CARTESIAN_POINT('',(30.959256430169,-1.96049571322,1.56049571322)
  );
#406 = VECTOR('',#407,1.);
#407 = DIRECTION('',(0.281084637715,0.678598344546,-0.678598344546));
#408 = ORIENTED_EDGE('',*,*,#98,.T.);
#409 = ORIENTED_EDGE('',*,*,#410,.T.);
#410 = EDGE_CURVE('',#99,#411,#413,.T.);
#411 = VERTEX_POINT('',#412);
#412 = CARTESIAN_POINT('',(35.1,-1.5,1.1));
#413 = LINE('',#414,#415);
#414 = CARTESIAN_POINT('',(35.1,-2.25,1.85));
#415 = VECTOR('',#416,1.);
#416 = DIRECTION('',(1.E-16,0.707106781187,-0.707106781187));
#417 = ORIENTED_EDGE('',*,*,#418,.F.);
#418 = EDGE_CURVE('',#402,#411,#419,.T.);
#419 = LINE('',#420,#421);
#420 = CARTESIAN_POINT('',(31.15,-1.5,1.1));
#421 = VECTOR('',#422,1.);
#422 = DIRECTION('',(1.,0.,0.));
#423 = PLANE('',#424);
#424 = AXIS2_PLACEMENT_3D('',#425,#426,#427);
#425 = CARTESIAN_POINT('',(31.15,-2.,1.6));
#426 = DIRECTION('',(1.E-17,-0.707106781187,-0.707106781187));
#427 = DIRECTION('',(-1.,-7.071067811865E-18,-7.071067811865E-18));
#428 = ADVANCED_FACE('',(#429),#447,.F.);
#429 = FACE_BOUND('',#430,.T.);
#430 = EDGE_LOOP('',(#431,#439,#440,#441));
#431 = ORIENTED_EDGE('',*,*,#432,.F.);
#432 = EDGE_CURVE('',#59,#433,#435,.T.);
#433 = VERTEX_POINT('',#434);
#434 = CARTESIAN_POINT('',(-25.85,-1.5,-4.2));
#435 = LINE('',#436,#437);
#436 = CARTESIAN_POINT('',(-25.38950428678,-1.96049571322,
    -4.009256430169));
#437 = VECTOR('',#438,1.);
#438 = DIRECTION('',(-0.678598344546,0.678598344546,-0.281084637715));
#439 = ORIENTED_EDGE('',*,*,#58,.T.);
#440 = ORIENTED_EDGE('',*,*,#379,.T.);
#441 = ORIENTED_EDGE('',*,*,#442,.F.);
#442 = EDGE_CURVE('',#433,#380,#443,.T.);
#443 = LINE('',#444,#445);
#444 = CARTESIAN_POINT('',(-25.85,-1.5,-4.2));
#445 = VECTOR('',#446,1.);
#446 = DIRECTION('',(-0.707106781187,1.8E-16,0.707106781187));
#447 = PLANE('',#448);
#448 = AXIS2_PLACEMENT_3D('',#449,#450,#451);
#449 = CARTESIAN_POINT('',(-25.4964466094,-2.,-3.846446609407));
#450 = DIRECTION('',(0.5,0.707106781187,0.5));
#451 = DIRECTION('',(0.707106781187,-2.22044604925E-16,-0.707106781187)
  );
#452 = ADVANCED_FACE('',(#453),#471,.F.);
#453 = FACE_BOUND('',#454,.T.);
#454 = EDGE_LOOP('',(#455,#456,#457,#465));
#455 = ORIENTED_EDGE('',*,*,#401,.F.);
#456 = ORIENTED_EDGE('',*,*,#90,.T.);
#457 = ORIENTED_EDGE('',*,*,#458,.F.);
#458 = EDGE_CURVE('',#459,#83,#461,.T.);
#459 = VERTEX_POINT('',#460);
#460 = CARTESIAN_POINT('',(25.85,-1.5,-4.2));
#461 = LINE('',#462,#463);
#462 = CARTESIAN_POINT('',(26.104347466763,-1.245652533237,
    -4.305354170288));
#463 = VECTOR('',#464,1.);
#464 = DIRECTION('',(-0.678598344546,-0.678598344546,0.281084637715));
#465 = ORIENTED_EDGE('',*,*,#466,.F.);
#466 = EDGE_CURVE('',#402,#459,#467,.T.);
#467 = LINE('',#468,#469);
#468 = CARTESIAN_POINT('',(31.15,-1.5,1.1));
#469 = VECTOR('',#470,1.);
#470 = DIRECTION('',(-0.707106781187,-1.8E-16,-0.707106781187));
#471 = PLANE('',#472);
#472 = AXIS2_PLACEMENT_3D('',#473,#474,#475);
#473 = CARTESIAN_POINT('',(30.796446609407,-2.,1.453553390593));
#474 = DIRECTION('',(-0.5,0.707106781187,0.5));
#475 = DIRECTION('',(0.707106781187,8.326672684689E-17,0.707106781187));
#476 = ADVANCED_FACE('',(#477),#495,.T.);
#477 = FACE_BOUND('',#478,.F.);
#478 = EDGE_LOOP('',(#479,#480,#481,#489));
#479 = ORIENTED_EDGE('',*,*,#432,.F.);
#480 = ORIENTED_EDGE('',*,*,#66,.T.);
#481 = ORIENTED_EDGE('',*,*,#482,.T.);
#482 = EDGE_CURVE('',#67,#483,#485,.T.);
#483 = VERTEX_POINT('',#484);
#484 = CARTESIAN_POINT('',(-25.85,-1.5,-20.1));
#485 = LINE('',#486,#487);
#486 = CARTESIAN_POINT('',(-25.35,-2.,-20.1));
#487 = VECTOR('',#488,1.);
#488 = DIRECTION('',(-0.707106781187,0.707106781187,-9.6E-16));
#489 = ORIENTED_EDGE('',*,*,#490,.F.);
#490 = EDGE_CURVE('',#433,#483,#491,.T.);
#491 = LINE('',#492,#493);
#492 = CARTESIAN_POINT('',(-25.85,-1.5,-4.2));
#493 = VECTOR('',#494,1.);
#494 = DIRECTION('',(0.,-2.4E-16,-1.));
#495 = PLANE('',#496);
#496 = AXIS2_PLACEMENT_3D('',#497,#498,#499);
#497 = CARTESIAN_POINT('',(-25.35,-2.,-4.2));
#498 = DIRECTION('',(-0.707106781187,-0.707106781187,2.E-16));
#499 = DIRECTION('',(2.142135623731E-17,2.614213562373E-16,1.));
#500 = ADVANCED_FACE('',(#501),#519,.T.);
#501 = FACE_BOUND('',#502,.F.);
#502 = EDGE_LOOP('',(#503,#504,#512,#518));
#503 = ORIENTED_EDGE('',*,*,#458,.F.);
#504 = ORIENTED_EDGE('',*,*,#505,.T.);
#505 = EDGE_CURVE('',#459,#506,#508,.T.);
#506 = VERTEX_POINT('',#507);
#507 = CARTESIAN_POINT('',(25.85,-1.5,-20.1));
#508 = LINE('',#509,#510);
#509 = CARTESIAN_POINT('',(25.85,-1.5,-4.2));
#510 = VECTOR('',#511,1.);
#511 = DIRECTION('',(2.2E-16,-2.4E-16,-1.));
#512 = ORIENTED_EDGE('',*,*,#513,.T.);
#513 = EDGE_CURVE('',#506,#75,#514,.T.);
#514 = LINE('',#515,#516);
#515 = CARTESIAN_POINT('',(25.6,-1.75,-20.1));
#516 = VECTOR('',#517,1.);
#517 = DIRECTION('',(-0.707106781187,-0.707106781187,1.25E-15));
#518 = ORIENTED_EDGE('',*,*,#82,.F.);
#519 = PLANE('',#520);
#520 = AXIS2_PLACEMENT_3D('',#521,#522,#523);
#521 = CARTESIAN_POINT('',(25.35,-2.,-4.2));
#522 = DIRECTION('',(0.707106781187,-0.707106781187,1.8E-16));
#523 = DIRECTION('',(-1.172792206136E-16,1.372792206136E-16,1.));
#524 = ADVANCED_FACE('',(#525),#550,.T.);
#525 = FACE_BOUND('',#526,.T.);
#526 = EDGE_LOOP('',(#527,#535,#543,#549));
#527 = ORIENTED_EDGE('',*,*,#528,.F.);
#528 = EDGE_CURVE('',#529,#67,#531,.T.);
#529 = VERTEX_POINT('',#530);
#530 = CARTESIAN_POINT('',(-24.85,-1.5,-21.1));
#531 = LINE('',#532,#533);
#532 = CARTESIAN_POINT('',(-24.85,-1.75,-20.85));
#533 = VECTOR('',#534,1.);
#534 = DIRECTION('',(1.73E-15,-0.707106781187,0.707106781187));
#535 = ORIENTED_EDGE('',*,*,#536,.T.);
#536 = EDGE_CURVE('',#529,#537,#539,.T.);
#537 = VERTEX_POINT('',#538);
#538 = CARTESIAN_POINT('',(24.85,-1.5,-21.1));
#539 = LINE('',#540,#541);
#540 = CARTESIAN_POINT('',(-25.85,-1.5,-21.1));
#541 = VECTOR('',#542,1.);
#542 = DIRECTION('',(1.,-2.2E-16,2.2E-16));
#543 = ORIENTED_EDGE('',*,*,#544,.F.);
#544 = EDGE_CURVE('',#75,#537,#545,.T.);
#545 = LINE('',#546,#547);
#546 = CARTESIAN_POINT('',(24.85,-2.,-20.6));
#547 = VECTOR('',#548,1.);
#548 = DIRECTION('',(6.25E-15,0.707106781187,-0.707106781187));
#549 = ORIENTED_EDGE('',*,*,#74,.F.);
#550 = PLANE('',#551);
#551 = AXIS2_PLACEMENT_3D('',#552,#553,#554);
#552 = CARTESIAN_POINT('',(-25.85,-2.,-20.6));
#553 = DIRECTION('',(0.,-0.707106781187,-0.707106781187));
#554 = DIRECTION('',(1.,-2.2E-16,2.2E-16));
#555 = ADVANCED_FACE('',(#556),#575,.F.);
#556 = FACE_BOUND('',#557,.F.);
#557 = EDGE_LOOP('',(#558,#566,#567,#568));
#558 = ORIENTED_EDGE('',*,*,#559,.F.);
#559 = EDGE_CURVE('',#115,#560,#562,.T.);
#560 = VERTEX_POINT('',#561);
#561 = CARTESIAN_POINT('',(2.75,0.,-1.E-15));
#562 = LINE('',#563,#564);
#563 = CARTESIAN_POINT('',(2.75,-2.5,0.));
#564 = VECTOR('',#565,1.);
#565 = DIRECTION('',(0.,1.,-2.2E-16));
#566 = ORIENTED_EDGE('',*,*,#114,.F.);
#567 = ORIENTED_EDGE('',*,*,#559,.T.);
#568 = ORIENTED_EDGE('',*,*,#569,.T.);
#569 = EDGE_CURVE('',#560,#560,#570,.T.);
#570 = CIRCLE('',#571,2.75);
#571 = AXIS2_PLACEMENT_3D('',#572,#573,#574);
#572 = CARTESIAN_POINT('',(0.,-4.4E-16,-5.6E-16));
#573 = DIRECTION('',(0.,-1.,2.2E-16));
#574 = DIRECTION('',(1.,0.,0.));
#575 = CYLINDRICAL_SURFACE('',#576,2.75);
#576 = AXIS2_PLACEMENT_3D('',#577,#578,#579);
#577 = CARTESIAN_POINT('',(0.,-2.5,0.));
#578 = DIRECTION('',(0.,-1.,2.2E-16));
#579 = DIRECTION('',(1.,0.,0.));
#580 = ADVANCED_FACE('',(#581),#600,.F.);
#581 = FACE_BOUND('',#582,.T.);
#582 = EDGE_LOOP('',(#583,#591,#592,#593));
#583 = ORIENTED_EDGE('',*,*,#584,.F.);
#584 = EDGE_CURVE('',#126,#585,#587,.T.);
#585 = VERTEX_POINT('',#586);
#586 = CARTESIAN_POINT('',(-13.9,-0.7,-15.5));
#587 = LINE('',#588,#589);
#588 = CARTESIAN_POINT('',(-13.9,-0.7,-15.5));
#589 = VECTOR('',#590,1.);
#590 = DIRECTION('',(-0.627329537873,0.778753909083,4.9E-16));
#591 = ORIENTED_EDGE('',*,*,#125,.T.);
#592 = ORIENTED_EDGE('',*,*,#584,.T.);
#593 = ORIENTED_EDGE('',*,*,#594,.F.);
#594 = EDGE_CURVE('',#585,#585,#595,.T.);
#595 = CIRCLE('',#596,1.6);
#596 = AXIS2_PLACEMENT_3D('',#597,#598,#599);
#597 = CARTESIAN_POINT('',(-15.5,-0.7,-15.5));
#598 = DIRECTION('',(0.,-1.,2.6E-16));
#599 = DIRECTION('',(1.,-2.886E-31,-1.11E-15));
#600 = CONICAL_SURFACE('',#601,1.6,0.678119307749);
#601 = AXIS2_PLACEMENT_3D('',#602,#603,#604);
#602 = CARTESIAN_POINT('',(-15.5,-0.7,-15.5));
#603 = DIRECTION('',(0.,-1.,2.6E-16));
#604 = DIRECTION('',(1.,-2.886E-31,-1.11E-15));
#605 = ADVANCED_FACE('',(#606),#625,.F.);
#606 = FACE_BOUND('',#607,.T.);
#607 = EDGE_LOOP('',(#608,#616,#617,#618));
#608 = ORIENTED_EDGE('',*,*,#609,.F.);
#609 = EDGE_CURVE('',#137,#610,#612,.T.);
#610 = VERTEX_POINT('',#611);
#611 = CARTESIAN_POINT('',(17.1,-0.7,15.5));
#612 = LINE('',#613,#614);
#613 = CARTESIAN_POINT('',(17.1,-0.7,15.5));
#614 = VECTOR('',#615,1.);
#615 = DIRECTION('',(-0.627329537873,0.778753909083,-2.E-16));
#616 = ORIENTED_EDGE('',*,*,#136,.T.);
#617 = ORIENTED_EDGE('',*,*,#609,.T.);
#618 = ORIENTED_EDGE('',*,*,#619,.F.);
#619 = EDGE_CURVE('',#610,#610,#620,.T.);
#620 = CIRCLE('',#621,1.6);
#621 = AXIS2_PLACEMENT_3D('',#622,#623,#624);
#622 = CARTESIAN_POINT('',(15.5,-0.7,15.5));
#623 = DIRECTION('',(0.,-1.,2.6E-16));
#624 = DIRECTION('',(1.,0.,0.));
#625 = CONICAL_SURFACE('',#626,1.6,0.678119307749);
#626 = AXIS2_PLACEMENT_3D('',#627,#628,#629);
#627 = CARTESIAN_POINT('',(15.5,-0.7,15.5));
#628 = DIRECTION('',(0.,-1.,2.6E-16));
#629 = DIRECTION('',(1.,0.,0.));
#630 = ADVANCED_FACE('',(#631),#650,.F.);
#631 = FACE_BOUND('',#632,.T.);
#632 = EDGE_LOOP('',(#633,#641,#642,#643));
#633 = ORIENTED_EDGE('',*,*,#634,.F.);
#634 = EDGE_CURVE('',#148,#635,#637,.T.);
#635 = VERTEX_POINT('',#636);
#636 = CARTESIAN_POINT('',(17.1,-0.7,-15.5));
#637 = LINE('',#638,#639);
#638 = CARTESIAN_POINT('',(17.1,-0.7,-15.5));
#639 = VECTOR('',#640,1.);
#640 = DIRECTION('',(-0.627329537873,0.778753909083,4.9E-16));
#641 = ORIENTED_EDGE('',*,*,#147,.T.);
#642 = ORIENTED_EDGE('',*,*,#634,.T.);
#643 = ORIENTED_EDGE('',*,*,#644,.F.);
#644 = EDGE_CURVE('',#635,#635,#645,.T.);
#645 = CIRCLE('',#646,1.6);
#646 = AXIS2_PLACEMENT_3D('',#647,#648,#649);
#647 = CARTESIAN_POINT('',(15.5,-0.7,-15.5));
#648 = DIRECTION('',(0.,-1.,2.6E-16));
#649 = DIRECTION('',(1.,-2.886E-31,-1.11E-15));
#650 = CONICAL_SURFACE('',#651,1.6,0.678119307749);
#651 = AXIS2_PLACEMENT_3D('',#652,#653,#654);
#652 = CARTESIAN_POINT('',(15.5,-0.7,-15.5));
#653 = DIRECTION('',(0.,-1.,2.6E-16));
#654 = DIRECTION('',(1.,-2.886E-31,-1.11E-15));
#655 = ADVANCED_FACE('',(#656),#684,.F.);
#656 = FACE_BOUND('',#657,.F.);
#657 = EDGE_LOOP('',(#658,#659,#667,#676,#683));
#658 = ORIENTED_EDGE('',*,*,#174,.F.);
#659 = ORIENTED_EDGE('',*,*,#660,.T.);
#660 = EDGE_CURVE('',#165,#661,#663,.T.);
#661 = VERTEX_POINT('',#662);
#662 = CARTESIAN_POINT('',(-13.9,2.,15.5));
#663 = LINE('',#664,#665);
#664 = CARTESIAN_POINT('',(-13.9,-2.5,15.5));
#665 = VECTOR('',#666,1.);
#666 = DIRECTION('',(0.,1.,-2.2E-16));
#667 = ORIENTED_EDGE('',*,*,#668,.F.);
#668 = EDGE_CURVE('',#669,#661,#671,.T.);
#669 = VERTEX_POINT('',#670);
#670 = CARTESIAN_POINT('',(-17.1,2.,15.5));
#671 = CIRCLE('',#672,1.6);
#672 = AXIS2_PLACEMENT_3D('',#673,#674,#675);
#673 = CARTESIAN_POINT('',(-15.5,2.,15.5));
#674 = DIRECTION('',(0.,1.,-0.));
#675 = DIRECTION('',(-1.,0.,0.));
#676 = ORIENTED_EDGE('',*,*,#677,.F.);
#677 = EDGE_CURVE('',#661,#669,#678,.T.);
#678 = CIRCLE('',#679,1.6);
#679 = AXIS2_PLACEMENT_3D('',#680,#681,#682);
#680 = CARTESIAN_POINT('',(-15.5,2.,15.5));
#681 = DIRECTION('',(0.,1.,-0.));
#682 = DIRECTION('',(-1.,0.,0.));
#683 = ORIENTED_EDGE('',*,*,#660,.F.);
#684 = CYLINDRICAL_SURFACE('',#685,1.6);
#685 = AXIS2_PLACEMENT_3D('',#686,#687,#688);
#686 = CARTESIAN_POINT('',(-15.5,-2.5,15.5));
#687 = DIRECTION('',(0.,-1.,2.2E-16));
#688 = DIRECTION('',(1.,0.,0.));
#689 = ADVANCED_FACE('',(#690),#715,.T.);
#690 = FACE_BOUND('',#691,.T.);
#691 = EDGE_LOOP('',(#692,#693,#701,#709));
#692 = ORIENTED_EDGE('',*,*,#286,.F.);
#693 = ORIENTED_EDGE('',*,*,#694,.T.);
#694 = EDGE_CURVE('',#279,#695,#697,.T.);
#695 = VERTEX_POINT('',#696);
#696 = CARTESIAN_POINT('',(22.1,12.5,1.1));
#697 = LINE('',#698,#699);
#698 = CARTESIAN_POINT('',(22.1,12.5,21.1));
#699 = VECTOR('',#700,1.);
#700 = DIRECTION('',(0.,-2.2E-16,-1.));
#701 = ORIENTED_EDGE('',*,*,#702,.T.);
#702 = EDGE_CURVE('',#695,#703,#705,.T.);
#703 = VERTEX_POINT('',#704);
#704 = CARTESIAN_POINT('',(21.1,11.5,-1.12));
#705 = LINE('',#706,#707);
#706 = CARTESIAN_POINT('',(25.159869522545,15.559869522545,7.89291034005
    ));
#707 = VECTOR('',#708,1.);
#708 = DIRECTION('',(-0.379912447867,-0.379912447867,-0.843405634266));
#709 = ORIENTED_EDGE('',*,*,#710,.F.);
#710 = EDGE_CURVE('',#192,#703,#711,.T.);
#711 = LINE('',#712,#713);
#712 = CARTESIAN_POINT('',(21.1,11.5,21.1));
#713 = VECTOR('',#714,1.);
#714 = DIRECTION('',(0.,-2.2E-16,-1.));
#715 = PLANE('',#716);
#716 = AXIS2_PLACEMENT_3D('',#717,#718,#719);
#717 = CARTESIAN_POINT('',(21.6,12.,21.1));
#718 = DIRECTION('',(-0.707106781187,0.707106781187,0.));
#719 = DIRECTION('',(-1.1E-16,-1.1E-16,-1.));
#720 = ADVANCED_FACE('',(#721),#747,.T.);
#721 = FACE_BOUND('',#722,.T.);
#722 = EDGE_LOOP('',(#723,#733,#739,#740,#741));
#723 = ORIENTED_EDGE('',*,*,#724,.F.);
#724 = EDGE_CURVE('',#725,#727,#729,.T.);
#725 = VERTEX_POINT('',#726);
#726 = CARTESIAN_POINT('',(31.15,12.5,1.1));
#727 = VERTEX_POINT('',#728);
#728 = CARTESIAN_POINT('',(35.1,12.5,1.1));
#729 = LINE('',#730,#731);
#730 = CARTESIAN_POINT('',(21.1,12.5,1.1));
#731 = VECTOR('',#732,1.);
#732 = DIRECTION('',(1.,0.,0.));
#733 = ORIENTED_EDGE('',*,*,#734,.F.);
#734 = EDGE_CURVE('',#695,#725,#735,.T.);
#735 = LINE('',#736,#737);
#736 = CARTESIAN_POINT('',(21.1,12.5,1.1));
#737 = VECTOR('',#738,1.);
#738 = DIRECTION('',(1.,0.,0.));
#739 = ORIENTED_EDGE('',*,*,#694,.F.);
#740 = ORIENTED_EDGE('',*,*,#278,.T.);
#741 = ORIENTED_EDGE('',*,*,#742,.F.);
#742 = EDGE_CURVE('',#727,#271,#743,.T.);
#743 = LINE('',#744,#745);
#744 = CARTESIAN_POINT('',(35.1,12.5,1.1));
#745 = VECTOR('',#746,1.);
#746 = DIRECTION('',(0.,2.2E-16,1.));
#747 = PLANE('',#748);
#748 = AXIS2_PLACEMENT_3D('',#749,#750,#751);
#749 = CARTESIAN_POINT('',(0.,12.5,11.1));
#750 = DIRECTION('',(0.,1.,0.));
#751 = DIRECTION('',(0.,0.,1.));
#752 = ADVANCED_FACE('',(#753),#771,.T.);
#753 = FACE_BOUND('',#754,.T.);
#754 = EDGE_LOOP('',(#755,#763,#764,#765));
#755 = ORIENTED_EDGE('',*,*,#756,.F.);
#756 = EDGE_CURVE('',#727,#757,#759,.T.);
#757 = VERTEX_POINT('',#758);
#758 = CARTESIAN_POINT('',(36.1,11.5,2.1));
#759 = LINE('',#760,#761);
#760 = CARTESIAN_POINT('',(37.933333333333,9.666666666667,3.933333333333
    ));
#761 = VECTOR('',#762,1.);
#762 = DIRECTION('',(0.57735026919,-0.57735026919,0.57735026919));
#763 = ORIENTED_EDGE('',*,*,#742,.T.);
#764 = ORIENTED_EDGE('',*,*,#270,.T.);
#765 = ORIENTED_EDGE('',*,*,#766,.F.);
#766 = EDGE_CURVE('',#757,#263,#767,.T.);
#767 = LINE('',#768,#769);
#768 = CARTESIAN_POINT('',(36.1,11.5,1.1));
#769 = VECTOR('',#770,1.);
#770 = DIRECTION('',(0.,2.2E-16,1.));
#771 = PLANE('',#772);
#772 = AXIS2_PLACEMENT_3D('',#773,#774,#775);
#773 = CARTESIAN_POINT('',(35.6,12.,1.1));
#774 = DIRECTION('',(0.707106781187,0.707106781187,0.));
#775 = DIRECTION('',(-1.1E-16,1.1E-16,1.));
#776 = ADVANCED_FACE('',(#777),#788,.T.);
#777 = FACE_BOUND('',#778,.T.);
#778 = EDGE_LOOP('',(#779,#780,#781,#787));
#779 = ORIENTED_EDGE('',*,*,#262,.F.);
#780 = ORIENTED_EDGE('',*,*,#356,.F.);
#781 = ORIENTED_EDGE('',*,*,#782,.T.);
#782 = EDGE_CURVE('',#347,#757,#783,.T.);
#783 = LINE('',#784,#785);
#784 = CARTESIAN_POINT('',(36.1,-2.5,2.1));
#785 = VECTOR('',#786,1.);
#786 = DIRECTION('',(0.,1.,-2.2E-16));
#787 = ORIENTED_EDGE('',*,*,#766,.T.);
#788 = PLANE('',#789);
#789 = AXIS2_PLACEMENT_3D('',#790,#791,#792);
#790 = CARTESIAN_POINT('',(36.1,-2.5,1.1));
#791 = DIRECTION('',(1.,0.,0.));
#792 = DIRECTION('',(0.,2.2E-16,1.));
#793 = ADVANCED_FACE('',(#794),#812,.T.);
#794 = FACE_BOUND('',#795,.T.);
#795 = EDGE_LOOP('',(#796,#797,#805,#811));
#796 = ORIENTED_EDGE('',*,*,#239,.T.);
#797 = ORIENTED_EDGE('',*,*,#798,.T.);
#798 = EDGE_CURVE('',#232,#799,#801,.T.);
#799 = VERTEX_POINT('',#800);
#800 = CARTESIAN_POINT('',(-36.1,11.5,2.1));
#801 = LINE('',#802,#803);
#802 = CARTESIAN_POINT('',(-36.1,11.5,21.1));
#803 = VECTOR('',#804,1.);
#804 = DIRECTION('',(0.,-2.2E-16,-1.));
#805 = ORIENTED_EDGE('',*,*,#806,.F.);
#806 = EDGE_CURVE('',#325,#799,#807,.T.);
#807 = LINE('',#808,#809);
#808 = CARTESIAN_POINT('',(-36.1,-2.5,2.1));
#809 = VECTOR('',#810,1.);
#810 = DIRECTION('',(0.,1.,-2.2E-16));
#811 = ORIENTED_EDGE('',*,*,#332,.F.);
#812 = PLANE('',#813);
#813 = AXIS2_PLACEMENT_3D('',#814,#815,#816);
#814 = CARTESIAN_POINT('',(-36.1,-2.5,21.1));
#815 = DIRECTION('',(-1.,0.,0.));
#816 = DIRECTION('',(-0.,-2.2E-16,-1.));
#817 = ADVANCED_FACE('',(#818),#836,.T.);
#818 = FACE_BOUND('',#819,.F.);
#819 = EDGE_LOOP('',(#820,#821,#822,#830));
#820 = ORIENTED_EDGE('',*,*,#231,.F.);
#821 = ORIENTED_EDGE('',*,*,#798,.T.);
#822 = ORIENTED_EDGE('',*,*,#823,.T.);
#823 = EDGE_CURVE('',#799,#824,#826,.T.);
#824 = VERTEX_POINT('',#825);
#825 = CARTESIAN_POINT('',(-35.1,12.5,1.1));
#826 = LINE('',#827,#828);
#827 = CARTESIAN_POINT('',(-41.26666666666,6.333333333333,7.266666666667
    ));
#828 = VECTOR('',#829,1.);
#829 = DIRECTION('',(0.57735026919,0.57735026919,-0.57735026919));
#830 = ORIENTED_EDGE('',*,*,#831,.F.);
#831 = EDGE_CURVE('',#224,#824,#832,.T.);
#832 = LINE('',#833,#834);
#833 = CARTESIAN_POINT('',(-35.1,12.5,21.1));
#834 = VECTOR('',#835,1.);
#835 = DIRECTION('',(0.,-2.2E-16,-1.));
#836 = PLANE('',#837);
#837 = AXIS2_PLACEMENT_3D('',#838,#839,#840);
#838 = CARTESIAN_POINT('',(-35.6,12.,21.1));
#839 = DIRECTION('',(-0.707106781187,0.707106781187,0.));
#840 = DIRECTION('',(1.1E-16,1.1E-16,1.));
#841 = ADVANCED_FACE('',(#842),#868,.T.);
#842 = FACE_BOUND('',#843,.T.);
#843 = EDGE_LOOP('',(#844,#852,#853,#854,#862));
#844 = ORIENTED_EDGE('',*,*,#845,.F.);
#845 = EDGE_CURVE('',#824,#846,#848,.T.);
#846 = VERTEX_POINT('',#847);
#847 = CARTESIAN_POINT('',(-31.15,12.5,1.1));
#848 = LINE('',#849,#850);
#849 = CARTESIAN_POINT('',(-36.1,12.5,1.1));
#850 = VECTOR('',#851,1.);
#851 = DIRECTION('',(1.,0.,0.));
#852 = ORIENTED_EDGE('',*,*,#831,.F.);
#853 = ORIENTED_EDGE('',*,*,#223,.T.);
#854 = ORIENTED_EDGE('',*,*,#855,.F.);
#855 = EDGE_CURVE('',#856,#216,#858,.T.);
#856 = VERTEX_POINT('',#857);
#857 = CARTESIAN_POINT('',(-22.1,12.5,1.1));
#858 = LINE('',#859,#860);
#859 = CARTESIAN_POINT('',(-22.1,12.5,1.1));
#860 = VECTOR('',#861,1.);
#861 = DIRECTION('',(0.,2.2E-16,1.));
#862 = ORIENTED_EDGE('',*,*,#863,.F.);
#863 = EDGE_CURVE('',#846,#856,#864,.T.);
#864 = LINE('',#865,#866);
#865 = CARTESIAN_POINT('',(-36.1,12.5,1.1));
#866 = VECTOR('',#867,1.);
#867 = DIRECTION('',(1.,0.,0.));
#868 = PLANE('',#869);
#869 = AXIS2_PLACEMENT_3D('',#870,#871,#872);
#870 = CARTESIAN_POINT('',(0.,12.5,11.1));
#871 = DIRECTION('',(0.,1.,0.));
#872 = DIRECTION('',(0.,0.,1.));
#873 = ADVANCED_FACE('',(#874),#892,.T.);
#874 = FACE_BOUND('',#875,.T.);
#875 = EDGE_LOOP('',(#876,#884,#885,#886));
#876 = ORIENTED_EDGE('',*,*,#877,.F.);
#877 = EDGE_CURVE('',#856,#878,#880,.T.);
#878 = VERTEX_POINT('',#879);
#879 = CARTESIAN_POINT('',(-21.1,11.5,-1.12));
#880 = LINE('',#881,#882);
#881 = CARTESIAN_POINT('',(-21.95566653195,12.355666531955,
    0.779579700941));
#882 = VECTOR('',#883,1.);
#883 = DIRECTION('',(0.379912447867,-0.379912447867,-0.843405634266));
#884 = ORIENTED_EDGE('',*,*,#855,.T.);
#885 = ORIENTED_EDGE('',*,*,#215,.T.);
#886 = ORIENTED_EDGE('',*,*,#887,.F.);
#887 = EDGE_CURVE('',#878,#208,#888,.T.);
#888 = LINE('',#889,#890);
#889 = CARTESIAN_POINT('',(-21.1,11.5,1.1));
#890 = VECTOR('',#891,1.);
#891 = DIRECTION('',(0.,2.2E-16,1.));
#892 = PLANE('',#893);
#893 = AXIS2_PLACEMENT_3D('',#894,#895,#896);
#894 = CARTESIAN_POINT('',(-21.6,12.,1.1));
#895 = DIRECTION('',(0.707106781187,0.707106781187,0.));
#896 = DIRECTION('',(-1.1E-16,1.1E-16,1.));
#897 = ADVANCED_FACE('',(#898,#923,#934,#954,#958,#978),#998,.T.);
#898 = FACE_BOUND('',#899,.F.);
#899 = EDGE_LOOP('',(#900,#908,#909,#917));
#900 = ORIENTED_EDGE('',*,*,#901,.T.);
#901 = EDGE_CURVE('',#902,#190,#904,.T.);
#902 = VERTEX_POINT('',#903);
#903 = CARTESIAN_POINT('',(21.1,2.,-21.1));
#904 = LINE('',#905,#906);
#905 = CARTESIAN_POINT('',(21.1,2.,-21.1));
#906 = VECTOR('',#907,1.);
#907 = DIRECTION('',(0.,0.,1.));
#908 = ORIENTED_EDGE('',*,*,#199,.T.);
#909 = ORIENTED_EDGE('',*,*,#910,.T.);
#910 = EDGE_CURVE('',#200,#911,#913,.T.);
#911 = VERTEX_POINT('',#912);
#912 = CARTESIAN_POINT('',(-21.1,2.,-21.1));
#913 = LINE('',#914,#915);
#914 = CARTESIAN_POINT('',(-21.1,2.,21.1));
#915 = VECTOR('',#916,1.);
#916 = DIRECTION('',(0.,0.,-1.));
#917 = ORIENTED_EDGE('',*,*,#918,.T.);
#918 = EDGE_CURVE('',#911,#902,#919,.T.);
#919 = LINE('',#920,#921);
#920 = CARTESIAN_POINT('',(-21.1,2.,-21.1));
#921 = VECTOR('',#922,1.);
#922 = DIRECTION('',(1.,0.,0.));
#923 = FACE_BOUND('',#924,.F.);
#924 = EDGE_LOOP('',(#925));
#925 = ORIENTED_EDGE('',*,*,#926,.T.);
#926 = EDGE_CURVE('',#927,#927,#929,.T.);
#927 = VERTEX_POINT('',#928);
#928 = CARTESIAN_POINT('',(-12.5,2.,0.));
#929 = CIRCLE('',#930,12.5);
#930 = AXIS2_PLACEMENT_3D('',#931,#932,#933);
#931 = CARTESIAN_POINT('',(0.,2.,0.));
#932 = DIRECTION('',(0.,1.,-0.));
#933 = DIRECTION('',(-1.,0.,0.));
#934 = FACE_BOUND('',#935,.F.);
#935 = EDGE_LOOP('',(#936,#947));
#936 = ORIENTED_EDGE('',*,*,#937,.T.);
#937 = EDGE_CURVE('',#938,#940,#942,.T.);
#938 = VERTEX_POINT('',#939);
#939 = CARTESIAN_POINT('',(-17.1,2.,-15.5));
#940 = VERTEX_POINT('',#941);
#941 = CARTESIAN_POINT('',(-13.9,2.,-15.5));
#942 = CIRCLE('',#943,1.6);
#943 = AXIS2_PLACEMENT_3D('',#944,#945,#946);
#944 = CARTESIAN_POINT('',(-15.5,2.,-15.5));
#945 = DIRECTION('',(0.,1.,-0.));
#946 = DIRECTION('',(-1.,0.,0.));
#947 = ORIENTED_EDGE('',*,*,#948,.T.);
#948 = EDGE_CURVE('',#940,#938,#949,.T.);
#949 = CIRCLE('',#950,1.6);
#950 = AXIS2_PLACEMENT_3D('',#951,#952,#953);
#951 = CARTESIAN_POINT('',(-15.5,2.,-15.5));
#952 = DIRECTION('',(0.,1.,-0.));
#953 = DIRECTION('',(-1.,0.,0.));
#954 = FACE_BOUND('',#955,.F.);
#955 = EDGE_LOOP('',(#956,#957));
#956 = ORIENTED_EDGE('',*,*,#668,.T.);
#957 = ORIENTED_EDGE('',*,*,#677,.T.);
#958 = FACE_BOUND('',#959,.F.);
#959 = EDGE_LOOP('',(#960,#971));
#960 = ORIENTED_EDGE('',*,*,#961,.T.);
#961 = EDGE_CURVE('',#962,#964,#966,.T.);
#962 = VERTEX_POINT('',#963);
#963 = CARTESIAN_POINT('',(13.9,2.,-15.5));
#964 = VERTEX_POINT('',#965);
#965 = CARTESIAN_POINT('',(17.1,2.,-15.5));
#966 = CIRCLE('',#967,1.6);
#967 = AXIS2_PLACEMENT_3D('',#968,#969,#970);
#968 = CARTESIAN_POINT('',(15.5,2.,-15.5));
#969 = DIRECTION('',(0.,1.,-0.));
#970 = DIRECTION('',(-1.,0.,0.));
#971 = ORIENTED_EDGE('',*,*,#972,.T.);
#972 = EDGE_CURVE('',#964,#962,#973,.T.);
#973 = CIRCLE('',#974,1.6);
#974 = AXIS2_PLACEMENT_3D('',#975,#976,#977);
#975 = CARTESIAN_POINT('',(15.5,2.,-15.5));
#976 = DIRECTION('',(0.,1.,-0.));
#977 = DIRECTION('',(-1.,0.,0.));
#978 = FACE_BOUND('',#979,.F.);
#979 = EDGE_LOOP('',(#980,#991));
#980 = ORIENTED_EDGE('',*,*,#981,.T.);
#981 = EDGE_CURVE('',#982,#984,#986,.T.);
#982 = VERTEX_POINT('',#983);
#983 = CARTESIAN_POINT('',(13.9,2.,15.5));
#984 = VERTEX_POINT('',#985);
#985 = CARTESIAN_POINT('',(17.1,2.,15.5));
#986 = CIRCLE('',#987,1.6);
#987 = AXIS2_PLACEMENT_3D('',#988,#989,#990);
#988 = CARTESIAN_POINT('',(15.5,2.,15.5));
#989 = DIRECTION('',(0.,1.,-0.));
#990 = DIRECTION('',(-1.,0.,0.));
#991 = ORIENTED_EDGE('',*,*,#992,.T.);
#992 = EDGE_CURVE('',#984,#982,#993,.T.);
#993 = CIRCLE('',#994,1.6);
#994 = AXIS2_PLACEMENT_3D('',#995,#996,#997);
#995 = CARTESIAN_POINT('',(15.5,2.,15.5));
#996 = DIRECTION('',(0.,1.,-0.));
#997 = DIRECTION('',(-1.,0.,0.));
#998 = PLANE('',#999);
#999 = AXIS2_PLACEMENT_3D('',#1000,#1001,#1002);
#1000 = CARTESIAN_POINT('',(-2.9E-16,2.,1.6E-15));
#1001 = DIRECTION('',(0.,1.,-2.3E-16));
#1002 = DIRECTION('',(0.,2.3E-16,1.));
#1003 = ADVANCED_FACE('',(#1004),#1023,.F.);
#1004 = FACE_BOUND('',#1005,.F.);
#1005 = EDGE_LOOP('',(#1006,#1015,#1021,#1022));
#1006 = ORIENTED_EDGE('',*,*,#1007,.F.);
#1007 = EDGE_CURVE('',#1008,#1008,#1010,.T.);
#1008 = VERTEX_POINT('',#1009);
#1009 = CARTESIAN_POINT('',(30.,5.,4.1));
#1010 = CIRCLE('',#1011,1.5);
#1011 = AXIS2_PLACEMENT_3D('',#1012,#1013,#1014);
#1012 = CARTESIAN_POINT('',(28.5,5.,4.1));
#1013 = DIRECTION('',(0.,0.,-1.));
#1014 = DIRECTION('',(1.,0.,0.));
#1015 = ORIENTED_EDGE('',*,*,#1016,.T.);
#1016 = EDGE_CURVE('',#1008,#295,#1017,.T.);
#1017 = LINE('',#1018,#1019);
#1018 = CARTESIAN_POINT('',(30.,5.,1.1));
#1019 = VECTOR('',#1020,1.);
#1020 = DIRECTION('',(0.,0.,1.));
#1021 = ORIENTED_EDGE('',*,*,#294,.T.);
#1022 = ORIENTED_EDGE('',*,*,#1016,.F.);
#1023 = CYLINDRICAL_SURFACE('',#1024,1.5);
#1024 = AXIS2_PLACEMENT_3D('',#1025,#1026,#1027);
#1025 = CARTESIAN_POINT('',(28.5,5.,1.1));
#1026 = DIRECTION('',(0.,0.,-1.));
#1027 = DIRECTION('',(1.,0.,0.));
#1028 = ADVANCED_FACE('',(#1029),#1048,.F.);
#1029 = FACE_BOUND('',#1030,.F.);
#1030 = EDGE_LOOP('',(#1031,#1040,#1046,#1047));
#1031 = ORIENTED_EDGE('',*,*,#1032,.F.);
#1032 = EDGE_CURVE('',#1033,#1033,#1035,.T.);
#1033 = VERTEX_POINT('',#1034);
#1034 = CARTESIAN_POINT('',(-27.,5.,4.1));
#1035 = CIRCLE('',#1036,1.5);
#1036 = AXIS2_PLACEMENT_3D('',#1037,#1038,#1039);
#1037 = CARTESIAN_POINT('',(-28.5,5.,4.1));
#1038 = DIRECTION('',(0.,0.,-1.));
#1039 = DIRECTION('',(1.,0.,0.));
#1040 = ORIENTED_EDGE('',*,*,#1041,.T.);
#1041 = EDGE_CURVE('',#1033,#306,#1042,.T.);
#1042 = LINE('',#1043,#1044);
#1043 = CARTESIAN_POINT('',(-27.,5.,1.1));
#1044 = VECTOR('',#1045,1.);
#1045 = DIRECTION('',(0.,0.,1.));
#1046 = ORIENTED_EDGE('',*,*,#305,.T.);
#1047 = ORIENTED_EDGE('',*,*,#1041,.F.);
#1048 = CYLINDRICAL_SURFACE('',#1049,1.5);
#1049 = AXIS2_PLACEMENT_3D('',#1050,#1051,#1052);
#1050 = CARTESIAN_POINT('',(-28.5,5.,1.1));
#1051 = DIRECTION('',(0.,0.,-1.));
#1052 = DIRECTION('',(1.,0.,0.));
#1053 = ADVANCED_FACE('',(#1054),#1064,.T.);
#1054 = FACE_BOUND('',#1055,.T.);
#1055 = EDGE_LOOP('',(#1056,#1062,#1063));
#1056 = ORIENTED_EDGE('',*,*,#1057,.F.);
#1057 = EDGE_CURVE('',#371,#325,#1058,.T.);
#1058 = LINE('',#1059,#1060);
#1059 = CARTESIAN_POINT('',(-35.35,-1.5,1.35));
#1060 = VECTOR('',#1061,1.);
#1061 = DIRECTION('',(-0.707106781187,-7.7E-16,0.707106781187));
#1062 = ORIENTED_EDGE('',*,*,#370,.T.);
#1063 = ORIENTED_EDGE('',*,*,#324,.F.);
#1064 = PLANE('',#1065);
#1065 = AXIS2_PLACEMENT_3D('',#1066,#1067,#1068);
#1066 = CARTESIAN_POINT('',(-35.1,-1.5,1.1));
#1067 = DIRECTION('',(-0.57735026919,-0.57735026919,-0.57735026919));
#1068 = DIRECTION('',(0.707106781187,-0.707106781187,6.938893903907E-16)
  );
#1069 = ADVANCED_FACE('',(#1070),#1080,.F.);
#1070 = FACE_BOUND('',#1071,.F.);
#1071 = EDGE_LOOP('',(#1072,#1073,#1074));
#1072 = ORIENTED_EDGE('',*,*,#410,.F.);
#1073 = ORIENTED_EDGE('',*,*,#346,.T.);
#1074 = ORIENTED_EDGE('',*,*,#1075,.F.);
#1075 = EDGE_CURVE('',#411,#347,#1076,.T.);
#1076 = LINE('',#1077,#1078);
#1077 = CARTESIAN_POINT('',(35.6,-1.5,1.6));
#1078 = VECTOR('',#1079,1.);
#1079 = DIRECTION('',(0.707106781187,-1.06E-15,0.707106781187));
#1080 = PLANE('',#1081);
#1081 = AXIS2_PLACEMENT_3D('',#1082,#1083,#1084);
#1082 = CARTESIAN_POINT('',(35.1,-2.5,2.1));
#1083 = DIRECTION('',(-0.57735026919,0.57735026919,0.57735026919));
#1084 = DIRECTION('',(0.707106781187,-4.996003610813E-16,0.707106781187)
  );
#1085 = ADVANCED_FACE('',(#1086),#1118,.T.);
#1086 = FACE_BOUND('',#1087,.T.);
#1087 = EDGE_LOOP('',(#1088,#1096,#1097,#1103,#1104,#1112));
#1088 = ORIENTED_EDGE('',*,*,#1089,.F.);
#1089 = EDGE_CURVE('',#380,#1090,#1092,.T.);
#1090 = VERTEX_POINT('',#1091);
#1091 = CARTESIAN_POINT('',(-31.15,2.35,1.1));
#1092 = LINE('',#1093,#1094);
#1093 = CARTESIAN_POINT('',(-31.15,-2.5,1.1));
#1094 = VECTOR('',#1095,1.);
#1095 = DIRECTION('',(0.,1.,-2.2E-16));
#1096 = ORIENTED_EDGE('',*,*,#387,.F.);
#1097 = ORIENTED_EDGE('',*,*,#1098,.T.);
#1098 = EDGE_CURVE('',#371,#824,#1099,.T.);
#1099 = LINE('',#1100,#1101);
#1100 = CARTESIAN_POINT('',(-35.1,-2.5,1.1));
#1101 = VECTOR('',#1102,1.);
#1102 = DIRECTION('',(0.,1.,-2.2E-16));
#1103 = ORIENTED_EDGE('',*,*,#845,.T.);
#1104 = ORIENTED_EDGE('',*,*,#1105,.F.);
#1105 = EDGE_CURVE('',#1106,#846,#1108,.T.);
#1106 = VERTEX_POINT('',#1107);
#1107 = CARTESIAN_POINT('',(-31.15,7.65,1.1));
#1108 = LINE('',#1109,#1110);
#1109 = CARTESIAN_POINT('',(-31.15,7.65,1.1));
#1110 = VECTOR('',#1111,1.);
#1111 = DIRECTION('',(0.,1.,-2.2E-16));
#1112 = ORIENTED_EDGE('',*,*,#1113,.F.);
#1113 = EDGE_CURVE('',#1090,#1106,#1114,.T.);
#1114 = LINE('',#1115,#1116);
#1115 = CARTESIAN_POINT('',(-31.15,2.35,1.1));
#1116 = VECTOR('',#1117,1.);
#1117 = DIRECTION('',(0.,1.,0.));
#1118 = PLANE('',#1119);
#1119 = AXIS2_PLACEMENT_3D('',#1120,#1121,#1122);
#1120 = CARTESIAN_POINT('',(-36.1,-2.5,1.1));
#1121 = DIRECTION('',(0.,-2.2E-16,-1.));
#1122 = DIRECTION('',(1.,0.,0.));
#1123 = ADVANCED_FACE('',(#1124),#1156,.T.);
#1124 = FACE_BOUND('',#1125,.T.);
#1125 = EDGE_LOOP('',(#1126,#1134,#1142,#1148,#1149,#1155));
#1126 = ORIENTED_EDGE('',*,*,#1127,.T.);
#1127 = EDGE_CURVE('',#402,#1128,#1130,.T.);
#1128 = VERTEX_POINT('',#1129);
#1129 = CARTESIAN_POINT('',(31.15,2.35,1.1));
#1130 = LINE('',#1131,#1132);
#1131 = CARTESIAN_POINT('',(31.15,-2.5,1.1));
#1132 = VECTOR('',#1133,1.);
#1133 = DIRECTION('',(2.2E-16,1.,-2.2E-16));
#1134 = ORIENTED_EDGE('',*,*,#1135,.F.);
#1135 = EDGE_CURVE('',#1136,#1128,#1138,.T.);
#1136 = VERTEX_POINT('',#1137);
#1137 = CARTESIAN_POINT('',(31.15,7.65,1.1));
#1138 = LINE('',#1139,#1140);
#1139 = CARTESIAN_POINT('',(31.15,7.65,1.1));
#1140 = VECTOR('',#1141,1.);
#1141 = DIRECTION('',(0.,-1.,0.));
#1142 = ORIENTED_EDGE('',*,*,#1143,.T.);
#1143 = EDGE_CURVE('',#1136,#725,#1144,.T.);
#1144 = LINE('',#1145,#1146);
#1145 = CARTESIAN_POINT('',(31.15,7.65,1.1));
#1146 = VECTOR('',#1147,1.);
#1147 = DIRECTION('',(2.2E-16,1.,-2.2E-16));
#1148 = ORIENTED_EDGE('',*,*,#724,.T.);
#1149 = ORIENTED_EDGE('',*,*,#1150,.F.);
#1150 = EDGE_CURVE('',#411,#727,#1151,.T.);
#1151 = LINE('',#1152,#1153);
#1152 = CARTESIAN_POINT('',(35.1,-2.5,1.1));
#1153 = VECTOR('',#1154,1.);
#1154 = DIRECTION('',(0.,1.,-2.2E-16));
#1155 = ORIENTED_EDGE('',*,*,#418,.F.);
#1156 = PLANE('',#1157);
#1157 = AXIS2_PLACEMENT_3D('',#1158,#1159,#1160);
#1158 = CARTESIAN_POINT('',(21.1,-2.5,1.1));
#1159 = DIRECTION('',(0.,-2.2E-16,-1.));
#1160 = DIRECTION('',(1.,0.,0.));
#1161 = ADVANCED_FACE('',(#1162),#1180,.F.);
#1162 = FACE_BOUND('',#1163,.F.);
#1163 = EDGE_LOOP('',(#1164,#1172,#1178,#1179));
#1164 = ORIENTED_EDGE('',*,*,#1165,.T.);
#1165 = EDGE_CURVE('',#433,#1166,#1168,.T.);
#1166 = VERTEX_POINT('',#1167);
#1167 = CARTESIAN_POINT('',(-25.85,2.35,-4.2));
#1168 = LINE('',#1169,#1170);
#1169 = CARTESIAN_POINT('',(-25.85,-2.5,-4.2));
#1170 = VECTOR('',#1171,1.);
#1171 = DIRECTION('',(0.,1.,-2.2E-16));
#1172 = ORIENTED_EDGE('',*,*,#1173,.T.);
#1173 = EDGE_CURVE('',#1166,#1090,#1174,.T.);
#1174 = LINE('',#1175,#1176);
#1175 = CARTESIAN_POINT('',(-28.5,2.35,-1.55));
#1176 = VECTOR('',#1177,1.);
#1177 = DIRECTION('',(-0.707106781187,0.,0.707106781187));
#1178 = ORIENTED_EDGE('',*,*,#1089,.F.);
#1179 = ORIENTED_EDGE('',*,*,#442,.F.);
#1180 = PLANE('',#1181);
#1181 = AXIS2_PLACEMENT_3D('',#1182,#1183,#1184);
#1182 = CARTESIAN_POINT('',(-28.5,-2.5,-1.55));
#1183 = DIRECTION('',(0.707106781187,2.1E-16,0.707106781187));
#1184 = DIRECTION('',(-3.849242404917E-17,1.,-2.584924240492E-16));
#1185 = ADVANCED_FACE('',(#1186),#1204,.F.);
#1186 = FACE_BOUND('',#1187,.F.);
#1187 = EDGE_LOOP('',(#1188,#1189,#1197,#1203));
#1188 = ORIENTED_EDGE('',*,*,#1127,.T.);
#1189 = ORIENTED_EDGE('',*,*,#1190,.T.);
#1190 = EDGE_CURVE('',#1128,#1191,#1193,.T.);
#1191 = VERTEX_POINT('',#1192);
#1192 = CARTESIAN_POINT('',(25.85,2.35,-4.2));
#1193 = LINE('',#1194,#1195);
#1194 = CARTESIAN_POINT('',(29.825,2.35,-0.225));
#1195 = VECTOR('',#1196,1.);
#1196 = DIRECTION('',(-0.707106781187,-0.,-0.707106781187));
#1197 = ORIENTED_EDGE('',*,*,#1198,.F.);
#1198 = EDGE_CURVE('',#459,#1191,#1199,.T.);
#1199 = LINE('',#1200,#1201);
#1200 = CARTESIAN_POINT('',(25.85,-2.5,-4.2));
#1201 = VECTOR('',#1202,1.);
#1202 = DIRECTION('',(2.2E-16,1.,-2.2E-16));
#1203 = ORIENTED_EDGE('',*,*,#466,.F.);
#1204 = PLANE('',#1205);
#1205 = AXIS2_PLACEMENT_3D('',#1206,#1207,#1208);
#1206 = CARTESIAN_POINT('',(28.5,-2.5,-1.55));
#1207 = DIRECTION('',(-0.707106781187,1.4E-16,0.707106781187));
#1208 = DIRECTION('',(9.899494936612E-17,1.,-9.899494936612E-17));
#1209 = ADVANCED_FACE('',(#1210),#1260,.T.);
#1210 = FACE_BOUND('',#1211,.T.);
#1211 = EDGE_LOOP('',(#1212,#1222,#1228,#1229,#1230,#1238,#1246,#1254));
#1212 = ORIENTED_EDGE('',*,*,#1213,.T.);
#1213 = EDGE_CURVE('',#1214,#1216,#1218,.T.);
#1214 = VERTEX_POINT('',#1215);
#1215 = CARTESIAN_POINT('',(-25.85,10.112612612613,-4.2));
#1216 = VERTEX_POINT('',#1217);
#1217 = CARTESIAN_POINT('',(-25.85,2.95045045045,-20.1));
#1218 = LINE('',#1219,#1220);
#1219 = CARTESIAN_POINT('',(-25.85,12.5,1.1));
#1220 = VECTOR('',#1221,1.);
#1221 = DIRECTION('',(0.,-0.410706192158,-0.911767746591));
#1222 = ORIENTED_EDGE('',*,*,#1223,.T.);
#1223 = EDGE_CURVE('',#1216,#483,#1224,.T.);
#1224 = LINE('',#1225,#1226);
#1225 = CARTESIAN_POINT('',(-25.85,2.5,-20.1));
#1226 = VECTOR('',#1227,1.);
#1227 = DIRECTION('',(0.,-1.,0.));
#1228 = ORIENTED_EDGE('',*,*,#490,.F.);
#1229 = ORIENTED_EDGE('',*,*,#1165,.T.);
#1230 = ORIENTED_EDGE('',*,*,#1231,.F.);
#1231 = EDGE_CURVE('',#1232,#1166,#1234,.T.);
#1232 = VERTEX_POINT('',#1233);
#1233 = CARTESIAN_POINT('',(-25.85,2.35,4.1));
#1234 = LINE('',#1235,#1236);
#1235 = CARTESIAN_POINT('',(-25.85,2.35,-3.054378162251));
#1236 = VECTOR('',#1237,1.);
#1237 = DIRECTION('',(0.,0.,-1.));
#1238 = ORIENTED_EDGE('',*,*,#1239,.F.);
#1239 = EDGE_CURVE('',#1240,#1232,#1242,.T.);
#1240 = VERTEX_POINT('',#1241);
#1241 = CARTESIAN_POINT('',(-25.85,7.65,4.1));
#1242 = LINE('',#1243,#1244);
#1243 = CARTESIAN_POINT('',(-25.85,7.65,4.1));
#1244 = VECTOR('',#1245,1.);
#1245 = DIRECTION('',(0.,-1.,0.));
#1246 = ORIENTED_EDGE('',*,*,#1247,.F.);
#1247 = EDGE_CURVE('',#1248,#1240,#1250,.T.);
#1248 = VERTEX_POINT('',#1249);
#1249 = CARTESIAN_POINT('',(-25.85,7.65,-4.2));
#1250 = LINE('',#1251,#1252);
#1251 = CARTESIAN_POINT('',(-25.85,7.65,1.1));
#1252 = VECTOR('',#1253,1.);
#1253 = DIRECTION('',(0.,0.,1.));
#1254 = ORIENTED_EDGE('',*,*,#1255,.T.);
#1255 = EDGE_CURVE('',#1248,#1214,#1256,.T.);
#1256 = LINE('',#1257,#1258);
#1257 = CARTESIAN_POINT('',(-25.85,7.65,-4.2));
#1258 = VECTOR('',#1259,1.);
#1259 = DIRECTION('',(0.,1.,-2.2E-16));
#1260 = PLANE('',#1261);
#1261 = AXIS2_PLACEMENT_3D('',#1262,#1263,#1264);
#1262 = CARTESIAN_POINT('',(-25.85,3.199417151825,-7.208756324502));
#1263 = DIRECTION('',(-1.,-0.,-0.));
#1264 = DIRECTION('',(0.,0.,-1.));
#1265 = ADVANCED_FACE('',(#1266),#1276,.F.);
#1266 = FACE_BOUND('',#1267,.F.);
#1267 = EDGE_LOOP('',(#1268,#1269,#1275));
#1268 = ORIENTED_EDGE('',*,*,#528,.F.);
#1269 = ORIENTED_EDGE('',*,*,#1270,.T.);
#1270 = EDGE_CURVE('',#529,#483,#1271,.T.);
#1271 = LINE('',#1272,#1273);
#1272 = CARTESIAN_POINT('',(-25.1,-1.5,-20.85));
#1273 = VECTOR('',#1274,1.);
#1274 = DIRECTION('',(-0.707106781187,1.15E-15,0.707106781187));
#1275 = ORIENTED_EDGE('',*,*,#482,.F.);
#1276 = PLANE('',#1277);
#1277 = AXIS2_PLACEMENT_3D('',#1278,#1279,#1280);
#1278 = CARTESIAN_POINT('',(-24.85,-1.5,-21.1));
#1279 = DIRECTION('',(0.57735026919,0.57735026919,0.57735026919));
#1280 = DIRECTION('',(-0.707106781187,0.707106781187,0.));
#1281 = ADVANCED_FACE('',(#1282),#1332,.T.);
#1282 = FACE_BOUND('',#1283,.T.);
#1283 = EDGE_LOOP('',(#1284,#1285,#1286,#1294,#1302,#1310,#1318,#1326));
#1284 = ORIENTED_EDGE('',*,*,#1198,.F.);
#1285 = ORIENTED_EDGE('',*,*,#505,.T.);
#1286 = ORIENTED_EDGE('',*,*,#1287,.F.);
#1287 = EDGE_CURVE('',#1288,#506,#1290,.T.);
#1288 = VERTEX_POINT('',#1289);
#1289 = CARTESIAN_POINT('',(25.85,2.95045045045,-20.1));
#1290 = LINE('',#1291,#1292);
#1291 = CARTESIAN_POINT('',(25.85,2.5,-20.1));
#1292 = VECTOR('',#1293,1.);
#1293 = DIRECTION('',(-2.2E-16,-1.,-0.));
#1294 = ORIENTED_EDGE('',*,*,#1295,.F.);
#1295 = EDGE_CURVE('',#1296,#1288,#1298,.T.);
#1296 = VERTEX_POINT('',#1297);
#1297 = CARTESIAN_POINT('',(25.85,10.112612612613,-4.2));
#1298 = LINE('',#1299,#1300);
#1299 = CARTESIAN_POINT('',(25.85,12.5,1.1));
#1300 = VECTOR('',#1301,1.);
#1301 = DIRECTION('',(1.1E-16,-0.410706192158,-0.911767746591));
#1302 = ORIENTED_EDGE('',*,*,#1303,.F.);
#1303 = EDGE_CURVE('',#1304,#1296,#1306,.T.);
#1304 = VERTEX_POINT('',#1305);
#1305 = CARTESIAN_POINT('',(25.85,7.65,-4.2));
#1306 = LINE('',#1307,#1308);
#1307 = CARTESIAN_POINT('',(25.85,7.65,-4.2));
#1308 = VECTOR('',#1309,1.);
#1309 = DIRECTION('',(2.2E-16,1.,-2.2E-16));
#1310 = ORIENTED_EDGE('',*,*,#1311,.F.);
#1311 = EDGE_CURVE('',#1312,#1304,#1314,.T.);
#1312 = VERTEX_POINT('',#1313);
#1313 = CARTESIAN_POINT('',(25.85,7.65,4.1));
#1314 = LINE('',#1315,#1316);
#1315 = CARTESIAN_POINT('',(25.85,7.65,-3.054378162251));
#1316 = VECTOR('',#1317,1.);
#1317 = DIRECTION('',(-0.,-0.,-1.));
#1318 = ORIENTED_EDGE('',*,*,#1319,.F.);
#1319 = EDGE_CURVE('',#1320,#1312,#1322,.T.);
#1320 = VERTEX_POINT('',#1321);
#1321 = CARTESIAN_POINT('',(25.85,2.35,4.1));
#1322 = LINE('',#1323,#1324);
#1323 = CARTESIAN_POINT('',(25.85,2.35,4.1));
#1324 = VECTOR('',#1325,1.);
#1325 = DIRECTION('',(0.,1.,0.));
#1326 = ORIENTED_EDGE('',*,*,#1327,.F.);
#1327 = EDGE_CURVE('',#1191,#1320,#1328,.T.);
#1328 = LINE('',#1329,#1330);
#1329 = CARTESIAN_POINT('',(25.85,2.35,1.1));
#1330 = VECTOR('',#1331,1.);
#1331 = DIRECTION('',(0.,0.,1.));
#1332 = PLANE('',#1333);
#1333 = AXIS2_PLACEMENT_3D('',#1334,#1335,#1336);
#1334 = CARTESIAN_POINT('',(25.85,3.199417151825,-7.208756324502));
#1335 = DIRECTION('',(1.,0.,0.));
#1336 = DIRECTION('',(0.,0.,1.));
#1337 = ADVANCED_FACE('',(#1338),#1348,.F.);
#1338 = FACE_BOUND('',#1339,.F.);
#1339 = EDGE_LOOP('',(#1340,#1341,#1347));
#1340 = ORIENTED_EDGE('',*,*,#513,.F.);
#1341 = ORIENTED_EDGE('',*,*,#1342,.T.);
#1342 = EDGE_CURVE('',#506,#537,#1343,.T.);
#1343 = LINE('',#1344,#1345);
#1344 = CARTESIAN_POINT('',(25.6,-1.5,-20.35));
#1345 = VECTOR('',#1346,1.);
#1346 = DIRECTION('',(-0.707106781187,-5.38E-15,-0.707106781187));
#1347 = ORIENTED_EDGE('',*,*,#544,.F.);
#1348 = PLANE('',#1349);
#1349 = AXIS2_PLACEMENT_3D('',#1350,#1351,#1352);
#1350 = CARTESIAN_POINT('',(25.85,-1.5,-20.1));
#1351 = DIRECTION('',(-0.57735026919,0.57735026919,0.57735026919));
#1352 = DIRECTION('',(-2.498001805407E-15,0.707106781187,-0.707106781187
    ));
#1353 = ADVANCED_FACE('',(#1354),#1402,.T.);
#1354 = FACE_BOUND('',#1355,.T.);
#1355 = EDGE_LOOP('',(#1356,#1366,#1372,#1373,#1381,#1389,#1395,#1396));
#1356 = ORIENTED_EDGE('',*,*,#1357,.F.);
#1357 = EDGE_CURVE('',#1358,#1360,#1362,.T.);
#1358 = VERTEX_POINT('',#1359);
#1359 = CARTESIAN_POINT('',(-21.1,2.5,-21.1));
#1360 = VERTEX_POINT('',#1361);
#1361 = CARTESIAN_POINT('',(-24.85,2.5,-21.1));
#1362 = LINE('',#1363,#1364);
#1363 = CARTESIAN_POINT('',(-21.1,2.5,-21.1));
#1364 = VECTOR('',#1365,1.);
#1365 = DIRECTION('',(-1.,0.,0.));
#1366 = ORIENTED_EDGE('',*,*,#1367,.T.);
#1367 = EDGE_CURVE('',#1358,#911,#1368,.T.);
#1368 = LINE('',#1369,#1370);
#1369 = CARTESIAN_POINT('',(-21.1,2.5,-21.1));
#1370 = VECTOR('',#1371,1.);
#1371 = DIRECTION('',(0.,-1.,2.2E-16));
#1372 = ORIENTED_EDGE('',*,*,#918,.T.);
#1373 = ORIENTED_EDGE('',*,*,#1374,.F.);
#1374 = EDGE_CURVE('',#1375,#902,#1377,.T.);
#1375 = VERTEX_POINT('',#1376);
#1376 = CARTESIAN_POINT('',(21.1,2.5,-21.1));
#1377 = LINE('',#1378,#1379);
#1378 = CARTESIAN_POINT('',(21.1,2.5,-21.1));
#1379 = VECTOR('',#1380,1.);
#1380 = DIRECTION('',(0.,-1.,2.2E-16));
#1381 = ORIENTED_EDGE('',*,*,#1382,.T.);
#1382 = EDGE_CURVE('',#1375,#1383,#1385,.T.);
#1383 = VERTEX_POINT('',#1384);
#1384 = CARTESIAN_POINT('',(24.85,2.5,-21.1));
#1385 = LINE('',#1386,#1387);
#1386 = CARTESIAN_POINT('',(21.1,2.5,-21.1));
#1387 = VECTOR('',#1388,1.);
#1388 = DIRECTION('',(1.,-2.2E-16,2.2E-16));
#1389 = ORIENTED_EDGE('',*,*,#1390,.T.);
#1390 = EDGE_CURVE('',#1383,#537,#1391,.T.);
#1391 = LINE('',#1392,#1393);
#1392 = CARTESIAN_POINT('',(24.85,2.5,-21.1));
#1393 = VECTOR('',#1394,1.);
#1394 = DIRECTION('',(-2.2E-16,-1.,-0.));
#1395 = ORIENTED_EDGE('',*,*,#536,.F.);
#1396 = ORIENTED_EDGE('',*,*,#1397,.F.);
#1397 = EDGE_CURVE('',#1360,#529,#1398,.T.);
#1398 = LINE('',#1399,#1400);
#1399 = CARTESIAN_POINT('',(-24.85,2.5,-21.1));
#1400 = VECTOR('',#1401,1.);
#1401 = DIRECTION('',(0.,-1.,0.));
#1402 = PLANE('',#1403);
#1403 = AXIS2_PLACEMENT_3D('',#1404,#1405,#1406);
#1404 = CARTESIAN_POINT('',(5.E-16,-5.36E-15,-21.1));
#1405 = DIRECTION('',(-0.,-0.,-1.));
#1406 = DIRECTION('',(-1.,0.,0.));
#1407 = ADVANCED_FACE('',(#1408,#1419),#1422,.T.);
#1408 = FACE_BOUND('',#1409,.T.);
#1409 = EDGE_LOOP('',(#1410));
#1410 = ORIENTED_EDGE('',*,*,#1411,.T.);
#1411 = EDGE_CURVE('',#1412,#1412,#1414,.T.);
#1412 = VERTEX_POINT('',#1413);
#1413 = CARTESIAN_POINT('',(-12.5,0.,1.E-15));
#1414 = CIRCLE('',#1415,12.5);
#1415 = AXIS2_PLACEMENT_3D('',#1416,#1417,#1418);
#1416 = CARTESIAN_POINT('',(0.,0.,1.E-15));
#1417 = DIRECTION('',(0.,1.,-0.));
#1418 = DIRECTION('',(-1.,0.,0.));
#1419 = FACE_BOUND('',#1420,.T.);
#1420 = EDGE_LOOP('',(#1421));
#1421 = ORIENTED_EDGE('',*,*,#569,.T.);
#1422 = PLANE('',#1423);
#1423 = AXIS2_PLACEMENT_3D('',#1424,#1425,#1426);
#1424 = CARTESIAN_POINT('',(4.4E-16,-4.440892098501E-16,1.8E-15));
#1425 = DIRECTION('',(0.,1.,0.));
#1426 = DIRECTION('',(0.,0.,1.));
#1427 = ADVANCED_FACE('',(#1428),#1440,.F.);
#1428 = FACE_BOUND('',#1429,.F.);
#1429 = EDGE_LOOP('',(#1430,#1431,#1437,#1438,#1439));
#1430 = ORIENTED_EDGE('',*,*,#594,.F.);
#1431 = ORIENTED_EDGE('',*,*,#1432,.T.);
#1432 = EDGE_CURVE('',#585,#940,#1433,.T.);
#1433 = LINE('',#1434,#1435);
#1434 = CARTESIAN_POINT('',(-13.9,-2.5,-15.5));
#1435 = VECTOR('',#1436,1.);
#1436 = DIRECTION('',(0.,1.,-2.2E-16));
#1437 = ORIENTED_EDGE('',*,*,#937,.F.);
#1438 = ORIENTED_EDGE('',*,*,#948,.F.);
#1439 = ORIENTED_EDGE('',*,*,#1432,.F.);
#1440 = CYLINDRICAL_SURFACE('',#1441,1.6);
#1441 = AXIS2_PLACEMENT_3D('',#1442,#1443,#1444);
#1442 = CARTESIAN_POINT('',(-15.5,-2.5,-15.5));
#1443 = DIRECTION('',(0.,-1.,2.2E-16));
#1444 = DIRECTION('',(1.,0.,0.));
#1445 = ADVANCED_FACE('',(#1446),#1458,.F.);
#1446 = FACE_BOUND('',#1447,.F.);
#1447 = EDGE_LOOP('',(#1448,#1449,#1455,#1456,#1457));
#1448 = ORIENTED_EDGE('',*,*,#619,.F.);
#1449 = ORIENTED_EDGE('',*,*,#1450,.T.);
#1450 = EDGE_CURVE('',#610,#984,#1451,.T.);
#1451 = LINE('',#1452,#1453);
#1452 = CARTESIAN_POINT('',(17.1,-2.5,15.5));
#1453 = VECTOR('',#1454,1.);
#1454 = DIRECTION('',(0.,1.,-2.2E-16));
#1455 = ORIENTED_EDGE('',*,*,#981,.F.);
#1456 = ORIENTED_EDGE('',*,*,#992,.F.);
#1457 = ORIENTED_EDGE('',*,*,#1450,.F.);
#1458 = CYLINDRICAL_SURFACE('',#1459,1.6);
#1459 = AXIS2_PLACEMENT_3D('',#1460,#1461,#1462);
#1460 = CARTESIAN_POINT('',(15.5,-2.5,15.5));
#1461 = DIRECTION('',(0.,-1.,2.2E-16));
#1462 = DIRECTION('',(1.,0.,0.));
#1463 = ADVANCED_FACE('',(#1464),#1476,.F.);
#1464 = FACE_BOUND('',#1465,.F.);
#1465 = EDGE_LOOP('',(#1466,#1467,#1473,#1474,#1475));
#1466 = ORIENTED_EDGE('',*,*,#644,.F.);
#1467 = ORIENTED_EDGE('',*,*,#1468,.T.);
#1468 = EDGE_CURVE('',#635,#964,#1469,.T.);
#1469 = LINE('',#1470,#1471);
#1470 = CARTESIAN_POINT('',(17.1,-2.5,-15.5));
#1471 = VECTOR('',#1472,1.);
#1472 = DIRECTION('',(0.,1.,-2.2E-16));
#1473 = ORIENTED_EDGE('',*,*,#961,.F.);
#1474 = ORIENTED_EDGE('',*,*,#972,.F.);
#1475 = ORIENTED_EDGE('',*,*,#1468,.F.);
#1476 = CYLINDRICAL_SURFACE('',#1477,1.6);
#1477 = AXIS2_PLACEMENT_3D('',#1478,#1479,#1480);
#1478 = CARTESIAN_POINT('',(15.5,-2.5,-15.5));
#1479 = DIRECTION('',(0.,-1.,2.2E-16));
#1480 = DIRECTION('',(1.,0.,0.));
#1481 = ADVANCED_FACE('',(#1482),#1506,.F.);
#1482 = FACE_BOUND('',#1483,.T.);
#1483 = EDGE_LOOP('',(#1484,#1485,#1491,#1492,#1498,#1499,#1500));
#1484 = ORIENTED_EDGE('',*,*,#1295,.T.);
#1485 = ORIENTED_EDGE('',*,*,#1486,.T.);
#1486 = EDGE_CURVE('',#1288,#1383,#1487,.T.);
#1487 = LINE('',#1488,#1489);
#1488 = CARTESIAN_POINT('',(30.287024721833,4.94911023506,
    -15.66297527816));
#1489 = VECTOR('',#1490,1.);
#1490 = DIRECTION('',(-0.673755084642,-0.30349328137,-0.673755084642));
#1491 = ORIENTED_EDGE('',*,*,#1382,.F.);
#1492 = ORIENTED_EDGE('',*,*,#1493,.F.);
#1493 = EDGE_CURVE('',#703,#1375,#1494,.T.);
#1494 = LINE('',#1495,#1496);
#1495 = CARTESIAN_POINT('',(21.1,12.5,1.1));
#1496 = VECTOR('',#1497,1.);
#1497 = DIRECTION('',(1.1E-16,-0.410706192158,-0.911767746591));
#1498 = ORIENTED_EDGE('',*,*,#702,.F.);
#1499 = ORIENTED_EDGE('',*,*,#734,.T.);
#1500 = ORIENTED_EDGE('',*,*,#1501,.T.);
#1501 = EDGE_CURVE('',#725,#1296,#1502,.T.);
#1502 = LINE('',#1503,#1504);
#1503 = CARTESIAN_POINT('',(27.17010076634,10.70725259745,-2.87989923366
    ));
#1504 = VECTOR('',#1505,1.);
#1505 = DIRECTION('',(-0.673755084642,-0.30349328137,-0.673755084642));
#1506 = PLANE('',#1507);
#1507 = AXIS2_PLACEMENT_3D('',#1508,#1509,#1510);
#1508 = CARTESIAN_POINT('',(21.1,12.5,1.1));
#1509 = DIRECTION('',(-2.9E-16,-0.911767746591,0.410706192158));
#1510 = DIRECTION('',(-1.1E-16,0.410706192158,0.911767746591));
#1511 = ADVANCED_FACE('',(#1512),#1518,.T.);
#1512 = FACE_BOUND('',#1513,.T.);
#1513 = EDGE_LOOP('',(#1514,#1515,#1516,#1517));
#1514 = ORIENTED_EDGE('',*,*,#1150,.T.);
#1515 = ORIENTED_EDGE('',*,*,#756,.T.);
#1516 = ORIENTED_EDGE('',*,*,#782,.F.);
#1517 = ORIENTED_EDGE('',*,*,#1075,.F.);
#1518 = PLANE('',#1519);
#1519 = AXIS2_PLACEMENT_3D('',#1520,#1521,#1522);
#1520 = CARTESIAN_POINT('',(35.6,-2.5,1.6));
#1521 = DIRECTION('',(0.707106781187,-1.4E-16,-0.707106781187));
#1522 = DIRECTION('',(-1.100505063388E-17,1.,-2.089949493661E-16));
#1523 = ADVANCED_FACE('',(#1524),#1530,.T.);
#1524 = FACE_BOUND('',#1525,.T.);
#1525 = EDGE_LOOP('',(#1526,#1527,#1528,#1529));
#1526 = ORIENTED_EDGE('',*,*,#1057,.T.);
#1527 = ORIENTED_EDGE('',*,*,#806,.T.);
#1528 = ORIENTED_EDGE('',*,*,#823,.T.);
#1529 = ORIENTED_EDGE('',*,*,#1098,.F.);
#1530 = PLANE('',#1531);
#1531 = AXIS2_PLACEMENT_3D('',#1532,#1533,#1534);
#1532 = CARTESIAN_POINT('',(-35.6,-2.5,1.6));
#1533 = DIRECTION('',(-0.707106781187,-1.7E-16,-0.707106781187));
#1534 = DIRECTION('',(-1.020815280171E-17,1.,-2.302081528017E-16));
#1535 = ADVANCED_FACE('',(#1536),#1560,.F.);
#1536 = FACE_BOUND('',#1537,.F.);
#1537 = EDGE_LOOP('',(#1538,#1539,#1545,#1546,#1552,#1553,#1554));
#1538 = ORIENTED_EDGE('',*,*,#1213,.T.);
#1539 = ORIENTED_EDGE('',*,*,#1540,.F.);
#1540 = EDGE_CURVE('',#1360,#1216,#1541,.T.);
#1541 = LINE('',#1542,#1543);
#1542 = CARTESIAN_POINT('',(-30.28702472183,4.94911023506,
    -15.66297527816));
#1543 = VECTOR('',#1544,1.);
#1544 = DIRECTION('',(-0.673755084642,0.30349328137,0.673755084642));
#1545 = ORIENTED_EDGE('',*,*,#1357,.F.);
#1546 = ORIENTED_EDGE('',*,*,#1547,.F.);
#1547 = EDGE_CURVE('',#878,#1358,#1548,.T.);
#1548 = LINE('',#1549,#1550);
#1549 = CARTESIAN_POINT('',(-21.1,12.5,1.1));
#1550 = VECTOR('',#1551,1.);
#1551 = DIRECTION('',(0.,-0.410706192158,-0.911767746591));
#1552 = ORIENTED_EDGE('',*,*,#877,.F.);
#1553 = ORIENTED_EDGE('',*,*,#863,.F.);
#1554 = ORIENTED_EDGE('',*,*,#1555,.F.);
#1555 = EDGE_CURVE('',#1214,#846,#1556,.T.);
#1556 = LINE('',#1557,#1558);
#1557 = CARTESIAN_POINT('',(-27.17010076634,10.70725259745,
    -2.87989923366));
#1558 = VECTOR('',#1559,1.);
#1559 = DIRECTION('',(-0.673755084642,0.30349328137,0.673755084642));
#1560 = PLANE('',#1561);
#1561 = AXIS2_PLACEMENT_3D('',#1562,#1563,#1564);
#1562 = CARTESIAN_POINT('',(-21.1,12.5,1.1));
#1563 = DIRECTION('',(0.,-0.911767746591,0.410706192158));
#1564 = DIRECTION('',(0.,-0.410706192158,-0.911767746591));
#1565 = ADVANCED_FACE('',(#1566),#1577,.F.);
#1566 = FACE_BOUND('',#1567,.F.);
#1567 = EDGE_LOOP('',(#1568,#1569,#1575,#1576));
#1568 = ORIENTED_EDGE('',*,*,#926,.F.);
#1569 = ORIENTED_EDGE('',*,*,#1570,.T.);
#1570 = EDGE_CURVE('',#927,#1412,#1571,.T.);
#1571 = LINE('',#1572,#1573);
#1572 = CARTESIAN_POINT('',(-12.5,2.5,0.));
#1573 = VECTOR('',#1574,1.);
#1574 = DIRECTION('',(0.,-1.,2.2E-16));
#1575 = ORIENTED_EDGE('',*,*,#1411,.T.);
#1576 = ORIENTED_EDGE('',*,*,#1570,.F.);
#1577 = CYLINDRICAL_SURFACE('',#1578,12.5);
#1578 = AXIS2_PLACEMENT_3D('',#1579,#1580,#1581);
#1579 = CARTESIAN_POINT('',(0.,2.5,0.));
#1580 = DIRECTION('',(0.,1.,-2.2E-16));
#1581 = DIRECTION('',(-1.,0.,0.));
#1582 = ADVANCED_FACE('',(#1583,#1608),#1611,.F.);
#1583 = FACE_BOUND('',#1584,.T.);
#1584 = EDGE_LOOP('',(#1585,#1593,#1594,#1602));
#1585 = ORIENTED_EDGE('',*,*,#1586,.T.);
#1586 = EDGE_CURVE('',#1587,#1320,#1589,.T.);
#1587 = VERTEX_POINT('',#1588);
#1588 = CARTESIAN_POINT('',(31.15,2.35,4.1));
#1589 = LINE('',#1590,#1591);
#1590 = CARTESIAN_POINT('',(31.15,2.35,4.1));
#1591 = VECTOR('',#1592,1.);
#1592 = DIRECTION('',(-1.,0.,0.));
#1593 = ORIENTED_EDGE('',*,*,#1319,.T.);
#1594 = ORIENTED_EDGE('',*,*,#1595,.T.);
#1595 = EDGE_CURVE('',#1312,#1596,#1598,.T.);
#1596 = VERTEX_POINT('',#1597);
#1597 = CARTESIAN_POINT('',(31.15,7.65,4.1));
#1598 = LINE('',#1599,#1600);
#1599 = CARTESIAN_POINT('',(25.85,7.65,4.1));
#1600 = VECTOR('',#1601,1.);
#1601 = DIRECTION('',(1.,0.,0.));
#1602 = ORIENTED_EDGE('',*,*,#1603,.T.);
#1603 = EDGE_CURVE('',#1596,#1587,#1604,.T.);
#1604 = LINE('',#1605,#1606);
#1605 = CARTESIAN_POINT('',(31.15,7.65,4.1));
#1606 = VECTOR('',#1607,1.);
#1607 = DIRECTION('',(0.,-1.,0.));
#1608 = FACE_BOUND('',#1609,.F.);
#1609 = EDGE_LOOP('',(#1610));
#1610 = ORIENTED_EDGE('',*,*,#1007,.T.);
#1611 = PLANE('',#1612);
#1612 = AXIS2_PLACEMENT_3D('',#1613,#1614,#1615);
#1613 = CARTESIAN_POINT('',(8.6E-16,5.,4.1));
#1614 = DIRECTION('',(0.,0.,1.));
#1615 = DIRECTION('',(1.,0.,0.));
#1616 = ADVANCED_FACE('',(#1617,#1642),#1645,.F.);
#1617 = FACE_BOUND('',#1618,.T.);
#1618 = EDGE_LOOP('',(#1619,#1629,#1635,#1636));
#1619 = ORIENTED_EDGE('',*,*,#1620,.T.);
#1620 = EDGE_CURVE('',#1621,#1623,#1625,.T.);
#1621 = VERTEX_POINT('',#1622);
#1622 = CARTESIAN_POINT('',(-31.15,2.35,4.1));
#1623 = VERTEX_POINT('',#1624);
#1624 = CARTESIAN_POINT('',(-31.15,7.65,4.1));
#1625 = LINE('',#1626,#1627);
#1626 = CARTESIAN_POINT('',(-31.15,2.35,4.1));
#1627 = VECTOR('',#1628,1.);
#1628 = DIRECTION('',(0.,1.,0.));
#1629 = ORIENTED_EDGE('',*,*,#1630,.T.);
#1630 = EDGE_CURVE('',#1623,#1240,#1631,.T.);
#1631 = LINE('',#1632,#1633);
#1632 = CARTESIAN_POINT('',(-31.15,7.65,4.1));
#1633 = VECTOR('',#1634,1.);
#1634 = DIRECTION('',(1.,0.,0.));
#1635 = ORIENTED_EDGE('',*,*,#1239,.T.);
#1636 = ORIENTED_EDGE('',*,*,#1637,.T.);
#1637 = EDGE_CURVE('',#1232,#1621,#1638,.T.);
#1638 = LINE('',#1639,#1640);
#1639 = CARTESIAN_POINT('',(-25.85,2.35,4.1));
#1640 = VECTOR('',#1641,1.);
#1641 = DIRECTION('',(-1.,0.,0.));
#1642 = FACE_BOUND('',#1643,.F.);
#1643 = EDGE_LOOP('',(#1644));
#1644 = ORIENTED_EDGE('',*,*,#1032,.T.);
#1645 = PLANE('',#1646);
#1646 = AXIS2_PLACEMENT_3D('',#1647,#1648,#1649);
#1647 = CARTESIAN_POINT('',(8.6E-16,5.,4.1));
#1648 = DIRECTION('',(0.,0.,1.));
#1649 = DIRECTION('',(1.,0.,0.));
#1650 = ADVANCED_FACE('',(#1651),#1667,.F.);
#1651 = FACE_BOUND('',#1652,.F.);
#1652 = EDGE_LOOP('',(#1653,#1659,#1660,#1666));
#1653 = ORIENTED_EDGE('',*,*,#1654,.T.);
#1654 = EDGE_CURVE('',#1090,#1621,#1655,.T.);
#1655 = LINE('',#1656,#1657);
#1656 = CARTESIAN_POINT('',(-31.15,2.35,1.1));
#1657 = VECTOR('',#1658,1.);
#1658 = DIRECTION('',(0.,0.,1.));
#1659 = ORIENTED_EDGE('',*,*,#1620,.T.);
#1660 = ORIENTED_EDGE('',*,*,#1661,.F.);
#1661 = EDGE_CURVE('',#1106,#1623,#1662,.T.);
#1662 = LINE('',#1663,#1664);
#1663 = CARTESIAN_POINT('',(-31.15,7.65,1.1));
#1664 = VECTOR('',#1665,1.);
#1665 = DIRECTION('',(0.,0.,1.));
#1666 = ORIENTED_EDGE('',*,*,#1113,.F.);
#1667 = PLANE('',#1668);
#1668 = AXIS2_PLACEMENT_3D('',#1669,#1670,#1671);
#1669 = CARTESIAN_POINT('',(-31.15,2.35,1.1));
#1670 = DIRECTION('',(-1.,0.,0.));
#1671 = DIRECTION('',(0.,1.,0.));
#1672 = ADVANCED_FACE('',(#1673),#1684,.F.);
#1673 = FACE_BOUND('',#1674,.F.);
#1674 = EDGE_LOOP('',(#1675,#1676,#1677,#1683));
#1675 = ORIENTED_EDGE('',*,*,#1555,.T.);
#1676 = ORIENTED_EDGE('',*,*,#1105,.F.);
#1677 = ORIENTED_EDGE('',*,*,#1678,.F.);
#1678 = EDGE_CURVE('',#1248,#1106,#1679,.T.);
#1679 = LINE('',#1680,#1681);
#1680 = CARTESIAN_POINT('',(-29.825,7.65,-0.225));
#1681 = VECTOR('',#1682,1.);
#1682 = DIRECTION('',(-0.707106781187,0.,0.707106781187));
#1683 = ORIENTED_EDGE('',*,*,#1255,.T.);
#1684 = PLANE('',#1685);
#1685 = AXIS2_PLACEMENT_3D('',#1686,#1687,#1688);
#1686 = CARTESIAN_POINT('',(-28.5,7.65,-1.55));
#1687 = DIRECTION('',(0.707106781187,1.4E-16,0.707106781187));
#1688 = DIRECTION('',(1.100505063388E-17,1.,-2.089949493661E-16));
#1689 = ADVANCED_FACE('',(#1690),#1706,.F.);
#1690 = FACE_BOUND('',#1691,.F.);
#1691 = EDGE_LOOP('',(#1692,#1698,#1699,#1705));
#1692 = ORIENTED_EDGE('',*,*,#1693,.T.);
#1693 = EDGE_CURVE('',#1136,#1596,#1694,.T.);
#1694 = LINE('',#1695,#1696);
#1695 = CARTESIAN_POINT('',(31.15,7.65,1.1));
#1696 = VECTOR('',#1697,1.);
#1697 = DIRECTION('',(0.,0.,1.));
#1698 = ORIENTED_EDGE('',*,*,#1603,.T.);
#1699 = ORIENTED_EDGE('',*,*,#1700,.F.);
#1700 = EDGE_CURVE('',#1128,#1587,#1701,.T.);
#1701 = LINE('',#1702,#1703);
#1702 = CARTESIAN_POINT('',(31.15,2.35,1.1));
#1703 = VECTOR('',#1704,1.);
#1704 = DIRECTION('',(0.,0.,1.));
#1705 = ORIENTED_EDGE('',*,*,#1135,.F.);
#1706 = PLANE('',#1707);
#1707 = AXIS2_PLACEMENT_3D('',#1708,#1709,#1710);
#1708 = CARTESIAN_POINT('',(31.15,7.65,1.1));
#1709 = DIRECTION('',(1.,0.,0.));
#1710 = DIRECTION('',(0.,-1.,0.));
#1711 = ADVANCED_FACE('',(#1712),#1723,.F.);
#1712 = FACE_BOUND('',#1713,.F.);
#1713 = EDGE_LOOP('',(#1714,#1715,#1716,#1722));
#1714 = ORIENTED_EDGE('',*,*,#1501,.T.);
#1715 = ORIENTED_EDGE('',*,*,#1303,.F.);
#1716 = ORIENTED_EDGE('',*,*,#1717,.F.);
#1717 = EDGE_CURVE('',#1136,#1304,#1718,.T.);
#1718 = LINE('',#1719,#1720);
#1719 = CARTESIAN_POINT('',(28.5,7.65,-1.55));
#1720 = VECTOR('',#1721,1.);
#1721 = DIRECTION('',(-0.707106781187,0.,-0.707106781187));
#1722 = ORIENTED_EDGE('',*,*,#1143,.T.);
#1723 = PLANE('',#1724);
#1724 = AXIS2_PLACEMENT_3D('',#1725,#1726,#1727);
#1725 = CARTESIAN_POINT('',(28.5,7.65,-1.55));
#1726 = DIRECTION('',(-0.707106781187,2.1E-16,0.707106781187));
#1727 = DIRECTION('',(1.484924240492E-16,1.,-1.484924240492E-16));
#1728 = ADVANCED_FACE('',(#1729),#1735,.F.);
#1729 = FACE_BOUND('',#1730,.F.);
#1730 = EDGE_LOOP('',(#1731,#1732,#1733,#1734));
#1731 = ORIENTED_EDGE('',*,*,#1173,.F.);
#1732 = ORIENTED_EDGE('',*,*,#1231,.F.);
#1733 = ORIENTED_EDGE('',*,*,#1637,.T.);
#1734 = ORIENTED_EDGE('',*,*,#1654,.F.);
#1735 = PLANE('',#1736);
#1736 = AXIS2_PLACEMENT_3D('',#1737,#1738,#1739);
#1737 = CARTESIAN_POINT('',(-25.85,2.35,1.1));
#1738 = DIRECTION('',(0.,-1.,0.));
#1739 = DIRECTION('',(-1.,0.,0.));
#1740 = ADVANCED_FACE('',(#1741),#1747,.F.);
#1741 = FACE_BOUND('',#1742,.F.);
#1742 = EDGE_LOOP('',(#1743,#1744,#1745,#1746));
#1743 = ORIENTED_EDGE('',*,*,#1190,.F.);
#1744 = ORIENTED_EDGE('',*,*,#1700,.T.);
#1745 = ORIENTED_EDGE('',*,*,#1586,.T.);
#1746 = ORIENTED_EDGE('',*,*,#1327,.F.);
#1747 = PLANE('',#1748);
#1748 = AXIS2_PLACEMENT_3D('',#1749,#1750,#1751);
#1749 = CARTESIAN_POINT('',(31.15,2.35,1.1));
#1750 = DIRECTION('',(0.,-1.,0.));
#1751 = DIRECTION('',(-1.,0.,0.));
#1752 = ADVANCED_FACE('',(#1753),#1759,.T.);
#1753 = FACE_BOUND('',#1754,.T.);
#1754 = EDGE_LOOP('',(#1755,#1756,#1757,#1758));
#1755 = ORIENTED_EDGE('',*,*,#1540,.F.);
#1756 = ORIENTED_EDGE('',*,*,#1397,.T.);
#1757 = ORIENTED_EDGE('',*,*,#1270,.T.);
#1758 = ORIENTED_EDGE('',*,*,#1223,.F.);
#1759 = PLANE('',#1760);
#1760 = AXIS2_PLACEMENT_3D('',#1761,#1762,#1763);
#1761 = CARTESIAN_POINT('',(-25.35,2.5,-20.6));
#1762 = DIRECTION('',(-0.707106781187,0.,-0.707106781187));
#1763 = DIRECTION('',(0.,-1.,0.));
#1764 = ADVANCED_FACE('',(#1765),#1771,.F.);
#1765 = FACE_BOUND('',#1766,.F.);
#1766 = EDGE_LOOP('',(#1767,#1768,#1769,#1770));
#1767 = ORIENTED_EDGE('',*,*,#1678,.T.);
#1768 = ORIENTED_EDGE('',*,*,#1661,.T.);
#1769 = ORIENTED_EDGE('',*,*,#1630,.T.);
#1770 = ORIENTED_EDGE('',*,*,#1247,.F.);
#1771 = PLANE('',#1772);
#1772 = AXIS2_PLACEMENT_3D('',#1773,#1774,#1775);
#1773 = CARTESIAN_POINT('',(-31.15,7.65,1.1));
#1774 = DIRECTION('',(0.,1.,0.));
#1775 = DIRECTION('',(1.,0.,0.));
#1776 = ADVANCED_FACE('',(#1777),#1783,.T.);
#1777 = FACE_BOUND('',#1778,.T.);
#1778 = EDGE_LOOP('',(#1779,#1780,#1781,#1782));
#1779 = ORIENTED_EDGE('',*,*,#1486,.F.);
#1780 = ORIENTED_EDGE('',*,*,#1287,.T.);
#1781 = ORIENTED_EDGE('',*,*,#1342,.T.);
#1782 = ORIENTED_EDGE('',*,*,#1390,.F.);
#1783 = PLANE('',#1784);
#1784 = AXIS2_PLACEMENT_3D('',#1785,#1786,#1787);
#1785 = CARTESIAN_POINT('',(25.35,2.5,-20.6));
#1786 = DIRECTION('',(0.707106781187,0.,-0.707106781187));
#1787 = DIRECTION('',(-1.1E-16,-1.,-1.1E-16));
#1788 = ADVANCED_FACE('',(#1789),#1795,.F.);
#1789 = FACE_BOUND('',#1790,.F.);
#1790 = EDGE_LOOP('',(#1791,#1792,#1793,#1794));
#1791 = ORIENTED_EDGE('',*,*,#1717,.T.);
#1792 = ORIENTED_EDGE('',*,*,#1311,.F.);
#1793 = ORIENTED_EDGE('',*,*,#1595,.T.);
#1794 = ORIENTED_EDGE('',*,*,#1693,.F.);
#1795 = PLANE('',#1796);
#1796 = AXIS2_PLACEMENT_3D('',#1797,#1798,#1799);
#1797 = CARTESIAN_POINT('',(25.85,7.65,1.1));
#1798 = DIRECTION('',(0.,1.,0.));
#1799 = DIRECTION('',(1.,0.,0.));
#1800 = ADVANCED_FACE('',(#1801),#1808,.T.);
#1801 = FACE_BOUND('',#1802,.T.);
#1802 = EDGE_LOOP('',(#1803,#1804,#1805,#1806,#1807));
#1803 = ORIENTED_EDGE('',*,*,#1493,.T.);
#1804 = ORIENTED_EDGE('',*,*,#1374,.T.);
#1805 = ORIENTED_EDGE('',*,*,#901,.T.);
#1806 = ORIENTED_EDGE('',*,*,#189,.T.);
#1807 = ORIENTED_EDGE('',*,*,#710,.T.);
#1808 = PLANE('',#1809);
#1809 = AXIS2_PLACEMENT_3D('',#1810,#1811,#1812);
#1810 = CARTESIAN_POINT('',(21.1,5.798340871313,1.748292468547));
#1811 = DIRECTION('',(-1.,-0.,-0.));
#1812 = DIRECTION('',(0.,0.,-1.));
#1813 = ADVANCED_FACE('',(#1814),#1821,.T.);
#1814 = FACE_BOUND('',#1815,.T.);
#1815 = EDGE_LOOP('',(#1816,#1817,#1818,#1819,#1820));
#1816 = ORIENTED_EDGE('',*,*,#1547,.F.);
#1817 = ORIENTED_EDGE('',*,*,#887,.T.);
#1818 = ORIENTED_EDGE('',*,*,#207,.T.);
#1819 = ORIENTED_EDGE('',*,*,#910,.T.);
#1820 = ORIENTED_EDGE('',*,*,#1367,.F.);
#1821 = PLANE('',#1822);
#1822 = AXIS2_PLACEMENT_3D('',#1823,#1824,#1825);
#1823 = CARTESIAN_POINT('',(-21.1,5.798340871313,1.748292468547));
#1824 = DIRECTION('',(1.,0.,0.));
#1825 = DIRECTION('',(0.,0.,1.));
#1826 = ( GEOMETRIC_REPRESENTATION_CONTEXT(3) 
GLOBAL_UNCERTAINTY_ASSIGNED_CONTEXT((#1830)) 
GLOBAL_UNIT_ASSIGNED_CONTEXT((#1827,#1828,#1829)) REPRESENTATION_CONTEXT
('Context #1','3D Context with UNIT and UNCERTAINTY') );
#1827 = ( LENGTH_UNIT() NAMED_UNIT(*) SI_UNIT(.MILLI.,.METRE.) );
#1828 = ( NAMED_UNIT(*) PLANE_ANGLE_UNIT() SI_UNIT($,.RADIAN.) );
#1829 = ( NAMED_UNIT(*) SI_UNIT($,.STERADIAN.) SOLID_ANGLE_UNIT() );
#1830 = UNCERTAINTY_MEASURE_WITH_UNIT(LENGTH_MEASURE(5.E-06),#1827,
  'distance_accuracy_value','confusion accuracy');
#1831 = PRODUCT_RELATED_PRODUCT_CATEGORY('part',$,(#7));
ENDSEC;
END-ISO-10303-21;
